<?xml version="1.0" standalone="no"?>
<!DOCTYPE svg PUBLIC "-//W3C//DTD SVG 1.1//EN" "http://www.w3.org/Graphics/SVG/1.1/DTD/svg11.dtd" >
<svg xmlns="http://www.w3.org/2000/svg">
<metadata></metadata>
<defs>
<font id="exo_2.0extra_bold" horiz-adv-x="580" >
<font-face units-per-em="1000" ascent="800" descent="-200" />
<missing-glyph horiz-adv-x="213" />
<glyph unicode="fi" horiz-adv-x="700" d="M13 383v109l84 5v63q0 162 174 162q85 0 142 -12v-113h-78q-31 0 -43 -13.5t-12 -47.5v-39h365v-497h-183v383h-182v-383h-183v383h-84zM462 622v53q0 53 53 53h77q54 0 54 -53v-53q0 -53 -54 -53h-77q-53 0 -53 53z" />
<glyph unicode="fl" horiz-adv-x="750" d="M13 383v109l83 5v63q0 163 172 162q271 0 381 -21v-532q0 -43 46 -43h32l20 -116q-39 -23 -130 -23q-70 0 -110 35.5t-40 98.5v478h-134q-31 0 -43 -13.5t-12 -49.5v-39h114v-114h-114v-383h-182v383h-83z" />
<glyph unicode=" "  horiz-adv-x="213" />
<glyph unicode="&#x09;" horiz-adv-x="213" />
<glyph unicode="&#xa0;" horiz-adv-x="213" />
<glyph unicode="!" horiz-adv-x="316" d="M67 445v250h181v-250l-19 -222h-143zM75 63v44q0 36 13.5 49.5t48.5 13.5h42q35 0 48.5 -13.5t13.5 -49.5v-44q0 -36 -13.5 -49.5t-48.5 -13.5h-42q-35 0 -48.5 13.5t-13.5 49.5z" />
<glyph unicode="&#x22;" horiz-adv-x="385" d="M43 690h128l-11 -225h-107zM214 690h128l-11 -225h-106z" />
<glyph unicode="#" horiz-adv-x="726" d="M26 189l21 107h115l21 118h-115l21 107h112l30 169h135l-29 -169h115l30 169h135l-29 -169h112l-20 -107h-111l-20 -118h109l-20 -107h-108l-33 -189h-135l33 189h-116l-33 -189h-135l33 189h-118zM298 296h115l21 118h-116z" />
<glyph unicode="$" horiz-adv-x="587" d="M38 506q0 111 53 153t186 44l11 88h135l-11 -93q71 -8 125 -26l-12 -123q-171 3 -226 3q-46 0 -62 -8t-16 -35q0 -23 13.5 -35.5t52.5 -25.5l123 -49q81 -33 114 -81t33 -126q0 -110 -50 -155.5t-179 -49.5l-10 -101h-135l11 105q-86 10 -150 26l11 134q198 -5 236 -5 q48 0 64.5 8.5t16.5 33.5q0 24 -11.5 35t-43.5 23l-134 55q-79 33 -112 80.5t-33 124.5z" />
<glyph unicode="%" horiz-adv-x="915" d="M28 498q0 116 38.5 161t137.5 45q100 0 139 -45t39 -161t-39 -161t-139 -45q-99 0 -137.5 45t-38.5 161zM161 498q0 -71 8 -90t35 -19q28 0 36 19t8 90t-8 90t-36 19q-27 0 -35 -19.5t-8 -89.5zM203 0l395 690h112l-395 -690h-112zM534 193q0 116 38.5 161t137.5 45 q100 0 139 -45t39 -161t-39 -161t-139 -45q-99 0 -137.5 45t-38.5 161zM667 193q-1 -71 7 -90t36 -19q27 0 35.5 19.5t8.5 89.5t-8.5 89t-35.5 19q-28 0 -36 -18.5t-7 -89.5z" />
<glyph unicode="&#x26;" horiz-adv-x="763" d="M42 176q0 82 32 127t105 52v6q-61 6 -88 44t-27 115q0 49 10 81.5t28.5 53t53.5 31t75.5 14t105.5 3.5q100 0 165 -13l-22 -124q-114 3 -148 3q-48 0 -63.5 -14.5t-15.5 -63.5q0 -46 14.5 -62t57.5 -16h132l11 97h154v-97h96v-118h-96v-123q0 -24 9 -33.5t31 -9.5h55 l20 -119q-52 -23 -140 -23q-97 0 -131 67q-40 -36 -87.5 -51.5t-123.5 -15.5q-114 0 -163.5 43t-49.5 146zM241 214q0 -50 13 -66.5t57 -15.5q80 2 140 28v135h-137q-45 0 -59 -16t-14 -65z" />
<glyph unicode="'" horiz-adv-x="214" d="M43 690h128l-11 -225h-107z" />
<glyph unicode="(" horiz-adv-x="369" d="M31 312q0 202 74 318t231 160l21 -77q-150 -64 -150 -400q0 -331 150 -401l-21 -77q-157 45 -231 160.5t-74 316.5z" />
<glyph unicode=")" horiz-adv-x="369" d="M12 -88q150 70 150 401q0 336 -150 400l21 77q157 -44 231 -160t74 -318q0 -201 -74 -316.5t-231 -160.5z" />
<glyph unicode="*" horiz-adv-x="454" d="M30 524l30 93l114 -50v-43l-22 -26zM82 391l111 128l-15 173h98l-14 -172l110 -129l-78 -58l-67 120l-66 -120zM280 567l114 51l30 -94l-121 -26l-22 26z" />
<glyph unicode="+" horiz-adv-x="530" d="M33 235v134h165v163h134v-163h165v-134h-165v-162h-134v162h-165z" />
<glyph unicode="," horiz-adv-x="249" d="M40 56l2 51q2 36 15 49.5t48 13.5h38q35 0 48.5 -13.5t14.5 -49.5v-64q0 -64 -14.5 -108.5t-45.5 -89.5l-70 22q15 52 17 133q-51 0 -53 56z" />
<glyph unicode="-" horiz-adv-x="395" d="M50 201v110h294v-110h-294z" />
<glyph unicode="." horiz-adv-x="253" d="M42 63v44q0 36 13.5 49.5t49.5 13.5h43q36 0 49.5 -13.5t13.5 -49.5v-44q0 -36 -13.5 -49.5t-49.5 -13.5h-43q-36 0 -49.5 13.5t-13.5 49.5z" />
<glyph unicode="/" horiz-adv-x="571" d="M17 -76l393 766h144l-393 -766h-144z" />
<glyph unicode="0" horiz-adv-x="645" d="M41 345q0 201 62 280t219 79q158 0 220.5 -79t62.5 -280t-62.5 -280t-220.5 -79q-157 0 -219 79t-62 280zM226 345q0 -93 9 -138.5t28 -61.5t58 -16q41 0 60.5 16t28.5 61.5t9 138.5t-9 138.5t-28.5 61.5t-60.5 16q-39 0 -58 -16t-28 -61.5t-9 -138.5z" />
<glyph unicode="1" horiz-adv-x="449" d="M6 622l175 68h187v-690h-187v457q0 49 7 82l-160 -36z" />
<glyph unicode="2" horiz-adv-x="590" d="M39 0v98q0 46 26 75l155 160q124 126 123 180q0 20 -16.5 26t-59.5 6q-121 0 -216 -5l-7 139q116 23 247 23q121 0 182.5 -36t61.5 -131q0 -59 -21 -102.5t-87 -112.5l-170 -167q36 9 97 9h199v-162h-514z" />
<glyph unicode="3" horiz-adv-x="572" d="M34 5l6 135q104 -6 191 -6q68 0 91 16t23 67q0 46 -18 64t-72 17l-132 -1v120h132q52 0 67 17.5t14 57.5q0 41 -18 53t-72 12q-90 0 -192 -2l-6 130q114 19 231 19q129 0 181 -35t52 -126q0 -80 -23.5 -122t-86.5 -52v-4q71 -11 99 -51.5t29 -121.5q2 -110 -55 -158 t-193 -48q-113 0 -248 19z" />
<glyph unicode="4" horiz-adv-x="649" d="M23 252l172 438h175l-151 -391q-6 -14 -0.5 -21.5t18.5 -7.5h135v177l30 108h141v-285h82v-107l-80 -18h-2v-145h-171v145h-276q-44 0 -66.5 33.5t-6.5 73.5z" />
<glyph unicode="5" horiz-adv-x="560" d="M30 8l17 141q106 -8 179 -8q66 0 89 17t26 61q2 47 -24 63.5t-100 22.5l-107 13q-25 3 -40 20.5t-14 41.5l18 310h432l-7 -138h-283l-7 -96l115 -15q204 -23 202 -228q0 -225 -251 -225q-110 0 -245 20z" />
<glyph unicode="6" horiz-adv-x="599" d="M42 338q0 94 12.5 159t35 105t61.5 62.5t83 30t109 7.5q107 0 178 -20l-8 -116q-57 1 -170 1q-68 0 -91.5 -28.5t-27.5 -123.5q51 40 141 40q115 0 158.5 -48.5t43.5 -165.5q0 -68 -10.5 -112.5t-38.5 -78t-79 -48t-129 -14.5q-106 0 -162 29.5t-81 104t-25 216.5z M222 302q1 -117 15.5 -147.5t73.5 -30.5q53 0 66.5 22.5t13.5 90.5q0 56 -16 73.5t-65 17.5q-43 0 -88 -26z" />
<glyph unicode="7" horiz-adv-x="535" d="M20 690h430q41 0 62 -27t8 -65l-208 -598h-184l166 466q19 50 34 73h-300z" />
<glyph unicode="8" horiz-adv-x="630" d="M44 172q0 173 123 184v4q-53 6 -79 51t-26 107q0 102 51.5 143.5t201.5 41.5q104 0 159.5 -20.5t75 -58t19.5 -106.5q0 -62 -26 -107t-79 -51v-4q122 -11 122 -184q0 -104 -55.5 -144.5t-215.5 -41.5q-157 -1 -214 40.5t-57 145.5zM220 208q0 -52 19 -69t77 -17 q57 0 75 17t18 69q0 55 -17.5 72.5t-74.5 17.5q-59 0 -78 -18t-19 -72zM230 494q0 -46 17.5 -61t70.5 -15q52 0 67.5 15t15.5 61q0 51 -16.5 67t-68.5 16q-53 0 -69.5 -16t-16.5 -67z" />
<glyph unicode="9" horiz-adv-x="599" d="M34 449q-1 137 54.5 195t202.5 58q84 0 133.5 -14.5t80 -56.5t40.5 -106t10 -173q0 -94 -11 -157.5t-31 -105t-58.5 -63.5t-84 -30t-116.5 -8q-112 0 -192 20l9 117q61 -1 183 -1q68 0 92 31.5t28 120.5q-50 -41 -142 -41q-109 0 -153.5 55.5t-44.5 158.5zM210 453 q-1 -54 15 -72.5t64 -18.5q42 0 87 26q-1 116 -15.5 147.5t-71.5 31.5q-51 0 -65.5 -24t-13.5 -90z" />
<glyph unicode=":" horiz-adv-x="269" d="M43 64v44q0 35 13.5 49t49.5 14h43q36 0 49.5 -14t13.5 -49v-44q0 -36 -13.5 -49.5t-49.5 -13.5h-43q-36 0 -49.5 13.5t-13.5 49.5zM43 350v44q0 36 13.5 49.5t49.5 13.5h43q36 0 49.5 -13.5t13.5 -49.5v-44q0 -36 -13.5 -49.5t-49.5 -13.5h-43q-36 0 -49.5 13.5 t-13.5 49.5z" />
<glyph unicode=";" horiz-adv-x="269" d="M49 56l3 51q1 36 14 49.5t48 13.5h39q35 0 48 -13.5t14 -49.5v-64q0 -64 -14.5 -108.5t-45.5 -89.5l-70 22q15 52 17 133q-51 0 -53 56zM51 350v44q0 36 13.5 49.5t49.5 13.5h43q36 0 49.5 -13.5t13.5 -49.5v-44q0 -36 -13.5 -49.5t-49.5 -13.5h-43q-36 0 -49.5 13.5 t-13.5 49.5z" />
<glyph unicode="&#x3c;" horiz-adv-x="511" d="M32 232v140l429 161v-141l-276 -90l276 -89v-142z" />
<glyph unicode="=" horiz-adv-x="575" d="M52 129v127h471v-127h-471zM52 343v128h471v-128h-471z" />
<glyph unicode="&#x3e;" horiz-adv-x="509" d="M50 71v142l273 89l-273 90v141l426 -161v-140z" />
<glyph unicode="?" horiz-adv-x="527" d="M27 686q7 1 36 7t36 7t32 4.5t42 4.5t46 2t62 1q112 0 166.5 -38t54.5 -117q0 -40 -17 -74t-42 -60t-51 -52t-46.5 -64t-24.5 -84h-144q-3 58 16 109.5t43.5 80.5t47.5 58.5t25 48.5q4 25 -13 36t-59 11q-67 0 -205 -2zM165 63v44q0 36 13.5 49.5t49.5 13.5h41 q36 0 49.5 -13.5t13.5 -49.5v-44q0 -36 -13.5 -49.5t-49.5 -13.5h-41q-36 0 -49.5 13.5t-13.5 49.5z" />
<glyph unicode="@" horiz-adv-x="781" d="M47 269q0 80 3.5 129t17 91t34 62.5t61.5 35.5t92 19t132 4h158q94 0 140.5 -41t46.5 -138v-294h-133l-15 65q-65 -77 -164 -77q-65 0 -107 33t-42 94v46q0 53 36.5 83.5t101.5 30.5h156v19q0 29 -12.5 40t-45.5 11h-120q-35 0 -52 -0.5t-39.5 -4t-31.5 -8t-21.5 -16 t-15.5 -25t-8 -38t-5.5 -52t-0.5 -69.5q0 -57 1.5 -90t12.5 -59.5t19 -37.5t38.5 -18t53.5 -7.5t79 -0.5h18h297v-115q-184 -15 -296 -15q-93 0 -151 3.5t-105 18.5t-70.5 36t-39 63.5t-19.5 91.5t-4 130zM432 278q0 -36 42 -36q51 0 91 31v58l-93 -4q-40 -3 -40 -34v-15z " />
<glyph unicode="A" horiz-adv-x="668" d="M-5 0l189 641q5 22 22.5 35.5t40.5 13.5h174q23 0 40.5 -13.5t23.5 -35.5l188 -641h-192l-41 164h-212l-41 -164h-192zM263 300h142l-44 177q-11 52 -13 72h-27q-7 -38 -14 -72z" />
<glyph unicode="B" horiz-adv-x="650" d="M60 0v690q96 8 281 8q142 0 197 -37.5t55 -142.5q0 -75 -29 -113t-94 -44v-6q78 -7 112 -52t34 -131q0 -103 -56 -141.5t-187 -38.5q-207 0 -313 8zM244 125l96 -1q53 0 70.5 17t17.5 68q0 55 -18 73t-72 18h-94v-175zM244 415h92q46 0 62 15.5t16 61.5q0 45 -17 59.5 t-66 14.5h-87v-151z" />
<glyph unicode="C" horiz-adv-x="596" d="M39 345q0 197 68 277t234 80q126 0 218 -25l-14 -138q-102 3 -204 3q-62 0 -83.5 -40.5t-21.5 -156.5t21.5 -156.5t83.5 -40.5q145 0 218 8l15 -137q-90 -31 -233 -31q-166 0 -234 80t-68 277z" />
<glyph unicode="D" horiz-adv-x="691" d="M60 0v690q168 10 283 10q174 0 241.5 -75t67.5 -280t-67.5 -280t-241.5 -75q-145 0 -283 10zM248 132q29 -1 95 -1q65 0 88 43.5t23 170.5t-23 171t-88 44l-95 -1v-427z" />
<glyph unicode="E" horiz-adv-x="587" d="M55 145v400q0 67 43.5 107.5t113.5 40.5q244 0 342 -11l-9 -135h-259q-43 0 -43 -43v-84h265v-129h-265v-105q0 -43 43 -43h259l9 -135q-98 -11 -342 -11q-71 0 -114 40.5t-43 107.5z" />
<glyph unicode="F" horiz-adv-x="565" d="M58 0v543q0 68 44 109t115 41q237 0 330 -12l-9 -134h-244q-48 0 -48 -43v-97h255v-130h-255v-277h-188z" />
<glyph unicode="G" horiz-adv-x="658" d="M39 346q0 200 71 279t247 79q131 0 230 -27l-15 -136q-108 3 -213 3q-73 0 -98 -38.5t-25 -161.5q0 -115 21 -156t79 -41q48 0 97 17v233h180v-397h-138l-16 70q-31 -34 -81 -59t-114 -25q-118 0 -171.5 84t-53.5 276z" />
<glyph unicode="H" horiz-adv-x="702" d="M61 0v690h187v-255h206v255h188v-690h-188v298h-206v-298h-187z" />
<glyph unicode="I" horiz-adv-x="308" d="M61 0v690h186v-690h-186z" />
<glyph unicode="J" horiz-adv-x="388" d="M15 10l20 121h47q62 0 62 43v516h186v-555q0 -71 -45 -109.5t-125 -38.5q-97 0 -145 23z" />
<glyph unicode="K" horiz-adv-x="656" d="M61 0v690h187v-183q0 -47 -8 -86h47l158 269h202l-167 -272q-21 -37 -56 -59v-3q41 -24 64 -65l170 -291h-208l-162 295h-48q8 -35 8 -64v-231h-187z" />
<glyph unicode="L" horiz-adv-x="546" d="M58 149v541h188v-497q0 -43 47 -43h234l9 -141q-98 -12 -317 -12q-77 0 -119 41.5t-42 110.5z" />
<glyph unicode="M" horiz-adv-x="933" d="M48 0l24 623q3 67 68 67h168q61 0 73 -59l65 -306q6 -31 14 -100h11q1 7 6 44t9 57l63 305q12 59 73 59h171q65 0 68 -67l25 -623h-172l-22 547h-16l-84 -386q-11 -58 -73 -58h-106q-62 0 -74 58l-85 386h-16l-18 -547h-172z" />
<glyph unicode="N" horiz-adv-x="731" d="M60 0v624q0 66 66 66h88q27 0 41.5 -12.5t31.5 -42.5l158 -285q25 -45 52 -115h8q-7 69 -8 121v334h174v-624q0 -66 -65 -66h-89q-27 0 -42 12.5t-31 42.5l-164 296q-27 51 -45 113h-8q8 -62 8 -118v-346h-175z" />
<glyph unicode="O" horiz-adv-x="697" d="M39 345q0 208 67.5 283.5t241.5 75.5q118 0 183 -31.5t96 -109t31 -218.5t-31 -218.5t-96 -109t-183 -31.5q-174 0 -241.5 75.5t-67.5 283.5zM236 345q0 -127 23 -171t89 -44t89 44t23 171t-23 171t-89 44t-89 -44t-23 -171z" />
<glyph unicode="P" horiz-adv-x="632" d="M60 0v690q98 10 278 10q156 0 213.5 -48t57.5 -183q0 -133 -53.5 -181.5t-191.5 -48.5q-51 0 -116 7v-246h-188zM248 376h86q51 0 69 19t18 74q0 56 -18 75t-69 19h-86v-187z" />
<glyph unicode="Q" horiz-adv-x="697" d="M39 345q0 106 16 174.5t54 110t94.5 58t144.5 16.5q175 0 242.5 -75.5t67.5 -283.5t-67.5 -283.5t-242.5 -75.5q-88 0 -144.5 16.5t-94.5 58t-54 110t-16 174.5zM236 345q0 -127 23 -171t89 -44t89 44t23 171t-23 171t-89 44t-89 -44t-23 -171zM252 -123l41 93 q118 -43 316 -71l-48 -158q-177 48 -309 136z" />
<glyph unicode="R" horiz-adv-x="661" d="M60 0v690q98 10 279 10q149 0 212 -45.5t63 -162.5q0 -152 -136 -167v-6q87 -14 106 -106l57 -213h-197l-49 208q-7 30 -21.5 41t-43.5 11h-85v-260h-185zM245 397h90q53 0 71.5 17t18.5 66t-18.5 66t-71.5 17h-90v-166z" />
<glyph unicode="S" horiz-adv-x="597" d="M36 506q0 116 59 156.5t210 40.5q145 0 240 -31l-12 -123q-177 3 -230 3q-48 0 -64.5 -8t-16.5 -35q0 -23 14 -35.5t52 -25.5l127 -49q83 -33 117 -81t34 -126q0 -117 -58.5 -161t-211.5 -44q-132 0 -253 30l11 133q205 -5 241 -5q50 0 66.5 8.5t16.5 34.5q0 24 -11.5 35 t-43.5 23l-138 55q-81 33 -115 80.5t-34 124.5z" />
<glyph unicode="T" horiz-adv-x="613" d="M14 545v145h585v-145h-199v-545h-188v545h-198z" />
<glyph unicode="U" horiz-adv-x="694" d="M55 280v410h188v-410q0 -88 22 -119t82 -31t82 31t22 119v410h188v-410q0 -161 -63.5 -227.5t-218.5 -66.5q-166 0 -234 66.5t-68 227.5z" />
<glyph unicode="V" horiz-adv-x="655" d="M2 690h193l106 -471q8 -38 14 -78h25q2 20 14 78l105 471h194l-177 -639q-5 -23 -23 -37t-42 -14h-167q-24 0 -42 14t-23 37z" />
<glyph unicode="W" horiz-adv-x="989" d="M23 690h187l50 -448q5 -50 6 -109h18q1 7 16 109l58 392q3 25 21 40.5t44 15.5h144q25 0 43 -15.5t21 -40.5l59 -393l15 -108h18q1 44 7 107l49 450h188l-97 -639q-4 -23 -22 -37t-43 -14h-167q-25 0 -43.5 14t-21.5 37l-60 413q-6 46 -9 95h-18q-6 -68 -10 -96l-59 -412 q-3 -23 -21.5 -37t-43.5 -14h-168q-24 0 -42.5 14t-22.5 37z" />
<glyph unicode="X" horiz-adv-x="661" d="M2 0l175 353l-161 337h187l124 -280h6l124 280h188l-161 -337l175 -353h-189l-138 300h-4l-137 -300h-189z" />
<glyph unicode="Y" horiz-adv-x="633" d="M-5 690h194l99 -233q13 -30 23 -93h12q14 70 23 93l99 233h193l-227 -469v-221h-188v220z" />
<glyph unicode="Z" horiz-adv-x="595" d="M34 0v136l312 418h-303v136h510v-136l-312 -418h321v-136h-528z" />
<glyph unicode="[" horiz-adv-x="355" d="M68 -75v753q0 40 25 65t65 25h169v-112h-69q-20 0 -20 -20v-669q0 -20 20 -20h69v-112h-169q-43 0 -66.5 20.5t-23.5 69.5z" />
<glyph unicode="\" horiz-adv-x="571" d="M17 690h144l393 -766h-144z" />
<glyph unicode="]" horiz-adv-x="355" d="M28 -53h69q21 0 21 20v669q0 20 -21 20h-69v112h169q40 0 65 -25t25 -65v-753q0 -40 -25 -65t-65 -25h-169v112z" />
<glyph unicode="^" horiz-adv-x="481" d="M30 409l146 232h132l143 -232l-70 -38l-135 161h-8l-138 -161z" />
<glyph unicode="_" horiz-adv-x="543" d="M47 0h448v-111h-448v111z" />
<glyph unicode="`" horiz-adv-x="374" d="M35 623l74 119l218 -149l-51 -76z" />
<glyph unicode="a" d="M28 129v50q0 59 42.5 93t116.5 34h165v12q-1 32 -15.5 44.5t-53.5 12.5q-97 0 -213 -7l-16 118q132 25 272 25q105 0 156 -43.5t51 -150.5v-317h-144l-17 73q-72 -86 -177 -86q-73 0 -120 37.5t-47 104.5zM206 155q0 -40 49 -40q44 0 97 34v62h-104q-42 -1 -42 -39v-17z " />
<glyph unicode="b" horiz-adv-x="606" d="M50 28v672h183v-147q2 -66 -14 -119q79 77 168 77q101 0 143.5 -59.5t42.5 -197.5q0 -46 -6 -83t-23 -72t-45 -58.5t-74.5 -38t-108.5 -14.5q-64 0 -145 10.5t-121 29.5zM231 121q44 -8 82 -6q42 2 57.5 30t15.5 108q0 71 -14.5 94.5t-58.5 23.5q-36 0 -82 -25v-225z" />
<glyph unicode="c" horiz-adv-x="518" d="M32 249q0 144 58.5 203t201.5 59q121 0 196 -34l-18 -113l-147 1q-58 0 -79 -24t-21 -92t21 -92t79 -24q87 0 156 8l17 -115q-77 -38 -206 -38q-142 0 -200 58.5t-58 202.5z" />
<glyph unicode="d" horiz-adv-x="608" d="M34 254q0 145 46 201t144 56q97 0 155 -43q-4 68 -4 106v126h182v-700h-144l-15 77q-61 -89 -186 -89q-93 0 -135.5 67.5t-42.5 198.5zM221 255q0 -74 14.5 -97t52.5 -23q46 0 87 26v209q-50 16 -83 16q-41 0 -56 -24.5t-15 -106.5z" />
<glyph unicode="e" horiz-adv-x="576" d="M32 246q0 146 61.5 205.5t207.5 59.5q131 0 189 -43.5t59 -132.5q1 -70 -39 -102t-135 -32h-149q7 -41 28.5 -56.5t69.5 -15.5q91 0 195 12l16 -111q-83 -42 -231 -42q-147 0 -209.5 62t-62.5 196zM222 295h102q31 0 40.5 9.5t9.5 34.5q0 29 -15 39t-53 10q-47 1 -64 -17 t-20 -76z" />
<glyph unicode="f" horiz-adv-x="417" d="M13 383v109l85 5v67q0 158 174 158q109 0 172 -12l-17 -113h-90q-32 0 -44 -12.5t-12 -45.5v-42h126v-114h-126v-383h-183v383h-85z" />
<glyph unicode="g" horiz-adv-x="593" d="M15 -41q0 38 17.5 62.5t60.5 43.5q-34 35 -25.5 83.5t48.5 69.5q-80 34 -80 134q0 87 55.5 123t192.5 36q83 0 137 -14h164l-9 -72l-57 -8q9 -28 9 -64q0 -87 -54.5 -122.5t-190.5 -35.5q-48 0 -80 4q-11 -13 -4 -31t33 -21l181 -16q81 -7 116.5 -43.5t35.5 -108.5 q0 -99 -60.5 -132t-215.5 -33q-111 0 -170.5 15t-81.5 44.5t-22 85.5zM186 -15q0 -27 19.5 -35t81.5 -8q65 0 86 7.5t21 31.5q0 21 -16 27.5t-63 10.5l-105 9q-24 -18 -24 -43zM205 353q0 -31 16.5 -42t61.5 -11q44 0 60 11t16 42t-16 41.5t-60 10.5q-45 0 -61.5 -10.5 t-16.5 -41.5z" />
<glyph unicode="h" horiz-adv-x="611" d="M51 0v700h183v-159q0 -57 -10 -107q97 77 195 77q71 0 107.5 -35.5t36.5 -103.5v-372h-182v315q0 24 -9 33t-32 9q-43 0 -107 -26v-331h-182z" />
<glyph unicode="i" horiz-adv-x="291" d="M53 615v52q0 54 53 54h79q52 0 52 -54v-52q0 -53 -52 -53h-79q-53 0 -53 53zM55 0v497h181v-497h-181z" />
<glyph unicode="j" horiz-adv-x="292" d="M-9 -113q65 68 65 155v455h181v-455q0 -75 -39.5 -139.5t-106.5 -95.5zM53 622v53q0 53 52 53h79q52 0 52 -53v-53q0 -53 -52 -53h-79q-52 0 -52 53z" />
<glyph unicode="k" horiz-adv-x="585" d="M51 0v700h182v-278q0 -53 -8 -94h38l107 169h200l-115 -167q-20 -34 -52 -54v-4q10 -5 26 -23.5t26 -36.5l133 -212h-201l-125 222h-36q7 -46 7 -74v-148h-182z" />
<glyph unicode="l" horiz-adv-x="344" d="M52 125v575h181v-527q0 -43 53 -43h36l21 -120q-40 -23 -134 -23q-73 0 -115 36.5t-42 101.5z" />
<glyph unicode="m" horiz-adv-x="882" d="M51 0v497h143l15 -73q87 87 183 87q101 0 128 -77q81 77 173 77q141 0 141 -139v-372h-181v315q0 23 -9 32.5t-32 9.5q-32 0 -82 -26v-331h-175v315q0 23 -10 32.5t-32 9.5q-33 0 -81 -24v-333h-181z" />
<glyph unicode="n" horiz-adv-x="611" d="M51 0v497h145l15 -73q102 87 208 87q71 0 107.5 -35.5t36.5 -103.5v-372h-182v315q0 24 -9 33t-32 9q-43 0 -107 -26v-331h-182z" />
<glyph unicode="o" horiz-adv-x="600" d="M32 248q0 144 61 203.5t207 59.5q147 0 207.5 -59.5t60.5 -203.5q0 -143 -60.5 -201.5t-207.5 -58.5t-207.5 58.5t-60.5 201.5zM223 248q0 -81 15 -107t62 -26q46 0 61.5 26t15.5 107q0 82 -15.5 108.5t-61.5 26.5q-47 0 -62 -26.5t-15 -108.5z" />
<glyph unicode="p" horiz-adv-x="611" d="M51 -185v682h146l14 -70q28 35 80.5 58.5t109.5 23.5q176 0 176 -266q0 -145 -45.5 -200.5t-143.5 -55.5q-100 0 -159 45q4 -47 4 -108v-109h-182zM233 128q57 -17 86 -17q41 0 56 24.5t15 106.5q0 81 -14 106.5t-51 25.5q-41 0 -92 -31v-215z" />
<glyph unicode="q" horiz-adv-x="606" d="M33 245q0 64 10.5 108.5t37.5 82.5t79 56.5t130 18.5q64 0 145 -10.5t121 -30.5v-655h-182v137q0 66 14 118q-82 -82 -172 -82q-97 0 -140 64t-43 193zM220 244q0 -64 14 -86.5t56 -22.5q37 0 85 23v219q-48 9 -82 7q-43 -2 -58 -30t-15 -110z" />
<glyph unicode="r" horiz-adv-x="440" d="M51 0v497h142l16 -73q97 87 198 87h27l-16 -167h-48q-50 0 -137 -21v-323h-182z" />
<glyph unicode="s" horiz-adv-x="541" d="M30 367q0 74 50.5 109t171.5 35q144 -2 243 -21l-11 -110q-66 1 -194 1q-58 0 -71 -2.5t-13 -18.5q0 -3 0.5 -6t2 -5t3 -3.5t4.5 -3l6 -3t8.5 -3t10 -2.5t12.5 -3t14 -4l120 -32q68 -19 98 -51.5t30 -95.5q0 -91 -53 -125t-182 -34q-127 0 -242 19l11 110q10 0 73 -0.5 t102 -0.5q74 0 94.5 4.5t20.5 21.5q0 4 -1 7t-4 6t-5.5 4.5t-9 3.5t-12 3.5t-16 4.5t-19.5 6l-116 32q-73 21 -99.5 57.5t-26.5 99.5z" />
<glyph unicode="t" horiz-adv-x="426" d="M14 383v109l85 4v135h183v-134h128v-114h-128v-210q0 -24 10.5 -33.5t36.5 -9.5h58l20 -120q-57 -23 -156 -23q-71 0 -111 37t-40 104v255h-86z" />
<glyph unicode="u" horiz-adv-x="604" d="M48 125v372h182v-315q0 -23 10 -33t34 -10q39 0 96 25v333h183v-497h-144l-15 71q-100 -85 -202 -85q-144 0 -144 139z" />
<glyph unicode="v" horiz-adv-x="584" d="M2 497h192l74 -291q6 -28 17 -91h13q3 15 9 45.5t9 45.5l74 291h192l-154 -454q-15 -43 -58 -43h-156q-45 0 -58 43z" />
<glyph unicode="w" horiz-adv-x="863" d="M12 497h181l50 -299q8 -59 10 -85h12q3 24 11 85l38 246q3 23 20.5 38t41.5 15h110q24 0 41.5 -15t20.5 -39l37 -245q1 -6 5.5 -37.5t6.5 -47.5h12q6 56 11 85l49 299h182l-110 -450q-5 -22 -21.5 -34.5t-39.5 -12.5h-133q-24 0 -42 15t-21 39l-38 251q-1 11 -9 86h-12 q-5 -49 -10 -86l-38 -251q-3 -24 -21 -39t-42 -15h-131q-23 0 -39.5 12.5t-21.5 34.5z" />
<glyph unicode="x" horiz-adv-x="587" d="M3 0l148 254l-137 243h182l97 -186l98 186h182l-137 -243l148 -254h-182l-109 200l-108 -200h-182z" />
<glyph unicode="y" horiz-adv-x="584" d="M2 497h193l74 -296q6 -30 14 -85h11q7 26 20 85l74 296h193l-166 -492q-11 -34 -26.5 -64t-41.5 -62t-59 -50t-78 -29t-100 1l-13 101q112 25 148 98h-32q-45 0 -58 43z" />
<glyph unicode="z" horiz-adv-x="534" d="M34 0v122l250 253h-245v122h455v-122l-250 -253h256v-122h-466z" />
<glyph unicode="{" horiz-adv-x="350" d="M28 271v114q17 6 20.5 7t12.5 6t10 11t3 16t2 27v173q0 81 59.5 121t182.5 22v-111q-42 0 -55.5 -8.5t-13.5 -40.5v-137q1 -67 -22.5 -100.5t-87.5 -42.5q64 -17 88.5 -50t25.5 -89v-197q0 -31 13.5 -38.5t55.5 -7.5v-111q-123 -18 -182.5 22t-59.5 121v230q0 22 -7 34 t-14 15.5t-31 13.5z" />
<glyph unicode="|" horiz-adv-x="269" d="M71 -169v950h127v-950h-127z" />
<glyph unicode="}" horiz-adv-x="350" d="M29 -54q42 0 55.5 7.5t13.5 38.5v197q1 56 25.5 89t88.5 50q-64 9 -88 42.5t-22 100.5v137q0 32 -13.5 40.5t-55.5 8.5v111q122 18 182 -22t60 -121v-173q0 -38 7.5 -47t40.5 -20v-114q-24 -10 -31 -13.5t-14 -15.5t-7 -34v-230q0 -81 -60 -121t-182 -22v111z" />
<glyph unicode="~" horiz-adv-x="506" d="M53 211q-13 79 12 119.5t71 39.5q30 -1 114 -23t93 -23q22 -4 27.5 4.5t5.5 36.5h78q13 -77 -11.5 -118.5t-71.5 -39.5q-32 1 -116 23t-93 23q-22 3 -26.5 -5t-4.5 -37h-78z" />
<glyph unicode="&#xa1;" horiz-adv-x="299" d="M59 69l19 222h143l19 -222v-249h-181v249zM67 407v44q0 36 13.5 49.5t48.5 13.5h42q35 0 48.5 -13.5t13.5 -49.5v-44q0 -36 -13.5 -49.5t-48.5 -13.5h-42q-35 0 -48.5 13.5t-13.5 49.5z" />
<glyph unicode="&#xa2;" horiz-adv-x="532" d="M31 348q0 137 53 196.5t181 63.5l9 82h136l-11 -89q57 -10 92 -26l-19 -107q-59 2 -148 2q-67 0 -90 -24.5t-23 -97.5q0 -74 23 -99t90 -25q88 0 158 8l16 -108q-63 -31 -163 -36l-10 -88h-135l11 93q-92 16 -131 76t-39 179z" />
<glyph unicode="&#xa3;" horiz-adv-x="595" d="M40 408h71l-8 104q-7 111 43.5 151t171.5 40q97 0 221 -10l-9 -137q-39 1 -182 1q-36 0 -50 -12t-11 -41l9 -96h164l-5 -89h-151l3 -24q3 -33 -1.5 -57.5t-17.5 -43.5t-23 -28.5t-32 -27.5q27 9 82 9h246v-147h-517v147q49 23 65 59.5t11 88.5l-2 24h-76z" />
<glyph unicode="&#xa4;" horiz-adv-x="579" d="M38 185l70 69q-25 45 -25 98q0 57 28 104l-68 68l75 74l68 -68q47 28 103 28t106 -29l69 69l74 -74l-70 -70q27 -48 27 -102q0 -56 -28 -104l71 -70l-75 -74l-70 70q-48 -28 -104 -28q-54 0 -103 27l-68 -68zM187 353q0 -43 30.5 -73.5t71.5 -30.5t71.5 30.5t30.5 73.5 t-30.5 73.5t-71.5 30.5t-71.5 -30.5t-30.5 -73.5z" />
<glyph unicode="&#xa5;" horiz-adv-x="686" d="M21 690h193l100 -221q9 -19 24 -92h12q16 76 23 93l99 220h193l-158 -320h84v-103h-493l-1 103h82zM97 237h494v-102h-154v-135h-187v135h-152z" />
<glyph unicode="&#xa6;" horiz-adv-x="271" d="M72 -169v400h127v-400h-127zM72 381v400h127v-400h-127z" />
<glyph unicode="&#xa7;" horiz-adv-x="559" d="M40 546q0 90 56.5 124t180.5 34q138 -3 232 -12l-13 -126q-34 2 -163 2q-55 0 -75.5 -5t-22.5 -23q-3 -18 9 -30t38 -25l125 -62q86 -42 105.5 -103t-14.5 -148h-126q1 55 -13 78t-66 51l-151 81q-23 13 -35 21t-30.5 27t-27.5 48t-9 68zM51 -177l13 126q52 -3 163 -3 q54 0 75 5.5t23 24.5q3 18 -9 29.5t-38 23.5l-125 63q-86 42 -105.5 102.5t14.5 148.5h125q-1 -55 14 -78t66 -51l151 -81q23 -13 35 -21t30.5 -27t27.5 -48t9 -68q0 -91 -57 -124.5t-180 -33.5q-135 0 -232 12z" />
<glyph unicode="&#xa8;" horiz-adv-x="430" d="M57 618v60q0 36 36 36h59q36 0 36 -36v-60q0 -37 -36 -37h-59q-36 0 -36 37zM242 618v60q0 36 37 36h59q36 0 36 -36v-60q0 -37 -36 -37h-59q-37 0 -37 37z" />
<glyph unicode="&#xa9;" horiz-adv-x="795" d="M34 345q0 155 104.5 257t258.5 102t258.5 -102t104.5 -257t-104.5 -257t-258.5 -102t-258.5 102t-104.5 257zM124 345q0 -117 80 -195t193 -78q115 0 194.5 78t79.5 195t-79.5 195t-194.5 78q-113 0 -193 -78t-80 -195zM207 346q0 111 44 156t151 45q74 0 138 -15 l-11 -96q-20 0 -59 0.5t-69 0.5q-35 0 -45.5 -17.5t-10.5 -73.5t10.5 -73t45.5 -17q96 0 138 3l10 -95q-58 -19 -147 -19q-108 0 -151.5 45t-43.5 156z" />
<glyph unicode="&#xaa;" horiz-adv-x="435" d="M38 361v34q0 40 29 63t79 23h110v6q0 18 -9.5 26t-31.5 8q-74 0 -147 -4l-12 86q98 16 189 16q72 0 107 -29.5t35 -103.5v-210h-105l-12 49q-46 -58 -120 -58q-49 0 -80.5 24.5t-31.5 69.5zM165 382q0 -23 32 -23q24 0 59 20v41l-61 -6q-30 -3 -30 -23v-9z" />
<glyph unicode="&#xab;" horiz-adv-x="537" d="M27 232v38l158 198l95 -61l-94 -156l95 -162l-96 -60zM249 232v38l159 198l95 -61l-95 -156l95 -162l-95 -60z" />
<glyph unicode="&#xac;" horiz-adv-x="576" d="M49 243v126h472v-233h-135v107h-337z" />
<glyph unicode="&#xad;" horiz-adv-x="395" d="M50 201v110h294v-110h-294z" />
<glyph unicode="&#xae;" horiz-adv-x="507" d="M31 481q0 92 65 157t158 65q92 0 157 -65t65 -157q0 -93 -65 -158t-157 -65q-93 0 -158 65t-65 158zM83 481q0 -71 50 -121.5t121 -50.5q69 0 119.5 50.5t50.5 121.5t-50.5 121.5t-119.5 50.5q-71 0 -121 -50.5t-50 -121.5zM155 376v219q32 3 104 3q56 0 80 -14.5 t24 -51.5q0 -47 -51 -52v-2q32 -2 40 -35l20 -67h-79l-15 64q-6 15 -23 15h-26v-79h-74zM229 501h28q18 1 24 5.5t6 17.5t-6 17t-24 4h-28v-44z" />
<glyph unicode="&#xaf;" horiz-adv-x="400" d="M45 594v110h310v-110h-310z" />
<glyph unicode="&#xb0;" horiz-adv-x="334" d="M27 568q0 57 41.5 96.5t98.5 39.5t98 -39.5t41 -96.5t-41 -97t-98 -40t-98.5 40t-41.5 97zM115 568q0 -23 15 -39t37 -16q21 0 36 16t15 39t-15 38t-36 15q-22 0 -37 -15t-15 -38z" />
<glyph unicode="&#xb1;" horiz-adv-x="565" d="M51 31v134h463v-134h-463zM51 314v134h165v113h133v-113h165v-134h-165v-112h-133v112h-165z" />
<glyph unicode="&#xb2;" horiz-adv-x="432" d="M43 360v70q0 38 19 56l87 77q69 61 79 86q3 11 -6.5 14.5t-33.5 3.5l-137 -1l-4 102q70 13 155 13q95 0 136 -23t41 -90q0 -52 -68 -111l-99 -86q31 7 60 7l118 -3v-115h-347z" />
<glyph unicode="&#xb3;" horiz-adv-x="412" d="M38 363l4 99q60 -2 126 -2q42 0 54.5 6.5t12.5 28.5q0 18 -9.5 25t-41.5 8l-86 2v85l86 3q30 0 38.5 6.5t8.5 23.5t-9.5 22t-40.5 5h-129l-4 96q79 12 157 12q91 0 126 -21t35 -76q0 -50 -16.5 -74.5t-62.5 -30.5v-2q51 -7 70.5 -30t20.5 -74q1 -68 -37.5 -96t-133.5 -28 q-78 0 -169 12z" />
<glyph unicode="&#xb4;" horiz-adv-x="374" d="M44 593l218 149l74 -119l-241 -106z" />
<glyph unicode="&#xb6;" horiz-adv-x="613" d="M24 450q0 138 75.5 195t253.5 57q110 0 182 -17v-685h-114v592l-49 2v-804h-114v411q-125 11 -179.5 69t-54.5 180z" />
<glyph unicode="&#xb7;" horiz-adv-x="260" d="M45 236v44q0 36 13.5 49.5t49.5 13.5h44q36 0 49.5 -13.5t13.5 -49.5v-44q0 -35 -13.5 -49t-49.5 -14h-44q-36 0 -49.5 14t-13.5 49z" />
<glyph unicode="&#xb8;" horiz-adv-x="256" d="M19 -242l20 72q82 0 87 54q1 11 -9 13t-58 2l17 66q86 13 125 0.5t36 -65.5q-3 -79 -64.5 -116.5t-153.5 -25.5z" />
<glyph unicode="&#xb9;" horiz-adv-x="314" d="M12 734l111 40h138v-414h-138v249q0 36 5 56l-100 -18z" />
<glyph unicode="&#xba;" horiz-adv-x="437" d="M34 442q0 98 41.5 137.5t143.5 39.5q101 0 142.5 -40t41.5 -137q0 -96 -41.5 -135t-142.5 -39q-102 0 -143.5 39t-41.5 135zM171 442q1 -51 10 -67t38 -16q28 0 37 16t9 67q0 53 -9 69t-37 16q-29 0 -38 -16t-10 -69z" />
<glyph unicode="&#xbb;" horiz-adv-x="537" d="M34 89l95 162l-95 156l95 61l158 -198v-38l-158 -203zM256 89l95 162l-95 156l96 61l158 -198v-38l-159 -203z" />
<glyph unicode="&#xbc;" horiz-adv-x="924" d="M23 650l104 40h139v-414h-139v249q0 32 6 56l-95 -18zM162 0l400 690h112l-400 -690h-112zM500 147l107 267h124l-91 -230q-4 -13 12 -13h70v98l22 63h106v-161h46v-79l-46 -12v-80h-128v80h-175q-29 0 -44 19.5t-3 47.5z" />
<glyph unicode="&#xbd;" horiz-adv-x="929" d="M23 650l104 40h139v-414h-139v249q0 32 6 56l-95 -18zM160 0l399 690h113l-401 -690h-111zM551 0v70q0 37 20 56l84 77q69 64 78 86q4 11 -5.5 14.5t-33.5 3.5l-135 -1l-4 102q70 13 153 13q95 0 135.5 -23t40.5 -90q0 -52 -67 -111l-96 -86q29 7 58 7l115 -3v-115h-343z " />
<glyph unicode="&#xbe;" horiz-adv-x="1002" d="M36 276l4 99q60 -2 123 -2q41 0 53 6.5t12 28.5q0 20 -9 28t-39 7h-85v86h85q28 0 36 7t8 25q0 17 -8.5 21.5t-39.5 5.5q-47 1 -126 1l-4 95q80 12 156 12q89 0 123 -21t34 -76q0 -50 -16 -74.5t-62 -30.5v-2q51 -7 70 -30t20 -74q1 -67 -37 -95t-131 -28q-72 0 -167 11z M245 0l399 690h113l-400 -690h-112zM580 147l107 267h124l-91 -230q-4 -13 12 -13h70v98l22 63h106v-161h46v-79l-46 -12v-80h-128v80h-175q-29 0 -44 19.5t-3 47.5z" />
<glyph unicode="&#xbf;" horiz-adv-x="522" d="M23 -43q0 40 17 74t42.5 59.5t51 52t46 64.5t25.5 83h143q3 -58 -16 -109t-43.5 -80t-47 -58.5t-25.5 -48.5q-4 -25 13 -36t60 -11q66 0 204 2l5 -121q-7 -1 -36 -7t-36 -7t-32 -4.5t-42 -4.5t-46 -2t-62 -1q-112 0 -166.5 38t-54.5 117zM194 407v44q0 36 13.5 49.5 t49.5 13.5h41q36 0 49.5 -13.5t13.5 -49.5v-44q0 -36 -13.5 -49.5t-49.5 -13.5h-41q-36 0 -49.5 13.5t-13.5 49.5z" />
<glyph unicode="&#xc0;" horiz-adv-x="668" d="M-5 0l189 641q5 22 22.5 35.5t40.5 13.5h174q23 0 40.5 -13.5t23.5 -35.5l188 -641h-192l-41 164h-212l-41 -164h-192zM130 827l74 119l218 -149l-50 -76zM263 300h142l-44 177q-11 52 -13 72h-27q-7 -38 -14 -72z" />
<glyph unicode="&#xc1;" horiz-adv-x="668" d="M-5 0l189 641q5 22 22.5 35.5t40.5 13.5h174q23 0 40.5 -13.5t23.5 -35.5l188 -641h-192l-41 164h-212l-41 -164h-192zM242 797l218 149l74 -119l-242 -106zM263 300h142l-44 177q-11 52 -13 72h-27q-7 -38 -14 -72z" />
<glyph unicode="&#xc2;" horiz-adv-x="668" d="M-5 0l189 641q5 22 22.5 35.5t40.5 13.5h174q23 0 40.5 -13.5t23.5 -35.5l188 -641h-192l-41 164h-212l-41 -164h-192zM133 783l137 132h132l134 -138l-45 -63l-151 94h-8l-153 -94zM263 300h142l-44 177q-11 52 -13 72h-27q-7 -38 -14 -72z" />
<glyph unicode="&#xc3;" horiz-adv-x="668" d="M-5 0l189 641q5 22 22.5 35.5t40.5 13.5h174q23 0 40.5 -13.5t23.5 -35.5l188 -641h-192l-41 164h-212l-41 -164h-192zM152 754q-13 77 13.5 118t69.5 38q38 -3 92 -22t73 -23q22 -4 27.5 4.5t5.5 35.5h77q13 -75 -12 -117t-72 -39q-39 3 -94.5 23t-70.5 23 q-22 3 -27.5 -5t-5.5 -36h-76zM263 300h142l-44 177q-11 52 -13 72h-27q-7 -38 -14 -72z" />
<glyph unicode="&#xc4;" horiz-adv-x="668" d="M-5 0l189 641q5 22 22.5 35.5t40.5 13.5h174q23 0 40.5 -13.5t23.5 -35.5l188 -641h-192l-41 164h-212l-41 -164h-192zM175 799v61q0 36 36 36h60q36 0 36 -36v-61q0 -36 -36 -36h-60q-36 0 -36 36zM263 300h142l-44 177q-11 52 -13 72h-27q-7 -38 -14 -72zM361 799v61 q0 36 36 36h59q37 0 37 -36v-61q0 -36 -37 -36h-59q-36 0 -36 36z" />
<glyph unicode="&#xc5;" horiz-adv-x="668" d="M-5 0l189 641q5 22 22.5 35.5t40.5 13.5h174q23 0 40.5 -13.5t23.5 -35.5l188 -641h-192l-41 164h-212l-41 -164h-192zM211 833q0 50 36.5 85.5t87.5 35.5t87.5 -35.5t36.5 -85.5t-36.5 -85t-87.5 -35t-87.5 35t-36.5 85zM263 300h142l-44 177q-11 52 -13 72h-27 q-7 -38 -14 -72zM289 833q0 -20 13.5 -33.5t32.5 -13.5q20 0 33.5 13.5t13.5 33.5t-13.5 34t-33.5 14q-19 0 -32.5 -14t-13.5 -34z" />
<glyph unicode="&#xc6;" horiz-adv-x="944" d="M-15 0l263 545q26 56 60 86t97 45.5t168 15.5q210 0 337 -10l-9 -133h-240q-20 0 -32.5 -12.5t-12.5 -31.5v-88h250v-122h-250v-111q0 -43 45 -43h240l9 -133q-102 -11 -330 -11q-64 0 -101.5 41t-37.5 107v29h-185l-79 -174h-192zM316 307h125v205q0 35 19 64h-13 q-10 -11 -31 -48z" />
<glyph unicode="&#xc7;" horiz-adv-x="596" d="M39 345q0 197 68 277t234 80q126 0 218 -25l-14 -138q-102 3 -204 3q-62 0 -83.5 -40.5t-21.5 -156.5t21.5 -156.5t83.5 -40.5q145 0 218 8l15 -137q-90 -31 -233 -31q-166 0 -234 80t-68 277zM203 -268l21 72q82 -2 86 54q1 11 -8.5 12.5t-58.5 1.5l17 66q86 13 125 1 t37 -66q-4 -79 -65.5 -116t-153.5 -25z" />
<glyph unicode="&#xc8;" horiz-adv-x="587" d="M55 145v400q0 67 43.5 107.5t113.5 40.5q244 0 342 -11l-9 -135h-259q-43 0 -43 -43v-84h265v-129h-265v-105q0 -43 43 -43h259l9 -135q-98 -11 -342 -11q-71 0 -114 40.5t-43 107.5zM114 832l74 120l219 -150l-51 -75z" />
<glyph unicode="&#xc9;" horiz-adv-x="587" d="M55 145v400q0 67 43.5 107.5t113.5 40.5q244 0 342 -11l-9 -135h-259q-43 0 -43 -43v-84h265v-129h-265v-105q0 -43 43 -43h259l9 -135q-98 -11 -342 -11q-71 0 -114 40.5t-43 107.5zM226 802l218 150l74 -120l-241 -105z" />
<glyph unicode="&#xca;" horiz-adv-x="587" d="M55 145v400q0 67 43.5 107.5t113.5 40.5q244 0 342 -11l-9 -135h-259q-43 0 -43 -43v-84h265v-129h-265v-105q0 -43 43 -43h259l9 -135q-98 -11 -342 -11q-71 0 -114 40.5t-43 107.5zM117 788l137 132h132l134 -138l-45 -63l-151 94h-8l-153 -94z" />
<glyph unicode="&#xcb;" horiz-adv-x="587" d="M55 145v400q0 67 43.5 107.5t113.5 40.5q244 0 342 -11l-9 -135h-259q-43 0 -43 -43v-84h265v-129h-265v-105q0 -43 43 -43h259l9 -135q-98 -11 -342 -11q-71 0 -114 40.5t-43 107.5zM159 804v61q0 36 36 36h60q36 0 36 -36v-61q0 -36 -36 -36h-60q-36 0 -36 36zM345 804 v61q0 36 36 36h60q36 0 36 -36v-61q0 -36 -36 -36h-60q-36 0 -36 36z" />
<glyph unicode="&#xcc;" horiz-adv-x="308" d="M-51 827l74 119l219 -149l-51 -76zM61 0v690h186v-690h-186z" />
<glyph unicode="&#xcd;" horiz-adv-x="308" d="M61 0v690h186v-690h-186zM61 797l218 149l74 -119l-241 -106z" />
<glyph unicode="&#xce;" horiz-adv-x="308" d="M-48 783l137 132h132l134 -138l-45 -63l-151 94h-8l-153 -94zM61 0v690h186v-690h-186z" />
<glyph unicode="&#xcf;" horiz-adv-x="308" d="M-6 799v61q0 36 36 36h60q36 0 36 -36v-61q0 -36 -36 -36h-60q-36 0 -36 36zM61 0v690h186v-690h-186zM180 799v61q0 36 36 36h60q36 0 36 -36v-61q0 -36 -36 -36h-60q-36 0 -36 36z" />
<glyph unicode="&#xd0;" horiz-adv-x="693" d="M11 313v92h50v285q170 10 284 10q173 0 241 -75t68 -280t-68 -280t-241 -75q-144 0 -284 10v313h-50zM249 132q29 -1 96 -1q65 0 88 43.5t23 170.5t-23 171t-88 44l-96 -1v-154h110v-92h-110v-181z" />
<glyph unicode="&#xd1;" horiz-adv-x="731" d="M60 0v624q0 66 66 66h88q27 0 41.5 -12.5t31.5 -42.5l158 -285q25 -45 52 -115h8q-7 69 -8 121v334h174v-624q0 -66 -65 -66h-89q-27 0 -42 12.5t-31 42.5l-164 296q-27 51 -45 113h-8q8 -62 8 -118v-346h-175zM190 754q-13 77 13.5 118t69.5 38q38 -3 91.5 -22t73.5 -23 q22 -4 27.5 4.5t5.5 35.5h76q13 -75 -11.5 -117t-71.5 -39q-39 3 -94.5 23t-71.5 23q-22 3 -27 -5t-5 -36h-76z" />
<glyph unicode="&#xd2;" horiz-adv-x="697" d="M39 345q0 208 67.5 283.5t241.5 75.5q118 0 183 -31.5t96 -109t31 -218.5t-31 -218.5t-96 -109t-183 -31.5q-174 0 -241.5 75.5t-67.5 283.5zM143 827l73 119l219 -149l-51 -76zM236 345q0 -127 23 -171t89 -44t89 44t23 171t-23 171t-89 44t-89 -44t-23 -171z" />
<glyph unicode="&#xd3;" horiz-adv-x="697" d="M39 345q0 208 67.5 283.5t241.5 75.5q118 0 183 -31.5t96 -109t31 -218.5t-31 -218.5t-96 -109t-183 -31.5q-174 0 -241.5 75.5t-67.5 283.5zM236 345q0 -127 23 -171t89 -44t89 44t23 171t-23 171t-89 44t-89 -44t-23 -171zM254 797l219 149l73 -119l-241 -106z" />
<glyph unicode="&#xd4;" horiz-adv-x="697" d="M39 345q0 208 67.5 283.5t241.5 75.5q118 0 183 -31.5t96 -109t31 -218.5t-31 -218.5t-96 -109t-183 -31.5q-174 0 -241.5 75.5t-67.5 283.5zM145 783l138 132h131l134 -138l-45 -63l-151 94h-8l-153 -94zM236 345q0 -127 23 -171t89 -44t89 44t23 171t-23 171t-89 44 t-89 -44t-23 -171z" />
<glyph unicode="&#xd5;" horiz-adv-x="697" d="M39 345q0 208 67.5 283.5t241.5 75.5q118 0 183 -31.5t96 -109t31 -218.5t-31 -218.5t-96 -109t-183 -31.5q-174 0 -241.5 75.5t-67.5 283.5zM164 754q-13 77 14 118t70 38q37 -3 91 -22t73 -23q22 -4 28 4.5t6 35.5h76q13 -75 -11.5 -117t-71.5 -39q-39 3 -94.5 23 t-71.5 23q-9 4 -15.5 1t-9.5 -3.5t-4.5 -8.5t-2 -13t-0.5 -17h-77zM236 345q0 -127 23 -171t89 -44t89 44t23 171t-23 171t-89 44t-89 -44t-23 -171z" />
<glyph unicode="&#xd6;" horiz-adv-x="697" d="M39 345q0 208 67.5 283.5t241.5 75.5q118 0 183 -31.5t96 -109t31 -218.5t-31 -218.5t-96 -109t-183 -31.5q-174 0 -241.5 75.5t-67.5 283.5zM187 799v61q0 36 36 36h60q36 0 36 -36v-61q0 -36 -36 -36h-60q-36 0 -36 36zM236 345q0 -127 23 -171t89 -44t89 44t23 171 t-23 171t-89 44t-89 -44t-23 -171zM373 799v61q0 36 36 36h60q36 0 36 -36v-61q0 -36 -36 -36h-60q-36 0 -36 36z" />
<glyph unicode="&#xd7;" horiz-adv-x="500" d="M25 178l368 329l85 -101l-369 -328z" />
<glyph unicode="&#xd8;" horiz-adv-x="697" d="M39 345q0 208 67.5 283.5t241.5 75.5q32 0 82 -4l46 100l140 -66l-41 -90q44 -39 63.5 -111t19.5 -188q0 -141 -31 -218.5t-96 -109t-183 -31.5q-40 0 -82 5l-49 -105l-140 67l44 94q-82 75 -82 298zM236 345q0 -127 23 -171t89 -44t89 44t23 171t-23 171t-89 44t-89 -44 t-23 -171z" />
<glyph unicode="&#xd9;" horiz-adv-x="694" d="M55 280v410h188v-410q0 -88 22 -119t82 -31t82 31t22 119v410h188v-410q0 -161 -63.5 -227.5t-218.5 -66.5q-166 0 -234 66.5t-68 227.5zM143 827l73 119l219 -149l-51 -76z" />
<glyph unicode="&#xda;" horiz-adv-x="694" d="M55 280v410h188v-410q0 -88 22 -119t82 -31t82 31t22 119v410h188v-410q0 -161 -63.5 -227.5t-218.5 -66.5q-166 0 -234 66.5t-68 227.5zM254 797l219 149l73 -119l-241 -106z" />
<glyph unicode="&#xdb;" horiz-adv-x="694" d="M55 280v410h188v-410q0 -88 22 -119t82 -31t82 31t22 119v410h188v-410q0 -161 -63.5 -227.5t-218.5 -66.5q-166 0 -234 66.5t-68 227.5zM145 783l138 132h131l134 -138l-45 -63l-151 94h-8l-153 -94z" />
<glyph unicode="&#xdc;" horiz-adv-x="694" d="M55 280v410h188v-410q0 -88 22 -119t82 -31t82 31t22 119v410h188v-410q0 -161 -63.5 -227.5t-218.5 -66.5q-166 0 -234 66.5t-68 227.5zM187 799v61q0 36 36 36h60q36 0 36 -36v-61q0 -36 -36 -36h-60q-36 0 -36 36zM373 799v61q0 36 36 36h60q36 0 36 -36v-61 q0 -36 -36 -36h-60q-36 0 -36 36z" />
<glyph unicode="&#xdd;" horiz-adv-x="633" d="M-5 690h194l99 -233q13 -30 23 -93h12q14 70 23 93l99 233h193l-227 -469v-221h-188v220zM223 797l218 149l74 -119l-241 -106z" />
<glyph unicode="&#xde;" horiz-adv-x="623" d="M61 0v690h188v-114h85q153 0 209 -48.5t56 -183.5q0 -133 -52.5 -181.5t-187.5 -48.5q-49 0 -110 7v-121h-188zM249 251h80q48 0 65 19t17 74q0 57 -16.5 76t-65.5 19h-80v-188z" />
<glyph unicode="&#xdf;" horiz-adv-x="723" d="M13 383v110l83 4v64q0 100 60.5 138t205.5 38q147 0 199 -35.5t52 -124.5q0 -33 -10.5 -57.5t-44.5 -60.5q-3 -3 -10 -9.5t-9.5 -9.5t-8 -9t-8 -8.5t-6.5 -8t-5.5 -8.5t-3.5 -7.5t-3 -9t-1 -8.5q0 -6 2.5 -11.5t5.5 -10t10.5 -11t12 -10t15 -11t15.5 -11.5l63 -44 q50 -38 66.5 -63t16.5 -72q0 -78 -44.5 -113t-155.5 -35q-62 0 -175 11l12 115q38 -1 120 -1q37 0 48.5 4.5t11.5 25.5q0 5 -1.5 10.5t-6 11t-8.5 10t-12 11t-13.5 10.5l-16.5 12t-17 13l-48 29q-72 51 -72 118q0 18 7 34.5t13.5 25t26 29t28.5 30.5q24 29 32 44t8 34 q0 26 -16 36t-66 10q-53 0 -70 -14t-17 -59v-539h-182v383h-83z" />
<glyph unicode="&#xe0;" d="M28 129v50q0 59 42.5 93t116.5 34h165v12q-1 32 -15.5 44.5t-53.5 12.5q-97 0 -213 -7l-16 118q132 25 272 25q105 0 156 -43.5t51 -150.5v-317h-144l-17 73q-72 -86 -177 -86q-73 0 -120 37.5t-47 104.5zM89 642l73 119l219 -149l-51 -76zM206 155q0 -40 49 -40 q44 0 97 34v62h-104q-42 -1 -42 -39v-17z" />
<glyph unicode="&#xe1;" d="M28 129v50q0 59 42.5 93t116.5 34h165v12q-1 32 -15.5 44.5t-53.5 12.5q-97 0 -213 -7l-16 118q132 25 272 25q105 0 156 -43.5t51 -150.5v-317h-144l-17 73q-72 -86 -177 -86q-73 0 -120 37.5t-47 104.5zM200 612l219 149l74 -119l-242 -106zM206 155q0 -40 49 -40 q44 0 97 34v62h-104q-42 -1 -42 -39v-17z" />
<glyph unicode="&#xe2;" d="M28 129v50q0 59 42.5 93t116.5 34h165v12q-1 32 -15.5 44.5t-53.5 12.5q-97 0 -213 -7l-16 118q132 25 272 25q105 0 156 -43.5t51 -150.5v-317h-144l-17 73q-72 -86 -177 -86q-73 0 -120 37.5t-47 104.5zM92 597l137 133h131l134 -139l-45 -62l-150 94h-8l-154 -94z M206 155q0 -40 49 -40q44 0 97 34v62h-104q-42 -1 -42 -39v-17z" />
<glyph unicode="&#xe3;" d="M28 129v50q0 59 42.5 93t116.5 34h165v12q-1 32 -15.5 44.5t-53.5 12.5q-97 0 -213 -7l-16 118q132 25 272 25q105 0 156 -43.5t51 -150.5v-317h-144l-17 73q-72 -86 -177 -86q-73 0 -120 37.5t-47 104.5zM111 568q-13 77 13.5 118.5t69.5 38.5q38 -3 91.5 -22t73.5 -23 q22 -4 27.5 4.5t5.5 35.5h76q13 -75 -11.5 -117t-71.5 -39q-39 3 -94.5 23t-71.5 23q-22 3 -27 -5.5t-5 -36.5h-76zM206 155q0 -40 49 -40q44 0 97 34v62h-104q-42 -1 -42 -39v-17z" />
<glyph unicode="&#xe4;" d="M28 129v50q0 59 42.5 93t116.5 34h165v12q-1 32 -15.5 44.5t-53.5 12.5q-97 0 -213 -7l-16 118q132 25 272 25q105 0 156 -43.5t51 -150.5v-317h-144l-17 73q-72 -86 -177 -86q-73 0 -120 37.5t-47 104.5zM134 614v60q0 36 36 36h59q36 0 36 -36v-60q0 -37 -36 -37h-59 q-36 0 -36 37zM206 155q0 -40 49 -40q44 0 97 34v62h-104q-42 -1 -42 -39v-17zM319 614v60q0 36 36 36h60q36 0 36 -36v-60q0 -37 -36 -37h-60q-36 0 -36 37z" />
<glyph unicode="&#xe5;" d="M28 129v50q0 59 42.5 93t116.5 34h165v12q-1 32 -15.5 44.5t-53.5 12.5q-97 0 -213 -7l-16 118q132 25 272 25q105 0 156 -43.5t51 -150.5v-317h-144l-17 73q-72 -86 -177 -86q-73 0 -120 37.5t-47 104.5zM170 648q0 50 36.5 85t87.5 35t87.5 -35t36.5 -85 q0 -51 -36.5 -86t-87.5 -35t-87.5 35t-36.5 86zM206 155q0 -40 49 -40q44 0 97 34v62h-104q-42 -1 -42 -39v-17zM247 648q0 -21 13.5 -34.5t33.5 -13.5t33.5 13.5t13.5 34.5q0 20 -13.5 34t-33.5 14t-33.5 -14t-13.5 -34z" />
<glyph unicode="&#xe6;" horiz-adv-x="881" d="M28 129v50q0 58 41.5 91.5t114.5 33.5h160v14q0 32 -14.5 44.5t-51.5 12.5q-96 0 -209 -7l-16 118q129 25 268 25q83 0 131 -26q58 26 157 26q130 0 187 -43.5t57 -132.5q1 -70 -38.5 -102t-134.5 -32h-149q7 -41 29 -56.5t73 -15.5q89 0 190 12l17 -111 q-83 -42 -228 -42q-172 0 -231 92q-71 -93 -189 -93q-71 0 -117.5 37.5t-46.5 104.5zM206 155q0 -40 46 -40q45 0 100 38q-5 24 -7 58h-98q-41 -1 -41 -39v-17zM528 295h101q31 0 40 9.5t9 34.5q0 29 -14 39t-49 10q-49 1 -67 -17t-20 -76z" />
<glyph unicode="&#xe7;" horiz-adv-x="518" d="M32 249q0 144 58.5 203t201.5 59q121 0 196 -34l-18 -113l-147 1q-58 0 -79 -24t-21 -92t21 -92t79 -24q87 0 156 8l17 -115q-77 -38 -206 -38q-142 0 -200 58.5t-58 202.5zM156 -257l21 72q82 -2 86 54q1 11 -8.5 12.5t-58.5 1.5l17 66q86 13 125 1t37 -66 q-4 -79 -65.5 -116t-153.5 -25z" />
<glyph unicode="&#xe8;" horiz-adv-x="576" d="M32 246q0 146 61.5 205.5t207.5 59.5q131 0 189 -43.5t59 -132.5q1 -70 -39 -102t-135 -32h-149q7 -41 28.5 -56.5t69.5 -15.5q91 0 195 12l16 -111q-83 -42 -231 -42q-147 0 -209.5 62t-62.5 196zM98 642l74 119l219 -149l-51 -76zM222 295h102q31 0 40.5 9.5t9.5 34.5 q0 29 -15 39t-53 10q-47 1 -64 -17t-20 -76z" />
<glyph unicode="&#xe9;" horiz-adv-x="576" d="M32 246q0 146 61.5 205.5t207.5 59.5q131 0 189 -43.5t59 -132.5q1 -70 -39 -102t-135 -32h-149q7 -41 28.5 -56.5t69.5 -15.5q91 0 195 12l16 -111q-83 -42 -231 -42q-147 0 -209.5 62t-62.5 196zM210 612l218 149l74 -119l-241 -106zM222 295h102q31 0 40.5 9.5 t9.5 34.5q0 29 -15 39t-53 10q-47 1 -64 -17t-20 -76z" />
<glyph unicode="&#xea;" horiz-adv-x="576" d="M32 246q0 146 61.5 205.5t207.5 59.5q131 0 189 -43.5t59 -132.5q1 -70 -39 -102t-135 -32h-149q7 -41 28.5 -56.5t69.5 -15.5q91 0 195 12l16 -111q-83 -42 -231 -42q-147 0 -209.5 62t-62.5 196zM101 597l137 133h132l134 -139l-45 -62l-151 94h-8l-153 -94zM222 295 h102q31 0 40.5 9.5t9.5 34.5q0 29 -15 39t-53 10q-47 1 -64 -17t-20 -76z" />
<glyph unicode="&#xeb;" horiz-adv-x="576" d="M32 246q0 146 61.5 205.5t207.5 59.5q131 0 189 -43.5t59 -132.5q1 -70 -39 -102t-135 -32h-149q7 -41 28.5 -56.5t69.5 -15.5q91 0 195 12l16 -111q-83 -42 -231 -42q-147 0 -209.5 62t-62.5 196zM143 614v60q0 36 36 36h60q36 0 36 -36v-60q0 -37 -36 -37h-60 q-36 0 -36 37zM222 295h102q31 0 40.5 9.5t9.5 34.5q0 29 -15 39t-53 10q-47 1 -64 -17t-20 -76zM329 614v60q0 36 36 36h60q36 0 36 -36v-60q0 -37 -36 -37h-60q-36 0 -36 37z" />
<glyph unicode="&#xec;" horiz-adv-x="293" d="M-58 642l73 119l219 -149l-51 -76zM55 0v497h183v-497h-183z" />
<glyph unicode="&#xed;" horiz-adv-x="293" d="M53 612l219 149l74 -119l-242 -106zM55 0v497h183v-497h-183z" />
<glyph unicode="&#xee;" horiz-adv-x="293" d="M-55 597l137 133h131l134 -139l-45 -62l-150 94h-8l-154 -94zM55 0v497h183v-497h-183z" />
<glyph unicode="&#xef;" horiz-adv-x="293" d="M-13 614v60q0 36 36 36h59q36 0 36 -36v-60q0 -37 -36 -37h-59q-36 0 -36 37zM55 0v497h183v-497h-183zM172 614v60q0 36 37 36h59q36 0 36 -36v-60q0 -37 -36 -37h-59q-37 0 -37 37z" />
<glyph unicode="&#xf0;" horiz-adv-x="590" d="M32 215q0 123 51 180t169 57q60 0 102 -15q-18 87 -70.5 120t-158.5 25l16 116q122 8 208 -30l83 83l103 -100l-70 -68q91 -108 91 -294q0 -163 -61.5 -233t-204.5 -70q-132 0 -195 55.5t-63 173.5zM223 218q0 -60 14.5 -81.5t54.5 -21.5q47 0 60 34t13 140v30 q-35 5 -71 5q-40 0 -55.5 -21t-15.5 -85z" />
<glyph unicode="&#xf1;" horiz-adv-x="611" d="M51 0v497h145l15 -73q102 87 208 87q71 0 107.5 -35.5t36.5 -103.5v-372h-182v315q0 24 -9 33t-32 9q-43 0 -107 -26v-331h-182zM131 568q-13 77 13.5 118.5t69.5 38.5q38 -3 92 -22t73 -23q22 -4 27.5 4t5.5 36h77q13 -75 -12 -117t-72 -39q-39 3 -94.5 23t-70.5 23 q-22 3 -27.5 -5.5t-5.5 -36.5h-76z" />
<glyph unicode="&#xf2;" horiz-adv-x="600" d="M32 248q0 144 61 203.5t207 59.5q147 0 207.5 -59.5t60.5 -203.5q0 -143 -60.5 -201.5t-207.5 -58.5t-207.5 58.5t-60.5 201.5zM97 642l74 119l219 -149l-51 -76zM223 248q0 -81 15 -107t62 -26q46 0 61.5 26t15.5 107q0 82 -15.5 108.5t-61.5 26.5q-47 0 -62 -26.5 t-15 -108.5z" />
<glyph unicode="&#xf3;" horiz-adv-x="600" d="M32 248q0 144 61 203.5t207 59.5q147 0 207.5 -59.5t60.5 -203.5q0 -143 -60.5 -201.5t-207.5 -58.5t-207.5 58.5t-60.5 201.5zM209 612l218 149l74 -119l-241 -106zM223 248q0 -81 15 -107t62 -26q46 0 61.5 26t15.5 107q0 82 -15.5 108.5t-61.5 26.5q-47 0 -62 -26.5 t-15 -108.5z" />
<glyph unicode="&#xf4;" horiz-adv-x="600" d="M32 248q0 144 61 203.5t207 59.5q147 0 207.5 -59.5t60.5 -203.5q0 -143 -60.5 -201.5t-207.5 -58.5t-207.5 58.5t-60.5 201.5zM100 597l137 133h132l134 -139l-45 -62l-151 94h-8l-153 -94zM223 248q0 -81 15 -107t62 -26q46 0 61.5 26t15.5 107q0 82 -15.5 108.5 t-61.5 26.5q-47 0 -62 -26.5t-15 -108.5z" />
<glyph unicode="&#xf5;" horiz-adv-x="600" d="M32 248q0 144 61 203.5t207 59.5q147 0 207.5 -59.5t60.5 -203.5q0 -143 -60.5 -201.5t-207.5 -58.5t-207.5 58.5t-60.5 201.5zM119 568q-13 77 13.5 118.5t69.5 38.5q38 -3 92 -22t73 -23q22 -4 27.5 4t5.5 36h77q13 -75 -12 -117t-72 -39q-39 3 -94 23t-71 23 q-22 3 -27.5 -5.5t-5.5 -36.5h-76zM223 248q0 -81 15 -107t62 -26q46 0 61.5 26t15.5 107q0 82 -15.5 108.5t-61.5 26.5q-47 0 -62 -26.5t-15 -108.5z" />
<glyph unicode="&#xf6;" horiz-adv-x="600" d="M32 248q0 144 61 203.5t207 59.5q147 0 207.5 -59.5t60.5 -203.5q0 -143 -60.5 -201.5t-207.5 -58.5t-207.5 58.5t-60.5 201.5zM142 614v60q0 36 36 36h60q36 0 36 -36v-60q0 -37 -36 -37h-60q-36 0 -36 37zM223 248q0 -81 15 -107t62 -26q46 0 61.5 26t15.5 107 q0 82 -15.5 108.5t-61.5 26.5q-47 0 -62 -26.5t-15 -108.5zM328 614v60q0 36 36 36h60q36 0 36 -36v-60q0 -37 -36 -37h-60q-36 0 -36 37z" />
<glyph unicode="&#xf7;" horiz-adv-x="543" d="M36 229v127h471v-127h-471zM183 85v24q0 38 14 52.5t52 14.5h44q38 0 52 -14.5t14 -52.5v-24q0 -38 -14 -52.5t-52 -14.5h-44q-38 0 -52 14.5t-14 52.5zM183 473v25q0 38 14 52.5t52 14.5h44q38 0 52 -14.5t14 -52.5v-25q0 -38 -14 -52t-52 -14h-44q-38 0 -52 14t-14 52z " />
<glyph unicode="&#xf8;" horiz-adv-x="600" d="M32 248q0 144 61 203.5t207 59.5q18 0 46 -2l47 97l122 -63l-34 -71q87 -56 87 -224q0 -143 -60.5 -201.5t-207.5 -58.5q-35 0 -52 2l-44 -92l-122 62l33 69q-83 56 -83 219zM223 248q0 -81 15 -107t62 -26q46 0 61.5 26t15.5 107q0 82 -15.5 108.5t-61.5 26.5 q-47 0 -62 -26.5t-15 -108.5z" />
<glyph unicode="&#xf9;" horiz-adv-x="604" d="M48 125v372h182v-315q0 -23 10 -33t34 -10q39 0 96 25v333h183v-497h-144l-15 71q-100 -85 -202 -85q-144 0 -144 139zM99 651l73 119l219 -149l-51 -76z" />
<glyph unicode="&#xfa;" horiz-adv-x="604" d="M48 125v372h182v-315q0 -23 10 -33t34 -10q39 0 96 25v333h183v-497h-144l-15 71q-100 -85 -202 -85q-144 0 -144 139zM210 621l219 149l73 -119l-241 -106z" />
<glyph unicode="&#xfb;" horiz-adv-x="604" d="M48 125v372h182v-315q0 -23 10 -33t34 -10q39 0 96 25v333h183v-497h-144l-15 71q-100 -85 -202 -85q-144 0 -144 139zM101 607l138 132h131l134 -138l-45 -63l-151 94h-8l-153 -94z" />
<glyph unicode="&#xfc;" horiz-adv-x="604" d="M48 125v372h182v-315q0 -23 10 -33t34 -10q39 0 96 25v333h183v-497h-144l-15 71q-100 -85 -202 -85q-144 0 -144 139zM143 623v61q0 36 36 36h60q36 0 36 -36v-61q0 -36 -36 -36h-60q-36 0 -36 36zM329 623v61q0 36 36 36h60q36 0 36 -36v-61q0 -36 -36 -36h-60 q-36 0 -36 36z" />
<glyph unicode="&#xfd;" horiz-adv-x="584" d="M2 497h193l74 -296q6 -30 14 -85h11q7 26 20 85l74 296h193l-166 -492q-11 -34 -26.5 -64t-41.5 -62t-59 -50t-78 -29t-100 1l-13 101q112 25 148 98h-32q-45 0 -58 43zM202 612l219 149l73 -119l-241 -106z" />
<glyph unicode="&#xfe;" horiz-adv-x="608" d="M51 -185v885h182v-116q1 -57 -6 -133q61 58 167 58q96 0 138 -66t42 -200q0 -146 -44 -201.5t-142 -55.5q-97 0 -159 42q4 -45 4 -104v-109h-182zM233 128q47 -18 83 -18q40 0 55.5 25.5t15.5 106.5q0 82 -15 107.5t-53 25.5q-37 0 -86 -29v-218z" />
<glyph unicode="&#xff;" horiz-adv-x="584" d="M2 497h193l74 -296q6 -30 14 -85h11q7 26 20 85l74 296h193l-166 -492q-11 -34 -26.5 -64t-41.5 -62t-59 -50t-78 -29t-100 1l-13 101q112 25 148 98h-32q-45 0 -58 43zM135 614v60q0 36 36 36h60q36 0 36 -36v-60q0 -37 -36 -37h-60q-36 0 -36 37zM321 614v60 q0 36 36 36h60q36 0 36 -36v-60q0 -37 -36 -37h-60q-36 0 -36 37z" />
<glyph unicode="&#x100;" horiz-adv-x="668" d="M-5 0l189 641q5 22 22.5 35.5t40.5 13.5h174q23 0 40.5 -13.5t23.5 -35.5l188 -641h-192l-41 164h-212l-41 -164h-192zM181 774v111h310v-111h-310zM263 300h142l-44 177q-11 52 -13 72h-27q-7 -38 -14 -72z" />
<glyph unicode="&#x101;" d="M28 129v50q0 59 42.5 93t116.5 34h165v12q-1 32 -15.5 44.5t-53.5 12.5q-97 0 -213 -7l-16 118q132 25 272 25q105 0 156 -43.5t51 -150.5v-317h-144l-17 73q-72 -86 -177 -86q-73 0 -120 37.5t-47 104.5zM139 588v111h311v-111h-311zM206 155q0 -40 49 -40q44 0 97 34 v62h-104q-42 -1 -42 -39v-17z" />
<glyph unicode="&#x102;" horiz-adv-x="668" d="M-5 0l189 641q5 22 22.5 35.5t40.5 13.5h174q23 0 40.5 -13.5t23.5 -35.5l188 -641h-192l-41 164h-212l-41 -164h-192zM163 901l85 12q0 -32 20.5 -47t66.5 -15t66.5 15t20.5 47l85 -12q10 -67 -38 -115t-134 -48t-134.5 48t-37.5 115zM263 300h142l-44 177 q-11 52 -13 72h-27q-7 -38 -14 -72z" />
<glyph unicode="&#x103;" d="M28 129v50q0 59 42.5 93t116.5 34h165v12q-1 32 -15.5 44.5t-53.5 12.5q-97 0 -213 -7l-16 118q132 25 272 25q105 0 156 -43.5t51 -150.5v-317h-144l-17 73q-72 -86 -177 -86q-73 0 -120 37.5t-47 104.5zM121 715l85 12q0 -32 21 -46.5t67 -14.5t66.5 14.5t19.5 46.5 l85 -12q11 -66 -37 -114t-134 -48t-134.5 48t-38.5 114zM206 155q0 -40 49 -40q44 0 97 34v62h-104q-42 -1 -42 -39v-17z" />
<glyph unicode="&#x104;" horiz-adv-x="668" d="M-5 0l189 641q5 22 22.5 35.5t40.5 13.5h174q23 0 40.5 -13.5t23.5 -35.5l188 -641q-39 -62 -53 -93q-13 -27 4.5 -35.5t49.5 0.5l13 -64q-78 -29 -123 -20.5t-61.5 37.5t-3.5 67q18 56 100 108h-118l-41 164h-212l-41 -164h-192zM263 300h142l-44 177q-11 52 -13 72h-27 q-7 -38 -14 -72z" />
<glyph unicode="&#x105;" d="M28 129v50q0 59 42.5 93t116.5 34h165v12q-1 32 -15.5 44.5t-53.5 12.5q-97 0 -213 -7l-16 118q132 25 272 25q105 0 156 -43.5t51 -150.5v-317q-36 -56 -53 -93q-12 -27 5 -35.5t50 0.5l12 -64q-77 -29 -122 -20.5t-61.5 37.5t-3.5 67q18 56 100 108h-71l-17 73 q-72 -86 -177 -86q-73 0 -120 37.5t-47 104.5zM206 155q0 -40 49 -40q44 0 97 34v62h-104q-42 -1 -42 -39v-17z" />
<glyph unicode="&#x106;" horiz-adv-x="596" d="M39 345q0 197 68 277t234 80q126 0 218 -25l-14 -138q-102 3 -204 3q-62 0 -83.5 -40.5t-21.5 -156.5t21.5 -156.5t83.5 -40.5q145 0 218 8l15 -137q-90 -31 -233 -31q-166 0 -234 80t-68 277zM244 797l218 149l74 -119l-241 -106z" />
<glyph unicode="&#x107;" horiz-adv-x="518" d="M32 249q0 144 58.5 203t201.5 59q121 0 196 -34l-18 -113l-147 1q-58 0 -79 -24t-21 -92t21 -92t79 -24q87 0 156 8l17 -115q-77 -38 -206 -38q-142 0 -200 58.5t-58 202.5zM191 612l219 149l73 -119l-241 -106z" />
<glyph unicode="&#x10a;" horiz-adv-x="596" d="M39 345q0 197 68 277t234 80q126 0 218 -25l-14 -138q-102 3 -204 3q-62 0 -83.5 -40.5t-21.5 -156.5t21.5 -156.5t83.5 -40.5q145 0 218 8l15 -137q-90 -31 -233 -31q-166 0 -234 80t-68 277zM259 802v49q0 50 51 50h55q51 0 51 -50v-49q0 -50 -51 -50h-55q-51 0 -51 50 z" />
<glyph unicode="&#x10b;" horiz-adv-x="518" d="M32 249q0 144 58.5 203t201.5 59q121 0 196 -34l-18 -113l-147 1q-58 0 -79 -24t-21 -92t21 -92t79 -24q87 0 156 8l17 -115q-77 -38 -206 -38q-142 0 -200 58.5t-58 202.5zM206 617v49q0 50 52 50h55q51 0 51 -50v-49q0 -50 -51 -50h-55q-52 0 -52 50z" />
<glyph unicode="&#x10c;" horiz-adv-x="596" d="M39 345q0 197 68 277t234 80q126 0 218 -25l-14 -138q-102 3 -204 3q-62 0 -83.5 -40.5t-21.5 -156.5t21.5 -156.5t83.5 -40.5q145 0 218 8l15 -137q-90 -31 -233 -31q-166 0 -234 80t-68 277zM143 868l45 69l146 -78h8l145 78l45 -69l-158 -131h-73z" />
<glyph unicode="&#x10d;" horiz-adv-x="518" d="M32 249q0 144 58.5 203t201.5 59q121 0 196 -34l-18 -113l-147 1q-58 0 -79 -24t-21 -92t21 -92t79 -24q87 0 156 8l17 -115q-77 -38 -206 -38q-142 0 -200 58.5t-58 202.5zM90 683l46 68l145 -77h8l146 77l45 -68l-159 -131h-72z" />
<glyph unicode="&#x10e;" horiz-adv-x="691" d="M60 0v690q168 10 283 10q174 0 241.5 -75t67.5 -280t-67.5 -280t-241.5 -75q-145 0 -283 10zM144 868l46 69l145 -78h8l146 78l45 -69l-158 -131h-73zM248 132q29 -1 95 -1q65 0 88 43.5t23 170.5t-23 171t-88 44l-95 -1v-427z" />
<glyph unicode="&#x10f;" horiz-adv-x="608" d="M34 254q0 145 46 201t144 56q97 0 155 -43q-4 68 -4 106v126h182v-700h-144l-15 77q-61 -89 -186 -89q-93 0 -135.5 67.5t-42.5 198.5zM221 255q0 -74 14.5 -97t52.5 -23q46 0 87 26v209q-50 16 -83 16q-41 0 -56 -24.5t-15 -106.5zM598 622l2 36q1 25 12 35t40 10h31 q29 0 40 -10t11 -35v-45q0 -78 -49 -140l-58 15q14 39 14 95q-41 0 -43 39z" />
<glyph unicode="&#x110;" horiz-adv-x="693" d="M11 313v92h50v285q170 10 284 10q173 0 241 -75t68 -280t-68 -280t-241 -75q-144 0 -284 10v313h-50zM249 132q29 -1 96 -1q65 0 88 43.5t23 170.5t-23 171t-88 44l-96 -1v-154h110v-92h-110v-181z" />
<glyph unicode="&#x111;" horiz-adv-x="605" d="M34 254q0 145 46 201t144 56q97 0 155 -43q-2 27 -4 85h-117v77h117v70h182v-70h57v-77h-57v-553h-144l-15 77q-61 -89 -186 -89q-93 0 -135.5 67.5t-42.5 198.5zM221 255q0 -74 14.5 -97t52.5 -23q46 0 87 26v209q-50 16 -83 16q-41 0 -56 -24.5t-15 -106.5z" />
<glyph unicode="&#x112;" horiz-adv-x="587" d="M55 145v400q0 67 43.5 107.5t113.5 40.5q244 0 342 -11l-9 -135h-259q-43 0 -43 -43v-84h265v-129h-265v-105q0 -43 43 -43h259l9 -135q-98 -11 -342 -11q-71 0 -114 40.5t-43 107.5zM165 779v111h310v-111h-310z" />
<glyph unicode="&#x113;" horiz-adv-x="576" d="M32 246q0 146 61.5 205.5t207.5 59.5q131 0 189 -43.5t59 -132.5q1 -70 -39 -102t-135 -32h-149q7 -41 28.5 -56.5t69.5 -15.5q91 0 195 12l16 -111q-83 -42 -231 -42q-147 0 -209.5 62t-62.5 196zM149 588v111h310v-111h-310zM222 295h102q31 0 40.5 9.5t9.5 34.5 q0 29 -15 39t-53 10q-47 1 -64 -17t-20 -76z" />
<glyph unicode="&#x116;" horiz-adv-x="587" d="M55 145v400q0 67 43.5 107.5t113.5 40.5q244 0 342 -11l-9 -135h-259q-43 0 -43 -43v-84h265v-129h-265v-105q0 -43 43 -43h259l9 -135q-98 -11 -342 -11q-71 0 -114 40.5t-43 107.5zM241 807v50q0 49 51 49h55q52 0 52 -49v-50q0 -49 -52 -49h-55q-51 0 -51 49z" />
<glyph unicode="&#x117;" horiz-adv-x="576" d="M32 246q0 146 61.5 205.5t207.5 59.5q131 0 189 -43.5t59 -132.5q1 -70 -39 -102t-135 -32h-149q7 -41 28.5 -56.5t69.5 -15.5q91 0 195 12l16 -111q-83 -42 -231 -42q-147 0 -209.5 62t-62.5 196zM222 295h102q31 0 40.5 9.5t9.5 34.5q0 29 -15 39t-53 10q-47 1 -64 -17 t-20 -76zM225 617v49q0 50 51 50h55q52 0 52 -50v-49q0 -50 -52 -50h-55q-51 0 -51 50z" />
<glyph unicode="&#x118;" horiz-adv-x="587" d="M55 145v400q0 67 43.5 107.5t113.5 40.5q244 0 342 -11l-9 -135h-259q-43 0 -43 -43v-84h265v-129h-265v-105q0 -43 43 -43h259l9 -135q-39 -62 -53 -93q-13 -27 4.5 -35.5t49.5 0.5l13 -64q-78 -29 -123 -20.5t-61.5 37.5t-3.5 67q18 53 89 101q-82 -4 -257 -4 q-71 0 -114 40.5t-43 107.5z" />
<glyph unicode="&#x119;" horiz-adv-x="576" d="M32 246q0 146 61.5 205.5t207.5 59.5q131 0 189 -43.5t59 -132.5q1 -70 -39 -102t-135 -32h-149q7 -41 28.5 -56.5t69.5 -15.5q91 0 195 12l16 -111q-36 -56 -53 -93q-12 -27 5 -35.5t50 0.5l12 -64q-77 -29 -122 -20.5t-61.5 37.5t-3.5 67q11 36 53 73q-50 -7 -111 -7 q-147 0 -209.5 62t-62.5 196zM222 295h102q31 0 40.5 9.5t9.5 34.5q0 29 -15 39t-53 10q-47 1 -64 -17t-20 -76z" />
<glyph unicode="&#x11a;" horiz-adv-x="587" d="M55 145v400q0 67 43.5 107.5t113.5 40.5q244 0 342 -11l-9 -135h-259q-43 0 -43 -43v-84h265v-129h-265v-105q0 -43 43 -43h259l9 -135q-98 -11 -342 -11q-71 0 -114 40.5t-43 107.5zM125 874l45 68l146 -77h8l145 77l45 -68l-158 -131h-73z" />
<glyph unicode="&#x11b;" horiz-adv-x="576" d="M32 246q0 146 61.5 205.5t207.5 59.5q131 0 189 -43.5t59 -132.5q1 -70 -39 -102t-135 -32h-149q7 -41 28.5 -56.5t69.5 -15.5q91 0 195 12l16 -111q-83 -42 -231 -42q-147 0 -209.5 62t-62.5 196zM109 683l45 68l146 -77h8l145 77l45 -68l-158 -131h-73zM222 295h102 q31 0 40.5 9.5t9.5 34.5q0 29 -15 39t-53 10q-47 1 -64 -17t-20 -76z" />
<glyph unicode="&#x11e;" horiz-adv-x="658" d="M39 346q0 200 71 279t247 79q131 0 230 -27l-15 -136q-108 3 -213 3q-73 0 -98 -38.5t-25 -161.5q0 -115 21 -156t79 -41q48 0 97 17v233h180v-397h-138l-16 70q-31 -34 -81 -59t-114 -25q-118 0 -171.5 84t-53.5 276zM173 901l85 12q0 -32 21 -47t67 -15q45 0 65.5 15 t20.5 47l85 -12q11 -67 -37 -115t-134 -48t-134.5 48t-38.5 115z" />
<glyph unicode="&#x11f;" horiz-adv-x="593" d="M15 -41q0 38 17.5 62.5t60.5 43.5q-34 35 -25.5 83.5t48.5 69.5q-80 34 -80 134q0 87 55.5 123t192.5 36q83 0 137 -14h164l-9 -72l-57 -8q9 -28 9 -64q0 -87 -54.5 -122.5t-190.5 -35.5q-48 0 -80 4q-11 -13 -4 -31t33 -21l181 -16q81 -7 116.5 -43.5t35.5 -108.5 q0 -99 -60.5 -132t-215.5 -33q-111 0 -170.5 15t-81.5 44.5t-22 85.5zM114 715l85 12q0 -32 21 -46.5t67 -14.5q45 0 65.5 14.5t20.5 46.5l85 -12q11 -66 -37 -114t-134 -48t-134.5 48t-38.5 114zM186 -15q0 -27 19.5 -35t81.5 -8q65 0 86 7.5t21 31.5q0 21 -16 27.5 t-63 10.5l-105 9q-24 -18 -24 -43zM205 353q0 -31 16.5 -42t61.5 -11q44 0 60 11t16 42t-16 41.5t-60 10.5q-45 0 -61.5 -10.5t-16.5 -41.5z" />
<glyph unicode="&#x120;" horiz-adv-x="658" d="M39 346q0 200 71 279t247 79q131 0 230 -27l-15 -136q-108 3 -213 3q-73 0 -98 -38.5t-25 -161.5q0 -115 21 -156t79 -41q48 0 97 17v233h180v-397h-138l-16 70q-31 -34 -81 -59t-114 -25q-118 0 -171.5 84t-53.5 276zM267 802v49q0 50 52 50h55q51 0 51 -50v-49 q0 -50 -51 -50h-55q-52 0 -52 50z" />
<glyph unicode="&#x121;" horiz-adv-x="593" d="M15 -41q0 38 17.5 62.5t60.5 43.5q-34 35 -25.5 83.5t48.5 69.5q-80 34 -80 134q0 87 55.5 123t192.5 36q83 0 137 -14h164l-9 -72l-57 -8q9 -28 9 -64q0 -87 -54.5 -122.5t-190.5 -35.5q-48 0 -80 4q-11 -13 -4 -31t33 -21l181 -16q81 -7 116.5 -43.5t35.5 -108.5 q0 -99 -60.5 -132t-215.5 -33q-111 0 -170.5 15t-81.5 44.5t-22 85.5zM186 -15q0 -27 19.5 -35t81.5 -8q65 0 86 7.5t21 31.5q0 21 -16 27.5t-63 10.5l-105 9q-24 -18 -24 -43zM205 353q0 -31 16.5 -42t61.5 -11q44 0 60 11t16 42t-16 41.5t-60 10.5q-45 0 -61.5 -10.5 t-16.5 -41.5zM208 617v49q0 50 52 50h55q51 0 51 -50v-49q0 -50 -51 -50h-55q-52 0 -52 50z" />
<glyph unicode="&#x122;" horiz-adv-x="658" d="M39 346q0 200 71 279t247 79q131 0 230 -27l-15 -136q-108 3 -213 3q-73 0 -98 -38.5t-25 -161.5q0 -115 21 -156t79 -41q48 0 97 17v233h180v-397h-138l-16 70q-31 -34 -81 -59t-114 -25q-118 0 -171.5 84t-53.5 276zM267 -138l2 40q1 28 13 38t44 10h35q32 0 44 -10 t13 -38v-50q0 -85 -55 -153l-64 17q14 40 16 103q-46 0 -48 43z" />
<glyph unicode="&#x123;" horiz-adv-x="593" d="M15 -41q0 38 17.5 62.5t60.5 43.5q-34 35 -25.5 83.5t48.5 69.5q-80 34 -80 134q0 87 55.5 123t192.5 36q83 0 137 -14h164l-9 -72l-57 -8q9 -28 9 -64q0 -87 -54.5 -122.5t-190.5 -35.5q-48 0 -80 4q-11 -13 -4 -31t33 -21l181 -16q81 -7 116.5 -43.5t35.5 -108.5 q0 -99 -60.5 -132t-215.5 -33q-111 0 -170.5 15t-81.5 44.5t-22 85.5zM186 -15q0 -27 19.5 -35t81.5 -8q65 0 86 7.5t21 31.5q0 21 -16 27.5t-63 10.5l-105 9q-24 -18 -24 -43zM205 353q0 -31 16.5 -42t61.5 -11q44 0 60 11t16 42t-16 41.5t-60 10.5q-45 0 -61.5 -10.5 t-16.5 -41.5zM224 598v49q1 86 55 154l64 -17q-14 -40 -16 -103q46 0 48 -44l-2 -39q-1 -28 -13 -38.5t-44 -10.5h-35q-32 0 -44 10.5t-13 38.5z" />
<glyph unicode="&#x126;" horiz-adv-x="705" d="M8 510v84h54v96h188v-96h205v96h188v-96h55v-84h-55v-510h-188v298h-205v-298h-188v510h-54zM250 435h205v75h-205v-75z" />
<glyph unicode="&#x127;" horiz-adv-x="614" d="M-5 553v77h59v70h183v-70h114v-77h-114v-12q0 -57 -10 -107q97 77 195 77q71 0 107.5 -35.5t36.5 -103.5v-372h-182v315q0 24 -9 33t-32 9q-43 0 -107 -26v-331h-182v553h-59z" />
<glyph unicode="&#x12a;" horiz-adv-x="308" d="M0 774v111h310v-111h-310zM61 0v690h186v-690h-186z" />
<glyph unicode="&#x12b;" horiz-adv-x="293" d="M-8 588v111h311v-111h-311zM55 0v497h183v-497h-183z" />
<glyph unicode="&#x12e;" horiz-adv-x="308" d="M50 -108q18 56 99 108h-88v690h186v-690h-24q-39 -62 -53 -93q-13 -27 4.5 -35.5t50.5 0.5l12 -64q-77 -29 -122.5 -20.5t-61.5 37.5t-3 67z" />
<glyph unicode="&#x12f;" horiz-adv-x="293" d="M47 -108q18 56 100 108h-92v497h183v-497h-17q-40 -63 -54 -93q-12 -27 5 -35.5t50 0.5l13 -64q-78 -29 -123 -20.5t-61.5 37.5t-3.5 67zM69 617v49q0 50 51 50h55q51 0 51 -50v-49q0 -50 -51 -50h-55q-51 0 -51 50z" />
<glyph unicode="&#x130;" horiz-adv-x="308" d="M61 0v690h186v-690h-186zM76 802v49q0 50 51 50h55q51 0 51 -50v-49q0 -50 -51 -50h-55q-51 0 -51 50z" />
<glyph unicode="&#x131;" horiz-adv-x="293" d="M55 0v497h183v-497h-183z" />
<glyph unicode="&#x132;" horiz-adv-x="696" d="M61 0v690h186v-690h-186zM322 10l20 121h47q63 0 63 43v516h186v-555q0 -71 -45 -109.5t-126 -38.5q-96 0 -145 23z" />
<glyph unicode="&#x133;" horiz-adv-x="583" d="M53 615v52q0 54 53 54h79q52 0 52 -54v-52q0 -53 -52 -53h-79q-53 0 -53 53zM55 0v497h181v-497h-181zM281 -113q66 67 66 155v455h181v-455q0 -75 -39.5 -139.5t-106.5 -95.5zM343 622v53q0 53 53 53h79q52 0 52 -53v-53q0 -53 -52 -53h-79q-53 0 -53 53z" />
<glyph unicode="&#x136;" horiz-adv-x="656" d="M61 0v690h187v-183q0 -47 -8 -86h47l158 269h202l-167 -272q-21 -37 -56 -59v-3q41 -24 64 -65l170 -291h-208l-162 295h-48q8 -35 8 -64v-231h-187zM264 -138l2 40q1 28 13 38t44 10h34q32 0 44.5 -10.5t12.5 -37.5v-50q0 -50 -13 -84.5t-41 -68.5l-64 17q15 42 15 103 q-47 0 -47 43z" />
<glyph unicode="&#x137;" horiz-adv-x="585" d="M51 0v700h182v-278q0 -53 -8 -94h38l107 169h200l-115 -167q-20 -34 -52 -54v-4q10 -5 26 -23.5t26 -36.5l133 -212h-201l-125 222h-36q7 -46 7 -74v-148h-182zM223 -131l2 40q1 28 13 38.5t44 10.5h35q32 0 44 -10.5t13 -38.5v-50q0 -85 -55 -153l-64 17q14 40 16 103 q-46 0 -48 43z" />
<glyph unicode="&#x139;" horiz-adv-x="546" d="M58 149v541h188v-497q0 -43 47 -43h234l9 -141q-98 -12 -317 -12q-77 0 -119 41.5t-42 110.5zM63 797l218 149l74 -119l-241 -106z" />
<glyph unicode="&#x13a;" horiz-adv-x="344" d="M52 125v575h181v-527q0 -43 53 -43h36l21 -120q-40 -23 -134 -23q-73 0 -115 36.5t-42 101.5zM54 807l219 149l74 -119l-242 -106z" />
<glyph unicode="&#x13b;" horiz-adv-x="546" d="M58 149v541h188v-497q0 -43 47 -43h234l9 -141q-98 -12 -317 -12q-77 0 -119 41.5t-42 110.5zM218 -138l2 40q1 28 13 38t44 10h35q32 0 44 -10t12 -38v-50q0 -50 -13 -84.5t-41 -68.5l-64 17q14 40 16 103q-48 0 -48 43z" />
<glyph unicode="&#x13c;" horiz-adv-x="344" d="M52 125v575h181v-527q0 -43 53 -43h36l21 -120q-40 -23 -134 -23q-73 0 -115 36.5t-42 101.5zM110 -138l2 40q2 28 14 38t43 10h35q32 0 44 -10t13 -38v-50q0 -50 -13 -84.5t-41 -68.5l-64 17q13 41 15 103q-46 0 -48 43z" />
<glyph unicode="&#x13d;" horiz-adv-x="546" d="M58 149v541h188v-497q0 -43 47 -43h234l9 -141q-98 -12 -317 -12q-77 0 -119 41.5t-42 110.5zM315 602l2 40q1 28 13.5 38.5t43.5 10.5h35q32 0 44 -10.5t13 -38.5v-50q0 -86 -54 -153l-64 17q13 41 15 103q-46 0 -48 43z" />
<glyph unicode="&#x13e;" horiz-adv-x="344" d="M52 125v575h181v-527q0 -43 53 -43h36l21 -120q-40 -23 -134 -23q-73 0 -115 36.5t-42 101.5zM273 622l2 36q1 25 12 35t40 10h31q29 0 40 -10t12 -35v-45q-1 -78 -49 -140l-58 15q12 38 14 95q-42 0 -44 39z" />
<glyph unicode="&#x13f;" horiz-adv-x="546" d="M58 149v541h188v-497q0 -43 47 -43h234l9 -141q-98 -12 -317 -12q-77 0 -119 41.5t-42 110.5zM346 392v49q0 50 51 50h55q52 0 52 -50v-49q0 -50 -52 -50h-55q-51 0 -51 50z" />
<glyph unicode="&#x140;" horiz-adv-x="437" d="M52 125v575h181v-527q0 -43 53 -43h36l21 -120q-40 -23 -134 -23q-73 0 -115 36.5t-42 101.5zM281 366v50q0 49 51 49h55q51 0 51 -49v-50q0 -49 -51 -49h-55q-51 0 -51 49z" />
<glyph unicode="&#x141;" horiz-adv-x="548" d="M10 277v94l50 20v299h188v-226l106 41v-94l-106 -41v-177q0 -43 47 -43h234l9 -141q-98 -12 -317 -12q-77 0 -119 41.5t-42 110.5v148z" />
<glyph unicode="&#x142;" horiz-adv-x="375" d="M8 268v94l71 28v310h181v-239l89 35v-94l-89 -35v-194q0 -43 53 -43h36l20 -120q-39 -23 -133 -23q-73 0 -115 36.5t-42 101.5v171z" />
<glyph unicode="&#x143;" horiz-adv-x="731" d="M60 0v624q0 66 66 66h88q27 0 41.5 -12.5t31.5 -42.5l158 -285q25 -45 52 -115h8q-7 69 -8 121v334h174v-624q0 -66 -65 -66h-89q-27 0 -42 12.5t-31 42.5l-164 296q-27 51 -45 113h-8q8 -62 8 -118v-346h-175zM279 797l219 149l74 -119l-242 -106z" />
<glyph unicode="&#x144;" horiz-adv-x="611" d="M51 0v497h145l15 -73q102 87 208 87q71 0 107.5 -35.5t36.5 -103.5v-372h-182v315q0 24 -9 33t-32 9q-43 0 -107 -26v-331h-182zM220 612l219 149l74 -119l-242 -106z" />
<glyph unicode="&#x145;" horiz-adv-x="731" d="M60 0v624q0 66 66 66h88q27 0 41.5 -12.5t31.5 -42.5l158 -285q25 -45 52 -115h8q-7 69 -8 121v334h174v-624q0 -66 -65 -66h-89q-27 0 -42 12.5t-31 42.5l-164 296q-27 51 -45 113h-8q8 -62 8 -118v-346h-175zM293 -138l2 40q1 28 13 38t44 10h35q32 0 44 -10t13 -38 v-50q-1 -87 -55 -153l-64 17q14 40 16 103q-46 0 -48 43z" />
<glyph unicode="&#x146;" horiz-adv-x="611" d="M51 0v497h145l15 -73q102 87 208 87q71 0 107.5 -35.5t36.5 -103.5v-372h-182v315q0 24 -9 33t-32 9q-43 0 -107 -26v-331h-182zM221 -131l2 40q1 28 13 38.5t44 10.5h34q32 0 44.5 -10.5t12.5 -38.5v-50q0 -86 -54 -153l-64 17q15 43 15 103q-47 0 -47 43z" />
<glyph unicode="&#x147;" horiz-adv-x="731" d="M60 0v624q0 66 66 66h88q27 0 41.5 -12.5t31.5 -42.5l158 -285q25 -45 52 -115h8q-7 69 -8 121v334h174v-624q0 -66 -65 -66h-89q-27 0 -42 12.5t-31 42.5l-164 296q-27 51 -45 113h-8q8 -62 8 -118v-346h-175zM178 868l46 69l145 -78h8l146 78l45 -69l-159 -131h-72z " />
<glyph unicode="&#x148;" horiz-adv-x="611" d="M51 0v497h145l15 -73q102 87 208 87q71 0 107.5 -35.5t36.5 -103.5v-372h-182v315q0 24 -9 33t-32 9q-43 0 -107 -26v-331h-182zM119 683l46 68l145 -77h8l146 77l45 -68l-158 -131h-73z" />
<glyph unicode="&#x14a;" horiz-adv-x="732" d="M60 0v624q0 66 66 66h81q27 0 42.5 -12.5t32.5 -42.5l163 -280q28 -51 51 -115h8q-8 64 -8 119v331h175v-733q0 -77 -39 -120.5t-104 -43.5q-79 0 -131 23l20 118h38q52 0 52 38v35h-13q-14 0 -41 47l-173 292q-17 27 -46 113h-7q8 -61 8 -112v-347h-175z" />
<glyph unicode="&#x14b;" horiz-adv-x="611" d="M51 0v497h142l16 -74q103 88 210 88q144 0 144 -139v-406q0 -78 -39 -120.5t-110 -42.5q-92 0 -138 23l20 117h38q47 0 47 39v333q0 22 -9 31t-33 9q-41 0 -106 -25v-330h-182z" />
<glyph unicode="&#x14c;" horiz-adv-x="697" d="M39 345q0 208 67.5 283.5t241.5 75.5q118 0 183 -31.5t96 -109t31 -218.5t-31 -218.5t-96 -109t-183 -31.5q-174 0 -241.5 75.5t-67.5 283.5zM193 774v111h311v-111h-311zM236 345q0 -127 23 -171t89 -44t89 44t23 171t-23 171t-89 44t-89 -44t-23 -171z" />
<glyph unicode="&#x14d;" horiz-adv-x="600" d="M32 248q0 144 61 203.5t207 59.5q147 0 207.5 -59.5t60.5 -203.5q0 -143 -60.5 -201.5t-207.5 -58.5t-207.5 58.5t-60.5 201.5zM148 588v111h310v-111h-310zM223 248q0 -81 15 -107t62 -26q46 0 61.5 26t15.5 107q0 82 -15.5 108.5t-61.5 26.5q-47 0 -62 -26.5 t-15 -108.5z" />
<glyph unicode="&#x150;" horiz-adv-x="697" d="M39 345q0 208 67.5 283.5t241.5 75.5q118 0 183 -31.5t96 -109t31 -218.5t-31 -218.5t-96 -109t-183 -31.5q-174 0 -241.5 75.5t-67.5 283.5zM161 769l119 189l115 -75l-161 -172zM236 345q0 -127 23 -171t89 -44t89 44t23 171t-23 171t-89 44t-89 -44t-23 -171zM365 768 l119 190l114 -75l-162 -172z" />
<glyph unicode="&#x151;" horiz-adv-x="600" d="M32 248q0 144 61 203.5t207 59.5q147 0 207.5 -59.5t60.5 -203.5q0 -143 -60.5 -201.5t-207.5 -58.5t-207.5 58.5t-60.5 201.5zM115 583l120 190l115 -76l-162 -172zM223 248q0 -81 15 -107t62 -26q46 0 61.5 26t15.5 107q0 82 -15.5 108.5t-61.5 26.5q-47 0 -62 -26.5 t-15 -108.5zM319 583l119 190l115 -76l-162 -172z" />
<glyph unicode="&#x152;" horiz-adv-x="965" d="M39 345q0 141 30.5 218.5t95 109t180.5 31.5q100 0 177 -28q34 17 74 17q241 0 336 -11l-9 -135h-244q-45 0 -45 -43v-87h254v-122h-254v-109q0 -43 45 -43h244l9 -135q-96 -11 -339 -11q-46 0 -81 22q-70 -33 -167 -33q-116 0 -180.5 31.5t-95 109t-30.5 218.5zM237 345 q0 -127 22 -171t86 -44q62 0 101 11l-1 8v392l1 9q-42 10 -101 10q-64 0 -86 -43.5t-22 -171.5z" />
<glyph unicode="&#x153;" horiz-adv-x="907" d="M32 248q0 144 60 203.5t205 59.5q111 0 169 -35q59 33 167 33q130 0 188 -43t58 -128q1 -76 -39.5 -106.5t-144.5 -30.5h-136q6 -42 28 -57.5t72 -15.5q84 0 190 11l17 -111q-83 -41 -228 -41q-108 0 -170 36q-57 -35 -171 -35q-146 0 -205.5 58.5t-59.5 201.5zM224 248 q0 -81 14.5 -107t58.5 -26q43 0 59 21t18 83v56q-2 65 -17.5 86.5t-57.5 21.5q-46 0 -60.5 -26.5t-14.5 -108.5zM556 294h96q33 0 43 9t9 38q-1 26 -16 36t-52 10q-45 0 -61 -17.5t-19 -75.5z" />
<glyph unicode="&#x154;" horiz-adv-x="661" d="M60 0v690q98 10 279 10q149 0 212 -45.5t63 -162.5q0 -152 -136 -167v-6q87 -14 106 -106l57 -213h-197l-49 208q-7 30 -21.5 41t-43.5 11h-85v-260h-185zM235 797l219 149l74 -119l-242 -106zM245 397h90q53 0 71.5 17t18.5 66t-18.5 66t-71.5 17h-90v-166z" />
<glyph unicode="&#x155;" horiz-adv-x="440" d="M51 0v497h142l16 -73q97 87 198 87h27l-16 -167h-48q-50 0 -137 -21v-323h-182zM150 612l219 149l73 -119l-241 -106z" />
<glyph unicode="&#x156;" horiz-adv-x="661" d="M60 0v690q98 10 279 10q149 0 212 -45.5t63 -162.5q0 -152 -136 -167v-6q87 -14 106 -106l57 -213h-197l-49 208q-7 30 -21.5 41t-43.5 11h-85v-260h-185zM245 397h90q53 0 71.5 17t18.5 66t-18.5 66t-71.5 17h-90v-166zM266 -138l2 40q1 28 13 38t44 10h34 q32 0 44.5 -10.5t12.5 -37.5v-50q0 -50 -13 -84.5t-41 -68.5l-64 17q15 42 15 103q-47 0 -47 43z" />
<glyph unicode="&#x157;" horiz-adv-x="440" d="M51 0v497h142l16 -73q97 87 198 87h27l-16 -167h-48q-50 0 -137 -21v-323h-182zM55 -131l2 40q1 28 13 38.5t44 10.5h34q32 0 44.5 -10.5t12.5 -38.5v-50q0 -86 -54 -153l-64 17q15 43 15 103q-47 0 -47 43z" />
<glyph unicode="&#x158;" horiz-adv-x="661" d="M60 0v690q98 10 279 10q149 0 212 -45.5t63 -162.5q0 -152 -136 -167v-6q87 -14 106 -106l57 -213h-197l-49 208q-7 30 -21.5 41t-43.5 11h-85v-260h-185zM134 868l46 69l145 -78h8l146 78l45 -69l-158 -131h-73zM245 397h90q53 0 71.5 17t18.5 66t-18.5 66t-71.5 17h-90 v-166z" />
<glyph unicode="&#x159;" horiz-adv-x="440" d="M49 683l46 68l145 -77h8l146 77l45 -68l-159 -131h-72zM51 0v497h142l16 -73q97 87 198 87h27l-16 -167h-48q-50 0 -137 -21v-323h-182z" />
<glyph unicode="&#x15a;" horiz-adv-x="597" d="M36 506q0 116 59 156.5t210 40.5q145 0 240 -31l-12 -123q-177 3 -230 3q-48 0 -64.5 -8t-16.5 -35q0 -23 14 -35.5t52 -25.5l127 -49q83 -33 117 -81t34 -126q0 -117 -58.5 -161t-211.5 -44q-132 0 -253 30l11 133q205 -5 241 -5q50 0 66.5 8.5t16.5 34.5q0 24 -11.5 35 t-43.5 23l-138 55q-81 33 -115 80.5t-34 124.5zM210 797l219 149l74 -119l-242 -106z" />
<glyph unicode="&#x15b;" horiz-adv-x="541" d="M30 367q0 74 50.5 109t171.5 35q144 -2 243 -21l-11 -110q-66 1 -194 1q-58 0 -71 -2.5t-13 -18.5q0 -3 0.5 -6t2 -5t3 -3.5t4.5 -3l6 -3t8.5 -3t10 -2.5t12.5 -3t14 -4l120 -32q68 -19 98 -51.5t30 -95.5q0 -91 -53 -125t-182 -34q-127 0 -242 19l11 110q10 0 73 -0.5 t102 -0.5q74 0 94.5 4.5t20.5 21.5q0 4 -1 7t-4 6t-5.5 4.5t-9 3.5t-12 3.5t-16 4.5t-19.5 6l-116 32q-73 21 -99.5 57.5t-26.5 99.5zM181 612l219 149l74 -119l-242 -106z" />
<glyph unicode="&#x15e;" horiz-adv-x="597" d="M36 506q0 116 59 156.5t210 40.5q145 0 240 -31l-12 -123q-177 3 -230 3q-48 0 -64.5 -8t-16.5 -35q0 -23 14 -35.5t52 -25.5l127 -49q83 -33 117 -81t34 -126q0 -117 -58.5 -161t-211.5 -44q-132 0 -253 30l11 133q205 -5 241 -5q50 0 66.5 8.5t16.5 34.5q0 24 -11.5 35 t-43.5 23l-138 55q-81 33 -115 80.5t-34 124.5zM180 -270l20 72q82 0 87 54q1 11 -9 13t-58 2l17 66q86 13 125 0.5t36 -65.5q-3 -79 -64.5 -116.5t-153.5 -25.5z" />
<glyph unicode="&#x15f;" horiz-adv-x="541" d="M30 367q0 74 50.5 109t171.5 35q144 -2 243 -21l-11 -110q-66 1 -194 1q-58 0 -71 -2.5t-13 -18.5q0 -3 0.5 -6t2 -5t3 -3.5t4.5 -3l6 -3t8.5 -3t10 -2.5t12.5 -3t14 -4l120 -32q68 -19 98 -51.5t30 -95.5q0 -91 -53 -125t-182 -34q-127 0 -242 19l11 110q10 0 73 -0.5 t102 -0.5q74 0 94.5 4.5t20.5 21.5q0 4 -1 7t-4 6t-5.5 4.5t-9 3.5t-12 3.5t-16 4.5t-19.5 6l-116 32q-73 21 -99.5 57.5t-26.5 99.5zM140 -256l20 72q82 -2 87 54q1 11 -9 12.5t-58 1.5l17 66q86 13 125 1t36 -66q-3 -79 -64.5 -116t-153.5 -25z" />
<glyph unicode="&#x160;" horiz-adv-x="597" d="M36 506q0 116 59 156.5t210 40.5q145 0 240 -31l-12 -123q-177 3 -230 3q-48 0 -64.5 -8t-16.5 -35q0 -23 14 -35.5t52 -25.5l127 -49q83 -33 117 -81t34 -126q0 -117 -58.5 -161t-211.5 -44q-132 0 -253 30l11 133q205 -5 241 -5q50 0 66.5 8.5t16.5 34.5q0 24 -11.5 35 t-43.5 23l-138 55q-81 33 -115 80.5t-34 124.5zM109 868l46 69l145 -78h8l146 78l45 -69l-158 -131h-73z" />
<glyph unicode="&#x161;" horiz-adv-x="541" d="M30 367q0 74 50.5 109t171.5 35q144 -2 243 -21l-11 -110q-66 1 -194 1q-58 0 -71 -2.5t-13 -18.5q0 -3 0.5 -6t2 -5t3 -3.5t4.5 -3l6 -3t8.5 -3t10 -2.5t12.5 -3t14 -4l120 -32q68 -19 98 -51.5t30 -95.5q0 -91 -53 -125t-182 -34q-127 0 -242 19l11 110q10 0 73 -0.5 t102 -0.5q74 0 94.5 4.5t20.5 21.5q0 4 -1 7t-4 6t-5.5 4.5t-9 3.5t-12 3.5t-16 4.5t-19.5 6l-116 32q-73 21 -99.5 57.5t-26.5 99.5zM80 683l46 68l145 -77h8l146 77l45 -68l-158 -131h-73z" />
<glyph unicode="&#x162;" horiz-adv-x="613" d="M14 545v145h585v-145h-199v-545h-188v545h-198zM180 -256l20 72q82 -2 87 54q1 11 -9 12.5t-58 1.5l17 66q86 13 125 1t36 -66q-3 -79 -64.5 -116t-153.5 -25z" />
<glyph unicode="&#x163;" horiz-adv-x="426" d="M14 383v109l85 4v135h183v-134h128v-114h-128v-210q0 -24 10.5 -33.5t36.5 -9.5h58l20 -120q-57 -23 -156 -23q-71 0 -111 37t-40 104v255h-86zM115 -258l21 72q82 -2 86 54q1 11 -9 12.5t-58 1.5l17 66q86 13 125 1t37 -66q-4 -79 -65.5 -116t-153.5 -25z" />
<glyph unicode="&#x164;" horiz-adv-x="613" d="M14 545v145h585v-145h-199v-545h-188v545h-198zM111 868l46 69l145 -78h8l146 78l45 -69l-158 -131h-73z" />
<glyph unicode="&#x165;" horiz-adv-x="426" d="M14 383v109l85 4v135h183v-134h128v-114h-128v-210q0 -24 10.5 -33.5t36.5 -9.5h58l20 -120q-57 -23 -156 -23q-71 0 -111 37t-40 104v255h-86zM293 715l2 39q1 28 13 38.5t44 10.5h34q32 0 44.5 -10.5t12.5 -38.5v-49q0 -86 -54 -154l-64 17q15 42 15 103q-47 0 -47 44z " />
<glyph unicode="&#x166;" horiz-adv-x="616" d="M15 545v145h586v-145h-199v-139h121v-85h-121v-321h-188v321h-122v85h122v139h-199z" />
<glyph unicode="&#x167;" horiz-adv-x="426" d="M14 383v109l85 4v135h183v-134h128v-114h-128v-60h92v-84h-92v-66q0 -24 10.5 -33.5t36.5 -9.5h58l20 -120q-57 -23 -156 -23q-71 0 -111 37t-40 104v111h-58v84h58v60h-86z" />
<glyph unicode="&#x16a;" horiz-adv-x="694" d="M55 280v410h188v-410q0 -88 22 -119t82 -31t82 31t22 119v410h188v-410q0 -161 -63.5 -227.5t-218.5 -66.5q-166 0 -234 66.5t-68 227.5zM193 774v111h311v-111h-311z" />
<glyph unicode="&#x16b;" horiz-adv-x="604" d="M48 125v372h182v-315q0 -23 10 -33t34 -10q39 0 96 25v333h183v-497h-144l-15 71q-100 -85 -202 -85q-144 0 -144 139zM149 598v110h311v-110h-311z" />
<glyph unicode="&#x16e;" horiz-adv-x="694" d="M55 280v410h188v-410q0 -88 22 -119t82 -31t82 31t22 119v410h188v-410q0 -161 -63.5 -227.5t-218.5 -66.5q-166 0 -234 66.5t-68 227.5zM224 833q0 50 36.5 85.5t87.5 35.5t87.5 -35.5t36.5 -85.5t-36.5 -85t-87.5 -35t-87.5 35t-36.5 85zM301 833q0 -20 13.5 -33.5 t33.5 -13.5q19 0 33 13.5t14 33.5t-14 34t-33 14q-20 0 -33.5 -14t-13.5 -34z" />
<glyph unicode="&#x16f;" horiz-adv-x="604" d="M48 125v372h182v-315q0 -23 10 -33t34 -10q39 0 96 25v333h183v-497h-144l-15 71q-100 -85 -202 -85q-144 0 -144 139zM180 657q0 50 36.5 85.5t87.5 35.5t87.5 -35.5t36.5 -85.5t-36.5 -85t-87.5 -35t-87.5 34.5t-36.5 85.5zM257 657q0 -21 13.5 -34.5t33.5 -13.5 q19 0 33 13.5t14 34.5q0 20 -14 34t-33 14q-20 0 -33.5 -14t-13.5 -34z" />
<glyph unicode="&#x170;" horiz-adv-x="694" d="M55 280v410h188v-410q0 -88 22 -119t82 -31t82 31t22 119v410h188v-410q0 -161 -63.5 -227.5t-218.5 -66.5q-166 0 -234 66.5t-68 227.5zM161 769l119 189l115 -75l-161 -172zM365 768l119 190l114 -75l-162 -172z" />
<glyph unicode="&#x171;" horiz-adv-x="604" d="M48 125v372h182v-315q0 -23 10 -33t34 -10q39 0 96 25v333h183v-497h-144l-15 71q-100 -85 -202 -85q-144 0 -144 139zM117 593l119 189l115 -75l-161 -172zM321 592l119 190l114 -75l-162 -172z" />
<glyph unicode="&#x172;" horiz-adv-x="694" d="M55 280v410h188v-410q0 -88 22 -119t82 -31t82 31t22 119v410h188v-410q0 -153 -56.5 -220t-192.5 -73q-37 -60 -50 -89q-13 -27 4.5 -35.5t49.5 0.5l13 -64q-78 -29 -123 -20.5t-61.5 37.5t-3.5 67q17 54 95 104q-141 8 -200 75t-59 218z" />
<glyph unicode="&#x173;" horiz-adv-x="604" d="M48 125v372h182v-315q0 -23 10 -33t34 -10q39 0 96 25v333h183v-497q-36 -56 -53 -93q-12 -27 5 -35.5t50 0.5l12 -64q-77 -29 -122 -20.5t-61.5 37.5t-3.5 67q18 56 100 108h-71l-15 71q-100 -85 -202 -85q-144 0 -144 139z" />
<glyph unicode="&#x174;" horiz-adv-x="989" d="M23 690h187l50 -448q5 -50 6 -109h18q1 7 16 109l58 392q3 25 21 40.5t44 15.5h144q25 0 43 -15.5t21 -40.5l59 -393l15 -108h18q1 44 7 107l49 450h188l-97 -639q-4 -23 -22 -37t-43 -14h-167q-25 0 -43.5 14t-21.5 37l-60 413q-6 46 -9 95h-18q-6 -68 -10 -96l-59 -412 q-3 -23 -21.5 -37t-43.5 -14h-168q-24 0 -42.5 14t-22.5 37zM293 782l137 133h132l134 -138l-45 -63l-151 94h-8l-153 -94z" />
<glyph unicode="&#x175;" horiz-adv-x="863" d="M12 497h181l50 -299q8 -59 10 -85h12q3 24 11 85l38 246q3 23 20.5 38t41.5 15h110q24 0 41.5 -15t20.5 -39l37 -245q1 -6 5.5 -37.5t6.5 -47.5h12q6 56 11 85l49 299h182l-110 -450q-5 -22 -21.5 -34.5t-39.5 -12.5h-133q-24 0 -42 15t-21 39l-38 251q-1 11 -9 86h-12 q-5 -49 -10 -86l-38 -251q-3 -24 -21 -39t-42 -15h-131q-23 0 -39.5 12.5t-21.5 34.5zM231 597l137 133h132l133 -139l-45 -62l-150 94h-8l-153 -94z" />
<glyph unicode="&#x176;" horiz-adv-x="633" d="M-5 690h194l99 -233q13 -30 23 -93h12q14 70 23 93l99 233h193l-227 -469v-221h-188v220zM114 783l137 132h132l134 -138l-45 -63l-151 94h-8l-153 -94z" />
<glyph unicode="&#x177;" horiz-adv-x="584" d="M2 497h193l74 -296q6 -30 14 -85h11q7 26 20 85l74 296h193l-166 -492q-11 -34 -26.5 -64t-41.5 -62t-59 -50t-78 -29t-100 1l-13 101q112 25 148 98h-32q-45 0 -58 43zM93 597l137 133h132l134 -139l-45 -62l-151 94h-8l-153 -94z" />
<glyph unicode="&#x178;" horiz-adv-x="633" d="M-5 690h194l99 -233q13 -30 23 -93h12q14 70 23 93l99 233h193l-227 -469v-221h-188v220zM156 799v61q0 36 36 36h60q36 0 36 -36v-61q0 -36 -36 -36h-60q-36 0 -36 36zM342 799v61q0 36 36 36h60q36 0 36 -36v-61q0 -36 -36 -36h-60q-36 0 -36 36z" />
<glyph unicode="&#x179;" horiz-adv-x="595" d="M34 0v136l312 418h-303v136h510v-136l-312 -418h321v-136h-528zM209 797l219 149l74 -119l-242 -106z" />
<glyph unicode="&#x17a;" horiz-adv-x="534" d="M34 0v122l250 253h-245v122h455v-122l-250 -253h256v-122h-466zM177 612l219 149l74 -119l-242 -106z" />
<glyph unicode="&#x17b;" horiz-adv-x="595" d="M34 0v136l312 418h-303v136h510v-136l-312 -418h321v-136h-528zM225 802v49q0 50 51 50h55q51 0 51 -50v-49q0 -50 -51 -50h-55q-51 0 -51 50z" />
<glyph unicode="&#x17c;" horiz-adv-x="534" d="M34 0v122l250 253h-245v122h455v-122l-250 -253h256v-122h-466zM193 617v49q0 50 51 50h55q51 0 51 -50v-49q0 -50 -51 -50h-55q-51 0 -51 50z" />
<glyph unicode="&#x17d;" horiz-adv-x="595" d="M34 0v136l312 418h-303v136h510v-136l-312 -418h321v-136h-528zM108 868l46 69l145 -78h8l146 78l45 -69l-158 -131h-73z" />
<glyph unicode="&#x17e;" horiz-adv-x="534" d="M34 0v122l250 253h-245v122h455v-122l-250 -253h256v-122h-466zM76 683l46 68l145 -77h8l146 77l45 -68l-158 -131h-73z" />
<glyph unicode="&#x192;" horiz-adv-x="497" d="M-31 -160l27 114h62q28 0 40 12.5t15 44.5l25 283h-93l8 109l95 5l12 137q15 158 184 158q91 0 142 -12l-27 -114h-64q-28 0 -39.5 -12t-14.5 -45l-10 -112h105l-10 -114h-105l-27 -308q-15 -158 -182 -158q-92 0 -143 12z" />
<glyph unicode="&#x218;" horiz-adv-x="597" d="M36 506q0 116 59 156.5t210 40.5q145 0 240 -31l-12 -123q-177 3 -230 3q-48 0 -64.5 -8t-16.5 -35q0 -23 14 -35.5t52 -25.5l127 -49q83 -33 117 -81t34 -126q0 -117 -58.5 -161t-211.5 -44q-132 0 -253 30l11 133q205 -5 241 -5q50 0 66.5 8.5t16.5 34.5q0 24 -11.5 35 t-43.5 23l-138 55q-81 33 -115 80.5t-34 124.5zM200 -138l2 40q1 28 13 38t44 10h35q32 0 44 -10t13 -38v-50q0 -50 -13 -84.5t-41 -68.5l-65 17q14 40 16 103q-46 0 -48 43z" />
<glyph unicode="&#x219;" horiz-adv-x="541" d="M30 367q0 74 50.5 109t171.5 35q144 -2 243 -21l-11 -110q-66 1 -194 1q-58 0 -71 -2.5t-13 -18.5q0 -3 0.5 -6t2 -5t3 -3.5t4.5 -3l6 -3t8.5 -3t10 -2.5t12.5 -3t14 -4l120 -32q68 -19 98 -51.5t30 -95.5q0 -91 -53 -125t-182 -34q-127 0 -242 19l11 110q10 0 73 -0.5 t102 -0.5q74 0 94.5 4.5t20.5 21.5q0 4 -1 7t-4 6t-5.5 4.5t-9 3.5t-12 3.5t-16 4.5t-19.5 6l-116 32q-73 21 -99.5 57.5t-26.5 99.5zM187 -131l2 40q1 28 13.5 38.5t43.5 10.5h35q32 0 44 -10.5t13 -38.5v-50q0 -86 -54 -153l-64 17q13 41 15 103q-46 0 -48 43z" />
<glyph unicode="&#x21a;" horiz-adv-x="613" d="M14 545v145h585v-145h-199v-545h-188v545h-198zM222 -138l2 40q1 28 13 38t44 10h35q32 0 44 -10t13 -38v-50q0 -85 -55 -153l-64 17q14 40 16 103q-46 0 -48 43z" />
<glyph unicode="&#x21b;" horiz-adv-x="426" d="M14 383v109l85 4v135h183v-134h128v-114h-128v-210q0 -24 10.5 -33.5t36.5 -9.5h58l20 -120q-57 -23 -156 -23q-71 0 -111 37t-40 104v255h-86zM161 -138l2 40q1 28 13 38t44 10h35q32 0 44 -10t12 -38v-50q0 -50 -13 -84.5t-41 -68.5l-64 17q15 42 15 103q-47 0 -47 43z " />
<glyph unicode="&#x2c6;" horiz-adv-x="464" d="M30 597l138 133h131l134 -138l-45 -63l-151 94h-8l-153 -94z" />
<glyph unicode="&#x2c7;" horiz-adv-x="464" d="M38 679l46 69l145 -78h8l146 78l45 -69l-158 -131h-73z" />
<glyph unicode="&#x2d8;" horiz-adv-x="403" d="M29 702l85 12q0 -32 21 -47t67 -15t66.5 15t20.5 47l85 -12q10 -66 -38 -114t-134 -48t-134.5 48t-38.5 114z" />
<glyph unicode="&#x2d9;" horiz-adv-x="244" d="M43 615v50q0 49 52 49h55q51 0 51 -49v-50q0 -50 -51 -50h-55q-52 0 -52 50z" />
<glyph unicode="&#x2da;" horiz-adv-x="314" d="M33 650q0 50 36.5 85t87.5 35t87.5 -35t36.5 -85q0 -51 -36.5 -86t-87.5 -35t-87.5 35t-36.5 86zM110 650q0 -21 13.5 -34.5t33.5 -13.5t33.5 13.5t13.5 34.5q0 20 -13.5 34t-33.5 14t-33.5 -14t-13.5 -34z" />
<glyph unicode="&#x2db;" horiz-adv-x="250" d="M37 -108q19 58 103 110l71 -2q-39 -62 -53 -93q-13 -27 4 -35.5t50 0.5l13 -64q-78 -29 -123 -20.5t-61.5 37.5t-3.5 67z" />
<glyph unicode="&#x2dc;" horiz-adv-x="451" d="M47 562q-13 77 13.5 118t69.5 38q38 -3 91.5 -22t73.5 -23q22 -4 27.5 5t5.5 35h76q13 -75 -11.5 -117t-71.5 -39q-39 3 -94.5 23t-71.5 23q-22 3 -27 -5t-5 -36h-76z" />
<glyph unicode="&#x2dd;" horiz-adv-x="526" d="M44 562l119 190l115 -76l-162 -172zM247 562l119 190l115 -76l-162 -172z" />
<glyph unicode="&#x394;" horiz-adv-x="684" d="M18 0v61l231 629h186l231 -629v-61h-648zM228 135h227l-92 281q-8 24 -21 95l-21 -96z" />
<glyph unicode="&#x3a9;" horiz-adv-x="720" d="M40 0v144h75q39 0 73 -17q-76 62 -107 120.5t-30 150.5q0 157 72 231.5t238 74.5q165 0 236.5 -75t71.5 -235q0 -93 -30.5 -151t-106.5 -116q40 17 72 17h76v-144h-293v136q50 44 68.5 94.5t18.5 139.5q0 113 -24 152t-90 39q-68 0 -91 -39t-23 -154q0 -92 18.5 -138 t67.5 -94v-136h-292z" />
<glyph unicode="&#x3bc;" horiz-adv-x="639" d="M65 -185v682h182v-315q0 -40 49 -40q39 0 93 21v334h182v-497h-142l-17 73q-92 -87 -194 -87h-3q7 -33 7 -56v-115h-157z" />
<glyph unicode="&#x3c0;" horiz-adv-x="652" d="M17 375v123h618v-123h-70v-375h-182v375h-114v-375h-182v375h-70z" />
<glyph unicode="&#x401;" horiz-adv-x="588" d="M56 145v400q0 67 43.5 107.5t113.5 40.5q245 0 342 -11l-9 -135h-258q-44 0 -44 -43v-84h266v-129h-266v-105q0 -43 44 -43h258l9 -135q-97 -11 -342 -11q-70 0 -113.5 40.5t-43.5 107.5zM160 804v61q0 36 36 36h60q36 0 36 -36v-61q0 -36 -36 -36h-60q-36 0 -36 36z M346 804v61q0 36 36 36h60q36 0 36 -36v-61q0 -36 -36 -36h-60q-36 0 -36 36z" />
<glyph unicode="&#x402;" horiz-adv-x="771" d="M14 545v145h581v-145h-197v-135q87 42 174 42q92 0 134.5 -46t42.5 -167q0 -140 -72 -197t-200 -55l-17 131q57 11 79 35t22 76q0 49 -12.5 62t-49.5 13q-54 0 -101 -18v-286h-188v545h-196z" />
<glyph unicode="&#x403;" horiz-adv-x="544" d="M61 0v541q0 67 43 109.5t111 42.5q229 0 321 -12l-8 -134h-232q-47 0 -47 -45v-502h-188zM208 797l218 149l74 -119l-242 -106z" />
<glyph unicode="&#x404;" horiz-adv-x="599" d="M39 345q0 197 69 277t238 80q128 0 221 -25l-15 -138q-102 3 -206 3q-57 0 -81.5 -26.5t-30.5 -98.5h274v-121h-275q4 -85 28 -116.5t85 -31.5q141 0 211 9l15 -138q-88 -31 -226 -31q-169 0 -238 80t-69 277z" />
<glyph unicode="&#x405;" horiz-adv-x="597" d="M36 506q0 116 59 156.5t210 40.5q145 0 240 -31l-12 -123q-177 3 -230 3q-48 0 -64.5 -8t-16.5 -35q0 -23 14 -35.5t52 -25.5l127 -49q83 -33 117 -81t34 -126q0 -117 -58.5 -161t-211.5 -44q-132 0 -253 30l11 133q205 -5 241 -5q50 0 66.5 8.5t16.5 34.5q0 24 -11.5 35 t-43.5 23l-138 55q-81 33 -115 80.5t-34 124.5z" />
<glyph unicode="&#x406;" horiz-adv-x="314" d="M64 0v690h186v-690h-186z" />
<glyph unicode="&#x407;" horiz-adv-x="314" d="M-3 799v60q0 37 36 37h60q36 0 36 -37v-60q0 -36 -36 -36h-60q-36 0 -36 36zM64 0v690h186v-690h-186zM183 799v60q0 37 36 37h59q37 0 37 -37v-60q0 -36 -37 -36h-59q-36 0 -36 36z" />
<glyph unicode="&#x408;" horiz-adv-x="391" d="M15 10l20 121h47q62 0 62 43v516h186v-555q0 -71 -45 -109.5t-125 -38.5q-97 0 -145 23z" />
<glyph unicode="&#x409;" horiz-adv-x="980" d="M13 124q36 8 58 24t38 59q12 32 21 86.5t13 99.5t11 141q10 156 166 156h304v-246h67q149 0 206 -48t57 -177t-53 -178t-178 -49q-181 0 -280 8h-4v562h-57q-45 0 -51 -51q-12 -143 -22.5 -218.5t-29.5 -136.5q-32 -102 -92.5 -137.5t-160.5 -22.5zM624 127h67 q46 0 60 19t14 79q0 59 -14 79t-60 20h-67v-197z" />
<glyph unicode="&#x40a;" horiz-adv-x="975" d="M64 0v690h188v-257h183v257h185v-258h74q144 0 199.5 -46t55.5 -168q0 -128 -51 -177t-170 -49q-190 0 -289 8h-4v305h-183v-305h-188zM620 128l74 -1q42 0 54.5 18t12.5 75q0 55 -12.5 73.5t-54.5 18.5h-74v-184z" />
<glyph unicode="&#x40b;" horiz-adv-x="799" d="M14 545v145h581v-145h-197v-122q99 36 182 36q95 0 140 -42.5t45 -131.5v-285h-189v244q0 36 -12.5 48t-52.5 12q-48 0 -113 -11v-293h-188v545h-196z" />
<glyph unicode="&#x40c;" horiz-adv-x="661" d="M64 0v690h187v-183q0 -41 -8 -86h33q66 0 92 45.5t67 204.5q3 13 5 19h191q-8 -25 -21 -68t-18 -59.5t-15 -48t-16 -42t-15.5 -31t-18 -27.5t-20.5 -18.5t-25.5 -16t-30 -9t-37.5 -7.5v-6q42 -6 68.5 -17.5t46.5 -29.5t37 -57.5t32.5 -85t39.5 -126.5q8 -27 12 -41h-196 q-54 190 -72 229q-24 51 -62 62q-16 4 -41 4h-36q8 -35 8 -64v-231h-187zM249 797l218 149l74 -119l-241 -106z" />
<glyph unicode="&#x40d;" horiz-adv-x="724" d="M64 0v690h178v-351q0 -45 -10 -105h7q19 57 42 99l198 357h181v-690h-179v360q0 44 10 101h-7q-18 -57 -41 -99l-198 -362h-181zM164 827l74 119l218 -149l-51 -76z" />
<glyph unicode="&#x40e;" horiz-adv-x="609" d="M-1 690h193l92 -349q2 -11 16 -11h17l103 360h192l-159 -507q-30 -98 -69 -143t-114 -52q-70 -7 -191 14l20 130q96 -3 124 2.5t41 40.5l6 19h-39q-41 0 -64 21t-35 61zM135 901l85 12q0 -32 21 -47t67 -15q45 0 65.5 15t20.5 47l85 -12q11 -67 -37 -115t-134 -48 t-134.5 48t-38.5 115z" />
<glyph unicode="&#x40f;" horiz-adv-x="709" d="M64 0v690h187v-562h206v562h188v-690h-216l-7 -151h-128l-7 151h-223z" />
<glyph unicode="&#x410;" horiz-adv-x="668" d="M-5 0l189 641q5 22 22.5 35.5t40.5 13.5h174q23 0 40.5 -13.5t23.5 -35.5l188 -641h-192l-41 164h-212l-41 -164h-192zM263 300h142l-44 177q-11 52 -13 72h-27q-7 -38 -14 -72z" />
<glyph unicode="&#x411;" horiz-adv-x="635" d="M63 0v690q134 8 247 8q121 0 252 -8l-14 -138h-297v-135h85q153 0 212.5 -45t59.5 -166q0 -126 -59.5 -170t-197.5 -44q-180 0 -283 8h-5zM251 127h85q52 0 68 16t16 69q0 52 -16 69t-68 17h-85v-171z" />
<glyph unicode="&#x412;" horiz-adv-x="653" d="M63 0v690q96 8 281 8q142 0 197 -37.5t55 -142.5q0 -75 -29 -113t-94 -44v-6q78 -7 111.5 -52t33.5 -131q0 -103 -55.5 -141.5t-186.5 -38.5q-207 0 -313 8zM246 125l97 -1q53 0 70.5 17t17.5 68q0 55 -18 73t-72 18h-95v-175zM246 415h93q46 0 62 15.5t16 61.5 q0 45 -17 59.5t-66 14.5h-88v-151z" />
<glyph unicode="&#x413;" horiz-adv-x="544" d="M61 0v541q0 67 43 109.5t111 42.5q229 0 321 -12l-8 -134h-232q-47 0 -47 -45v-502h-188z" />
<glyph unicode="&#x414;" horiz-adv-x="762" d="M14 128h75q64 172 86 413q6 66 51 107.5t116 41.5h311v-562h92v-279h-135l-13 151h-435l-13 -151h-135v279zM264 128h201v434h-63q-48 0 -52 -53q-14 -140 -32.5 -225t-53.5 -156z" />
<glyph unicode="&#x415;" horiz-adv-x="588" d="M56 145v400q0 67 43.5 107.5t113.5 40.5q245 0 342 -11l-9 -135h-258q-44 0 -44 -43v-84h266v-129h-266v-105q0 -43 44 -43h258l9 -135q-97 -11 -342 -11q-70 0 -113.5 40.5t-43.5 107.5z" />
<glyph unicode="&#x416;" horiz-adv-x="954" d="M13 0q58 202 78 248q30 68 79 90q28 13 72 19v6q-85 11 -114.5 56t-74.5 200q-13 45 -21 71h190q53 -180 69 -213q23 -50 59 -55q6 -1 12 -1h35q-9 44 -9 86v183h179v-183q0 -40 -8 -86h32q43 0 64 40.5t62 177.5q3 11 5 17t4.5 16t5.5 18h190q-55 -186 -64 -209 q-28 -73 -72 -97q-27 -15 -74 -21v-6q95 -14 128 -66t91 -254q7 -24 11 -37h-197q-7 21 -18 60q-50 165 -69 198q-28 35 -66 37h-33q8 -35 8 -64v-231h-179v231q0 29 8 64h-35q-44 0 -65 -40t-70 -199q-11 -36 -17 -56h-196z" />
<glyph unicode="&#x417;" horiz-adv-x="577" d="M24 26l14 125q134 -21 230 -21q47 0 63.5 16t16.5 63q0 51 -17 68t-65 17l-143 3v121l142 3q40 0 54 14.5t14 56.5q0 41 -15 54.5t-57 13.5q-92 0 -210 -14l-14 131q97 21 237 21q138 0 191.5 -37.5t53.5 -142.5q0 -75 -28 -113t-91 -44v-6q75 -7 107.5 -52t32.5 -131 q0 -103 -54 -141.5t-181 -38.5q-169 0 -281 34z" />
<glyph unicode="&#x418;" horiz-adv-x="724" d="M64 0v690h178v-351q0 -45 -10 -105h7q19 57 42 99l198 357h181v-690h-179v360q0 44 10 101h-7q-18 -57 -41 -99l-198 -362h-181z" />
<glyph unicode="&#x419;" horiz-adv-x="724" d="M64 0v690h178v-351q0 -45 -10 -105h7q19 57 42 99l198 357h181v-690h-179v360q0 44 10 101h-7q-18 -57 -41 -99l-198 -362h-181zM197 903h114q-4 -43 10.5 -61t47.5 -18q32 0 47 18t11 61h114q10 -65 -38.5 -115t-133.5 -50t-134 50t-38 115z" />
<glyph unicode="&#x41a;" horiz-adv-x="661" d="M64 0v690h187v-183q0 -41 -8 -86h33q66 0 92 45.5t67 204.5q3 13 5 19h191q-8 -25 -21 -68t-18 -59.5t-15 -48t-16 -42t-15.5 -31t-18 -27.5t-20.5 -18.5t-25.5 -16t-30 -9t-37.5 -7.5v-6q42 -6 68.5 -17.5t46.5 -29.5t37 -57.5t32.5 -85t39.5 -126.5q8 -27 12 -41h-196 q-54 190 -72 229q-24 51 -62 62q-16 4 -41 4h-36q8 -35 8 -64v-231h-187z" />
<glyph unicode="&#x41b;" horiz-adv-x="696" d="M0 141q40 6 63 19.5t35 46.5q31 86 47 320q12 163 173 163h314v-690h-188v562h-63q-54 0 -57 -51q-22 -263 -53 -355q-32 -102 -97 -138.5t-161 -21.5z" />
<glyph unicode="&#x41c;" horiz-adv-x="939" d="M51 0l24 623q3 67 68 67h168q61 0 72 -59l66 -306q6 -31 14 -100h11q1 7 6 44t9 57l63 305q12 59 73 59h171q65 0 68 -67l25 -623h-172l-22 547h-16l-84 -386q-11 -58 -73 -58h-106q-62 0 -74 58l-85 386h-16l-19 -547h-171z" />
<glyph unicode="&#x41d;" horiz-adv-x="708" d="M64 0v690h187v-255h206v255h188v-690h-188v298h-206v-298h-187z" />
<glyph unicode="&#x41e;" horiz-adv-x="697" d="M39 345q0 208 67.5 283.5t241.5 75.5q118 0 183 -31.5t96 -109t31 -218.5t-31 -218.5t-96 -109t-183 -31.5q-174 0 -241.5 75.5t-67.5 283.5zM236 345q0 -127 23 -171t89 -44t89 44t23 171t-23 171t-89 44t-89 -44t-23 -171z" />
<glyph unicode="&#x41f;" horiz-adv-x="705" d="M64 0v690h578v-690h-188v562h-203v-562h-187z" />
<glyph unicode="&#x420;" horiz-adv-x="635" d="M63 0v690q98 10 279 10q156 0 213 -48t57 -183q0 -133 -53.5 -181.5t-191.5 -48.5q-51 0 -116 7v-246h-188zM251 376h86q51 0 69 19t18 74q0 56 -18 75t-69 19h-86v-187z" />
<glyph unicode="&#x421;" horiz-adv-x="596" d="M39 345q0 197 68 277t234 80q126 0 218 -25l-14 -138q-102 3 -204 3q-62 0 -83.5 -40.5t-21.5 -156.5t21.5 -156.5t83.5 -40.5q145 0 218 8l15 -137q-90 -31 -233 -31q-166 0 -234 80t-68 277z" />
<glyph unicode="&#x422;" horiz-adv-x="613" d="M14 545v145h585v-145h-199v-545h-188v545h-198z" />
<glyph unicode="&#x423;" horiz-adv-x="609" d="M-1 690h193l92 -349q2 -11 16 -11h17l103 360h192l-159 -507q-30 -98 -69 -143t-114 -52q-70 -7 -191 14l20 130q96 -3 124 2.5t41 40.5l6 19h-39q-41 0 -64 21t-35 61z" />
<glyph unicode="&#x424;" horiz-adv-x="862" d="M23 354q0 154 70 219.5t244 76.5v86h188v-86q174 -11 243.5 -76.5t70.5 -219.5q-1 -149 -71 -212.5t-243 -74.5v-86h-188v86q-174 11 -244 74.5t-70 212.5zM212 354q0 -82 26.5 -113.5t107.5 -38.5v313q-82 -7 -108 -40.5t-26 -120.5zM516 202q81 7 107.5 38.5 t26.5 113.5q0 87 -26.5 120.5t-107.5 40.5v-313z" />
<glyph unicode="&#x425;" horiz-adv-x="661" d="M2 0l175 353l-161 337h187l124 -280h6l124 280h188l-161 -337l175 -353h-189l-138 300h-4l-137 -300h-189z" />
<glyph unicode="&#x426;" horiz-adv-x="724" d="M64 0v690h187v-562h189v562h188v-562h78v-279h-134l-14 151h-494z" />
<glyph unicode="&#x427;" horiz-adv-x="677" d="M41 398v292h188v-251q-2 -34 12.5 -47t54.5 -13q66 0 130 22v289h188v-690h-188v273q-106 -49 -199 -49q-96 0 -141 42.5t-45 131.5z" />
<glyph unicode="&#x428;" horiz-adv-x="997" d="M64 0v690h183v-562h160v562h183v-562h160v562h184v-690h-870z" />
<glyph unicode="&#x429;" horiz-adv-x="1026" d="M64 0v690h183v-562h158v562h183v-562h158v562h184v-562h77v-279h-134l-14 151h-795z" />
<glyph unicode="&#x42a;" horiz-adv-x="776" d="M13 545v145h399v-246h74q150 0 207 -48t57 -178q0 -128 -53 -177t-178 -49q-191 0 -292 8h-4v545h-210zM412 128l74 -1q47 0 61 18.5t14 78.5t-14.5 80t-60.5 20h-74v-196z" />
<glyph unicode="&#x42b;" horiz-adv-x="929" d="M64 0v690h188v-246h76q150 0 207 -48t57 -178q0 -129 -53 -177.5t-178 -48.5q-193 0 -292 8h-5zM252 128l76 -1q48 0 62 18.5t14 78.5t-14.5 80t-61.5 20h-76v-196zM677 0v690h188v-690h-188z" />
<glyph unicode="&#x42c;" horiz-adv-x="624" d="M64 0v690h187v-246h80q151 0 208.5 -48t57.5 -178q0 -129 -53.5 -177.5t-179.5 -48.5q-194 0 -295 8h-5zM251 128l80 -1q49 0 63.5 18.5t14.5 78.5t-15 80t-63 20h-80v-196z" />
<glyph unicode="&#x42d;" horiz-adv-x="599" d="M27 19l15 138q71 -9 212 -9q60 0 84.5 31.5t28.5 116.5h-276v121h274q-6 72 -30.5 98.5t-80.5 26.5q-104 0 -207 -3l-14 138q92 25 220 25q170 0 239 -80t69 -277t-69 -277t-239 -80q-137 0 -226 31z" />
<glyph unicode="&#x42e;" horiz-adv-x="998" d="M64 0v690h188v-270h113q10 162 74.5 223t211.5 61q117 0 182 -31.5t95.5 -109t30.5 -218.5t-30.5 -218.5t-95.5 -109t-182 -31.5q-152 0 -216 65.5t-71 241.5h-112v-293h-188zM547 345q0 -128 21 -171.5t83 -43.5q64 0 86.5 43.5t23.5 171.5q-1 128 -23.5 171.5 t-86.5 43.5q-62 0 -83 -43.5t-21 -171.5z" />
<glyph unicode="&#x42f;" horiz-adv-x="651" d="M20 0l54 212q20 90 107 105v6q-133 14 -133 169q0 116 62 162t205 46q177 0 273 -10v-690h-188v258h-75q-28 0 -41.5 -11t-20.5 -41l-46 -206h-197zM236 480q0 -49 17.5 -67t65.5 -18h81v168h-81q-49 0 -65.5 -16.5t-17.5 -66.5z" />
<glyph unicode="&#x430;" horiz-adv-x="584" d="M29 129v50q0 59 42.5 93t116.5 34h165v12q-1 32 -15.5 44.5t-53.5 12.5q-97 0 -213 -7l-16 118q132 25 272 25q105 0 156.5 -43.5t51.5 -150.5v-317h-145l-17 73q-70 -86 -177 -86q-72 0 -119.5 37.5t-47.5 104.5zM207 155q0 -40 49 -40q44 0 97 34v62h-104 q-42 -1 -42 -39v-17z" />
<glyph unicode="&#x431;" horiz-adv-x="605" d="M43 311q0 77 7 132.5t26.5 105.5t56.5 84t93 53q47 16 143.5 23.5t147.5 30.5l27 -138q-55 -30 -142.5 -35t-113.5 -12q-67 -19 -91 -69q-14 -24 -22 -74h4q31 34 71 51t103 17q121 0 169.5 -54.5t48.5 -180.5q0 -133 -58 -195t-198 -62q-55 0 -97.5 9t-71 22.5t-48.5 39 t-30.5 48.5t-16 61t-7 67t-1.5 76zM230 246q0 -79 15 -104.5t60 -25.5t60.5 26t15.5 104q0 74 -14.5 98t-58.5 24q-49 0 -63.5 -24t-14.5 -98z" />
<glyph unicode="&#x432;" horiz-adv-x="583" d="M53 -2l1 499q91 6 257 6q127 0 175.5 -27.5t48.5 -104.5q0 -54 -26 -81.5t-84 -31.5v-4q69 -5 99 -37.5t30 -93.5q0 -75 -49 -103t-165 -28q-185 0 -287 6zM224 110h85q37 0 51 10t14 40q0 28 -14.5 38.5t-52.5 10.5h-83v-99zM224 303h83q34 0 46.5 9t12.5 34 q0 24 -13.5 32.5t-50.5 8.5l-78 1v-85z" />
<glyph unicode="&#x433;" horiz-adv-x="487" d="M51 0v378q0 64 33.5 95t103.5 31q209 0 290 -15l-8 -127h-200q-21 0 -30 -8.5t-9 -28.5v-325h-180z" />
<glyph unicode="&#x434;" horiz-adv-x="653" d="M15 122h62q39 110 59 254q17 121 144 121h273v-375h83v-260h-120l-13 138h-356l-12 -138h-120v260zM237 122h146v259h-45q-40 0 -44 -40q-20 -136 -57 -219z" />
<glyph unicode="&#x435;" horiz-adv-x="578" d="M32 246q0 146 61.5 205.5t207.5 59.5q131 0 189.5 -43.5t58.5 -132.5q1 -70 -38.5 -102t-134.5 -32h-150q7 -41 28.5 -56.5t70.5 -15.5q91 0 194 12l17 -111q-83 -42 -232 -42q-147 0 -209.5 62t-62.5 196zM223 295h102q31 0 40 9.5t9 34.5q0 29 -14.5 39t-52.5 10 q-47 1 -64.5 -17t-19.5 -76z" />
<glyph unicode="&#x436;" horiz-adv-x="841" d="M13 0q49 161 70 195q22 40 66 52q18 4 57 10v5q-78 10 -100 37t-62 152q-10 29 -15 46h178q41 -127 56.5 -154t52.5 -27h32q-6 32 -6 62v119h158v-119q0 -30 -6 -62h31q36 0 52 27.5t56 153.5h179q-46 -146 -59 -171q-21 -41 -60 -53q-20 -6 -58 -11v-5q26 -4 39.5 -6 t30.5 -9.5t24.5 -11.5t20 -22t17.5 -29t17.5 -44.5t19.5 -57t24 -77.5h-184q-47 143 -62.5 171t-48.5 29h-38q5 -25 5 -42v-158h-159v158q0 20 6 42h-40q-31 -1 -46.5 -29.5t-63.5 -170.5h-184z" />
<glyph unicode="&#x437;" horiz-adv-x="527" d="M23 9l12 120q106 -11 211 -11q41 0 53 6.5t12 33.5q0 23 -12.5 29.5t-53.5 8.5l-156 2v107l155 3q34 1 45 7.5t11 27.5q0 22 -12.5 28t-54.5 6q-85 0 -186 -11l-11 119q81 25 186 25q145 0 200 -26t55 -110q0 -58 -25 -84.5t-83 -31.5v-4q68 -5 98 -36.5t30 -93.5 q0 -85 -54 -111t-184 -26q-137 0 -236 22z" />
<glyph unicode="&#x438;" horiz-adv-x="620" d="M54 0v497h161v-234q0 -26 -7 -77h4q12 33 38 73l158 238h158v-498h-162v223q0 30 7 88h-4q-14 -42 -40 -83l-155 -227h-158z" />
<glyph unicode="&#x439;" horiz-adv-x="620" d="M54 0v497h161v-234q0 -26 -7 -77h4q12 33 38 73l158 238h158v-498h-162v223q0 30 7 88h-4q-14 -42 -40 -83l-155 -227h-158zM138 718h114q-4 -44 10.5 -62t47.5 -18t47.5 18t10.5 62h114q10 -66 -38.5 -115.5t-133.5 -49.5t-134 49.5t-38 115.5z" />
<glyph unicode="&#x43a;" d="M54 0v497h181v-117q0 -26 -7 -63h22q52 0 68 26t49 154h183q-45 -149 -56 -170q-18 -41 -53 -53q-19 -7 -63 -13v-5q21 -3 32 -4.5t26 -6.5t21.5 -7t18 -12.5t15.5 -15.5t13.5 -23.5t13.5 -30t14 -41.5t16 -51t19 -64h-189q-40 140 -55 168t-54 29h-40q6 -21 6 -40v-157 h-181z" />
<glyph unicode="&#x43b;" horiz-adv-x="608" d="M7 128q5 1 17.5 2.5t16.5 2.5t13.5 3.5t13 5t9.5 7t9 11t5 14.5q15 53 26 195q11 128 137 128h300v-497h-181v376h-43q-43 0 -47 -42q-17 -148 -30 -209q-27 -163 -228 -130z" />
<glyph unicode="&#x43c;" horiz-adv-x="804" d="M47 0l12 435q2 62 63 62h154q58 0 67 -56l44 -185q2 -9 10 -74h8q2 10 4.5 35t5.5 39l43 185q9 56 68 56h157q60 0 62 -62l13 -435h-164l-13 365h-12l-59 -241q-10 -55 -68 -55h-81q-59 0 -69 55l-59 241h-12l-10 -365h-164z" />
<glyph unicode="&#x43d;" horiz-adv-x="617" d="M54 0v497h179v-175h152v175h178v-497h-178v201h-152v-201h-179z" />
<glyph unicode="&#x43e;" horiz-adv-x="601" d="M33 248q0 144 60.5 203.5t207.5 59.5q146 0 206.5 -59.5t60.5 -203.5q0 -143 -60.5 -201.5t-206.5 -58.5q-147 0 -207.5 58.5t-60.5 201.5zM223 248q0 -81 15.5 -107t62.5 -26q46 0 61.5 26t15.5 107q0 82 -15.5 108.5t-61.5 26.5q-47 0 -62.5 -26.5t-15.5 -108.5z" />
<glyph unicode="&#x43f;" horiz-adv-x="609" d="M54 0v498h502v-498h-177v375h-149v-375h-176z" />
<glyph unicode="&#x440;" horiz-adv-x="614" d="M54 -185v682h146l14 -70q27 35 79.5 58.5t110.5 23.5q176 0 176 -266q0 -145 -45.5 -200.5t-143.5 -55.5q-100 0 -159 45q5 -53 3 -108v-109h-181zM235 128q57 -17 87 -17q41 0 56 24.5t15 106.5q0 81 -14 106.5t-51 25.5q-41 0 -93 -31v-215z" />
<glyph unicode="&#x441;" horiz-adv-x="519" d="M33 249q0 144 58.5 203t200.5 59q122 0 197 -34l-19 -113l-147 1q-57 0 -78.5 -24t-21.5 -92t21.5 -92t78.5 -24q88 0 157 8l16 -115q-76 -38 -206 -38q-142 0 -199.5 58.5t-57.5 202.5z" />
<glyph unicode="&#x442;" horiz-adv-x="526" d="M15 360v137h496v-137h-157v-360h-181v360h-158z" />
<glyph unicode="&#x443;" horiz-adv-x="585" d="M2 497h193l75 -296q10 -56 14 -85h10q12 43 21 85l73 296h194l-166 -492q-26 -83 -67 -126.5t-103 -66.5q-81 -33 -205 -10l15 118q82 -3 123.5 14t67.5 66h-33q-45 0 -58 43z" />
<glyph unicode="&#x444;" horiz-adv-x="765" d="M32 248q0 128 62 188.5t207 71.5v192h163v-192q145 -11 207 -71.5t62 -188.5q0 -127 -62 -187t-207 -70v-176h-163v176q-146 11 -207.5 70.5t-61.5 186.5zM204 248q0 -69 22 -99t83 -37v275q-61 -8 -83 -38t-22 -101zM455 112q61 7 83.5 37t22.5 99q0 70 -22.5 100.5 t-83.5 38.5v-275z" />
<glyph unicode="&#x445;" horiz-adv-x="588" d="M3 0l148 254l-136 243h181l98 -186l98 186h181l-136 -243l148 -254h-183l-108 200l-108 -200h-183z" />
<glyph unicode="&#x446;" horiz-adv-x="644" d="M54 0v497h179v-375h136v375h179v-375h78v-260h-121l-13 138h-438z" />
<glyph unicode="&#x447;" horiz-adv-x="588" d="M37 264v233h180v-179q0 -20 9.5 -29t32.5 -9q46 0 94 17v200h180v-497h-180v174q-81 -27 -156 -27q-82 0 -121 28.5t-39 88.5z" />
<glyph unicode="&#x448;" horiz-adv-x="855" d="M54 0v497h175v-375h118v375h160v-375h119v375h175v-497h-747z" />
<glyph unicode="&#x449;" horiz-adv-x="895" d="M54 0v497h175v-375h118v375h159v-375h119v375h175v-375h77v-260h-121l-13 138h-689z" />
<glyph unicode="&#x44a;" horiz-adv-x="670" d="M15 365v132h338v-163h51q140 0 191.5 -36t51.5 -134q0 -96 -49 -133t-162 -37q-164 0 -254 6h-4v365h-163zM353 114h51q37 0 49 11t12 46t-11.5 46t-49.5 11h-51v-114z" />
<glyph unicode="&#x44b;" horiz-adv-x="814" d="M54 0v497h175v-163h52q140 0 192 -36t52 -134q0 -96 -49 -133t-163 -37q-164 0 -254 6h-5zM229 114h52q38 0 49.5 11t11.5 46t-11.5 46t-49.5 11h-52v-114zM577 0v497h183v-497h-183z" />
<glyph unicode="&#x44c;" horiz-adv-x="551" d="M54 0v497h174v-163h56q140 0 192.5 -36t52.5 -134q0 -96 -49.5 -133t-164.5 -37q-166 0 -256 6h-5zM228 114h56q38 0 50.5 11t12.5 46t-12.5 46t-50.5 11h-56v-114z" />
<glyph unicode="&#x44d;" horiz-adv-x="550" d="M26 17l14 114q97 -5 194 -5q55 0 75 13.5t24 61.5h-249v102h248q-6 41 -27.5 54.5t-70.5 13.5q-42 0 -101 -0.5t-88 -0.5l-15 111q83 28 204 28q157 0 220.5 -58t63.5 -205q0 -143 -64 -201t-220 -58q-122 0 -208 30z" />
<glyph unicode="&#x44e;" horiz-adv-x="852" d="M54 0v497h181v-182h83q10 114 64 155t177 41q146 0 202.5 -54t56.5 -210q0 -151 -56.5 -204t-202.5 -53q-126 0 -180 42.5t-62 160.5h-82v-193h-181zM483 250q0 -78 13.5 -100.5t60.5 -22.5q45 0 59 23t15 100q-1 77 -15 100t-59 23q-47 0 -60.5 -22.5t-13.5 -100.5z" />
<glyph unicode="&#x44f;" horiz-adv-x="577" d="M18 0l39 157q14 46 95 54v4q-108 22 -108 134q0 94 46 127t182 33q180 0 251 -8v-501h-176v162h-66q-24 0 -33.5 -6t-12.5 -23l-31 -133h-186zM220 335q0 -38 10.5 -50t45.5 -12h71v108h-71q-35 0 -45.5 -9t-10.5 -37z" />
<glyph unicode="&#x451;" horiz-adv-x="578" d="M32 246q0 146 61.5 205.5t207.5 59.5q131 0 189.5 -43.5t58.5 -132.5q1 -70 -38.5 -102t-134.5 -32h-150q7 -41 28.5 -56.5t70.5 -15.5q91 0 194 12l17 -111q-83 -42 -232 -42q-147 0 -209.5 62t-62.5 196zM144 614v60q0 36 36 36h60q35 0 35 -36v-60q0 -37 -35 -37h-60 q-36 0 -36 37zM223 295h102q31 0 40 9.5t9 34.5q0 29 -14.5 39t-52.5 10q-47 1 -64.5 -17t-19.5 -76zM329 614v60q0 36 37 36h59q36 0 36 -36v-60q0 -37 -36 -37h-59q-37 0 -37 37z" />
<glyph unicode="&#x452;" horiz-adv-x="618" d="M14 473v82h61v145h182v-145h169v-82h-169v-24q0 -55 -8 -103q94 73 191 73q144 0 144 -139v-280h-183v223q0 23 -10 32t-36 9q-42 0 -98 -22v-242h-182v473h-61z" />
<glyph unicode="&#x453;" horiz-adv-x="487" d="M51 0v378q0 64 33.5 95t103.5 31q209 0 290 -15l-8 -127h-200q-21 0 -30 -8.5t-9 -28.5v-325h-180zM164 612l218 149l74 -119l-242 -106z" />
<glyph unicode="&#x454;" horiz-adv-x="550" d="M33 246q0 147 63 205t220 58q129 0 204 -28l-14 -111h-190q-49 1 -70 -12.5t-27 -54.5h249v-102h-250q4 -48 24.5 -61.5t73.5 -13.5q97 0 195 5l13 -114q-77 -30 -208 -30q-156 0 -219.5 58t-63.5 201z" />
<glyph unicode="&#x455;" horiz-adv-x="543" d="M31 367q0 74 50.5 109t170.5 35q145 -2 244 -21l-12 -110q-65 1 -194 1q-58 0 -71 -2.5t-13 -18.5q0 -3 0.5 -6t2 -5t3 -3.5t5 -3t6 -3t8 -3t10 -2.5t13 -3t14.5 -4l120 -32q67 -19 97 -51.5t30 -95.5q0 -92 -52.5 -125.5t-181.5 -33.5q-127 0 -243 19l12 110 q10 0 72.5 -0.5t101.5 -0.5q75 0 95.5 4.5t20.5 21.5q0 4 -1 7t-4 6t-5.5 4.5t-9.5 3.5t-12 3.5t-16 4.5t-20 6l-116 32q-72 21 -98.5 57.5t-26.5 99.5z" />
<glyph unicode="&#x456;" horiz-adv-x="296" d="M56 615v52q0 54 53 54h78q53 0 53 -54v-52q0 -53 -53 -53h-78q-53 0 -53 53zM58 0v497h181v-497h-181z" />
<glyph unicode="&#x457;" horiz-adv-x="298" d="M-11 614v60q0 36 36 36h60q36 0 36 -36v-60q0 -37 -36 -37h-60q-36 0 -36 37zM58 0v497h182v-497h-182zM175 614v60q0 36 36 36h60q36 0 36 -36v-60q0 -37 -36 -37h-60q-36 0 -36 37z" />
<glyph unicode="&#x458;" horiz-adv-x="297" d="M-7 -113q65 68 65 155v455h181v-455q0 -75 -39.5 -139.5t-106.5 -95.5zM54 622v53q0 53 53 53h79q52 0 52 -53v-53q0 -53 -52 -53h-79q-53 0 -53 53z" />
<glyph unicode="&#x459;" horiz-adv-x="835" d="M17 120q22 3 33.5 6t25.5 14.5t20 31.5q15 44 33 203q14 122 138 122h262v-166h47q136 0 186.5 -35.5t50.5 -133.5q0 -95 -48 -131.5t-159 -36.5q-130 0 -240 6h-4v385h-36q-22 0 -31.5 -9t-12.5 -34q-14 -146 -38 -222q-48 -153 -216 -124zM529 111h47q38 0 50 11.5 t12 46.5t-12 46t-50 11h-47v-115z" />
<glyph unicode="&#x45a;" horiz-adv-x="829" d="M54 0v497h165v-177h135v177h170v-177h54q132 0 181 -33.5t49 -124.5q0 -95 -46.5 -131.5t-153.5 -36.5q-162 0 -251 6h-3v209h-135v-209h-165zM524 111h54q33 0 44 10.5t11 42.5q0 31 -10.5 41.5t-44.5 10.5h-54v-105z" />
<glyph unicode="&#x45b;" horiz-adv-x="618" d="M14 473v82h61v145h182v-145h169v-82h-169v-24q0 -55 -8 -103q94 73 191 73q144 0 144 -139v-238q0 -75 -37.5 -139.5t-101.5 -95.5l-102 80q58 64 58 155v181q0 23 -10 32t-36 9q-42 0 -98 -22v-242h-182v473h-61z" />
<glyph unicode="&#x45c;" d="M54 0v497h181v-117q0 -26 -7 -63h22q52 0 68 26t49 154h183q-45 -149 -56 -170q-18 -41 -53 -53q-19 -7 -63 -13v-5q21 -3 32 -4.5t26 -6.5t21.5 -7t18 -12.5t15.5 -15.5t13.5 -23.5t13.5 -30t14 -41.5t16 -51t19 -64h-189q-40 140 -55 168t-54 29h-40q6 -21 6 -40v-157 h-181zM209 612l219 149l73 -119l-241 -106z" />
<glyph unicode="&#x45d;" horiz-adv-x="620" d="M54 0v497h161v-234q0 -26 -7 -77h4q12 33 38 73l158 238h158v-498h-162v223q0 30 7 88h-4q-14 -42 -40 -83l-155 -227h-158zM105 642l74 119l219 -149l-51 -76z" />
<glyph unicode="&#x45e;" horiz-adv-x="585" d="M2 497h193l75 -296q10 -56 14 -85h10q12 43 21 85l73 296h194l-166 -492q-26 -83 -67 -126.5t-103 -66.5q-81 -33 -205 -10l15 118q82 -3 123.5 14t67.5 66h-33q-45 0 -58 43zM119 718h114q-4 -43 10.5 -61.5t47.5 -18.5q32 0 47 18.5t11 61.5h114q10 -66 -38.5 -115.5 t-133.5 -49.5t-134 49.5t-38 115.5z" />
<glyph unicode="&#x45f;" horiz-adv-x="614" d="M54 0v497h180v-375h148v375h178v-497h-182l-10 -163h-122l-12 163h-180z" />
<glyph unicode="&#x490;" horiz-adv-x="547" d="M61 0v541q0 67 43 109.5t111 42.5q124 0 186 -2l14 152h124v-165l-8 -131h-235q-47 0 -47 -45v-502h-188z" />
<glyph unicode="&#x491;" horiz-adv-x="488" d="M51 0v378q0 64 33.5 95t103.5 31q105 0 158 -2l14 138h119v-151l-9 -127h-200q-21 0 -30 -8.5t-9 -28.5v-325h-180z" />
<glyph unicode="&#x4b0;" horiz-adv-x="639" d="M-2 690h194l99 -233q13 -30 23 -93h12q14 70 23 93l99 233h193l-191 -394h100v-93h-136v-203h-188v203h-136v93h99z" />
<glyph unicode="&#x4b1;" horiz-adv-x="637" d="M-1 497h194l98 -229q5 -12 9 -27.5t8 -35.5t6 -29h11q15 75 23 93l97 228h194l-190 -390h99v-108h-134v-184h-189v184h-135v108h98z" />
<glyph unicode="&#x4b6;" horiz-adv-x="719" d="M41 398v292h188v-251q-2 -34 12.5 -47t55.5 -13q63 0 126 22v289h188v-566h91v-275h-134l-14 151h-131v271q-102 -47 -196 -47q-96 0 -141 42.5t-45 131.5z" />
<glyph unicode="&#x4b7;" horiz-adv-x="625" d="M37 264v233h180v-179q0 -20 9.5 -29t31.5 -9q45 0 91 17v200h180v-375h78v-260h-120l-13 138h-125v174q-79 -27 -154 -27q-81 0 -119.5 28.5t-38.5 88.5z" />
<glyph unicode="&#x4ba;" horiz-adv-x="677" d="M64 0v690h187v-271q105 47 198 47q97 0 142.5 -42.5t45.5 -131.5v-292h-188v251q2 35 -13 47.5t-56 12.5q-66 0 -129 -21v-290h-187z" />
<glyph unicode="&#x4c0;" horiz-adv-x="314" d="M64 0v690h186v-690h-186z" />
<glyph unicode="&#x1e80;" horiz-adv-x="989" d="M23 690h187l50 -448q5 -50 6 -109h18q1 7 16 109l58 392q3 25 21 40.5t44 15.5h144q25 0 43 -15.5t21 -40.5l59 -393l15 -108h18q1 44 7 107l49 450h188l-97 -639q-4 -23 -22 -37t-43 -14h-167q-25 0 -43.5 14t-21.5 37l-60 413q-6 46 -9 95h-18q-6 -68 -10 -96l-59 -412 q-3 -23 -21.5 -37t-43.5 -14h-168q-24 0 -42.5 14t-22.5 37zM290 827l74 119l219 -149l-51 -76z" />
<glyph unicode="&#x1e81;" horiz-adv-x="863" d="M12 497h181l50 -299q8 -59 10 -85h12q3 24 11 85l38 246q3 23 20.5 38t41.5 15h110q24 0 41.5 -15t20.5 -39l37 -245q1 -6 5.5 -37.5t6.5 -47.5h12q6 56 11 85l49 299h182l-110 -450q-5 -22 -21.5 -34.5t-39.5 -12.5h-133q-24 0 -42 15t-21 39l-38 251q-1 11 -9 86h-12 q-5 -49 -10 -86l-38 -251q-3 -24 -21 -39t-42 -15h-131q-23 0 -39.5 12.5t-21.5 34.5zM228 642l74 119l218 -149l-51 -76z" />
<glyph unicode="&#x1e82;" horiz-adv-x="989" d="M23 690h187l50 -448q5 -50 6 -109h18q1 7 16 109l58 392q3 25 21 40.5t44 15.5h144q25 0 43 -15.5t21 -40.5l59 -393l15 -108h18q1 44 7 107l49 450h188l-97 -639q-4 -23 -22 -37t-43 -14h-167q-25 0 -43.5 14t-21.5 37l-60 413q-6 46 -9 95h-18q-6 -68 -10 -96l-59 -412 q-3 -23 -21.5 -37t-43.5 -14h-168q-24 0 -42.5 14t-22.5 37zM402 797l218 149l74 -119l-241 -106z" />
<glyph unicode="&#x1e83;" horiz-adv-x="863" d="M12 497h181l50 -299q8 -59 10 -85h12q3 24 11 85l38 246q3 23 20.5 38t41.5 15h110q24 0 41.5 -15t20.5 -39l37 -245q1 -6 5.5 -37.5t6.5 -47.5h12q6 56 11 85l49 299h182l-110 -450q-5 -22 -21.5 -34.5t-39.5 -12.5h-133q-24 0 -42 15t-21 39l-38 251q-1 11 -9 86h-12 q-5 -49 -10 -86l-38 -251q-3 -24 -21 -39t-42 -15h-131q-23 0 -39.5 12.5t-21.5 34.5zM339 612l219 149l74 -119l-242 -106z" />
<glyph unicode="&#x1e84;" horiz-adv-x="989" d="M23 690h187l50 -448q5 -50 6 -109h18q1 7 16 109l58 392q3 25 21 40.5t44 15.5h144q25 0 43 -15.5t21 -40.5l59 -393l15 -108h18q1 44 7 107l49 450h188l-97 -639q-4 -23 -22 -37t-43 -14h-167q-25 0 -43.5 14t-21.5 37l-60 413q-6 46 -9 95h-18q-6 -68 -10 -96l-59 -412 q-3 -23 -21.5 -37t-43.5 -14h-168q-24 0 -42.5 14t-22.5 37zM335 799v60q0 37 36 37h60q36 0 36 -37v-60q0 -36 -36 -36h-60q-36 0 -36 36zM521 799v60q0 37 36 37h60q36 0 36 -37v-60q0 -36 -36 -36h-60q-36 0 -36 36z" />
<glyph unicode="&#x1e85;" horiz-adv-x="863" d="M12 497h181l50 -299q8 -59 10 -85h12q3 24 11 85l38 246q3 23 20.5 38t41.5 15h110q24 0 41.5 -15t20.5 -39l37 -245q1 -6 5.5 -37.5t6.5 -47.5h12q6 56 11 85l49 299h182l-110 -450q-5 -22 -21.5 -34.5t-39.5 -12.5h-133q-24 0 -42 15t-21 39l-38 251q-1 11 -9 86h-12 q-5 -49 -10 -86l-38 -251q-3 -24 -21 -39t-42 -15h-131q-23 0 -39.5 12.5t-21.5 34.5zM273 614v60q0 36 36 36h60q36 0 36 -36v-60q0 -37 -36 -37h-60q-36 0 -36 37zM458 614v60q0 36 37 36h59q37 0 37 -36v-60q0 -37 -37 -37h-59q-37 0 -37 37z" />
<glyph unicode="&#x1ef2;" horiz-adv-x="633" d="M-5 690h194l99 -233q13 -30 23 -93h12q14 70 23 93l99 233h193l-227 -469v-221h-188v220zM111 827l74 119l219 -149l-51 -76z" />
<glyph unicode="&#x1ef3;" horiz-adv-x="584" d="M2 497h193l74 -296q6 -30 14 -85h11q7 26 20 85l74 296h193l-166 -492q-11 -34 -26.5 -64t-41.5 -62t-59 -50t-78 -29t-100 1l-13 101q112 25 148 98h-32q-45 0 -58 43zM90 642l74 119l219 -149l-51 -76z" />
<glyph unicode="&#x2000;" horiz-adv-x="479" />
<glyph unicode="&#x2001;" horiz-adv-x="958" />
<glyph unicode="&#x2002;" horiz-adv-x="479" />
<glyph unicode="&#x2003;" horiz-adv-x="958" />
<glyph unicode="&#x2004;" horiz-adv-x="319" />
<glyph unicode="&#x2005;" horiz-adv-x="239" />
<glyph unicode="&#x2006;" horiz-adv-x="159" />
<glyph unicode="&#x2007;" horiz-adv-x="159" />
<glyph unicode="&#x2008;" horiz-adv-x="119" />
<glyph unicode="&#x2009;" horiz-adv-x="191" />
<glyph unicode="&#x200a;" horiz-adv-x="53" />
<glyph unicode="&#x2010;" horiz-adv-x="395" d="M50 201v110h294v-110h-294z" />
<glyph unicode="&#x2011;" horiz-adv-x="395" d="M50 201v110h294v-110h-294z" />
<glyph unicode="&#x2012;" horiz-adv-x="395" d="M50 201v110h294v-110h-294z" />
<glyph unicode="&#x2013;" horiz-adv-x="543" d="M50 201v110h443v-110h-443z" />
<glyph unicode="&#x2014;" horiz-adv-x="836" d="M50 201v110h736v-110h-736z" />
<glyph unicode="&#x2018;" horiz-adv-x="222" d="M39 477v58q0 101 54 180l64 -20q-14 -47 -16 -121q46 0 48 -50l-2 -47q-1 -32 -13 -44.5t-44 -12.5h-34q-32 0 -44 12.5t-13 44.5z" />
<glyph unicode="&#x2019;" horiz-adv-x="219" d="M32 603l2 46q1 33 13 45t44 12h34q32 0 44 -12t13 -45v-58q0 -101 -54 -180l-64 20q15 50 15 121q-45 0 -47 51z" />
<glyph unicode="&#x201a;" horiz-adv-x="233" d="M41 55l2 50q1 34 13 47.5t43 13.5h35q31 0 43.5 -13t13.5 -48v-63q-1 -107 -54 -193l-64 21q15 54 15 130q-47 0 -47 55z" />
<glyph unicode="&#x201c;" horiz-adv-x="412" d="M39 477v58q0 101 54 180l64 -20q-14 -47 -16 -121q46 0 48 -50l-2 -47q-1 -32 -13 -44.5t-44 -12.5h-34q-32 0 -44 12.5t-13 44.5zM229 477v58q0 101 54 180l64 -20q-15 -50 -15 -121q45 0 47 -50l-2 -47q-1 -32 -13 -44.5t-44 -12.5h-34q-32 0 -44 12.5t-13 44.5z" />
<glyph unicode="&#x201d;" horiz-adv-x="409" d="M32 603l2 46q1 33 13 45t44 12h34q32 0 44 -12t13 -45v-58q0 -101 -54 -180l-64 20q15 50 15 121q-45 0 -47 51zM222 603l2 46q1 33 13 45t44 12h34q32 0 44 -12t13 -45v-58q0 -101 -54 -180l-64 20q14 47 16 121q-46 0 -48 51z" />
<glyph unicode="&#x201e;" horiz-adv-x="422" d="M40 40l2 47q1 32 13.5 44.5t43.5 12.5h34q31 0 43.5 -12.5t13.5 -44.5v-59q0 -101 -54 -180l-64 20q15 50 15 121q-45 0 -47 51zM230 40l2 47q1 32 13.5 44.5t43.5 12.5h34q31 0 43.5 -12.5t13.5 -44.5v-59q0 -101 -54 -180l-64 20q14 47 16 121q-46 0 -48 51z" />
<glyph unicode="&#x2020;" horiz-adv-x="479" d="M26 368v129h129v-110zM167 -110l9 511v83l-9 207h145l-8 -207v-83l8 -511h-145zM324 387v110h129v-129z" />
<glyph unicode="&#x2021;" horiz-adv-x="516" d="M45 84v129l129 -19v-110h-129zM45 368v129h129v-110zM186 -54l6 259v348l20 138l117 -56l-7 -248v-347l-18 -150zM342 84v110l129 19v-129h-129zM342 387v110h129v-129z" />
<glyph unicode="&#x2022;" horiz-adv-x="377" d="M64 263v16q0 63 26 88t94 25h16q63 0 88 -25t25 -88v-16q0 -68 -25 -94t-88 -26h-16q-68 0 -94 26t-26 94z" />
<glyph unicode="&#x2026;" horiz-adv-x="911" d="M35 63v44q0 36 13.5 49.5t49.5 13.5h43q36 0 49.5 -13.5t13.5 -49.5v-44q0 -36 -13.5 -49.5t-49.5 -13.5h-43q-36 0 -49.5 13.5t-13.5 49.5zM364 63v44q0 36 13.5 49.5t49.5 13.5h43q36 0 49.5 -13.5t13.5 -49.5v-44q0 -36 -13.5 -49.5t-49.5 -13.5h-43q-36 0 -49.5 13.5 t-13.5 49.5zM693 63v44q0 36 13.5 49.5t48.5 13.5h44q36 0 49.5 -13.5t13.5 -49.5v-44q0 -36 -13.5 -49.5t-49.5 -13.5h-44q-35 0 -48.5 13.5t-13.5 49.5z" />
<glyph unicode="&#x202f;" horiz-adv-x="191" />
<glyph unicode="&#x2030;" horiz-adv-x="1311" d="M28 498q0 116 38.5 161t137.5 45q100 0 139 -45t39 -161t-39 -161t-139 -45q-99 0 -137.5 45t-38.5 161zM161 498q0 -71 8 -90t35 -19q28 0 36 19t8 90t-8 90t-36 19q-27 0 -35 -19.5t-8 -89.5zM203 0l395 690h112l-395 -690h-112zM534 193q0 116 38.5 161t137.5 45 q100 0 139 -45t39 -161t-39 -161t-139 -45q-99 0 -137.5 45t-38.5 161zM667 193q-1 -71 7 -90t36 -19q27 0 35.5 19.5t8.5 89.5t-8.5 89t-35.5 19q-28 0 -36 -18.5t-7 -89.5zM929 193q0 116 38.5 161t137.5 45q100 0 139 -45t39 -161t-39 -161t-139 -45q-99 0 -137.5 45 t-38.5 161zM1062 193q0 -70 8 -89.5t35 -19.5q28 0 36.5 19.5t8.5 89.5q0 71 -8.5 89.5t-36.5 18.5q-27 0 -35 -18.5t-8 -89.5z" />
<glyph unicode="&#x2039;" horiz-adv-x="314" d="M27 232v38l158 198l95 -61l-94 -156l95 -162l-96 -60z" />
<glyph unicode="&#x203a;" horiz-adv-x="315" d="M34 89l95 162l-95 156l95 61l159 -198v-38l-159 -203z" />
<glyph unicode="&#x2044;" horiz-adv-x="160" d="M-174 0l395 690h112l-395 -690h-112z" />
<glyph unicode="&#x205f;" horiz-adv-x="239" />
<glyph unicode="&#x20ac;" horiz-adv-x="642" d="M33 228v103h459l-11 -103h-177q10 -42 32.5 -62.5t62.5 -24.5q88 -11 198 9l14 -131q-83 -31 -197 -31q-144 0 -217 58t-92 182h-72zM34 364v103h70q21 121 94 178t216 57q98 0 180 -25l-16 -131q-117 15 -179 3q-72 -10 -93 -82h208l-11 -103h-469z" />
<glyph unicode="&#x2122;" horiz-adv-x="989" d="M49 601v95h349v-95h-112v-285h-124v285h-113zM429 316l13 337q2 43 43 43h113q40 0 46 -38l29 -146q1 -9 3 -28t4 -28h6q5 43 7 57l27 145q6 38 47 38h115q41 0 43 -43l12 -337h-113l-12 287h-9l-38 -187q-6 -38 -47 -38h-70q-42 0 -48 38l-38 187h-9l-10 -287h-114z" />
<glyph unicode="&#x2202;" horiz-adv-x="602" d="M33 242q7 90 60.5 152t161.5 62q81 -2 130 -40q-1 64 -22.5 98t-81 51.5t-171.5 17.5v121q129 4 213.5 -10t143 -55t82 -114.5t18.5 -186.5q-9 -194 -79 -272t-213 -78q-59 0 -104.5 16t-72 41t-42.5 59t-21 68t-2 70zM214 238q-9 -111 70 -111q22 0 37 8.5t25 22 t16.5 39t10 50.5t7.5 66q-38 11 -79 11q-81 0 -87 -86z" />
<glyph unicode="&#x2205;" horiz-adv-x="685" d="M50 341q0 121 86 206.5t207 85.5t206.5 -85.5t85.5 -206.5t-85.5 -207t-206.5 -86t-207 86t-86 207zM221 534l3 -45q60 9 119 9q66 0 66 -46q0 -21 -15 -44.5t-33.5 -42.5t-33.5 -52t-15 -72h54q0 35 14.5 64.5t32.5 46.5t32.5 43.5t14.5 56.5q0 93 -117 93 q-51 0 -122 -11zM313 126q0 -7 7 -7h39q8 0 8 7v37q0 8 -8 8h-39q-7 0 -7 -8v-37z" />
<glyph unicode="&#x220f;" horiz-adv-x="712" d="M28 559v131h656v-131h-78v-652h-182v652h-137v-652h-181v652h-78z" />
<glyph unicode="&#x2211;" horiz-adv-x="597" d="M36 -23l143 350l-131 235v128h507v-128h-303l129 -235l-143 -350h327v-128h-529v128z" />
<glyph unicode="&#x2212;" horiz-adv-x="575" d="M52 229v127h471v-127h-471z" />
<glyph unicode="&#x221a;" horiz-adv-x="585" d="M10 497h145l94 -382h13l173 761h147l-206 -868q-3 -8 -13 -8h-215q-11 0 -13 8z" />
<glyph unicode="&#x221e;" horiz-adv-x="762" d="M35 308q0 73 45.5 110.5t115.5 37.5q97 0 186 -82q99 82 192 82q65 0 108.5 -38t43.5 -110q0 -75 -47 -116.5t-119 -41.5q-94 0 -179 76q-91 -76 -184 -76q-68 0 -115 42t-47 116zM167 304q0 -44 56 -44q46 0 89 43q-20 22 -38.5 32t-51.5 10q-55 0 -55 -41zM451 298 q36 -38 88 -38q55 0 55 43q0 42 -53 42q-32 0 -50.5 -11.5t-39.5 -35.5z" />
<glyph unicode="&#x222b;" horiz-adv-x="356" d="M24 -218l11 131h57q18 0 25 8.5t5 31.5l-49 628q-4 64 31 98.5t94 34.5q90 0 133 -4l-10 -131h-61q-17 0 -23 -7t-5 -27l51 -634q5 -69 -25.5 -101t-110.5 -32q-96 0 -123 4z" />
<glyph unicode="&#x2248;" horiz-adv-x="578" d="M56 109q-19 85 17.5 128t108.5 37q24 -2 99.5 -23t98.5 -23q11 -1 17 0t8.5 9t2.5 12v20h111q19 -82 -14 -124.5t-111 -39.5q-26 1 -101 22.5t-98 23.5q-11 1 -17 0t-8.5 -9t-2.5 -12v-21h-111zM56 310q-19 84 17.5 127t108.5 37q23 -2 98.5 -22.5t99.5 -22.5q11 -1 17 0 t8.5 8.5t2.5 11.5v20h111q19 -82 -14 -124.5t-111 -39.5q-26 1 -101 22.5t-98 23.5q-11 1 -17 -0.5t-8.5 -9t-2.5 -11.5v-20h-111z" />
<glyph unicode="&#x2260;" horiz-adv-x="614" d="M71 129v127h472v-127h-248l-47 -131l-103 36l34 95h-108zM71 343v128h232l46 128l101 -37l-32 -91h125v-128h-472z" />
<glyph unicode="&#x2264;" horiz-adv-x="555" d="M45 36v137h446v-137h-446zM56 316v140l435 121v-142l-281 -49l281 -49v-142z" />
<glyph unicode="&#x2265;" horiz-adv-x="555" d="M64 195v142l281 49l-281 49v142l435 -121v-140zM65 36v137h446v-137h-446z" />
<glyph unicode="&#x25ca;" horiz-adv-x="571" d="M24 336q-6 10 0 20l252 333q10 13 20 0l250 -333q7 -10 0 -20l-250 -335q-10 -13 -20 0zM165 346l121 -169l119 169l-119 167z" />
<glyph unicode="&#x25fc;" horiz-adv-x="495" d="M0 0v495h495v-495h-495z" />
<glyph unicode="&#xfb00;" horiz-adv-x="782" d="M13 383v109l85 5v57q3 158 172 158q97 0 152 -12l-17 -113h-74q-32 0 -44 -12t-12 -46v-32h191v67q0 158 171 158q109 0 173 -12l-17 -113h-94q-32 0 -44.5 -13t-12.5 -45v-42h131v-114h-131v-383h-176v383h-191v-383h-177v383h-85z" />
<glyph unicode="&#xfb03;" horiz-adv-x="1061" d="M13 383v109l82 5v57q3 158 172 158q97 0 152 -12l-17 -113h-74q-32 0 -44 -12.5t-12 -45.5v-32h192v63q0 162 173 162q80 0 137 -12v-113h-72q-36 0 -49 -13.5t-13 -47.5v-39h366v-497h-183v383h-183v-383h-176v383h-192v-383h-177v383h-82zM823 622v53q0 53 54 53h77 q53 0 53 -53v-53q0 -53 -53 -53h-77q-54 0 -54 53z" />
<glyph unicode="&#xfb04;" horiz-adv-x="1118" d="M13 383v109l85 5v57q3 158 172 158q97 0 152 -12l-17 -113h-74q-32 0 -44 -12t-12 -46v-32h191v63q0 163 171 162q271 0 381 -21v-532q0 -43 47 -43h31l20 -116q-39 -23 -130 -23q-70 0 -109.5 35.5t-39.5 98.5v478h-140q-28 0 -41.5 -14t-13.5 -49v-39h119v-114h-119 v-383h-176v383h-191v-383h-177v383h-85z" />
<glyph unicode="&#xfb06;" horiz-adv-x="909" d="M30 367q0 67 50.5 98.5t171.5 31.5h331v134h182v-134h128v-114h-128v-210q0 -24 11 -33.5t37 -9.5h57l20 -120q-58 -23 -156 -23q-70 0 -110.5 37.5t-40.5 103.5v254h-293q-58 0 -71 -2.5t-13 -17.5q0 -3 0.5 -6t2 -5t3 -3.5t4.5 -3l6 -3t8.5 -3t10 -2.5t12.5 -3t14 -4 l120 -34q64 -19 92.5 -51.5t28.5 -95.5q0 -91 -51.5 -125t-176.5 -34q-127 0 -242 19l11 110q11 0 75 -0.5t100 -0.5q66 0 87 4.5t21 21.5q0 14 -11.5 19.5t-48.5 15.5l-116 32q-73 21 -99.5 57.5t-26.5 99.5z" />
<glyph horiz-adv-x="872" d="M32 249q0 136 59.5 192t200.5 56h253v134h183v-134h128v-114h-128v-210q0 -24 11 -33.5t37 -9.5h57l20 -120q-57 -23 -156 -23q-71 0 -111 37t-40 104v255h-223q-58 0 -79 -27.5t-21 -106.5q0 -68 21 -92t79 -24q74 0 132 8l16 -115q-67 -38 -181 -38q-142 0 -200 58.5 t-58 202.5z" />
<glyph horiz-adv-x="1313" d="M13 383v109l85 5v57q3 158 172 158q97 0 152 -12l-17 -113h-74q-32 0 -44 -12t-12 -46v-32h190v67q0 158 174 158q104 0 167 -12l-17 -113h-90q-32 0 -44 -12.5t-12 -45.5v-42h154q126 0 156 -123l45 -173q6 -30 14 -85h12q4 16 11 46t9 39l73 296h194l-167 -492 q-14 -44 -36 -81t-57.5 -71t-90 -48.5t-121.5 -3.5l-13 101q112 25 148 98h-31q-45 0 -58 43l-104 305q-12 35 -48 35h-90v-383h-178v383h-190v-383h-177v383h-85z" />
<glyph horiz-adv-x="789" d="M13 383v109l85 5v67q0 158 174 158q95 0 148 -12l-17 -113h-66q-32 0 -44 -12.5t-12 -45.5v-42h181v134h182v-134h129v-114h-129v-210q0 -24 11 -33.5t37 -9.5h58l20 -120q-58 -23 -156 -23q-71 0 -111 37t-41 104v255h-181v-383h-183v383h-85z" />
<glyph horiz-adv-x="946" d="M13 383v109l85 5v67q0 158 174 158q109 0 172 -12l-17 -113h-90q-32 0 -44 -12.5t-12 -45.5v-42h149q126 0 156 -123l45 -173q6 -30 14 -85h11q5 17 12.5 48.5t8.5 36.5l73 296h194l-167 -492q-14 -44 -36 -81t-57.5 -71t-90 -48.5t-121.5 -3.5l-13 101q112 25 148 98 h-31q-45 0 -58 43l-104 305q-12 35 -48 35h-85v-383h-183v383h-85z" />
<glyph horiz-adv-x="805" d="M14 383v109l85 4v135h183v-134h196v134h182v-134h128v-114h-128v-210q0 -24 11 -33.5t37 -9.5h58l20 -120q-59 -23 -156 -23q-71 0 -111 37t-41 104v255h-196v-210q0 -24 10.5 -33.5t36.5 -9.5h58l20 -120q-57 -23 -156 -23q-71 0 -111 37t-40 104v255h-86z" />
<glyph horiz-adv-x="970" d="M14 383v109l85 4v135h183v-134h172q126 0 156 -123l45 -173q10 -56 14 -85h11q4 14 20 85l74 296h193l-166 -492q-14 -44 -36.5 -81t-58 -71t-90 -48.5t-121.5 -3.5l-13 101q60 14 95 36.5t54 61.5h-32q-45 0 -58 43l-104 305q-10 35 -47 35h-108v-210q0 -24 10.5 -33.5 t36.5 -9.5h58l20 -120q-57 -23 -156 -23q-71 0 -111 37t-40 104v255h-86z" />
<glyph horiz-adv-x="403" d="M29 704h115q-4 -43 10.5 -61t47.5 -18q32 0 46.5 18t10.5 61h115q10 -65 -38.5 -114.5t-133.5 -49.5t-134 49.5t-39 114.5z" />
</font>
</defs>
</svg>
