<?xml version="1.0" standalone="no"?>
<!DOCTYPE svg PUBLIC "-//W3C//DTD SVG 1.1//EN" "http://www.w3.org/Graphics/SVG/1.1/DTD/svg11.dtd" >
<svg xmlns="http://www.w3.org/2000/svg">
<metadata></metadata>
<defs>
<font id="exo_2.0italic" horiz-adv-x="573" >
<font-face units-per-em="1000" ascent="800" descent="-200" />
<missing-glyph horiz-adv-x="223" />
<glyph unicode="fi" horiz-adv-x="603" d="M-120 -194l13 64h76q48 0 69.5 17t28.5 66l65 467h-87l8 62l89 4l11 80q11 76 48 113.5t111 37.5q71 0 120 -7l-6 -63h-87q-48 0 -71.5 -21.5t-30.5 -72.5l-10 -66h324l-69 -487h-85l59 420h-238l-68 -480q-19 -141 -154 -141q-52 0 -116 7zM479 613l8 56q3 25 27 25h40 q13 0 19.5 -8t4.5 -20l-7 -57q-4 -24 -28 -24h-40q-27 0 -24 28z" />
<glyph unicode="fl" horiz-adv-x="664" d="M-120 -194l13 64h76q48 0 69.5 17t28.5 66l65 467h-87l8 62l89 4l11 80q11 76 48 114t111 37q221 -3 279 -12l-79 -583q-9 -64 54 -64h49l4 -55q-29 -12 -87 -12q-57 0 -86 31t-22 85l76 541h-161q-48 0 -71.5 -21.5t-30.5 -73.5l-10 -66h146l-9 -67h-146l-68 -480 q-19 -141 -154 -141q-52 0 -116 7z" />
<glyph unicode=" "  horiz-adv-x="223" />
<glyph unicode="&#x09;" horiz-adv-x="223" />
<glyph unicode="&#xa0;" horiz-adv-x="223" />
<glyph unicode="!" horiz-adv-x="271" d="M56 33l8 56q4 29 34 29h23q34 0 28 -33l-7 -55q-4 -30 -33 -30h-23q-34 0 -30 33zM91 211l16 178l43 306h84l-43 -306l-33 -178h-67z" />
<glyph unicode="&#x22;" horiz-adv-x="350" d="M99 475l25 215h69l-36 -215h-58zM243 475l25 215h69l-35 -215h-59z" />
<glyph unicode="#" horiz-adv-x="682" d="M31 213l18 55h116l57 180h-116l19 55h114l59 187h67l-58 -187h183l59 187h67l-58 -187h111l-19 -55h-110l-57 -180h110l-17 -55h-110l-67 -213h-67l67 213h-184l-67 -213h-67l67 213h-117zM232 268h184l57 180h-184z" />
<glyph unicode="$" horiz-adv-x="564" d="M29 7l11 65q153 -5 172 -5l53 247l-64 23q-71 26 -96.5 72t-14.5 120q6 46 20.5 77.5t34 50.5t50.5 29t62 13t77 3h20l21 97h42l-21 -99q73 -3 142 -18l-10 -64q-53 3 -148 5l-52 -242l54 -20q76 -28 100.5 -71.5t13.5 -122.5q-15 -108 -71.5 -143.5t-185.5 -35.5h-2 l-25 -115h-42l25 116q-78 2 -166 18zM178 520q-7 -51 7 -71t62 -38l42 -16l49 228h-7q-34 0 -50 -0.5t-38 -5.5t-32 -15.5t-19.5 -30.5t-13.5 -51zM254 67q81 2 113 22.5t41 86.5q7 51 -7 71.5t-62 38.5l-35 13z" />
<glyph unicode="%" horiz-adv-x="894" d="M74 501q16 111 56.5 156.5t126.5 45.5q90 0 121 -48t16 -160q-16 -110 -56.5 -156t-127.5 -46q-90 0 -121 48.5t-15 159.5zM138 495q-11 -84 3.5 -116t65.5 -32q61 0 85.5 33.5t36.5 120.5q12 84 -2.5 116t-67.5 32q-60 0 -84 -33t-37 -121zM148 0l544 690h66l-544 -690 h-66zM515 198q15 110 55.5 156t127.5 46q91 0 121.5 -48.5t14.5 -160.5q-15 -109 -56 -155t-128 -46q-90 0 -120.5 48.5t-14.5 159.5zM579 191q-11 -84 3 -116t66 -32q60 0 85 33.5t37 121.5q12 84 -2.5 116t-67.5 32q-60 0 -84 -33.5t-37 -121.5z" />
<glyph unicode="&#x26;" horiz-adv-x="755" d="M44 178q11 85 53 129.5t119 48.5l1 5q-125 9 -98 163q18 106 77.5 141t183.5 35q89 0 169 -21l-15 -66q-65 15 -152 15q-92 0 -128.5 -23.5t-48.5 -97.5q-11 -68 15.5 -92t105.5 -24h212q3 40 3 129h78q1 -69 -3 -129h111l-11 -67h-107q-17 -112 -62 -183 q-93 -150 -309 -152q-115 -1 -161 42.5t-33 146.5zM137 186q-11 -70 13 -95.5t94 -25.5q158 0 232 109q41 57 55 150h-214q-89 -1 -128 -29t-52 -109z" />
<glyph unicode="'" horiz-adv-x="206" d="M99 475l25 215h69l-36 -215h-58z" />
<glyph unicode="(" horiz-adv-x="356" d="M56 317q27 192 105.5 307t221.5 167l10 -42q-107 -49 -168.5 -155.5t-85.5 -283.5q-24 -170 5.5 -277t120.5 -158l-11 -39q-128 52 -176.5 170.5t-21.5 310.5z" />
<glyph unicode=")" horiz-adv-x="356" d="M-30 -124q206 100 254 440q24 172 -6 279t-121 155l11 39q128 -51 177.5 -169t21.5 -313q-28 -191 -106.5 -305.5t-221.5 -167.5z" />
<glyph unicode="*" horiz-adv-x="448" d="M88 553l20 48l117 -46l-3 -22l-13 -14zM120 403l119 127l14 161h53l-32 -161l84 -129l-43 -30l-61 123l-94 -122zM295 533v22l126 46l11 -52l-129 -30z" />
<glyph unicode="+" horiz-adv-x="547" d="M51 267l9 64h186l25 176h66l-25 -176h186l-9 -64h-186l-25 -177h-65l24 177h-186z" />
<glyph unicode="," horiz-adv-x="227" d="M24 -118q25 76 33 120q-14 -1 -21 6.5t-5 20.5l8 59q4 18 11.5 24t27.5 6h26q17 0 23.5 -7.5t3.5 -25.5l-9 -64q-9 -71 -56 -154z" />
<glyph unicode="-" horiz-adv-x="447" d="M61 220l9 65h304l-8 -65h-305z" />
<glyph unicode="." horiz-adv-x="225" d="M31 33l8 56q4 29 34 29h28q33 0 29 -33l-7 -55q-5 -30 -34 -30h-28q-35 0 -30 33z" />
<glyph unicode="/" horiz-adv-x="524" d="M-21 -66l499 756h73l-499 -756h-73z" />
<glyph unicode="0" horiz-adv-x="601" d="M71 348q27 191 90.5 273t191.5 82q132 0 175.5 -85.5t16.5 -275.5t-91 -272.5t-191 -82.5q-131 0 -175 85t-17 276zM156 342q-22 -154 1 -216t105 -62q88 0 132 64t66 220q22 154 -1 216t-107 62q-88 0 -131.5 -64.5t-64.5 -219.5z" />
<glyph unicode="1" horiz-adv-x="395" d="M66 619l185 71h88l-97 -690h-87l77 549q3 30 12 60l-176 -55z" />
<glyph unicode="2" horiz-adv-x="557" d="M13 0l8 57q3 25 15 37l233 226q78 75 116.5 129t43.5 104q5 45 -21.5 58t-92.5 13q-102 0 -203 -16l-1 68q115 26 211 26q105 0 155.5 -32t40.5 -120q-8 -63 -42.5 -118t-113.5 -132l-226 -219q45 4 107 4h235l-12 -85h-453z" />
<glyph unicode="3" horiz-adv-x="550" d="M14 5l11 68q138 -10 184 -7q159 11 180 139q22 122 -116 123l-130 2l9 67h126q74 1 104.5 36t36.5 93q7 60 -17.5 79.5t-111.5 19.5q-73 0 -171 -8l-3 68q110 18 193 18q114 0 158.5 -39.5t36.5 -123.5q-7 -65 -37.5 -116.5t-86.5 -58.5l-1 -4q59 -10 83.5 -54.5 t13.5 -117.5q-30 -193 -261 -202q-88 -3 -201 18z" />
<glyph unicode="4" horiz-adv-x="610" d="M45 284l250 406h89l-250 -410q-24 -39 16 -39h238l29 203l32 114h67l-44 -317h89l-9 -63l-90 -9l-24 -169h-83l23 169h-268q-50 0 -70.5 37.5t5.5 77.5z" />
<glyph unicode="5" horiz-adv-x="533" d="M16 13l16 71q91 -23 164 -18q167 9 185 151q10 75 -30.5 101.5t-158.5 31.5l-65 5q-18 2 -28 14.5t-6 30.5l56 290h366l-15 -75h-290l-36 -188l71 -6q124 -9 179 -56t42 -155q-5 -39 -18 -73t-40 -68.5t-76.5 -56t-116.5 -24.5q-94 -5 -199 25z" />
<glyph unicode="6" horiz-adv-x="569" d="M72 340q17 117 42 189.5t64.5 110t84.5 50t116 12.5q65 0 146 -16l-12 -63q-44 4 -129 4q-72 0 -111 -19.5t-65 -74t-45 -163.5q76 78 183 80q95 2 136.5 -50.5t23.5 -177.5q-17 -119 -73 -176.5t-179 -57.5q-95 0 -141 36.5t-53 114.5t12 201zM150 290 q-19 -132 2 -179.5t107 -47.5q81 0 116 40.5t47 125.5q13 85 -6 118t-91 32q-43 -1 -84 -20.5t-91 -68.5z" />
<glyph unicode="7" horiz-adv-x="510" d="M84 615l6 75h391q31 0 41.5 -17t-3.5 -45l-303 -628h-88l273 566q20 37 29 49h-346z" />
<glyph unicode="8" horiz-adv-x="606" d="M51 175q12 86 43 131.5t95 51.5l2 4q-97 12 -76 159q14 98 64.5 139t174.5 40q129 0 170.5 -43t28.5 -142q-21 -145 -120 -156l-2 -4q114 -12 88 -186q-13 -98 -66 -138t-188 -41q-129 -1 -178.5 43.5t-35.5 141.5zM136 187q-10 -71 17 -96.5t120 -25.5q88 0 122.5 27.5 t43.5 101.5q12 80 -13 104.5t-120 24.5q-93 -1 -125.5 -26t-44.5 -110zM193 507q-10 -70 14.5 -92t112.5 -22q84 0 113 23.5t39 96.5q10 68 -13.5 92t-110.5 24q-85 0 -115 -25.5t-40 -96.5z" />
<glyph unicode="9" horiz-adv-x="569" d="M47 4l13 64q54 -5 137 -5q109 3 152.5 54.5t72.5 206.5q-41 -45 -82 -64t-95 -20q-105 -1 -142 58.5t-23 169.5q15 125 75.5 179.5t177.5 54.5q134 0 172 -77t7 -275q-18 -114 -41.5 -184t-62 -110t-85.5 -54t-121 -14q-85 0 -155 16zM162 461q-11 -82 11 -117t89 -34 q47 1 85 20.5t88 70.5q19 131 -1.5 178.5t-106.5 47.5q-83 0 -118 -38t-47 -128z" />
<glyph unicode=":" horiz-adv-x="235" d="M35 33l8 56q4 29 34 29h28q33 0 29 -33l-7 -55q-5 -30 -34 -30h-28q-35 0 -30 33zM80 356l9 55q3 29 33 29h29q34 0 28 -33l-7 -55q-4 -30 -33 -30h-29q-34 0 -30 34z" />
<glyph unicode=";" horiz-adv-x="239" d="M31 -118q22 69 32 120q-13 -1 -20 6.5t-5 20.5l8 59q4 18 11.5 24t27.5 6h25q17 0 23.5 -7.5t3.5 -25.5l-8 -64q-10 -71 -56 -154zM81 356l9 55q3 29 33 29h29q34 0 29 -33l-8 -55q-3 -30 -33 -30h-29q-34 0 -30 34z" />
<glyph unicode="&#x3c;" horiz-adv-x="526" d="M47 264l9 68l431 172l-10 -71l-352 -137l313 -138l-9 -66z" />
<glyph unicode="=" horiz-adv-x="586" d="M55 155l9 64h438l-9 -64h-438zM84 367l9 63h438l-9 -63h-438z" />
<glyph unicode="&#x3e;" horiz-adv-x="526" d="M41 93l9 72l352 137l-313 138l10 66l382 -174l-10 -68z" />
<glyph unicode="?" horiz-adv-x="499" d="M88 691q6 1 31.5 5.5t32 5.5t28 4t36.5 3.5t39.5 1.5t52.5 1q99 0 147.5 -39.5t37.5 -118.5q-5 -41 -28.5 -76t-53.5 -61.5t-60.5 -53.5t-55.5 -66.5t-33 -86.5h-72q6 51 28.5 94t51.5 72t57 55t49.5 55.5t25.5 59.5q7 53 -18 73.5t-94 20.5q-89 0 -201 -10zM158 33l8 55 q4 30 34 30h22q34 0 30 -33l-8 -55q-3 -30 -33 -30h-23q-34 0 -30 33z" />
<glyph unicode="@" horiz-adv-x="772" d="M57 229q12 71 31 115t49.5 67.5t66 31.5t91.5 8q84 0 215 -23l-48 -314q-3 -27 5 -38.5t30 -11.5q57 0 80.5 52t43.5 205q7 49 10.5 81t2 61t-4 45t-16 29.5t-25 19t-39.5 9.5t-52 4.5t-69 0.5h-317l7 63q120 6 312 8q70 1 114 -3t80.5 -17t54 -34t27 -60t7 -89 t-12.5 -125q-16 -130 -39.5 -198t-63 -96t-107.5 -28q-109 0 -112 103q-89 -107 -197 -107q-85 0 -115 58.5t-9 182.5zM139 222q-15 -92 -3 -127t63 -35q47 0 90 27t98 86l32 206q-69 3 -95 3q-102 0 -134.5 -28t-50.5 -132z" />
<glyph unicode="A" horiz-adv-x="619" d="M-30 0l316 667q7 23 34 23h92q12 0 20.5 -7.5t9.5 -18.5l129 -664h-88l-37 215h-285l-98 -215h-93zM196 292h236l-48 272q-1 9 -3.5 29t-4.5 30h-30q-29 -66 -85.5 -189.5t-64.5 -141.5z" />
<glyph unicode="B" horiz-adv-x="618" d="M45 0l97 690q80 8 221 8q127 0 175 -39.5t33 -143.5q-11 -75 -43 -112.5t-95 -43.5l-1 -4q138 -12 112 -186q-16 -105 -67.5 -141t-171.5 -36q-170 0 -260 8zM141 68q40 -1 151 -1q86 0 121 25t45 98q11 78 -16 105t-113 29h-152zM187 391h146q77 1 110 26t43 94 q9 69 -17.5 90.5t-109.5 21.5h-140z" />
<glyph unicode="C" horiz-adv-x="566" d="M68 348q28 197 97.5 275.5t217.5 78.5q111 0 188 -21l-14 -66q-88 9 -175 9q-104 0 -152 -58.5t-70 -223.5q-22 -156 7 -215.5t127 -60.5q107 0 197 11l5 -67q-83 -22 -203 -22q-148 0 -200 84.5t-25 275.5z" />
<glyph unicode="D" horiz-adv-x="662" d="M45 0l97 690q122 9 226 9q160 0 214 -79t26 -278q-16 -112 -40 -181t-66 -106.5t-93.5 -50.5t-134.5 -13q-98 0 -229 9zM143 70q90 -2 130 -2q62 0 100 10.5t67.5 42t46.5 85t30 142.5q10 69 10.5 115.5t-7 78.5t-28.5 49.5t-50.5 24.5t-75.5 7t-146 -2z" />
<glyph unicode="E" horiz-adv-x="558" d="M58 137l61 436q8 56 45 87t100 31q206 0 298 -6l-12 -69h-275q-34 0 -50 -16t-21 -52l-21 -150h297l-9 -68h-297l-26 -191q-5 -34 8 -49.5t47 -15.5h270l-2 -69q-88 -6 -279 -6q-75 0 -109 36.5t-25 101.5z" />
<glyph unicode="F" horiz-adv-x="537" d="M43 0l79 569q9 59 46.5 90.5t99.5 31.5q200 0 288 -7l-12 -68h-257q-39 0 -56.5 -14.5t-22.5 -53.5l-23 -161h289l-10 -68h-288l-45 -319h-88z" />
<glyph unicode="G" horiz-adv-x="624" d="M68 348q14 107 40 177t68.5 109t93.5 54t125 15q114 0 198 -22l-13 -65q-84 8 -174 8q-63 0 -102 -11t-69 -43t-47 -86t-28 -142q-17 -154 6 -215.5t101 -61.5q50 0 92 24.5t97 78.5l32 232h85l-57 -400h-63l2 95q-94 -108 -217 -108q-109 0 -150 86.5t-20 274.5z" />
<glyph unicode="H" horiz-adv-x="666" d="M45 0l97 690h89l-40 -284h318l40 284h87l-97 -690h-87l46 330h-318l-46 -330h-89z" />
<glyph unicode="I" horiz-adv-x="261" d="M45 0l97 690h89l-97 -690h-89z" />
<glyph unicode="J" horiz-adv-x="339" d="M-9 4l17 62h47q81 0 92 77l76 547h89l-78 -547q-10 -75 -48.5 -113.5t-101.5 -38.5q-52 0 -93 13z" />
<glyph unicode="K" horiz-adv-x="593" d="M45 0l97 690h88l-31 -217q-6 -40 -16 -78h81l247 295h107l-240 -286q-27 -31 -47 -44v-4q17 -20 33 -50l170 -306h-100l-177 324h-85q0 -45 -5 -75l-34 -249h-88z" />
<glyph unicode="L" horiz-adv-x="509" d="M64 142l75 548h89l-77 -551q-10 -65 55 -65h250l-2 -69q-87 -6 -267 -6q-66 0 -99.5 37t-23.5 106z" />
<glyph unicode="M" horiz-adv-x="876" d="M32 0l119 655q6 35 39 35h97q28 0 33 -32l74 -420q3 -15 13 -94h19q13 33 39 93l187 424q12 28 41 29h98q37 0 34 -39l-63 -651h-88l64 617h-20l-225 -510q-12 -29 -41 -29h-79q-31 0 -37 32l-87 507h-20l-110 -617h-87z" />
<glyph unicode="N" horiz-adv-x="703" d="M45 0l92 657q6 33 37 33h78q25 0 36 -30l168 -476q23 -66 32 -100h19q3 55 10 101l69 505h87l-93 -657q-4 -33 -35 -33h-80q-25 0 -36 30l-173 489q-20 54 -27 89h-17q-1 -41 -8 -91l-71 -517h-88z" />
<glyph unicode="O" horiz-adv-x="666" d="M68 348q27 196 97.5 275.5t221.5 79.5q145 0 199 -82.5t26 -278.5q-27 -199 -97 -277t-218 -78q-146 0 -201 81.5t-28 279.5zM160 342q-22 -157 7.5 -216.5t131.5 -59.5q103 0 151 61t71 221t-6.5 218t-132.5 58q-105 0 -152.5 -60t-69.5 -222z" />
<glyph unicode="P" horiz-adv-x="588" d="M45 0l97 690q85 9 234 9q121 0 166.5 -49.5t28.5 -169.5q-18 -128 -70 -170.5t-174 -42.5q-83 0 -155 10l-39 -277h-88zM181 343h143q82 0 114.5 29.5t45.5 114.5q12 80 -12.5 108t-98.5 28q-113 0 -153 -1z" />
<glyph unicode="Q" horiz-adv-x="666" d="M68 348q27 196 97.5 275.5t221.5 79.5q145 0 199 -82.5t26 -278.5q-27 -199 -97 -277t-218 -78q-146 0 -201 81.5t-28 279.5zM160 342q-22 -157 7.5 -216.5t131.5 -59.5q103 0 151 61t71 221t-6.5 218t-132.5 58q-105 0 -152.5 -60t-69.5 -222zM208 -96l34 52 q109 -54 257 -77l-35 -88q-143 33 -256 113z" />
<glyph unicode="R" horiz-adv-x="618" d="M45 0l97 690q85 9 234 9q114 0 164.5 -45.5t35.5 -157.5q-12 -81 -48 -123t-106 -51l-1 -5q57 -16 73 -101l44 -216h-90l-41 218q-7 38 -25.5 54t-52.5 16l-157 1l-41 -289h-86zM183 364h147q77 1 111.5 29.5t45.5 105.5q10 72 -14 98t-99 26q-115 0 -155 -1z" />
<glyph unicode="S" horiz-adv-x="560" d="M26 7l11 65q168 -6 200 -5q90 0 124.5 20t43.5 89q7 52 -7 72t-62 38l-137 51q-71 26 -96.5 71.5t-15.5 120.5q6 46 20.5 77.5t34 50.5t50.5 29t62 13t77 3q124 -2 204 -20l-9 -64q-113 5 -197 5q-34 0 -50.5 -0.5t-38.5 -5.5t-32 -15.5t-19.5 -30.5t-13.5 -51 q-7 -50 7 -70.5t62 -38.5l135 -50q76 -28 100.5 -71.5t13.5 -122.5q-15 -108 -71.5 -143.5t-185.5 -35.5q-107 0 -210 19z" />
<glyph unicode="T" d="M65 612l11 78h532l-10 -78h-223l-86 -612h-88l86 612h-222z" />
<glyph unicode="U" horiz-adv-x="664" d="M78 267l58 423h89l-60 -427q-16 -111 13 -154t118 -43q92 0 136 45t60 156l58 423h89l-60 -427q-22 -150 -86 -213t-195 -63q-135 0 -188 65.5t-32 214.5z" />
<glyph unicode="V" horiz-adv-x="605" d="M69 690h89l87 -548q8 -49 10 -76h26q17 47 31 79l240 545h93l-305 -667q-9 -23 -34 -23h-88q-26 0 -30 27z" />
<glyph unicode="W" horiz-adv-x="943" d="M83 690h90l32 -539q0 -5 3 -86h24q39 119 115.5 337.5t90.5 259.5q8 28 36 28h95q12 0 20.5 -9t9.5 -22l41 -509q4 -56 4 -85h25q39 124 116 351.5t92 273.5h92l-235 -666q-8 -24 -36 -24h-98q-13 0 -22 8t-10 21l-36 519q0 3 -2.5 32t-3.5 44h-21q-40 -117 -115 -335.5 t-91 -263.5q-8 -25 -36 -25h-97q-13 0 -22.5 8t-10.5 20z" />
<glyph unicode="X" horiz-adv-x="609" d="M-18 0l246 357l-134 333h90l116 -298h28l205 298h97l-230 -333l145 -357h-90l-127 324h-27l-217 -324h-102z" />
<glyph unicode="Y" horiz-adv-x="565" d="M64 690h90l104 -293q15 -45 20 -78h8q15 40 41 81l186 290h96l-292 -449l-34 -241h-89l35 245z" />
<glyph unicode="Z" horiz-adv-x="562" d="M6 0l10 75l442 540h-361l11 75h459l-11 -75l-443 -540h374l-11 -75h-470z" />
<glyph unicode="[" horiz-adv-x="325" d="M33 -110l116 826q3 24 19 38t40 14h144l-8 -56h-98q-7 0 -13 -5.5t-7 -12.5l-111 -789q-2 -14 10 -14h104l-8 -56h-140q-25 0 -38.5 14t-9.5 41z" />
<glyph unicode="\" horiz-adv-x="508" d="M79 690h67l289 -756h-67z" />
<glyph unicode="]" horiz-adv-x="325" d="M-25 -165l7 56h98q17 0 21 18l111 789q2 14 -11 14h-103l8 56h139q24 0 38.5 -16t10.5 -39l-116 -826q-3 -23 -19.5 -37.5t-39.5 -14.5h-144z" />
<glyph unicode="^" horiz-adv-x="426" d="M50 390l182 211h62l123 -212l-37 -21l-117 174h-8l-171 -174z" />
<glyph unicode="_" horiz-adv-x="581" d="M23 -65l9 65h438l-10 -65h-437z" />
<glyph unicode="`" horiz-adv-x="314" d="M79 663l46 60l170 -147l-31 -38z" />
<glyph unicode="a" d="M51 249q11 81 30.5 131.5t51.5 76t68 34t93 8.5q109 0 229 -23l-67 -476h-67l6 98q-94 -110 -217 -110q-88 0 -118 58.5t-9 202.5zM136 242q-15 -110 -3.5 -145t62.5 -35q87 0 199 109l36 254q-72 3 -110 3q-101 0 -133.5 -32.5t-50.5 -153.5z" />
<glyph unicode="b" d="M37 23l95 677h84l-27 -202q-11 -75 -26 -119q49 51 107.5 85.5t109.5 34.5q87 0 117.5 -56t10.5 -205q-11 -81 -30.5 -132t-51 -76.5t-65 -34t-86.5 -8.5q-120 0 -238 36zM127 63q64 -5 117 -5q98 0 129.5 33t47.5 153q15 112 2.5 146.5t-63.5 34.5q-74 0 -198 -110z" />
<glyph unicode="c" horiz-adv-x="484" d="M46 247q20 139 78.5 195.5t183.5 56.5q96 0 156 -24l-14 -53q-54 5 -128 5q-92 0 -132.5 -38t-54.5 -149q-14 -110 12.5 -145t113.5 -35q83 0 146 10l6 -58q-77 -24 -167 -24q-128 0 -174 59.5t-26 199.5z" />
<glyph unicode="d" horiz-adv-x="572" d="M50 249q12 80 31 130.5t50.5 76.5t66 34.5t87.5 8.5q69 0 158 -12q2 49 8 93l17 120h85l-98 -700h-67l7 106q-108 -118 -227 -118q-77 0 -107.5 60t-10.5 201zM136 242q-15 -105 -4 -142.5t60 -37.5q47 0 94 26.5t109 85.5l34 253q-96 2 -112 2q-53 0 -81 -5.5t-49.5 -27 t-31.5 -56t-19 -98.5z" />
<glyph unicode="e" horiz-adv-x="537" d="M48 255q20 142 77.5 193t188.5 51q111 0 152.5 -38.5t28.5 -117.5q-12 -69 -54.5 -99t-130.5 -37l-180 -16q-2 -77 29 -104t101 -27q86 0 179 12l6 -57q-69 -27 -199 -27q-125 0 -171 64t-27 203zM136 254l173 17q50 4 72.5 20.5t29.5 58.5q8 51 -16 64.5t-92 13.5 q-82 0 -116 -33.5t-51 -140.5z" />
<glyph unicode="f" horiz-adv-x="377" d="M-120 -194l13 64h76q48 0 69.5 17t28.5 66l65 467h-87l8 62l89 4l12 90q20 141 158 141q85 0 138 -7l-13 -63h-98q-49 0 -71.5 -17.5t-29.5 -66.5l-11 -76h156l-10 -67h-155l-68 -480q-19 -141 -154 -141q-52 0 -116 7z" />
<glyph unicode="g" horiz-adv-x="575" d="M15 -195l9 57q70 -3 158 -1q166 5 190 131q20 95 40 126q-44 -58 -106 -94t-130 -36q-82 0 -114 58.5t-10 202.5q12 81 31.5 131.5t50.5 76t65 34t87 8.5q116 0 238 -23h2l-68 -467q-26 -214 -277 -220q-96 -4 -166 16zM138 242q-16 -109 -4.5 -144.5t62.5 -35.5 q86 0 199 110l38 253q-73 3 -115 3q-98 0 -130.5 -32.5t-49.5 -153.5z" />
<glyph unicode="h" horiz-adv-x="578" d="M35 0l99 700h85l-27 -196q-8 -65 -23 -120q132 115 231 115q62 0 93 -34.5t22 -100.5l-52 -364h-85l49 343q6 47 -6 65.5t-47 18.5q-44 0 -90 -26t-120 -85l-44 -316h-85z" />
<glyph unicode="i" horiz-adv-x="246" d="M40 0l68 487h84l-68 -487h-84zM122 613l8 56q3 25 27 25h40q13 0 19.5 -8t4.5 -20l-7 -57q-4 -24 -28 -24h-39q-28 0 -25 28z" />
<glyph unicode="j" horiz-adv-x="246" d="M-41 -165q67 70 79 155l70 497h84l-70 -501q-7 -58 -38.5 -107.5t-78.5 -82.5zM122 613l8 56q3 25 27 25h40q13 0 19.5 -8t4.5 -20l-7 -57q-4 -24 -28 -24h-39q-28 0 -25 28z" />
<glyph unicode="k" horiz-adv-x="521" d="M36 0l98 700h85l-45 -338q-9 -59 -30 -116q99 44 171 106t95 135h87q-43 -132 -165 -217q15 -25 29 -56l96 -214h-91l-99 230q-50 -27 -121 -56l-26 -174h-84z" />
<glyph unicode="l" horiz-adv-x="293" d="M53 117l82 583h85l-80 -568q-5 -34 7.5 -48.5t47.5 -14.5h49l3 -66q-29 -12 -88 -12q-57 0 -85.5 33.5t-20.5 92.5z" />
<glyph unicode="m" horiz-adv-x="872" d="M35 0l69 487h65l-6 -106q118 118 213 118q57 0 87 -29.5t28 -81.5q112 111 204 111q64 0 93.5 -36t20.5 -99l-51 -364h-84l48 343q6 46 -8.5 65t-50.5 19t-73.5 -23.5t-107.5 -87.5l-44 -316h-82l48 343q6 45 -7 64.5t-52 19.5q-37 0 -74 -23.5t-107 -85.5l-44 -318h-85z " />
<glyph unicode="n" horiz-adv-x="578" d="M35 0l69 487h68l-7 -107q134 119 235 119q62 0 93 -34.5t22 -100.5l-52 -364h-85l49 343q6 47 -6 65.5t-47 18.5q-44 0 -90.5 -26t-119.5 -84l-44 -317h-85z" />
<glyph unicode="o" horiz-adv-x="564" d="M46 246q20 138 78.5 195.5t182.5 57.5t170.5 -60t26.5 -200q-19 -138 -78 -195t-181 -57q-123 0 -170.5 60t-28.5 199zM135 239q-15 -104 8.5 -142t101.5 -38q82 0 119.5 40t52.5 147q15 105 -8.5 143t-101.5 38q-82 0 -119.5 -39t-52.5 -149z" />
<glyph unicode="p" horiz-adv-x="575" d="M6 -203l99 690h67l-7 -108q47 50 108 85t111 35q88 0 117 -56.5t8 -204.5q-11 -81 -30.5 -131.5t-51 -76.5t-66.5 -34.5t-90 -8.5q-69 0 -154 13q-2 -49 -8 -93l-17 -110h-86zM130 60q74 -3 110 -3q101 0 133.5 32.5t49.5 154.5q15 111 3.5 146t-61.5 35 q-36 0 -90.5 -29.5t-109.5 -81.5z" />
<glyph unicode="q" horiz-adv-x="570" d="M50 249q11 80 30.5 131t50 76.5t63.5 34t84 8.5q123 0 242 -34l-95 -668h-85l28 191q11 71 30 122q-106 -122 -226 -122q-78 0 -110 58t-12 203zM136 242q-15 -107 -3 -143.5t63 -36.5q48 0 90.5 25t108.5 86l34 251q-63 5 -118 5q-95 0 -127 -33t-48 -154z" />
<glyph unicode="r" horiz-adv-x="398" d="M35 0l69 487h65l-7 -113q127 125 224 125h25l-21 -80h-25q-40 0 -84 -24t-117 -80l-44 -315h-85z" />
<glyph unicode="s" horiz-adv-x="506" d="M21 3l10 62q60 -5 156 -5q93 1 126 12t39 45q3 18 -4 30t-16 17.5t-32 15.5q-7 3 -11 5l-136 60q-54 25 -76.5 56t-16.5 83q9 68 57 92.5t147 22.5q111 -2 205 -15l-11 -61q-123 4 -192 5q-70 0 -94.5 -8t-28.5 -42q-4 -28 9 -41t50 -30l136 -60q60 -26 82 -55t15 -83 q-4 -32 -17 -54t-30.5 -35t-47 -20t-59 -9t-74.5 -2q-34 0 -60.5 1.5t-39.5 2.5t-41.5 4.5t-44.5 5.5z" />
<glyph unicode="t" horiz-adv-x="377" d="M42 420l8 62l91 4l20 145h84l-20 -144h155l-10 -67h-155l-40 -288q-5 -35 7 -49t47 -14h76l3 -65q-46 -13 -109 -13t-91 35t-19 98l42 296h-89z" />
<glyph unicode="u" horiz-adv-x="567" d="M50 123l51 364h85l-49 -343q-7 -45 6.5 -64t51.5 -19q43 0 85 26t110 87l43 313h85l-68 -487h-66l7 106q-122 -119 -225 -119q-66 0 -96 36t-20 100z" />
<glyph unicode="v" horiz-adv-x="531" d="M45 487h89l74 -420h16q19 0 30.5 6t24.5 23q34 46 75 143q51 112 75 248h88q-29 -141 -93 -283q-44 -98 -85 -153q-20 -27 -40.5 -39t-55.5 -12h-75q-23 0 -28 23z" />
<glyph unicode="w" horiz-adv-x="850" d="M45 487h88l69 -420h13q27 0 47 35q30 53 55 137q28 85 52 227q3 21 24 21h93q20 0 22 -20l49 -400h12q22 0 41 31q44 69 71 141q41 104 65 248h89q-37 -165 -89 -283q-47 -107 -86 -156q-20 -25 -39 -36.5t-47 -11.5h-56q-23 0 -27 23l-46 408h-13q-9 -89 -42 -199 t-71 -169q-36 -63 -107 -63h-50q-22 0 -27 23z" />
<glyph unicode="x" horiz-adv-x="526" d="M-19 0l199 252l-117 235h85l96 -201h28l156 201h92l-184 -236l127 -251h-86l-108 220h-23l-170 -220h-95z" />
<glyph unicode="y" horiz-adv-x="539" d="M35 -145q61 14 109.5 47t94.5 98h-44q-22 0 -37 12.5t-20 32.5l-94 442h89l77 -401q5 -19 23 -19h48l9.5 19t10.5 20q94 184 134 381h88q-53 -235 -148 -406q-77 -143 -150.5 -206t-173.5 -81z" />
<glyph unicode="z" horiz-adv-x="504" d="M6 0l9 69l358 348h-304l9 70h403l-9 -70l-358 -348h312l-10 -69h-410z" />
<glyph unicode="{" horiz-adv-x="318" d="M45 298l8 62q25 7 32 10t18 11.5t15 21t7 36.5l28 198q9 73 52.5 105.5t134.5 25.5l-3 -54q-51 0 -75 -20.5t-30 -66.5l-25 -179q-8 -62 -28.5 -86.5t-76.5 -34.5q51 -17 66.5 -42t8.5 -77l-33 -236q-7 -47 9 -65t67 -18l-3 -54q-88 -7 -126.5 28t-27.5 106l36 256 q5 35 -5 46.5t-43 24.5q-4 1 -6 2z" />
<glyph unicode="|" horiz-adv-x="245" d="M26 -169l133 950h63l-133 -950h-63z" />
<glyph unicode="}" horiz-adv-x="319" d="M-24 -165l3 54q51 0 74.5 20t29.5 66l34 237q8 53 29 76t80 41q-50 10 -65.5 35.5t-6.5 87.5l26 179q6 46 -9.5 64.5t-67.5 18.5l4 54q89 7 126 -29t28 -105l-28 -199q-6 -45 2 -55t48 -22l-8 -62q-24 -9 -31.5 -12t-20 -11.5t-17 -20t-7.5 -31.5l-35 -255 q-10 -73 -52.5 -105.5t-135.5 -25.5z" />
<glyph unicode="~" horiz-adv-x="522" d="M66 230q1 59 26.5 89.5t62.5 28.5q39 -2 105 -29t93 -30t40 10t18 45l43 -3q-1 -58 -25.5 -88t-62.5 -28q-45 2 -110.5 29.5t-88.5 29.5q-27 3 -40 -11t-17 -47z" />
<glyph unicode="&#xa1;" horiz-adv-x="255" d="M17 -196l42 300l34 178h67l-17 -178l-42 -300h-84zM102 408l7 55q4 30 34 30h23q34 0 28 -33l-7 -55q-5 -30 -34 -30h-22q-35 0 -29 33z" />
<glyph unicode="&#xa2;" horiz-adv-x="505" d="M61 351q20 139 78.5 195.5t183.5 56.5h11l20 87h42l-21 -89q62 -5 103 -22l-13 -53q-58 5 -107 5l-81 -367q76 0 145 11l6 -59q-76 -24 -168 -24h-2l-21 -92h-42l22 94q-102 9 -138 69t-18 188zM150 345q-13 -97 5.5 -135t79.5 -44l81 365q-80 -3 -116.5 -42t-49.5 -144z " />
<glyph unicode="&#xa3;" horiz-adv-x="568" d="M19 0l10 76q96 45 108 188l6 74h-79l7 52h76l11 133q10 109 59.5 144t151.5 35q80 0 180 -10l-10 -70q-104 4 -173 4q-62 0 -90 -23.5t-33 -84.5l-10 -128h213l-10 -52h-207l-6 -76q-6 -70 -28.5 -114t-70.5 -77q21 4 65 4h299l-10 -75h-459z" />
<glyph unicode="&#xa4;" horiz-adv-x="596" d="M52 167l78 69q-21 37 -21.5 85t15 89.5t39.5 69.5l-68 77l40 37l68 -79q53 34 123 34q72 0 119 -38l78 70l35 -42l-78 -68q31 -51 22 -122q-9 -73 -52 -122l69 -77l-39 -36l-69 78q-53 -36 -126 -36q-72 0 -120 39l-77 -69zM161 349q-7 -65 26.5 -104t96.5 -40 q68 -1 113.5 40t52.5 111q7 65 -27 104.5t-99 39.5q-68 0 -111.5 -41t-51.5 -110z" />
<glyph unicode="&#xa5;" horiz-adv-x="615" d="M68 159l6 51h175l6 43l-7 18h-164l6 52h138l-139 367h89l105 -285q15 -45 20 -78h9q13 37 42 81l184 282h96l-243 -367h139l-7 -52h-166l-15 -22l-5 -39h178l-8 -51h-177l-23 -159h-88l23 159h-174z" />
<glyph unicode="&#xa6;" horiz-adv-x="245" d="M26 -169l56 400h63l-56 -400h-63zM103 381l57 400h62l-56 -400h-63z" />
<glyph unicode="&#xa7;" horiz-adv-x="544" d="M8 -150l11 67q93 -6 187 -7q35 0 54.5 1.5t41 7.5t32 19.5t13.5 35.5q5 33 -8 53t-41 37l-150 91q-66 38 -77.5 94t20.5 137h62q-16 -63 -8 -101t51 -64l160 -99q47 -30 68 -64.5t13 -92.5q-12 -79 -61 -103t-150 -24q-123 2 -218 12zM102 578q10 75 59 100t150 25 q130 -2 220 -12l-11 -66q-52 4 -186 5q-75 1 -106 -10t-37 -51q-5 -32 8 -52t42 -38l152 -93q64 -39 75 -96t-20 -138h-62q16 63 7 104t-51 67l-159 99q-48 30 -68.5 64.5t-12.5 91.5z" />
<glyph unicode="&#xa8;" horiz-adv-x="411" d="M136 614l8 56q4 24 28 24h26q26 0 22 -24l-8 -55q-3 -24 -27 -24h-28q-24 0 -21 23zM305 614l8 56q5 24 28 24h26q27 0 22 -24l-8 -55q-3 -24 -27 -24h-28q-24 0 -21 23z" />
<glyph unicode="&#xa9;" horiz-adv-x="834" d="M66 348q19 155 127.5 255t270.5 100q159 0 249.5 -100.5t69.5 -260.5q-20 -156 -129 -255.5t-271 -99.5q-161 0 -249 102t-68 259zM112 342q-17 -140 59 -225.5t211 -85.5q142 0 240 89t115 228q17 136 -58 223.5t-212 87.5q-143 0 -240 -89t-115 -228zM235 351 q17 123 67.5 170t162.5 47q64 0 126 -14l-10 -48q-56 4 -110 4q-87 0 -121.5 -32t-48.5 -134q-13 -91 8.5 -125t91.5 -34q93 0 143 6l4 -49q-64 -15 -137 -15q-116 0 -154.5 49t-21.5 175z" />
<glyph unicode="&#xaa;" horiz-adv-x="446" d="M79 439q7 55 22 90t38.5 51.5t47 21.5t60.5 5q85 0 165 -17l-44 -319h-53l2 58q-60 -65 -141 -65q-61 0 -85.5 39t-11.5 136zM145 435q-10 -70 -0.5 -91.5t44.5 -21.5q54 0 131 66l23 164l-74 1q-68 0 -90.5 -20t-33.5 -98z" />
<glyph unicode="&#xab;" horiz-adv-x="477" d="M37 246l1 19l187 194l35 -32l-153 -177l109 -182l-43 -29zM218 246l2 19l186 194l35 -32l-153 -177l109 -182l-42 -29z" />
<glyph unicode="&#xac;" horiz-adv-x="587" d="M68 265l9 65h438l-28 -197h-65l19 132h-373z" />
<glyph unicode="&#xad;" horiz-adv-x="447" d="M60 220l9 65h305l-9 -65h-305z" />
<glyph unicode="&#xae;" horiz-adv-x="554" d="M81 485q11 100 77 158.5t165 58.5q98 0 155.5 -60t46.5 -166q-11 -101 -75.5 -160t-163.5 -59q-103 0 -159.5 63t-45.5 165zM111 481q-10 -93 38.5 -145t136.5 -52q89 0 145 54.5t64 144.5q9 91 -38.5 141t-134.5 50q-91 0 -146.5 -53t-64.5 -140zM184 352l37 258 q36 3 107 3q51 0 75.5 -15t18.5 -63q-3 -29 -16.5 -43t-44.5 -21v-2q17 -8 25 -38l21 -79h-42l-19 80q-7 26 -35 26l-72 1l-15 -107h-40zM243 488h66q38 1 53.5 10t19.5 40q4 27 -8 35.5t-47 8.5l-71 -1z" />
<glyph unicode="&#xaf;" horiz-adv-x="400" d="M112 609l8 63h279l-8 -63h-279z" />
<glyph unicode="&#xb0;" horiz-adv-x="363" d="M92 580q4 55 43 89t95 34q59 0 92 -37.5t28 -93.5t-44 -90t-95 -34q-60 0 -92 38.5t-27 93.5zM145 577q-3 -35 16 -56.5t53 -21.5t56.5 21t25.5 55t-15.5 55.5t-53.5 21.5q-33 0 -55.5 -20.5t-26.5 -54.5z" />
<glyph unicode="&#xb1;" horiz-adv-x="585" d="M42 70l9 63h438l-9 -63h-438zM78 327l9 64h186l19 133h66l-19 -133h186l-9 -64h-186l-19 -134h-65l19 134h-187z" />
<glyph unicode="&#xb2;" horiz-adv-x="410" d="M70 360l5 43q4 21 11 27l139 125q94 83 99 132q2 23 -13 29.5t-54 6.5q-66 0 -129 -9v52q70 15 136 15q65 0 99 -20.5t27 -73.5q-5 -38 -25 -69t-69 -76l-136 -122q27 4 66 4h142l-9 -64h-289z" />
<glyph unicode="&#xb3;" horiz-adv-x="394" d="M69 363l8 52q106 -5 116 -4q95 7 106 74q6 32 -9.5 49t-59.5 18h-82l7 51h79q45 0 62 18t21 51q4 31 -10.5 41.5t-66.5 10.5q-56 0 -109 -5l-1 52q74 11 125 11q71 0 100.5 -25t24.5 -74q-4 -38 -22.5 -70.5t-53.5 -35.5l-1 -2q75 -12 62 -102q-18 -116 -168 -121 q-52 -1 -128 11z" />
<glyph unicode="&#xb4;" horiz-adv-x="314" d="M101 577l192 147l41 -66l-207 -120z" />
<glyph unicode="&#xb6;" horiz-adv-x="590" d="M60 458q19 137 94 190.5t239 53.5q92 0 157 -17l-96 -685h-66l91 642q-47 4 -98 4l-120 -856h-65l58 411q-119 12 -165 74t-29 183z" />
<glyph unicode="&#xb7;" horiz-adv-x="233" d="M62 232l8 55q4 30 34 30h28q33 0 29 -34l-7 -54q-4 -30 -34 -30h-28q-34 0 -30 33z" />
<glyph unicode="&#xb8;" horiz-adv-x="234" d="M-31 -229l16 45q40 -1 69.5 19.5t35.5 53.5q3 17 -7 22t-46 6l10 40q62 6 87 -9t17 -60q-10 -61 -60.5 -94t-121.5 -23z" />
<glyph unicode="&#xb9;" horiz-adv-x="286" d="M94 732l118 42h66l-58 -414h-66l45 314q3 24 8 40l-112 -31z" />
<glyph unicode="&#xba;" horiz-adv-x="441" d="M77 439q13 93 53 130.5t128 37.5q91 0 124 -40t19 -135q-13 -93 -53.5 -130.5t-127.5 -37.5q-89 0 -122.5 40.5t-20.5 134.5zM143 432q-9 -67 7 -90.5t71 -23.5t79.5 26t34.5 95q10 67 -6.5 91t-70.5 24q-58 0 -81 -25.5t-34 -96.5z" />
<glyph unicode="&#xbb;" horiz-adv-x="478" d="M24 68l153 177l-109 183l42 28l137 -206l-2 -20l-186 -193zM205 68l153 177l-109 183l43 28l136 -206l-1 -20l-187 -193z" />
<glyph unicode="&#xbc;" horiz-adv-x="858" d="M85 647l122 43h67l-58 -414h-67l44 317q4 24 8 39l-115 -31zM91 0l545 690h62l-544 -690h-63zM453 164l162 250h66l-156 -244q-6 -8 -3 -14t14 -6h150l16 117l21 68h52l-26 -185h52l-7 -47l-52 -5l-14 -98h-62l13 97h-193q-27 0 -38.5 18.5t5.5 48.5z" />
<glyph unicode="&#xbd;" horiz-adv-x="878" d="M85 0l544 690h62l-544 -690h-62zM85 647l122 43h66l-58 -414h-67l45 317q4 24 8 39l-115 -31zM480 0l6 39q2 19 12 29l146 124q94 79 104 132q4 26 -12.5 33t-58.5 7q-69 0 -136 -8l-2 50q71 15 140 15q82 0 116 -20t25 -78q-9 -64 -100 -142l-149 -123q32 3 70 1h160 l-9 -59h-312z" />
<glyph unicode="&#xbe;" horiz-adv-x="952" d="M55 277l5 50q59 -5 126 -5q56 0 82 18t32 61q4 31 -10.5 47.5t-65.5 16.5h-87l6 50h84q82 1 91 72q5 32 -11 42.5t-68 10.5q-79 0 -122 -4l-2 49q67 10 131 10q85 0 115.5 -22t22.5 -77q-6 -44 -25 -69.5t-61 -31.5l-6 -3q46 -7 62.5 -33t11.5 -74q-8 -63 -44.5 -91 t-117.5 -28q-65 0 -149 11zM194 0l545 690h62l-544 -690h-63zM546 164l162 250h66l-156 -244q-6 -8 -3 -14t14 -6h147l17 117l21 68h52l-26 -185h54l-7 -47l-55 -5l-13 -98h-63l13 97h-190q-27 0 -38.5 18.5t5.5 48.5z" />
<glyph unicode="&#xbf;" horiz-adv-x="494" d="M-11 -54q5 41 28.5 76t54 61.5t61 54t55.5 66t33 83.5h71q-6 -51 -28.5 -93.5t-51 -71.5t-56 -54.5t-49.5 -54.5t-27 -60q-8 -48 18.5 -70.5t93.5 -22.5q110 0 201 9l1 -61q-6 -1 -31.5 -5.5t-32 -5.5t-28 -4t-36.5 -3.5t-39.5 -1.5t-52.5 -1q-100 0 -147 43t-38 116z M232 414l8 56q3 29 33 29h22q34 0 30 -33l-8 -55q-4 -30 -34 -30h-21q-34 0 -30 33z" />
<glyph unicode="&#xc0;" horiz-adv-x="619" d="M-30 0l316 667q7 23 34 23h92q12 0 20.5 -7.5t9.5 -18.5l129 -664h-88l-37 215h-285l-98 -215h-93zM196 292h236l-48 272q-1 9 -3.5 29t-4.5 30h-30q-29 -66 -85.5 -189.5t-64.5 -141.5zM212 853l46 60l169 -147l-30 -38z" />
<glyph unicode="&#xc1;" horiz-adv-x="619" d="M-30 0l316 667q7 23 34 23h92q12 0 20.5 -7.5t9.5 -18.5l129 -664h-88l-37 215h-285l-98 -215h-93zM196 292h236l-48 272q-1 9 -3.5 29t-4.5 30h-30q-29 -66 -85.5 -189.5t-64.5 -141.5zM313 768l192 146l41 -65l-206 -121z" />
<glyph unicode="&#xc2;" horiz-adv-x="619" d="M-30 0l316 667q7 23 34 23h92q12 0 20.5 -7.5t9.5 -18.5l129 -664h-88l-37 215h-285l-98 -215h-93zM196 292h236l-48 272q-1 9 -3.5 29t-4.5 30h-30q-29 -66 -85.5 -189.5t-64.5 -141.5zM217 769l148 127h61l123 -132l-31 -34l-120 101h-8l-149 -99z" />
<glyph unicode="&#xc3;" horiz-adv-x="619" d="M-30 0l316 667q7 23 34 23h92q12 0 20.5 -7.5t9.5 -18.5l129 -664h-88l-37 215h-285l-98 -215h-93zM196 292h236l-48 272q-1 9 -3.5 29t-4.5 30h-30q-29 -66 -85.5 -189.5t-64.5 -141.5zM221 767q3 58 28 87t62 26q33 -3 75 -28t66 -28q29 -3 43 10t18 43l40 -4 q-2 -55 -26.5 -84t-62.5 -26q-19 1 -37 7t-31 13.5t-24.5 15t-25 13.5t-25.5 8q-19 2 -31.5 -4t-19 -18.5t-9.5 -33.5z" />
<glyph unicode="&#xc4;" horiz-adv-x="619" d="M-30 0l316 667q7 23 34 23h92q12 0 20.5 -7.5t9.5 -18.5l129 -664h-88l-37 215h-285l-98 -215h-93zM196 292h236l-48 272q-1 9 -3.5 29t-4.5 30h-30q-29 -66 -85.5 -189.5t-64.5 -141.5zM260 790l9 55q3 25 28 25h26q14 0 19 -6t3 -19l-9 -54q-3 -24 -26 -24h-28 q-25 0 -22 23zM429 790l9 55q3 25 28 25h26q14 0 19 -6t3 -19l-9 -54q-3 -24 -26 -24h-28q-25 0 -22 23z" />
<glyph unicode="&#xc5;" horiz-adv-x="619" d="M-30 0l316 667q7 23 34 23h92q12 0 20.5 -7.5t9.5 -18.5l129 -664h-88l-37 215h-285l-98 -215h-93zM196 292h236l-48 272q-1 9 -3.5 29t-4.5 30h-30q-29 -66 -85.5 -189.5t-64.5 -141.5zM281 823q5 43 35 72t77 29q48 0 77 -30.5t24 -77.5q-4 -28 -18 -50.5t-39 -36.5 t-56 -14q-32 0 -56 14t-35.5 38.5t-8.5 55.5zM328 819q-3 -28 12.5 -44.5t41.5 -16.5q27 0 44.5 18t19.5 45q3 26 -11.5 43t-41.5 17t-44.5 -17.5t-20.5 -44.5z" />
<glyph unicode="&#xc6;" horiz-adv-x="912" d="M-42 0l424 583q45 64 95 86t142 22q191 0 297 -6l-12 -69h-255q-67 0 -77 -69l-20 -149h283l-9 -69h-284l-26 -190q-5 -34 8 -49.5t47 -15.5h258l-4 -69q-90 -6 -270 -6q-65 0 -98.5 37t-23.5 101l12 87h-232l-161 -224h-94zM268 300h187l37 260q2 21 13.5 41t26.5 29h-5 q-34 -18 -67 -65z" />
<glyph unicode="&#xc7;" horiz-adv-x="566" d="M68 348q28 197 97.5 275.5t217.5 78.5q111 0 188 -21l-14 -66q-88 9 -175 9q-104 0 -152 -58.5t-70 -223.5q-22 -156 7 -215.5t127 -60.5q107 0 197 11l5 -67q-83 -22 -203 -22q-148 0 -200 84.5t-25 275.5zM150 -241l16 45q40 -1 70 19.5t36 53.5q2 17 -8 22t-46 6 l10 40q62 6 87.5 -9t17.5 -60q-11 -62 -61.5 -94.5t-121.5 -22.5z" />
<glyph unicode="&#xc8;" horiz-adv-x="558" d="M58 137l61 436q8 56 45 87t100 31q206 0 298 -6l-12 -69h-275q-34 0 -50 -16t-21 -52l-21 -150h297l-9 -68h-297l-26 -191q-5 -34 8 -49.5t47 -15.5h270l-2 -69q-88 -6 -279 -6q-75 0 -109 36.5t-25 101.5zM208 874l47 60l169 -147l-31 -38z" />
<glyph unicode="&#xc9;" horiz-adv-x="558" d="M58 137l61 436q8 56 45 87t100 31q206 0 298 -6l-12 -69h-275q-34 0 -50 -16t-21 -52l-21 -150h297l-9 -68h-297l-26 -191q-5 -34 8 -49.5t47 -15.5h270l-2 -69q-88 -6 -279 -6q-75 0 -109 36.5t-25 101.5zM310 788l192 147l41 -66l-206 -120z" />
<glyph unicode="&#xca;" horiz-adv-x="558" d="M58 137l61 436q8 56 45 87t100 31q206 0 298 -6l-12 -69h-275q-34 0 -50 -16t-21 -52l-21 -150h297l-9 -68h-297l-26 -191q-5 -34 8 -49.5t47 -15.5h270l-2 -69q-88 -6 -279 -6q-75 0 -109 36.5t-25 101.5zM214 789l148 128h60l124 -133l-31 -34l-120 102h-8l-149 -100z " />
<glyph unicode="&#xcb;" horiz-adv-x="558" d="M58 137l61 436q8 56 45 87t100 31q206 0 298 -6l-12 -69h-275q-34 0 -50 -16t-21 -52l-21 -150h297l-9 -68h-297l-26 -191q-5 -34 8 -49.5t47 -15.5h270l-2 -69q-88 -6 -279 -6q-75 0 -109 36.5t-25 101.5zM257 811l9 55q3 24 28 24h25q15 0 20 -5.5t3 -18.5l-9 -54 q-3 -24 -26 -24h-28q-25 0 -22 23zM426 811l9 55q3 24 28 24h25q15 0 20 -5.5t3 -18.5l-9 -54q-3 -24 -26 -24h-28q-25 0 -22 23z" />
<glyph unicode="&#xcc;" horiz-adv-x="261" d="M29 853l47 60l169 -147l-31 -38zM45 0l97 690h89l-97 -690h-89z" />
<glyph unicode="&#xcd;" horiz-adv-x="261" d="M45 0l97 690h89l-97 -690h-89zM131 768l191 146l41 -65l-206 -121z" />
<glyph unicode="&#xce;" horiz-adv-x="261" d="M34 769l149 127h60l124 -132l-32 -34l-119 101h-8l-149 -99zM45 0l97 690h89l-97 -690h-89z" />
<glyph unicode="&#xcf;" horiz-adv-x="261" d="M45 0l97 690h89l-97 -690h-89zM77 790l9 55q4 25 28 25h26q14 0 19 -6t3 -19l-9 -54q-1 -24 -26 -24h-28q-23 0 -22 23zM246 790l9 55q4 25 28 25h26q14 0 19 -6t3 -19l-9 -54q-1 -24 -26 -24h-28q-23 0 -22 23z" />
<glyph unicode="&#xd0;" horiz-adv-x="662" d="M27 342l7 49h66l42 299q122 9 226 9q160 0 214 -79t26 -278q-16 -112 -40 -181t-66 -106.5t-93.5 -50.5t-134.5 -13q-98 0 -229 9l48 342h-66zM143 70q90 -2 130 -2q62 0 100 10.5t67.5 42t46.5 85t30 142.5q10 69 10.5 115.5t-7 78.5t-28.5 49.5t-50.5 24.5t-75.5 7 t-146 -2l-32 -230h154l-6 -49h-155z" />
<glyph unicode="&#xd1;" horiz-adv-x="703" d="M45 0l92 657q6 33 37 33h78q25 0 36 -30l168 -476q23 -66 32 -100h19q3 55 10 101l69 505h87l-93 -657q-4 -33 -35 -33h-80q-25 0 -36 30l-173 489q-20 54 -27 89h-17q-1 -41 -8 -91l-71 -517h-88zM267 767q3 58 28 87t62 26q33 -3 74.5 -28t66.5 -28q29 -3 43 10t18 43 l39 -4q-1 -55 -25.5 -84t-62.5 -26q-39 3 -82 28.5t-61 28.5q-28 3 -42 -11t-18 -45z" />
<glyph unicode="&#xd2;" horiz-adv-x="666" d="M68 348q27 196 97.5 275.5t221.5 79.5q145 0 199 -82.5t26 -278.5q-27 -199 -97 -277t-218 -78q-146 0 -201 81.5t-28 279.5zM160 342q-22 -157 7.5 -216.5t131.5 -59.5q103 0 151 61t71 221t-6.5 218t-132.5 58q-105 0 -152.5 -60t-69.5 -222zM232 853l47 60l169 -147 l-31 -38z" />
<glyph unicode="&#xd3;" horiz-adv-x="666" d="M68 348q27 196 97.5 275.5t221.5 79.5q145 0 199 -82.5t26 -278.5q-27 -199 -97 -277t-218 -78q-146 0 -201 81.5t-28 279.5zM160 342q-22 -157 7.5 -216.5t131.5 -59.5q103 0 151 61t71 221t-6.5 218t-132.5 58q-105 0 -152.5 -60t-69.5 -222zM334 768l192 146l41 -65 l-206 -121z" />
<glyph unicode="&#xd4;" horiz-adv-x="666" d="M68 348q27 196 97.5 275.5t221.5 79.5q145 0 199 -82.5t26 -278.5q-27 -199 -97 -277t-218 -78q-146 0 -201 81.5t-28 279.5zM160 342q-22 -157 7.5 -216.5t131.5 -59.5q103 0 151 61t71 221t-6.5 218t-132.5 58q-105 0 -152.5 -60t-69.5 -222zM238 769l148 127h60 l124 -132l-31 -34l-120 101h-8l-149 -99z" />
<glyph unicode="&#xd5;" horiz-adv-x="666" d="M68 348q27 196 97.5 275.5t221.5 79.5q145 0 199 -82.5t26 -278.5q-27 -199 -97 -277t-218 -78q-146 0 -201 81.5t-28 279.5zM160 342q-22 -157 7.5 -216.5t131.5 -59.5q103 0 151 61t71 221t-6.5 218t-132.5 58q-105 0 -152.5 -60t-69.5 -222zM242 767q3 58 28 87t62 26 q33 -3 74.5 -28t66.5 -28q29 -3 43 10t18 43l39 -4q-1 -55 -25.5 -84t-62.5 -26q-39 3 -82 28.5t-61 28.5q-28 3 -42 -11t-18 -45z" />
<glyph unicode="&#xd6;" horiz-adv-x="666" d="M68 348q27 196 97.5 275.5t221.5 79.5q145 0 199 -82.5t26 -278.5q-27 -199 -97 -277t-218 -78q-146 0 -201 81.5t-28 279.5zM160 342q-22 -157 7.5 -216.5t131.5 -59.5q103 0 151 61t71 221t-6.5 218t-132.5 58q-105 0 -152.5 -60t-69.5 -222zM281 790l9 55q3 25 28 25 h25q26 0 23 -25l-9 -54q-3 -24 -26 -24h-28q-25 0 -22 23zM450 790l9 55q3 25 28 25h25q26 0 23 -25l-9 -54q-3 -24 -26 -24h-29q-24 0 -21 23z" />
<glyph unicode="&#xd7;" horiz-adv-x="525" d="M42 157l170 134l-129 133l47 47l134 -138l181 144l39 -55l-173 -138l127 -133l-46 -47l-134 139l-177 -141z" />
<glyph unicode="&#xd8;" horiz-adv-x="666" d="M68 348q27 196 97.5 275.5t221.5 79.5q80 0 129 -23l44 73l42 -24l-45 -74q89 -77 55 -313q-27 -199 -97 -277t-218 -78q-82 0 -132 23l-42 -70l-41 25l43 71q-89 77 -57 312zM160 342q-24 -169 13 -226l299 492q-29 16 -90 16q-105 0 -152.5 -60t-69.5 -222zM209 83 q33 -17 90 -17q103 0 151 61t71 221q25 170 -12 228z" />
<glyph unicode="&#xd9;" horiz-adv-x="664" d="M78 267l58 423h89l-60 -427q-16 -111 13 -154t118 -43q92 0 136 45t60 156l58 423h89l-60 -427q-22 -150 -86 -213t-195 -63q-135 0 -188 65.5t-32 214.5zM231 853l47 60l169 -147l-31 -38z" />
<glyph unicode="&#xda;" horiz-adv-x="664" d="M78 267l58 423h89l-60 -427q-16 -111 13 -154t118 -43q92 0 136 45t60 156l58 423h89l-60 -427q-22 -150 -86 -213t-195 -63q-135 0 -188 65.5t-32 214.5zM333 768l192 146l41 -65l-206 -121z" />
<glyph unicode="&#xdb;" horiz-adv-x="664" d="M78 267l58 423h89l-60 -427q-16 -111 13 -154t118 -43q92 0 136 45t60 156l58 423h89l-60 -427q-22 -150 -86 -213t-195 -63q-135 0 -188 65.5t-32 214.5zM237 769l148 127h60l124 -132l-31 -34l-120 101h-8l-149 -99z" />
<glyph unicode="&#xdc;" horiz-adv-x="664" d="M78 267l58 423h89l-60 -427q-16 -111 13 -154t118 -43q92 0 136 45t60 156l58 423h89l-60 -427q-22 -150 -86 -213t-195 -63q-135 0 -188 65.5t-32 214.5zM280 790l9 55q3 25 28 25h25q26 0 23 -25l-9 -54q-3 -24 -26 -24h-28q-25 0 -22 23zM449 790l9 55q3 25 28 25h25 q26 0 23 -25l-9 -54q-3 -24 -26 -24h-29q-24 0 -21 23z" />
<glyph unicode="&#xdd;" horiz-adv-x="565" d="M64 690h90l104 -293q15 -45 20 -78h8q15 40 41 81l186 290h96l-292 -449l-34 -241h-89l35 245zM280 768l191 146l41 -65l-206 -121z" />
<glyph unicode="&#xde;" horiz-adv-x="589" d="M45 0l97 690h88l-17 -125q39 2 145 2q119 0 165.5 -48t28.5 -173t-70 -170t-166 -45q-86 0 -163 9l-20 -140h-88zM162 207h143q80 1 114 30.5t46 115.5q11 83 -11.5 111t-98.5 28q-113 0 -153 -1z" />
<glyph unicode="&#xdf;" horiz-adv-x="672" d="M-120 -194l13 64h76q48 0 69.5 17t28.5 66l66 467h-89l9 61l89 5l8 58q8 57 27 93t52.5 54t70.5 24t94 6q129 0 177.5 -29.5t38.5 -104.5q-5 -41 -28 -70.5t-76 -60.5l-26 -13t-26.5 -13.5t-20.5 -12t-19.5 -15t-11.5 -16t-8 -19.5q-3 -20 8.5 -33t42.5 -32l98 -59 q44 -27 60.5 -55t10.5 -78q-10 -72 -55.5 -96.5t-138.5 -24.5q-82 0 -159 11l10 65q89 -5 134 -4q63 0 90.5 12t32.5 49q2 19 -4.5 33t-15 21t-29.5 20l-101 61q-76 45 -66 113q2 18 11 34.5t18 26.5t31 24.5t33 20.5t42 22q41 24 59.5 43t21.5 48q3 32 -21.5 47t-105.5 15 q-88 0 -122.5 -24t-44.5 -95l-84 -592q-11 -72 -49.5 -106.5t-110.5 -34.5q-47 0 -110 7z" />
<glyph unicode="&#xe0;" d="M51 249q11 81 30.5 131.5t51.5 76t68 34t93 8.5q109 0 229 -23l-67 -476h-67l6 98q-94 -110 -217 -110q-88 0 -118 58.5t-9 202.5zM136 242q-15 -110 -3.5 -145t62.5 -35q87 0 199 109l36 254q-72 3 -110 3q-101 0 -133.5 -32.5t-50.5 -153.5zM160 673l46 60l169 -147 l-30 -38z" />
<glyph unicode="&#xe1;" d="M51 249q11 81 30.5 131.5t51.5 76t68 34t93 8.5q109 0 229 -23l-67 -476h-67l6 98q-94 -110 -217 -110q-88 0 -118 58.5t-9 202.5zM136 242q-15 -110 -3.5 -145t62.5 -35q87 0 199 109l36 254q-72 3 -110 3q-101 0 -133.5 -32.5t-50.5 -153.5zM261 588l192 146l41 -65 l-206 -121z" />
<glyph unicode="&#xe2;" d="M51 249q11 81 30.5 131.5t51.5 76t68 34t93 8.5q109 0 229 -23l-67 -476h-67l6 98q-94 -110 -217 -110q-88 0 -118 58.5t-9 202.5zM136 242q-15 -110 -3.5 -145t62.5 -35q87 0 199 109l36 254q-72 3 -110 3q-101 0 -133.5 -32.5t-50.5 -153.5zM165 589l148 127h61 l124 -132l-32 -34l-119 101h-9l-148 -99z" />
<glyph unicode="&#xe3;" d="M51 249q11 81 30.5 131.5t51.5 76t68 34t93 8.5q109 0 229 -23l-67 -476h-67l6 98q-94 -110 -217 -110q-88 0 -118 58.5t-9 202.5zM136 242q-15 -110 -3.5 -145t62.5 -35q87 0 199 109l36 254q-72 3 -110 3q-101 0 -133.5 -32.5t-50.5 -153.5zM169 587q3 58 28 87t62 26 q34 -3 75.5 -28t65.5 -28q29 -3 43 10t18 43l40 -4q-2 -55 -26.5 -84t-62.5 -26q-39 3 -81.5 29t-60.5 28q-28 3 -42 -11t-19 -45z" />
<glyph unicode="&#xe4;" d="M51 249q11 81 30.5 131.5t51.5 76t68 34t93 8.5q109 0 229 -23l-67 -476h-67l6 98q-94 -110 -217 -110q-88 0 -118 58.5t-9 202.5zM136 242q-15 -110 -3.5 -145t62.5 -35q87 0 199 109l36 254q-72 3 -110 3q-101 0 -133.5 -32.5t-50.5 -153.5zM208 610l9 56q3 24 28 24 h26q25 0 22 -24l-9 -55q-3 -24 -26 -24h-28q-25 0 -22 23zM377 610l9 56q3 24 28 24h26q25 0 22 -24l-9 -55q-3 -24 -26 -24h-28q-25 0 -22 23z" />
<glyph unicode="&#xe5;" d="M51 249q11 81 30.5 131.5t51.5 76t68 34t93 8.5q109 0 229 -23l-67 -476h-67l6 98q-94 -110 -217 -110q-88 0 -118 58.5t-9 202.5zM136 242q-15 -110 -3.5 -145t62.5 -35q87 0 199 109l36 254q-72 3 -110 3q-101 0 -133.5 -32.5t-50.5 -153.5zM229 643q5 43 35.5 72.5 t76.5 29.5q48 0 77 -31t24 -78q-5 -43 -35.5 -72t-77.5 -29q-49 0 -77 30.5t-23 77.5zM277 639q-4 -27 12 -43.5t41 -16.5q26 0 44 17.5t20 44.5q3 26 -11.5 43t-40.5 17q-28 0 -45.5 -17.5t-19.5 -44.5z" />
<glyph unicode="&#xe6;" horiz-adv-x="873" d="M50 249q11 81 30.5 131.5t52 76t68 34t91.5 8.5q103 0 216 -22q51 22 143 22q111 0 152 -38.5t29 -117.5q-12 -69 -54.5 -99t-130.5 -37l-180 -16q-3 -77 28.5 -104t101.5 -27q88 0 175 12l6 -57q-66 -27 -196 -27q-158 0 -192 109q-91 -109 -215 -109q-87 0 -116 59.5 t-9 201.5zM138 242q-15 -109 -4.5 -144.5t58.5 -35.5q84 0 187 100q-1 42 6 93q15 115 55 168q-88 5 -122 5q-99 0 -131 -33t-49 -153zM473 254l173 17q49 4 71.5 20.5t29.5 58.5q8 51 -15.5 64.5t-91.5 13.5q-83 0 -117 -33.5t-50 -140.5z" />
<glyph unicode="&#xe7;" horiz-adv-x="484" d="M46 247q20 139 78.5 195.5t183.5 56.5q96 0 156 -24l-14 -53q-54 5 -128 5q-92 0 -132.5 -38t-54.5 -149q-14 -110 12.5 -145t113.5 -35q83 0 146 10l6 -58q-77 -24 -167 -24q-128 0 -174 59.5t-26 199.5zM104 -241l16 45q40 -1 69.5 19.5t35.5 53.5q3 17 -7 22t-46 6 l10 40q62 6 87 -9t17 -60q-10 -61 -60.5 -94t-121.5 -23z" />
<glyph unicode="&#xe8;" horiz-adv-x="537" d="M48 255q20 142 77.5 193t188.5 51q111 0 152.5 -38.5t28.5 -117.5q-12 -69 -54.5 -99t-130.5 -37l-180 -16q-2 -77 29 -104t101 -27q86 0 179 12l6 -57q-69 -27 -199 -27q-125 0 -171 64t-27 203zM136 254l173 17q50 4 72.5 20.5t29.5 58.5q8 51 -16 64.5t-92 13.5 q-82 0 -116 -33.5t-51 -140.5zM153 673l47 60l169 -147l-31 -38z" />
<glyph unicode="&#xe9;" horiz-adv-x="537" d="M48 255q20 142 77.5 193t188.5 51q111 0 152.5 -38.5t28.5 -117.5q-12 -69 -54.5 -99t-130.5 -37l-180 -16q-2 -77 29 -104t101 -27q86 0 179 12l6 -57q-69 -27 -199 -27q-125 0 -171 64t-27 203zM136 254l173 17q50 4 72.5 20.5t29.5 58.5q8 51 -16 64.5t-92 13.5 q-82 0 -116 -33.5t-51 -140.5zM255 588l191 146l42 -65l-207 -121z" />
<glyph unicode="&#xea;" horiz-adv-x="537" d="M48 255q20 142 77.5 193t188.5 51q111 0 152.5 -38.5t28.5 -117.5q-12 -69 -54.5 -99t-130.5 -37l-180 -16q-2 -77 29 -104t101 -27q86 0 179 12l6 -57q-69 -27 -199 -27q-125 0 -171 64t-27 203zM136 254l173 17q50 4 72.5 20.5t29.5 58.5q8 51 -16 64.5t-92 13.5 q-82 0 -116 -33.5t-51 -140.5zM158 589l149 127h60l124 -132l-32 -34l-119 101h-8l-149 -99z" />
<glyph unicode="&#xeb;" horiz-adv-x="537" d="M48 255q20 142 77.5 193t188.5 51q111 0 152.5 -38.5t28.5 -117.5q-12 -69 -54.5 -99t-130.5 -37l-180 -16q-2 -77 29 -104t101 -27q86 0 179 12l6 -57q-69 -27 -199 -27q-125 0 -171 64t-27 203zM136 254l173 17q50 4 72.5 20.5t29.5 58.5q8 51 -16 64.5t-92 13.5 q-82 0 -116 -33.5t-51 -140.5zM201 610l9 56q4 24 28 24h26q26 0 22 -24l-9 -55q-1 -24 -26 -24h-28q-23 0 -22 23zM370 610l9 56q5 24 28 24h26q27 0 22 -24l-9 -55q-2 -24 -26 -24h-28q-23 0 -22 23z" />
<glyph unicode="&#xec;" horiz-adv-x="246" d="M-3 673l47 60l169 -147l-31 -38zM39 0l69 487h85l-69 -487h-85z" />
<glyph unicode="&#xed;" horiz-adv-x="246" d="M39 0l69 487h85l-69 -487h-85zM99 588l191 146l41 -65l-206 -121z" />
<glyph unicode="&#xee;" horiz-adv-x="246" d="M2 589l149 127h60l124 -132l-32 -34l-119 101h-8l-149 -99zM39 0l69 487h85l-69 -487h-85z" />
<glyph unicode="&#xef;" horiz-adv-x="246" d="M39 0l69 487h85l-69 -487h-85zM45 610l9 56q4 24 28 24h26q25 0 22 -24l-9 -55q-1 -24 -26 -24h-28q-23 0 -22 23zM214 610l9 56q5 24 28 24h26q25 0 22 -24l-9 -55q-2 -24 -26 -24h-28q-23 0 -22 23z" />
<glyph unicode="&#xf0;" horiz-adv-x="555" d="M44 222q14 110 68 168t157 58q90 0 143 -54q0 126 -56 185l-89 -61l-23 34l77 54q-53 32 -153 30l13 62q124 5 203 -47l84 59l25 -36l-75 -51q105 -105 73 -344q-19 -146 -76.5 -219t-184.5 -73q-112 0 -157 57.5t-29 177.5zM132 216q-13 -86 11.5 -121.5t90.5 -35.5 q81 0 118 54t53 178q4 32 5 46q-51 40 -123 40q-73 0 -108.5 -40t-46.5 -121z" />
<glyph unicode="&#xf1;" horiz-adv-x="578" d="M35 0l69 487h68l-7 -107q134 119 235 119q62 0 93 -34.5t22 -100.5l-52 -364h-85l49 343q6 47 -6 65.5t-47 18.5q-44 0 -90.5 -26t-119.5 -84l-44 -317h-85zM174 587q3 58 28 87t62 26q33 -3 74.5 -28t66.5 -28q29 -3 42.5 10t18.5 43l39 -4q-1 -55 -25.5 -84t-62.5 -26 q-39 3 -82 29t-61 28q-28 3 -42 -11t-18 -45z" />
<glyph unicode="&#xf2;" horiz-adv-x="564" d="M46 246q20 138 78.5 195.5t182.5 57.5t170.5 -60t26.5 -200q-19 -138 -78 -195t-181 -57q-123 0 -170.5 60t-28.5 199zM135 239q-15 -104 8.5 -142t101.5 -38q82 0 119.5 40t52.5 147q15 105 -8.5 143t-101.5 38q-82 0 -119.5 -39t-52.5 -149zM154 673l47 60l169 -147 l-31 -38z" />
<glyph unicode="&#xf3;" horiz-adv-x="564" d="M46 246q20 138 78.5 195.5t182.5 57.5t170.5 -60t26.5 -200q-19 -138 -78 -195t-181 -57q-123 0 -170.5 60t-28.5 199zM135 239q-15 -104 8.5 -142t101.5 -38q82 0 119.5 40t52.5 147q15 105 -8.5 143t-101.5 38q-82 0 -119.5 -39t-52.5 -149zM256 588l192 146l41 -65 l-207 -121z" />
<glyph unicode="&#xf4;" horiz-adv-x="564" d="M46 246q20 138 78.5 195.5t182.5 57.5t170.5 -60t26.5 -200q-19 -138 -78 -195t-181 -57q-123 0 -170.5 60t-28.5 199zM135 239q-15 -104 8.5 -142t101.5 -38q82 0 119.5 40t52.5 147q15 105 -8.5 143t-101.5 38q-82 0 -119.5 -39t-52.5 -149zM160 589l148 127h60 l124 -132l-32 -34l-119 101h-8l-149 -99z" />
<glyph unicode="&#xf5;" horiz-adv-x="564" d="M46 246q20 138 78.5 195.5t182.5 57.5t170.5 -60t26.5 -200q-19 -138 -78 -195t-181 -57q-123 0 -170.5 60t-28.5 199zM135 239q-15 -104 8.5 -142t101.5 -38q82 0 119.5 40t52.5 147q15 105 -8.5 143t-101.5 38q-82 0 -119.5 -39t-52.5 -149zM164 587q2 58 27.5 87 t62.5 26q33 -3 74.5 -28t66.5 -28q28 -3 42 10t19 43l39 -4q-1 -55 -25.5 -84t-62.5 -26q-39 3 -82 29t-61 28q-28 3 -42 -11t-18 -45z" />
<glyph unicode="&#xf6;" horiz-adv-x="564" d="M46 246q20 138 78.5 195.5t182.5 57.5t170.5 -60t26.5 -200q-19 -138 -78 -195t-181 -57q-123 0 -170.5 60t-28.5 199zM135 239q-15 -104 8.5 -142t101.5 -38q82 0 119.5 40t52.5 147q15 105 -8.5 143t-101.5 38q-82 0 -119.5 -39t-52.5 -149zM203 610l8 56q5 24 28 24 h26q27 0 22 -24l-8 -55q-3 -24 -26 -24h-29q-24 0 -21 23zM372 610l8 56q4 24 28 24h26q26 0 22 -24l-8 -55q-3 -24 -27 -24h-28q-24 0 -21 23z" />
<glyph unicode="&#xf7;" horiz-adv-x="567" d="M60 263l10 64h438l-10 -64h-438zM213 98l7 47q3 31 32 31h23q34 0 30 -34l-8 -49q-3 -29 -33 -29h-23q-32 0 -28 34zM261 446l7 48q4 31 34 31h22q35 -1 29 -34l-6 -49q-4 -29 -34 -29h-22q-35 0 -30 33z" />
<glyph unicode="&#xf8;" horiz-adv-x="564" d="M46 246q20 138 78.5 195.5t182.5 57.5q61 0 97 -12l45 76l38 -22l-43 -71q86 -54 60 -231q-19 -138 -78 -195t-181 -57q-52 0 -88 10l-44 -72l-37 22l40 66q-95 51 -70 233zM135 239q-17 -124 22 -158l206 340q-18 6 -56 6q-82 0 -119.5 -39t-52.5 -149zM197 63 q19 -4 48 -4q82 0 119.5 40t52.5 147q16 118 -16 153z" />
<glyph unicode="&#xf9;" horiz-adv-x="567" d="M50 123l51 364h85l-49 -343q-7 -45 6.5 -64t51.5 -19q43 0 85 26t110 87l43 313h85l-68 -487h-66l7 106q-122 -119 -225 -119q-66 0 -96 36t-20 100zM158 677l47 60l169 -147l-31 -38z" />
<glyph unicode="&#xfa;" horiz-adv-x="567" d="M50 123l51 364h85l-49 -343q-7 -45 6.5 -64t51.5 -19q43 0 85 26t110 87l43 313h85l-68 -487h-66l7 106q-122 -119 -225 -119q-66 0 -96 36t-20 100zM260 591l192 147l41 -66l-207 -120z" />
<glyph unicode="&#xfb;" horiz-adv-x="567" d="M50 123l51 364h85l-49 -343q-7 -45 6.5 -64t51.5 -19q43 0 85 26t110 87l43 313h85l-68 -487h-66l7 106q-122 -119 -225 -119q-66 0 -96 36t-20 100zM164 593l148 127h60l124 -132l-31 -34l-120 101h-8l-149 -99z" />
<glyph unicode="&#xfc;" horiz-adv-x="567" d="M50 123l51 364h85l-49 -343q-7 -45 6.5 -64t51.5 -19q43 0 85 26t110 87l43 313h85l-68 -487h-66l7 106q-122 -119 -225 -119q-66 0 -96 36t-20 100zM207 614l8 55q4 25 28 25h26q26 0 22 -25l-8 -54q-3 -24 -26 -24h-29q-24 0 -21 23zM376 614l8 55q4 25 28 25h26 q26 0 22 -25l-8 -54q-3 -24 -26 -24h-29q-24 0 -21 23z" />
<glyph unicode="&#xfd;" horiz-adv-x="539" d="M35 -145q61 14 109.5 47t94.5 98h-44q-22 0 -37 12.5t-20 32.5l-94 442h89l77 -401q5 -19 23 -19h48l9.5 19t10.5 20q94 184 134 381h88q-53 -235 -148 -406q-77 -143 -150.5 -206t-173.5 -81zM228 588l192 146l41 -65l-206 -121z" />
<glyph unicode="&#xfe;" d="M8 -201l126 901h85l-26 -187q-9 -66 -20 -109l1 -6q92 101 210 101q83 0 114 -58t11 -203q-11 -81 -30.5 -131.5t-51 -76.5t-66.5 -34.5t-90 -8.5q-64 0 -151 12q-8 -62 -10 -72l-18 -128h-84zM130 61q96 -2 110 -2q100 0 132 32t49 153q15 111 4 146t-60 35 q-87 0 -201 -111z" />
<glyph unicode="&#xff;" horiz-adv-x="539" d="M35 -145q61 14 109.5 47t94.5 98h-44q-22 0 -37 12.5t-20 32.5l-94 442h89l77 -401q5 -19 23 -19h48l9.5 19t10.5 20q94 184 134 381h88q-53 -235 -148 -406q-77 -143 -150.5 -206t-173.5 -81zM175 610l9 56q3 24 28 24h26q25 0 22 -24l-9 -55q-3 -24 -26 -24h-28 q-25 0 -22 23zM344 610l9 56q3 24 28 24h26q25 0 22 -24l-9 -55q-3 -24 -26 -24h-28q-25 0 -22 23z" />
<glyph unicode="&#x100;" horiz-adv-x="619" d="M-30 0l316 667q7 23 34 23h92q12 0 20.5 -7.5t9.5 -18.5l129 -664h-88l-37 215h-285l-98 -215h-93zM196 292h236l-48 272q-1 9 -3.5 29t-4.5 30h-30q-29 -66 -85.5 -189.5t-64.5 -141.5zM243 786l8 63h279l-8 -63h-279z" />
<glyph unicode="&#x101;" d="M51 249q11 81 30.5 131.5t51.5 76t68 34t93 8.5q109 0 229 -23l-67 -476h-67l6 98q-94 -110 -217 -110q-88 0 -118 58.5t-9 202.5zM136 242q-15 -110 -3.5 -145t62.5 -35q87 0 199 109l36 254q-72 3 -110 3q-101 0 -133.5 -32.5t-50.5 -153.5zM191 606l9 63h278l-8 -63 h-279z" />
<glyph unicode="&#x102;" horiz-adv-x="619" d="M-30 0l316 667q7 23 34 23h92q12 0 20.5 -7.5t9.5 -18.5l129 -664h-88l-37 215h-285l-98 -215h-93zM196 292h236l-48 272q-1 9 -3.5 29t-4.5 30h-30q-29 -66 -85.5 -189.5t-64.5 -141.5zM245 879l44 3q-3 -23 7 -39.5t31.5 -25t53.5 -8.5q34 0 60 9t41.5 26.5t18.5 41.5 l43 -11q-5 -58 -49 -93.5t-114 -35.5q-74 0 -111 37t-25 96z" />
<glyph unicode="&#x103;" d="M51 249q11 81 30.5 131.5t51.5 76t68 34t93 8.5q109 0 229 -23l-67 -476h-67l6 98q-94 -110 -217 -110q-88 0 -118 58.5t-9 202.5zM136 242q-15 -110 -3.5 -145t62.5 -35q87 0 199 109l36 254q-72 3 -110 3q-101 0 -133.5 -32.5t-50.5 -153.5zM193 699l44 3 q-5 -35 19.5 -54t72.5 -19q52 0 83.5 20.5t36.5 56.5l43 -11q-5 -58 -49 -93.5t-113 -35.5q-74 0 -111.5 37t-25.5 96z" />
<glyph unicode="&#x104;" horiz-adv-x="619" d="M-30 0l316 667q7 23 34 23h92q12 0 20.5 -7.5t9.5 -18.5l129 -664q-55 -58 -88 -117q-20 -35 -1 -45.5t69 5.5l10 -37q-38 -15 -68.5 -18.5t-48.5 3.5t-27.5 21t-8 33.5t12.5 40.5q29 57 106 114h-44l-37 215h-285l-98 -215h-93zM196 292h236l-48 272q-1 9 -3.5 29 t-4.5 30h-30q-29 -66 -85.5 -189.5t-64.5 -141.5z" />
<glyph unicode="&#x105;" d="M51 249q11 81 30.5 131.5t51.5 76t68 34t93 8.5q109 0 229 -23l-67 -476q-55 -56 -89 -117q-20 -35 -1 -45.5t69 5.5l10 -37q-38 -15 -68.5 -18.5t-48.5 3.5t-27.5 21t-8 33.5t12.5 40.5q29 57 106 114h-22l6 98q-94 -110 -217 -110q-88 0 -118 58.5t-9 202.5zM136 242 q-15 -110 -3.5 -145t62.5 -35q87 0 199 109l36 254q-72 3 -110 3q-101 0 -133.5 -32.5t-50.5 -153.5z" />
<glyph unicode="&#x106;" horiz-adv-x="566" d="M68 348q28 197 97.5 275.5t217.5 78.5q111 0 188 -21l-14 -66q-88 9 -175 9q-104 0 -152 -58.5t-70 -223.5q-22 -156 7 -215.5t127 -60.5q107 0 197 11l5 -67q-83 -22 -203 -22q-148 0 -200 84.5t-25 275.5zM320 768l192 146l41 -65l-207 -121z" />
<glyph unicode="&#x107;" horiz-adv-x="484" d="M46 247q20 139 78.5 195.5t183.5 56.5q96 0 156 -24l-14 -53q-54 5 -128 5q-92 0 -132.5 -38t-54.5 -149q-14 -110 12.5 -145t113.5 -35q83 0 146 10l6 -58q-77 -24 -167 -24q-128 0 -174 59.5t-26 199.5zM238 588l192 146l41 -65l-206 -121z" />
<glyph unicode="&#x10a;" horiz-adv-x="566" d="M68 348q28 197 97.5 275.5t217.5 78.5q111 0 188 -21l-14 -66q-88 9 -175 9q-104 0 -152 -58.5t-70 -223.5q-22 -156 7 -215.5t127 -60.5q107 0 197 11l5 -67q-83 -22 -203 -22q-148 0 -200 84.5t-25 275.5zM350 786l7 57q4 24 27 24h28q13 0 19.5 -7t4.5 -20l-8 -57 q-3 -24 -27 -24h-27q-13 0 -19.5 7.5t-4.5 19.5z" />
<glyph unicode="&#x10b;" horiz-adv-x="484" d="M46 247q20 139 78.5 195.5t183.5 56.5q96 0 156 -24l-14 -53q-54 5 -128 5q-92 0 -132.5 -38t-54.5 -149q-14 -110 12.5 -145t113.5 -35q83 0 146 10l6 -58q-77 -24 -167 -24q-128 0 -174 59.5t-26 199.5zM268 606l8 57q3 24 27 24h27q28 0 25 -27l-8 -56q-4 -25 -27 -25 h-27q-13 0 -20 7.5t-5 19.5z" />
<glyph unicode="&#x10c;" horiz-adv-x="566" d="M68 348q28 197 97.5 275.5t217.5 78.5q111 0 188 -21l-14 -66q-88 9 -175 9q-104 0 -152 -58.5t-70 -223.5q-22 -156 7 -215.5t127 -60.5q107 0 197 11l5 -67q-83 -22 -203 -22q-148 0 -200 84.5t-25 275.5zM237 876l35 32l113 -100h8l146 100l27 -37l-150 -127h-62z" />
<glyph unicode="&#x10d;" horiz-adv-x="484" d="M46 247q20 139 78.5 195.5t183.5 56.5q96 0 156 -24l-14 -53q-54 5 -128 5q-92 0 -132.5 -38t-54.5 -149q-14 -110 12.5 -145t113.5 -35q83 0 146 10l6 -58q-77 -24 -167 -24q-128 0 -174 59.5t-26 199.5zM156 696l34 32l113 -100h8l147 100l26 -37l-149 -127h-62z" />
<glyph unicode="&#x10e;" horiz-adv-x="662" d="M45 0l97 690q122 9 226 9q160 0 214 -79t26 -278q-16 -112 -40 -181t-66 -106.5t-93.5 -50.5t-134.5 -13q-98 0 -229 9zM143 70q90 -2 130 -2q62 0 100 10.5t67.5 42t46.5 85t30 142.5q10 69 10.5 115.5t-7 78.5t-28.5 49.5t-50.5 24.5t-75.5 7t-146 -2zM233 876l34 32 l113 -100h8l147 100l26 -37l-149 -127h-62z" />
<glyph unicode="&#x10f;" horiz-adv-x="572" d="M50 249q12 80 31 130.5t50.5 76.5t66 34.5t87.5 8.5q69 0 158 -12q2 49 8 93l17 120h85l-98 -700h-67l7 106q-108 -118 -227 -118q-77 0 -107.5 60t-10.5 201zM136 242q-15 -105 -4 -142.5t60 -37.5q47 0 94 26.5t109 85.5l34 253q-96 2 -112 2q-53 0 -81 -5.5t-49.5 -27 t-31.5 -56t-19 -98.5zM597 499q23 71 29 102q-12 -1 -18.5 5.5t-4.5 17.5l8 50q3 15 10 20.5t25 5.5h23q29 0 25 -28l-8 -55q-9 -60 -51 -131z" />
<glyph unicode="&#x110;" horiz-adv-x="662" d="M27 342l7 49h66l42 299q122 9 226 9q160 0 214 -79t26 -278q-16 -112 -40 -181t-66 -106.5t-93.5 -50.5t-134.5 -13q-98 0 -229 9l48 342h-66zM143 70q90 -2 130 -2q62 0 100 10.5t67.5 42t46.5 85t30 142.5q10 69 10.5 115.5t-7 78.5t-28.5 49.5t-50.5 24.5t-75.5 7 t-146 -2l-32 -230h154l-6 -49h-155z" />
<glyph unicode="&#x111;" horiz-adv-x="572" d="M50 249q12 80 31 130.5t50.5 76.5t66 34.5t87.5 8.5q69 0 158 -12q1 45 7 89h-148l7 48h148l11 76h85l-10 -76h72l-6 -48h-73l-81 -576h-67l7 106q-108 -118 -227 -118q-77 0 -107.5 60t-10.5 201zM136 242q-15 -105 -4 -142.5t60 -37.5q47 0 94 26.5t109 85.5l34 253 q-96 2 -112 2q-53 0 -81 -5.5t-49.5 -27t-31.5 -56t-19 -98.5z" />
<glyph unicode="&#x112;" horiz-adv-x="558" d="M58 137l61 436q8 56 45 87t100 31q206 0 298 -6l-12 -69h-275q-34 0 -50 -16t-21 -52l-21 -150h297l-9 -68h-297l-26 -191q-5 -34 8 -49.5t47 -15.5h270l-2 -69q-88 -6 -279 -6q-75 0 -109 36.5t-25 101.5zM239 806l9 64h279l-9 -64h-279z" />
<glyph unicode="&#x113;" horiz-adv-x="537" d="M48 255q20 142 77.5 193t188.5 51q111 0 152.5 -38.5t28.5 -117.5q-12 -69 -54.5 -99t-130.5 -37l-180 -16q-2 -77 29 -104t101 -27q86 0 179 12l6 -57q-69 -27 -199 -27q-125 0 -171 64t-27 203zM136 254l173 17q50 4 72.5 20.5t29.5 58.5q8 51 -16 64.5t-92 13.5 q-82 0 -116 -33.5t-51 -140.5zM184 606l9 63h279l-9 -63h-279z" />
<glyph unicode="&#x116;" horiz-adv-x="558" d="M58 137l61 436q8 56 45 87t100 31q206 0 298 -6l-12 -69h-275q-34 0 -50 -16t-21 -52l-21 -150h297l-9 -68h-297l-26 -191q-5 -34 8 -49.5t47 -15.5h270l-2 -69q-88 -6 -279 -6q-75 0 -109 36.5t-25 101.5zM340 807l7 56q4 25 27 25h28q28 0 25 -28l-8 -56 q-4 -25 -27 -25h-28q-12 0 -18.5 7.5t-5.5 20.5z" />
<glyph unicode="&#x117;" horiz-adv-x="537" d="M48 255q20 142 77.5 193t188.5 51q111 0 152.5 -38.5t28.5 -117.5q-12 -69 -54.5 -99t-130.5 -37l-180 -16q-2 -77 29 -104t101 -27q86 0 179 12l6 -57q-69 -27 -199 -27q-125 0 -171 64t-27 203zM136 254l173 17q50 4 72.5 20.5t29.5 58.5q8 51 -16 64.5t-92 13.5 q-82 0 -116 -33.5t-51 -140.5zM285 606l7 57q4 24 27 24h28q13 0 19.5 -7t4.5 -20l-8 -56q-3 -25 -27 -25h-27q-13 0 -19.5 7.5t-4.5 19.5z" />
<glyph unicode="&#x118;" horiz-adv-x="558" d="M58 137l61 436q8 56 45 87t100 31q206 0 298 -6l-12 -69h-275q-34 0 -50 -16t-21 -52l-21 -150h297l-9 -68h-297l-26 -191q-5 -34 8 -49.5t47 -15.5h270l-2 -69q-52 -54 -88 -117q-20 -35 -1 -45.5t69 5.5l10 -37q-48 -19 -83 -19.5t-50.5 13.5t-19 36.5t11.5 49.5 q29 57 103 111q-75 -3 -231 -3q-75 0 -109 36.5t-25 101.5z" />
<glyph unicode="&#x119;" horiz-adv-x="537" d="M48 255q20 142 77.5 193t188.5 51q111 0 152.5 -38.5t28.5 -117.5q-12 -69 -54.5 -99t-130.5 -37l-180 -16q-2 -77 29 -104t101 -27q86 0 179 12l6 -57q-55 -57 -88 -117q-20 -35 -1 -45.5t68 5.5l10 -37q-47 -19 -82.5 -20t-50.5 13.5t-19 36.5t12 50q24 47 86 98 q-63 -11 -134 -11q-125 0 -171 64t-27 203zM136 254l173 17q50 4 72.5 20.5t29.5 58.5q8 51 -16 64.5t-92 13.5q-82 0 -116 -33.5t-51 -140.5z" />
<glyph unicode="&#x11a;" horiz-adv-x="558" d="M58 137l61 436q8 56 45 87t100 31q206 0 298 -6l-12 -69h-275q-34 0 -50 -16t-21 -52l-21 -150h297l-9 -68h-297l-26 -191q-5 -34 8 -49.5t47 -15.5h270l-2 -69q-88 -6 -279 -6q-75 0 -109 36.5t-25 101.5zM228 897l34 31l113 -99h8l147 99l26 -36l-150 -128h-61z" />
<glyph unicode="&#x11b;" horiz-adv-x="537" d="M48 255q20 142 77.5 193t188.5 51q111 0 152.5 -38.5t28.5 -117.5q-12 -69 -54.5 -99t-130.5 -37l-180 -16q-2 -77 29 -104t101 -27q86 0 179 12l6 -57q-69 -27 -199 -27q-125 0 -171 64t-27 203zM136 254l173 17q50 4 72.5 20.5t29.5 58.5q8 51 -16 64.5t-92 13.5 q-82 0 -116 -33.5t-51 -140.5zM172 696l35 32l113 -100h8l146 100l27 -37l-150 -127h-62z" />
<glyph unicode="&#x11e;" horiz-adv-x="624" d="M68 348q14 107 40 177t68.5 109t93.5 54t125 15q114 0 198 -22l-13 -65q-84 8 -174 8q-63 0 -102 -11t-69 -43t-47 -86t-28 -142q-17 -154 6 -215.5t101 -61.5q50 0 92 24.5t97 78.5l32 232h85l-57 -400h-63l2 95q-94 -108 -217 -108q-109 0 -150 86.5t-20 274.5z M260 879l44 3q-5 -35 19.5 -54t72.5 -19q52 0 83.5 20.5t36.5 56.5l43 -11q-5 -58 -49 -93.5t-113 -35.5q-74 0 -111.5 37t-25.5 96z" />
<glyph unicode="&#x11f;" horiz-adv-x="575" d="M15 -195l9 57q70 -3 158 -1q166 5 190 131q20 95 40 126q-44 -58 -106 -94t-130 -36q-82 0 -114 58.5t-10 202.5q12 81 31.5 131.5t50.5 76t65 34t87 8.5q116 0 238 -23h2l-68 -467q-26 -214 -277 -220q-96 -4 -166 16zM138 242q-16 -109 -4.5 -144.5t62.5 -35.5 q86 0 199 110l38 253q-73 3 -115 3q-98 0 -130.5 -32.5t-49.5 -153.5zM193 699l44 3q-4 -35 20.5 -54t71.5 -19q52 0 84.5 20.5t36.5 56.5l43 -11q-5 -58 -49 -93.5t-114 -35.5q-74 0 -111.5 37t-25.5 96z" />
<glyph unicode="&#x120;" horiz-adv-x="624" d="M68 348q14 107 40 177t68.5 109t93.5 54t125 15q114 0 198 -22l-13 -65q-84 8 -174 8q-63 0 -102 -11t-69 -43t-47 -86t-28 -142q-17 -154 6 -215.5t101 -61.5q50 0 92 24.5t97 78.5l32 232h85l-57 -400h-63l2 95q-94 -108 -217 -108q-109 0 -150 86.5t-20 274.5z M359 786l7 57q3 24 27 24h27q13 0 20 -7.5t5 -19.5l-8 -57q-3 -24 -27 -24h-27q-13 0 -19.5 7.5t-4.5 19.5z" />
<glyph unicode="&#x121;" horiz-adv-x="575" d="M15 -195l9 57q70 -3 158 -1q166 5 190 131q20 95 40 126q-44 -58 -106 -94t-130 -36q-82 0 -114 58.5t-10 202.5q12 81 31.5 131.5t50.5 76t65 34t87 8.5q116 0 238 -23h2l-68 -467q-26 -214 -277 -220q-96 -4 -166 16zM138 242q-16 -109 -4.5 -144.5t62.5 -35.5 q86 0 199 110l38 253q-73 3 -115 3q-98 0 -130.5 -32.5t-49.5 -153.5zM292 606l7 57q4 24 27 24h28q28 0 25 -27l-8 -56q-4 -25 -28 -25h-27q-27 0 -24 27z" />
<glyph unicode="&#x122;" horiz-adv-x="624" d="M68 348q14 107 40 177t68.5 109t93.5 54t125 15q114 0 198 -22l-13 -65q-84 8 -174 8q-63 0 -102 -11t-69 -43t-47 -86t-28 -142q-17 -154 6 -215.5t101 -61.5q50 0 92 24.5t97 78.5l32 232h85l-57 -400h-63l2 95q-94 -108 -217 -108q-109 0 -150 86.5t-20 274.5z M227 -261q23 67 30 103q-12 -1 -18.5 5.5t-5.5 17.5l8 51q3 15 10 20.5t25 5.5h24q30 0 24 -29l-8 -55q-7 -56 -51 -132z" />
<glyph unicode="&#x123;" horiz-adv-x="575" d="M15 -195l9 57q70 -3 158 -1q166 5 190 131q20 95 40 126q-44 -58 -106 -94t-130 -36q-82 0 -114 58.5t-10 202.5q12 81 31.5 131.5t50.5 76t65 34t87 8.5q116 0 238 -23h2l-68 -467q-26 -214 -277 -220q-96 -4 -166 16zM138 242q-16 -109 -4.5 -144.5t62.5 -35.5 q86 0 199 110l38 253q-73 3 -115 3q-98 0 -130.5 -32.5t-49.5 -153.5zM288 586l8 55q8 60 51 131l38 -12q-23 -66 -29 -103q12 1 18 -5.5t5 -17.5l-8 -51q-3 -15 -10 -20.5t-25 -5.5h-23q-29 0 -25 29z" />
<glyph unicode="&#x126;" horiz-adv-x="666" d="M45 0l73 519h-67l7 47h67l17 124h89l-18 -124h318l18 124h87l-17 -124h73l-6 -47h-74l-73 -519h-87l46 330h-318l-46 -330h-89zM191 406h318l16 113h-318z" />
<glyph unicode="&#x127;" horiz-adv-x="578" d="M35 0l82 576h-72l7 48h71l11 76h85l-10 -76h149l-7 -48h-149l-10 -72q-8 -65 -23 -120q132 115 231 115q62 0 93 -34.5t22 -100.5l-52 -364h-85l49 343q6 47 -6 65.5t-47 18.5q-44 0 -90 -26t-120 -85l-44 -316h-85z" />
<glyph unicode="&#x12a;" horiz-adv-x="261" d="M45 0l97 690h89l-97 -690h-89zM60 786l9 63h279l-9 -63h-279z" />
<glyph unicode="&#x12b;" horiz-adv-x="246" d="M28 606l9 63h279l-9 -63h-279zM39 0l69 487h85l-69 -487h-85z" />
<glyph unicode="&#x12e;" horiz-adv-x="261" d="M-27 -114q29 57 106 114h-34l97 690h89l-97 -690h-11q-55 -58 -88 -117q-20 -35 -1 -45.5t69 5.5l10 -37q-38 -15 -68.5 -18.5t-48.5 3.5t-27.5 21t-8 33.5t12.5 40.5z" />
<glyph unicode="&#x12f;" horiz-adv-x="246" d="M-33 -114q29 56 107 114h-35l69 487h85l-69 -487h-6q-55 -57 -88 -117q-20 -35 -1 -45.5t68 5.5l10 -37q-47 -19 -82.5 -19.5t-50.5 13.5t-19 36.5t12 49.5zM129 606l7 57q3 24 27 24h28q12 0 19 -7.5t5 -19.5l-8 -56q-3 -25 -27 -25h-27q-13 0 -19.5 7.5t-4.5 19.5z" />
<glyph unicode="&#x130;" horiz-adv-x="261" d="M45 0l97 690h89l-97 -690h-89zM161 786l7 57q3 24 27 24h28q12 0 19 -7.5t5 -19.5l-8 -57q-3 -24 -27 -24h-27q-13 0 -19.5 7.5t-4.5 19.5z" />
<glyph unicode="&#x131;" horiz-adv-x="246" d="M39 0l69 487h85l-69 -487h-85z" />
<glyph unicode="&#x132;" horiz-adv-x="600" d="M45 0l97 690h89l-97 -690h-89zM252 4l17 62h47q81 0 92 77l76 547h89l-78 -547q-21 -152 -150 -152q-52 0 -93 13z" />
<glyph unicode="&#x133;" horiz-adv-x="492" d="M40 0l68 487h84l-68 -487h-84zM122 613l8 56q3 25 27 25h40q13 0 19.5 -8t4.5 -20l-7 -57q-4 -24 -28 -24h-39q-28 0 -25 28zM205 -165q66 70 78 155l71 497h84l-70 -501q-17 -121 -118 -190zM368 613l8 56q3 25 27 25h40q27 0 24 -28l-8 -57q-3 -24 -27 -24h-40 q-29 0 -24 28z" />
<glyph unicode="&#x136;" horiz-adv-x="593" d="M45 0l97 690h88l-31 -217q-6 -40 -16 -78h81l247 295h107l-240 -286q-27 -31 -47 -44v-4q17 -20 33 -50l170 -306h-100l-177 324h-85q0 -45 -5 -75l-34 -249h-88zM213 -261q21 60 29 103q-12 -1 -18.5 5.5t-4.5 17.5l8 51q3 15 10 20.5t25 5.5h23q29 0 25 -29l-8 -55 q-8 -59 -51 -132z" />
<glyph unicode="&#x137;" horiz-adv-x="521" d="M36 0l98 700h85l-45 -338q-9 -59 -30 -116q99 44 171 106t95 135h87q-43 -132 -165 -217q15 -25 29 -56l96 -214h-91l-99 230q-50 -27 -121 -56l-26 -174h-84zM184 -261q23 75 29 103q-12 -1 -18.5 5.5t-4.5 17.5l7 51q4 15 10.5 20t24.5 5h24q30 0 24 -28l-7 -55 q-8 -59 -51 -132z" />
<glyph unicode="&#x139;" horiz-adv-x="509" d="M64 142l75 548h89l-77 -551q-10 -65 55 -65h250l-2 -69q-87 -6 -267 -6q-66 0 -99.5 37t-23.5 106zM129 768l192 146l41 -65l-206 -121z" />
<glyph unicode="&#x13a;" horiz-adv-x="293" d="M53 117l82 583h85l-80 -568q-5 -34 7.5 -48.5t47.5 -14.5h49l3 -66q-29 -12 -88 -12q-57 0 -85.5 33.5t-20.5 92.5zM126 789l192 147l41 -66l-207 -120z" />
<glyph unicode="&#x13b;" horiz-adv-x="509" d="M64 142l75 548h89l-77 -551q-10 -65 55 -65h250l-2 -69q-87 -6 -267 -6q-66 0 -99.5 37t-23.5 106zM202 -264q23 67 30 103q-12 -1 -18.5 5.5t-5.5 18.5l8 50q3 15 10 20.5t25 5.5h24q30 0 24 -28l-8 -56q-6 -55 -50 -131z" />
<glyph unicode="&#x13c;" horiz-adv-x="293" d="M53 117l82 583h85l-80 -568q-5 -34 7.5 -48.5t47.5 -14.5h49l3 -66q-29 -12 -88 -12q-57 0 -85.5 33.5t-20.5 92.5zM77 -264q23 75 29 103q-12 -1 -18.5 5.5t-4.5 18.5l7 50q4 15 10.5 20.5t24.5 5.5h24q30 0 24 -28l-7 -56q-8 -60 -51 -131z" />
<glyph unicode="&#x13d;" horiz-adv-x="509" d="M64 142l75 548h89l-77 -551q-10 -65 55 -65h250l-2 -69q-87 -6 -267 -6q-66 0 -99.5 37t-23.5 106zM297 488q23 68 30 103q-12 -1 -18.5 5.5t-5.5 17.5l8 51q3 15 10 20t25 5h24q30 0 24 -28l-8 -55q-9 -61 -51 -132z" />
<glyph unicode="&#x13e;" horiz-adv-x="293" d="M53 117l82 583h85l-80 -568q-5 -34 7.5 -48.5t47.5 -14.5h49l3 -66q-29 -12 -88 -12q-57 0 -85.5 33.5t-20.5 92.5zM266 497q23 75 29 103q-12 -1 -18.5 5.5t-4.5 18.5l7 50q4 15 10.5 20.5t24.5 5.5h24q30 0 24 -28l-7 -56q-9 -60 -51 -131z" />
<glyph unicode="&#x13f;" horiz-adv-x="509" d="M64 142l75 548h89l-77 -551q-10 -65 55 -65h250l-2 -69q-87 -6 -267 -6q-66 0 -99.5 37t-23.5 106zM345 366l8 56q3 25 27 25h27q27 0 24 -28l-7 -56q-4 -25 -27 -25h-28q-13 0 -19.5 7.5t-4.5 20.5z" />
<glyph unicode="&#x140;" horiz-adv-x="334" d="M53 117l82 583h85l-80 -568q-5 -34 7.5 -48.5t47.5 -14.5h49l3 -66q-29 -12 -88 -12q-57 0 -85.5 33.5t-20.5 92.5zM261 346l8 57q4 24 27 24h28q12 0 18.5 -7.5t5.5 -19.5l-8 -57q-3 -24 -26 -24h-28q-28 0 -25 27z" />
<glyph unicode="&#x141;" horiz-adv-x="508" d="M22 305l5 54l70 28l41 303h89l-37 -267l127 50l-6 -53l-129 -51l-32 -230q-8 -65 55 -65h251l-3 -69q-87 -6 -267 -6q-65 0 -99 37t-24 106l26 190z" />
<glyph unicode="&#x142;" horiz-adv-x="299" d="M16 305l7 54l68 27l44 314h85l-39 -279l132 52l-7 -53l-133 -52l-33 -236q-5 -34 7.5 -48.5t47.5 -14.5h49l3 -66q-29 -12 -88 -12q-57 0 -85.5 33.5t-20.5 92.5l30 215z" />
<glyph unicode="&#x143;" horiz-adv-x="703" d="M45 0l92 657q6 33 37 33h78q25 0 36 -30l168 -476q23 -66 32 -100h19q3 55 10 101l69 505h87l-93 -657q-4 -33 -35 -33h-80q-25 0 -36 30l-173 489q-20 54 -27 89h-17q-1 -41 -8 -91l-71 -517h-88zM359 768l192 146l41 -65l-206 -121z" />
<glyph unicode="&#x144;" horiz-adv-x="578" d="M35 0l69 487h68l-7 -107q134 119 235 119q62 0 93 -34.5t22 -100.5l-52 -364h-85l49 343q6 47 -6 65.5t-47 18.5q-44 0 -90.5 -26t-119.5 -84l-44 -317h-85zM266 588l192 146l41 -65l-206 -121z" />
<glyph unicode="&#x145;" horiz-adv-x="703" d="M45 0l92 657q6 33 37 33h78q25 0 36 -30l168 -476q23 -66 32 -100h19q3 55 10 101l69 505h87l-93 -657q-4 -33 -35 -33h-80q-25 0 -36 30l-173 489q-20 54 -27 89h-17q-1 -41 -8 -91l-71 -517h-88zM263 -261q23 75 29 103q-12 -1 -18.5 5.5t-4.5 17.5l7 51 q4 15 10.5 20.5t24.5 5.5h24q30 0 24 -29l-7 -55q-8 -59 -51 -132z" />
<glyph unicode="&#x146;" horiz-adv-x="578" d="M35 0l69 487h68l-7 -107q134 119 235 119q62 0 93 -34.5t22 -100.5l-52 -364h-85l49 343q6 47 -6 65.5t-47 18.5q-44 0 -90.5 -26t-119.5 -84l-44 -317h-85zM192 -261q23 67 30 103q-12 -1 -18.5 5.5t-5.5 17.5l8 51q3 15 10 20.5t25 5.5h24q30 0 24 -29l-8 -55 q-8 -59 -51 -132z" />
<glyph unicode="&#x147;" horiz-adv-x="703" d="M45 0l92 657q6 33 37 33h78q25 0 36 -30l168 -476q23 -66 32 -100h19q3 55 10 101l69 505h87l-93 -657q-4 -33 -35 -33h-80q-25 0 -36 30l-173 489q-20 54 -27 89h-17q-1 -41 -8 -91l-71 -517h-88zM277 876l34 32l113 -100h8l147 100l26 -37l-150 -127h-61z" />
<glyph unicode="&#x148;" horiz-adv-x="578" d="M35 0l69 487h68l-7 -107q134 119 235 119q62 0 93 -34.5t22 -100.5l-52 -364h-85l49 343q6 47 -6 65.5t-47 18.5q-44 0 -90.5 -26t-119.5 -84l-44 -317h-85zM184 696l34 32l113 -100h8l147 100l26 -37l-150 -127h-61z" />
<glyph unicode="&#x14a;" horiz-adv-x="703" d="M45 0l92 657q6 33 37 33h68q24 0 37 -30l176 -462q13 -32 35 -100h16q2 37 10 104l69 488h88l-109 -771q-9 -66 -48 -101t-100 -34q-51 0 -90 13l15 55h48q83 0 94 77l10 71h-27q-6 0 -11 4t-7.5 9t-6.5 14l-186 477q-16 39 -26 91h-16q-1 -39 -10 -93l-70 -502h-88z" />
<glyph unicode="&#x14b;" horiz-adv-x="578" d="M35 0l69 487h65l-5 -108q132 120 233 120q66 0 96.5 -35t21.5 -100l-59 -420q-21 -149 -142 -149q-43 0 -85 13l15 54h40q38 0 59 18t27 61l57 402q5 43 -7 60.5t-49 17.5q-42 0 -88.5 -25.5t-117.5 -78.5l-45 -317h-85z" />
<glyph unicode="&#x14c;" horiz-adv-x="666" d="M68 348q27 196 97.5 275.5t221.5 79.5q145 0 199 -82.5t26 -278.5q-27 -199 -97 -277t-218 -78q-146 0 -201 81.5t-28 279.5zM160 342q-22 -157 7.5 -216.5t131.5 -59.5q103 0 151 61t71 221t-6.5 218t-132.5 58q-105 0 -152.5 -60t-69.5 -222zM263 786l9 63h279l-9 -63 h-279z" />
<glyph unicode="&#x14d;" horiz-adv-x="564" d="M46 246q20 138 78.5 195.5t182.5 57.5t170.5 -60t26.5 -200q-19 -138 -78 -195t-181 -57q-123 0 -170.5 60t-28.5 199zM135 239q-15 -104 8.5 -142t101.5 -38q82 0 119.5 40t52.5 147q15 105 -8.5 143t-101.5 38q-82 0 -119.5 -39t-52.5 -149zM185 606l9 63h279l-9 -63 h-279z" />
<glyph unicode="&#x150;" horiz-adv-x="666" d="M68 348q27 196 97.5 275.5t221.5 79.5q145 0 199 -82.5t26 -278.5q-27 -199 -97 -277t-218 -78q-146 0 -201 81.5t-28 279.5zM160 342q-22 -157 7.5 -216.5t131.5 -59.5q103 0 151 61t71 221t-6.5 218t-132.5 58q-105 0 -152.5 -60t-69.5 -222zM267 751l138 168l53 -38 l-156 -159zM431 751l138 168l53 -38l-156 -159z" />
<glyph unicode="&#x151;" horiz-adv-x="564" d="M46 246q20 138 78.5 195.5t182.5 57.5t170.5 -60t26.5 -200q-19 -138 -78 -195t-181 -57q-123 0 -170.5 60t-28.5 199zM135 239q-15 -104 8.5 -142t101.5 -38q82 0 119.5 40t52.5 147q15 105 -8.5 143t-101.5 38q-82 0 -119.5 -39t-52.5 -149zM188 571l139 168l53 -37 l-156 -159zM353 571l138 168l53 -37l-156 -159z" />
<glyph unicode="&#x152;" horiz-adv-x="919" d="M69 348q28 201 97.5 278t221.5 77q89 0 161 -31q32 19 82 19q202 0 291 -6l-11 -69h-269q-64 0 -72 -68l-21 -150h292l-9 -69h-292l-26 -190q-5 -35 8 -50t47 -15h266l-3 -69q-86 -6 -274 -6q-59 0 -93 23q-78 -35 -167 -35q-156 0 -207 79t-22 282zM160 342 q-23 -157 7 -216.5t133 -59.5q68 0 125 17q-5 24 0 54l60 436q2 14 10 38q-50 13 -108 13q-106 0 -155.5 -60.5t-71.5 -221.5z" />
<glyph unicode="&#x153;" horiz-adv-x="905" d="M46 246q19 138 78 195.5t183 57.5q130 0 174 -65q31 36 79 50.5t124 14.5q111 0 152 -38.5t29 -117.5q-12 -69 -54.5 -99t-131.5 -37l-179 -17q-3 -76 28 -103t102 -27q86 0 175 12l6 -57q-66 -27 -196 -27q-129 0 -175 71q-59 -72 -195 -72q-124 0 -171 60t-28 199z M135 239q-15 -104 8 -142t102 -38q82 0 119.5 40.5t51.5 146.5q16 105 -7.5 143t-101.5 38q-82 0 -119.5 -39t-52.5 -149zM506 254l173 17q49 4 71.5 20.5t29.5 58.5q8 52 -15.5 64.5t-92.5 12.5q-82 0 -116 -33.5t-50 -139.5z" />
<glyph unicode="&#x154;" horiz-adv-x="618" d="M45 0l97 690q85 9 234 9q114 0 164.5 -45.5t35.5 -157.5q-12 -81 -48 -123t-106 -51l-1 -5q57 -16 73 -101l44 -216h-90l-41 218q-7 38 -25.5 54t-52.5 16l-157 1l-41 -289h-86zM183 364h147q77 1 111.5 29.5t45.5 105.5q10 72 -14 98t-99 26q-115 0 -155 -1zM302 768 l191 146l41 -65l-206 -121z" />
<glyph unicode="&#x155;" horiz-adv-x="398" d="M35 0l69 487h65l-7 -113q127 125 224 125h25l-21 -80h-25q-40 0 -84 -24t-117 -80l-44 -315h-85zM206 588l191 146l41 -65l-206 -121z" />
<glyph unicode="&#x156;" horiz-adv-x="618" d="M45 0l97 690q85 9 234 9q114 0 164.5 -45.5t35.5 -157.5q-12 -81 -48 -123t-106 -51l-1 -5q57 -16 73 -101l44 -216h-90l-41 218q-7 38 -25.5 54t-52.5 16l-157 1l-41 -289h-86zM183 364h147q77 1 111.5 29.5t45.5 105.5q10 72 -14 98t-99 26q-115 0 -155 -1zM243 -261 q23 75 29 103q-12 -1 -18.5 5.5t-4.5 17.5l8 51q3 15 10 20.5t25 5.5h23q29 0 25 -29l-8 -55q-8 -59 -51 -132z" />
<glyph unicode="&#x157;" horiz-adv-x="398" d="M7 -261q23 67 30 103q-12 -1 -18.5 5.5t-5.5 17.5l8 51q3 15 10 20.5t25 5.5h24q30 0 24 -29l-8 -55q-6 -54 -50 -132zM35 0l69 487h65l-7 -113q127 125 224 125h25l-21 -80h-25q-40 0 -84 -24t-117 -80l-44 -315h-85z" />
<glyph unicode="&#x158;" horiz-adv-x="618" d="M45 0l97 690q85 9 234 9q114 0 164.5 -45.5t35.5 -157.5q-12 -81 -48 -123t-106 -51l-1 -5q57 -16 73 -101l44 -216h-90l-41 218q-7 38 -25.5 54t-52.5 16l-157 1l-41 -289h-86zM183 364h147q77 1 111.5 29.5t45.5 105.5q10 72 -14 98t-99 26q-115 0 -155 -1zM219 876 l34 32l114 -100h8l146 100l27 -37l-150 -127h-62z" />
<glyph unicode="&#x159;" horiz-adv-x="398" d="M35 0l69 487h65l-7 -113q127 125 224 125h25l-21 -80h-25q-40 0 -84 -24t-117 -80l-44 -315h-85zM123 696l34 32l113 -100h8l147 100l26 -37l-149 -127h-62z" />
<glyph unicode="&#x15a;" horiz-adv-x="560" d="M26 7l11 65q168 -6 200 -5q90 0 124.5 20t43.5 89q7 52 -7 72t-62 38l-137 51q-71 26 -96.5 71.5t-15.5 120.5q6 46 20.5 77.5t34 50.5t50.5 29t62 13t77 3q124 -2 204 -20l-9 -64q-113 5 -197 5q-34 0 -50.5 -0.5t-38.5 -5.5t-32 -15.5t-19.5 -30.5t-13.5 -51 q-7 -50 7 -70.5t62 -38.5l135 -50q76 -28 100.5 -71.5t13.5 -122.5q-15 -108 -71.5 -143.5t-185.5 -35.5q-107 0 -210 19zM276 768l192 146l41 -65l-206 -121z" />
<glyph unicode="&#x15b;" horiz-adv-x="506" d="M21 3l10 62q60 -5 156 -5q93 1 126 12t39 45q3 18 -4 30t-16 17.5t-32 15.5q-7 3 -11 5l-136 60q-54 25 -76.5 56t-16.5 83q9 68 57 92.5t147 22.5q111 -2 205 -15l-11 -61q-123 4 -192 5q-70 0 -94.5 -8t-28.5 -42q-4 -28 9 -41t50 -30l136 -60q60 -26 82 -55t15 -83 q-4 -32 -17 -54t-30.5 -35t-47 -20t-59 -9t-74.5 -2q-34 0 -60.5 1.5t-39.5 2.5t-41.5 4.5t-44.5 5.5zM232 588l192 146l41 -65l-207 -121z" />
<glyph unicode="&#x15e;" horiz-adv-x="560" d="M26 7l11 65q168 -6 200 -5q90 0 124.5 20t43.5 89q7 52 -7 72t-62 38l-137 51q-71 26 -96.5 71.5t-15.5 120.5q6 46 20.5 77.5t34 50.5t50.5 29t62 13t77 3q124 -2 204 -20l-9 -64q-113 5 -197 5q-34 0 -50.5 -0.5t-38.5 -5.5t-32 -15.5t-19.5 -30.5t-13.5 -51 q-7 -50 7 -70.5t62 -38.5l135 -50q76 -28 100.5 -71.5t13.5 -122.5q-15 -108 -71.5 -143.5t-185.5 -35.5q-107 0 -210 19zM116 -241l16 45q40 -1 69.5 19.5t35.5 53.5q3 17 -7 22.5t-46 5.5l10 40q62 6 87 -8.5t18 -59.5q-10 -62 -61 -94.5t-122 -23.5z" />
<glyph unicode="&#x15f;" horiz-adv-x="506" d="M21 3l10 62q60 -5 156 -5q93 1 126 12t39 45q3 18 -4 30t-16 17.5t-32 15.5q-7 3 -11 5l-136 60q-54 25 -76.5 56t-16.5 83q9 68 57 92.5t147 22.5q111 -2 205 -15l-11 -61q-123 4 -192 5q-70 0 -94.5 -8t-28.5 -42q-4 -28 9 -41t50 -30l136 -60q60 -26 82 -55t15 -83 q-4 -32 -17 -54t-30.5 -35t-47 -20t-59 -9t-74.5 -2q-34 0 -60.5 1.5t-39.5 2.5t-41.5 4.5t-44.5 5.5zM82 -240l16 45q40 -1 69.5 19.5t35.5 53.5q3 17 -7 22t-46 6l10 40q62 6 87 -9t17 -60q-10 -61 -60.5 -94t-121.5 -23z" />
<glyph unicode="&#x160;" horiz-adv-x="560" d="M26 7l11 65q168 -6 200 -5q90 0 124.5 20t43.5 89q7 52 -7 72t-62 38l-137 51q-71 26 -96.5 71.5t-15.5 120.5q6 46 20.5 77.5t34 50.5t50.5 29t62 13t77 3q124 -2 204 -20l-9 -64q-113 5 -197 5q-34 0 -50.5 -0.5t-38.5 -5.5t-32 -15.5t-19.5 -30.5t-13.5 -51 q-7 -50 7 -70.5t62 -38.5l135 -50q76 -28 100.5 -71.5t13.5 -122.5q-15 -108 -71.5 -143.5t-185.5 -35.5q-107 0 -210 19zM194 876l34 32l113 -100h8l147 100l26 -37l-150 -127h-61z" />
<glyph unicode="&#x161;" horiz-adv-x="506" d="M21 3l10 62q60 -5 156 -5q93 1 126 12t39 45q3 18 -4 30t-16 17.5t-32 15.5q-7 3 -11 5l-136 60q-54 25 -76.5 56t-16.5 83q9 68 57 92.5t147 22.5q111 -2 205 -15l-11 -61q-123 4 -192 5q-70 0 -94.5 -8t-28.5 -42q-4 -28 9 -41t50 -30l136 -60q60 -26 82 -55t15 -83 q-4 -32 -17 -54t-30.5 -35t-47 -20t-59 -9t-74.5 -2q-34 0 -60.5 1.5t-39.5 2.5t-41.5 4.5t-44.5 5.5zM149 696l35 32l113 -100h8l146 100l27 -37l-150 -127h-62z" />
<glyph unicode="&#x162;" d="M65 612l11 78h532l-10 -78h-223l-86 -612h-88l86 612h-222zM113 -229l16 45q40 -1 69.5 19.5t35.5 53.5q2 17 -8 22t-46 6l11 40q62 6 87 -9t17 -60q-11 -62 -61.5 -94.5t-120.5 -22.5z" />
<glyph unicode="&#x163;" horiz-adv-x="377" d="M42 -238l16 45q40 -1 69.5 19.5t35.5 53.5q3 17 -7 22t-46 6l10 40q62 6 87 -9t17 -60q-10 -62 -60.5 -94.5t-121.5 -22.5zM42 420l8 62l91 4l20 145h84l-20 -144h155l-10 -67h-155l-40 -288q-5 -35 7 -49t47 -14h76l3 -65q-46 -13 -109 -13t-91 35t-19 98l42 296h-89z " />
<glyph unicode="&#x164;" d="M65 612l11 78h532l-10 -78h-223l-86 -612h-88l86 612h-222zM204 876l35 32l113 -100h8l146 100l27 -37l-150 -127h-62z" />
<glyph unicode="&#x165;" horiz-adv-x="377" d="M42 420l8 62l91 4l20 145h84l-20 -144h155l-10 -67h-155l-40 -288q-5 -35 7 -49t47 -14h76l3 -65q-46 -13 -109 -13t-91 35t-19 98l42 296h-89zM293 568q21 60 29 103q-12 -1 -18.5 6t-4.5 18l8 50q3 15 10 20.5t25 5.5h23q29 0 25 -28l-8 -56q-8 -60 -51 -131z" />
<glyph unicode="&#x166;" d="M65 612l11 78h532l-10 -78h-223l-28 -195h148l-7 -49h-148l-51 -368h-88l52 368h-134l7 49h134l27 195h-222z" />
<glyph unicode="&#x167;" horiz-adv-x="377" d="M42 420l8 62l91 4l20 145h84l-20 -144h155l-10 -67h-155l-12 -90h133l-7 -49h-133l-21 -149q-5 -35 7 -49t47 -14h76l3 -65q-46 -13 -109 -13t-91 35t-19 98l22 157h-65l7 49h65l13 90h-89z" />
<glyph unicode="&#x16a;" horiz-adv-x="664" d="M78 267l58 423h89l-60 -427q-16 -111 13 -154t118 -43q92 0 136 45t60 156l58 423h89l-60 -427q-22 -150 -86 -213t-195 -63q-135 0 -188 65.5t-32 214.5zM262 786l9 63h279l-9 -63h-279z" />
<glyph unicode="&#x16b;" horiz-adv-x="567" d="M50 123l51 364h85l-49 -343q-7 -45 6.5 -64t51.5 -19q43 0 85 26t110 87l43 313h85l-68 -487h-66l7 106q-122 -119 -225 -119q-66 0 -96 36t-20 100zM189 610l9 63h279l-9 -63h-279z" />
<glyph unicode="&#x16e;" horiz-adv-x="664" d="M78 267l58 423h89l-60 -427q-16 -111 13 -154t118 -43q92 0 136 45t60 156l58 423h89l-60 -427q-22 -150 -86 -213t-195 -63q-135 0 -188 65.5t-32 214.5zM301 823q5 43 35 72t77 29q48 0 77 -30.5t23 -77.5q-5 -43 -35 -72t-77 -29q-49 0 -77 30.5t-23 77.5zM348 819 q-3 -28 12.5 -44.5t41.5 -16.5q27 0 44.5 18t19.5 45q3 26 -11.5 43t-41.5 17t-44.5 -17.5t-20.5 -44.5z" />
<glyph unicode="&#x16f;" horiz-adv-x="567" d="M50 123l51 364h85l-49 -343q-7 -45 6.5 -64t51.5 -19q43 0 85 26t110 87l43 313h85l-68 -487h-66l7 106q-122 -119 -225 -119q-66 0 -96 36t-20 100zM228 646q5 43 35 72.5t76 29.5q49 0 78 -31t23 -78q-5 -43 -35 -72t-77 -29q-49 0 -77 30.5t-23 77.5zM275 643 q-3 -28 12.5 -44.5t41.5 -16.5q27 0 44.5 18t19.5 45q3 26 -11.5 42.5t-41.5 16.5t-44.5 -17.5t-20.5 -43.5z" />
<glyph unicode="&#x170;" horiz-adv-x="664" d="M78 267l58 423h89l-60 -427q-16 -111 13 -154t118 -43q92 0 136 45t60 156l58 423h89l-60 -427q-22 -150 -86 -213t-195 -63q-135 0 -188 65.5t-32 214.5zM266 751l138 168l53 -38l-156 -159zM430 751l138 168l53 -38l-156 -159z" />
<glyph unicode="&#x171;" horiz-adv-x="567" d="M50 123l51 364h85l-49 -343q-7 -45 6.5 -64t51.5 -19q43 0 85 26t110 87l43 313h85l-68 -487h-66l7 106q-122 -119 -225 -119q-66 0 -96 36t-20 100zM192 575l139 168l53 -38l-156 -159zM357 575l138 168l53 -38l-156 -159z" />
<glyph unicode="&#x172;" horiz-adv-x="664" d="M78 267l58 423h89l-60 -427q-16 -111 13 -154t118 -43q92 0 136 45t60 156l58 423h89l-60 -427q-20 -142 -78 -205.5t-173 -69.5q-53 -55 -86 -114q-20 -35 -1 -45.5t69 5.5l10 -37q-38 -15 -68.5 -18.5t-48.5 3.5t-27.5 21t-8 33.5t12.5 40.5q27 55 102 111 q-125 3 -175 69t-29 210z" />
<glyph unicode="&#x173;" horiz-adv-x="567" d="M50 123l51 364h85l-49 -343q-7 -45 6.5 -64t51.5 -19q43 0 85 26t110 87l43 313h85l-68 -487q-55 -56 -89 -117q-20 -35 -0.5 -45.5t68.5 5.5l10 -37q-47 -19 -82.5 -19.5t-50.5 13.5t-19 36.5t12 49.5q30 57 107 114h-22l7 106q-122 -119 -225 -119q-66 0 -96 36 t-20 100z" />
<glyph unicode="&#x174;" horiz-adv-x="943" d="M83 690h90l32 -539q0 -5 3 -86h24q39 119 115.5 337.5t90.5 259.5q8 28 36 28h95q12 0 20.5 -9t9.5 -22l41 -509q4 -56 4 -85h25q39 124 116 351.5t92 273.5h92l-235 -666q-8 -24 -36 -24h-98q-13 0 -22 8t-10 21l-36 519q0 3 -2.5 32t-3.5 44h-21q-40 -117 -115 -335.5 t-91 -263.5q-8 -25 -36 -25h-97q-13 0 -22.5 8t-10.5 20zM374 768l148 127h61l124 -132l-32 -34l-120 101h-8l-148 -99z" />
<glyph unicode="&#x175;" horiz-adv-x="850" d="M45 487h88l69 -420h13q27 0 47 35q30 53 55 137q28 85 52 227q3 21 24 21h93q20 0 22 -20l49 -400h12q22 0 41 31q44 69 71 141q41 104 65 248h89q-37 -165 -89 -283q-47 -107 -86 -156q-20 -25 -39 -36.5t-47 -11.5h-56q-23 0 -27 23l-46 408h-13q-9 -89 -42 -199 t-71 -169q-36 -63 -107 -63h-50q-22 0 -27 23zM301 589l148 127h60l124 -132l-32 -34l-119 101h-8l-149 -99z" />
<glyph unicode="&#x176;" horiz-adv-x="565" d="M64 690h90l104 -293q15 -45 20 -78h8q15 40 41 81l186 290h96l-292 -449l-34 -241h-89l35 245zM183 769l148 127h61l124 -132l-32 -34l-119 101h-9l-148 -99z" />
<glyph unicode="&#x177;" horiz-adv-x="539" d="M35 -145q61 14 109.5 47t94.5 98h-44q-22 0 -37 12.5t-20 32.5l-94 442h89l77 -401q5 -19 23 -19h48l9.5 19t10.5 20q94 184 134 381h88q-53 -235 -148 -406q-77 -143 -150.5 -206t-173.5 -81zM132 589l148 127h61l123 -132l-31 -34l-120 101h-8l-149 -99z" />
<glyph unicode="&#x178;" horiz-adv-x="565" d="M64 690h90l104 -293q15 -45 20 -78h8q15 40 41 81l186 290h96l-292 -449l-34 -241h-89l35 245zM226 790l9 55q3 25 28 25h26q25 0 22 -25l-9 -54q-3 -24 -26 -24h-28q-25 0 -22 23zM395 790l9 55q3 25 28 25h26q25 0 22 -25l-9 -54q-3 -24 -26 -24h-28q-25 0 -22 23z" />
<glyph unicode="&#x179;" horiz-adv-x="562" d="M6 0l10 75l442 540h-361l11 75h459l-11 -75l-443 -540h374l-11 -75h-470zM284 768l192 146l41 -65l-206 -121z" />
<glyph unicode="&#x17a;" horiz-adv-x="504" d="M6 0l9 69l358 348h-304l9 70h403l-9 -70l-358 -348h312l-10 -69h-410zM221 588l192 146l41 -65l-206 -121z" />
<glyph unicode="&#x17b;" horiz-adv-x="562" d="M6 0l10 75l442 540h-361l11 75h459l-11 -75l-443 -540h374l-11 -75h-470zM314 786l8 57q3 24 27 24h27q28 0 25 -27l-8 -57q-4 -24 -27 -24h-27q-13 0 -20 7.5t-5 19.5z" />
<glyph unicode="&#x17c;" horiz-adv-x="504" d="M6 0l9 69l358 348h-304l9 70h403l-9 -70l-358 -348h312l-10 -69h-410zM251 606l8 57q3 24 26 24h28q28 0 25 -27l-8 -56q-4 -25 -27 -25h-28q-12 0 -18.5 7.5t-5.5 19.5z" />
<glyph unicode="&#x17d;" horiz-adv-x="562" d="M6 0l10 75l442 540h-361l11 75h459l-11 -75l-443 -540h374l-11 -75h-470zM202 876l34 32l113 -100h8l147 100l26 -37l-149 -127h-62z" />
<glyph unicode="&#x17e;" horiz-adv-x="504" d="M6 0l9 69l358 348h-304l9 70h403l-9 -70l-358 -348h312l-10 -69h-410zM139 696l34 32l113 -100h8l147 100l26 -37l-149 -127h-62z" />
<glyph unicode="&#x192;" horiz-adv-x="438" d="M-107 -139l16 64h66q44 0 67.5 19t34.5 64l75 323h-97l12 59l101 8l38 162q33 140 169 140q63 0 104 -6l-17 -64h-69q-46 0 -69.5 -17.5t-34.5 -65.5l-35 -149h142l-15 -67h-142l-79 -336q-16 -71 -54.5 -106t-109.5 -35q-65 0 -103 7z" />
<glyph unicode="&#x218;" horiz-adv-x="560" d="M26 7l11 65q168 -6 200 -5q90 0 124.5 20t43.5 89q7 52 -7 72t-62 38l-137 51q-71 26 -96.5 71.5t-15.5 120.5q6 46 20.5 77.5t34 50.5t50.5 29t62 13t77 3q124 -2 204 -20l-9 -64q-113 5 -197 5q-34 0 -50.5 -0.5t-38.5 -5.5t-32 -15.5t-19.5 -30.5t-13.5 -51 q-7 -50 7 -70.5t62 -38.5l135 -50q76 -28 100.5 -71.5t13.5 -122.5q-15 -108 -71.5 -143.5t-185.5 -35.5q-107 0 -210 19zM199 -261q23 67 30 103q-12 -1 -18.5 5.5t-5.5 17.5l8 51q3 15 10 20.5t25 5.5h24q30 0 24 -29l-8 -55q-8 -59 -51 -132z" />
<glyph unicode="&#x219;" horiz-adv-x="506" d="M21 3l10 62q60 -5 156 -5q93 1 126 12t39 45q3 18 -4 30t-16 17.5t-32 15.5q-7 3 -11 5l-136 60q-54 25 -76.5 56t-16.5 83q9 68 57 92.5t147 22.5q111 -2 205 -15l-11 -61q-123 4 -192 5q-70 0 -94.5 -8t-28.5 -42q-4 -28 9 -41t50 -30l136 -60q60 -26 82 -55t15 -83 q-4 -32 -17 -54t-30.5 -35t-47 -20t-59 -9t-74.5 -2q-34 0 -60.5 1.5t-39.5 2.5t-41.5 4.5t-44.5 5.5zM153 -261q23 75 29 103q-12 -1 -18.5 5.5t-4.5 17.5l8 51q3 15 10 20.5t25 5.5h23q29 0 25 -29l-8 -55q-8 -59 -51 -132z" />
<glyph unicode="&#x21a;" d="M65 612l11 78h532l-10 -78h-223l-86 -612h-88l86 612h-222zM179 -261q23 67 30 103q-12 -1 -18.5 5.5t-5.5 17.5l8 51q3 15 10 20.5t25 5.5h24q30 0 24 -29l-8 -55q-6 -54 -50 -132z" />
<glyph unicode="&#x21b;" horiz-adv-x="377" d="M42 420l8 62l91 4l20 145h84l-20 -144h155l-10 -67h-155l-40 -288q-5 -35 7 -49t47 -14h76l3 -65q-46 -13 -109 -13t-91 35t-19 98l42 296h-89zM123 -261q23 75 29 103q-12 -1 -18.5 5.5t-4.5 17.5l8 51q3 15 10 20.5t25 5.5h23q29 0 25 -29l-8 -55q-8 -59 -51 -132z" />
<glyph unicode="&#x2c6;" horiz-adv-x="420" d="M96 586l149 127h60l124 -133l-32 -33l-119 101h-8l-149 -100z" />
<glyph unicode="&#x2c7;" horiz-adv-x="420" d="M108 693l35 31l113 -99h8l146 99l27 -36l-150 -128h-62z" />
<glyph unicode="&#x2d8;" horiz-adv-x="375" d="M101 691l44 4q-5 -36 19.5 -55t72.5 -19q51 0 83 21t37 56l43 -10q-5 -59 -49 -94.5t-114 -35.5q-73 0 -110.5 37.5t-25.5 95.5z" />
<glyph unicode="&#x2d9;" horiz-adv-x="221" d="M122 604l7 57q3 24 27 24h28q12 0 19 -7.5t5 -19.5l-8 -56q-3 -25 -27 -25h-27q-13 0 -19.5 7.5t-4.5 19.5z" />
<glyph unicode="&#x2da;" horiz-adv-x="300" d="M99 640q5 43 35.5 72.5t76.5 29.5q48 0 77.5 -31t23.5 -78q-6 -43 -36 -72t-76 -29q-49 0 -77.5 30.5t-23.5 77.5zM147 637q-4 -28 12 -44.5t41 -16.5q26 0 44 17.5t21 45.5q2 26 -12 42.5t-41 16.5q-28 0 -45.5 -17.5t-19.5 -43.5z" />
<glyph unicode="&#x2db;" horiz-adv-x="252" d="M-4 -114q32 59 111 117l40 -3q-52 -54 -88 -117q-20 -35 -1 -45.5t68 5.5l11 -37q-38 -15 -69 -18.5t-49 3.5t-27 21t-8 33.5t12 40.5z" />
<glyph unicode="&#x2dc;" horiz-adv-x="419" d="M100 587q2 58 27.5 86.5t62.5 25.5q33 -3 74 -27.5t66 -27.5q29 -4 43 9t18 43l40 -3q-1 -55 -26 -84.5t-63 -26.5t-81 29t-61 28q-28 3 -42 -11t-18 -45z" />
<glyph unicode="&#x2dd;" horiz-adv-x="454" d="M100 560l139 169l52 -38l-155 -159zM265 560l138 169l53 -38l-156 -159z" />
<glyph unicode="&#x394;" horiz-adv-x="627" d="M-13 0l4 37l336 653h88l152 -653l-5 -37h-575zM101 72h371l-99 456q-8 40 -12 77q-14 -40 -33 -79z" />
<glyph unicode="&#x3a9;" horiz-adv-x="715" d="M10 0l11 77h102q36 0 66 -5q-64 59 -90 131.5t-11 173.5q22 165 99 245.5t224 80.5q287 0 240 -335q-16 -109 -58 -175t-129 -122q26 6 64 6h106l-10 -77h-250l8 75q83 53 122.5 118.5t53.5 170.5q20 140 -14.5 200.5t-135.5 60.5q-105 0 -158 -62.5t-73 -206.5 q-15 -108 6 -167.5t87 -115.5l-10 -73h-250z" />
<glyph unicode="&#x3bc;" horiz-adv-x="592" d="M16 -201q47 338 96 688h85l-49 -343q-5 -40 11.5 -58t57.5 -18q67 0 180 64l49 355h85l-69 -487h-65l2 73q-117 -86 -203 -86q-48 0 -83 25q2 -44 -3 -73l-19 -140h-75z" />
<glyph unicode="&#x3c0;" horiz-adv-x="639" d="M44 418l9 69h588l-10 -69h-94l-59 -418h-84l58 418h-230l-58 -418h-85l59 418h-94z" />
<glyph unicode="&#x401;" horiz-adv-x="558" d="M58 137l61 436q8 56 45 87t100 31q206 0 298 -6l-12 -69h-275q-34 0 -50 -16t-21 -52l-21 -150h297l-9 -68h-297l-26 -191q-5 -34 8 -49.5t47 -15.5h270l-2 -69q-88 -6 -279 -6q-75 0 -109 36.5t-25 101.5zM257 811l9 55q3 24 28 24h25q15 0 20 -5.5t3 -18.5l-9 -54 q-3 -24 -26 -24h-28q-25 0 -22 23zM426 811l9 55q3 24 28 24h25q15 0 20 -5.5t3 -18.5l-9 -54q-3 -24 -26 -24h-28q-25 0 -22 23z" />
<glyph unicode="&#x402;" horiz-adv-x="747" d="M66 612l11 78h532l-10 -78h-224l-33 -239q100 69 211 69q81 0 120.5 -47.5t22.5 -165.5q-19 -131 -91 -184t-195 -49l-4 64q98 7 143 41.5t60 125.5q13 84 -8.5 111.5t-72.5 27.5q-52 0 -94.5 -15.5t-102.5 -53.5l-42 -297h-87l86 612h-222z" />
<glyph unicode="&#x403;" horiz-adv-x="515" d="M43 0l79 563q9 63 46.5 95.5t92.5 32.5q199 0 288 -7l-12 -68h-250q-40 0 -57 -15.5t-23 -57.5l-76 -543h-88zM294 768l191 146l41 -65l-206 -121z" />
<glyph unicode="&#x404;" horiz-adv-x="572" d="M68 348q27 201 101.5 277.5t232.5 76.5q103 0 178 -21l-14 -67q-76 9 -158 9q-115 0 -166 -45t-76 -180h294l-8 -68h-296q-19 -150 11 -204t133 -59q92 -4 192 11l5 -68q-99 -26 -198 -22q-156 6 -206.5 86.5t-24.5 273.5z" />
<glyph unicode="&#x405;" horiz-adv-x="560" d="M26 7l11 65q168 -6 200 -5q90 0 124.5 20t43.5 89q7 52 -7 72t-62 38l-137 51q-71 26 -96.5 71.5t-15.5 120.5q6 46 20.5 77.5t34 50.5t50.5 29t62 13t77 3q124 -2 204 -20l-9 -64q-113 5 -197 5q-34 0 -50.5 -0.5t-38.5 -5.5t-32 -15.5t-19.5 -30.5t-13.5 -51 q-7 -50 7 -70.5t62 -38.5l135 -50q76 -28 100.5 -71.5t13.5 -122.5q-15 -108 -71.5 -143.5t-185.5 -35.5q-107 0 -210 19z" />
<glyph unicode="&#x406;" horiz-adv-x="260" d="M45 0l97 690h89l-97 -690h-89z" />
<glyph unicode="&#x407;" horiz-adv-x="261" d="M45 0l97 690h89l-97 -690h-89zM77 790l9 55q4 25 28 25h26q14 0 19 -6t3 -19l-9 -54q-1 -24 -26 -24h-28q-23 0 -22 23zM246 790l9 55q4 25 28 25h26q14 0 19 -6t3 -19l-9 -54q-1 -24 -26 -24h-28q-23 0 -22 23z" />
<glyph unicode="&#x408;" horiz-adv-x="339" d="M-9 4l17 62h47q81 0 92 77l76 547h89l-78 -547q-10 -75 -48.5 -113.5t-101.5 -38.5q-52 0 -93 13z" />
<glyph unicode="&#x409;" horiz-adv-x="972" d="M-9 76q71 16 116 80q9 13 16 26.5t13 24.5t12.5 29t11 29t11 35.5t10 37.5t11 46.5t11.5 50t14 61t15 68.5q15 65 50.5 95.5t97.5 30.5h235l-39 -278h140q125 0 170 -48.5t29 -167.5q-16 -118 -68.5 -161t-168.5 -43q-160 0 -247 8l87 618h-115q-39 0 -58 -16t-28 -58 q-5 -23 -17 -75.5l-16 -70t-13.5 -56.5t-14.5 -54t-13.5 -43.5t-16 -44.5t-17.5 -36t-22 -38q-73 -113 -192 -127zM528 70l127 -1q92 0 126 26.5t46 109.5q12 77 -11 105.5t-105 28.5h-145z" />
<glyph unicode="&#x40a;" horiz-adv-x="976" d="M46 0l97 690h88l-39 -280h301l39 280h87l-39 -279h141q125 0 170 -48.5t28 -166.5q-15 -118 -67.5 -161t-169.5 -43q-160 0 -247 8l48 338h-301l-48 -338h-88zM532 70q37 -1 138 -1q85 0 117.5 27.5t44.5 108.5q11 77 -11.5 105.5t-105.5 28.5h-145z" />
<glyph unicode="&#x40b;" horiz-adv-x="769" d="M65 612l11 78h532l-10 -78h-223l-35 -245q119 75 234 75q163 0 141 -157l-40 -285h-87l37 270q8 53 -10 74t-71 21q-55 0 -102 -17t-113 -59l-40 -289h-88l86 612h-222z" />
<glyph unicode="&#x40c;" horiz-adv-x="597" d="M45 0l97 690h88l-31 -217q-6 -41 -16 -78h72q24 0 45.5 7.5t39 18.5t36 32.5t32 40t32 51.5t30.5 56.5t33 64.5l12 24h91q-81 -168 -117 -221q-69 -100 -154 -109l-1 -3q56 -7 91 -51t49 -92t40 -165q7 -32 11 -49h-88q-37 171 -50 209q-31 88 -88 108q-22 7 -49 7h-77 q1 -32 -6 -75l-34 -249h-88zM306 768l191 146l41 -65l-206 -121z" />
<glyph unicode="&#x40d;" horiz-adv-x="690" d="M45 0l97 690h86l-68 -479q-9 -61 -20 -101h4q16 28 50 78l370 502h95l-97 -690h-84l67 479q5 37 19 101h-4q-40 -66 -46 -75l-373 -505h-96zM246 853l46 60l169 -147l-30 -38z" />
<glyph unicode="&#x40e;" horiz-adv-x="562" d="M45 8l14 64q35 -3 55.5 -4.5t40 2.5t29 8.5t23 20t22 29t25.5 44.5l17 29h-35q-53 0 -64 49l-97 440h88l83 -401q3 -14 19 -14h43l202 415h94l-258 -522q-39 -81 -79.5 -125.5t-96.5 -49.5q-67 -4 -125 15zM210 879l45 3q-5 -35 19.5 -54t71.5 -19q52 0 84.5 20.5 t36.5 56.5l43 -11q-5 -58 -49 -93.5t-114 -35.5q-74 0 -111.5 37t-25.5 96z" />
<glyph unicode="&#x40f;" horiz-adv-x="674" d="M46 0l97 690h88l-87 -618h324l87 618h88l-97 -690h-207l-25 -151h-61l17 151h-224z" />
<glyph unicode="&#x410;" horiz-adv-x="619" d="M-30 0l316 667q7 23 34 23h92q12 0 20.5 -7.5t9.5 -18.5l129 -664h-88l-37 215h-285l-98 -215h-93zM196 292h236l-48 272q-1 9 -3.5 29t-4.5 30h-30q-29 -66 -85.5 -189.5t-64.5 -141.5z" />
<glyph unicode="&#x411;" horiz-adv-x="596" d="M45 0l97 690q106 6 213 6q105 0 211 -6l-18 -74h-328l-32 -223h144q127 0 172 -45.5t29 -158.5q-17 -115 -69 -156.5t-169 -41.5q-150 0 -250 9zM142 68q38 -1 142 -1q85 0 117.5 26t43.5 105q10 76 -12 101t-106 25h-148z" />
<glyph unicode="&#x412;" horiz-adv-x="618" d="M45 0l97 690q80 8 221 8q127 0 175 -39.5t33 -143.5q-11 -75 -43 -112.5t-95 -43.5l-1 -4q138 -12 112 -186q-16 -105 -67.5 -141t-171.5 -36q-170 0 -260 8zM141 68q40 -1 151 -1q86 0 121 25t45 98q11 78 -16 105t-113 29h-152zM187 391h146q77 1 110 26t43 94 q9 69 -17.5 90.5t-109.5 21.5h-140z" />
<glyph unicode="&#x413;" horiz-adv-x="515" d="M43 0l79 563q9 63 46.5 95.5t92.5 32.5q199 0 288 -7l-12 -68h-250q-40 0 -57 -15.5t-23 -57.5l-76 -543h-88z" />
<glyph unicode="&#x414;" horiz-adv-x="689" d="M-41 -151l22 152l9 71h64q65 104 105 224.5t68 267.5q6 31 18.5 54.5t31 39.5t43.5 24t56 8h255l-87 -618h85q-3 -23 -31 -223h-68l13 151h-486l-30 -151h-68zM150 72h307l76 546h-138q-37 0 -57 -17.5t-27 -55.5q-57 -302 -161 -473z" />
<glyph unicode="&#x415;" horiz-adv-x="558" d="M58 137l61 436q8 56 45 87t100 31q206 0 298 -6l-12 -69h-275q-34 0 -50 -16t-21 -52l-21 -150h297l-9 -68h-297l-26 -191q-5 -34 8 -49.5t47 -15.5h270l-2 -69q-88 -6 -279 -6q-75 0 -109 36.5t-25 101.5z" />
<glyph unicode="&#x416;" horiz-adv-x="903" d="M-9 0q89 190 125 245q62 96 139 112q10 2 21 3l1 3q-26 4 -46.5 15.5t-37 37t-27.5 47t-22.5 66.5t-18 73t-18.5 88h85q2 -11 7 -32q11 -50 16.5 -74t16 -61t20.5 -55t25 -38t33.5 -27.5t42.5 -7.5h81q-1 35 5 81l30 214h84l-31 -217q-7 -47 -15 -78h70q36 0 66 17.5 t62 65t50 80.5t58 114l9 18h90q-6 -12 -16 -35q-73 -157 -111 -209q-58 -78 -133 -86l-1 -3q32 -4 56 -21t39.5 -40t30 -68.5t23.5 -84.5t24 -109q5 -23 7 -34h-87q-39 178 -49 209q-28 89 -79 108q-19 7 -43 7h-78q0 -43 -4 -75l-35 -249h-85l36 252q7 39 16 72h-74 q-38 0 -68 -16t-59.5 -56.5t-52.5 -83.5t-63 -123q-14 -29 -22 -45h-93z" />
<glyph unicode="&#x417;" horiz-adv-x="547" d="M-1 15l12 63q108 -13 210 -13q82 0 117.5 25.5t46.5 99.5q10 78 -17 105.5t-110 27.5h-118l8 69h114q74 0 107 25.5t43 93.5q10 71 -15 93t-108 22q-64 0 -182 -11l-3 67q84 16 191 16q120 0 169.5 -40.5t35.5 -142.5q-11 -75 -42.5 -112.5t-94.5 -43.5l-2 -4 q136 -13 111 -186q-14 -103 -64.5 -140t-172.5 -37q-140 0 -236 23z" />
<glyph unicode="&#x418;" horiz-adv-x="690" d="M45 0l97 690h86l-68 -479q-9 -61 -20 -101h4q16 28 50 78l370 502h95l-97 -690h-84l67 479q5 37 19 101h-4q-40 -66 -46 -75l-373 -505h-96z" />
<glyph unicode="&#x419;" horiz-adv-x="690" d="M45 0l97 690h86l-68 -479q-9 -61 -20 -101h4q16 28 50 78l370 502h95l-97 -690h-84l67 479q5 37 19 101h-4q-40 -66 -46 -75l-373 -505h-96zM278 882h65q-15 -89 77 -89q83 0 93 89h65q-5 -61 -49 -98.5t-114 -37.5q-73 0 -111 37.5t-26 98.5z" />
<glyph unicode="&#x41a;" horiz-adv-x="597" d="M45 0l97 690h88l-31 -217q-6 -41 -16 -78h72q24 0 45.5 7.5t39 18.5t36 32.5t32 40t32 51.5t30.5 56.5t33 64.5l12 24h91q-81 -168 -117 -221q-69 -100 -154 -109l-1 -3q56 -7 91 -51t49 -92t40 -165q7 -32 11 -49h-88q-37 171 -50 209q-31 88 -88 108q-22 7 -49 7h-77 q1 -32 -6 -75l-34 -249h-88z" />
<glyph unicode="&#x41b;" horiz-adv-x="650" d="M-24 70q36 12 62.5 30t52.5 58q38 58 59.5 130.5t65.5 278.5q28 123 153 123h250l-97 -690h-87l86 618h-134q-39 0 -58.5 -16t-28.5 -58q-45 -201 -67.5 -276.5t-61.5 -141.5q-73 -125 -192 -127z" />
<glyph unicode="&#x41c;" horiz-adv-x="876" d="M32 0l119 655q6 35 39 35h97q28 0 33 -32l74 -420q3 -15 13 -94h19q13 33 39 93l187 424q12 28 41 29h98q37 0 34 -39l-63 -651h-88l64 617h-20l-225 -510q-12 -29 -41 -29h-79q-31 0 -37 32l-87 507h-20l-110 -617h-87z" />
<glyph unicode="&#x41d;" horiz-adv-x="666" d="M45 0l97 690h89l-40 -284h318l40 284h87l-97 -690h-87l46 330h-318l-46 -330h-89z" />
<glyph unicode="&#x41e;" horiz-adv-x="666" d="M68 348q27 196 97.5 275.5t221.5 79.5q145 0 199 -82.5t26 -278.5q-27 -199 -97 -277t-218 -78q-146 0 -201 81.5t-28 279.5zM160 342q-22 -157 7.5 -216.5t131.5 -59.5q103 0 151 61t71 221t-6.5 218t-132.5 58q-105 0 -152.5 -60t-69.5 -222z" />
<glyph unicode="&#x41f;" horiz-adv-x="668" d="M45 0l97 690h496l-97 -690h-88l87 618h-319l-87 -618h-89z" />
<glyph unicode="&#x420;" horiz-adv-x="588" d="M45 0l97 690q85 9 234 9q121 0 166.5 -49.5t28.5 -169.5q-18 -128 -70 -170.5t-174 -42.5q-83 0 -155 10l-39 -277h-88zM181 343h143q82 0 114.5 29.5t45.5 114.5q12 80 -12.5 108t-98.5 28q-113 0 -153 -1z" />
<glyph unicode="&#x421;" horiz-adv-x="566" d="M68 348q28 197 97.5 275.5t217.5 78.5q111 0 188 -21l-14 -66q-88 9 -175 9q-104 0 -152 -58.5t-70 -223.5q-22 -156 7 -215.5t127 -60.5q107 0 197 11l5 -67q-83 -22 -203 -22q-148 0 -200 84.5t-25 275.5z" />
<glyph unicode="&#x422;" d="M65 612l11 78h532l-10 -78h-223l-86 -612h-88l86 612h-222z" />
<glyph unicode="&#x423;" horiz-adv-x="562" d="M45 8l14 64q35 -3 55.5 -4.5t40 2.5t29 8.5t23 20t22 29t25.5 44.5l17 29h-35q-53 0 -64 49l-97 440h88l83 -401q3 -14 19 -14h43l202 415h94l-258 -522q-39 -81 -79.5 -125.5t-96.5 -49.5q-67 -4 -125 15z" />
<glyph unicode="&#x424;" horiz-adv-x="819" d="M61 356q22 153 101.5 217t254.5 69l13 98h89l-14 -98q169 -8 232.5 -74.5t41.5 -219.5q-22 -154 -101 -217.5t-255 -69.5l-14 -98h-87l13 99q-172 7 -234 73t-40 221zM150 348q-16 -118 26 -163t173 -50l61 433q-131 -5 -187.5 -53t-72.5 -167zM430 136q130 5 186.5 53 t73.5 167q17 117 -26 162.5t-173 49.5z" />
<glyph unicode="&#x425;" horiz-adv-x="609" d="M-18 0l246 357l-134 333h90l116 -298h28l205 298h97l-230 -333l145 -357h-90l-127 324h-27l-217 -324h-102z" />
<glyph unicode="&#x426;" horiz-adv-x="687" d="M46 0l97 690h88l-87 -618h312l87 618h87l-87 -618h85q-5 -35 -31 -223h-68l13 151h-496z" />
<glyph unicode="&#x427;" horiz-adv-x="622" d="M74 410l39 280h88l-36 -267q-8 -51 9.5 -72t68.5 -21q55 0 105 18t116 57l40 285h88l-97 -690h-88l47 331q-127 -80 -242 -80q-81 0 -115 38.5t-23 120.5z" />
<glyph unicode="&#x428;" horiz-adv-x="928" d="M45 0l97 690h86l-86 -618h248l87 618h86l-87 -618h249l86 618h87l-97 -690h-756z" />
<glyph unicode="&#x429;" horiz-adv-x="949" d="M46 0l97 690h86l-87 -618h245l87 618h87l-87 -618h245l87 618h85l-86 -618h84q-5 -35 -31 -223h-68l13 151h-757z" />
<glyph unicode="&#x42a;" horiz-adv-x="740" d="M64 612l11 78h307l-39 -278h141q125 0 170 -48.5t29 -167.5q-15 -118 -67.5 -161t-169.5 -43q-161 0 -249 8l86 612h-219zM294 70q38 -1 139 -1q86 0 118.5 27.5t44.5 108.5q11 77 -11.5 105.5t-105.5 28.5h-147z" />
<glyph unicode="&#x42b;" horiz-adv-x="846" d="M45 0l97 690h89l-39 -278h143q125 0 170 -48.5t29 -167.5q-16 -118 -68.5 -161t-168.5 -43q-163 0 -252 8zM143 70q38 -1 141 -1q85 0 117.5 27.5t44.5 108.5q11 77 -11.5 105.5t-105.5 28.5h-148zM630 0l97 690h88l-97 -690h-88z" />
<glyph unicode="&#x42c;" horiz-adv-x="591" d="M45 0l97 690h89l-39 -278h143q125 0 170 -48.5t29 -167.5q-16 -118 -68.5 -161t-168.5 -43q-163 0 -252 8zM143 70q38 -1 141 -1q85 0 117.5 27.5t44.5 108.5q11 77 -11.5 105.5t-105.5 28.5h-148z" />
<glyph unicode="&#x42d;" horiz-adv-x="574" d="M2 12l14 66q86 -15 184 -11q106 5 155.5 61.5t73.5 202.5h-298l9 67h298q9 58 3 98.5t-15.5 65t-34.5 38.5t-52.5 18.5t-70.5 4.5q-88 0 -165 -9l-5 68q80 20 177 20q161 0 217 -79.5t29 -280.5q-18 -133 -56 -208.5t-100.5 -109t-165.5 -36.5q-105 -3 -197 24z" />
<glyph unicode="&#x42e;" horiz-adv-x="924" d="M46 0l97 690h88l-41 -296h157q30 172 97 240.5t199 68.5q145 0 200 -81.5t27 -279.5q-28 -201 -97.5 -278t-219.5 -77q-140 0 -189.5 75.5t-26.5 260.5h-157l-46 -323h-88zM426 342q-22 -157 5.5 -216.5t122.5 -59.5q104 0 153.5 61.5t71.5 220.5q22 158 -7 217t-129 59 t-147.5 -61.5t-69.5 -220.5z" />
<glyph unicode="&#x42f;" horiz-adv-x="611" d="M1 0l92 213q45 92 110 99l1 4q-64 11 -89.5 67t-14.5 131q14 101 71 143t168 42q140 0 242 -9l-97 -690h-89l40 281l-147 -1q-38 0 -62.5 -17t-41.5 -57l-87 -206h-96zM189 502q-11 -71 13.5 -108.5t92.5 -37.5h150l38 266q-38 1 -143 1q-72 0 -106.5 -26.5t-44.5 -94.5z " />
<glyph unicode="&#x430;" horiz-adv-x="576" d="M52 249q12 81 31.5 131.5t51.5 76t68 34t93 8.5q108 0 228 -23l-67 -476h-67l6 98q-94 -110 -216 -110q-89 0 -119 58.5t-9 202.5zM138 242q-16 -110 -4 -145t63 -35q86 0 198 109l37 254q-74 3 -111 3q-101 0 -133.5 -32.5t-49.5 -153.5z" />
<glyph unicode="&#x431;" horiz-adv-x="571" d="M71 305q13 88 26 141.5t38 101.5t64.5 76.5t99.5 46.5q29 8 106 21t131 35l10 -75q-55 -23 -127 -33.5t-92 -15.5q-78 -20 -110 -57.5t-53 -108.5q-2 -5 -9.5 -31.5t-10.5 -37.5h2q17 29 35 48.5t60 37.5t98 18q111 0 147 -60t22 -177q-16 -129 -73.5 -188t-176.5 -59 q-54 0 -92.5 10.5t-60 33.5t-33.5 48t-13 66t2 74t10 85zM150 234q-14 -97 10 -135.5t100 -38.5q72 0 108.5 39t51.5 142q13 93 -8.5 126t-93.5 33q-87 0 -121.5 -39.5t-46.5 -126.5z" />
<glyph unicode="&#x432;" horiz-adv-x="546" d="M51 249q12 81 31 130t51.5 76t71 35.5t101.5 8.5q33 0 57 -2t52.5 -9.5t45 -21.5t25 -39.5t1.5 -61.5q-20 -90 -129 -101l-1 -3q70 -4 96.5 -39.5t16.5 -104.5q-11 -73 -60.5 -101.5t-163.5 -28.5q-45 0 -77 4t-57.5 15t-40 29.5t-22.5 48t-7 70t9 95.5zM130 213 q-4 -36 -4.5 -60.5t4 -42.5t12 -28t22 -16t30.5 -7.5t42 -1.5q78 0 111 17t40 67q6 52 -20 74t-101 13zM139 274l130 15q73 8 100.5 25.5t35.5 50.5q9 39 -15.5 52.5t-94.5 13.5q-78 0 -108.5 -28t-47.5 -129z" />
<glyph unicode="&#x433;" horiz-adv-x="518" d="M27 118q6 49 37 80t93 55l136 51q49 17 70 35t23 43q4 30 -20 39.5t-95 6.5q-79 -4 -193 -28l-2 67q89 27 202 32q37 4 73 0.5t64 -13t43 -35.5t10 -67q-4 -35 -19.5 -61.5t-42 -44t-40 -24t-40.5 -16.5l-146 -56q-35 -15 -50.5 -29t-17.5 -37q-5 -34 17 -44.5t73 -10.5 q122 3 236 39l3 -69q-112 -44 -238 -44q-91 0 -138 30.5t-38 100.5z" />
<glyph unicode="&#x434;" horiz-adv-x="565" d="M52 222q15 110 69 168t157 58q91 0 144 -55q0 49 -8.5 86.5t-27.5 63.5t-40 43.5t-56 29.5t-64.5 19t-74.5 14l13 62q43 -5 79 -12.5t72 -20t63.5 -29.5t53 -41.5t40.5 -55.5t26 -72t10 -90.5t-8 -110.5q-20 -146 -77 -219t-184 -73q-113 0 -158 57.5t-29 177.5zM141 216 q-13 -86 11.5 -121.5t90.5 -35.5q81 0 117.5 53.5t53.5 178.5q4 33 5 46q-51 40 -123 40q-73 0 -108.5 -40t-46.5 -121z" />
<glyph unicode="&#x435;" horiz-adv-x="537" d="M48 255q20 142 77.5 193t188.5 51q111 0 152.5 -38.5t28.5 -117.5q-12 -69 -54.5 -99t-130.5 -37l-180 -16q-2 -77 29 -104t101 -27q86 0 179 12l6 -57q-69 -27 -199 -27q-125 0 -171 64t-27 203zM136 254l173 17q50 4 72.5 20.5t29.5 58.5q8 51 -16 64.5t-92 13.5 q-82 0 -116 -33.5t-51 -140.5z" />
<glyph unicode="&#x436;" horiz-adv-x="757" d="M-8 0q76 142 97 172q46 65 107 79q11 3 23 4l1 2q-28 4 -48.5 16.5t-33.5 27.5t-25 48.5t-18.5 59t-18.5 78.5h81q11 -47 17.5 -70.5t18 -54t23 -44t30 -23.5t42.5 -10h60q-1 25 2 58l21 144h76l-21 -147q-6 -36 -11 -55h48q55 0 93.5 45t98.5 157h85q-36 -70 -52.5 -99 t-43.5 -65.5t-53.5 -50.5t-61.5 -18l-1 -3q64 -7 89 -51t58 -171q5 -19 8 -29h-81q-2 10 -7 28q-30 119 -50 150q-26 42 -81 43h-60q1 -24 -2 -50l-24 -171h-76l25 175q3 20 11 46h-58q-30 0 -51.5 -9t-48.5 -44t-40.5 -58t-53.5 -96q-5 -9 -8 -14h-86z" />
<glyph unicode="&#x437;" horiz-adv-x="497" d="M-1 6l12 65q86 -8 181 -8q82 0 109.5 14.5t34.5 63.5q6 44 -18 59.5t-96 16.5l-118 2l7 61h114q68 0 95 16.5t34 61.5q6 42 -17 54t-106 12q-81 0 -153 -8l-3 64q61 15 156 15q121 0 168.5 -27.5t37.5 -105.5q-8 -54 -34.5 -80t-84.5 -31l-1 -3q63 -5 87.5 -36.5 t15.5 -94.5q-11 -77 -58.5 -101.5t-164.5 -24.5q-115 0 -198 15z" />
<glyph unicode="&#x438;" horiz-adv-x="570" d="M51 123l51 364h85l-48 -343q-7 -45 6.5 -64t51.5 -19q42 0 84 25.5t111 87.5l43 313h84l-68 -487h-65l7 106q-124 -119 -225 -119q-66 0 -96 36t-21 100z" />
<glyph unicode="&#x439;" horiz-adv-x="570" d="M51 123l51 364h85l-48 -343q-7 -45 6.5 -64t51.5 -19q42 0 84 25.5t111 87.5l43 313h84l-68 -487h-65l7 106q-124 -119 -225 -119q-66 0 -96 36t-21 100zM190 702h65q-15 -89 77 -89q83 0 93 89h65q-5 -61 -49 -98.5t-114 -37.5q-73 0 -111 37.5t-26 98.5z" />
<glyph unicode="&#x43a;" horiz-adv-x="532" d="M37 0l68 487h85l-20 -146q-3 -18 -13 -55h66q28 0 51.5 10t40.5 23t37.5 43t33.5 53.5t37 70.5h91q-27 -53 -42 -80t-37 -60t-40 -48.5t-43 -27.5t-55 -16l-2 -3q30 -2 51.5 -12t36 -27t26 -43t21 -59.5t21.5 -77.5q5 -21 8 -32h-85q-34 129 -48 158q-26 52 -78 60 q-11 2 -25 2h-75q0 -31 -2 -50l-25 -170h-84z" />
<glyph unicode="&#x43b;" horiz-adv-x="562" d="M-14 64q28 7 40.5 11.5t28.5 18.5t27 38q32 62 81 245q15 57 45.5 83.5t86.5 26.5h217l-69 -487h-85l60 420h-103q-31 0 -48 -14.5t-26 -49.5q-39 -160 -83 -257q-45 -102 -166 -104z" />
<glyph unicode="&#x43c;" horiz-adv-x="744" d="M27 0l83 456q4 31 35 31h87q25 0 30 -29l61 -274q11 -46 14 -75h16q3 7 13.5 32.5t17.5 39.5l141 280q12 26 36 26h88q15 0 23.5 -9.5t6.5 -24.5l-43 -453h-78l40 422h-17l-170 -343q-12 -26 -35 -26h-70q-25 0 -30 29l-76 340h-18l-77 -422h-78z" />
<glyph unicode="&#x43d;" horiz-adv-x="579" d="M37 0l68 487h84l-27 -196h255l28 196h84l-69 -487h-84l32 226h-255l-32 -226h-84z" />
<glyph unicode="&#x43e;" horiz-adv-x="567" d="M48 246q19 138 77.5 195.5t182.5 57.5t171 -60t27 -200q-19 -138 -78 -195t-181 -57q-124 0 -171 60t-28 199zM136 239q-14 -104 9 -142t102 -38q82 0 119 40t52 147q15 105 -8.5 143t-101.5 38q-81 0 -119 -39.5t-53 -148.5z" />
<glyph unicode="&#x43f;" horiz-adv-x="581" d="M37 0l68 487h68l-7 -107q136 119 235 119q63 0 94 -34.5t21 -100.5l-52 -364h-84l48 343q6 48 -5.5 66t-47.5 18q-43 0 -89.5 -26t-120.5 -84l-43 -317h-85z" />
<glyph unicode="&#x440;" horiz-adv-x="578" d="M8 -203l98 690h67l-7 -108q49 50 109.5 85t110.5 35q87 0 116.5 -57t8.5 -204q-11 -81 -30.5 -131.5t-51 -76.5t-66.5 -34.5t-90 -8.5q-71 0 -155 13q-2 -58 -8 -93l-17 -110h-85zM132 60q72 -3 110 -3q101 0 133.5 33t49.5 154q15 111 3.5 146t-61.5 35 q-36 0 -90.5 -29.5t-109.5 -81.5z" />
<glyph unicode="&#x441;" horiz-adv-x="487" d="M48 247q20 140 78.5 196t182.5 56q97 0 156 -24l-13 -53q-55 5 -129 5q-92 0 -132.5 -38t-54.5 -149q-14 -110 12.5 -145t113.5 -35q83 0 147 10l5 -58q-75 -24 -167 -24q-128 0 -173.5 59.5t-25.5 199.5z" />
<glyph unicode="&#x442;" horiz-adv-x="875" d="M37 0l68 487h66l-7 -106q118 118 213 118q57 0 87 -29.5t29 -81.5q111 111 204 111q64 0 93.5 -36t20.5 -99l-51 -364h-85l48 343q7 46 -8 65t-51 19t-73.5 -24t-106.5 -87l-45 -316h-82l48 343q6 45 -7 64.5t-52 19.5q-37 0 -74 -23.5t-107 -85.5l-44 -318h-84z" />
<glyph unicode="&#x443;" horiz-adv-x="541" d="M1 -206l8 70q63 -12 120.5 17.5t116.5 118.5h-50q-21 0 -37 12.5t-20 32.5l-94 442h90l76 -401q5 -19 23 -19h51l19 37q45 88 81 192.5t51 190.5h89q-18 -84 -57.5 -197.5t-87.5 -210.5q-48 -98 -98.5 -162t-96 -90t-93.5 -35t-91 2z" />
<glyph unicode="&#x444;" horiz-adv-x="716" d="M47 246q18 131 86.5 189.5t214.5 63.5l28 201h79l-28 -202q141 -7 193.5 -67.5t34.5 -191.5q-18 -130 -86.5 -187.5t-213.5 -62.5l-27 -190h-79l26 190q-141 7 -193.5 67t-34.5 190zM128 239q-13 -97 22 -135.5t139 -43.5l52 366q-104 -5 -151.5 -47t-61.5 -140zM361 61 q104 5 151 46t61 139q13 98 -21.5 137t-137.5 44z" />
<glyph unicode="&#x445;" horiz-adv-x="526" d="M-19 0l199 252l-117 235h85l96 -201h28l156 201h92l-184 -236l127 -251h-86l-108 220h-23l-170 -220h-95z" />
<glyph unicode="&#x446;" horiz-adv-x="596" d="M51 123l51 364h85l-48 -343q-7 -45 6.5 -64t51.5 -19q42 0 84.5 25t110.5 84l43 317h84l-54 -398q-4 -25 21 -25h48q-4 -26 -30 -213h-73l31 149q-36 2 -56 24t-16 65l1 12q-121 -114 -223 -114q-66 0 -96 36t-21 100z" />
<glyph unicode="&#x447;" horiz-adv-x="536" d="M51 278l30 209h85l-26 -185q-5 -37 7 -50t52 -13q78 0 174 55l27 193h86l-69 -487h-85l31 221q-104 -52 -191 -52q-68 -1 -98.5 26.5t-22.5 82.5z" />
<glyph unicode="&#x448;" horiz-adv-x="857" d="M51 123l51 364h85l-48 -343q-7 -42 7.5 -60t51.5 -18t69 21t102 84l44 316h82l-48 -343q-6 -41 7 -59.5t52 -18.5q38 0 70.5 21t101.5 82l44 318h84l-68 -487h-66l7 104q-113 -117 -207 -117q-55 0 -84 29t-28 81q-107 -110 -198 -110q-62 0 -91 36t-20 100z" />
<glyph unicode="&#x449;" horiz-adv-x="883" d="M51 123l51 364h85l-48 -343q-7 -42 7.5 -60t51.5 -18t69 21t102 84l44 316h82l-48 -343q-6 -41 7 -59.5t52 -18.5q38 0 70.5 20.5t102.5 82.5l43 318h84l-54 -398q-4 -25 21 -25h48q-3 -25 -31 -213h-72l33 149q-37 1 -57.5 23t-16.5 66l1 14q-112 -116 -206 -116 q-55 0 -84 29t-28 81q-107 -110 -198 -110q-62 0 -91 36t-20 100z" />
<glyph unicode="&#x44a;" horiz-adv-x="629" d="M40 419l10 68h298l-54 -203q48 15 95 15q113 0 151.5 -34.5t25.5 -122.5q-13 -87 -57 -118.5t-141 -31.5q-18 0 -32.5 0.5t-33.5 2.5t-33.5 5t-31 9.5t-27.5 15t-21 21t-14.5 28t-4 37t6.5 47.5l71 261h-208zM256 144q-7 -22 -2 -37t12.5 -24t23 -14.5t30.5 -7t34 -1.5 q65 0 91 18.5t36 73.5q8 49 -11.5 67t-84.5 18q-50 0 -108 -16z" />
<glyph unicode="&#x44b;" horiz-adv-x="715" d="M51 130l52 357h82l-30 -210q61 22 115 22q113 0 151.5 -34t25.5 -123q-12 -87 -56 -118.5t-142 -31.5q-27 0 -44.5 1t-45.5 4.5t-45.5 12.5t-35 23.5t-24.5 39t-3 57.5zM133 129q-5 -42 21.5 -55.5t80.5 -13.5q65 0 92.5 19t34.5 73q7 49 -12.5 67t-83.5 18 q-55 0 -120 -19zM510 0l68 487h86l-69 -487h-85z" />
<glyph unicode="&#x44c;" horiz-adv-x="510" d="M51 130l52 357h82l-30 -210q61 22 115 22q113 0 151.5 -34t25.5 -123q-12 -87 -56 -118.5t-142 -31.5q-27 0 -44.5 1t-45.5 4.5t-45.5 12.5t-35 23.5t-24.5 39t-3 57.5zM133 129q-5 -42 21.5 -55.5t80.5 -13.5q65 0 92.5 19t34.5 73q7 49 -12.5 67t-83.5 18 q-55 0 -120 -19z" />
<glyph unicode="&#x44d;" horiz-adv-x="504" d="M2 10l13 59q62 -5 140 -7q98 -2 139 29.5t57 126.5h-247l8 61h247q8 89 -22.5 116t-120.5 27q-55 0 -143 -5l-4 59q61 17 151 17q138 0 188.5 -55.5t32.5 -200.5q-18 -141 -79.5 -195t-197.5 -52q-102 1 -162 20z" />
<glyph unicode="&#x44e;" horiz-adv-x="793" d="M37 0l69 487h85l-29 -203h125q23 122 78 168.5t167 46.5q126 0 172.5 -56.5t26.5 -201.5q-20 -143 -77.5 -196.5t-183.5 -53.5q-118 0 -161.5 49.5t-30.5 177.5h-125l-31 -218h-85zM362 241q-15 -103 7.5 -140.5t99.5 -37.5q84 0 122 40.5t52 144.5t-10 141.5t-103 37.5 q-81 0 -117 -39.5t-51 -146.5z" />
<glyph unicode="&#x44f;" horiz-adv-x="537" d="M4 0l50 142q13 36 43 52.5t62 15.5l1 4q-103 18 -89 137q10 87 61.5 114t170.5 27q97 0 184 -7l-69 -485h-83l26 180h-123q-83 0 -101 -51l-47 -129h-86zM153 340q-6 -49 11.5 -72.5t72.5 -23.5h133l25 179q-16 0 -58 0.5t-66 0.5q-64 0 -87.5 -16.5t-30.5 -67.5z" />
<glyph unicode="&#x451;" horiz-adv-x="537" d="M48 255q20 142 77.5 193t188.5 51q111 0 152.5 -38.5t28.5 -117.5q-12 -69 -54.5 -99t-130.5 -37l-180 -16q-2 -77 29 -104t101 -27q86 0 179 12l6 -57q-69 -27 -199 -27q-125 0 -171 64t-27 203zM136 254l173 17q50 4 72.5 20.5t29.5 58.5q8 51 -16 64.5t-92 13.5 q-82 0 -116 -33.5t-51 -140.5zM201 610l9 56q4 24 28 24h26q26 0 22 -24l-9 -55q-1 -24 -26 -24h-28q-23 0 -22 23zM370 610l9 56q5 24 28 24h26q27 0 22 -24l-9 -55q-2 -24 -26 -24h-28q-23 0 -22 23z" />
<glyph unicode="&#x452;" horiz-adv-x="577" d="M54 496l7 49h71l22 155h85l-22 -155h191l-7 -49h-191l-15 -111q-7 -48 -16 -80q123 97 223 97q137 0 119 -135l-38 -267h-85l35 247q6 44 -9.5 61.5t-59.5 17.5q-41 0 -83.5 -21t-107.5 -69l-33 -236h-85l70 496h-71z" />
<glyph unicode="&#x453;" horiz-adv-x="518" d="M27 118q6 49 37 80t93 55l136 51q49 17 70 35t23 43q4 30 -20 39.5t-95 6.5q-79 -4 -193 -28l-2 67q89 27 202 32q37 4 73 0.5t64 -13t43 -35.5t10 -67q-4 -35 -19.5 -61.5t-42 -44t-40 -24t-40.5 -16.5l-146 -56q-35 -15 -50.5 -29t-17.5 -37q-5 -34 17 -44.5t73 -10.5 q122 3 236 39l3 -69q-112 -44 -238 -44q-91 0 -138 30.5t-38 100.5zM209 588l192 146l41 -65l-207 -121z" />
<glyph unicode="&#x454;" horiz-adv-x="502" d="M48 245q20 142 81.5 195t195.5 53q96 0 155 -18l-13 -58q-80 5 -141 5q-91 0 -130 -28.5t-56 -115.5h248l-8 -60h-249q-10 -94 19 -123t125 -33q50 -1 146 7l6 -60q-71 -19 -170 -19q-124 0 -176 57.5t-33 197.5z" />
<glyph unicode="&#x455;" horiz-adv-x="509" d="M23 3l10 62q59 -5 155 -5q94 1 127 12t38 45q3 18 -4 30t-16 17.5t-32 15.5q-7 3 -11 5l-135 60q-55 25 -77.5 56t-15.5 83q8 68 56 92.5t147 22.5q113 -2 205 -15l-10 -61q-123 4 -192 5q-70 0 -94.5 -8t-29.5 -42q-3 -28 10 -41.5t49 -29.5l137 -60q59 -26 81 -55 t15 -83q-4 -32 -17 -54t-30.5 -35t-47 -20t-58.5 -9t-74 -2q-34 0 -61 1.5t-39.5 2.5t-41.5 4.5t-44 5.5z" />
<glyph unicode="&#x456;" horiz-adv-x="249" d="M41 0l68 487h85l-68 -487h-85zM124 613l8 56q3 25 27 25h40q27 0 24 -28l-8 -57q-3 -24 -27 -24h-40q-29 0 -24 28z" />
<glyph unicode="&#x457;" horiz-adv-x="246" d="M39 0l69 487h85l-69 -487h-85zM45 610l9 56q4 24 28 24h26q25 0 22 -24l-9 -55q-1 -24 -26 -24h-28q-23 0 -22 23zM214 610l9 56q5 24 28 24h26q25 0 22 -24l-9 -55q-2 -24 -26 -24h-28q-23 0 -22 23z" />
<glyph unicode="&#x458;" horiz-adv-x="249" d="M-39 -165q66 70 78 155l70 497h85l-70 -501q-17 -121 -118 -190zM124 613l8 56q3 25 27 25h40q27 0 24 -28l-8 -57q-3 -24 -27 -24h-40q-29 0 -24 28z" />
<glyph unicode="&#x459;" horiz-adv-x="800" d="M-14 65q54 10 90 58q20 26 34.5 63.5t22.5 67.5t33 136q23 97 117 97h195l-31 -212q59 24 129 24q102 0 137 -37t24 -120q-12 -88 -55 -118t-139 -32q-47 0 -80 4.5t-63 18.5t-43 42.5t-8 72.5l42 292h-84q-54 0 -67 -54q-29 -125 -45.5 -176.5t-45.5 -97.5 q-56 -92 -159 -97zM426 129q-6 -41 20 -55t80 -14q66 0 92.5 18.5t33.5 73.5q6 50 -12 67.5t-76 17.5q-62 0 -125 -21z" />
<glyph unicode="&#x45a;" horiz-adv-x="810" d="M37 0l68 487h79l-26 -188h226l27 188h80l-30 -210q60 22 112 22q111 0 148.5 -34t25.5 -123q-12 -87 -55 -118.5t-139 -31.5q-32 0 -53 1t-53 8.5t-50 21t-30 41t-8 66.5l16 108h-226l-34 -238h-78zM439 129q-5 -42 20.5 -55.5t79.5 -13.5q63 0 89.5 19t33.5 73 q7 49 -11.5 67t-80.5 18q-56 0 -118 -20z" />
<glyph unicode="&#x45b;" horiz-adv-x="577" d="M54 496l7 49h71l22 155h85l-22 -155h191l-7 -49h-191l-13 -95q-8 -56 -18 -96q121 97 223 97q137 0 119 -135l-39 -281q-19 -122 -118 -190l-45 39q66 70 78 155l36 257q6 44 -9.5 61.5t-59.5 17.5q-41 0 -83.5 -21t-108.5 -69l-32 -236h-85l70 496h-71z" />
<glyph unicode="&#x45c;" horiz-adv-x="532" d="M37 0l68 487h85l-20 -146q-3 -18 -13 -55h66q28 0 51.5 10t40.5 23t37.5 43t33.5 53.5t37 70.5h91q-27 -53 -42 -80t-37 -60t-40 -48.5t-43 -27.5t-55 -16l-2 -3q30 -2 51.5 -12t36 -27t26 -43t21 -59.5t21.5 -77.5q5 -21 8 -32h-85q-34 129 -48 158q-26 52 -78 60 q-11 2 -25 2h-75q0 -31 -2 -50l-25 -170h-84zM251 588l192 146l41 -65l-207 -121z" />
<glyph unicode="&#x45d;" horiz-adv-x="570" d="M51 123l51 364h85l-48 -343q-7 -45 6.5 -64t51.5 -19q42 0 84 25.5t111 87.5l43 313h84l-68 -487h-65l7 106q-124 -119 -225 -119q-66 0 -96 36t-21 100zM157 673l47 60l169 -147l-31 -38z" />
<glyph unicode="&#x45e;" horiz-adv-x="541" d="M1 -206l8 70q63 -12 120.5 17.5t116.5 118.5h-50q-21 0 -37 12.5t-20 32.5l-94 442h90l76 -401q5 -19 23 -19h51l19 37q45 88 81 192.5t51 190.5h89q-18 -84 -57.5 -197.5t-87.5 -210.5q-48 -98 -98.5 -162t-96 -90t-93.5 -35t-91 2zM161 702h64q-13 -89 77 -89 q83 0 93 89h65q-5 -61 -49 -98.5t-113 -37.5q-74 0 -111.5 37.5t-25.5 98.5z" />
<glyph unicode="&#x45f;" horiz-adv-x="570" d="M51 123l51 364h85l-48 -343q-7 -45 6.5 -64t51.5 -19q42 0 84 25.5t111 87.5l43 313h84l-68 -487h-65l7 106q-124 -119 -225 -119q-66 0 -96 36t-21 100zM198 -226l35 185h58l-18 -185h-75z" />
<glyph unicode="&#x490;" horiz-adv-x="520" d="M43 0l79 563q9 63 45.5 95.5t93.5 32.5q154 0 226 -6l32 156h60q-34 -210 -36 -225h-256q-38 0 -56 -15t-24 -58l-76 -543h-88z" />
<glyph unicode="&#x491;" horiz-adv-x="453" d="M34 0l55 385q14 104 117 104q124 0 185 -3l30 146h59l-23 -151l-11 -60h-207q-62 0 -70 -62l-50 -359h-85z" />
<glyph unicode="&#x4b0;" horiz-adv-x="577" d="M73 690h91l104 -293q5 -14 20 -78l8 3q21 44 41 78l187 290h94l-270 -415h132l-8 -53h-149l-31 -222h-88l31 222h-151l8 53h135z" />
<glyph unicode="&#x4b1;" horiz-adv-x="580" d="M43 487h90l104 -294q15 -44 20 -77h8q13 36 41 81l186 290h96l-269 -413h133l-7 -54h-152l-31 -223h-89l32 223h-148l7 54h132z" />
<glyph unicode="&#x4b6;" horiz-adv-x="658" d="M74 410l40 280h88l-37 -267q-8 -51 10.5 -73t74.5 -22q53 0 104 18t119 58l40 286h87l-88 -629h86q-3 -20 -30 -212h-67l13 151h-98l46 327q-128 -76 -250 -76q-160 0 -138 159z" />
<glyph unicode="&#x4b7;" horiz-adv-x="560" d="M51 278l30 209h85l-26 -185q-2 -19 -1 -31t8 -19t19 -10t33 -3q80 0 174 55l27 193h86l-61 -419h68q-3 -24 -30 -212h-78l31 144h-84l31 221q-104 -52 -191 -52q-68 -1 -98.5 26.5t-22.5 82.5z" />
<glyph unicode="&#x4ba;" horiz-adv-x="631" d="M45 0l97 690h89l-46 -327q129 76 249 76q162 0 137 -159l-39 -280h-88l38 267q8 52 -11 73.5t-74 21.5q-93 0 -223 -76l-40 -286h-89z" />
<glyph unicode="&#x4c0;" horiz-adv-x="262" d="M46 0l97 690h88l-97 -690h-88z" />
<glyph unicode="&#x1e80;" horiz-adv-x="943" d="M83 690h90l32 -539q0 -5 3 -86h24q39 119 115.5 337.5t90.5 259.5q8 28 36 28h95q12 0 20.5 -9t9.5 -22l41 -509q4 -56 4 -85h25q39 124 116 351.5t92 273.5h92l-235 -666q-8 -24 -36 -24h-98q-13 0 -22 8t-10 21l-36 519q0 3 -2.5 32t-3.5 44h-21q-40 -117 -115 -335.5 t-91 -263.5q-8 -25 -36 -25h-97q-13 0 -22.5 8t-10.5 20zM369 852l46 61l169 -147l-30 -39z" />
<glyph unicode="&#x1e81;" horiz-adv-x="850" d="M45 487h88l69 -420h13q27 0 47 35q30 53 55 137q28 85 52 227q3 21 24 21h93q20 0 22 -20l49 -400h12q22 0 41 31q44 69 71 141q41 104 65 248h89q-37 -165 -89 -283q-47 -107 -86 -156q-20 -25 -39 -36.5t-47 -11.5h-56q-23 0 -27 23l-46 408h-13q-9 -89 -42 -199 t-71 -169q-36 -63 -107 -63h-50q-22 0 -27 23zM295 673l47 60l169 -147l-31 -38z" />
<glyph unicode="&#x1e82;" horiz-adv-x="943" d="M83 690h90l32 -539q0 -5 3 -86h24q39 119 115.5 337.5t90.5 259.5q8 28 36 28h95q12 0 20.5 -9t9.5 -22l41 -509q4 -56 4 -85h25q39 124 116 351.5t92 273.5h92l-235 -666q-8 -24 -36 -24h-98q-13 0 -22 8t-10 21l-36 519q0 3 -2.5 32t-3.5 44h-21q-40 -117 -115 -335.5 t-91 -263.5q-8 -25 -36 -25h-97q-13 0 -22.5 8t-10.5 20zM470 767l192 147l41 -66l-206 -121z" />
<glyph unicode="&#x1e83;" horiz-adv-x="850" d="M45 487h88l69 -420h13q27 0 47 35q30 53 55 137q28 85 52 227q3 21 24 21h93q20 0 22 -20l49 -400h12q22 0 41 31q44 69 71 141q41 104 65 248h89q-37 -165 -89 -283q-47 -107 -86 -156q-20 -25 -39 -36.5t-47 -11.5h-56q-23 0 -27 23l-46 408h-13q-9 -89 -42 -199 t-71 -169q-36 -63 -107 -63h-50q-22 0 -27 23zM397 588l192 146l41 -65l-207 -121z" />
<glyph unicode="&#x1e84;" horiz-adv-x="943" d="M83 690h90l32 -539q0 -5 3 -86h24q39 119 115.5 337.5t90.5 259.5q8 28 36 28h95q12 0 20.5 -9t9.5 -22l41 -509q4 -56 4 -85h25q39 124 116 351.5t92 273.5h92l-235 -666q-8 -24 -36 -24h-98q-13 0 -22 8t-10 21l-36 519q0 3 -2.5 32t-3.5 44h-21q-40 -117 -115 -335.5 t-91 -263.5q-8 -25 -36 -25h-97q-13 0 -22.5 8t-10.5 20zM417 789l9 56q3 24 28 24h26q25 0 22 -24l-9 -55q-3 -24 -26 -24h-28q-25 0 -22 23zM586 789l9 56q3 24 28 24h26q25 0 22 -24l-9 -55q-3 -24 -26 -24h-28q-25 0 -22 23z" />
<glyph unicode="&#x1e85;" horiz-adv-x="850" d="M45 487h88l69 -420h13q27 0 47 35q30 53 55 137q28 85 52 227q3 21 24 21h93q20 0 22 -20l49 -400h12q22 0 41 31q44 69 71 141q41 104 65 248h89q-37 -165 -89 -283q-47 -107 -86 -156q-20 -25 -39 -36.5t-47 -11.5h-56q-23 0 -27 23l-46 408h-13q-9 -89 -42 -199 t-71 -169q-36 -63 -107 -63h-50q-22 0 -27 23zM344 610l8 56q4 24 28 24h26q26 0 22 -24l-8 -55q-3 -24 -27 -24h-28q-24 0 -21 23zM513 610l8 56q5 24 28 24h26q27 0 22 -24l-8 -55q-3 -24 -27 -24h-28q-24 0 -21 23z" />
<glyph unicode="&#x1ef2;" horiz-adv-x="565" d="M64 690h90l104 -293q15 -45 20 -78h8q15 40 41 81l186 290h96l-292 -449l-34 -241h-89l35 245zM178 853l46 60l170 -147l-31 -38z" />
<glyph unicode="&#x1ef3;" horiz-adv-x="539" d="M35 -145q61 14 109.5 47t94.5 98h-44q-22 0 -37 12.5t-20 32.5l-94 442h89l77 -401q5 -19 23 -19h48l9.5 19t10.5 20q94 184 134 381h88q-53 -235 -148 -406q-77 -143 -150.5 -206t-173.5 -81zM127 673l46 60l169 -147l-30 -38z" />
<glyph unicode="&#x2000;" horiz-adv-x="468" />
<glyph unicode="&#x2001;" horiz-adv-x="936" />
<glyph unicode="&#x2002;" horiz-adv-x="468" />
<glyph unicode="&#x2003;" horiz-adv-x="936" />
<glyph unicode="&#x2004;" horiz-adv-x="312" />
<glyph unicode="&#x2005;" horiz-adv-x="234" />
<glyph unicode="&#x2006;" horiz-adv-x="156" />
<glyph unicode="&#x2007;" horiz-adv-x="156" />
<glyph unicode="&#x2008;" horiz-adv-x="117" />
<glyph unicode="&#x2009;" horiz-adv-x="187" />
<glyph unicode="&#x200a;" horiz-adv-x="52" />
<glyph unicode="&#x2010;" horiz-adv-x="447" d="M61 220l9 65h304l-8 -65h-305z" />
<glyph unicode="&#x2011;" horiz-adv-x="447" d="M61 220l9 65h304l-8 -65h-305z" />
<glyph unicode="&#x2012;" horiz-adv-x="447" d="M61 220l9 65h304l-8 -65h-305z" />
<glyph unicode="&#x2013;" horiz-adv-x="591" d="M61 220l9 65h448l-9 -65h-448z" />
<glyph unicode="&#x2014;" horiz-adv-x="895" d="M61 220l9 65h752l-9 -65h-752z" />
<glyph unicode="&#x2018;" horiz-adv-x="217" d="M96 521l8 61q10 65 56 143l41 -14q-26 -83 -32 -112q14 1 21 -6t5 -19l-9 -55q-3 -17 -10.5 -22.5t-27.5 -5.5h-25q-33 0 -27 30z" />
<glyph unicode="&#x2019;" horiz-adv-x="215" d="M102 495q26 82 32 112q-14 -1 -21 6.5t-5 19.5l9 55q3 17 10.5 22.5t27.5 5.5h25q33 0 27 -31l-8 -60q-10 -65 -56 -143z" />
<glyph unicode="&#x201a;" horiz-adv-x="228" d="M24 -111q26 83 32 112q-14 -1 -20.5 6t-5.5 20l9 55q4 16 11.5 22t27.5 6h26q33 0 27 -31l-9 -60q-8 -63 -56 -144z" />
<glyph unicode="&#x201c;" horiz-adv-x="369" d="M96 521l8 61q10 65 56 143l41 -14q-26 -83 -32 -112q14 1 21 -6t5 -19l-9 -55q-3 -17 -10.5 -22.5t-27.5 -5.5h-25q-33 0 -27 30zM249 521l8 61q8 64 55 143l42 -14q-23 -68 -32 -112q13 1 20 -6t6 -19l-9 -55q-4 -17 -11.5 -22.5t-26.5 -5.5h-26q-32 0 -26 30z" />
<glyph unicode="&#x201d;" horiz-adv-x="368" d="M102 495q26 82 32 112q-14 -1 -21 6.5t-5 19.5l9 55q3 17 10.5 22.5t27.5 5.5h25q33 0 27 -31l-8 -60q-10 -65 -56 -143zM254 495q25 73 32 112q-13 -1 -20 6.5t-5 19.5l8 55q4 17 11.5 22.5t26.5 5.5h26q33 0 27 -31l-9 -60q-8 -64 -55 -143z" />
<glyph unicode="&#x201e;" horiz-adv-x="380" d="M24 -112q26 83 32 112q-14 -1 -21 6.5t-5 19.5l9 55q3 17 10.5 22.5t27.5 5.5h25q33 0 27 -31l-8 -60q-10 -67 -56 -143zM176 -112q25 74 32 112q-13 -1 -20 6.5t-5 19.5l8 55q4 17 11.5 22.5t27.5 5.5h25q33 0 27 -31l-9 -60q-8 -66 -55 -143z" />
<glyph unicode="&#x2020;" horiz-adv-x="448" d="M57 412l10 75h130l-8 -65zM129 -110q7 49 38.5 263t48.5 329l25 209h78l-33 -209q-16 -114 -44.5 -327t-35.5 -265h-77zM296 422l9 65h130l-10 -75z" />
<glyph unicode="&#x2021;" horiz-adv-x="488" d="M32 94l10 75l130 -10l-9 -65h-131zM76 412l11 75h130l-9 -65zM148 -110q21 121 88 595l25 206h78q-21 -122 -88 -596l-25 -205h-78zM270 94l9 65l131 10l-10 -75h-130zM315 422l10 65h130l-11 -75z" />
<glyph unicode="&#x2022;" horiz-adv-x="361" d="M86 265l2 13q6 47 26 63.5t69 16.5h12q46 0 63 -19.5t11 -65.5l-2 -13q-7 -49 -26.5 -66t-66.5 -17h-12q-49 0 -66 19.5t-10 68.5z" />
<glyph unicode="&#x2026;" horiz-adv-x="841" d="M31 33l8 56q4 29 34 29h28q33 0 29 -33l-8 -55q-3 -30 -33 -30h-28q-35 0 -30 33zM339 33l8 56q4 29 34 29h28q33 0 29 -33l-7 -55q-5 -30 -34 -30h-28q-35 0 -30 33zM647 33l9 56q3 29 33 29h29q34 0 29 -33l-8 -55q-3 -30 -33 -30h-29q-35 0 -30 33z" />
<glyph unicode="&#x202f;" horiz-adv-x="187" />
<glyph unicode="&#x2030;" horiz-adv-x="1266" d="M74 501q16 111 56.5 156.5t126.5 45.5q90 0 121 -48t16 -160q-16 -110 -56.5 -156t-127.5 -46q-90 0 -121 48.5t-15 159.5zM138 495q-11 -84 3.5 -116t65.5 -32q61 0 85.5 33.5t36.5 120.5q12 84 -2.5 116t-67.5 32q-60 0 -84 -33t-37 -121zM148 0l544 690h66l-544 -690 h-66zM515 198q15 110 55.5 156t127.5 46q91 0 121.5 -48.5t14.5 -160.5q-15 -109 -56 -155t-128 -46q-90 0 -120.5 48.5t-14.5 159.5zM579 191q-11 -84 3 -116t66 -32q60 0 85 33.5t37 121.5q12 84 -2.5 116t-67.5 32q-60 0 -84 -33.5t-37 -121.5zM886 198q15 110 55.5 156 t126.5 46q91 0 122 -48.5t15 -160.5q-15 -109 -56 -155t-128 -46q-90 0 -120.5 48.5t-14.5 159.5zM950 191q-12 -83 2.5 -115.5t66.5 -32.5q60 0 85 33.5t37 121.5q12 83 -2.5 115.5t-67.5 32.5q-60 0 -84 -33.5t-37 -121.5z" />
<glyph unicode="&#x2039;" horiz-adv-x="296" d="M37 246l1 19l187 194l35 -32l-153 -177l109 -182l-43 -29z" />
<glyph unicode="&#x203a;" horiz-adv-x="297" d="M24 71l153 178l-108 182l42 28l136 -206l-1 -19l-187 -195z" />
<glyph unicode="&#x2044;" horiz-adv-x="160" d="M-217 0l539 690h68l-539 -690h-68z" />
<glyph unicode="&#x205f;" horiz-adv-x="234" />
<glyph unicode="&#x20ac;" horiz-adv-x="634" d="M46 261l8 53h83l4 34q3 27 7 44h-83l8 53h86q33 132 105 194.5t202 62.5q88 0 160 -21l-14 -67q-75 12 -152 9q-85 -3 -134 -44.5t-74 -133.5h255l-15 -53h-252q-2 -9 -9 -52l-3 -26h226l-15 -53h-216q-4 -101 31 -146.5t118 -47.5q90 -3 172 12l4 -69q-75 -22 -173 -22 q-132 0 -189.5 67t-52.5 206h-87z" />
<glyph unicode="&#x2122;" horiz-adv-x="957" d="M113 645l6 51h325l-7 -51h-132l-46 -329h-61l45 329h-130zM440 316l65 358q4 22 24 22h63q21 0 23 -21l46 -221q1 -8 4 -26.5t4 -26.5h12q10 29 21 53l107 224q8 18 26 18h65q11 0 17.5 -7.5t4.5 -18.5l-34 -354h-57l31 333h-11l-129 -270q-8 -18 -26 -18h-47 q-22 0 -24 22l-56 266h-12l-60 -333h-57z" />
<glyph unicode="&#x2202;" horiz-adv-x="570" d="M43 230q20 100 79 160t155 59q106 -2 156 -80q9 56 10.5 94.5t-6.5 70t-25.5 50.5t-49.5 32t-75.5 17.5t-106.5 4.5l4 65q60 1 105.5 -3t86.5 -14t68 -28.5t47.5 -46.5t28.5 -67t6.5 -91.5t-13.5 -119.5q-30 -174 -98.5 -259.5t-189.5 -85.5q-115 0 -159 69.5t-23 172.5z M127 223q-15 -75 9.5 -117t90.5 -42q83 0 127.5 66.5t69.5 191.5q-53 55 -129 55q-136 0 -168 -154z" />
<glyph unicode="&#x2205;" horiz-adv-x="685" d="M57 341q0 121 86 206.5t207 85.5t206.5 -85.5t85.5 -206.5t-85.5 -207t-206.5 -86q-122 0 -207.5 86t-85.5 207zM228 534l3 -45q60 9 119 9q66 0 66 -46q0 -21 -15 -44.5t-33.5 -42.5t-33.5 -52t-15 -72h54q0 35 14.5 64.5t32.5 46.5t32.5 43.5t14.5 56.5q0 93 -117 93 q-50 0 -122 -11zM320 126q0 -7 7 -7h39q8 0 8 7v37q0 8 -8 8h-39q-7 0 -7 -8v-37z" />
<glyph unicode="&#x220f;" horiz-adv-x="719" d="M81 618l10 72h645l-11 -72h-104l-101 -721h-85l102 721h-267l-101 -721h-85l101 721h-104z" />
<glyph unicode="&#x2211;" horiz-adv-x="587" d="M-8 -109l9 71l234 386l-128 270l9 72h467l-10 -72h-376l130 -272l-230 -384h394l-10 -71h-489z" />
<glyph unicode="&#x2212;" horiz-adv-x="586" d="M69 263l10 64h438l-10 -64h-438z" />
<glyph unicode="&#x221a;" horiz-adv-x="563" d="M58 487h70l52 -429h13l355 818h74l-381 -870q-2 -6 -11 -6h-99q-5 0 -9.5 3t-3.5 7z" />
<glyph unicode="&#x221e;" horiz-adv-x="777" d="M62 314q9 66 51.5 99t104.5 33q56 0 94.5 -25.5t77.5 -74.5q116 100 208 100q61 0 96 -36t26 -103q-10 -68 -56 -105t-110 -37q-56 0 -93.5 25.5t-71.5 69.5q-52 -45 -98.5 -70t-98.5 -25q-65 0 -102.5 39.5t-27.5 109.5zM133 305q-10 -77 72 -77q28 0 56 13.5t43.5 26.5 t47.5 43q-28 38 -53 55t-67 17q-88 0 -99 -78zM429 295q16 -22 27 -33.5t34 -22.5t53 -11q42 0 70 22t34 62q10 71 -65 71q-17 0 -33.5 -4.5t-27 -9t-27 -17t-21.5 -16.5t-23.5 -21.5t-20.5 -19.5z" />
<glyph unicode="&#x222b;" horiz-adv-x="369" d="M-36 -218l12 61h60q38 0 58 20t24 66l48 654q10 131 126 131q67 0 101 -4l-12 -61h-62q-37 0 -56.5 -19.5t-23.5 -64.5l-48 -656q-5 -67 -35.5 -99t-95.5 -32q-68 0 -96 4z" />
<glyph unicode="&#x2248;" horiz-adv-x="586" d="M54 137q1 64 29.5 92.5t77.5 26.5q37 -1 116 -29.5t113 -29.5q26 -1 39 11t18 44l57 -3q-1 -60 -28 -88.5t-82 -27.5q-41 1 -118.5 29.5t-108.5 29.5q-26 0 -39 -12t-18 -46zM82 329q1 64 29 92t77 26q37 -1 115.5 -29t113.5 -29q26 -1 39 10.5t18 44.5l57 -4 q-1 -59 -28 -88t-82 -28q-40 1 -118 29.5t-109 29.5q-26 1 -39 -11.5t-18 -46.5z" />
<glyph unicode="&#x2260;" horiz-adv-x="613" d="M68 155l8 64h150l110 148h-239l8 63h278l81 109l26 -14l-71 -95h125l-9 -63h-163l-110 -148h253l-9 -64h-292l-92 -123l-26 14l82 109h-110z" />
<glyph unicode="&#x2264;" horiz-adv-x="565" d="M38 79l9 63h429l-9 -63h-429zM82 327l10 68l429 140l-10 -68l-349 -106l321 -99l-10 -66z" />
<glyph unicode="&#x2265;" horiz-adv-x="563" d="M38 79l9 63h429l-9 -63h-429zM63 196l11 71l347 100l-318 104l8 64l389 -140l-9 -68z" />
<glyph unicode="&#x25ca;" d="M42 339q-5 11 0 17l292 336q8 11 15 -2l196 -337q5 -11 1 -17l-291 -339q-10 -10 -16 3zM111 345l145 -258l224 262l-147 256z" />
<glyph unicode="&#x25fc;" horiz-adv-x="485" d="M0 0v485h485v-485h-485z" />
<glyph unicode="&#xfb00;" horiz-adv-x="710" d="M-120 -194l13 64h76q48 0 69.5 17t28.5 66l66 467h-89l8 62l91 4l11 78q19 140 157 140q92 0 138 -6l-13 -64h-98q-49 0 -71.5 -17.5t-29.5 -65.5l-9 -64h247l12 89q20 141 158 141q85 0 138 -7l-13 -63h-98q-49 0 -71.5 -17.5t-29.5 -66.5l-11 -76h155l-9 -67h-155 l-65 -464q-20 -141 -155 -141q-51 0 -115 7l13 64h75q49 0 70 17t28 66l63 451h-246l-69 -480q-20 -141 -154 -141q-52 0 -116 7z" />
<glyph unicode="&#xfb03;" horiz-adv-x="935" d="M-120 -194l13 64h76q48 0 69.5 17t28.5 66l66 467h-89l8 62l91 4l11 78q19 140 157 140q92 0 138 -6l-13 -64h-98q-49 0 -71.5 -17.5t-29.5 -65.5l-9 -64h247l12 89q20 141 158 141q85 0 138 -7l-13 -63h-98q-49 0 -71.5 -17.5t-29.5 -66.5l-11 -76h323l-69 -487h-85 l59 420h-237l-65 -464q-20 -141 -155 -141q-51 0 -115 7l13 64h75q49 0 70 17t28 66l63 451h-246l-69 -480q-20 -141 -154 -141q-52 0 -116 7zM811 613l8 56q3 25 27 25h40q13 0 19.5 -8t4.5 -20l-7 -57q-4 -24 -27 -24h-40q-28 0 -25 28z" />
<glyph unicode="&#xfb04;" horiz-adv-x="997" d="M-120 -194l13 64h76q48 0 69.5 17t28.5 66l66 467h-89l8 62l91 4l11 78q19 140 157 140q92 0 138 -6l-13 -64h-98q-49 0 -71.5 -17.5t-29.5 -65.5l-9 -64h245l11 79q11 76 48 114t111 37q222 -3 280 -12l-80 -583q-9 -64 54 -64h50l4 -55q-29 -12 -88 -12q-57 0 -85.5 31 t-21.5 85l76 541h-162q-48 0 -71.5 -21.5t-30.5 -73.5l-9 -66h146l-9 -67h-147l-65 -464q-20 -141 -155 -141q-51 0 -115 7l13 64h75q49 0 70 17t28 66l64 451h-245l-69 -480q-20 -141 -154 -141q-52 0 -116 7z" />
<glyph unicode="&#xfb06;" horiz-adv-x="855" d="M21 3l10 62q60 -5 156 -5q93 1 126 12t39 45q3 18 -4 30t-16 17.5t-32 15.5q-7 3 -11 5l-136 60q-54 25 -76.5 56t-16.5 83q9 59 57.5 82t146.5 21h354l20 144h84l-20 -144h155l-9 -67h-156l-40 -288q-5 -35 7 -49t48 -14h75l4 -65q-46 -13 -109 -13t-91.5 34.5 t-19.5 98.5l42 296h-342q-69 1 -94 -6.5t-29 -35.5t9 -41t50 -30l136 -60q60 -26 82 -55t15 -83q-4 -32 -17 -54t-30.5 -35t-47 -20t-59 -9t-74.5 -2q-34 0 -60.5 1.5t-39.5 2.5t-41.5 4.5t-44.5 5.5z" />
<glyph horiz-adv-x="823" d="M46 247q20 131 79 185.5t183 54.5h278l21 144h84l-21 -144h155l-9 -67h-155l-41 -288q-4 -35 8 -49t47 -14h76l3 -65q-46 -13 -109 -13t-91 34.5t-19 98.5l42 297h-255q-92 0 -132.5 -37t-54.5 -144q-14 -110 12.5 -145t113.5 -35q83 0 146 10l6 -58q-77 -24 -167 -24 q-128 0 -174 59.5t-26 199.5z" />
<glyph horiz-adv-x="1215" d="M-120 -194l13 64h76q48 0 69.5 17t28.5 66l66 467h-89l8 62l91 4l11 78q19 140 157 140q92 0 138 -6l-13 -64h-98q-49 0 -71.5 -17.5t-29.5 -65.5l-9 -64h247l12 89q20 141 158 141q85 0 138 -7l-13 -63h-98q-49 0 -71.5 -17.5t-29.5 -66.5l-11 -76h154q94 0 112 -93 l59 -308q5 -19 23 -19h48q4 6 20 39q93 179 134 381h89q-55 -236 -148 -406q-77 -143 -151.5 -206t-173.5 -81l-15 61q122 29 203 145h-44q-22 0 -37 12.5t-20 32.5l-70 330q-11 45 -57 45h-135l-66 -464q-20 -141 -154 -141q-52 0 -116 7l13 64h76q48 0 69.5 17t28.5 66 l63 451h-246l-69 -480q-20 -141 -154 -141q-52 0 -116 7z" />
<glyph horiz-adv-x="713" d="M-120 -194l13 64h76q48 0 69.5 17t28.5 66l65 467h-87l8 62l89 4l12 90q20 141 158 141q85 0 138 -7l-13 -63h-98q-49 0 -71.5 -17.5t-29.5 -66.5l-11 -76h249l20 144h84l-20 -144h155l-9 -67h-156l-40 -288q-5 -35 7 -49t48 -14h75l4 -65q-48 -13 -109 -13 q-63 0 -91.5 34.5t-19.5 98.5l42 296h-248l-68 -480q-19 -141 -154 -141q-52 0 -116 7z" />
<glyph horiz-adv-x="880" d="M-120 -194l13 64h76q48 0 69.5 17t28.5 66l64 467h-88l9 62l89 4l12 90q20 141 157 141q84 0 139 -7l-14 -63h-98q-49 0 -71 -17.5t-29 -66.5l-11 -76h154q94 0 112 -93l59 -308q3 -19 22 -19h48q11 18 21 39q94 184 134 381h88q-53 -235 -148 -406q-77 -143 -150.5 -206 t-173.5 -81l-16 61q61 14 109.5 47t94.5 98h-44q-22 0 -37 12.5t-20 32.5l-71 330q-9 45 -56 45h-135l-67 -480q-19 -141 -154 -141q-52 0 -116 7z" />
<glyph horiz-adv-x="729" d="M42 420l8 62l91 4l20 145h84l-20 -144h268l20 144h84l-20 -144h155l-10 -67h-155l-40 -288q-5 -35 7 -49t47 -14h76l3 -65q-46 -13 -109 -13t-91 35t-19 98l42 296h-268l-40 -288q-5 -35 7 -49t47 -14h76l3 -65q-46 -13 -109 -13t-91 35t-19 98l42 296h-89z" />
<glyph horiz-adv-x="904" d="M42 420l8 62l91 4l20 145h84l-20 -144h167q105 0 125 -104l58 -297q3 -19 22 -19h48q11 18 21 39q92 180 134 381h88q-53 -235 -148 -406q-77 -143 -151 -206t-173 -81l-16 61q61 14 109.5 47t94.5 98h-45q-21 0 -37 12.5t-20 32.5l-70 330q-10 45 -56 45h-161l-40 -288 q-5 -35 7 -49t47 -14h76l3 -65q-46 -13 -109 -13t-91 35t-19 98l42 296h-89z" />
<glyph horiz-adv-x="374" d="M101 694h64q-13 -89 77 -89q83 0 93 89h65q-5 -61 -49 -98.5t-114 -37.5q-73 0 -110.5 38t-25.5 98z" />
</font>
</defs>
</svg>
