<?xml version="1.0" standalone="no"?>
<!DOCTYPE svg PUBLIC "-//W3C//DTD SVG 1.1//EN" "http://www.w3.org/Graphics/SVG/1.1/DTD/svg11.dtd" >
<svg xmlns="http://www.w3.org/2000/svg">
<metadata></metadata>
<defs>
<font id="exo_2.0light" horiz-adv-x="567" >
<font-face units-per-em="1000" ascent="800" descent="-200" />
<missing-glyph horiz-adv-x="226" />
<glyph unicode="fi" horiz-adv-x="586" d="M31 433v46l87 5v86q0 73 31.5 109.5t104.5 36.5q62 0 108 -6v-47h-86q-52 0 -73 -22t-21 -77v-80h316v-484h-63v433h-253v-433h-64v433h-87zM430 609v58q0 21 21 21h30q21 0 21 -21v-58q0 -21 -21 -21h-30q-21 0 -21 21z" />
<glyph unicode="fl" horiz-adv-x="650" d="M31 433v46l87 5v86q0 73 31.5 109.5t104.5 36.5q187 0 257 -10v-592q0 -71 71 -71h51l7 -41q-27 -10 -80 -10q-52 0 -82 29t-30 81v561h-172q-52 1 -73 -21.5t-21 -77.5v-80h154v-51h-154v-433h-64v433h-87z" />
<glyph unicode=" "  horiz-adv-x="226" />
<glyph unicode="&#x09;" horiz-adv-x="226" />
<glyph unicode="&#xa0;" horiz-adv-x="226" />
<glyph unicode="!" horiz-adv-x="266" d="M100 25v57q0 25 25 25h17q25 0 25 -25v-57q0 -25 -25 -25h-17q-25 0 -25 25zM101 377v318h64v-318l-6 -169h-51z" />
<glyph unicode="&#x22;" horiz-adv-x="344" d="M77 690h53l-4 -212h-45zM215 690h53l-5 -212h-44z" />
<glyph unicode="#" horiz-adv-x="678" d="M50 218l8 43h115l34 195h-115l8 43h114l34 191h52l-33 -191h198l34 191h52l-33 -191h110l-8 -43h-109l-34 -195h109l-8 -43h-109l-38 -218h-52l37 218h-198l-38 -218h-52l37 218h-115zM226 261h198l34 195h-198z" />
<glyph unicode="$" horiz-adv-x="562" d="M61 522q0 60 12.5 96.5t42.5 54.5t66 23.5t98 4.5h12l7 100h36l-6 -101q87 -4 149 -15l-5 -48q-84 4 -148 5l-17 -266l59 -13q76 -15 107.5 -59.5t31.5 -129.5q0 -60 -12.5 -97t-42.5 -56t-68 -25.5t-100 -6.5h-6l-8 -119h-37l9 119q-80 2 -169 15l5 51q120 -6 168 -6 l18 272l-66 14q-73 15 -104.5 59.5t-31.5 127.5zM127 520q0 -62 22 -89.5t74 -37.5l48 -10l17 260h-6q-39 0 -59 -1.5t-42 -7.5t-31.5 -19t-16 -36t-6.5 -59zM282 49h3q91 1 123 24.5t32 101.5q0 65 -21.5 92t-75.5 37l-43 9z" />
<glyph unicode="%" horiz-adv-x="890" d="M52 498q0 110 35 157t122 47t122 -47t35 -157t-35 -157t-122 -47t-122 47t-35 157zM102 498q0 -90 23.5 -126.5t82.5 -36.5q61 0 84 36.5t23 126.5q0 89 -23.5 126t-83.5 37q-59 0 -82.5 -37t-23.5 -126zM190 0l459 690h48l-459 -690h-48zM524 196q0 110 35.5 157.5 t121.5 47.5t121.5 -47.5t35.5 -157.5t-35 -157t-122 -47t-122 47t-35 157zM575 196q-1 -89 22.5 -126t82.5 -37q60 0 83.5 36.5t23.5 126.5t-23.5 126.5t-83.5 36.5q-59 0 -82.5 -37t-22.5 -126z" />
<glyph unicode="&#x26;" horiz-adv-x="776" d="M72 174q0 84 31 130t105 52v4q-63 5 -89.5 44.5t-26.5 116.5q0 59 14 95t49 54t78 23.5t118 5.5q90 0 159 -9l-8 -49q-36 3 -153 3q-113 0 -152 -24t-39 -107q0 -77 32 -103.5t117 -26.5h203l7 138h52v-138h131l-1 -51h-130v-213q0 -37 17 -54t53 -17h79l7 -46 q-48 -10 -98 -10q-106 0 -117 91q-46 -50 -101 -71t-137 -21q-110 0 -155 40t-45 143zM140 184q0 -78 31.5 -107t113.5 -29q143 0 224 91v193h-205q-92 0 -128 -31.5t-36 -116.5z" />
<glyph unicode="'" horiz-adv-x="206" d="M77 690h53l-4 -212h-45z" />
<glyph unicode="(" horiz-adv-x="358" d="M59 312q0 192 61.5 308t192.5 170l8 -33q-103 -51 -151 -160t-48 -284q0 -172 48 -281.5t151 -163.5l-8 -33q-131 55 -192.5 170.5t-61.5 306.5z" />
<glyph unicode=")" horiz-adv-x="358" d="M37 -132q103 54 151 163.5t48 281.5q0 175 -48 284t-151 160l8 33q131 -54 192.5 -170t61.5 -308q0 -191 -61.5 -306.5t-192.5 -170.5z" />
<glyph unicode="*" horiz-adv-x="451" d="M60 559l14 39l120 -45l-1 -18l-8 -12zM112 405l98 128l-5 157h42l-7 -157l98 -129l-33 -25l-80 125l-79 -124zM257 535v18l121 44l13 -40l-125 -34z" />
<glyph unicode="+" horiz-adv-x="552" d="M60 274v49h190v180h50v-180h191v-49h-191v-181h-49v181h-191z" />
<glyph unicode="," horiz-adv-x="221" d="M76 21v61q1 25 25 25h20q24 0 24 -25v-64q-2 -80 -29 -144l-30 9q8 64 8 117q-20 0 -18 21z" />
<glyph unicode="-" horiz-adv-x="461" d="M77 227v50h307v-50h-307z" />
<glyph unicode="." horiz-adv-x="221" d="M75 25v57q0 25 24 25h22q25 0 25 -25v-57q0 -25 -25 -25h-22q-24 0 -24 25z" />
<glyph unicode="/" horiz-adv-x="509" d="M31 -63l393 753h54l-393 -753h-54z" />
<glyph unicode="0" horiz-adv-x="596" d="M69 345q0 190 51.5 273.5t177.5 83.5t178 -83.5t52 -273.5t-52 -273.5t-178 -83.5t-177.5 83.5t-51.5 273.5zM133 345q0 -162 36.5 -231t128.5 -69t128.5 69t36.5 231t-36.5 231t-128.5 69t-128.5 -69t-36.5 -231z" />
<glyph unicode="1" horiz-adv-x="391" d="M28 618l180 72h66v-690h-66v572q0 31 4 55l-175 -56z" />
<glyph unicode="2" horiz-adv-x="560" d="M58 0v40q0 19 10 30l214 244q69 77 99 133.5t29 109.5q-2 54 -36 70.5t-108 16.5q-95 0 -197 -19l-6 51q112 26 206 26q107 0 157.5 -29.5t50.5 -115.5q0 -65 -29 -122t-100 -137l-210 -238q37 2 115 2h251v-62h-446z" />
<glyph unicode="3" horiz-adv-x="555" d="M55 5l6 52q117 -11 194 -11q88 0 125.5 34.5t37.5 117.5q0 67 -31 103t-118 37h-128v51l128 1q43 1 71.5 13t41 34t16.5 43t4 50q-1 69 -33.5 91.5t-121.5 22.5q-91 0 -174 -9l-7 50q104 17 188 17q116 0 163.5 -35t47.5 -124q0 -153 -105 -174v-4q66 -11 93.5 -54.5 t29.5 -118.5q2 -106 -47 -155t-167 -49q-86 0 -214 17z" />
<glyph unicode="4" horiz-adv-x="608" d="M51 275l206 415h65l-204 -414q-9 -19 -1 -31t27 -12h267v211l13 115h50v-326h86v-47l-86 -7v-179h-63v179h-301q-38 0 -57 30.5t-2 65.5z" />
<glyph unicode="5" horiz-adv-x="533" d="M57 14l8 52q103 -20 175 -20q100 0 133.5 38.5t34.5 120.5q0 31 -4.5 53.5t-12.5 39t-26 27.5t-35 17.5t-50 10.5t-60.5 5.5t-76.5 3.5l-34 3q-12 0 -19.5 8.5t-6.5 21.5l15 295h354l-3 -56h-297l-11 -215l68 -4q146 -8 205 -51.5t58 -158.5q0 -36 -4.5 -64.5t-18 -58.5 t-37 -49.5t-63.5 -32t-95 -12.5q-87 0 -197 26z" />
<glyph unicode="6" horiz-adv-x="569" d="M72 318q0 124 14 200.5t49 117t79.5 53.5t119.5 13q79 0 132 -14l-8 -48q-42 6 -124 6q-75 0 -113.5 -20t-59.5 -80.5t-24 -180.5q39 46 80.5 64t103.5 18q108 0 148.5 -50.5t40.5 -179.5q0 -58 -8 -96t-29.5 -70t-65 -47.5t-110.5 -15.5q-72 0 -115.5 15.5t-68 57 t-33 100t-8.5 157.5zM137 315q0 -67 2.5 -106.5t11.5 -75.5t27 -53t47 -26.5t73 -9.5q92 0 120.5 40.5t28.5 133.5q0 97 -29.5 136t-111.5 39q-49 0 -86.5 -16t-82.5 -59v-3z" />
<glyph unicode="7" horiz-adv-x="510" d="M42 690h386q57 0 40 -54l-219 -636h-66l203 588q2 6 18 46h-359z" />
<glyph unicode="8" horiz-adv-x="609" d="M75 172q0 87 25.5 132.5t87.5 51.5v4q-98 11 -98 158q0 98 45.5 139.5t169.5 41.5t169 -41.5t45 -139.5q0 -147 -98 -158v-4q62 -7 87.5 -52t25.5 -132q0 -99 -47 -139.5t-182 -41.5q-133 -1 -181.5 40t-48.5 141zM137 184q0 -77 34.5 -106.5t133.5 -29.5t132.5 29 t33.5 107q0 92 -32 119.5t-133 27.5q-104 -1 -136.5 -28.5t-32.5 -118.5zM150 513q0 -79 30.5 -103.5t125.5 -24.5q96 0 124 24t28 104q0 76 -30.5 104t-122.5 28t-123.5 -28t-31.5 -104z" />
<glyph unicode="9" horiz-adv-x="570" d="M59 468q0 120 48 177t167 57q60 0 99.5 -12t64 -33.5t37 -67t16.5 -97t4 -138.5q0 -94 -10 -158t-28 -105.5t-51.5 -64t-73 -30.5t-99.5 -8q-82 0 -140 14l8 48q56 -5 132 -5q57 0 91 10.5t59 41.5t35.5 86t12.5 144q-40 -47 -81.5 -65.5t-104.5 -18.5q-100 0 -143 58 t-43 167zM122 467q0 -87 30.5 -129t108.5 -42q49 0 86.5 16.5t83.5 60.5q0 59 -1.5 93t-7 69.5t-15.5 53t-27.5 32.5t-43.5 20t-63 5q-88 0 -119.5 -43.5t-31.5 -135.5z" />
<glyph unicode=":" horiz-adv-x="225" d="M75 25v57q0 25 25 25h22q24 0 24 -25v-57q0 -25 -24 -25h-22q-25 0 -25 25zM75 355v57q0 25 25 25h22q24 0 24 -25v-57q0 -25 -24 -25h-22q-25 0 -25 25z" />
<glyph unicode=";" horiz-adv-x="227" d="M78 355v57q0 25 25 25h21q25 0 25 -25v-57q0 -25 -25 -25h-21q-25 0 -25 25zM80 21v61q0 25 25 25h19q24 0 24 -25v-64q-2 -80 -29 -144l-30 9q8 64 8 117q-19 0 -17 21z" />
<glyph unicode="&#x3c;" horiz-adv-x="534" d="M57 271v51l402 178v-52l-346 -151l346 -147v-52z" />
<glyph unicode="=" horiz-adv-x="587" d="M78 162v49h431v-49h-431zM78 373v49h431v-49h-431z" />
<glyph unicode="&#x3e;" horiz-adv-x="534" d="M75 98v52l345 147l-345 151v52l401 -178v-51z" />
<glyph unicode="?" horiz-adv-x="506" d="M43 692q8 1 35.5 6t37.5 6t34 3.5t49 3.5t58 1q200 0 200 -155q0 -41 -18.5 -76.5t-45.5 -62.5t-54 -54.5t-46 -67.5t-20 -88h-56q-1 52 16.5 95t43 71.5t51.5 54.5t44 56t19 63q1 56 -34 83t-111 27q-83 0 -198 -12zM211 25v57q0 25 24 25h18q25 0 25 -25v-57 q0 -25 -25 -25h-18q-24 0 -24 25z" />
<glyph unicode="@" horiz-adv-x="709" d="M82 265q0 75 2.5 119.5t13.5 83.5t26.5 57.5t47.5 32t71 17t103 3.5h143q70 0 106.5 -31.5t36.5 -101.5v-314h-47l-7 77q-33 -32 -92 -58t-118 -26q-60 0 -94.5 29.5t-34.5 84.5v52q0 48 30 74.5t85 26.5h219v52q0 42 -21 62t-74 20h-131q-38 0 -60.5 -1t-47 -5 t-37 -10.5t-25.5 -21t-18 -31.5t-10 -46t-6 -62t-1 -82q0 -51 1 -85t6.5 -64t11 -47.5t20.5 -32t29 -21t42.5 -11t54 -5t70.5 -0.5h252v-48q-125 -6 -251 -6q-71 -1 -114.5 2t-80 16.5t-54 32.5t-29.5 58.5t-15 86t-3 123.5zM299 248q0 -72 79 -72q47 -1 102.5 19.5 t92.5 52.5v104l-200 -4q-74 -3 -74 -65v-35z" />
<glyph unicode="A" horiz-adv-x="615" d="M13 0l231 671q6 19 26 19h75q20 0 26 -19l231 -671h-68l-76 228h-301l-76 -228h-68zM176 285h263l-99 297q-2 5 -8.5 25t-9.5 31h-28q-23 -69 -67 -200t-51 -153z" />
<glyph unicode="B" horiz-adv-x="617" d="M93 0v690q75 8 213 8q128 0 177.5 -37.5t49.5 -142.5q0 -75 -28 -113.5t-89 -44.5v-4q75 -7 106.5 -52.5t31.5 -131.5q0 -104 -48.5 -142t-169.5 -38q-157 0 -243 8zM157 50q84 -2 171 -2q91 0 125 27t34 106q0 87 -36 118t-131 33h-163v-282zM157 383h163q85 1 117 27 t32 101q0 78 -35.5 104.5t-129.5 26.5q-110 0 -147 -1v-258z" />
<glyph unicode="C" d="M67 345q0 197 59 277t205 80q109 0 184 -19l-8 -49q-76 9 -176 9q-110 0 -153 -65t-43 -233t43 -233t153 -65q114 0 190 11l8 -49q-78 -21 -198 -21q-146 0 -205 80t-59 277z" />
<glyph unicode="D" horiz-adv-x="662" d="M93 0v690q124 9 239 9q146 0 204.5 -78.5t58.5 -275.5t-58.5 -275.5t-204.5 -78.5q-113 0 -239 9zM158 51q100 -2 174 -2q109 0 151.5 65t42.5 231t-42.5 231.5t-151.5 65.5q-18 0 -174 -3v-588z" />
<glyph unicode="E" horiz-adv-x="557" d="M87 113v464q0 52 33.5 83t88.5 31q201 0 295 -6l-4 -50h-280q-67 0 -67 -73v-169h308v-53h-308v-213q0 -72 67 -72h280l4 -50q-94 -6 -295 -6q-55 0 -88.5 31t-33.5 83z" />
<glyph unicode="F" horiz-adv-x="536" d="M90 0v574q0 54 33.5 85.5t88.5 31.5q195 0 287 -6l-4 -50h-267q-72 0 -72 -73v-177h300v-53h-300v-332h-66z" />
<glyph unicode="G" horiz-adv-x="626" d="M67 346q0 201 61 278.5t216 77.5q114 0 194 -19l-8 -49q-90 10 -182 10q-82 0 -126 -25t-65 -89.5t-21 -186.5q0 -162 38 -230t131 -68q37 0 73 13t57.5 27t53.5 39v275h64v-399h-47l-9 78q-88 -90 -209 -90q-118 0 -169.5 85t-51.5 273z" />
<glyph unicode="H" horiz-adv-x="664" d="M93 0v690h65v-293h348v293h65v-690h-65v341h-348v-341h-65z" />
<glyph unicode="I" horiz-adv-x="251" d="M93 0v690h65v-690h-65z" />
<glyph unicode="J" horiz-adv-x="334" d="M33 2l7 46h53q86 0 86 84v558h66v-556q0 -142 -130 -142q-40 0 -82 10z" />
<glyph unicode="K" horiz-adv-x="581" d="M93 0v690h65v-223q0 -41 -6 -80h96l221 303h73l-212 -293q-11 -17 -32 -36v-3q21 -19 35 -39l224 -319h-74l-235 333h-96q6 -41 6 -78v-255h-65z" />
<glyph unicode="L" horiz-adv-x="511" d="M90 119v571h66v-562q0 -73 72 -73h257l2 -50q-106 -6 -270 -6q-63 0 -95 33t-32 87z" />
<glyph unicode="M" horiz-adv-x="869" d="M79 0l28 661q0 29 29 29h79q21 0 29 -23l151 -450q16 -50 28 -94h22q6 22 29 95l151 449q6 23 29 23h78q29 0 29 -29l29 -661h-65l-27 635h-22l-179 -541q-7 -22 -30 -22h-66q-23 0 -30 22l-180 541h-21l-26 -635h-65z" />
<glyph unicode="N" horiz-adv-x="699" d="M93 0v662q0 28 27 28h68q22 0 32 -22l257 -512q31 -62 46 -93h21q-3 49 -3 99v528h65v-662q0 -28 -27 -28h-70q-22 0 -32 22l-263 524q-37 77 -39 83h-19q2 -27 2 -83v-546h-65z" />
<glyph unicode="O" horiz-adv-x="666" d="M67 345q0 200 59 278.5t207 78.5t207 -78.5t59 -278.5t-59 -278.5t-207 -78.5t-207 78.5t-59 278.5zM135 345q0 -168 43.5 -233.5t154.5 -65.5t154 65.5t43 233.5t-43 233.5t-154 65.5t-154.5 -65.5t-43.5 -233.5z" />
<glyph unicode="P" horiz-adv-x="587" d="M93 0v690q83 8 231 8q121 0 167.5 -44.5t46.5 -166.5t-45.5 -166.5t-161.5 -44.5q-87 0 -173 8v-284h-65zM158 333h165q84 1 116 32.5t32 121.5q0 91 -32 123t-116 32q-85 0 -165 -2v-307z" />
<glyph unicode="Q" horiz-adv-x="667" d="M67 345q0 200 59 278.5t207 78.5t207.5 -78.5t59.5 -278.5t-59.5 -278.5t-207.5 -78.5t-207 78.5t-59 278.5zM136 345q0 -168 43 -233.5t154 -65.5t154.5 65.5t43.5 233.5t-43.5 233.5t-154.5 65.5t-154 -65.5t-43 -233.5zM275 -85l20 39q107 -54 251 -75l-21 -66 q-135 25 -250 102z" />
<glyph unicode="R" horiz-adv-x="614" d="M93 0v690q83 8 231 8q119 0 167 -41.5t48 -155.5q0 -87 -29.5 -128.5t-97.5 -51.5v-4q27 -8 49 -33.5t33 -64.5l70 -219h-70l-66 217q-28 79 -99 79q-91 0 -171 2v-298h-65zM158 353h166q84 1 116.5 31.5t32.5 113.5q0 84 -32.5 114t-116.5 30q-86 0 -166 -2v-287z" />
<glyph unicode="S" horiz-adv-x="559" d="M59 522q0 60 12 96.5t42 54.5t66 23.5t98 4.5q111 0 199 -16l-5 -48q-118 6 -191 6q-49 0 -72 -2.5t-45.5 -14.5t-30 -37t-7.5 -69q0 -62 21.5 -89.5t73.5 -37.5l144 -30q77 -15 108.5 -59.5t31.5 -129.5q0 -60 -13 -97t-43 -56t-68 -25.5t-100 -6.5q-114 0 -210 15l4 49 q124 -6 208 -6q91 1 123 25t32 103q0 65 -21.5 92t-74.5 37l-147 31q-73 15 -104 59.5t-31 127.5z" />
<glyph unicode="T" horiz-adv-x="575" d="M25 632v58h525v-58h-230v-632h-66v632h-229z" />
<glyph unicode="U" horiz-adv-x="667" d="M88 261v429h65v-429q0 -119 40.5 -167t140.5 -48q99 0 139 48t40 167v429h66v-429q0 -149 -55 -211t-188 -62q-136 0 -192 62t-56 211z" />
<glyph unicode="V" horiz-adv-x="603" d="M20 690h68l178 -563q8 -25 22 -75h27q14 50 22 75l178 563h68l-219 -671q-7 -19 -26 -19h-73q-21 0 -26 19z" />
<glyph unicode="W" horiz-adv-x="941" d="M32 690h69l126 -559q8 -33 16 -80h25q8 43 16 79l122 537q5 23 27 23h75q22 0 27 -23l122 -537q5 -21 16 -79h26q2 9 4.5 25t5 29t5.5 24l127 561h69l-156 -670q-5 -20 -27 -20h-79q-23 0 -28 21q-9 42 -60 269.5t-78 348.5h-22q-12 -52 -18 -77l-121 -541 q-5 -21 -27 -21h-80q-22 0 -27 20z" />
<glyph unicode="X" horiz-adv-x="605" d="M30 0l203 358l-190 332h71l172 -305h32l172 305h72l-190 -332l203 -358h-73l-186 334h-28l-186 -334h-72z" />
<glyph unicode="Y" horiz-adv-x="559" d="M15 690h70l158 -306q13 -26 33 -74h7q13 31 33 73l158 307h69l-231 -443v-247h-65v248z" />
<glyph unicode="Z" horiz-adv-x="563" d="M50 0v56l386 578h-382v56h455v-56l-386 -578h392v-56h-465z" />
<glyph unicode="[" horiz-adv-x="323" d="M97 -119v841q0 20 12.5 33t32.5 13h136v-44h-107q-14 0 -14 -14v-817q0 -14 14 -14h107v-44h-136q-20 0 -32.5 12t-12.5 34z" />
<glyph unicode="\" horiz-adv-x="510" d="M31 690h55l393 -753h-55z" />
<glyph unicode="]" horiz-adv-x="323" d="M44 -121h108q14 0 14 14v817q0 14 -14 14h-108v44h136q20 0 33 -13t13 -33v-841q0 -20 -13 -33t-33 -13h-136v44z" />
<glyph unicode="^" horiz-adv-x="414" d="M30 386l154 205h46l154 -205l-26 -19l-147 177h-8l-146 -177z" />
<glyph unicode="_" horiz-adv-x="582" d="M73 0h436v-50h-436v50z" />
<glyph unicode="`" horiz-adv-x="301" d="M36 670l38 48l164 -146l-24 -30z" />
<glyph unicode="a" horiz-adv-x="545" d="M57 123v56q0 56 33 87t94 31h217v51q0 48 -22.5 71t-80.5 23q-86 0 -215 -14l-6 47q145 22 233 22q78 0 116.5 -34.5t38.5 -114.5v-348h-50l-8 85q-36 -36 -93.5 -64.5t-118.5 -28.5q-64 0 -101 34t-37 97zM121 129q0 -81 85 -81q44 -1 98.5 21.5t96.5 60.5v116h-207 q-73 -3 -73 -75v-42z" />
<glyph unicode="b" horiz-adv-x="566" d="M82 21v679h63v-194q0 -70 -7 -104q97 95 192 95q93 0 134.5 -59t41.5 -195q0 -133 -46.5 -194t-161.5 -61q-111 0 -216 33zM145 62q74 -21 152 -19q78 0 110.5 45t32.5 155q0 111 -27.5 154.5t-100.5 43.5q-39 0 -75.5 -19.5t-91.5 -62.5v-297z" />
<glyph unicode="c" horiz-adv-x="485" d="M60 242q0 140 51 197.5t176 57.5q89 0 149 -22l-10 -41q-53 8 -129 8q-96 0 -133.5 -42.5t-37.5 -157.5t37.5 -157t133.5 -42q84 0 141 11l7 -44q-74 -22 -158 -22q-125 0 -176 57t-51 197z" />
<glyph unicode="d" horiz-adv-x="569" d="M61 243q0 138 43 196t138 58q92 0 183 -47q-4 33 -4 95v155h63v-700h-49l-7 75q-99 -87 -194 -87q-92 0 -132.5 61t-40.5 194zM127 244q0 -113 28 -156.5t97 -43.5q41 0 77 17t92 60v285q-103 35 -166 35q-71 0 -99.5 -42.5t-28.5 -154.5z" />
<glyph unicode="e" horiz-adv-x="534" d="M60 244q0 140 50 196.5t167 56.5q103 0 152 -37.5t50 -113.5q2 -135 -111 -135h-242q6 -96 44 -132t124 -36q75 0 167 12l7 -43q-61 -24 -183 -24t-173.5 58.5t-51.5 197.5zM126 261h227q64 0 62 84q-1 51 -33 74t-102 23q-85 0 -119 -39.5t-35 -141.5z" />
<glyph unicode="f" horiz-adv-x="371" d="M31 434v45l87 5v93q0 69 31.5 104t104.5 35q74 0 130 -6l-4 -47h-104q-52 0 -73 -21t-21 -71v-87h163v-50h-163v-434h-64v434h-87z" />
<glyph unicode="g" horiz-adv-x="553" d="M47 -61q0 48 18 76.5t64 52.5q-43 27 -41.5 75t39.5 76q-60 33 -60 124q0 81 46 117.5t157 36.5q67 0 107 -13h152l-4 -36l-81 -6q28 -34 28 -99q0 -79 -46 -115t-156 -36q-68 0 -110 13q-15 -19 -18 -39.5t10.5 -38t44.5 -22.5l186 -31q66 -10 91.5 -41t25.5 -92 q0 -82 -49.5 -114t-175.5 -32q-128 0 -178 31.5t-50 112.5zM109 -57q0 -55 35 -74.5t131 -19.5q94 0 128.5 20t34.5 74q0 42 -16.5 58.5t-68.5 24.5l-181 28l-4 -3q-33 -23 -46 -46t-13 -62zM126 343q0 -54 33 -78t111 -24t110 24t32 78q0 56 -32 80t-110 24 q-79 0 -111.5 -24t-32.5 -80z" />
<glyph unicode="h" horiz-adv-x="577" d="M84 0v700h65v-201q0 -58 -7 -94q124 92 223 92q64 0 97.5 -34t33.5 -99v-364h-64v347q0 51 -19.5 73t-64.5 22q-44 0 -89 -19.5t-112 -64.5v-358h-63z" />
<glyph unicode="i" horiz-adv-x="238" d="M84 609v58q0 21 21 21h29q21 0 21 -21v-58q0 -21 -21 -21h-29q-21 0 -21 21zM88 0v484h63v-484h-63z" />
<glyph unicode="j" horiz-adv-x="239" d="M33 -178q55 70 55 154v508h64v-508q0 -110 -84 -182zM85 609v58q0 21 20 21h30q21 0 21 -21v-58q0 -21 -21 -21h-30q-20 0 -20 21z" />
<glyph unicode="k" horiz-adv-x="497" d="M84 0v700h65v-318q0 -38 -5 -83h71l167 185h75l-162 -181q-15 -19 -30 -28v-2q15 -11 30 -34l178 -239h-74l-184 251h-72q4 -37 4 -81v-170h-63z" />
<glyph unicode="l" horiz-adv-x="287" d="M85 108v592h63v-580q0 -70 71 -70h51l7 -48q-27 -10 -80 -10q-52 0 -82 30.5t-30 85.5z" />
<glyph unicode="m" horiz-adv-x="877" d="M84 0v484h52l4 -80q107 93 204 93q103 0 123 -91q106 91 202 91q62 0 95 -34t33 -99v-364h-63v347q-1 50 -21.5 72.5t-64.5 22.5q-40 0 -77 -18.5t-100 -65.5v-358h-61v347q0 50 -21 72.5t-65 22.5q-39 0 -76.5 -18.5t-100.5 -64.5v-359h-63z" />
<glyph unicode="n" horiz-adv-x="577" d="M84 0v484h53l5 -80q121 93 224 93q130 0 130 -133v-364h-63v347q0 51 -19.5 73t-64.5 22q-44 0 -88.5 -20t-112.5 -64v-358h-64z" />
<glyph unicode="o" horiz-adv-x="565" d="M60 242q0 140 50.5 197.5t172.5 57.5t172 -57.5t50 -197.5t-50 -197t-172 -57t-172.5 57.5t-50.5 196.5zM127 242q0 -114 34 -157t122 -43t122 43t34 157t-34 157t-122 43t-122 -43t-34 -157z" />
<glyph unicode="p" horiz-adv-x="573" d="M84 -204v688h52l6 -80q93 93 200 93q90 0 130 -62t40 -195q0 -137 -42.5 -194.5t-137.5 -57.5q-96 0 -187 51q4 -41 2 -96v-147h-63zM147 80q111 -36 171 -36q71 0 100 42.5t29 154.5q0 110 -28 155t-95 45q-40 0 -80 -19.5t-97 -63.5v-278z" />
<glyph unicode="q" horiz-adv-x="566" d="M60 241q0 135 47 195.5t165 60.5q108 0 212 -34v-667h-64v178q0 61 6 98q-101 -84 -200 -84q-86 0 -126 60.5t-40 192.5zM126 237q0 -104 26.5 -148.5t93.5 -44.5q43 0 81 17.5t94 57.5v303q-78 22 -148 20q-82 -1 -114.5 -44.5t-32.5 -160.5z" />
<glyph unicode="r" horiz-adv-x="394" d="M84 0v484h49l7 -80q119 93 214 93h21l-8 -60h-24q-42 0 -85 -17.5t-110 -57.5v-362h-64z" />
<glyph unicode="s" horiz-adv-x="505" d="M54 365q0 82 41.5 107.5t144.5 24.5q110 -2 198 -15l-6 -46q-120 6 -184 6q-80 1 -106 -11.5t-26 -65.5q0 -41 17 -57t57 -24l149 -28q58 -12 85 -41.5t27 -88.5q0 -85 -45.5 -111t-155.5 -26q-99 0 -185 13l5 47q79 -7 169 -6q89 1 119.5 16.5t30.5 66.5q0 39 -19 55 t-60 24l-148 28q-57 11 -82.5 41.5t-25.5 90.5z" />
<glyph unicode="t" horiz-adv-x="369" d="M29 434v45l88 5v147h63v-147h164v-50h-164v-314q0 -70 71 -70h79l8 -48q-50 -10 -101 -10q-120 0 -120 121v321h-88z" />
<glyph unicode="u" d="M81 120v364h63v-347q0 -50 21 -72t68 -22q41 0 82 18.5t104 61.5v361h63v-484h-50l-5 76q-112 -88 -215 -88q-131 0 -131 132z" />
<glyph unicode="v" horiz-adv-x="522" d="M22 484h68l132 -350q6 -15 16.5 -45t15.5 -42h13q19 50 41.5 110t40.5 107.5t42 111.5t41 108h67l-185 -468q-6 -16 -24 -16h-59q-18 0 -24 16z" />
<glyph unicode="w" horiz-adv-x="820" d="M28 484h66l114 -371q5 -17 19 -70h13q17 62 36.5 133.5t42.5 154.5t37 133q5 20 25 20h58q20 0 25 -21l97 -350l18 -70h14q15 58 18 70l115 371h66l-151 -465q-6 -19 -26 -19h-59q-21 0 -26 21l-96 347q-3 12 -9 37t-10 38h-11q-21 -84 -64.5 -241t-49.5 -181 q-5 -21 -27 -21h-58q-21 0 -26 19z" />
<glyph unicode="x" horiz-adv-x="520" d="M28 0l169 251l-157 233h70l137 -206h26l137 206h70l-157 -233l170 -251h-71l-151 227h-22l-151 -227h-70z" />
<glyph unicode="y" horiz-adv-x="521" d="M22 484h68l143 -378q16 -42 20 -56h14q31 85 91 243t72 191h68l-204 -518q-29 -74 -73 -119.5t-119 -53.5l-8 41q57 19 89 53t52 86l12 27h-16q-19 0 -25 17z" />
<glyph unicode="z" horiz-adv-x="506" d="M50 0v53l330 379h-326v52h398v-52l-329 -379h333v-53h-406z" />
<glyph unicode="{" horiz-adv-x="312" d="M49 303v50q25 8 31.5 10.5t16.5 11.5t11.5 21.5t1.5 36.5v205q0 70 37 102t119 28v-41q-54 0 -74.5 -21.5t-20.5 -71.5v-189q1 -60 -16 -83t-68 -34q52 -17 70 -39t18 -74v-246q0 -50 20.5 -71.5t74.5 -21.5v-41q-82 -4 -119 28t-37 102v262q0 20 -2.5 31.5t-13.5 20.5 t-18 12t-31 12z" />
<glyph unicode="|" horiz-adv-x="242" d="M97 -169v950h48v-950h-48z" />
<glyph unicode="}" horiz-adv-x="312" d="M42 -124q54 0 74.5 21.5t20.5 71.5v246q0 52 18 74t70 39q-51 11 -68 34t-16 83v189q0 50 -20.5 71.5t-74.5 21.5v41q82 4 119 -28t37 -102v-205q0 -45 10 -56t51 -24v-50q-44 -17 -53 -28q-12 -14 -12 -48v-262q0 -70 -37 -102t-119 -28v41z" />
<glyph unicode="~" horiz-adv-x="528" d="M80 233q-4 54 17.5 82t59.5 26q39 -2 106 -30.5t101 -31.5q28 -2 39 11t11 46h34q5 -53 -16 -80.5t-60 -24.5q-47 2 -113 30.5t-95 30.5q-27 3 -38 -11t-11 -48h-35z" />
<glyph unicode="&#xa1;" horiz-adv-x="248" d="M91 406v58q0 24 25 24h17q25 0 25 -24v-58q0 -24 -25 -24h-17q-25 0 -25 24zM92 112l6 168h52l6 -168v-311h-64v311z" />
<glyph unicode="&#xa2;" horiz-adv-x="506" d="M59 350q0 139 51.5 196.5t175.5 57.5h3l7 86h37l-8 -87q68 -6 110 -20l-9 -44q-43 8 -106 10l-31 -399h8q82 0 141 11l7 -44q-74 -22 -159 -22h-2l-8 -95h-36l8 97q-103 7 -146 65.5t-43 187.5zM123 350q0 -102 29.5 -146t100.5 -52l30 397q-89 -2 -124.5 -45.5 t-35.5 -153.5z" />
<glyph unicode="&#xa3;" horiz-adv-x="566" d="M59 343v40h79l-7 140q-3 57 8 93.5t38.5 54.5t59 24t80.5 6q75 0 171 -10l-4 -51q-70 5 -176 5q-67 0 -92 -27t-21 -95l7 -140h226l-2 -40h-222l5 -87q3 -74 -12.5 -122t-59.5 -80q21 2 64 2h311v-56h-447v56q49 28 66.5 77t13.5 123l-5 87h-81z" />
<glyph unicode="&#xa4;" horiz-adv-x="597" d="M72 158l73 73q-42 53 -42 121q0 69 43 122l-72 72l29 30l72 -73q54 43 123 43t122 -43l74 73l29 -30l-74 -72q42 -53 42 -122t-43 -122l75 -74l-30 -29l-74 74q-53 -43 -121 -43q-69 0 -122 42l-73 -73zM144 352q0 -64 45 -109.5t109 -44.5q62 -1 107 44.5t45 109.5 t-45 109t-107 45q-64 0 -109 -45t-45 -109z" />
<glyph unicode="&#xa5;" horiz-adv-x="612" d="M42 690h69l156 -285q19 -39 36 -75h7q26 57 35 74l156 286h69l-206 -373h160v-40h-182l-3 -6v-66h185v-40h-185v-165h-66v165h-180v40h180v66l-3 6h-178v40h156z" />
<glyph unicode="&#xa6;" horiz-adv-x="244" d="M98 -169v400h48v-400h-48zM98 381v400h48v-400h-48z" />
<glyph unicode="&#xa7;" horiz-adv-x="544" d="M66 581q0 73 46 97.5t145 23.5q123 -2 217 -12l-5 -49q-92 6 -198 7q-29 0 -46 -0.5t-36.5 -4t-30 -10.5t-17.5 -20.5t-7 -32.5q-1 -36 17 -59.5t53 -43.5l173 -97q66 -36 83.5 -89.5t3.5 -140.5h-48q6 68 -9 110t-59 67l-179 102q-55 32 -79 65t-24 87zM71 -143l5 49 q100 -6 199 -7q29 0 45 0.5t36 4t30 10.5t17.5 21t7.5 35q1 64 -70 103l-172 97q-67 36 -84.5 88.5t-3.5 139.5h48q-7 -69 7.5 -109t60.5 -66l179 -102q53 -30 77.5 -64.5t24.5 -88.5q0 -33 -9.5 -56.5t-24.5 -36.5t-41.5 -20t-51.5 -8.5t-63 -1.5q-122 2 -217 12z" />
<glyph unicode="&#xa8;" horiz-adv-x="407" d="M86 611v55q0 20 18 20h22q19 0 19 -20v-55q0 -19 -19 -19h-22q-18 0 -18 19zM263 611v55q0 20 19 20h21q19 0 19 -20v-55q0 -19 -19 -19h-21q-19 0 -19 19z" />
<glyph unicode="&#xa9;" horiz-adv-x="844" d="M64 345q0 154 104 255.5t254 101.5q151 0 254.5 -101.5t103.5 -255.5t-103.5 -255.5t-254.5 -101.5q-150 0 -254 101.5t-104 255.5zM101 345q0 -137 93.5 -228.5t227.5 -91.5t227 91.5t93 228.5t-93 228.5t-227 91.5t-227.5 -91.5t-93.5 -228.5zM232 348 q0 123 43.5 173.5t151.5 50.5q82 0 134 -13l-7 -37q-54 5 -128 5q-80 0 -111.5 -39.5t-31.5 -139.5q0 -101 31.5 -140.5t111.5 -39.5q92 0 140 6l5 -37q-62 -14 -144 -14q-108 0 -151.5 50.5t-43.5 174.5z" />
<glyph unicode="&#xaa;" horiz-adv-x="442" d="M69 351v39q0 38 23.5 58.5t66.5 20.5h155v34q0 60 -68 60q-63 0 -157 -9l-5 36q101 15 171 15q53 0 80.5 -24t27.5 -79v-231h-39l-6 62q-69 -67 -153 -67q-45 0 -70.5 22t-25.5 63zM118 360q0 -51 61 -51q31 -1 69 15t66 39v77l-141 -6q-55 -3 -55 -47v-27z" />
<glyph unicode="&#xab;" horiz-adv-x="473" d="M47 243v16l161 198l33 -22l-134 -184l135 -187l-33 -22zM220 243v16l161 198l33 -22l-134 -184l135 -187l-33 -22z" />
<glyph unicode="&#xac;" horiz-adv-x="591" d="M78 272v50h431v-191h-51v141h-380z" />
<glyph unicode="&#xad;" horiz-adv-x="460" d="M77 227v50h307v-50h-307z" />
<glyph unicode="&#xae;" horiz-adv-x="563" d="M59 479q0 92 65 157t158 65q92 0 157 -65t65 -157q0 -93 -65 -158t-157 -65q-93 0 -158 65t-65 158zM86 479q0 -82 57.5 -140t138.5 -58q80 0 138 58t58 140t-57.5 140t-138.5 58t-138.5 -58t-57.5 -140zM182 346v267q35 3 110 3q56 0 79 -16.5t23 -59.5q0 -33 -14 -49 t-47 -20v-2q29 -5 39 -39l33 -84h-34l-31 82q-12 31 -46 31l-80 1v-114h-32zM214 483h77q40 1 55.5 12.5t15.5 41.5q0 31 -15.5 42t-55.5 11h-77v-107z" />
<glyph unicode="&#xaf;" horiz-adv-x="400" d="M64 615v49h272v-49h-272z" />
<glyph unicode="&#xb0;" horiz-adv-x="370" d="M58 577q0 52 37 88.5t90 36.5q52 0 90 -37t38 -88q0 -52 -38 -89.5t-90 -37.5t-89.5 37.5t-37.5 89.5zM100 577q0 -35 25 -60.5t60 -25.5t60.5 25.5t25.5 60.5q0 36 -25 60.5t-61 24.5t-60.5 -24.5t-24.5 -60.5z" />
<glyph unicode="&#xb1;" horiz-adv-x="592" d="M81 78v49h430v-49h-430zM81 330v49h190v138h50v-138h190v-49h-191v-138h-49v138h-190z" />
<glyph unicode="&#xb2;" horiz-adv-x="437" d="M65 360v28q0 12 9 23l139 138q84 84 84 138q0 31 -22.5 41t-69.5 10q-59 0 -132 -10l-4 38q74 15 138 15q77 0 111 -18.5t34 -72.5q0 -36 -20 -70t-65 -80l-137 -136q50 2 73 1h167v-45h-305z" />
<glyph unicode="&#xb3;" horiz-adv-x="419" d="M65 363l4 38q66 -6 129 -6q58 0 82 19t24 67q0 36 -20.5 56.5t-75.5 20.5h-85v37l85 1q28 1 47 8t27 20t10.5 24t2.5 27q0 37 -21.5 50.5t-79.5 13.5q-66 0 -118 -5l-4 37q63 10 128 10q81 0 113 -20.5t32 -74.5q0 -92 -76 -105v-2q47 -6 66.5 -32.5t20.5 -71.5 q2 -64 -32 -93t-115 -29q-54 0 -144 10z" />
<glyph unicode="&#xb4;" horiz-adv-x="301" d="M57 572l164 146l38 -48l-178 -128z" />
<glyph unicode="&#xb6;" horiz-adv-x="595" d="M45 450q0 138 69.5 195t233.5 57q87 0 146 -17v-685h-51v652q-34 3 -117 6v-868h-51v411q-123 11 -176.5 69t-53.5 180z" />
<glyph unicode="&#xb7;" horiz-adv-x="225" d="M77 229v57q0 25 25 25h22q24 0 24 -25v-57q0 -25 -24 -25h-22q-25 0 -25 25z" />
<glyph unicode="&#xb8;" horiz-adv-x="228" d="M37 -226l10 35q44 -1 71.5 21t28.5 56q0 21 -12.5 29t-46.5 9l7 31q52 5 76 -9.5t23 -55.5q-2 -60 -45.5 -92.5t-111.5 -23.5z" />
<glyph unicode="&#xb9;" horiz-adv-x="291" d="M39 731l120 43h51v-414h-51v332q0 24 3 36l-116 -32z" />
<glyph unicode="&#xba;" horiz-adv-x="446" d="M65 434q0 94 35.5 132.5t122.5 38.5t122.5 -38.5t35.5 -132.5t-35.5 -132.5t-122.5 -38.5t-122.5 38.5t-35.5 132.5zM116 434q0 -74 23.5 -101.5t83.5 -27.5t83 27.5t23 101.5t-23 102t-83 28t-83.5 -28t-23.5 -102z" />
<glyph unicode="&#xbb;" horiz-adv-x="473" d="M58 64l135 187l-134 184l33 22l161 -198v-16l-162 -201zM231 64l135 187l-134 184l33 22l161 -198v-16l-162 -201z" />
<glyph unicode="&#xbc;" horiz-adv-x="855" d="M44 647l120 43h50v-414h-50v332q0 24 3 36l-117 -32zM133 0l459 690h48l-459 -690h-48zM471 163l134 251h50l-131 -245q-5 -10 0.5 -17.5t17.5 -7.5h172v123l10 68h38v-191h47v-35l-47 -4v-105h-48v104h-206q-25 0 -37 17t0 42z" />
<glyph unicode="&#xbd;" horiz-adv-x="881" d="M44 647l120 43h50v-414h-50v332q0 24 3 36l-117 -32zM129 0l459 690h48l-459 -690h-48zM523 0v28q0 12 8 23l140 138q84 85 84 138q0 31 -22.5 41t-69.5 10q-59 0 -132 -10l-4 38q74 15 138 15q77 0 111 -18.5t34 -72.5q0 -36 -20 -70t-66 -80l-136 -136q49 2 73 1h167 v-45h-305z" />
<glyph unicode="&#xbe;" horiz-adv-x="946" d="M60 277l4 38q67 -6 130 -6q58 0 82 19t24 66q0 36 -20.5 57t-75.5 21l-86 1v35l86 2q28 1 47 8t27 20t10.5 24t2.5 26q0 38 -21.5 51.5t-79.5 13.5q-66 0 -118 -5l-4 37q64 10 128 10q81 0 113 -20.5t32 -74.5q0 -92 -76 -105v-2q47 -6 66.5 -32t20.5 -72q2 -64 -32 -93 t-115 -29q-53 0 -145 10zM235 0l459 690h48l-459 -690h-48zM561 163l135 251h50l-132 -245q-5 -10 0.5 -17.5t17.5 -7.5h168v123l9 68h38v-191h53v-35l-53 -5v-104h-47v104h-202q-25 0 -37 17.5t0 41.5z" />
<glyph unicode="&#xbf;" horiz-adv-x="502" d="M46 -61q0 41 18.5 76.5t45.5 62.5t54 54.5t46.5 67.5t20.5 88h55q1 -52 -16.5 -95t-43 -71.5t-51 -54.5t-43.5 -56t-19 -63q-1 -56 34.5 -82.5t110.5 -26.5q92 0 197 11l5 -46q-7 -1 -35 -6t-37.5 -6t-33.5 -3.5t-49 -3.5t-59 -1q-200 0 -200 155zM226 414v57q0 25 25 25 h18q24 0 24 -25v-57q0 -25 -24 -25h-18q-25 0 -25 25z" />
<glyph unicode="&#xc0;" horiz-adv-x="615" d="M13 0l231 671q6 19 26 19h75q20 0 26 -19l231 -671h-68l-76 228h-301l-76 -228h-68zM152 859l38 48l164 -146l-24 -30zM176 285h263l-99 297q-2 5 -8.5 25t-9.5 31h-28q-23 -69 -67 -200t-51 -153z" />
<glyph unicode="&#xc1;" horiz-adv-x="615" d="M13 0l231 671q6 19 26 19h75q20 0 26 -19l231 -671h-68l-76 228h-301l-76 -228h-68zM176 285h263l-99 297q-2 5 -8.5 25t-9.5 31h-28q-23 -69 -67 -200t-51 -153zM249 761l164 146l38 -48l-178 -128z" />
<glyph unicode="&#xc2;" horiz-adv-x="615" d="M13 0l231 671q6 19 26 19h75q20 0 26 -19l231 -671h-68l-76 228h-301l-76 -228h-68zM151 767l133 124h47l133 -124l-23 -28l-130 99h-8l-129 -99zM176 285h263l-99 297q-2 5 -8.5 25t-9.5 31h-28q-23 -69 -67 -200t-51 -153z" />
<glyph unicode="&#xc3;" horiz-adv-x="615" d="M13 0l231 671q6 19 26 19h75q20 0 26 -19l231 -671h-68l-76 228h-301l-76 -228h-68zM155 769q-5 54 17 81.5t60 24.5q31 -3 74.5 -30t71.5 -30t40 10.5t12 44.5h31q4 -51 -17 -78t-60 -24q-36 3 -80 30.5t-66 29.5q-29 3 -40.5 -11t-11.5 -48h-31zM176 285h263l-99 297 q-2 5 -8.5 25t-9.5 31h-28q-23 -69 -67 -200t-51 -153z" />
<glyph unicode="&#xc4;" horiz-adv-x="615" d="M13 0l231 671q6 19 26 19h75q20 0 26 -19l231 -671h-68l-76 228h-301l-76 -228h-68zM176 285h263l-99 297q-2 5 -8.5 25t-9.5 31h-28q-23 -69 -67 -200t-51 -153zM190 790v55q0 20 18 20h22q19 0 19 -20v-55q0 -19 -19 -19h-22q-18 0 -18 19zM367 790v55q0 20 18 20h22 q19 0 19 -20v-55q0 -19 -19 -19h-22q-18 0 -18 19z" />
<glyph unicode="&#xc5;" horiz-adv-x="615" d="M13 0l231 671q6 19 26 19h75q20 0 26 -19l231 -671h-68l-76 228h-301l-76 -228h-68zM176 285h263l-99 297q-2 5 -8.5 25t-9.5 31h-28q-23 -69 -67 -200t-51 -153zM205 817q0 43 30 72.5t73 29.5q42 0 72.5 -30t30.5 -72q0 -43 -30 -72t-73 -29t-73 29t-30 72zM243 817 q0 -29 18.5 -47.5t46.5 -18.5t46.5 18.5t18.5 47.5q0 30 -18.5 48.5t-46.5 18.5t-46.5 -18.5t-18.5 -48.5z" />
<glyph unicode="&#xc6;" horiz-adv-x="911" d="M3 0l363 590q35 59 80 79.5t124 20.5q183 0 287 -5l-2 -51h-261q-32 0 -52 -20t-20 -54v-167h292v-54h-292v-211q0 -73 72 -73h261l2 -50q-94 -6 -287 -6q-49 0 -79.5 32t-30.5 82v129h-240l-147 -242h-70zM254 297h206v271q0 22 10.5 43.5t24.5 30.5h-8q-34 -18 -64 -66 z" />
<glyph unicode="&#xc7;" d="M67 345q0 197 59 277t205 80q109 0 184 -19l-8 -49q-76 9 -176 9q-110 0 -153 -65t-43 -233t43 -233t153 -65q114 0 190 11l8 -49q-78 -21 -198 -21q-146 0 -205 80t-59 277zM231 -238l10 35q44 -1 71.5 21t28.5 56q1 21 -11.5 29t-47.5 9l7 31q53 5 76.5 -9.5 t22.5 -55.5q-1 -60 -44.5 -92.5t-112.5 -23.5z" />
<glyph unicode="&#xc8;" horiz-adv-x="557" d="M87 113v464q0 52 33.5 83t88.5 31q201 0 295 -6l-4 -50h-280q-67 0 -67 -73v-169h308v-53h-308v-213q0 -72 67 -72h280l4 -50q-94 -6 -295 -6q-55 0 -88.5 31t-33.5 83zM154 881l38 48l164 -146l-24 -30z" />
<glyph unicode="&#xc9;" horiz-adv-x="557" d="M87 113v464q0 52 33.5 83t88.5 31q201 0 295 -6l-4 -50h-280q-67 0 -67 -73v-169h308v-53h-308v-213q0 -72 67 -72h280l4 -50q-94 -6 -295 -6q-55 0 -88.5 31t-33.5 83zM251 783l164 146l38 -48l-178 -128z" />
<glyph unicode="&#xca;" horiz-adv-x="557" d="M87 113v464q0 52 33.5 83t88.5 31q201 0 295 -6l-4 -50h-280q-67 0 -67 -73v-169h308v-53h-308v-213q0 -72 67 -72h280l4 -50q-94 -6 -295 -6q-55 0 -88.5 31t-33.5 83zM153 789l133 124h46l134 -124l-23 -28l-130 99h-8l-129 -99z" />
<glyph unicode="&#xcb;" horiz-adv-x="557" d="M87 113v464q0 52 33.5 83t88.5 31q201 0 295 -6l-4 -50h-280q-67 0 -67 -73v-169h308v-53h-308v-213q0 -72 67 -72h280l4 -50q-94 -6 -295 -6q-55 0 -88.5 31t-33.5 83zM191 813v55q0 19 19 19h22q19 0 19 -19v-55q0 -20 -19 -20h-22q-19 0 -19 20zM368 813v55 q0 19 19 19h22q19 0 19 -19v-55q0 -20 -19 -20h-22q-19 0 -19 20z" />
<glyph unicode="&#xcc;" horiz-adv-x="251" d="M-31 859l38 48l164 -146l-24 -30zM93 0v690h65v-690h-65z" />
<glyph unicode="&#xcd;" horiz-adv-x="251" d="M66 761l164 146l38 -48l-178 -128zM93 0v690h65v-690h-65z" />
<glyph unicode="&#xce;" horiz-adv-x="251" d="M-32 767l134 124h46l133 -124l-23 -28l-129 99h-8l-130 -99zM93 0v690h65v-690h-65z" />
<glyph unicode="&#xcf;" horiz-adv-x="251" d="M7 790v55q0 20 18 20h22q19 0 19 -20v-55q0 -19 -19 -19h-22q-18 0 -18 19zM93 0v690h65v-690h-65zM184 790v55q0 20 19 20h21q19 0 19 -20v-55q0 -19 -19 -19h-21q-19 0 -19 19z" />
<glyph unicode="&#xd0;" horiz-adv-x="666" d="M24 349v39h73v302q124 9 239 9q146 0 204.5 -78.5t58.5 -275.5t-58.5 -275.5t-204.5 -78.5q-113 0 -239 9v349h-73zM162 51q100 -2 174 -2q109 0 151.5 65t42.5 231t-42.5 231.5t-151.5 65.5q-18 0 -174 -3v-251h163v-39h-163v-298z" />
<glyph unicode="&#xd1;" horiz-adv-x="699" d="M93 0v662q0 28 27 28h68q22 0 32 -22l257 -512q31 -62 46 -93h21q-3 49 -3 99v528h65v-662q0 -28 -27 -28h-70q-22 0 -32 22l-263 524q-37 77 -39 83h-19q2 -27 2 -83v-546h-65zM206 769q-4 54 17.5 81.5t59.5 24.5q31 -3 74.5 -30t71.5 -30q29 -3 40.5 10t11.5 45h32 q4 -51 -17.5 -78t-59.5 -24q-36 3 -80.5 30.5t-66.5 29.5q-28 3 -39.5 -11t-11.5 -48h-32z" />
<glyph unicode="&#xd2;" horiz-adv-x="666" d="M67 345q0 200 59 278.5t207 78.5t207 -78.5t59 -278.5t-59 -278.5t-207 -78.5t-207 78.5t-59 278.5zM135 345q0 -168 43.5 -233.5t154.5 -65.5t154 65.5t43 233.5t-43 233.5t-154 65.5t-154.5 -65.5t-43.5 -233.5zM177 859l38 48l164 -146l-24 -30z" />
<glyph unicode="&#xd3;" horiz-adv-x="666" d="M67 345q0 200 59 278.5t207 78.5t207 -78.5t59 -278.5t-59 -278.5t-207 -78.5t-207 78.5t-59 278.5zM135 345q0 -168 43.5 -233.5t154.5 -65.5t154 65.5t43 233.5t-43 233.5t-154 65.5t-154.5 -65.5t-43.5 -233.5zM274 761l164 146l37 -48l-177 -128z" />
<glyph unicode="&#xd4;" horiz-adv-x="666" d="M67 345q0 200 59 278.5t207 78.5t207 -78.5t59 -278.5t-59 -278.5t-207 -78.5t-207 78.5t-59 278.5zM135 345q0 -168 43.5 -233.5t154.5 -65.5t154 65.5t43 233.5t-43 233.5t-154 65.5t-154.5 -65.5t-43.5 -233.5zM176 767l133 124h46l134 -124l-23 -28l-130 99h-8 l-129 -99z" />
<glyph unicode="&#xd5;" horiz-adv-x="666" d="M67 345q0 200 59 278.5t207 78.5t207 -78.5t59 -278.5t-59 -278.5t-207 -78.5t-207 78.5t-59 278.5zM135 345q0 -168 43.5 -233.5t154.5 -65.5t154 65.5t43 233.5t-43 233.5t-154 65.5t-154.5 -65.5t-43.5 -233.5zM179 769q-4 54 17.5 81.5t59.5 24.5q31 -3 74.5 -30 t71.5 -30q29 -3 40.5 10t11.5 45h32q4 -51 -17.5 -78t-59.5 -24q-36 3 -80.5 30.5t-66.5 29.5q-28 3 -39.5 -11t-11.5 -48h-32z" />
<glyph unicode="&#xd6;" horiz-adv-x="666" d="M67 345q0 200 59 278.5t207 78.5t207 -78.5t59 -278.5t-59 -278.5t-207 -78.5t-207 78.5t-59 278.5zM135 345q0 -168 43.5 -233.5t154.5 -65.5t154 65.5t43 233.5t-43 233.5t-154 65.5t-154.5 -65.5t-43.5 -233.5zM214 790v55q0 20 19 20h22q19 0 19 -20v-55 q0 -19 -19 -19h-22q-19 0 -19 19zM391 790v55q0 20 19 20h22q19 0 19 -20v-55q0 -19 -19 -19h-22q-19 0 -19 19z" />
<glyph unicode="&#xd7;" horiz-adv-x="486" d="M53 428l32 39l353 -318l-31 -38z" />
<glyph unicode="&#xd8;" horiz-adv-x="666" d="M67 345q0 200 59 278.5t207 78.5q80 0 130 -20l31 65l37 -16l-32 -68q53 -36 76.5 -112t23.5 -206q0 -200 -59 -278.5t-207 -78.5q-88 0 -139 24l-32 -67l-37 16l34 72q-49 37 -70.5 112t-21.5 200zM135 345q0 -183 54 -247l247 526q-39 20 -103 20q-111 0 -154.5 -65.5 t-43.5 -233.5zM221 71q43 -25 112 -25q111 0 154 65.5t43 233.5q0 194 -61 255z" />
<glyph unicode="&#xd9;" horiz-adv-x="667" d="M88 261v429h65v-429q0 -119 40.5 -167t140.5 -48q99 0 139 48t40 167v429h66v-429q0 -149 -55 -211t-188 -62q-136 0 -192 62t-56 211zM179 859l37 48l164 -146l-23 -30z" />
<glyph unicode="&#xda;" horiz-adv-x="667" d="M88 261v429h65v-429q0 -119 40.5 -167t140.5 -48q99 0 139 48t40 167v429h66v-429q0 -149 -55 -211t-188 -62q-136 0 -192 62t-56 211zM275 761l164 146l38 -48l-178 -128z" />
<glyph unicode="&#xdb;" horiz-adv-x="667" d="M88 261v429h65v-429q0 -119 40.5 -167t140.5 -48q99 0 139 48t40 167v429h66v-429q0 -149 -55 -211t-188 -62q-136 0 -192 62t-56 211zM178 767l133 124h46l134 -124l-24 -28l-129 99h-8l-130 -99z" />
<glyph unicode="&#xdc;" horiz-adv-x="667" d="M88 261v429h65v-429q0 -119 40.5 -167t140.5 -48q99 0 139 48t40 167v429h66v-429q0 -149 -55 -211t-188 -62q-136 0 -192 62t-56 211zM216 790v55q0 20 18 20h23q18 0 18 -20v-55q0 -19 -18 -19h-23q-18 0 -18 19zM393 790v55q0 20 19 20h22q19 0 19 -20v-55 q0 -19 -19 -19h-22q-19 0 -19 19z" />
<glyph unicode="&#xdd;" horiz-adv-x="559" d="M15 690h70l158 -306q13 -26 33 -74h7q13 31 33 73l158 307h69l-231 -443v-247h-65v248zM220 761l164 146l38 -48l-178 -128z" />
<glyph unicode="&#xde;" horiz-adv-x="589" d="M93 0v690h65v-130q46 3 166 3q121 0 167.5 -44.5t46.5 -168.5t-45.5 -168t-161.5 -44q-98 0 -173 7v-145h-65zM158 195h165q84 1 116 32.5t32 122.5q0 92 -32 124t-116 32q-124 0 -165 -1v-310z" />
<glyph unicode="&#xdf;" horiz-adv-x="667" d="M31 433v49l87 2v55q0 58 14.5 95t46 55t67 23.5t91.5 5.5q116 0 167.5 -27.5t51.5 -97.5q0 -49 -19.5 -77t-72.5 -54q-12 -6 -32.5 -15t-28.5 -13t-20.5 -11.5t-17 -14t-8 -17.5t-3.5 -25q0 -28 15 -42t50 -29l115 -43q48 -20 69 -47.5t21 -79.5q0 -82 -40.5 -109 t-129.5 -27q-81 0 -162 11l4 48q65 -6 147 -6q68 1 93.5 16.5t25.5 68.5q0 37 -16 53t-54 31l-115 45q-84 32 -84 109q0 15 3 27.5t6.5 21.5t13 18.5t15 14.5t20.5 13.5t21.5 11.5t26.5 12t27 12q41 19 56 39t15 57q0 39 -36.5 56t-121.5 17q-92 0 -124.5 -26.5 t-32.5 -105.5v-533h-64v433h-87z" />
<glyph unicode="&#xe0;" horiz-adv-x="545" d="M57 123v56q0 56 33 87t94 31h217v51q0 48 -22.5 71t-80.5 23q-86 0 -215 -14l-6 47q145 22 233 22q78 0 116.5 -34.5t38.5 -114.5v-348h-50l-8 85q-36 -36 -93.5 -64.5t-118.5 -28.5q-64 0 -101 34t-37 97zM112 678l38 48l164 -146l-24 -30zM121 129q0 -81 85 -81 q44 -1 98.5 21.5t96.5 60.5v116h-207q-73 -3 -73 -75v-42z" />
<glyph unicode="&#xe1;" horiz-adv-x="545" d="M57 123v56q0 56 33 87t94 31h217v51q0 48 -22.5 71t-80.5 23q-86 0 -215 -14l-6 47q145 22 233 22q78 0 116.5 -34.5t38.5 -114.5v-348h-50l-8 85q-36 -36 -93.5 -64.5t-118.5 -28.5q-64 0 -101 34t-37 97zM121 129q0 -81 85 -81q44 -1 98.5 21.5t96.5 60.5v116h-207 q-73 -3 -73 -75v-42zM209 580l164 146l38 -48l-178 -128z" />
<glyph unicode="&#xe2;" horiz-adv-x="545" d="M57 123v56q0 56 33 87t94 31h217v51q0 48 -22.5 71t-80.5 23q-86 0 -215 -14l-6 47q145 22 233 22q78 0 116.5 -34.5t38.5 -114.5v-348h-50l-8 85q-36 -36 -93.5 -64.5t-118.5 -28.5q-64 0 -101 34t-37 97zM111 586l134 124h46l134 -124l-24 -28l-129 100h-8l-130 -100z M121 129q0 -81 85 -81q44 -1 98.5 21.5t96.5 60.5v116h-207q-73 -3 -73 -75v-42z" />
<glyph unicode="&#xe3;" horiz-adv-x="545" d="M57 123v56q0 56 33 87t94 31h217v51q0 48 -22.5 71t-80.5 23q-86 0 -215 -14l-6 47q145 22 233 22q78 0 116.5 -34.5t38.5 -114.5v-348h-50l-8 85q-36 -36 -93.5 -64.5t-118.5 -28.5q-64 0 -101 34t-37 97zM115 589q-4 53 17.5 80.5t59.5 24.5q31 -3 74.5 -30t71.5 -30 q29 -3 40.5 10t11.5 45h31q5 -51 -16.5 -78t-59.5 -24q-37 3 -81.5 30.5t-65.5 30.5q-28 3 -39.5 -11.5t-11.5 -47.5h-32zM121 129q0 -81 85 -81q44 -1 98.5 21.5t96.5 60.5v116h-207q-73 -3 -73 -75v-42z" />
<glyph unicode="&#xe4;" horiz-adv-x="545" d="M57 123v56q0 56 33 87t94 31h217v51q0 48 -22.5 71t-80.5 23q-86 0 -215 -14l-6 47q145 22 233 22q78 0 116.5 -34.5t38.5 -114.5v-348h-50l-8 85q-36 -36 -93.5 -64.5t-118.5 -28.5q-64 0 -101 34t-37 97zM121 129q0 -81 85 -81q44 -1 98.5 21.5t96.5 60.5v116h-207 q-73 -3 -73 -75v-42zM150 610v55q0 19 18 19h23q18 0 18 -19v-55q0 -20 -18 -20h-23q-18 0 -18 20zM327 610v55q0 19 19 19h22q18 0 18 -19v-55q0 -20 -18 -20h-22q-19 0 -19 20z" />
<glyph unicode="&#xe5;" horiz-adv-x="545" d="M57 123v56q0 56 33 87t94 31h217v51q0 48 -22.5 71t-80.5 23q-86 0 -215 -14l-6 47q145 22 233 22q78 0 116.5 -34.5t38.5 -114.5v-348h-50l-8 85q-36 -36 -93.5 -64.5t-118.5 -28.5q-64 0 -101 34t-37 97zM121 129q0 -81 85 -81q44 -1 98.5 21.5t96.5 60.5v116h-207 q-73 -3 -73 -75v-42zM165 637q0 42 30.5 71.5t72.5 29.5q43 0 73.5 -29.5t30.5 -71.5q0 -43 -30.5 -72t-73.5 -29t-73 29t-30 72zM203 637q0 -29 18.5 -47.5t46.5 -18.5t47 18.5t19 47.5t-19 47.5t-47 18.5t-46.5 -18.5t-18.5 -47.5z" />
<glyph unicode="&#xe6;" horiz-adv-x="874" d="M57 123v56q0 56 33 87t94 31h217v51q0 48 -22.5 71t-80.5 23q-86 0 -215 -14l-6 47q145 22 233 22q104 0 137 -62q49 62 171 62q103 0 152 -37.5t50 -113.5q1 -70 -30.5 -102.5t-101.5 -32.5h-220q5 -96 43 -132t124 -36q77 0 167 12l7 -43q-61 -24 -182 -24 q-83 0 -132 25.5t-72 82.5q-36 -39 -98.5 -71.5t-129.5 -32.5q-64 0 -101 34t-37 97zM121 129q0 -81 85 -81q46 -1 103.5 23t101.5 64q-10 43 -10 109v2h-207q-73 -3 -73 -75v-42zM467 261h207q46 0 64.5 21.5t17.5 62.5q-1 50 -33 73.5t-102 23.5q-85 0 -119 -39.5 t-35 -141.5z" />
<glyph unicode="&#xe7;" horiz-adv-x="485" d="M60 242q0 140 51 197.5t176 57.5q89 0 149 -22l-10 -41q-53 8 -129 8q-96 0 -133.5 -42.5t-37.5 -157.5t37.5 -157t133.5 -42q84 0 141 11l7 -44q-74 -22 -158 -22q-125 0 -176 57t-51 197zM185 -238l10 35q44 -1 71.5 21t28.5 56q1 21 -11.5 29t-47.5 9l7 31 q53 5 77 -9.5t23 -55.5q-2 -60 -45.5 -92.5t-112.5 -23.5z" />
<glyph unicode="&#xe8;" horiz-adv-x="534" d="M60 244q0 140 50 196.5t167 56.5q103 0 152 -37.5t50 -113.5q2 -135 -111 -135h-242q6 -96 44 -132t124 -36q75 0 167 12l7 -43q-61 -24 -183 -24t-173.5 58.5t-51.5 197.5zM123 678l38 48l164 -146l-24 -30zM126 261h227q64 0 62 84q-1 51 -33 74t-102 23 q-85 0 -119 -39.5t-35 -141.5z" />
<glyph unicode="&#xe9;" horiz-adv-x="534" d="M60 244q0 140 50 196.5t167 56.5q103 0 152 -37.5t50 -113.5q2 -135 -111 -135h-242q6 -96 44 -132t124 -36q75 0 167 12l7 -43q-61 -24 -183 -24t-173.5 58.5t-51.5 197.5zM126 261h227q64 0 62 84q-1 51 -33 74t-102 23q-85 0 -119 -39.5t-35 -141.5zM220 580l164 146 l37 -48l-178 -128z" />
<glyph unicode="&#xea;" horiz-adv-x="534" d="M60 244q0 140 50 196.5t167 56.5q103 0 152 -37.5t50 -113.5q2 -135 -111 -135h-242q6 -96 44 -132t124 -36q75 0 167 12l7 -43q-61 -24 -183 -24t-173.5 58.5t-51.5 197.5zM122 586l133 124h46l134 -124l-23 -28l-130 100h-8l-129 -100zM126 261h227q64 0 62 84 q-1 51 -33 74t-102 23q-85 0 -119 -39.5t-35 -141.5z" />
<glyph unicode="&#xeb;" horiz-adv-x="534" d="M60 244q0 140 50 196.5t167 56.5q103 0 152 -37.5t50 -113.5q2 -135 -111 -135h-242q6 -96 44 -132t124 -36q75 0 167 12l7 -43q-61 -24 -183 -24t-173.5 58.5t-51.5 197.5zM126 261h227q64 0 62 84q-1 51 -33 74t-102 23q-85 0 -119 -39.5t-35 -141.5zM160 610v55 q0 19 19 19h22q18 0 18 -19v-55q0 -20 -18 -20h-22q-19 0 -19 20zM337 610v55q0 19 19 19h22q19 0 19 -19v-55q0 -20 -19 -20h-22q-19 0 -19 20z" />
<glyph unicode="&#xec;" horiz-adv-x="239" d="M-37 678l38 48l164 -146l-24 -30zM88 0v484h63v-484h-63z" />
<glyph unicode="&#xed;" horiz-adv-x="239" d="M60 580l164 146l38 -48l-178 -128zM88 0v484h63v-484h-63z" />
<glyph unicode="&#xee;" horiz-adv-x="239" d="M-38 586l134 124h46l133 -124l-23 -28l-129 100h-8l-130 -100zM88 0v484h63v-484h-63z" />
<glyph unicode="&#xef;" horiz-adv-x="239" d="M1 610v55q0 19 18 19h22q19 0 19 -19v-55q0 -20 -19 -20h-22q-18 0 -18 20zM88 0v484h63v-484h-63zM178 610v55q0 19 19 19h21q19 0 19 -19v-55q0 -20 -19 -20h-21q-19 0 -19 20z" />
<glyph unicode="&#xf0;" horiz-adv-x="555" d="M61 220q0 112 47 169.5t155 57.5q82 0 148 -42q-22 123 -91 184l-83 -61l-23 30l73 55q-65 41 -169 39l8 46q123 5 207 -51l80 60l24 -31l-71 -53q119 -104 119 -342q0 -69 -8 -117t-29.5 -90.5t-65 -64t-109.5 -21.5q-110 0 -161 55.5t-51 176.5zM127 220q0 -96 35 -137 t112 -41q89 0 117.5 58t28.5 187q0 40 -3 73q-67 33 -147 33q-78 0 -110.5 -44.5t-32.5 -128.5z" />
<glyph unicode="&#xf1;" horiz-adv-x="577" d="M84 0v484h53l5 -80q121 93 224 93q130 0 130 -133v-364h-63v347q0 51 -19.5 73t-64.5 22q-44 0 -88.5 -20t-112.5 -64v-358h-64zM142 589q-4 53 17.5 80.5t59.5 24.5q31 -3 74.5 -30t71.5 -30q29 -3 40.5 10t11.5 45h32q4 -51 -17.5 -78t-59.5 -24q-37 3 -81.5 30.5 t-65.5 30.5q-28 3 -39.5 -11.5t-11.5 -47.5h-32z" />
<glyph unicode="&#xf2;" horiz-adv-x="565" d="M60 242q0 140 50.5 197.5t172.5 57.5t172 -57.5t50 -197.5t-50 -197t-172 -57t-172.5 57.5t-50.5 196.5zM126 678l38 48l164 -146l-24 -30zM127 242q0 -114 34 -157t122 -43t122 43t34 157t-34 157t-122 43t-122 -43t-34 -157z" />
<glyph unicode="&#xf3;" horiz-adv-x="565" d="M60 242q0 140 50.5 197.5t172.5 57.5t172 -57.5t50 -197.5t-50 -197t-172 -57t-172.5 57.5t-50.5 196.5zM127 242q0 -114 34 -157t122 -43t122 43t34 157t-34 157t-122 43t-122 -43t-34 -157zM223 580l164 146l37 -48l-178 -128z" />
<glyph unicode="&#xf4;" horiz-adv-x="565" d="M60 242q0 140 50.5 197.5t172.5 57.5t172 -57.5t50 -197.5t-50 -197t-172 -57t-172.5 57.5t-50.5 196.5zM125 586l133 124h46l134 -124l-23 -28l-130 100h-8l-129 -100zM127 242q0 -114 34 -157t122 -43t122 43t34 157t-34 157t-122 43t-122 -43t-34 -157z" />
<glyph unicode="&#xf5;" horiz-adv-x="565" d="M60 242q0 140 50.5 197.5t172.5 57.5t172 -57.5t50 -197.5t-50 -197t-172 -57t-172.5 57.5t-50.5 196.5zM127 242q0 -114 34 -157t122 -43t122 43t34 157t-34 157t-122 43t-122 -43t-34 -157zM128 589q-4 53 17.5 80.5t59.5 24.5q31 -3 74.5 -30t71.5 -30q29 -3 40.5 10 t11.5 45h32q4 -51 -17.5 -78t-59.5 -24q-37 3 -81.5 30.5t-65.5 30.5q-28 3 -39.5 -11.5t-11.5 -47.5h-32z" />
<glyph unicode="&#xf6;" horiz-adv-x="565" d="M60 242q0 140 50.5 197.5t172.5 57.5t172 -57.5t50 -197.5t-50 -197t-172 -57t-172.5 57.5t-50.5 196.5zM127 242q0 -114 34 -157t122 -43t122 43t34 157t-34 157t-122 43t-122 -43t-34 -157zM163 610v55q0 19 19 19h22q18 0 18 -19v-55q0 -20 -18 -20h-22q-19 0 -19 20z M340 610v55q0 19 19 19h22q19 0 19 -19v-55q0 -20 -19 -20h-22q-19 0 -19 20z" />
<glyph unicode="&#xf7;" horiz-adv-x="577" d="M73 271v49h431v-49h-431zM254 98v53q0 25 24 25h18q25 0 25 -25v-53q0 -24 -25 -24h-18q-14 0 -19 5t-5 19zM254 438v54q0 25 24 25h18q25 0 25 -25v-54q0 -24 -25 -24h-18q-14 0 -19 5t-5 19z" />
<glyph unicode="&#xf8;" horiz-adv-x="565" d="M60 242q0 140 50.5 197.5t172.5 57.5q54 0 91 -10l30 66l33 -16l-29 -62q51 -24 74 -80.5t23 -152.5q0 -140 -50 -197t-172 -57q-60 0 -97 11l-32 -69l-33 15l32 67q-49 25 -71 80.5t-22 149.5zM127 242q0 -136 51 -175l171 368q-25 7 -66 7q-88 0 -122 -43t-34 -157z M210 51q30 -9 73 -9q88 0 122 43t34 157q0 140 -57 178z" />
<glyph unicode="&#xf9;" d="M81 120v364h63v-347q0 -50 21 -72t68 -22q41 0 82 18.5t104 61.5v361h63v-484h-50l-5 76q-112 -88 -215 -88q-131 0 -131 132zM129 680l38 48l164 -146l-24 -29z" />
<glyph unicode="&#xfa;" d="M81 120v364h63v-347q0 -50 21 -72t68 -22q41 0 82 18.5t104 61.5v361h63v-484h-50l-5 76q-112 -88 -215 -88q-131 0 -131 132zM225 582l164 146l38 -48l-178 -127z" />
<glyph unicode="&#xfb;" d="M81 120v364h63v-347q0 -50 21 -72t68 -22q41 0 82 18.5t104 61.5v361h63v-484h-50l-5 76q-112 -88 -215 -88q-131 0 -131 132zM128 589l133 123h46l134 -123l-23 -28l-130 99h-8l-129 -99z" />
<glyph unicode="&#xfc;" d="M81 120v364h63v-347q0 -50 21 -72t68 -22q41 0 82 18.5t104 61.5v361h63v-484h-50l-5 76q-112 -88 -215 -88q-131 0 -131 132zM166 612v55q0 20 19 20h22q18 0 18 -20v-55q0 -19 -18 -19h-22q-19 0 -19 19zM343 612v55q0 20 19 20h22q19 0 19 -20v-55q0 -19 -19 -19h-22 q-19 0 -19 19z" />
<glyph unicode="&#xfd;" horiz-adv-x="521" d="M22 484h68l143 -378q16 -42 20 -56h14q31 85 91 243t72 191h68l-204 -518q-29 -74 -73 -119.5t-119 -53.5l-8 41q57 19 89 53t52 86l12 27h-16q-19 0 -25 17zM204 580l164 146l38 -48l-178 -128z" />
<glyph unicode="&#xfe;" horiz-adv-x="570" d="M84 -204v904h64v-182q0 -64 -4 -98q93 76 188 76t135 -59.5t40 -196.5q0 -139 -40.5 -195.5t-135.5 -56.5t-186 47q3 -32 3 -92v-147h-64zM148 82q102 -41 165 -41q70 0 99.5 44t29.5 155q0 112 -28.5 156.5t-97.5 44.5q-70 0 -168 -74v-285z" />
<glyph unicode="&#xff;" horiz-adv-x="521" d="M22 484h68l143 -378q16 -42 20 -56h14q31 85 91 243t72 191h68l-204 -518q-29 -74 -73 -119.5t-119 -53.5l-8 41q57 19 89 53t52 86l12 27h-16q-19 0 -25 17zM144 610v55q0 19 19 19h22q19 0 19 -19v-55q0 -20 -19 -20h-22q-19 0 -19 20zM321 610v55q0 19 19 19h22 q19 0 19 -19v-55q0 -20 -19 -20h-22q-19 0 -19 20z" />
<glyph unicode="&#x100;" horiz-adv-x="615" d="M13 0l231 671q6 19 26 19h75q20 0 26 -19l231 -671h-68l-76 228h-301l-76 -228h-68zM172 792v49h272v-49h-272zM176 285h263l-99 297q-2 5 -8.5 25t-9.5 31h-28q-23 -69 -67 -200t-51 -153z" />
<glyph unicode="&#x101;" horiz-adv-x="545" d="M57 123v56q0 56 33 87t94 31h217v51q0 48 -22.5 71t-80.5 23q-86 0 -215 -14l-6 47q145 22 233 22q78 0 116.5 -34.5t38.5 -114.5v-348h-50l-8 85q-36 -36 -93.5 -64.5t-118.5 -28.5q-64 0 -101 34t-37 97zM121 129q0 -81 85 -81q44 -1 98.5 21.5t96.5 60.5v116h-207 q-73 -3 -73 -75v-42zM132 612v49h273v-49h-273z" />
<glyph unicode="&#x102;" horiz-adv-x="615" d="M13 0l231 671q6 19 26 19h75q20 0 26 -19l231 -671h-68l-76 228h-301l-76 -228h-68zM162 874l35 6q0 -39 29 -60.5t82 -21.5q51 0 80.5 21.5t29.5 60.5l34 -6q3 -56 -36 -90.5t-108 -34.5t-108.5 34.5t-37.5 90.5zM176 285h263l-99 297q-2 5 -8.5 25t-9.5 31h-28 q-23 -69 -67 -200t-51 -153z" />
<glyph unicode="&#x103;" horiz-adv-x="545" d="M57 123v56q0 56 33 87t94 31h217v51q0 48 -22.5 71t-80.5 23q-86 0 -215 -14l-6 47q145 22 233 22q78 0 116.5 -34.5t38.5 -114.5v-348h-50l-8 85q-36 -36 -93.5 -64.5t-118.5 -28.5q-64 0 -101 34t-37 97zM121 129q0 -81 85 -81q44 -1 98.5 21.5t96.5 60.5v116h-207 q-73 -3 -73 -75v-42zM123 694l34 5q0 -39 29.5 -60t82.5 -21q51 0 80 21t29 60l35 -5q2 -57 -37 -91.5t-108 -34.5t-108.5 34.5t-36.5 91.5z" />
<glyph unicode="&#x104;" horiz-adv-x="615" d="M13 0l231 671q6 19 26 19h75q20 0 26 -19l231 -671q-58 -64 -79 -118q-16 -40 8.5 -53t75.5 5l7 -28q-86 -33 -121.5 -7.5t-15.5 81.5q20 60 91 120h-34l-76 228h-301l-76 -228h-68zM176 285h263l-99 297q-2 5 -8.5 25t-9.5 31h-28q-23 -69 -67 -200t-51 -153z" />
<glyph unicode="&#x105;" horiz-adv-x="545" d="M57 123v56q0 56 33 87t94 31h217v51q0 48 -22.5 71t-80.5 23q-86 0 -215 -14l-6 47q145 22 233 22q78 0 116.5 -34.5t38.5 -114.5v-348q-58 -64 -79 -118q-16 -40 8.5 -53t75.5 5l7 -28q-86 -33 -121.5 -7.5t-15.5 81.5q20 60 91 120h-16l-8 85q-36 -36 -93.5 -64.5 t-118.5 -28.5q-64 0 -101 34t-37 97zM121 129q0 -81 85 -81q44 -1 98.5 21.5t96.5 60.5v116h-207q-73 -3 -73 -75v-42z" />
<glyph unicode="&#x106;" d="M67 345q0 197 59 277t205 80q109 0 184 -19l-8 -49q-76 9 -176 9q-110 0 -153 -65t-43 -233t43 -233t153 -65q114 0 190 11l8 -49q-78 -21 -198 -21q-146 0 -205 80t-59 277zM262 761l164 146l38 -48l-178 -128z" />
<glyph unicode="&#x107;" horiz-adv-x="485" d="M60 242q0 140 51 197.5t176 57.5q89 0 149 -22l-10 -41q-53 8 -129 8q-96 0 -133.5 -42.5t-37.5 -157.5t37.5 -157t133.5 -42q84 0 141 11l7 -44q-74 -22 -158 -22q-125 0 -176 57t-51 197zM210 580l164 146l38 -48l-178 -128z" />
<glyph unicode="&#x10a;" d="M67 345q0 197 59 277t205 80q109 0 184 -19l-8 -49q-76 9 -176 9q-110 0 -153 -65t-43 -233t43 -233t153 -65q114 0 190 11l8 -49q-78 -21 -198 -21q-146 0 -205 80t-59 277zM289 785v59q0 21 21 21h22q21 0 21 -21v-59q0 -21 -21 -21h-22q-21 0 -21 21z" />
<glyph unicode="&#x10b;" horiz-adv-x="485" d="M60 242q0 140 51 197.5t176 57.5q89 0 149 -22l-10 -41q-53 8 -129 8q-96 0 -133.5 -42.5t-37.5 -157.5t37.5 -157t133.5 -42q84 0 141 11l7 -44q-74 -22 -158 -22q-125 0 -176 57t-51 197zM238 604v59q0 21 21 21h21q21 0 21 -21v-59q0 -20 -21 -20h-21q-21 0 -21 20z " />
<glyph unicode="&#x10c;" d="M67 345q0 197 59 277t205 80q109 0 184 -19l-8 -49q-76 9 -176 9q-110 0 -153 -65t-43 -233t43 -233t153 -65q114 0 190 11l8 -49q-78 -21 -198 -21q-146 0 -205 80t-59 277zM165 870l24 28l129 -93h8l130 93l23 -28l-141 -124h-32z" />
<glyph unicode="&#x10d;" horiz-adv-x="485" d="M60 242q0 140 51 197.5t176 57.5q89 0 149 -22l-10 -41q-53 8 -129 8q-96 0 -133.5 -42.5t-37.5 -157.5t37.5 -157t133.5 -42q84 0 141 11l7 -44q-74 -22 -158 -22q-125 0 -176 57t-51 197zM114 689l23 28l130 -92h8l129 92l24 -28l-141 -123h-32z" />
<glyph unicode="&#x10e;" horiz-adv-x="662" d="M93 0v690q124 9 239 9q146 0 204.5 -78.5t58.5 -275.5t-58.5 -275.5t-204.5 -78.5q-113 0 -239 9zM158 51q100 -2 174 -2q109 0 151.5 65t42.5 231t-42.5 231.5t-151.5 65.5q-18 0 -174 -3v-588zM164 870l24 28l129 -93h8l130 93l23 -28l-141 -124h-32z" />
<glyph unicode="&#x10f;" horiz-adv-x="569" d="M61 243q0 138 43 196t138 58q92 0 183 -47q-4 33 -4 95v155h63v-700h-49l-7 75q-99 -87 -194 -87q-92 0 -132.5 61t-40.5 194zM127 244q0 -113 28 -156.5t97 -43.5q41 0 77 17t92 60v285q-103 35 -166 35q-71 0 -99.5 -42.5t-28.5 -154.5zM555 632v50q1 21 23 21h17 q21 0 21 -21v-53q-2 -65 -25 -121l-27 8q7 48 7 98q-18 0 -16 18z" />
<glyph unicode="&#x110;" horiz-adv-x="666" d="M24 349v39h73v302q124 9 239 9q146 0 204.5 -78.5t58.5 -275.5t-58.5 -275.5t-204.5 -78.5q-113 0 -239 9v349h-73zM162 51q100 -2 174 -2q109 0 151.5 65t42.5 231t-42.5 231.5t-151.5 65.5q-18 0 -174 -3v-251h163v-39h-163v-298z" />
<glyph unicode="&#x111;" horiz-adv-x="562" d="M61 243q0 138 43 196t138 58q92 0 183 -47q-4 33 -4 95v34h-162v39h162v82h63v-82h70v-39h-70v-579h-49l-7 75q-99 -87 -194 -87q-92 0 -132.5 61t-40.5 194zM127 244q0 -113 28 -156.5t97 -43.5q41 0 77 17t92 60v285q-103 35 -166 35q-71 0 -99.5 -42.5t-28.5 -154.5z " />
<glyph unicode="&#x112;" horiz-adv-x="557" d="M87 113v464q0 52 33.5 83t88.5 31q201 0 295 -6l-4 -50h-280q-67 0 -67 -73v-169h308v-53h-308v-213q0 -72 67 -72h280l4 -50q-94 -6 -295 -6q-55 0 -88.5 31t-33.5 83zM174 814v49h272v-49h-272z" />
<glyph unicode="&#x113;" horiz-adv-x="534" d="M60 244q0 140 50 196.5t167 56.5q103 0 152 -37.5t50 -113.5q2 -135 -111 -135h-242q6 -96 44 -132t124 -36q75 0 167 12l7 -43q-61 -24 -183 -24t-173.5 58.5t-51.5 197.5zM126 261h227q64 0 62 84q-1 51 -33 74t-102 23q-85 0 -119 -39.5t-35 -141.5zM143 612v49h272 v-49h-272z" />
<glyph unicode="&#x116;" horiz-adv-x="557" d="M87 113v464q0 52 33.5 83t88.5 31q201 0 295 -6l-4 -50h-280q-67 0 -67 -73v-169h308v-53h-308v-213q0 -72 67 -72h280l4 -50q-94 -6 -295 -6q-55 0 -88.5 31t-33.5 83zM278 807v59q0 21 21 21h22q21 0 21 -21v-59q0 -21 -21 -21h-22q-21 0 -21 21z" />
<glyph unicode="&#x117;" horiz-adv-x="534" d="M60 244q0 140 50 196.5t167 56.5q103 0 152 -37.5t50 -113.5q2 -135 -111 -135h-242q6 -96 44 -132t124 -36q75 0 167 12l7 -43q-61 -24 -183 -24t-173.5 58.5t-51.5 197.5zM126 261h227q64 0 62 84q-1 51 -33 74t-102 23q-85 0 -119 -39.5t-35 -141.5zM247 604v59 q0 21 21 21h22q20 0 20 -21v-59q0 -20 -20 -20h-22q-21 0 -21 20z" />
<glyph unicode="&#x118;" horiz-adv-x="557" d="M87 113v464q0 52 33.5 83t88.5 31q201 0 295 -6l-4 -50h-280q-67 0 -67 -73v-169h308v-53h-308v-213q0 -72 67 -72h280l4 -50q-58 -64 -79 -118q-15 -40 9 -53t75 4l7 -27q-86 -33 -121.5 -7.5t-15.5 81.5q19 58 89 118q-84 -4 -259 -4q-55 0 -88.5 31t-33.5 83z" />
<glyph unicode="&#x119;" horiz-adv-x="534" d="M60 244q0 140 50 196.5t167 56.5q103 0 152 -37.5t50 -113.5q2 -135 -111 -135h-242q6 -96 44 -132t124 -36q75 0 167 12l7 -43q-57 -61 -79 -118q-16 -40 8.5 -53t74.5 5l8 -27q-87 -33 -122.5 -8t-14.5 81q17 54 77 108q-64 -12 -135 -12q-122 0 -173.5 58.5 t-51.5 197.5zM126 261h227q64 0 62 84q-1 51 -33 74t-102 23q-85 0 -119 -39.5t-35 -141.5z" />
<glyph unicode="&#x11a;" horiz-adv-x="557" d="M87 113v464q0 52 33.5 83t88.5 31q201 0 295 -6l-4 -50h-280q-67 0 -67 -73v-169h308v-53h-308v-213q0 -72 67 -72h280l4 -50q-94 -6 -295 -6q-55 0 -88.5 31t-33.5 83zM154 892l23 28l130 -92h8l129 92l24 -28l-141 -123h-32z" />
<glyph unicode="&#x11b;" horiz-adv-x="534" d="M60 244q0 140 50 196.5t167 56.5q103 0 152 -37.5t50 -113.5q2 -135 -111 -135h-242q6 -96 44 -132t124 -36q75 0 167 12l7 -43q-61 -24 -183 -24t-173.5 58.5t-51.5 197.5zM123 689l23 28l130 -92h8l129 92l24 -28l-141 -123h-32zM126 261h227q64 0 62 84q-1 51 -33 74 t-102 23q-85 0 -119 -39.5t-35 -141.5z" />
<glyph unicode="&#x11e;" horiz-adv-x="626" d="M67 346q0 201 61 278.5t216 77.5q114 0 194 -19l-8 -49q-90 10 -182 10q-82 0 -126 -25t-65 -89.5t-21 -186.5q0 -162 38 -230t131 -68q37 0 73 13t57.5 27t53.5 39v275h64v-399h-47l-9 78q-88 -90 -209 -90q-118 0 -169.5 85t-51.5 273zM181 874l34 6q0 -39 29.5 -60.5 t82.5 -21.5q51 0 80 21.5t29 60.5l34 -6q3 -56 -36 -90.5t-108 -34.5t-108.5 34.5t-36.5 90.5z" />
<glyph unicode="&#x11f;" horiz-adv-x="553" d="M47 -61q0 48 18 76.5t64 52.5q-43 27 -41.5 75t39.5 76q-60 33 -60 124q0 81 46 117.5t157 36.5q67 0 107 -13h152l-4 -36l-81 -6q28 -34 28 -99q0 -79 -46 -115t-156 -36q-68 0 -110 13q-15 -19 -18 -39.5t10.5 -38t44.5 -22.5l186 -31q66 -10 91.5 -41t25.5 -92 q0 -82 -49.5 -114t-175.5 -32q-128 0 -178 31.5t-50 112.5zM109 -57q0 -55 35 -74.5t131 -19.5q94 0 128.5 20t34.5 74q0 42 -16.5 58.5t-68.5 24.5l-181 28l-4 -3q-33 -23 -46 -46t-13 -62zM126 343q0 -54 33 -78t111 -24t110 24t32 78q0 56 -32 80t-110 24 q-79 0 -111.5 -24t-32.5 -80zM126 694l34 5q0 -39 29.5 -60t82.5 -21q51 0 80 21t29 60l35 -5q2 -57 -37 -91.5t-108 -34.5t-108.5 34.5t-36.5 91.5z" />
<glyph unicode="&#x120;" horiz-adv-x="626" d="M67 346q0 201 61 278.5t216 77.5q114 0 194 -19l-8 -49q-90 10 -182 10q-82 0 -126 -25t-65 -89.5t-21 -186.5q0 -162 38 -230t131 -68q37 0 73 13t57.5 27t53.5 39v275h64v-399h-47l-9 78q-88 -90 -209 -90q-118 0 -169.5 85t-51.5 273zM295 785v59q0 21 21 21h21 q21 0 21 -21v-59q0 -21 -21 -21h-21q-21 0 -21 21z" />
<glyph unicode="&#x121;" horiz-adv-x="553" d="M47 -61q0 48 18 76.5t64 52.5q-43 27 -41.5 75t39.5 76q-60 33 -60 124q0 81 46 117.5t157 36.5q67 0 107 -13h152l-4 -36l-81 -6q28 -34 28 -99q0 -79 -46 -115t-156 -36q-68 0 -110 13q-15 -19 -18 -39.5t10.5 -38t44.5 -22.5l186 -31q66 -10 91.5 -41t25.5 -92 q0 -82 -49.5 -114t-175.5 -32q-128 0 -178 31.5t-50 112.5zM109 -57q0 -55 35 -74.5t131 -19.5q94 0 128.5 20t34.5 74q0 42 -16.5 58.5t-68.5 24.5l-181 28l-4 -3q-33 -23 -46 -46t-13 -62zM126 343q0 -54 33 -78t111 -24t110 24t32 78q0 56 -32 80t-110 24 q-79 0 -111.5 -24t-32.5 -80zM240 604v59q0 21 21 21h21q21 0 21 -21v-59q0 -20 -21 -20h-21q-21 0 -21 20z" />
<glyph unicode="&#x122;" horiz-adv-x="626" d="M67 346q0 201 61 278.5t216 77.5q114 0 194 -19l-8 -49q-90 10 -182 10q-82 0 -126 -25t-65 -89.5t-21 -186.5q0 -162 38 -230t131 -68q37 0 73 13t57.5 27t53.5 39v275h64v-399h-47l-9 78q-88 -90 -209 -90q-118 0 -169.5 85t-51.5 273zM293 -82q0 22 22 22h18 q22 0 22 -22v-56q-2 -69 -26 -127l-28 9q7 49 7 102q-17 0 -15 19v53z" />
<glyph unicode="&#x123;" horiz-adv-x="553" d="M47 -61q0 48 18 76.5t64 52.5q-43 27 -41.5 75t39.5 76q-60 33 -60 124q0 81 46 117.5t157 36.5q67 0 107 -13h152l-4 -36l-81 -6q28 -34 28 -99q0 -79 -46 -115t-156 -36q-68 0 -110 13q-15 -19 -18 -39.5t10.5 -38t44.5 -22.5l186 -31q66 -10 91.5 -41t25.5 -92 q0 -82 -49.5 -114t-175.5 -32q-128 0 -178 31.5t-50 112.5zM109 -57q0 -55 35 -74.5t131 -19.5q94 0 128.5 20t34.5 74q0 42 -16.5 58.5t-68.5 24.5l-181 28l-4 -3q-33 -23 -46 -46t-13 -62zM126 343q0 -54 33 -78t111 -24t110 24t32 78q0 56 -32 80t-110 24 q-79 0 -111.5 -24t-32.5 -80zM249 582v56q2 67 27 126l27 -8q-7 -49 -7 -103q18 0 16 -18v-53q0 -22 -23 -22h-18q-22 0 -22 22z" />
<glyph unicode="&#x126;" horiz-adv-x="672" d="M23 521v38h74v131h65v-131h348v131h65v-131h74v-38h-74v-521h-65v341h-348v-341h-65v521h-74zM162 397h348v124h-348v-124z" />
<glyph unicode="&#x127;" horiz-adv-x="581" d="M9 579v39h79v82h64v-82h152v-39h-151v-80q0 -58 -7 -94q124 92 223 92q64 0 97.5 -34t33.5 -99v-364h-64v347q0 51 -19.5 73t-64.5 22q-44 0 -89 -19.5t-112 -64.5v-358h-63v579h-79z" />
<glyph unicode="&#x12a;" horiz-adv-x="251" d="M-11 792v49h272v-49h-272zM93 0v690h65v-690h-65z" />
<glyph unicode="&#x12b;" horiz-adv-x="239" d="M-17 612v49h272v-49h-272zM88 0v484h63v-484h-63z" />
<glyph unicode="&#x12e;" horiz-adv-x="251" d="M27 -120q20 61 92 120h-26v690h65v-690h-6q-58 -64 -79 -118q-15 -40 9 -53t75 5l7 -28q-86 -33 -121.5 -7.5t-15.5 81.5z" />
<glyph unicode="&#x12f;" horiz-adv-x="239" d="M22 -120q20 60 91 120h-25v484h63v-484h-4q-58 -64 -79 -118q-15 -40 9 -53t75 5l7 -28q-86 -33 -121.5 -7.5t-15.5 81.5zM88 604v59q0 21 21 21h21q21 0 21 -21v-59q0 -20 -21 -20h-21q-21 0 -21 20z" />
<glyph unicode="&#x130;" horiz-adv-x="251" d="M93 0v690h65v-690h-65zM94 785v59q0 21 21 21h21q21 0 21 -21v-59q0 -21 -21 -21h-21q-21 0 -21 21z" />
<glyph unicode="&#x131;" horiz-adv-x="239" d="M88 0v484h63v-484h-63z" />
<glyph unicode="&#x132;" horiz-adv-x="585" d="M93 0v690h65v-690h-65zM284 2l7 46h53q86 0 86 84v558h65v-556q0 -142 -129 -142q-42 0 -82 10z" />
<glyph unicode="&#x133;" horiz-adv-x="478" d="M84 609v58q0 21 21 21h29q21 0 21 -21v-58q0 -21 -21 -21h-29q-21 0 -21 21zM88 0v484h63v-484h-63zM271 -178q55 70 55 154v508h64v-508q0 -110 -84 -182zM323 609v58q0 21 21 21h29q21 0 21 -21v-58q0 -21 -21 -21h-29q-21 0 -21 21z" />
<glyph unicode="&#x136;" horiz-adv-x="581" d="M93 0v690h65v-223q0 -41 -6 -80h96l221 303h73l-212 -293q-11 -17 -32 -36v-3q21 -19 35 -39l224 -319h-74l-235 333h-96q6 -41 6 -78v-255h-65zM280 -82q0 22 23 22h17q13 0 17.5 -5t4.5 -17v-56q-2 -69 -26 -127l-28 9q8 56 8 102q-18 0 -16 19v53z" />
<glyph unicode="&#x137;" horiz-adv-x="497" d="M84 0v700h65v-318q0 -38 -5 -83h71l167 185h75l-162 -181q-15 -19 -30 -28v-2q15 -11 30 -34l178 -239h-74l-184 251h-72q4 -37 4 -81v-170h-63zM239 -82q0 22 23 22h17q23 0 23 -22v-56q-2 -66 -27 -127l-27 9q7 49 7 102q-18 0 -16 19v53z" />
<glyph unicode="&#x139;" horiz-adv-x="511" d="M65 761l164 146l38 -48l-178 -128zM90 119v571h66v-562q0 -73 72 -73h257l2 -50q-106 -6 -270 -6q-63 0 -95 33t-32 87z" />
<glyph unicode="&#x13a;" horiz-adv-x="287" d="M59 783l164 146l38 -48l-178 -128zM85 108v592h63v-580q0 -70 71 -70h51l7 -48q-27 -10 -80 -10q-52 0 -82 30.5t-30 85.5z" />
<glyph unicode="&#x13b;" horiz-adv-x="511" d="M90 119v571h66v-562q0 -73 72 -73h257l2 -50q-106 -6 -270 -6q-63 0 -95 33t-32 87zM266 -87q1 21 23 21h18q22 0 22 -21v-56q-2 -69 -26 -127l-28 8q7 50 7 103q-18 0 -16 19v53z" />
<glyph unicode="&#x13c;" horiz-adv-x="287" d="M85 108v592h63v-580q0 -70 71 -70h51l7 -48q-27 -10 -80 -10q-52 0 -82 30.5t-30 85.5zM139 -87q0 21 23 21h17q13 0 17.5 -5t4.5 -16v-56q-2 -69 -26 -127l-27 8q7 63 7 103q-18 0 -16 19v53z" />
<glyph unicode="&#x13d;" horiz-adv-x="511" d="M90 119v571h66v-562q0 -73 72 -73h257l2 -50q-106 -6 -270 -6q-63 0 -95 33t-32 87zM285 617v53q0 21 22 21h18q22 0 22 -21v-56q-2 -69 -26 -127l-28 8q7 50 7 103q-17 0 -15 19z" />
<glyph unicode="&#x13e;" horiz-adv-x="287" d="M85 108v592h63v-580q0 -70 71 -70h51l7 -48q-27 -10 -80 -10q-52 0 -82 30.5t-30 85.5zM220 632v50q1 21 23 21h17q21 0 21 -21v-53q-2 -65 -25 -121l-27 8q7 59 7 98q-18 0 -16 18z" />
<glyph unicode="&#x13f;" horiz-adv-x="511" d="M90 119v571h66v-562q0 -73 72 -73h257l2 -50q-106 -6 -270 -6q-63 0 -95 33t-32 87zM350 357v58q0 21 21 21h21q21 0 21 -21v-58q0 -21 -21 -21h-21q-21 0 -21 21z" />
<glyph unicode="&#x140;" horiz-adv-x="314" d="M85 108v592h63v-580q0 -70 71 -70h51l7 -48q-27 -10 -80 -10q-52 0 -82 30.5t-30 85.5zM236 360v59q0 21 21 21h21q21 0 21 -21v-59q0 -21 -21 -21h-21q-21 0 -21 21z" />
<glyph unicode="&#x141;" horiz-adv-x="517" d="M23 312v42l73 31v305h65v-277l121 51v-42l-121 -52v-242q0 -73 72 -73h258l2 -50q-107 -6 -271 -6q-63 0 -94.5 33t-31.5 87v224z" />
<glyph unicode="&#x142;" horiz-adv-x="318" d="M24 309v43l83 35v313h64v-286l112 48v-43l-113 -48v-251q0 -70 71 -70h51l8 -48q-28 -10 -80 -10t-82.5 30t-30.5 86v236z" />
<glyph unicode="&#x143;" horiz-adv-x="699" d="M93 0v662q0 28 27 28h68q22 0 32 -22l257 -512q31 -62 46 -93h21q-3 49 -3 99v528h65v-662q0 -28 -27 -28h-70q-22 0 -32 22l-263 524q-37 77 -39 83h-19q2 -27 2 -83v-546h-65zM301 761l164 146l37 -48l-178 -128z" />
<glyph unicode="&#x144;" horiz-adv-x="577" d="M84 0v484h53l5 -80q121 93 224 93q130 0 130 -133v-364h-63v347q0 51 -19.5 73t-64.5 22q-44 0 -88.5 -20t-112.5 -64v-358h-64zM237 580l164 146l37 -48l-178 -128z" />
<glyph unicode="&#x145;" horiz-adv-x="699" d="M93 0v662q0 28 27 28h68q22 0 32 -22l257 -512q31 -62 46 -93h21q-3 49 -3 99v528h65v-662q0 -28 -27 -28h-70q-22 0 -32 22l-263 524q-37 77 -39 83h-19q2 -27 2 -83v-546h-65zM305 -82q0 22 23 22h17q13 0 17.5 -5t4.5 -17v-56q-2 -69 -26 -127l-28 9q8 56 8 102 q-18 0 -16 19v53z" />
<glyph unicode="&#x146;" horiz-adv-x="577" d="M84 0v484h53l5 -80q121 93 224 93q130 0 130 -133v-364h-63v347q0 51 -19.5 73t-64.5 22q-44 0 -88.5 -20t-112.5 -64v-358h-64zM259 -82q1 22 23 22h18q22 0 22 -22v-56q-2 -66 -27 -127l-27 9q7 49 7 102q-18 0 -16 19v53z" />
<glyph unicode="&#x147;" horiz-adv-x="699" d="M93 0v662q0 28 27 28h68q22 0 32 -22l257 -512q31 -62 46 -93h21q-3 49 -3 99v528h65v-662q0 -28 -27 -28h-70q-22 0 -32 22l-263 524q-37 77 -39 83h-19q2 -27 2 -83v-546h-65zM204 870l23 28l130 -93h8l129 93l24 -28l-141 -124h-32z" />
<glyph unicode="&#x148;" horiz-adv-x="577" d="M84 0v484h53l5 -80q121 93 224 93q130 0 130 -133v-364h-63v347q0 51 -19.5 73t-64.5 22q-44 0 -88.5 -20t-112.5 -64v-358h-64zM140 689l23 28l130 -92h8l129 92l24 -28l-141 -123h-32z" />
<glyph unicode="&#x14a;" horiz-adv-x="699" d="M93 0v662q0 28 27 28h58q20 0 32 -22l266 -502q12 -22 46 -94h21q-2 66 -2 98v520h65v-777q0 -64 -34 -98t-96 -33q-43 0 -80 10l7 41h53q88 0 88 85v82h-34q-13 0 -24 20l-273 517q-19 38 -39 83h-18q2 -28 2 -85v-535h-65z" />
<glyph unicode="&#x14b;" horiz-adv-x="577" d="M84 0v484h49l6 -83q120 96 226 96q131 0 131 -133v-439q0 -65 -30 -99t-89 -33q-33 0 -74 11l7 40h45q78 0 78 85v418q0 48 -20 69.5t-66 21.5q-74 0 -199 -81v-357h-64z" />
<glyph unicode="&#x14c;" horiz-adv-x="666" d="M67 345q0 200 59 278.5t207 78.5t207 -78.5t59 -278.5t-59 -278.5t-207 -78.5t-207 78.5t-59 278.5zM135 345q0 -168 43.5 -233.5t154.5 -65.5t154 65.5t43 233.5t-43 233.5t-154 65.5t-154.5 -65.5t-43.5 -233.5zM197 792v49h272v-49h-272z" />
<glyph unicode="&#x14d;" horiz-adv-x="565" d="M60 242q0 140 50.5 197.5t172.5 57.5t172 -57.5t50 -197.5t-50 -197t-172 -57t-172.5 57.5t-50.5 196.5zM127 242q0 -114 34 -157t122 -43t122 43t34 157t-34 157t-122 43t-122 -43t-34 -157zM146 612v49h272v-49h-272z" />
<glyph unicode="&#x150;" horiz-adv-x="666" d="M67 345q0 200 59 278.5t207 78.5t207 -78.5t59 -278.5t-59 -278.5t-207 -78.5t-207 78.5t-59 278.5zM135 345q0 -168 43.5 -233.5t154.5 -65.5t154 65.5t43 233.5t-43 233.5t-154 65.5t-154.5 -65.5t-43.5 -233.5zM214 748l110 168l48 -33l-128 -157zM370 748l110 168 l47 -33l-128 -157z" />
<glyph unicode="&#x151;" horiz-adv-x="565" d="M60 242q0 140 50.5 197.5t172.5 57.5t172 -57.5t50 -197.5t-50 -197t-172 -57t-172.5 57.5t-50.5 196.5zM127 242q0 -114 34 -157t122 -43t122 43t34 157t-34 157t-122 43t-122 -43t-34 -157zM162 568l111 167l48 -32l-128 -157zM318 568l110 167l48 -32l-128 -157z" />
<glyph unicode="&#x152;" horiz-adv-x="905" d="M67 345q0 200 59 278.5t207 78.5q90 0 165 -32q31 21 69 21q193 0 284 -6l-2 -50h-261q-72 0 -72 -73v-169h292v-54h-292v-212q0 -72 72 -72h261l2 -50q-92 -6 -288 -6q-38 0 -68 22q-73 -33 -162 -33q-148 0 -207 78.5t-59 278.5zM135 345q0 -168 43.5 -233.5 t154.5 -65.5q73 0 127 20q-10 27 -10 53v452q0 29 11 53q-60 20 -128 20q-111 0 -154.5 -64.5t-43.5 -234.5z" />
<glyph unicode="&#x153;" horiz-adv-x="913" d="M60 242q0 140 50.5 197.5t172.5 57.5q141 0 188 -81q47 81 182 81q204 0 206 -145q1 -78 -33 -108.5t-116 -30.5h-205q5 -98 43.5 -134t125.5 -36q74 0 166 12l7 -43q-61 -24 -183 -24q-143 0 -191 83q-46 -83 -190 -83q-122 0 -172.5 57.5t-50.5 196.5zM127 242 q0 -114 34 -157t122 -43q85 0 119.5 39.5t36.5 142.5v39q-3 101 -37.5 140t-118.5 39q-88 0 -122 -43t-34 -157zM505 262h202q50 0 69.5 20t18.5 69q-4 91 -140 91q-81 0 -114.5 -39.5t-35.5 -138.5v-2z" />
<glyph unicode="&#x154;" horiz-adv-x="614" d="M93 0v690q83 8 231 8q119 0 167 -41.5t48 -155.5q0 -87 -29.5 -128.5t-97.5 -51.5v-4q27 -8 49 -33.5t33 -64.5l70 -219h-70l-66 217q-28 79 -99 79q-91 0 -171 2v-298h-65zM158 353h166q84 1 116.5 31.5t32.5 113.5q0 84 -32.5 114t-116.5 30q-86 0 -166 -2v-287z M244 761l164 146l38 -48l-178 -128z" />
<glyph unicode="&#x155;" horiz-adv-x="394" d="M84 0v484h49l7 -80q119 93 214 93h21l-8 -60h-24q-42 0 -85 -17.5t-110 -57.5v-362h-64zM166 580l164 146l38 -48l-178 -128z" />
<glyph unicode="&#x156;" horiz-adv-x="614" d="M93 0v690q83 8 231 8q119 0 167 -41.5t48 -155.5q0 -87 -29.5 -128.5t-97.5 -51.5v-4q27 -8 49 -33.5t33 -64.5l70 -219h-70l-66 217q-28 79 -99 79q-91 0 -171 2v-298h-65zM158 353h166q84 1 116.5 31.5t32.5 113.5q0 84 -32.5 114t-116.5 30q-86 0 -166 -2v-287z M297 -82q0 22 23 22h17q22 0 22 -22v-56q-2 -69 -26 -127l-28 9q7 49 7 102q-17 0 -15 19v53z" />
<glyph unicode="&#x157;" horiz-adv-x="394" d="M77 -82q1 22 23 22h18q22 0 22 -22v-56q-2 -66 -27 -127l-27 9q7 49 7 102q-18 0 -16 19v53zM84 0v484h49l7 -80q119 93 214 93h21l-8 -60h-24q-42 0 -85 -17.5t-110 -57.5v-362h-64z" />
<glyph unicode="&#x158;" horiz-adv-x="614" d="M93 0v690q83 8 231 8q119 0 167 -41.5t48 -155.5q0 -87 -29.5 -128.5t-97.5 -51.5v-4q27 -8 49 -33.5t33 -64.5l70 -219h-70l-66 217q-28 79 -99 79q-91 0 -171 2v-298h-65zM147 870l23 28l130 -93h8l129 93l24 -28l-141 -124h-32zM158 353h166q84 1 116.5 31.5 t32.5 113.5q0 84 -32.5 114t-116.5 30q-86 0 -166 -2v-287z" />
<glyph unicode="&#x159;" horiz-adv-x="394" d="M69 689l24 28l129 -92h8l130 92l23 -28l-141 -123h-32zM84 0v484h49l7 -80q119 93 214 93h21l-8 -60h-24q-42 0 -85 -17.5t-110 -57.5v-362h-64z" />
<glyph unicode="&#x15a;" horiz-adv-x="559" d="M59 522q0 60 12 96.5t42 54.5t66 23.5t98 4.5q111 0 199 -16l-5 -48q-118 6 -191 6q-49 0 -72 -2.5t-45.5 -14.5t-30 -37t-7.5 -69q0 -62 21.5 -89.5t73.5 -37.5l144 -30q77 -15 108.5 -59.5t31.5 -129.5q0 -60 -13 -97t-43 -56t-68 -25.5t-100 -6.5q-114 0 -210 15l4 49 q124 -6 208 -6q91 1 123 25t32 103q0 65 -21.5 92t-74.5 37l-147 31q-73 15 -104 59.5t-31 127.5zM220 761l164 146l38 -48l-178 -128z" />
<glyph unicode="&#x15b;" horiz-adv-x="505" d="M54 365q0 82 41.5 107.5t144.5 24.5q110 -2 198 -15l-6 -46q-120 6 -184 6q-80 1 -106 -11.5t-26 -65.5q0 -41 17 -57t57 -24l149 -28q58 -12 85 -41.5t27 -88.5q0 -85 -45.5 -111t-155.5 -26q-99 0 -185 13l5 47q79 -7 169 -6q89 1 119.5 16.5t30.5 66.5q0 39 -19 55 t-60 24l-148 28q-57 11 -82.5 41.5t-25.5 90.5zM197 580l164 146l38 -48l-178 -128z" />
<glyph unicode="&#x15e;" horiz-adv-x="559" d="M59 522q0 60 12 96.5t42 54.5t66 23.5t98 4.5q111 0 199 -16l-5 -48q-118 6 -191 6q-49 0 -72 -2.5t-45.5 -14.5t-30 -37t-7.5 -69q0 -62 21.5 -89.5t73.5 -37.5l144 -30q77 -15 108.5 -59.5t31.5 -129.5q0 -60 -13 -97t-43 -56t-68 -25.5t-100 -6.5q-114 0 -210 15l4 49 q124 -6 208 -6q91 1 123 25t32 103q0 65 -21.5 92t-74.5 37l-147 31q-73 15 -104 59.5t-31 127.5zM187 -237l10 34q45 -1 72 21t28 56q1 22 -11.5 30t-47.5 8l7 31q53 5 77 -9.5t23 -55.5q-2 -59 -45.5 -91.5t-112.5 -23.5z" />
<glyph unicode="&#x15f;" horiz-adv-x="505" d="M54 365q0 82 41.5 107.5t144.5 24.5q110 -2 198 -15l-6 -46q-120 6 -184 6q-80 1 -106 -11.5t-26 -65.5q0 -41 17 -57t57 -24l149 -28q58 -12 85 -41.5t27 -88.5q0 -85 -45.5 -111t-155.5 -26q-99 0 -185 13l5 47q79 -7 169 -6q89 1 119.5 16.5t30.5 66.5q0 39 -19 55 t-60 24l-148 28q-57 11 -82.5 41.5t-25.5 90.5zM153 -237l10 35q44 -1 71.5 21t28.5 56q0 21 -12.5 29t-46.5 9l7 31q52 5 76 -9.5t23 -55.5q-2 -60 -45.5 -92.5t-111.5 -23.5z" />
<glyph unicode="&#x160;" horiz-adv-x="559" d="M59 522q0 60 12 96.5t42 54.5t66 23.5t98 4.5q111 0 199 -16l-5 -48q-118 6 -191 6q-49 0 -72 -2.5t-45.5 -14.5t-30 -37t-7.5 -69q0 -62 21.5 -89.5t73.5 -37.5l144 -30q77 -15 108.5 -59.5t31.5 -129.5q0 -60 -13 -97t-43 -56t-68 -25.5t-100 -6.5q-114 0 -210 15l4 49 q124 -6 208 -6q91 1 123 25t32 103q0 65 -21.5 92t-74.5 37l-147 31q-73 15 -104 59.5t-31 127.5zM123 870l24 28l129 -93h8l130 93l23 -28l-141 -124h-32z" />
<glyph unicode="&#x161;" horiz-adv-x="505" d="M54 365q0 82 41.5 107.5t144.5 24.5q110 -2 198 -15l-6 -46q-120 6 -184 6q-80 1 -106 -11.5t-26 -65.5q0 -41 17 -57t57 -24l149 -28q58 -12 85 -41.5t27 -88.5q0 -85 -45.5 -111t-155.5 -26q-99 0 -185 13l5 47q79 -7 169 -6q89 1 119.5 16.5t30.5 66.5q0 39 -19 55 t-60 24l-148 28q-57 11 -82.5 41.5t-25.5 90.5zM100 689l24 28l129 -92h8l130 92l24 -28l-142 -123h-32z" />
<glyph unicode="&#x162;" horiz-adv-x="575" d="M25 632v58h525v-58h-230v-632h-66v632h-229zM190 -226l10 35q44 -1 71.5 21t28.5 56q0 21 -12.5 29t-46.5 9l6 31q53 5 77 -9.5t23 -55.5q-2 -60 -45.5 -92.5t-111.5 -23.5z" />
<glyph unicode="&#x163;" horiz-adv-x="369" d="M29 434v45l88 5v147h63v-147h164v-50h-164v-314q0 -70 71 -70h79l8 -48q-50 -10 -101 -10q-120 0 -120 121v321h-88zM114 -233l10 34q45 -1 72 20.5t28 56.5q1 21 -11.5 29t-47.5 9l7 31q53 5 77 -9.5t23 -55.5q-2 -59 -45.5 -91.5t-112.5 -23.5z" />
<glyph unicode="&#x164;" horiz-adv-x="575" d="M25 632v58h525v-58h-230v-632h-66v632h-229zM132 870l23 28l130 -93h8l129 93l24 -28l-141 -124h-32z" />
<glyph unicode="&#x165;" horiz-adv-x="369" d="M29 434v45l88 5v147h63v-147h164v-50h-164v-314q0 -70 71 -70h79l8 -48q-50 -10 -101 -10q-120 0 -120 121v321h-88zM263 688v53q0 21 23 21h17q23 0 23 -21v-56q-2 -66 -27 -127l-27 8q7 50 7 103q-18 0 -16 19z" />
<glyph unicode="&#x166;" horiz-adv-x="575" d="M25 632v58h525v-58h-230v-210h143v-39h-143v-383h-66v383h-146v39h146v210h-229z" />
<glyph unicode="&#x167;" horiz-adv-x="369" d="M29 434v45l88 5v147h63v-147h164v-50h-164v-104h140v-38h-140v-172q0 -70 71 -70h79l8 -48q-50 -10 -101 -10q-120 0 -120 121v179h-68v38h68v104h-88z" />
<glyph unicode="&#x16a;" horiz-adv-x="667" d="M88 261v429h65v-429q0 -119 40.5 -167t140.5 -48q99 0 139 48t40 167v429h66v-429q0 -149 -55 -211t-188 -62q-136 0 -192 62t-56 211zM198 792v49h273v-49h-273z" />
<glyph unicode="&#x16b;" d="M81 120v364h63v-347q0 -50 21 -72t68 -22q41 0 82 18.5t104 61.5v361h63v-484h-50l-5 76q-112 -88 -215 -88q-131 0 -131 132zM149 614v49h272v-49h-272z" />
<glyph unicode="&#x16e;" horiz-adv-x="667" d="M88 261v429h65v-429q0 -119 40.5 -167t140.5 -48q99 0 139 48t40 167v429h66v-429q0 -149 -55 -211t-188 -62q-136 0 -192 62t-56 211zM232 817q0 43 30 72.5t73 29.5q42 0 72.5 -30t30.5 -72t-30.5 -71.5t-72.5 -29.5q-44 0 -73.5 29t-29.5 72zM269 817q0 -29 19 -47.5 t47 -18.5q27 0 46 18.5t19 47.5t-19 48t-46 19q-29 0 -47.5 -18.5t-18.5 -48.5z" />
<glyph unicode="&#x16f;" d="M81 120v364h63v-347q0 -50 21 -72t68 -22q41 0 82 18.5t104 61.5v361h63v-484h-50l-5 76q-112 -88 -215 -88q-131 0 -131 132zM182 639q0 43 30 72.5t73 29.5q42 0 72.5 -30t30.5 -72q0 -43 -30 -72t-73 -29t-73 29t-30 72zM220 639q0 -30 18.5 -48t46.5 -18t46.5 18.5 t18.5 47.5t-19 48t-46 19q-28 0 -46.5 -19t-18.5 -48z" />
<glyph unicode="&#x170;" horiz-adv-x="667" d="M88 261v429h65v-429q0 -119 40.5 -167t140.5 -48q99 0 139 48t40 167v429h66v-429q0 -149 -55 -211t-188 -62q-136 0 -192 62t-56 211zM215 748l111 168l48 -33l-129 -157zM371 748l110 168l48 -33l-128 -157z" />
<glyph unicode="&#x171;" d="M81 120v364h63v-347q0 -50 21 -72t68 -22q41 0 82 18.5t104 61.5v361h63v-484h-50l-5 76q-112 -88 -215 -88q-131 0 -131 132zM165 570l111 168l48 -33l-129 -157zM321 570l110 168l48 -33l-128 -157z" />
<glyph unicode="&#x172;" horiz-adv-x="667" d="M88 261v429h65v-429q0 -119 40.5 -167t140.5 -48q99 0 139 48t40 167v429h66v-429q0 -139 -47.5 -202t-159.5 -70q-55 -61 -77 -116q-15 -40 9 -53t75 5l7 -28q-86 -33 -121.5 -7.5t-15.5 81.5q20 59 87 117q-136 0 -192 62t-56 211z" />
<glyph unicode="&#x173;" d="M81 120v364h63v-347q0 -50 21 -72t68 -22q41 0 82 18.5t104 61.5v361h63v-484h2q-58 -64 -79 -118q-16 -40 8.5 -53t75.5 5l7 -28q-86 -33 -121.5 -7.5t-15.5 81.5q20 60 91 120h-18l-5 76q-112 -88 -215 -88q-131 0 -131 132z" />
<glyph unicode="&#x174;" horiz-adv-x="941" d="M32 690h69l126 -559q8 -33 16 -80h25q8 43 16 79l122 537q5 23 27 23h75q22 0 27 -23l122 -537q5 -21 16 -79h26q2 9 4.5 25t5 29t5.5 24l127 561h69l-156 -670q-5 -20 -27 -20h-79q-23 0 -28 21q-9 42 -60 269.5t-78 348.5h-22q-12 -52 -18 -77l-121 -541 q-5 -21 -27 -21h-80q-22 0 -27 20zM315 766l133 124h46l134 -124l-23 -28l-130 100h-8l-129 -100z" />
<glyph unicode="&#x175;" horiz-adv-x="820" d="M28 484h66l114 -371q5 -17 19 -70h13q17 62 36.5 133.5t42.5 154.5t37 133q5 20 25 20h58q20 0 25 -21l97 -350l18 -70h14q15 58 18 70l115 371h66l-151 -465q-6 -19 -26 -19h-59q-21 0 -26 21l-96 347q-3 12 -9 37t-10 38h-11q-21 -84 -64.5 -241t-49.5 -181 q-5 -21 -27 -21h-58q-21 0 -26 19zM253 586l133 124h47l133 -124l-23 -28l-129 100h-8l-130 -100z" />
<glyph unicode="&#x176;" horiz-adv-x="559" d="M15 690h70l158 -306q13 -26 33 -74h7q13 31 33 73l158 307h69l-231 -443v-247h-65v248zM123 767l133 124h46l134 -124l-24 -28l-129 99h-8l-130 -99z" />
<glyph unicode="&#x177;" horiz-adv-x="521" d="M22 484h68l143 -378q16 -42 20 -56h14q31 85 91 243t72 191h68l-204 -518q-29 -74 -73 -119.5t-119 -53.5l-8 41q57 19 89 53t52 86l12 27h-16q-19 0 -25 17zM106 586l133 124h47l133 -124l-23 -28l-130 100h-8l-129 -100z" />
<glyph unicode="&#x178;" horiz-adv-x="559" d="M15 690h70l158 -306q13 -26 33 -74h7q13 31 33 73l158 307h69l-231 -443v-247h-65v248zM161 790v55q0 20 18 20h23q18 0 18 -20v-55q0 -19 -18 -19h-23q-18 0 -18 19zM338 790v55q0 20 19 20h22q19 0 19 -20v-55q0 -19 -19 -19h-22q-19 0 -19 19z" />
<glyph unicode="&#x179;" horiz-adv-x="563" d="M50 0v56l386 578h-382v56h455v-56l-386 -578h392v-56h-465zM224 761l164 146l38 -48l-178 -128z" />
<glyph unicode="&#x17a;" horiz-adv-x="506" d="M50 0v53l330 379h-326v52h398v-52l-329 -379h333v-53h-406zM193 580l164 146l38 -48l-178 -128z" />
<glyph unicode="&#x17b;" horiz-adv-x="563" d="M50 0v56l386 578h-382v56h455v-56l-386 -578h392v-56h-465zM252 785v59q0 21 21 21h21q21 0 21 -21v-59q0 -21 -21 -21h-21q-21 0 -21 21z" />
<glyph unicode="&#x17c;" horiz-adv-x="506" d="M50 0v53l330 379h-326v52h398v-52l-329 -379h333v-53h-406zM221 604v59q0 21 21 21h21q21 0 21 -21v-59q0 -20 -21 -20h-21q-21 0 -21 20z" />
<glyph unicode="&#x17d;" horiz-adv-x="563" d="M50 0v56l386 578h-382v56h455v-56l-386 -578h392v-56h-465zM127 870l24 28l129 -93h8l130 93l23 -28l-141 -124h-32z" />
<glyph unicode="&#x17e;" horiz-adv-x="506" d="M50 0v53l330 379h-326v52h398v-52l-329 -379h333v-53h-406zM96 689l24 28l129 -92h8l130 92l23 -28l-141 -123h-32z" />
<glyph unicode="&#x192;" horiz-adv-x="428" d="M-52 -134l7 47h69q48 0 69 20.5t26 71.5l32 337h-97l3 47l99 4l16 168q12 139 148 139q56 0 93 -6l-7 -48h-71q-51 0 -73.5 -19.5t-26.5 -71.5l-16 -162h152l-5 -51h-152l-32 -343q-6 -70 -39 -104.5t-102 -34.5q-62 0 -93 6z" />
<glyph unicode="&#x218;" horiz-adv-x="559" d="M59 522q0 60 12 96.5t42 54.5t66 23.5t98 4.5q111 0 199 -16l-5 -48q-118 6 -191 6q-49 0 -72 -2.5t-45.5 -14.5t-30 -37t-7.5 -69q0 -62 21.5 -89.5t73.5 -37.5l144 -30q77 -15 108.5 -59.5t31.5 -129.5q0 -60 -13 -97t-43 -56t-68 -25.5t-100 -6.5q-114 0 -210 15l4 49 q124 -6 208 -6q91 1 123 25t32 103q0 65 -21.5 92t-74.5 37l-147 31q-73 15 -104 59.5t-31 127.5zM256 -82q1 22 23 22h18q22 0 22 -22v-56q-2 -69 -26 -127l-28 9q7 49 7 102q-16 0 -16 19v53z" />
<glyph unicode="&#x219;" horiz-adv-x="505" d="M54 365q0 82 41.5 107.5t144.5 24.5q110 -2 198 -15l-6 -46q-120 6 -184 6q-80 1 -106 -11.5t-26 -65.5q0 -41 17 -57t57 -24l149 -28q58 -12 85 -41.5t27 -88.5q0 -85 -45.5 -111t-155.5 -26q-99 0 -185 13l5 47q79 -7 169 -6q89 1 119.5 16.5t30.5 66.5q0 39 -19 55 t-60 24l-148 28q-57 11 -82.5 41.5t-25.5 90.5zM229 -82q1 22 23 22h18q22 0 22 -22v-56q-2 -66 -27 -127l-27 9q7 49 7 102q-18 0 -16 19v53z" />
<glyph unicode="&#x21a;" horiz-adv-x="575" d="M25 632v58h525v-58h-230v-632h-66v632h-229zM245 -82q1 22 23 22h18q22 0 22 -22v-56q-2 -69 -26 -127l-28 9q7 49 7 102q-16 0 -16 19v53z" />
<glyph unicode="&#x21b;" horiz-adv-x="369" d="M29 434v45l88 5v147h63v-147h164v-50h-164v-314q0 -70 71 -70h79l8 -48q-50 -10 -101 -10q-120 0 -120 121v321h-88zM198 -82q1 22 23 22h18q22 0 22 -22v-56q-2 -66 -27 -127l-27 9q7 49 7 102q-18 0 -16 19v53z" />
<glyph unicode="&#x2c6;" horiz-adv-x="410" d="M49 586l133 124h47l133 -124l-23 -28l-130 99h-8l-129 -99z" />
<glyph unicode="&#x2c7;" horiz-adv-x="410" d="M49 689l23 28l129 -92h8l130 92l24 -28l-142 -123h-32z" />
<glyph unicode="&#x2d8;" horiz-adv-x="368" d="M40 687l34 6q0 -39 29.5 -60.5t82.5 -21.5q51 0 80 21.5t29 60.5l35 -6q2 -57 -37 -91t-108 -34t-108.5 34.5t-36.5 90.5z" />
<glyph unicode="&#x2d9;" horiz-adv-x="215" d="M76 602v59q0 21 21 21h21q21 0 21 -21v-59q0 -20 -21 -20h-21q-21 0 -21 20z" />
<glyph unicode="&#x2da;" horiz-adv-x="297" d="M46 637q0 43 30 72.5t73 29.5q42 0 72.5 -30t30.5 -72q0 -43 -30 -72t-73 -29t-73 29t-30 72zM84 637q0 -30 18.5 -48t46.5 -18t46.5 18.5t18.5 47.5t-19 48t-46 19q-28 0 -46.5 -19t-18.5 -48z" />
<glyph unicode="&#x2db;" horiz-adv-x="252" d="M51 -120q20 61 94 122l31 -2q-58 -64 -79 -118q-16 -40 8.5 -53t74.5 5l8 -28q-87 -33 -122.5 -7.5t-14.5 81.5z" />
<glyph unicode="&#x2dc;" horiz-adv-x="413" d="M53 590q-4 53 17.5 80.5t59.5 24.5q31 -3 74.5 -30t71.5 -30q29 -3 40.5 10t11.5 45h32q4 -51 -17.5 -78t-59.5 -24q-37 3 -81.5 30.5t-65.5 30.5q-28 3 -39.5 -11.5t-11.5 -47.5h-32z" />
<glyph unicode="&#x2dd;" horiz-adv-x="439" d="M59 559l110 168l48 -33l-128 -156zM215 559l110 168l48 -33l-129 -156z" />
<glyph unicode="&#x394;" horiz-adv-x="622" d="M29 0v32l248 658h68l248 -658v-32h-564zM104 54h413l-182 497q-5 14 -13.5 40.5t-10.5 33.5l-24 -75z" />
<glyph unicode="&#x3a9;" horiz-adv-x="718" d="M53 0v58h115q36 0 65 -4q-81 57 -116 129t-35 184q0 170 65.5 252.5t211.5 82.5q145 0 211 -83t66 -253q0 -114 -35 -185t-116 -127q46 4 65 4h115v-58h-243v55q81 55 113.5 124.5t33.5 179.5q-1 149 -50.5 217t-159.5 68q-113 0 -161 -67.5t-48 -219.5q0 -114 33 -178.5 t113 -123.5v-55h-243z" />
<glyph unicode="&#x3bc;" horiz-adv-x="588" d="M91 -204v688h63v-347q0 -89 93 -89q42 0 82.5 17t100.5 56v363h64v-484h-49l-7 80q-108 -92 -205 -92q-56 0 -91 26q5 -30 5 -71v-147h-56z" />
<glyph unicode="&#x3c0;" horiz-adv-x="642" d="M29 433v51h584v-51h-100v-433h-63v433h-258v-433h-63v433h-100z" />
<glyph unicode="&#x401;" horiz-adv-x="557" d="M87 113v464q0 52 33 83t88 31q201 0 295 -6l-3 -50h-280q-68 0 -68 -73v-169h308v-53h-308v-213q0 -72 68 -72h280l3 -50q-94 -6 -295 -6q-55 0 -88 31t-33 83zM191 813v55q0 19 18 19h23q18 0 18 -19v-55q0 -20 -18 -20h-23q-18 0 -18 20zM368 813v55q0 19 19 19h22 q19 0 19 -19v-55q0 -20 -19 -20h-22q-19 0 -19 20z" />
<glyph unicode="&#x402;" horiz-adv-x="751" d="M25 632v58h525v-58h-230v-260q102 67 213 67q82 0 125.5 -46.5t43.5 -162.5q0 -242 -255 -232l-6 47q101 7 148 44t47 135q0 93 -28.5 125t-94.5 32q-52 0 -95 -14.5t-98 -47.5v-319h-66v632h-229z" />
<glyph unicode="&#x403;" horiz-adv-x="516" d="M90 0v571q0 52 33.5 86t84.5 34q193 0 286 -6l-4 -50h-262q-72 0 -72 -75v-560h-66zM236 761l164 146l38 -48l-178 -128z" />
<glyph unicode="&#x404;" horiz-adv-x="574" d="M67 345q0 197 61 277t212 80q110 0 185 -19l-8 -50q-84 10 -178 10q-106 0 -152 -55.5t-52 -194.5h303v-52h-304q1 -165 46 -229.5t159 -64.5q113 0 185 12l8 -50q-77 -21 -192 -21q-151 0 -212 80t-61 277z" />
<glyph unicode="&#x405;" horiz-adv-x="559" d="M59 522q0 60 12 96.5t42 54.5t66 23.5t98 4.5q111 0 199 -16l-5 -48q-118 6 -191 6q-49 0 -72 -2.5t-45.5 -14.5t-30 -37t-7.5 -69q0 -62 21.5 -89.5t73.5 -37.5l144 -30q77 -15 108.5 -59.5t31.5 -129.5q0 -60 -13 -97t-43 -56t-68 -25.5t-100 -6.5q-114 0 -210 15l4 49 q124 -6 208 -6q91 1 123 25t32 103q0 65 -21.5 92t-74.5 37l-147 31q-73 15 -104 59.5t-31 127.5z" />
<glyph unicode="&#x406;" horiz-adv-x="251" d="M93 0v690h65v-690h-65z" />
<glyph unicode="&#x407;" horiz-adv-x="251" d="M7 790v55q0 19 18 19h22q19 0 19 -19v-55q0 -20 -19 -20h-22q-18 0 -18 20zM93 0v690h65v-690h-65zM184 790v55q0 19 19 19h21q19 0 19 -19v-55q0 -20 -19 -20h-21q-19 0 -19 20z" />
<glyph unicode="&#x408;" horiz-adv-x="334" d="M33 2l7 46h53q86 0 86 84v558h66v-556q0 -142 -130 -142q-40 0 -82 10z" />
<glyph unicode="&#x409;" horiz-adv-x="968" d="M23 44q58 25 98 99q32 60 44 128.5t26 236.5q3 40 5 62q9 120 130 120h215v-288h157q124 0 172 -46t48 -160q0 -118 -47.5 -161t-163.5 -43q-148 0 -231 8v636h-144q-67 0 -73 -75q-19 -217 -31.5 -294.5t-45.5 -142.5q-28 -57 -64 -88t-88 -37zM541 51q39 -1 157 -1 q89 0 121 29.5t32 117.5q0 85 -31.5 117t-121.5 32h-157v-295z" />
<glyph unicode="&#x40a;" horiz-adv-x="980" d="M93 0v690h65v-290h330v290h65v-290h157q124 0 172 -45.5t48 -158.5q0 -118 -47.5 -161t-164.5 -43q-147 0 -230 8v345h-330v-345h-65zM553 51q38 -1 157 -1q89 0 121 29.5t32 116.5q0 84 -31.5 116.5t-121.5 32.5h-157v-294z" />
<glyph unicode="&#x40b;" horiz-adv-x="781" d="M25 632v58h525v-58h-230v-261q121 68 247 68q153 0 153 -152v-287h-65v274q0 57 -25 81.5t-84 24.5q-60 0 -110.5 -14t-115.5 -49v-317h-66v632h-229z" />
<glyph unicode="&#x40c;" horiz-adv-x="590" d="M93 0v690h65v-223q0 -41 -6 -80h86q29 0 53.5 9.5t45 30.5t36 42t33 58.5t28 64.5t28.5 74l9 24h66q-60 -161 -86 -210q-60 -111 -144 -119v-2q55 -5 98.5 -51t65 -93.5t63.5 -159.5q14 -36 21 -55h-69q-64 168 -81 201q-48 99 -112 123q-26 9 -55 9h-86q6 -41 6 -78 v-255h-65zM239 761l164 146l37 -48l-178 -128z" />
<glyph unicode="&#x40d;" horiz-adv-x="686" d="M93 0v690h63v-527q0 -39 -3 -78h3q13 26 39 72l332 533h67v-690h-64v531q0 37 3 76h-3q-24 -49 -36 -70l-335 -537h-66zM190 859l38 48l164 -146l-24 -30z" />
<glyph unicode="&#x40e;" horiz-adv-x="553" d="M27 690h67l150 -414q7 -18 26 -18h43l158 432h67l-192 -523q-11 -31 -19.5 -51.5t-22 -45t-27.5 -39t-33 -25.5t-42 -12q-58 -5 -115 13l8 47q36 -4 56 -5.5t39.5 3t28.5 9.5t21.5 22.5t19.5 33.5t21 51l13 34h-41q-45 0 -62 43zM132 874l35 6q0 -39 29 -60.5t82 -21.5 q51 0 80.5 21.5t28.5 60.5l35 -6q2 -56 -37 -90.5t-107 -34.5q-69 0 -108.5 34.5t-37.5 90.5z" />
<glyph unicode="&#x40f;" horiz-adv-x="671" d="M93 0v690h65v-636h355v636h66v-690h-215l-4 -151h-45l-5 151h-217z" />
<glyph unicode="&#x410;" horiz-adv-x="615" d="M13 0l231 671q6 19 26 19h75q20 0 26 -19l231 -671h-68l-76 228h-301l-76 -228h-68zM176 285h263l-99 297q-2 5 -8.5 25t-9.5 31h-28q-23 -69 -67 -200t-51 -153z" />
<glyph unicode="&#x411;" horiz-adv-x="596" d="M93 0v690q115 5 209 5q91 0 203 -5l-5 -54h-342v-251h164q124 0 171.5 -44t47.5 -154q0 -62 -13 -101t-43.5 -59.5t-69.5 -27.5t-103 -7q-132 0 -218 8h-1zM158 50q80 -2 164 -2q89 0 121 28t32 113q0 82 -31 112.5t-122 30.5h-164v-282z" />
<glyph unicode="&#x412;" horiz-adv-x="617" d="M93 0v690q75 8 213 8q128 0 177.5 -37.5t49.5 -142.5q0 -75 -28 -113.5t-89 -44.5v-4q75 -7 106.5 -52.5t31.5 -131.5q0 -104 -48.5 -142t-169.5 -38q-157 0 -243 8zM157 50q84 -2 171 -2q91 0 125 27t34 106q0 87 -36 118t-131 33h-163v-282zM157 383h163q85 1 117 27 t32 101q0 78 -35.5 104.5t-129.5 26.5q-110 0 -147 -1v-258z" />
<glyph unicode="&#x413;" horiz-adv-x="516" d="M90 0v571q0 52 33.5 86t84.5 34q193 0 286 -6l-4 -50h-262q-72 0 -72 -75v-560h-66z" />
<glyph unicode="&#x414;" horiz-adv-x="679" d="M23 54h64q91 183 106 516q2 57 35 88.5t92 31.5h241v-636h84v-205h-45l-8 151h-516l-7 -151h-46v205zM151 54h345v582h-165q-38 0 -56 -17.5t-19 -56.5q-8 -163 -30.5 -284.5t-74.5 -223.5z" />
<glyph unicode="&#x415;" horiz-adv-x="557" d="M87 113v464q0 52 33 83t88 31q201 0 295 -6l-3 -50h-280q-68 0 -68 -73v-169h308v-53h-308v-213q0 -72 68 -72h280l3 -50q-94 -6 -295 -6q-55 0 -88 31t-33 83z" />
<glyph unicode="&#x416;" horiz-adv-x="897" d="M35 0q66 179 89 224q54 107 125 129q16 5 33 6v2q-32 3 -60.5 22t-48 42.5t-41 67.5t-34.5 76.5t-34 90.5q-7 20 -11 30h67q59 -154 86 -201q59 -102 141 -102h78q-5 43 -5 80v223h63v-223q0 -47 -5 -80h71q40 0 72.5 21.5t57.5 62.5t45 86.5t44 107.5l3 9t3 7.5t3 8.5 h67q-60 -161 -86 -210q-60 -111 -144 -119v-2q35 -3 64.5 -22t49 -39.5t44 -71.5t36 -80t38.5 -103q11 -28 16 -43h-70q-7 17 -19 50q-18 47 -26.5 70t-24.5 59.5t-27 54t-28 40.5t-33.5 33t-38 18t-46.5 8h-72q6 -40 6 -78v-255h-63v255q0 24 6 78h-78q-34 0 -62.5 -15 t-47 -33t-41.5 -62.5t-34.5 -72.5t-37.5 -96q-14 -35 -21 -54h-69z" />
<glyph unicode="&#x417;" horiz-adv-x="548" d="M39 11l7 48q129 -12 212 -12q90 0 124 27t34 107q0 87 -36 118.5t-130 31.5h-110v53h110q83 0 115 26.5t32 100.5q0 79 -34.5 105.5t-127.5 26.5q-17 0 -174 -9l-7 49q83 15 184 15q127 0 176 -37.5t49 -142.5q0 -75 -27.5 -113.5t-88.5 -44.5v-4q74 -7 105 -52.5 t31 -131.5q0 -104 -47.5 -142t-167.5 -38q-138 0 -229 19z" />
<glyph unicode="&#x418;" horiz-adv-x="686" d="M93 0v690h63v-527q0 -39 -3 -78h3q13 26 39 72l332 533h67v-690h-64v531q0 37 3 76h-3q-24 -49 -36 -70l-335 -537h-66z" />
<glyph unicode="&#x419;" horiz-adv-x="686" d="M93 0v690h63v-527q0 -39 -3 -78h3q13 26 39 72l332 533h67v-690h-64v531q0 37 3 76h-3q-24 -49 -36 -70l-335 -537h-66zM199 881h51q0 -45 25 -70t70 -25q44 0 69 25t25 70h50q3 -58 -36.5 -95t-107.5 -37t-108 37t-38 95z" />
<glyph unicode="&#x41a;" horiz-adv-x="590" d="M93 0v690h65v-223q0 -41 -6 -80h86q29 0 53.5 9.5t45 30.5t36 42t33 58.5t28 64.5t28.5 74l9 24h66q-60 -161 -86 -210q-60 -111 -144 -119v-2q55 -5 98.5 -51t65 -93.5t63.5 -159.5q14 -36 21 -55h-69q-64 168 -81 201q-48 99 -112 123q-26 9 -55 9h-86q6 -41 6 -78 v-255h-65z" />
<glyph unicode="&#x41b;" horiz-adv-x="644" d="M12 50q63 24 99 93q32 63 44.5 137.5t30.5 291.5q11 118 126 118h240v-690h-66v636h-158q-72 0 -78 -75q-19 -216 -31.5 -294.5t-46.5 -142.5q-55 -115 -154 -125z" />
<glyph unicode="&#x41c;" horiz-adv-x="869" d="M79 0l28 661q0 29 29 29h79q21 0 29 -23l151 -450q16 -50 28 -94h22q6 22 29 95l151 449q6 23 29 23h78q29 0 29 -29l29 -661h-65l-27 635h-22l-179 -541q-7 -22 -30 -22h-66q-23 0 -30 22l-180 541h-21l-26 -635h-65z" />
<glyph unicode="&#x41d;" horiz-adv-x="664" d="M93 0v690h65v-293h347v293h66v-690h-66v341h-347v-341h-65z" />
<glyph unicode="&#x41e;" horiz-adv-x="666" d="M67 345q0 200 59 278.5t207 78.5t207 -78.5t59 -278.5t-59 -278.5t-207 -78.5t-207 78.5t-59 278.5zM135 345q0 -168 43.5 -233.5t154.5 -65.5t154 65.5t43 233.5t-43 233.5t-154 65.5t-154.5 -65.5t-43.5 -233.5z" />
<glyph unicode="&#x41f;" horiz-adv-x="666" d="M93 0v690h481v-690h-66v636h-350v-636h-65z" />
<glyph unicode="&#x420;" horiz-adv-x="587" d="M93 0v690q83 8 231 8q121 0 167.5 -44.5t46.5 -166.5t-45.5 -166.5t-161.5 -44.5q-86 0 -172 8v-284h-66zM159 333h164q84 1 116 32.5t32 121.5q0 91 -32 123t-116 32t-164 -2v-307z" />
<glyph unicode="&#x421;" d="M67 345q0 197 59 277t205 80q109 0 184 -19l-8 -49q-76 9 -176 9q-110 0 -153 -65t-43 -233t43 -233t153 -65q114 0 190 11l8 -49q-78 -21 -198 -21q-146 0 -205 80t-59 277z" />
<glyph unicode="&#x422;" horiz-adv-x="575" d="M25 632v58h525v-58h-230v-632h-66v632h-229z" />
<glyph unicode="&#x423;" horiz-adv-x="553" d="M27 690h67l150 -414q7 -18 26 -18h43l158 432h67l-192 -523q-11 -31 -19.5 -51.5t-22 -45t-27.5 -39t-33 -25.5t-42 -12q-58 -5 -115 13l8 47q36 -4 56 -5.5t39.5 3t28.5 9.5t21.5 22.5t19.5 33.5t21 51l13 34h-41q-45 0 -62 43z" />
<glyph unicode="&#x424;" horiz-adv-x="821" d="M59 353q0 160 72 226t247 71v100h66v-100q175 -5 246.5 -71t71.5 -226q0 -157 -71.5 -223t-246.5 -71v-100h-66v100q-175 5 -247 70.5t-72 223.5zM127 353q0 -132 55 -183t198 -55v480q-143 -4 -198 -56t-55 -186zM441 115q143 4 198 55t56 183q-1 134 -56 185.5 t-198 56.5v-480z" />
<glyph unicode="&#x425;" horiz-adv-x="608" d="M31 0l203 358l-190 332h72l172 -305h32l171 305h73l-191 -332l204 -358h-73l-186 334h-29l-186 -334h-72z" />
<glyph unicode="&#x426;" horiz-adv-x="684" d="M93 0v690h65v-636h342v636h66v-636h83v-205h-45l-7 151h-504z" />
<glyph unicode="&#x427;" horiz-adv-x="618" d="M64 409v281h65v-268q0 -56 25 -81t80 -25q60 0 110 14t116 50v310h66v-690h-66v328q-119 -71 -248 -71q-148 0 -148 152z" />
<glyph unicode="&#x428;" horiz-adv-x="919" d="M93 0v690h64v-636h271v636h64v-636h270v636h65v-690h-734z" />
<glyph unicode="&#x429;" horiz-adv-x="936" d="M93 0v690h64v-636h267v636h64v-636h267v636h64v-636h83v-205h-45l-8 151h-756z" />
<glyph unicode="&#x42a;" horiz-adv-x="746" d="M25 632v58h290v-288h161q124 0 172 -46t48 -160q0 -118 -47.5 -161t-163.5 -43q-151 0 -236 8v632h-224zM315 51q39 -1 161 -1q89 0 121 29.5t32 116.5q0 85 -31.5 117.5t-121.5 32.5h-161v-295z" />
<glyph unicode="&#x42b;" horiz-adv-x="833" d="M93 0v690h65v-288h163q124 0 172 -46t48 -160q0 -118 -47.5 -161t-163.5 -43q-151 0 -236 8h-1zM158 51q40 -1 163 -1q89 0 121 29.5t32 116.5q0 85 -31.5 117.5t-121.5 32.5h-163v-295zM675 0v690h65v-690h-65z" />
<glyph unicode="&#x42c;" horiz-adv-x="591" d="M93 0v690h65v-288h163q124 0 172 -46t48 -160q0 -118 -47.5 -161t-163.5 -43q-151 0 -236 8h-1zM158 51q40 -1 163 -1q89 0 121 29.5t32 116.5q0 85 -31.5 117.5t-121.5 32.5h-163v-295z" />
<glyph unicode="&#x42d;" horiz-adv-x="574" d="M42 9l9 50q71 -12 184 -12q114 0 159.5 65t45.5 230h-304v52h303q-5 138 -51.5 193.5t-152.5 55.5q-94 0 -177 -10l-9 50q76 19 186 19q151 0 212 -80t61 -277t-61 -277t-212 -80q-115 0 -193 21z" />
<glyph unicode="&#x42e;" horiz-adv-x="915" d="M94 0v690h65v-304h168q5 176 62.5 246t191.5 70q148 0 207.5 -78.5t59.5 -278.5t-59.5 -278.5t-207.5 -78.5q-139 0 -196 76t-58 268h-168v-332h-65zM392 345q0 -168 41.5 -233.5t147.5 -65.5q111 0 154 65.5t44 233.5q-1 168 -44 233.5t-154 65.5q-106 0 -147.5 -65.5 t-41.5 -233.5z" />
<glyph unicode="&#x42f;" horiz-adv-x="609" d="M47 0l68 211q25 80 88 96l-1 6q-63 9 -93.5 57.5t-30.5 125.5q0 110 49.5 156t162.5 46q145 0 226 -8v-690h-65v289q-80 -2 -170 -2q-73 0 -99 -79l-65 -208h-70zM144 493q0 -149 138 -149h169v296q-78 2 -160 2q-80 0 -113 -32t-34 -117z" />
<glyph unicode="&#x430;" horiz-adv-x="547" d="M58 123v56q0 56 33 87t94 31h217v51q0 48 -22.5 71t-80.5 23q-86 0 -215 -14l-6 47q145 22 233 22q78 0 116.5 -34.5t38.5 -114.5v-348h-50l-8 85q-36 -36 -93.5 -64.5t-118.5 -28.5q-64 0 -101 34t-37 97zM122 129q0 -81 85 -81q44 -1 98.5 21.5t96.5 60.5v116h-207 q-73 -3 -73 -75v-42z" />
<glyph unicode="&#x431;" horiz-adv-x="569" d="M76 295q0 70 3.5 117t15 92t32 74t54.5 52t83 38q20 6 62.5 14.5t73.5 20t66 33.5l16 -49q-27 -18 -55 -29.5t-46.5 -16.5t-49 -11t-47.5 -11q-79 -23 -110.5 -69t-40.5 -120q-6 -32 -8 -70h2q8 22 19 38.5t31 34.5t55.5 27.5t83.5 9.5q106 0 148.5 -53.5t42.5 -182.5 q0 -124 -45.5 -185t-169.5 -61q-50 0 -86.5 9.5t-59.5 30.5t-37.5 45t-21.5 63t-9 73t-2 86zM142 235q0 -108 34 -150t117 -42t115.5 41.5t32.5 150.5q0 103 -30.5 141.5t-110.5 38.5q-94 0 -126 -43.5t-32 -136.5z" />
<glyph unicode="&#x432;" horiz-adv-x="551" d="M84 0v483q71 6 189 6q114 0 158 -27t44 -102q0 -52 -25 -79t-80 -31v-2q66 -5 94 -36.5t28 -91.5q0 -73 -42.5 -99.5t-149.5 -26.5q-136 0 -216 6zM144 45h147q78 0 107.5 17.5t29.5 68.5q0 54 -31.5 74.5t-111.5 20.5h-141v-181zM144 273h141q73 0 101 17t28 65 q0 49 -31 66.5t-112 17.5h-127v-166z" />
<glyph unicode="&#x433;" horiz-adv-x="454" d="M82 0v384q0 50 26 76t76 26q166 0 245 -6l-2 -46h-218q-64 0 -64 -65v-369h-63z" />
<glyph unicode="&#x434;" horiz-adv-x="573" d="M29 52h53q67 124 80 328q6 104 113 104h193v-432h62v-197h-42l-7 145h-403l-6 -145h-43v197zM140 52h267v382h-122q-60 0 -65 -63q-12 -202 -80 -319z" />
<glyph unicode="&#x435;" horiz-adv-x="535" d="M61 244q0 140 50 196.5t167 56.5q103 0 152 -37.5t50 -113.5q2 -135 -111 -135h-242q6 -96 44 -132t123 -36q76 0 168 12l7 -43q-61 -24 -183 -24t-173.5 58.5t-51.5 197.5zM127 261h227q64 0 62 84q-1 51 -33 74t-102 23q-85 0 -119 -39.5t-35 -141.5z" />
<glyph unicode="&#x436;" horiz-adv-x="778" d="M38 0q54 139 80 178q43 67 114 74v2q-28 3 -51 16.5t-38.5 29.5t-33.5 51.5t-27.5 58.5t-29.5 74h65q18 -46 28 -68.5t27.5 -54.5t32.5 -46.5t36.5 -26t47.5 -11.5h78q-4 24 -4 57v150h57v-150q0 -33 -4 -57h73q32 0 56.5 13.5t46 47.5t34.5 61.5t36 84.5h65 q-20 -51 -29.5 -74t-27.5 -58.5t-33.5 -51.5t-38.5 -29.5t-51 -16.5v-2q25 -2 45 -10t38 -27t29 -33.5t28 -51.5t25 -57.5t28 -72.5h-65q-4 10 -12 28q-49 119 -76 153q-37 46 -94 47h-77q4 -24 4 -52v-176h-57v176q0 22 5 52h-82q-32 0 -54.5 -10.5t-45 -45t-32.5 -56 t-38 -88.5q-8 -18 -12 -28h-66z" />
<glyph unicode="&#x437;" horiz-adv-x="488" d="M41 5l6 49q99 -8 173 -8q81 0 111 18.5t30 67.5q0 52 -30.5 71.5t-108.5 20.5h-108v48h107q74 0 100.5 17.5t26.5 66.5q0 50 -31.5 66t-119.5 16q-84 0 -137 -8l-6 48q61 14 144 14q121 0 167 -26t46 -102q0 -55 -22.5 -82t-79.5 -32v-2q63 -5 90.5 -36t27.5 -93 q0 -71 -45.5 -99t-157.5 -28q-101 0 -183 13z" />
<glyph unicode="&#x438;" horiz-adv-x="585" d="M85 0v484h57v-346q0 -40 -1 -62h2q19 34 33 52l272 356h52v-484h-58v348q0 18 2 60h-2q-10 -21 -32 -51l-273 -357h-52z" />
<glyph unicode="&#x439;" horiz-adv-x="585" d="M85 0v484h57v-346q0 -40 -1 -62h2q19 34 33 52l272 356h52v-484h-58v348q0 18 2 60h-2q-10 -21 -32 -51l-273 -357h-52zM140 700h51q0 -45 25 -70t70 -25q44 0 69 25t25 70h50q3 -57 -36.5 -94.5t-107.5 -37.5t-108 37.5t-38 94.5z" />
<glyph unicode="&#x43a;" horiz-adv-x="529" d="M85 0v484h63v-150q0 -25 -5 -57h80q30 0 54.5 11.5t41 26t35 46.5t28.5 54.5t29 68.5h66q-18 -44 -26 -62.5t-24.5 -51.5t-28 -47.5t-29 -32.5t-38 -26t-44.5 -11v-2q20 -2 37 -6.5t32 -15.5t26 -20t24.5 -30t21 -33.5t21 -43.5t20 -46.5t22.5 -55.5h-67q-54 127 -77 161 q-44 64 -116 66h-4h-83q4 -34 4 -51v-176h-63z" />
<glyph unicode="&#x43b;" horiz-adv-x="553" d="M21 45q36 11 55.5 28.5t30.5 44.5q6 14 12 32t10 39.5t7.5 39t6.5 43t4.5 38.5t4 38.5t3.5 30.5q7 54 34.5 79.5t82.5 25.5h196v-484h-64v434h-123q-32 0 -47 -15t-19 -49q-1 -7 -4 -34t-4.5 -37.5t-4.5 -35t-5.5 -37t-6.5 -33.5t-7.5 -35t-8.5 -30.5t-11 -29.5 q-36 -94 -135 -103z" />
<glyph unicode="&#x43c;" horiz-adv-x="738" d="M74 0l22 459q0 25 26 25h70q18 0 26 -21l118 -301q14 -34 24 -69h17q19 56 24 69l118 301q7 21 27 21h70q26 0 26 -25l22 -459h-59l-21 435h-18l-144 -364q-8 -21 -26 -21h-55q-19 0 -27 21l-143 364h-18l-20 -435h-59z" />
<glyph unicode="&#x43d;" horiz-adv-x="576" d="M85 0v484h62v-201h282v201h63v-484h-63v233h-282v-233h-62z" />
<glyph unicode="&#x43e;" d="M61 242q0 140 50.5 197.5t172.5 57.5t172 -57.5t50 -197.5t-50 -197t-172 -57t-172.5 57.5t-50.5 196.5zM127 242q0 -114 34.5 -157t122.5 -43t122 43t34 157t-34 157t-122 43t-122.5 -43t-34.5 -157z" />
<glyph unicode="&#x43f;" horiz-adv-x="571" d="M85 0v484h401v-484h-62v433h-277v-433h-62z" />
<glyph unicode="&#x440;" horiz-adv-x="575" d="M85 -204v688h52l6 -80q93 93 200 93q90 0 130 -62t40 -195q0 -137 -42.5 -194.5t-138.5 -57.5q-94 0 -187 51q5 -39 3 -96v-147h-63zM148 80q111 -36 171 -36q71 0 100 42.5t29 154.5q0 110 -28 155t-95 45q-40 0 -80 -19.5t-97 -63.5v-278z" />
<glyph unicode="&#x441;" horiz-adv-x="487" d="M61 242q0 140 51 197.5t176 57.5q89 0 149 -22l-10 -41q-53 8 -129 8q-96 0 -133.5 -42.5t-37.5 -157.5t37.5 -157t133.5 -42q84 0 141 11l7 -44q-74 -22 -158 -22q-125 0 -176 57t-51 197z" />
<glyph unicode="&#x442;" horiz-adv-x="483" d="M28 432v52h428v-52h-183v-432h-63v432h-182z" />
<glyph unicode="&#x443;" horiz-adv-x="522" d="M23 484h68l143 -378q12 -32 20 -56h14q31 85 91 243t72 191h68l-204 -518q-38 -99 -89 -138q-62 -46 -163 -31l6 43q76 -4 118 26q39 31 69 107l12 27h-16q-19 0 -25 17z" />
<glyph unicode="&#x444;" horiz-adv-x="711" d="M60 242q0 132 60.5 191t205.5 63v204h59v-204q144 -4 205 -63t61 -191t-61 -190.5t-205 -63.5v-192h-59v192q-145 5 -205.5 63.5t-60.5 190.5zM122 242q0 -108 46 -151.5t160 -47.5v399q-114 -4 -160 -48t-46 -152zM384 43q114 4 159.5 47.5t45.5 151.5q0 107 -45.5 151 t-159.5 49v-399z" />
<glyph unicode="&#x445;" horiz-adv-x="522" d="M28 0l170 251l-157 233h70l137 -206h26l137 206h70l-157 -233l169 -251h-70l-151 227h-22l-151 -227h-71z" />
<glyph unicode="&#x446;" horiz-adv-x="584" d="M85 0v484h63v-432h268v432h63v-432h62v-195h-43l-7 143h-406z" />
<glyph unicode="&#x447;" horiz-adv-x="522" d="M58 279v205h63v-186q0 -38 17 -54.5t55 -16.5q89 0 181 40v217h63v-484h-63v216q-98 -42 -201 -42q-115 0 -115 105z" />
<glyph unicode="&#x448;" horiz-adv-x="797" d="M85 0v484h62v-432h222v432h58v-432h224v432h61v-484h-627z" />
<glyph unicode="&#x449;" horiz-adv-x="819" d="M85 0v484h62v-432h223v432h57v-432h225v432h61v-432h62v-195h-43l-7 143h-640z" />
<glyph unicode="&#x44a;" horiz-adv-x="629" d="M27 433v51h238v-197h129q107 0 147.5 -32.5t40.5 -114.5q0 -84 -40.5 -115t-138.5 -31q-126 0 -200 6v433h-176zM265 46q14 0 57.5 -0.5t71.5 -0.5q70 0 96.5 20t26.5 78q0 55 -26 75.5t-97 20.5h-129v-193z" />
<glyph unicode="&#x44b;" horiz-adv-x="705" d="M85 0v484h61v-197h131q101 0 139 -32.5t38 -114.5q0 -84 -37.5 -115t-130.5 -31q-126 0 -200 6h-1zM146 46q14 0 58 -0.5t73 -0.5q63 0 87.5 20t24.5 78q0 55 -23.5 75.5t-88.5 20.5h-131v-193zM556 0v484h63v-484h-63z" />
<glyph unicode="&#x44c;" horiz-adv-x="512" d="M85 0v484h61v-197h131q107 0 147.5 -32.5t40.5 -114.5q0 -84 -40.5 -115t-138.5 -31q-126 0 -200 6h-1zM146 46q14 0 58 -0.5t73 -0.5q70 0 96.5 20t26.5 78q0 55 -26 75.5t-97 20.5h-131v-193z" />
<glyph unicode="&#x44d;" horiz-adv-x="498" d="M43 8l8 45q64 -7 155 -7t127.5 38t38.5 139h-250v48h250q-4 93 -41 129t-125 36q-80 0 -150 -7l-7 45q58 16 157 16q128 0 179.5 -55.5t51.5 -194.5q0 -138 -51.5 -193.5t-179.5 -55.5q-96 0 -163 17z" />
<glyph unicode="&#x44e;" horiz-adv-x="785" d="M85 0v484h63v-209h136q4 125 52 173.5t162 48.5q126 0 176 -55t50 -199q0 -142 -50 -196.5t-176 -54.5q-117 0 -164.5 50.5t-49.5 182.5h-136v-225h-63zM345 244q0 -112 33 -155t119 -43q91 0 125.5 42.5t35.5 155.5q-1 113 -35.5 155.5t-125.5 42.5q-86 0 -119 -42.5 t-33 -155.5z" />
<glyph unicode="&#x44f;" horiz-adv-x="537" d="M46 0l45 143q16 54 95 64v3q-115 10 -115 139q0 67 39.5 103.5t132.5 36.5q135 0 209 -7v-482h-62v186h-141q-83 0 -99 -57l-38 -129h-66zM134 339q0 -55 26 -80t92 -25h138v201q-35 1 -146 1q-62 0 -86 -23.5t-24 -73.5z" />
<glyph unicode="&#x451;" horiz-adv-x="535" d="M61 244q0 140 50 196.5t167 56.5q103 0 152 -37.5t50 -113.5q2 -135 -111 -135h-242q6 -96 44 -132t123 -36q76 0 168 12l7 -43q-61 -24 -183 -24t-173.5 58.5t-51.5 197.5zM127 261h227q64 0 62 84q-1 51 -33 74t-102 23q-85 0 -119 -39.5t-35 -141.5zM161 610v55 q0 19 19 19h22q18 0 18 -19v-55q0 -20 -18 -20h-22q-19 0 -19 20zM338 610v55q0 19 19 19h22q19 0 19 -19v-55q0 -20 -19 -20h-22q-19 0 -19 20z" />
<glyph unicode="&#x452;" horiz-adv-x="578" d="M29 500v39h77v161h64v-161h198v-39h-197v-99q0 -46 -5 -88q121 86 221 86q132 0 132 -133v-266h-64v250q0 49 -21.5 70t-71.5 21q-43 0 -86 -18t-106 -58v-265h-64v500h-77z" />
<glyph unicode="&#x453;" horiz-adv-x="454" d="M82 0v384q0 50 26 76t76 26q166 0 245 -6l-2 -46h-218q-64 0 -64 -65v-369h-63zM204 580l164 146l38 -48l-178 -128z" />
<glyph unicode="&#x454;" horiz-adv-x="499" d="M62 240q0 139 51 194.5t179 55.5q100 0 158 -16l-8 -45q-69 7 -150 7q-87 0 -124 -36t-41 -129h250v-48h-251q2 -101 38.5 -139t127.5 -38q92 0 156 7l7 -45q-65 -17 -163 -17q-127 0 -178.5 56t-51.5 193z" />
<glyph unicode="&#x455;" horiz-adv-x="507" d="M55 365q0 82 41.5 107.5t144.5 24.5q110 -2 198 -15l-6 -46q-120 6 -184 6q-80 1 -106 -11.5t-26 -65.5q0 -41 17 -57t57 -24l149 -28q58 -12 85 -41.5t27 -88.5q0 -85 -45.5 -111t-155.5 -26q-99 0 -185 13l5 47q79 -7 169 -6q89 1 119.5 16.5t30.5 66.5q0 39 -19 55 t-60 24l-148 28q-57 11 -82.5 41.5t-25.5 90.5z" />
<glyph unicode="&#x456;" horiz-adv-x="240" d="M85 609v58q0 21 20 21h30q21 0 21 -21v-58q0 -21 -21 -21h-30q-20 0 -20 21zM89 0v484h63v-484h-63z" />
<glyph unicode="&#x457;" horiz-adv-x="240" d="M1 610v55q0 19 19 19h22q18 0 18 -19v-55q0 -20 -18 -20h-22q-19 0 -19 20zM89 0v484h63v-484h-63zM178 610v55q0 19 19 19h22q19 0 19 -19v-55q0 -20 -19 -20h-22q-19 0 -19 20z" />
<glyph unicode="&#x458;" horiz-adv-x="241" d="M34 -178q55 70 55 154v508h63v-508q0 -111 -84 -182zM85 609v58q0 21 21 21h29q21 0 21 -21v-58q0 -21 -21 -21h-29q-21 0 -21 21z" />
<glyph unicode="&#x459;" horiz-adv-x="791" d="M29 43q55 24 79 66q34 59 54 253q1 7 1.5 11t1 10.5t1.5 11.5q9 89 104 89h173v-191h119q103 0 142.5 -33t39.5 -117q0 -91 -41.5 -120t-144.5 -29q-106 0 -176 6v436h-98q-29 0 -43 -12t-17 -40q-14 -137 -24 -191t-34 -101q-38 -84 -130 -94zM443 46q30 -1 105 -1 q76 0 103.5 18.5t27.5 81.5q0 56 -25 78.5t-92 22.5h-119v-200z" />
<glyph unicode="&#x45a;" horiz-adv-x="801" d="M85 0v484h59v-193h248v193h60v-192h121q102 0 141 -32.5t39 -115.5q0 -86 -38.5 -118t-133.5 -32q-118 0 -189 6v244h-248v-244h-59zM452 46q31 -1 121 -1q66 0 91 20t25 80q0 56 -24.5 78t-91.5 22h-121v-199z" />
<glyph unicode="&#x45b;" horiz-adv-x="578" d="M29 500v39h77v161h64v-161h198v-39h-197v-99q0 -46 -5 -88q121 86 221 86q130 0 132 -133v-290q0 -110 -84 -182l-35 28q55 68 55 154v274q0 48 -22 69.5t-71 21.5q-43 0 -86 -18t-106 -58v-265h-64v500h-77z" />
<glyph unicode="&#x45c;" horiz-adv-x="529" d="M85 0v484h63v-150q0 -25 -5 -57h80q30 0 54.5 11.5t41 26t35 46.5t28.5 54.5t29 68.5h66q-18 -44 -26 -62.5t-24.5 -51.5t-28 -47.5t-29 -32.5t-38 -26t-44.5 -11v-2q20 -2 37 -6.5t32 -15.5t26 -20t24.5 -30t21 -33.5t21 -43.5t20 -46.5t22.5 -55.5h-67q-54 127 -77 161 q-44 64 -116 66h-4h-83q4 -34 4 -51v-176h-63zM218 580l164 146l38 -48l-178 -128z" />
<glyph unicode="&#x45d;" horiz-adv-x="585" d="M85 0v484h57v-346q0 -40 -1 -62h2q19 34 33 52l272 356h52v-484h-58v348q0 18 2 60h-2q-10 -21 -32 -51l-273 -357h-52zM131 678l37 48l165 -146l-24 -30z" />
<glyph unicode="&#x45e;" horiz-adv-x="522" d="M23 484h68l143 -378q12 -32 20 -56h14q31 85 91 243t72 191h68l-204 -518q-38 -99 -89 -138q-62 -46 -163 -31l6 43q76 -4 118 26q39 31 69 107l12 27h-16q-19 0 -25 17zM117 700h51q0 -45 25 -70t70 -25q44 0 69 25t25 70h50q2 -57 -37 -94.5t-107 -37.5t-108 37.5 t-38 94.5z" />
<glyph unicode="&#x45f;" horiz-adv-x="574" d="M85 0v484h64v-432h277v432h63v-484h-174l-6 -166h-43l-7 166h-174z" />
<glyph unicode="&#x490;" horiz-adv-x="520" d="M90 0v571q0 52 33.5 86t84.5 34q159 0 237 -6l8 156h43v-161l-3 -45h-265q-72 0 -72 -75v-560h-66z" />
<glyph unicode="&#x491;" horiz-adv-x="455" d="M83 0v384q0 102 102 102q130 0 194 -3l8 148h43v-151l-3 -46h-218q-33 0 -48 -15.5t-15 -49.5v-369h-63z" />
<glyph unicode="&#x4b0;" horiz-adv-x="572" d="M22 690h70l158 -306q1 -2 34 -74h6q13 31 33 73l158 307h69l-218 -419h141v-41h-154v-230h-65v230h-155v41h143z" />
<glyph unicode="&#x4b1;" horiz-adv-x="576" d="M24 484h70l157 -304q1 -1 34 -74h7q22 53 33 73l157 305h70l-219 -417h142v-42h-154v-229h-65v229h-155v42h143z" />
<glyph unicode="&#x4b6;" horiz-adv-x="641" d="M64 409v281h66v-268q-1 -56 25 -81.5t83 -25.5q59 0 108.5 14t114.5 50v311h65v-643h80v-198h-45l-8 151h-92v324q-120 -67 -244 -67q-153 0 -153 152z" />
<glyph unicode="&#x4b7;" horiz-adv-x="542" d="M58 279v205h63v-186q0 -38 17 -54.5t55 -16.5q89 0 181 40v217h63v-432h62v-195h-42l-8 143h-75v216q-98 -42 -201 -42q-115 0 -115 105z" />
<glyph unicode="&#x4ba;" horiz-adv-x="619" d="M93 0v690h65v-324q117 67 243 67q154 0 154 -152v-281h-66v268q1 56 -25 81.5t-84 25.5q-108 0 -222 -63v-312h-65z" />
<glyph unicode="&#x4c0;" horiz-adv-x="252" d="M93 0v690h66v-690h-66z" />
<glyph unicode="&#x1e80;" horiz-adv-x="941" d="M32 690h69l126 -559q8 -33 16 -80h25q8 43 16 79l122 537q5 23 27 23h75q22 0 27 -23l122 -537q5 -21 16 -79h26q2 9 4.5 25t5 29t5.5 24l127 561h69l-156 -670q-5 -20 -27 -20h-79q-23 0 -28 21q-9 42 -60 269.5t-78 348.5h-22q-12 -52 -18 -77l-121 -541 q-5 -21 -27 -21h-80q-22 0 -27 20zM316 858l37 48l165 -146l-24 -30z" />
<glyph unicode="&#x1e81;" horiz-adv-x="820" d="M28 484h66l114 -371q5 -17 19 -70h13q17 62 36.5 133.5t42.5 154.5t37 133q5 20 25 20h58q20 0 25 -21l97 -350l18 -70h14q15 58 18 70l115 371h66l-151 -465q-6 -19 -26 -19h-59q-21 0 -26 21l-96 347q-3 12 -9 37t-10 38h-11q-21 -84 -64.5 -241t-49.5 -181 q-5 -21 -27 -21h-58q-21 0 -26 19zM254 678l38 48l164 -146l-24 -30z" />
<glyph unicode="&#x1e82;" horiz-adv-x="941" d="M32 690h69l126 -559q8 -33 16 -80h25q8 43 16 79l122 537q5 23 27 23h75q22 0 27 -23l122 -537q5 -21 16 -79h26q2 9 4.5 25t5 29t5.5 24l127 561h69l-156 -670q-5 -20 -27 -20h-79q-23 0 -28 21q-9 42 -60 269.5t-78 348.5h-22q-12 -52 -18 -77l-121 -541 q-5 -21 -27 -21h-80q-22 0 -27 20zM412 760l164 146l38 -48l-178 -128z" />
<glyph unicode="&#x1e83;" horiz-adv-x="820" d="M28 484h66l114 -371q5 -17 19 -70h13q17 62 36.5 133.5t42.5 154.5t37 133q5 20 25 20h58q20 0 25 -21l97 -350l18 -70h14q15 58 18 70l115 371h66l-151 -465q-6 -19 -26 -19h-59q-21 0 -26 21l-96 347q-3 12 -9 37t-10 38h-11q-21 -84 -64.5 -241t-49.5 -181 q-5 -21 -27 -21h-58q-21 0 -26 19zM351 580l164 146l38 -48l-178 -128z" />
<glyph unicode="&#x1e84;" horiz-adv-x="941" d="M32 690h69l126 -559q8 -33 16 -80h25q8 43 16 79l122 537q5 23 27 23h75q22 0 27 -23l122 -537q5 -21 16 -79h26q2 9 4.5 25t5 29t5.5 24l127 561h69l-156 -670q-5 -20 -27 -20h-79q-23 0 -28 21q-9 42 -60 269.5t-78 348.5h-22q-12 -52 -18 -77l-121 -541 q-5 -21 -27 -21h-80q-22 0 -27 20zM353 790v55q0 19 19 19h22q18 0 18 -19v-55q0 -20 -18 -20h-22q-19 0 -19 20zM530 790v55q0 19 19 19h22q19 0 19 -19v-55q0 -20 -19 -20h-22q-19 0 -19 20z" />
<glyph unicode="&#x1e85;" horiz-adv-x="820" d="M28 484h66l114 -371q5 -17 19 -70h13q17 62 36.5 133.5t42.5 154.5t37 133q5 20 25 20h58q20 0 25 -21l97 -350l18 -70h14q15 58 18 70l115 371h66l-151 -465q-6 -19 -26 -19h-59q-21 0 -26 21l-96 347q-3 12 -9 37t-10 38h-11q-21 -84 -64.5 -241t-49.5 -181 q-5 -21 -27 -21h-58q-21 0 -26 19zM292 610v55q0 19 18 19h22q19 0 19 -19v-55q0 -20 -19 -20h-22q-18 0 -18 20zM469 610v55q0 19 19 19h21q19 0 19 -19v-55q0 -20 -19 -20h-21q-19 0 -19 20z" />
<glyph unicode="&#x1ef2;" horiz-adv-x="559" d="M15 690h70l158 -306q13 -26 33 -74h7q13 31 33 73l158 307h69l-231 -443v-247h-65v248zM124 859l37 48l164 -146l-24 -30z" />
<glyph unicode="&#x1ef3;" horiz-adv-x="521" d="M22 484h68l143 -378q16 -42 20 -56h14q31 85 91 243t72 191h68l-204 -518q-29 -74 -73 -119.5t-119 -53.5l-8 41q57 19 89 53t52 86l12 27h-16q-19 0 -25 17zM107 678l38 48l164 -146l-24 -30z" />
<glyph unicode="&#x2000;" horiz-adv-x="464" />
<glyph unicode="&#x2001;" horiz-adv-x="929" />
<glyph unicode="&#x2002;" horiz-adv-x="464" />
<glyph unicode="&#x2003;" horiz-adv-x="929" />
<glyph unicode="&#x2004;" horiz-adv-x="309" />
<glyph unicode="&#x2005;" horiz-adv-x="232" />
<glyph unicode="&#x2006;" horiz-adv-x="154" />
<glyph unicode="&#x2007;" horiz-adv-x="154" />
<glyph unicode="&#x2008;" horiz-adv-x="116" />
<glyph unicode="&#x2009;" horiz-adv-x="185" />
<glyph unicode="&#x200a;" horiz-adv-x="51" />
<glyph unicode="&#x2010;" horiz-adv-x="461" d="M77 227v50h307v-50h-307z" />
<glyph unicode="&#x2011;" horiz-adv-x="461" d="M77 227v50h307v-50h-307z" />
<glyph unicode="&#x2012;" horiz-adv-x="461" d="M77 227v50h307v-50h-307z" />
<glyph unicode="&#x2013;" horiz-adv-x="603" d="M77 227v50h449v-50h-449z" />
<glyph unicode="&#x2014;" horiz-adv-x="909" d="M77 227v50h755v-50h-755z" />
<glyph unicode="&#x2018;" horiz-adv-x="210" d="M72 531v61q2 74 28 138l30 -9q-8 -51 -8 -112q19 0 17 -20v-58q0 -24 -25 -24h-18q-24 0 -24 24z" />
<glyph unicode="&#x2019;" horiz-adv-x="207" d="M70 641v58q1 24 25 24h19q23 0 23 -24v-61q-2 -75 -28 -139l-29 9q7 55 7 112q-19 0 -17 21z" />
<glyph unicode="&#x201a;" horiz-adv-x="221" d="M76 21v58q1 24 26 24h19q24 0 24 -24v-61q-2 -77 -29 -139l-30 9q8 62 8 112q-20 0 -18 21z" />
<glyph unicode="&#x201c;" horiz-adv-x="349" d="M72 531v61q2 74 28 138l30 -9q-8 -51 -8 -112q19 0 17 -20v-58q0 -24 -25 -24h-18q-24 0 -24 24zM211 531v61q2 74 28 138l30 -9q-8 -51 -8 -112q19 0 17 -20v-58q0 -24 -25 -24h-19q-23 0 -23 24z" />
<glyph unicode="&#x201d;" horiz-adv-x="346" d="M70 641v58q1 24 25 24h19q23 0 23 -24v-61q-2 -75 -28 -139l-29 9q7 55 7 112q-19 0 -17 21zM209 641v58q1 24 25 24h19q23 0 23 -24v-61q-2 -75 -28 -139l-29 9q7 55 7 112q-19 0 -17 21z" />
<glyph unicode="&#x201e;" horiz-adv-x="360" d="M77 21v58q0 24 24 24h19q24 0 24 -24v-61q-2 -75 -28 -139l-30 9q8 62 8 112q-19 0 -17 21zM216 21v58q0 24 24 24h19q24 0 24 -24v-61q-2 -75 -28 -139l-30 9q8 62 8 112q-19 0 -17 21z" />
<glyph unicode="&#x2020;" horiz-adv-x="446" d="M47 427v57h132v-49zM193 691h60l-3 -211v-590h-54v590zM267 435v49h132v-57z" />
<glyph unicode="&#x2021;" horiz-adv-x="483" d="M65 97v57l132 -8v-49h-132zM65 427v57h132v-49zM212 -110l2 208v385l-2 208h59l-3 -208v-385l3 -208h-59zM285 97v49l132 8v-57h-132zM285 435v49h132v-57z" />
<glyph unicode="&#x2022;" horiz-adv-x="359" d="M96 263v11q0 43 17 60t62 17h11q43 0 59.5 -17t16.5 -60v-11q0 -44 -16.5 -61.5t-59.5 -17.5h-11q-45 0 -62 17.5t-17 61.5z" />
<glyph unicode="&#x2026;" horiz-adv-x="818" d="M73 25v57q0 25 25 25h21q25 0 25 -25v-57q0 -25 -25 -25h-21q-25 0 -25 25zM372 25v57q0 25 24 25h22q25 0 25 -25v-57q0 -25 -25 -25h-22q-24 0 -24 25zM671 25v57q0 25 24 25h22q25 0 25 -25v-57q0 -25 -25 -25h-22q-24 0 -24 25z" />
<glyph unicode="&#x202f;" horiz-adv-x="185" />
<glyph unicode="&#x2030;" horiz-adv-x="1258" d="M52 498q0 110 35 157t122 47t122 -47t35 -157t-35 -157t-122 -47t-122 47t-35 157zM102 498q0 -90 23.5 -126.5t82.5 -36.5q61 0 84 36.5t23 126.5t-23 126.5t-84 36.5q-59 0 -82.5 -36.5t-23.5 -126.5zM190 0l459 690h48l-459 -690h-48zM524 196q0 110 35.5 157.5 t121.5 47.5t121.5 -47.5t35.5 -157.5t-35 -157t-122 -47t-122 47t-35 157zM575 196q-1 -89 22.5 -126t82.5 -37q60 0 83.5 36.5t23.5 126.5t-23.5 126.5t-83.5 36.5q-59 0 -82.5 -37t-22.5 -126zM891 196q0 110 35 157.5t121 47.5t121.5 -47.5t35.5 -157.5t-35 -157 t-122 -47q-86 0 -121 47t-35 157zM941 196q0 -90 23 -126.5t83 -36.5t83.5 36.5t23.5 126.5t-23.5 126.5t-83.5 36.5t-83 -36.5t-23 -126.5z" />
<glyph unicode="&#x2039;" horiz-adv-x="264" d="M31 243v16l161 198l33 -22l-134 -184l135 -187l-33 -22z" />
<glyph unicode="&#x203a;" horiz-adv-x="265" d="M37 64l135 187l-134 184l34 22l162 -198v-16l-163 -201z" />
<glyph unicode="&#x2044;" horiz-adv-x="160" d="M-174 0l459 690h48l-459 -690h-48z" />
<glyph unicode="&#x205f;" horiz-adv-x="232" />
<glyph unicode="&#x20ac;" horiz-adv-x="642" d="M58 266v42h87v37q0 37 1 55h-87v42h90q15 132 77 196t187 64q94 0 164 -19l-9 -50q-80 12 -158 10q-88 -2 -133.5 -51t-58.5 -150h267l-7 -42h-263q-2 -36 -2 -56l1 -36h227l-8 -42h-217q10 -110 55.5 -164t138.5 -55q96 -1 169 12l8 -50q-76 -21 -174 -21 q-129 0 -191 68.5t-74 209.5h-90z" />
<glyph unicode="&#x2122;" horiz-adv-x="958" d="M71 656v40h319v-40h-136v-340h-48v340h-135zM443 316l16 360q2 20 19 20h53q14 0 19 -16l88 -236q3 -8 8 -26.5t8 -26.5h13q2 6 5.5 17t6.5 20t6 17l86 235q4 16 20 16h53q18 0 20 -20l15 -360h-44l-16 343h-13l-105 -286q-4 -15 -20 -15h-40q-17 0 -20 15l-105 286h-13 l-16 -343h-44z" />
<glyph unicode="&#x2202;" horiz-adv-x="570" d="M60 223q5 103 58 163.5t148 59.5q111 0 173 -89q4 92 -8 148.5t-49.5 90t-94 45.5t-150.5 12v49q85 1 142 -7t105.5 -30.5t74.5 -63t38 -106t6 -159.5q-5 -82 -17.5 -141t-38.5 -108t-70.5 -74t-108.5 -25q-114 0 -163.5 67t-44.5 168zM123 223q-3 -79 32.5 -128.5 t113.5 -49.5q46 0 78 20.5t49.5 60.5t26 84t13.5 107q-67 75 -159 75q-72 0 -111.5 -45.5t-42.5 -123.5z" />
<glyph unicode="&#x2205;" horiz-adv-x="685" d="M50 341q0 121 86 206.5t207 85.5t206.5 -85.5t85.5 -206.5t-85.5 -207t-206.5 -86t-207 86t-86 207zM221 534l3 -45q60 9 119 9q66 0 66 -46q0 -21 -15 -44.5t-33.5 -42.5t-33.5 -52t-15 -72h54q0 35 14.5 64.5t32.5 46.5t32.5 43.5t14.5 56.5q0 93 -117 93 q-51 0 -122 -11zM313 126q0 -7 7 -7h39q8 0 8 7v37q0 8 -8 8h-39q-7 0 -7 -8v-37z" />
<glyph unicode="&#x220f;" horiz-adv-x="725" d="M41 636v54h643v-54h-111v-742h-63v742h-295v-742h-64v742h-110z" />
<glyph unicode="&#x2211;" horiz-adv-x="587" d="M52 -46l187 399l-175 283v54h458v-54h-386l174 -283l-188 -399h410v-54h-480v54z" />
<glyph unicode="&#x2212;" horiz-adv-x="587" d="M78 271v49h431v-49h-431z" />
<glyph unicode="&#x221a;" horiz-adv-x="560" d="M39 484h55l114 -439h13l255 831h56l-267 -868q-3 -8 -13 -8h-74q-11 0 -13 8z" />
<glyph unicode="&#x221e;" horiz-adv-x="784" d="M66 312q0 65 38.5 98t100.5 33q102 0 188 -103q94 103 192 103q58 0 95.5 -33.5t37.5 -97.5q0 -67 -41 -104.5t-104 -37.5q-95 0 -179 99q-91 -99 -185 -99q-61 0 -102 37.5t-41 104.5zM122 310q0 -45 26 -68.5t72 -23.5q44 0 76 21.5t69 65.5q-36 45 -69.5 67.5 t-82.5 22.5q-91 0 -91 -85zM423 303q61 -85 143 -85q45 0 71 24t26 69q0 84 -88 84q-48 0 -82.5 -24.5t-69.5 -67.5z" />
<glyph unicode="&#x222b;" horiz-adv-x="377" d="M37 -218l5 46h64q43 0 60.5 21t14.5 72l-43 660q-8 133 111 133q51 0 91 -4l-5 -46h-65q-42 0 -59.5 -20.5t-14.5 -71.5l43 -661q4 -67 -23 -100t-90 -33q-61 0 -89 4z" />
<glyph unicode="&#x2248;" horiz-adv-x="589" d="M80 142q-6 59 18.5 85t71.5 24q38 0 123 -30t125 -31q25 -1 36 10.5t11 45.5h45q5 -54 -17.5 -80.5t-74.5 -25.5q-43 1 -127 31t-119 31q-26 0 -37 -12t-11 -48h-44zM80 333q-11 111 90 109q38 0 123 -30t125 -31q26 -1 36.5 10.5t10.5 45.5h45q5 -54 -17.5 -80.5 t-74.5 -25.5q-43 0 -127 30.5t-119 31.5q-26 0 -37 -12.5t-11 -47.5h-44z" />
<glyph unicode="&#x2260;" horiz-adv-x="615" d="M104 162v49h135l99 162h-234v49h264l65 108l24 -12l-58 -96h135v-49h-165l-98 -162h263v-49h-293l-75 -124l-24 12l68 112h-106z" />
<glyph unicode="&#x2264;" horiz-adv-x="575" d="M75 88v48h425v-48h-425zM86 329v52l403 145v-52l-346 -119l346 -106v-52z" />
<glyph unicode="&#x2265;" horiz-adv-x="575" d="M75 88v48h425v-48h-425zM86 197v51l346 107l-346 119v52l403 -145v-52z" />
<glyph unicode="&#x25ca;" horiz-adv-x="582" d="M41 338q-4 8 0 16l243 338q8 11 15 0l242 -338q5 -8 0 -16l-242 -340q-7 -11 -15 0zM95 346l197 -284l195 284l-195 282z" />
<glyph unicode="&#x25fc;" horiz-adv-x="485" d="M0 0v485h485v-485h-485z" />
<glyph unicode="&#xfb00;" horiz-adv-x="692" d="M31 434v45l87 5v77q0 140 136 140q70 0 121 -6l-4 -47h-95q-52 0 -73 -20t-21 -73v-71h257v93q0 69 31.5 104t104.5 35q75 0 130 -6l-4 -47h-104q-52 0 -73 -20.5t-21 -71.5v-87h163v-50h-163v-434h-64v434h-257v-434h-64v434h-87z" />
<glyph unicode="&#xfb03;" horiz-adv-x="901" d="M31 434v45l83 5v77q0 140 135 140q70 0 121 -6l-4 -47h-95q-52 0 -73 -20t-21 -73v-71h257v86q0 73 31.5 109.5t104.5 36.5q67 0 119 -6v-47h-97q-52 0 -73 -22t-21 -77v-80h316v-484h-63v433h-253v-433h-64v433h-257v-433h-63v434h-83zM747 609v58q0 21 21 21h29 q21 0 21 -21v-58q0 -21 -21 -21h-29q-21 0 -21 21z" />
<glyph unicode="&#xfb04;" horiz-adv-x="971" d="M31 434v45l87 5v77q0 140 136 140q70 0 121 -6l-4 -47h-95q-52 0 -73 -20t-21 -73v-71h257v86q0 73 31.5 109.5t104.5 36.5q187 0 257 -10v-592q0 -71 71 -71h51l7 -41q-28 -10 -80 -10t-82.5 29t-30.5 81v561h-171q-52 1 -73 -21t-21 -78v-80h158v-50h-158v-434h-64v434 h-257v-434h-64v434h-87z" />
<glyph unicode="&#xfb06;" horiz-adv-x="851" d="M54 365q0 74 41.5 97t144.5 22h359v147h63v-147h163v-50h-163v-314q0 -37 17 -53.5t54 -16.5h79l7 -48q-50 -10 -101 -10q-119 0 -119 121v321h-351q-35 0 -51.5 -0.5t-36 -4t-26.5 -11t-12.5 -20.5t-5.5 -33q0 -41 17 -57t57 -24l149 -28q59 -12 85.5 -41.5t26.5 -88.5 q0 -85 -45.5 -111t-155.5 -26q-99 0 -185 13l5 47q79 -7 169 -6q89 1 119.5 16.5t30.5 66.5q0 39 -19 55t-60 24l-148 28q-57 11 -82.5 41.5t-25.5 90.5z" />
<glyph horiz-adv-x="813" d="M60 242q0 131 53 186.5t174 55.5h274v147h63v-147h163v-50h-163v-314q0 -37 17 -53.5t54 -16.5h79l7 -48q-50 -10 -101 -10q-119 0 -119 121v321h-264q-96 0 -133.5 -41t-37.5 -151q0 -115 36 -157t130 -42q73 0 126 11l7 -44q-68 -22 -144 -22q-122 0 -171.5 57 t-49.5 197z" />
<glyph horiz-adv-x="1177" d="M31 434v45l87 5v77q0 140 136 140q70 0 121 -6l-4 -47h-95q-52 0 -73 -20t-21 -73v-71h258v93q0 70 31 104.5t104 34.5q75 0 131 -6l-5 -47h-103q-52 0 -73.5 -21t-21.5 -71v-87h154q89 0 121 -83l112 -295q13 -34 19 -56h14q4 8 7.5 17.5t7.5 21.5l6 18l142 377h68 l-204 -518q-29 -74 -73 -119.5t-119 -53.5l-8 41q56 19 88 52.5t54 86.5l11 27h-16q-18 0 -24 17l-146 368q-19 49 -71 49h-143v-434h-63v434h-258v-434h-64v434h-87z" />
<glyph horiz-adv-x="697" d="M31 434v45l87 5v93q0 69 31.5 104t104.5 35q72 0 126 -6l-5 -47h-99q-52 0 -73 -21t-21 -71v-87h263v147h63v-147h164v-50h-164v-314q0 -70 71 -70h79l8 -48q-50 -10 -101 -10q-120 0 -120 121v321h-263v-434h-64v434h-87z" />
<glyph horiz-adv-x="855" d="M31 434v45l87 5v93q0 69 31.5 104t104.5 35q74 0 130 -6l-4 -47h-104q-52 0 -73 -21t-21 -71v-87h154q89 0 120 -83l112 -295q12 -32 20 -56h13q32 85 91 241.5t73 192.5h68l-204 -518q-29 -73 -73.5 -119t-118.5 -54l-8 41q56 19 88.5 53t52.5 86l11 27h-16 q-18 0 -24 17l-145 368q-19 49 -71 49h-143v-434h-64v434h-87z" />
<glyph horiz-adv-x="705" d="M29 434v45l88 5v147h63v-147h273v147h63v-147h164v-50h-164v-314q0 -70 71 -70h79l7 -48q-48 -10 -101 -10q-119 0 -119 121v321h-273v-314q0 -70 71 -70h79l8 -48q-50 -10 -101 -10q-120 0 -120 121v321h-88z" />
<glyph horiz-adv-x="880" d="M29 434v45l88 5v147h63v-147h181q88 0 119 -82l113 -296q13 -34 19 -56h14q31 85 90.5 242.5t72.5 191.5h68l-204 -518q-29 -74 -73 -119.5t-119 -53.5l-8 41q56 19 88 52.5t54 86.5l11 27h-16q-19 0 -25 17l-145 368q-19 49 -71 49h-169v-314q0 -70 71 -70h79l8 -48 q-50 -10 -101 -10q-120 0 -120 121v321h-88z" />
<glyph horiz-adv-x="368" d="M40 694h50q0 -45 25.5 -70t70.5 -25q43 0 68 25t25 70h51q2 -57 -37.5 -94.5t-106.5 -37.5q-69 0 -109 37.5t-37 94.5z" />
</font>
</defs>
</svg>
