<?xml version="1.0" standalone="no"?>
<!DOCTYPE svg PUBLIC "-//W3C//DTD SVG 1.1//EN" "http://www.w3.org/Graphics/SVG/1.1/DTD/svg11.dtd" >
<svg xmlns="http://www.w3.org/2000/svg">
<metadata></metadata>
<defs>
<font id="exo_2.0black_italic" horiz-adv-x="700" >
<font-face units-per-em="1000" ascent="800" descent="-200" />
<missing-glyph horiz-adv-x="210" />
<glyph unicode="fi" horiz-adv-x="722" d="M-94 -176l32 125h49q30 0 43 12t18 44l55 369h-81l16 121l84 5l10 65q11 76 55.5 117.5t134.5 41.5q98 0 163 -15l-31 -125h-59q-30 0 -43 -12t-18 -44l-4 -28h374l-70 -500h-210l52 374h-165l-61 -406q-24 -159 -190 -159q-51 0 -154 15zM512 630l8 51q4 32 18.5 45 t45.5 13h87q32 0 47 -17.5t11 -48.5l-7 -51q-5 -32 -19 -45t-44 -13h-88q-32 0 -47.5 17.5t-11.5 48.5z" />
<glyph unicode="fl" horiz-adv-x="758" d="M-90 -176l31 125h49q30 0 43 12t18 44l51 369h-82l15 121l85 5l9 65q22 159 190 159q284 0 412 -25l-68 -521q-3 -20 2.5 -26t26.5 -6h32l10 -136q-41 -24 -137 -24q-79 0 -119.5 39t-31.5 105l65 457h-119q-53 0 -61 -59l-4 -28h110l-18 -126h-109l-57 -406 q-22 -159 -189 -159q-51 0 -154 15z" />
<glyph unicode=" "  horiz-adv-x="210" />
<glyph unicode="&#x09;" horiz-adv-x="210" />
<glyph unicode="&#xa0;" horiz-adv-x="210" />
<glyph unicode="!" horiz-adv-x="328" d="M38 76l5 41q10 68 81 68h40q36 0 55 -19.5t14 -56.5l-6 -41q-5 -36 -23.5 -52t-56.5 -16h-40q-78 0 -69 76zM73 227l11 234l32 234h208l-32 -234l-55 -234h-164z" />
<glyph unicode="&#x22;" horiz-adv-x="394" d="M71 462l20 228h144l-44 -228h-120zM250 462l20 228h144l-44 -228h-120z" />
<glyph unicode="#" horiz-adv-x="743" d="M6 182l42 122h115l31 100h-114l41 122h111l52 164h157l-52 -164h94l52 164h157l-52 -164h114l-41 -122h-111l-31 -100h110l-42 -122h-107l-57 -182h-157l57 182h-94l-57 -182h-157l57 182h-118zM320 304h94l31 100h-94z" />
<glyph unicode="$" horiz-adv-x="583" d="M0 21l21 151q185 -5 233 -5q40 0 56 6.5t20 22.5q3 13 -3.5 21.5t-25.5 17.5l-121 62q-80 42 -105 92t-17 120q12 104 72 147t185 48l24 87h156l-26 -95q69 -10 120 -28l-20 -138q-118 2 -237 2q-31 0 -44 -6t-16 -22q-5 -23 41 -45l110 -55q80 -41 105.5 -88.5 t16.5 -126.5q-13 -114 -69.5 -157.5t-191.5 -45.5l-23 -94h-155l25 104q-69 8 -131 25z" />
<glyph unicode="%" horiz-adv-x="919" d="M50 506q16 115 58 156.5t139 41.5q102 0 142 -47.5t23 -166.5q-16 -115 -58.5 -156.5t-140.5 -41.5q-101 0 -140.5 47.5t-22.5 166.5zM162 0l477 690h130l-477 -690h-130zM201 490q-8 -60 -5.5 -74.5t22.5 -14.5q21 0 28 17t15 88q6 60 3.5 74.5t-21.5 14.5t-26 -17 t-16 -88zM521 200q16 115 58 156.5t139 41.5q102 0 142 -47.5t23 -166.5q-16 -115 -58.5 -156.5t-140.5 -41.5q-101 0 -140.5 47.5t-22.5 166.5zM672 184q-8 -60 -5.5 -74.5t22.5 -14.5q21 0 28 17t15 88q6 60 3.5 74.5t-21.5 14.5t-26 -17t-16 -88z" />
<glyph unicode="&#x26;" horiz-adv-x="759" d="M16 184q9 74 48 120.5t110 50.5l1 6q-50 4 -75.5 54t-14.5 113q8 45 27 77.5t43 51.5t60.5 29.5t72.5 14t85 3.5q101 0 171 -24l-33 -139q-78 12 -131 12q-44 0 -61 -12t-22 -53q-5 -40 6 -54.5t42 -14.5h166q4 48 5 83h172q0 -42 -3 -83h77l-19 -131h-76 q-10 -53 -32 -101q-90 -201 -370 -201q-142 0 -201.5 49t-47.5 149zM248 213q-4 -35 12.5 -49t55.5 -14q53 0 91.5 20.5t64.5 76.5q7 14 16 41h-162q-35 0 -54 -16t-24 -59z" />
<glyph unicode="'" horiz-adv-x="215" d="M71 462l20 228h144l-44 -228h-120z" />
<glyph unicode="(" horiz-adv-x="373" d="M29 320q29 202 118 315.5t257 155.5l25 -91q-152 -58 -199 -395q-25 -142 -7.5 -244.5t87.5 -135.5l-26 -85q-159 43 -221.5 160.5t-33.5 319.5z" />
<glyph unicode=")" horiz-adv-x="373" d="M-50 -75q152 63 199 396q25 146 8 247.5t-87 131.5l25 86q158 -42 220.5 -160t34.5 -322q-29 -201 -118.5 -314.5t-256.5 -155.5z" />
<glyph unicode="*" horiz-adv-x="457" d="M56 517l44 107l108 -52l-3 -49l-31 -29zM90 388l132 128l7 176h114l-42 -175l95 -129l-94 -66l-47 119l-80 -119zM319 522l11 49l114 52l22 -107l-122 -26z" />
<glyph unicode="+" horiz-adv-x="520" d="M16 226l23 155h158l22 158h153l-22 -158h158l-23 -155h-158l-22 -158h-153l22 158h-158z" />
<glyph unicode="," horiz-adv-x="257" d="M3 68l7 46q6 40 25 55.5t58 15.5h36q40 0 56 -17.5t11 -58.5l-9 -64q-8 -53 -33 -112.5t-57 -97.5l-85 32q16 36 43 137q-32 -1 -44 14.5t-8 49.5z" />
<glyph unicode="-" horiz-adv-x="382" d="M32 196l18 122h291l-18 -122h-291z" />
<glyph unicode="." horiz-adv-x="255" d="M3 76l5 41q10 68 81 68h40q36 0 55 -19.5t14 -56.5l-6 -41q-5 -36 -23.5 -52t-56.5 -16h-40q-78 0 -69 76z" />
<glyph unicode="/" horiz-adv-x="597" d="M-35 -79l501 769h169l-501 -769h-169z" />
<glyph unicode="0" horiz-adv-x="656" d="M42 353q28 201 100 276t231 75q165 0 224 -81t30 -286q-28 -202 -98.5 -276.5t-232.5 -74.5q-159 0 -220.5 82.5t-33.5 284.5zM255 347q-14 -87 -12 -131.5t14.5 -56.5t49.5 -12q38 0 56 13t29 52.5t22 130.5q7 57 9.5 90t1.5 57.5t-9.5 34.5t-20 14t-32.5 4 q-38 0 -55.5 -13t-29 -52.5t-23.5 -130.5z" />
<glyph unicode="1" horiz-adv-x="469" d="M43 619l201 71h209l-97 -690h-216l64 436q7 53 19 89l-162 -35z" />
<glyph unicode="2" horiz-adv-x="590" d="M-11 0l16 112q8 57 35 86l165 141q18 17 41 37.5t34.5 31t25.5 23.5t20.5 20t13.5 16t10 15.5t5 14.5q4 15 -6 20.5t-39 5.5q-131 0 -228 -2l4 160q119 21 244 21q138 0 195.5 -37.5t46.5 -142.5q-6 -54 -31.5 -98t-88.5 -98l-185 -159q43 15 96 15h182l-24 -182h-532z " />
<glyph unicode="3" horiz-adv-x="571" d="M-6 6l14 151q76 -5 183 -5q64 0 91.5 21t33.5 57q7 35 -4 48t-48 13h-145l17 130h141q41 0 55 15.5t16 54.5q2 27 -8.5 37.5t-49.5 10.5h-199v147q116 18 230 18q127 0 182.5 -37t47.5 -132q-11 -153 -137 -167l-1 -4q70 -9 96 -49.5t18 -110.5q-13 -116 -88 -167 t-216 -51q-96 0 -229 20z" />
<glyph unicode="4" horiz-adv-x="653" d="M8 247l230 443h205l-196 -391q-7 -11 -6 -16t12 -5h113l23 170l49 106h165l-39 -276h69l-16 -118l-69 -20h-3l-20 -140h-197l19 140h-267q-51 0 -71.5 33t-0.5 74z" />
<glyph unicode="5" horiz-adv-x="559" d="M-10 6l27 161q111 -10 171 -6q58 3 86.5 20t36.5 60q5 27 -10.5 36.5t-66.5 15.5l-112 17q-32 5 -49 27.5t-11 52.5l59 300h443l-28 -155h-264l-18 -79l83 -10q51 -7 88.5 -24.5t57 -40t31.5 -49.5t12 -53.5t-2 -51.5q-16 -107 -84.5 -169.5t-212.5 -69.5q-72 -4 -237 18 z" />
<glyph unicode="6" horiz-adv-x="604" d="M42 347q17 115 43.5 186t70.5 108t94.5 49t130.5 12q106 0 200 -23l-14 -128h-173q-64 0 -89 -25t-42 -106q57 36 123 36q119 0 161 -51.5t25 -166.5q-20 -136 -85 -193t-208 -57q-82 0 -132 17t-81 58.5t-34 110.5t10 173zM240 289q-7 -45 -9.5 -68.5t-2 -42.5t8 -26 t18.5 -10t33 -3q44 0 58.5 22t24.5 88q6 44 -2.5 54.5t-42.5 10.5q-42 0 -86 -25z" />
<glyph unicode="7" horiz-adv-x="548" d="M54 519l13 171h438q56 0 75.5 -29.5t-2.5 -75.5l-293 -585h-213l222 442q18 38 52 77h-292z" />
<glyph unicode="8" horiz-adv-x="634" d="M16 180q8 73 44.5 122t110.5 54l1 4q-108 18 -89 166q12 96 71.5 137t201.5 41q154 0 210 -47t41 -147q-21 -136 -133 -150l-1 -4q129 -14 104 -192q-9 -67 -35.5 -104t-85.5 -56t-162 -19q-168 0 -228.5 47t-49.5 148zM224 204q-5 -40 8.5 -53.5t61.5 -13.5 q44 0 62 15.5t25 67.5q6 45 -7 58.5t-61 13.5q-45 0 -64 -16t-25 -72zM273 481q-4 -35 6.5 -46t53.5 -11t58 13.5t22 59.5q6 42 -5 54.5t-52 12.5q-43 0 -59.5 -15.5t-23.5 -67.5z" />
<glyph unicode="9" horiz-adv-x="605" d="M18 9l14 131h194q62 0 91 28.5t43 101.5q-56 -38 -135 -38q-49 0 -85 14.5t-54 38t-29 53.5t-10 61.5t4 60.5q10 70 25 111.5t47 73t85 43.5t137 12q67 0 111.5 -10.5t75.5 -35t43 -65.5t14 -102.5t-12 -145.5q-28 -207 -101 -281t-239 -74q-117 0 -219 23zM249 469 q-6 -59 2 -77t40 -18q48 0 86 21q13 108 7 129q-7 22 -42 25h-17q-41 0 -56 -15t-20 -65z" />
<glyph unicode=":" horiz-adv-x="275" d="M-3 77l5 41q10 68 81 68h40q36 0 55 -19.5t14 -56.5l-6 -41q-5 -36 -23.5 -52t-56.5 -16h-40q-78 0 -69 76zM36 353l5 41q10 68 81 68h40q36 0 55 -19.5t14 -56.5l-6 -41q-5 -36 -23.5 -52t-56.5 -16h-40q-78 0 -69 76z" />
<glyph unicode=";" horiz-adv-x="273" d="M12 68l7 46q6 40 25 55.5t58 15.5h36q40 0 56 -17.5t11 -58.5l-9 -64q-8 -53 -33 -112.5t-57 -97.5l-85 32q16 36 43 137q-32 -1 -44 14.5t-8 49.5zM51 353l5 41q10 68 81 68h40q36 0 55 -19.5t14 -56.5l-6 -41q-5 -36 -23.5 -52t-56.5 -16h-40q-78 0 -69 76z" />
<glyph unicode="&#x3c;" horiz-adv-x="503" d="M16 223l22 161l456 158l-22 -168l-268 -69l246 -77l-21 -162z" />
<glyph unicode="=" horiz-adv-x="571" d="M21 117l24 154h478l-24 -154h-478zM52 329l22 154h478l-22 -154h-478z" />
<glyph unicode="&#x3e;" horiz-adv-x="500" d="M12 64l23 167l265 79l-242 79l19 152l410 -157l-22 -161z" />
<glyph unicode="?" horiz-adv-x="540" d="M75 546v139q8 2 29.5 6t29 5t25.5 4.5t28.5 4.5t29 2.5t34.5 2.5t38.5 1.5t47.5 0.5q120 0 173.5 -40.5t42.5 -122.5q-6 -39 -26.5 -71.5t-48.5 -57t-57 -49.5t-55.5 -62t-39.5 -81h-164q4 53 27 102.5t47.5 79t50.5 59t32 42.5q9 23 2.5 29t-34.5 6h-212zM131 76l6 41 q9 68 80 68h40q37 0 56 -19.5t14 -56.5l-6 -41q-5 -36 -23.5 -52t-55.5 -16h-41q-78 0 -70 76z" />
<glyph unicode="@" horiz-adv-x="822" d="M29 231q12 72 33 118t54.5 68.5t69 30t88.5 7.5q100 0 266 -28l-44 -271q-6 -35 21 -35q40 0 52 27t32 141q5 25 7 39q6 37 9.5 61t2 45.5t-4 33.5t-15.5 22t-23.5 14.5t-38 7t-49 3t-64.5 0.5h-347l9 130q149 8 340 10q89 1 146 -3t104.5 -17.5t71 -35.5t37.5 -61 t13 -90.5t-12 -127.5q-8 -53 -14 -86.5t-15 -71t-19.5 -59t-26 -44t-35.5 -34.5t-47.5 -22t-61.5 -13.5t-78 -3.5q-133 0 -170 91q-60 -89 -150 -89q-86 0 -123.5 60.5t-17.5 182.5zM214 224q-8 -61 -2.5 -73t30.5 -12q38 0 75 66l21 123h-44q-22 0 -33.5 -4.5t-24.5 -28 t-22 -71.5z" />
<glyph unicode="A" horiz-adv-x="678" d="M-49 0l266 638q20 52 76 52h196q26 0 46 -17.5t23 -42.5l89 -630h-217l-12 146h-188l-54 -146h-225zM289 304h117l-12 149q-3 26 -1 77h-28q-7 -41 -20 -75z" />
<glyph unicode="B" horiz-adv-x="657" d="M11 0l97 690q98 8 283 8q142 0 197 -40.5t41 -147.5q-10 -74 -41 -108.5t-101 -40.5l-1 -6q153 -13 128 -191q-14 -100 -73 -136t-193 -36q-225 0 -337 8zM243 142h63q48 0 66 15.5t25 66.5q6 42 -4 55t-48 13h-81zM282 423h67q38 0 52 13.5t21 58.5q5 30 -3.5 41.5 t-34.5 11.5h-84z" />
<glyph unicode="C" horiz-adv-x="603" d="M41 353q15 106 38.5 172t65.5 106.5t99.5 55.5t146.5 15q128 0 227 -28l-25 -157q-146 2 -213 2q-38 0 -57 -11.5t-32 -50t-24 -120.5q-15 -102 -6 -134t63 -32q136 0 221 8l8 -159q-103 -32 -239 -32q-175 0 -238 81.5t-35 283.5z" />
<glyph unicode="D" d="M11 0l97 690q128 10 281 10q117 0 183.5 -31t94 -111.5t7.5 -220.5q-15 -106 -38.5 -171t-65.5 -105.5t-100 -55.5t-149 -15q-157 0 -310 10zM249 148l69 -1q55 0 83.5 41.5t44.5 164.5q16 116 4.5 153t-68.5 37h-78z" />
<glyph unicode="E" horiz-adv-x="587" d="M32 184l50 357q10 71 56 112t121 41q248 0 348 -14l-24 -152h-240q-26 0 -37 -9t-14 -31l-9 -63h249l-18 -144h-251l-11 -80q-6 -39 37 -39h240l-4 -154q-89 -12 -338 -12q-84 0 -125 52t-30 136z" />
<glyph unicode="F" horiz-adv-x="567" d="M9 0l76 541q10 71 57.5 112t118.5 41q243 0 342 -15l-24 -151h-230q-27 0 -39 -9t-15 -31l-11 -77h241l-18 -144h-243l-37 -267h-218z" />
<glyph unicode="G" horiz-adv-x="670" d="M42 353q15 107 42 175t74.5 107.5t108.5 54t153 14.5q134 0 231 -30l-24 -155q-150 2 -222 2q-65 0 -92.5 -38t-44.5 -146q-16 -102 -5 -134t61 -32q47 0 90 31l27 195h207l-56 -397h-159l-8 80q-92 -94 -202 -94q-233 0 -181 367z" />
<glyph unicode="H" horiz-adv-x="705" d="M12 0l97 690h217l-35 -247h165l35 247h217l-97 -690h-217l41 289h-165l-41 -289h-217z" />
<glyph unicode="I" horiz-adv-x="322" d="M12 0l97 690h216l-97 -690h-216z" />
<glyph unicode="J" horiz-adv-x="395" d="M-24 14l34 134h37q59 0 64 39l73 503h216l-78 -567q-10 -66 -58.5 -101.5t-125.5 -35.5q-42 0 -91 7.5t-71 20.5z" />
<glyph unicode="K" horiz-adv-x="668" d="M12 0l97 690h218l-27 -191q-5 -38 -16 -71h33l168 262h240l-193 -288q-27 -42 -72 -59l-1 -4q14 -6 30 -26.5t25 -43.5l120 -269h-234l-107 288h-31q4 -32 -1 -67l-31 -221h-218z" />
<glyph unicode="L" horiz-adv-x="552" d="M31 157l74 533h218l-71 -478q-2 -23 5.5 -31.5t30.5 -8.5h228l-4 -163q-100 -13 -331 -13q-75 0 -117.5 45.5t-32.5 115.5z" />
<glyph unicode="M" horiz-adv-x="947" d="M0 0l111 619q7 37 25 54t54 17h184q34 0 54 -19t21 -52l12 -274q3 -46 -2 -103h10q8 38 25 101l84 284q17 63 86 63h193q37 0 56 -21t15 -58l-62 -611h-195l54 528h-14l-116 -356q-18 -62 -87 -62h-110q-35 0 -55.5 18.5t-21.5 51.5l-19 348h-16l-91 -528h-195z" />
<glyph unicode="N" horiz-adv-x="730" d="M11 0l87 619q5 37 24 54t55 17h72q16 0 27.5 -4t20.5 -15.5t14 -19.5t14 -28l116 -225q26 -54 42 -119h8q-5 60 2 117l42 294h199l-87 -619q-5 -37 -24 -54t-55 -17h-72q-31 0 -45.5 15t-31.5 52l-118 237q-19 37 -35 114h-7q2 -72 -6 -128l-43 -290h-199z" />
<glyph unicode="O" d="M41 353q15 106 40 173.5t68.5 107t99.5 55t140 15.5q71 0 121 -10.5t89 -36t57.5 -67.5t25.5 -104.5t-7 -148.5q-14 -107 -40 -175t-70 -107t-101 -54t-142 -15q-123 0 -188.5 32.5t-89 112.5t-3.5 222zM268 337q-18 -119 -6.5 -154.5t65.5 -35.5q56 0 78 38.5t42 167.5 q17 118 5.5 154t-65.5 36t-76.5 -38.5t-42.5 -167.5z" />
<glyph unicode="P" horiz-adv-x="638" d="M11 0l97 690q100 10 278 10q161 0 219 -52t40 -191q-18 -131 -76.5 -178t-196.5 -47q-48 0 -111 7l-34 -239h-216zM281 385h72q41 0 55.5 15t22.5 73q6 43 -4 58.5t-46 15.5h-77z" />
<glyph unicode="Q" d="M41 353q15 106 40 173.5t68.5 107t99.5 55t140 15.5q71 0 121 -10.5t89 -36t57.5 -67.5t25.5 -104.5t-7 -148.5q-14 -107 -40 -175t-70 -107t-101 -54t-142 -15q-123 0 -188.5 32.5t-89 112.5t-3.5 222zM181 -130l60 103q107 -42 319 -74l-78 -175q-189 56 -301 146z M268 337q-18 -119 -6.5 -154.5t65.5 -35.5q56 0 78 38.5t42 167.5q17 118 5.5 154t-65.5 36t-76.5 -38.5t-42.5 -167.5z" />
<glyph unicode="R" horiz-adv-x="669" d="M11 0l97 690q100 10 279 10q151 0 218 -49.5t51 -168.5q-9 -67 -43.5 -107.5t-112.5 -48.5l-1 -7q82 -12 91 -111l26 -208h-224l-18 209q-1 28 -9 35.5t-31 7.5h-76l-35 -252h-212zM280 405h75q44 0 61 15t24 64q5 36 -6.5 49.5t-48.5 13.5h-85z" />
<glyph unicode="S" horiz-adv-x="602" d="M4 21l20 151q193 -5 238 -5t63 6.5t22 22.5q3 12 -4 20t-29 19l-126 62q-82 40 -108.5 91t-18.5 121q13 111 81.5 153t214.5 42q140 0 247 -36l-19 -138q-122 2 -242 2q-35 0 -49.5 -6t-18.5 -22q-2 -12 6.5 -21.5t37.5 -23.5l116 -55q82 -39 108.5 -87t17.5 -128 q-13 -118 -75 -160.5t-213 -42.5q-133 0 -269 35z" />
<glyph unicode="T" horiz-adv-x="618" d="M43 528l23 162h598l-23 -162h-191l-74 -528h-217l74 528h-190z" />
<glyph unicode="U" d="M45 289l58 401h216l-58 -409q-13 -79 -0.5 -106.5t66.5 -27.5q55 0 75 27.5t34 114.5l57 401h217l-59 -409q-23 -166 -94 -230.5t-235 -64.5q-161 0 -229.5 71t-47.5 232z" />
<glyph unicode="V" horiz-adv-x="665" d="M54 690h218l24 -441q2 -31 0 -90h26q7 40 23 86l150 445h228l-257 -636q-21 -54 -76 -54h-189q-27 0 -46.5 17.5t-22.5 44.5z" />
<glyph unicode="W" horiz-adv-x="995" d="M74 62v628h213l-27 -427q-1 -20 -4 -60.5t-4 -54.5h17q13 70 28 124l96 358q16 60 77 60h151q29 0 48 -19.5t19 -48.5v-360q0 -42 -2 -114h18q6 59 21 121l92 421h213l-174 -636q-14 -54 -76 -54h-182q-28 0 -49 18t-20 44l7 369q1 24 5 105h-18q-7 -50 -20 -102 l-99 -380q-14 -54 -76 -54h-187q-28 0 -48.5 18t-18.5 44z" />
<glyph unicode="X" horiz-adv-x="672" d="M-46 0l218 352l-104 338h209l71 -268l151 268h221l-204 -338l117 -352h-213l-75 284l-161 -284h-230z" />
<glyph unicode="Y" horiz-adv-x="649" d="M46 690h216l53 -221q9 -40 7 -101h15q5 48 30 99l117 223h231l-295 -481l-29 -209h-218l31 221z" />
<glyph unicode="Z" horiz-adv-x="598" d="M-11 0l20 152l334 386h-268l21 152h519l-21 -152l-333 -386h288l-21 -152h-539z" />
<glyph unicode="[" horiz-adv-x="364" d="M12 -60l103 731q7 45 35.5 71t73.5 26h183l-18 -128h-54q-16 0 -23 -5.5t-9 -20.5l-89 -628q-3 -23 19 -23h61l-18 -128h-171q-107 0 -93 105z" />
<glyph unicode="\" horiz-adv-x="581" d="M70 690h156l290 -769h-156z" />
<glyph unicode="]" horiz-adv-x="364" d="M-39 -165l18 128h54q15 0 22 5.5t9 20.5l89 628q3 23 -18 23h-61l18 128h171q45 0 71.5 -30t20.5 -75l-103 -731q-6 -45 -34.5 -71t-73.5 -26h-183z" />
<glyph unicode="^" horiz-adv-x="497" d="M52 414l172 239h152l113 -239l-83 -42l-111 157h-8l-157 -157z" />
<glyph unicode="_" horiz-adv-x="533" d="M-17 -122l17 122h451l-17 -122h-451z" />
<glyph unicode="`" horiz-adv-x="392" d="M87 617l80 130l235 -150l-67 -86z" />
<glyph unicode="a" horiz-adv-x="613" d="M25 264q9 58 24 100.5t38.5 69.5t47.5 43.5t62.5 24.5t71.5 10t85 2t133 -10.5t110 -21.5l-68 -482h-162l-2 97q-67 -100 -195 -109q-70 -5 -107.5 28.5t-43.5 96.5t6 151zM239 270q-14 -95 -6 -111q5 -12 27 -10q42 3 93 77l21 151h-46q-37 0 -58 -20.5t-31 -86.5z" />
<glyph unicode="b" horiz-adv-x="616" d="M6 30l94 670h211l-16 -123q-8 -73 -33 -136q78 73 177 73q184 0 144 -266q-7 -44 -17 -78t-31.5 -69.5t-52 -59t-80 -38.5t-112.5 -15q-69 0 -157 11t-127 31zM232 131q29 -3 48 -2q40 2 59 29.5t31 104.5q8 53 3.5 70.5t-28.5 17.5q-37 0 -85 -30z" />
<glyph unicode="c" horiz-adv-x="536" d="M21 259q19 137 81.5 196t200.5 59t229 -39l-28 -128h-176q-44 0 -62 -20t-26 -74q-9 -61 3.5 -80t58.5 -19q105 0 168 7l15 -133q-84 -40 -220 -40q-137 0 -200.5 64.5t-43.5 206.5z" />
<glyph unicode="d" horiz-adv-x="617" d="M24 264q18 141 72 195.5t140 54.5q94 0 160 -13q0 60 7 104l18 95h210l-99 -700h-166l-4 80q-96 -92 -187 -92q-185 0 -151 276zM238 270q-10 -54 -6 -82t32 -26q38 2 84 35l26 190h-47q-45 0 -62 -21.5t-27 -95.5z" />
<glyph unicode="e" horiz-adv-x="590" d="M21 254q8 79 31 131t63.5 79.5t90 38.5t120.5 11q150 0 206 -46t42 -140q-9 -65 -57.5 -90.5t-155.5 -33.5l-125 -9q1 -28 16.5 -37t54.5 -9q109 0 205 11l14 -128q-95 -44 -237 -44q-84 0 -140 17t-86 52t-39.5 82.5t-2.5 114.5zM249 297l57 6q36 3 50.5 11.5t17.5 34.5 q2 17 -7.5 24t-38.5 6q-37 -1 -53 -17t-26 -65z" />
<glyph unicode="f" horiz-adv-x="423" d="M-95 -176l32 125h49q31 0 45 12t19 44l53 369h-81l15 121l85 5l9 65q24 159 190 159q111 0 185 -15l-32 -125h-80q-30 0 -43 -12t-18 -44l-4 -28h117l-17 -126h-119l-60 -406q-24 -159 -190 -159q-50 0 -155 15z" />
<glyph unicode="g" horiz-adv-x="618" d="M5 -169l10 113h126q154 0 195 64q13 19 22.5 54t16.5 49q-68 -107 -202 -113q-103 -5 -135.5 64t-11.5 202q8 50 19.5 88.5t25 65t33.5 44.5t38 28t46.5 15.5t51.5 7t59 1.5q93 0 178 -10t125 -22l-55 -392q-10 -76 -33.5 -131t-52.5 -86t-70.5 -49t-78 -23t-84.5 -5 q-148 0 -223 35zM240 270q-7 -39 -9 -63t1 -38t10 -18.5t21 -1.5q47 9 95 78l21 150h-48q-47 0 -63.5 -21t-27.5 -86z" />
<glyph unicode="h" horiz-adv-x="619" d="M3 0l98 700h210l-21 -153q-8 -59 -29 -119q99 86 190 86q76 0 112 -37.5t26 -106.5l-52 -370h-210l44 311q3 16 -1 21t-18 5q-45 0 -98 -41l-41 -296h-210z" />
<glyph unicode="i" horiz-adv-x="304" d="M7 0l69 500h209l-69 -500h-209zM93 620l7 51q6 58 69 58h81q67 0 60 -66l-7 -51q-7 -58 -69 -58h-82q-66 0 -59 66z" />
<glyph unicode="j" horiz-adv-x="306" d="M-73 -95q77 72 89 157l63 438h210l-65 -446q-10 -80 -58.5 -148t-123.5 -98zM92 620l7 51q7 58 72 58h79q68 0 59 -66l-7 -51q-7 -58 -71 -58h-79q-67 0 -60 66z" />
<glyph unicode="k" horiz-adv-x="609" d="M3 0l98 700h210l-38 -272q-10 -61 -43 -122q59 32 102 84.5t56 109.5h216q-34 -152 -171 -242q37 -26 56 -69l91 -189h-215l-85 185q-22 -9 -45 -15q0 -13 -2 -31l-20 -139h-210z" />
<glyph unicode="l" horiz-adv-x="360" d="M21 130l81 570h209l-75 -522q-4 -19 4 -25.5t35 -6.5h40l12 -136q-43 -24 -143 -24q-84 0 -127.5 39t-35.5 105z" />
<glyph unicode="m" horiz-adv-x="884" d="M3 0l70 500h163l6 -71q88 85 182 85q104 0 127 -72q81 72 170 72q74 0 109 -38t25 -106l-52 -370h-208l43 311q4 26 -19 26q-29 0 -72 -30l-43 -307h-201l43 311q5 26 -19 26q-30 0 -73 -28l-42 -309h-209z" />
<glyph unicode="n" horiz-adv-x="619" d="M3 0l69 500h164l5 -88q48 48 106 75t113 27q65 0 102.5 -37.5t27.5 -106.5l-52 -370h-211l43 302q3 21 -2.5 29t-24.5 6q-41 -4 -88 -40l-42 -297h-210z" />
<glyph unicode="o" horiz-adv-x="615" d="M21 257q20 143 87.5 200t218.5 57q153 0 214.5 -63t40.5 -210q-20 -141 -87.5 -197t-216.5 -56q-152 0 -215 62.5t-42 206.5zM240 241q-10 -69 -1.5 -90t47.5 -21q38 0 52.5 23.5t26.5 103.5q11 71 3 93t-45 22q-40 0 -55.5 -24.5t-27.5 -106.5z" />
<glyph unicode="p" horiz-adv-x="615" d="M-22 -180l94 680h167v-88q96 100 201 100q86 0 121.5 -70t18.5 -206q-10 -75 -30.5 -126t-52 -77t-67 -36.5t-83.5 -10.5q-67 0 -138 13q0 -47 -7 -93l-14 -86h-210zM231 113h46q48 0 62.5 21t25.5 96q7 50 7 75t-6.5 35.5t-22.5 10.5q-42 0 -89 -47z" />
<glyph unicode="q" horiz-adv-x="616" d="M22 254q6 42 13.5 72t21 62t34.5 53t50.5 38.5t72.5 26t98 8.5q72 0 160 -11t127 -31l-93 -652h-210l14 105q9 71 25 127q-80 -64 -153 -64q-101 0 -140.5 63.5t-19.5 202.5zM236 259q-9 -51 -4 -74t34 -23q28 0 81 35l26 174q-20 2 -49 2q-41 -3 -59.5 -25t-28.5 -89z " />
<glyph unicode="r" horiz-adv-x="452" d="M3 0l70 500h164l7 -68q99 82 199 82h36l-43 -192h-47q-51 0 -133 -13l-42 -309h-211z" />
<glyph unicode="s" horiz-adv-x="548" d="M-3 11l17 121h168q76 0 99 3t25 13q1 7 -9 12t-45 15l-105 30q-131 37 -111 171q10 70 63.5 104t178.5 34q148 0 252 -23l-17 -121h-191q-56 0 -71 -1.5t-16 -8.5q-2 -8 8.5 -13.5t40.5 -13.5l109 -29q129 -35 114 -158q-11 -93 -71.5 -125t-182.5 -32q-133 0 -256 22z " />
<glyph unicode="t" horiz-adv-x="439" d="M23 374l15 121l90 5l19 131h207l-19 -131h120l-17 -126h-121l-28 -196q-3 -20 2.5 -26t28.5 -6h59l11 -136q-61 -24 -167 -24q-77 0 -118.5 39t-31.5 105l36 244h-86z" />
<glyph unicode="u" horiz-adv-x="613" d="M18 130l51 370h211l-45 -311q-4 -27 23 -27q39 0 89 37l43 301h208l-69 -500h-164l-4 85q-102 -99 -204 -99q-78 0 -113.5 37.5t-25.5 106.5z" />
<glyph unicode="v" horiz-adv-x="607" d="M32 500h227v-374h9q20 0 29 11.5t26 52.5q19 48 36 128q14 69 25 182h229q-15 -110 -49 -214q-33 -102 -77 -182q-36 -64 -77.5 -84t-117.5 -20h-148q-24 0 -40.5 15t-18.5 38z" />
<glyph unicode="w" horiz-adv-x="925" d="M41 501h213l-8 -371h6q15 0 24 15.5t18 50.5t15.5 72t14.5 94.5t12 85.5q3 20 18 36t44 16h172q24 0 40.5 -15t19.5 -38v-317h7q4 0 7.5 1t6.5 3.5t5 5t4 8t3.5 9t3 11t2.5 12l3 13.5t3 15q6 26 20 114q12 79 19 178h208q-27 -236 -83 -372q-15 -36 -30.5 -58.5 t-40.5 -39t-60.5 -23.5t-88.5 -7h-77q-25 0 -42 16.5t-15 39.5v320h-12q-4 -36 -18.5 -117t-23.5 -117q-11 -40 -26.5 -67t-31.5 -42t-42.5 -22.5t-47 -9t-57.5 -1.5h-110q-24 0 -40.5 16t-18.5 40z" />
<glyph unicode="x" horiz-adv-x="604" d="M-45 0l181 255l-97 245h194l65 -175l119 175h210l-169 -245l106 -255h-197l-71 186l-125 -186h-216z" />
<glyph unicode="y" horiz-adv-x="622" d="M30 500h230l8 -358q0 -16 16 -16h24q63 140 96 374h225q-17 -123 -76 -277t-98 -215q-145 -227 -389 -214l-13 113q13 5 39.5 13.5t40 13.5t33.5 14t36 22t31 30h-79q-24 0 -41.5 15t-20.5 38z" />
<glyph unicode="z" horiz-adv-x="538" d="M-10 0l17 135h-1l258 230h-217l18 135h466l-17 -135h1l-257 -230h228l-18 -135h-478z" />
<glyph unicode="{" horiz-adv-x="366" d="M19 264l16 130q19 6 25.5 8.5t16 9.5t13 18.5t6.5 30.5l23 165q11 83 79 122.5t198 18.5l-16 -127q-35 0 -48.5 -7.5t-16.5 -34.5l-18 -125q-8 -69 -36 -103t-100 -44q115 -33 99 -147l-24 -174q-3 -21 9 -31.5t45 -10.5l-6 -129q-138 -21 -200.5 23.5t-50.5 127.5 l31 222q1 8 1 14.5t-0.5 11t-3.5 8t-5 6t-7 5l-8 4t-10.5 4t-11.5 4.5z" />
<glyph unicode="|" horiz-adv-x="276" d="M0 -169l134 950h146l-134 -950h-146z" />
<glyph unicode="}" horiz-adv-x="365" d="M-32 -164l16 127q25 0 35.5 1.5t18.5 10t10 27.5l26 185q9 58 38.5 91.5t101.5 51.5q-62 9 -83.5 46.5t-11.5 104.5l19 125q3 20 -9 27t-47 7l6 129q138 21 200.5 -23.5t51.5 -127.5l-24 -165q-2 -11 -2.5 -19t1.5 -14t2.5 -9t6.5 -6.5t8 -4.5t11.5 -4t13.5 -4l-17 -130 q-19 -7 -25.5 -10t-17 -10t-15 -17t-6.5 -26l-31 -222q-12 -83 -80 -122.5t-197 -18.5z" />
<glyph unicode="~" horiz-adv-x="500" d="M35 211q-4 84 24 124.5t72 40.5q21 0 63 -9t89 -22t49 -13q25 -5 34.5 5.5t13.5 37.5l84 -8q3 -82 -22.5 -123.5t-72.5 -41.5q-23 0 -65.5 9.5t-86 21t-51.5 13.5q-24 5 -33.5 -5.5t-13.5 -37.5z" />
<glyph unicode="&#xa1;" horiz-adv-x="312" d="M-13 -175l32 234l55 234h164l-11 -234l-32 -234h-208zM76 411l5 41q10 68 81 68h40q36 0 55 -19.5t14 -56.5l-6 -41q-5 -36 -23.5 -52t-56.5 -16h-40q-78 0 -69 76z" />
<glyph unicode="&#xa2;" horiz-adv-x="538" d="M36 356q18 133 76 192t182 63l21 79h156l-24 -91q53 -10 92 -27l-29 -128h-173q-41 0 -57.5 -20t-24.5 -74q-9 -61 3 -80t54 -19q103 0 165 7l14 -133q-68 -34 -179 -39l-23 -86h-155l26 100q-152 49 -124 256z" />
<glyph unicode="&#xa3;" horiz-adv-x="596" d="M-1 0l18 169q95 43 100 139v6h-75l12 100h69l5 99q9 112 61.5 151t172.5 39q107 0 236 -10l-19 -155h-186q-30 0 -42.5 -9t-13.5 -34l-3 -81h147l-19 -100h-131l-1 -14q-1 -40 -16.5 -69.5t-31.5 -43t-46 -33.5q35 13 82 13h232l-22 -167h-529z" />
<glyph unicode="&#xa4;" horiz-adv-x="570" d="M21 200l72 65q-14 34 -12 69.5t12 65.5t28 57l-62 68l93 83l63 -70q44 23 94 23q57 0 101 -26l73 67l83 -91l-77 -70q17 -53 9 -103t-35 -89l63 -68l-92 -83l-63 69q-48 -24 -97 -24q-57 0 -103 27l-67 -61zM200 355q-4 -28 6.5 -50t30 -33t44.5 -11q40 0 68 24.5 t34 65.5q6 42 -17.5 68t-62.5 26q-44 0 -70.5 -24t-32.5 -66z" />
<glyph unicode="&#xa5;" horiz-adv-x="705" d="M74 118l13 110h507l-15 -110h-145l-16 -118h-218l17 118h-143zM74 690h216l53 -221q8 -40 6 -101h15q5 48 30 99l116 223h231l-197 -322h69l-15 -110h-505l13 110h76z" />
<glyph unicode="&#xa6;" horiz-adv-x="279" d="M2 -169l56 400h146l-56 -400h-146zM79 381l57 400h146l-57 -400h-146z" />
<glyph unicode="&#xa7;" horiz-adv-x="540" d="M-15 -184l22 141q18 0 63 -1t71 -1q50 0 70.5 5.5t24.5 24.5q4 21 -24 37l-94 55q-82 43 -94 105t37 152l145 -8q-7 -53 2 -70t54 -46l122 -76q1 -1 10.5 -7t13 -8.5t12.5 -10t13.5 -14t11.5 -17t10 -21.5t6 -25.5t2.5 -32t-3.5 -37.5q-13 -92 -70 -125t-173 -33 q-137 0 -232 13zM68 545q6 49 28 82t58 49t73 22t87 6q126 0 230 -12l-22 -142q-29 2 -156 1q-40 0 -56 -6t-17 -23q-2 -23 35 -44l83 -48q82 -43 94 -105t-37 -152l-145 8q7 52 -2 69t-54 47l-122 82q-27 20 -42.5 36.5t-28 51t-6.5 78.5z" />
<glyph unicode="&#xa8;" horiz-adv-x="436" d="M101 612l11 73q4 35 39 35h77q36 0 30 -33l-11 -76q-4 -32 -35 -32h-81q-36 0 -30 33zM290 612l11 74q5 34 36 34h80q36 0 30 -33l-11 -75q-2 -18 -10 -25.5t-25 -7.5h-81q-36 0 -30 33z" />
<glyph unicode="&#xa9;" horiz-adv-x="787" d="M38 353q18 163 124 257t268 94q168 0 259.5 -100t74.5 -267q-17 -161 -121 -256t-269 -95q-167 0 -260.5 97.5t-75.5 269.5zM138 337q-10 -120 49 -189t182 -69q124 0 203.5 71.5t91.5 202.5q11 121 -49 189.5t-182 68.5q-126 0 -205 -72.5t-90 -201.5zM213 354 q13 106 61.5 146.5t157.5 40.5q70 0 132 -17l-15 -108h-132q-24 0 -34 -13t-14 -55q-5 -45 1 -57.5t30 -14.5q54 -3 126 3l9 -109q-61 -20 -136 -20q-115 0 -157.5 46t-28.5 158z" />
<glyph unicode="&#xaa;" horiz-adv-x="449" d="M52 454q7 46 21.5 76.5t32 48t47.5 26.5t56.5 11t71.5 2q112 1 164 -21l-45 -317h-116l-2 64q-40 -66 -123 -72q-76 -5 -98.5 41.5t-8.5 140.5zM208 457q-8 -47 -6 -61.5t18 -13.5q25 2 53 45l15 98h-27q-20 0 -33 -13.5t-20 -54.5z" />
<glyph unicode="&#xab;" horiz-adv-x="554" d="M18 227l3 45l162 198l113 -70l-88 -149l62 -154l-110 -72zM252 227l3 45l162 198l113 -70l-88 -149l62 -154l-110 -72z" />
<glyph unicode="&#xac;" horiz-adv-x="569" d="M31 233l23 154h480l-36 -249h-166l14 95h-315z" />
<glyph unicode="&#xad;" horiz-adv-x="384" d="M32 196l18 122h291l-18 -122h-291z" />
<glyph unicode="&#xae;" horiz-adv-x="494" d="M52 490q15 97 81.5 155.5t169.5 58.5q93 0 149 -65t42 -165q-15 -97 -81.5 -156t-168.5 -59q-94 0 -150 65t-42 166zM107 474q-9 -73 32.5 -118.5t108.5 -45.5q81 0 131 48.5t60 131.5q9 72 -32 117.5t-108 45.5q-81 0 -131 -48t-61 -131zM161 383l29 208q30 3 91 3 q60 0 86 -16t20 -51q-5 -40 -50 -45l-1 -2q30 -2 34 -38l6 -59h-89v61q0 10 -10 10h-21l-10 -71h-85zM263 505h19q18 0 20 14q3 16 -12 16h-23z" />
<glyph unicode="&#xaf;" horiz-adv-x="400" d="M88 590l17 123h320l-17 -123h-320z" />
<glyph unicode="&#xb0;" horiz-adv-x="332" d="M60 570q8 58 47 93t103 35q61 0 103 -40.5t34 -103.5q-8 -59 -48.5 -94t-104.5 -35q-63 0 -103 40.5t-31 104.5zM156 564q-3 -24 9 -37.5t35 -13.5q46 0 51 47q2 22 -10 36t-35 14q-45 0 -50 -46z" />
<glyph unicode="&#xb1;" horiz-adv-x="555" d="M5 19l23 155h468l-22 -155h-469zM47 311l22 154h158l15 108h153l-16 -108h159l-23 -154h-158l-15 -107h-152l15 107h-158z" />
<glyph unicode="&#xb2;" horiz-adv-x="431" d="M47 360l12 83q7 47 24 63l87 63q78 53 92 66q9 8 4.5 14.5t-16.5 6.5q-82 0 -147 2v112q68 11 156 11q46 0 77.5 -4.5t59 -17t38 -38.5t4.5 -66q-8 -49 -73 -92l-112 -76q28 8 57 7l113 -3l-18 -131h-358z" />
<glyph unicode="&#xb3;" horiz-adv-x="407" d="M47 364l8 112q37 -1 138 -1q51 0 55 31q1 11 -3.5 15t-18.5 4h-102l13 94h100q15 0 21.5 6t6.5 21q0 14 -25 14q-72 0 -135 2l-2 110q77 11 157 11q97 0 132 -23.5t28 -81.5q-11 -89 -94 -97l-1 -3q95 -11 81 -111q-7 -56 -49.5 -86t-141.5 -30q-68 0 -168 13z" />
<glyph unicode="&#xb4;" horiz-adv-x="392" d="M90 597l247 156l66 -146l-266 -96z" />
<glyph unicode="&#xb6;" horiz-adv-x="595" d="M40 458q20 135 97 189.5t245 54.5q113 0 194 -17q-18 -135 -54.5 -391.5t-41.5 -293.5h-125l81 578l-32 1l-111 -789h-125l58 412q-110 13 -156 81t-30 175z" />
<glyph unicode="&#xb7;" horiz-adv-x="262" d="M29 242l5 41q10 68 81 68h40q36 0 55 -19.5t14 -56.5l-6 -41q-5 -36 -23.5 -52t-56.5 -16h-40q-78 0 -69 76z" />
<glyph unicode="&#xb8;" horiz-adv-x="263" d="M-50 -244l21 77q89 0 99 46q0 3 0.5 5.5t-2 4.5t-6 3t-11 1.5t-18 1t-25.5 0.5l18 72q81 15 131.5 0t40.5 -73q-14 -80 -83 -115.5t-165 -22.5z" />
<glyph unicode="&#xb9;" horiz-adv-x="321" d="M67 735l115 39h160l-59 -414h-159l34 235q6 38 14 60l-99 -18z" />
<glyph unicode="&#xba;" horiz-adv-x="434" d="M48 452q13 94 59.5 132.5t143.5 38.5q106 0 148 -43.5t28 -143.5q-13 -94 -57 -130.5t-144 -36.5q-105 0 -148 42.5t-30 140.5zM204 436q-6 -28 -1.5 -47t24.5 -19t28.5 16.5t15.5 65.5q5 46 0.5 57.5t-22.5 11.5q-20 0 -29 -17t-16 -68z" />
<glyph unicode="&#xbb;" horiz-adv-x="555" d="M12 97l88 149l-62 154l110 72l142 -202l-3 -45l-162 -198zM246 97l88 149l-62 154l110 72l142 -202l-3 -45l-162 -198z" />
<glyph unicode="&#xbc;" horiz-adv-x="957" d="M70 651l107 39h160l-59 -414h-159l33 235q6 38 14 60l-90 -18zM128 0l483 690h133l-483 -690h-133zM502 156l133 258h143l-108 -224q-6 -14 7 -14h52l12 86l34 69h117l-22 -155h45l-11 -86l-47 -13h-1l-11 -77h-140l11 77h-170q-34 0 -46.5 27t2.5 52z" />
<glyph unicode="&#xbd;" horiz-adv-x="945" d="M70 651l106 39h161l-59 -414h-160l33 235q6 38 14 60l-90 -18zM127 0l483 690h132l-482 -690h-133zM520 0l12 83q7 46 25 63l83 63q77 54 89 66q9 8 6 14.5t-14 6.5q-81 0 -144 2v112q66 11 152 11q96 0 143 -25.5t34 -100.5q-9 -49 -70 -92l-110 -76q29 8 56 7l110 -3 l-18 -131h-354z" />
<glyph unicode="&#xbe;" horiz-adv-x="1006" d="M35 280l8 112q36 -1 135 -1q48 0 52 31q2 11 -2 15t-17 4l-100 2l13 92h98q14 0 19.5 6t5.5 21q0 14 -21 14q-71 0 -134 2l-2 110q77 11 155 11q96 0 131 -23.5t27 -81.5q-11 -89 -94 -97l-1 -3q92 -11 80 -111q-7 -56 -48.5 -86t-138.5 -30q-69 0 -166 13zM199 0 l481 690h133l-482 -690h-132zM556 158l133 258h143l-109 -224q-6 -14 7 -14h53l12 84l33 71h117l-22 -155h45l-11 -86l-46 -13h-2l-11 -77h-139l11 77h-169q-34 0 -47 27t2 52z" />
<glyph unicode="&#xbf;" horiz-adv-x="535" d="M-26 -31q5 39 26.5 70.5t49.5 55.5t57.5 48.5t55.5 62t38 84.5h164q-5 -59 -27.5 -110t-46.5 -78.5t-51 -55t-34 -39.5q-20 -35 35 -35h213l-2 -139q-7 -1 -33 -6t-33 -6.5t-28.5 -5t-34.5 -4t-35 -2.5t-45.5 -2.5t-52.5 -0.5q-120 0 -173.5 40.5t-42.5 122.5zM204 409 l5 41q10 68 80 68h41q36 0 55 -19.5t14 -56.5l-6 -41q-4 -36 -22.5 -52t-56.5 -16h-41q-78 0 -69 76z" />
<glyph unicode="&#xc0;" horiz-adv-x="678" d="M-49 0l266 638q20 52 76 52h196q26 0 46 -17.5t23 -42.5l89 -630h-217l-12 146h-188l-54 -146h-225zM194 826l80 130l235 -150l-67 -86zM289 304h117l-12 149q-3 26 -1 77h-28q-7 -41 -20 -75z" />
<glyph unicode="&#xc1;" horiz-adv-x="678" d="M-49 0l266 638q20 52 76 52h196q26 0 46 -17.5t23 -42.5l89 -630h-217l-12 146h-188l-54 -146h-225zM289 304h117l-12 149q-3 26 -1 77h-28q-7 -41 -20 -75zM307 806l247 156l66 -146l-266 -96z" />
<glyph unicode="&#xc2;" horiz-adv-x="678" d="M-49 0l266 638q20 52 76 52h196q26 0 46 -17.5t23 -42.5l89 -630h-217l-12 146h-188l-54 -146h-225zM188 791l150 136h141l131 -140l-55 -68l-147 94h-8l-164 -94zM289 304h117l-12 149q-3 26 -1 77h-28q-7 -41 -20 -75z" />
<glyph unicode="&#xc3;" horiz-adv-x="678" d="M-49 0l266 638q20 52 76 52h196q26 0 46 -17.5t23 -42.5l89 -630h-217l-12 146h-188l-54 -146h-225zM210 755q-2 82 24.5 123.5t73.5 41.5q30 0 94.5 -22t65.5 -22q24 -6 34 5t13 38l85 -8q4 -83 -22 -124t-73 -41q-31 0 -94 21.5t-70 22.5q-24 5 -33 -5.5t-13 -37.5z M289 304h117l-12 149q-3 26 -1 77h-28q-7 -41 -20 -75z" />
<glyph unicode="&#xc4;" horiz-adv-x="678" d="M-49 0l266 638q20 52 76 52h196q26 0 46 -17.5t23 -42.5l89 -630h-217l-12 146h-188l-54 -146h-225zM237 796l11 73q4 35 39 35h77q36 0 30 -33l-11 -76q-4 -32 -35 -32h-81q-36 0 -30 33zM289 304h117l-12 149q-3 26 -1 77h-28q-7 -41 -20 -75zM426 796l11 74 q5 34 36 34h80q36 0 30 -33l-11 -75q-2 -18 -10 -25.5t-25 -7.5h-81q-36 0 -30 33z" />
<glyph unicode="&#xc5;" horiz-adv-x="678" d="M-49 0l266 638q20 52 76 52h196q26 0 46 -17.5t23 -42.5l89 -630h-217l-12 146h-188l-54 -146h-225zM285 846q6 48 42 80.5t91 32.5q56 0 93 -38t30 -91q-6 -48 -42 -80.5t-92 -32.5q-57 0 -93 38t-29 91zM289 304h117l-12 149q-3 26 -1 77h-28q-7 -41 -20 -75zM368 841 q-2 -22 9 -35.5t32 -13.5t34.5 13.5t14.5 35.5q1 19 -11 31t-32 12q-19 0 -32 -12t-15 -31z" />
<glyph unicode="&#xc6;" horiz-adv-x="956" d="M-58 0l315 538q35 59 73.5 90.5t108 47.5t184.5 16q234 0 354 -11l-26 -150h-230q-25 0 -35.5 -8.5t-13.5 -31.5l-10 -71h238l-16 -134h-242l-13 -87q-5 -40 36 -40h232l-3 -151q-97 -12 -335 -12q-72 0 -109 45t-27 115h-169l-87 -156h-225zM343 314h102l26 188 q5 29 21 62h-11l-12.5 -25t-14.5 -27z" />
<glyph unicode="&#xc7;" horiz-adv-x="603" d="M41 353q15 106 38.5 172t65.5 106.5t99.5 55.5t146.5 15q128 0 227 -28l-25 -157q-146 2 -213 2q-38 0 -57 -11.5t-32 -50t-24 -120.5q-15 -102 -6 -134t63 -32q136 0 221 8l8 -159q-103 -32 -239 -32q-175 0 -238 81.5t-35 283.5zM124 -276l21 77q89 0 99 46 q0 3 0.5 5.5t-2 4.5t-6 3t-11 1.5t-18 1t-25.5 0.5l18 72q81 15 131.5 0t40.5 -73q-14 -80 -83 -115.5t-165 -22.5z" />
<glyph unicode="&#xc8;" horiz-adv-x="587" d="M32 184l50 357q10 71 56 112t121 41q248 0 348 -14l-24 -152h-240q-26 0 -37 -9t-14 -31l-9 -63h249l-18 -144h-251l-11 -80q-6 -39 37 -39h240l-4 -154q-89 -12 -338 -12q-84 0 -125 52t-30 136zM176 826l80 130l235 -150l-67 -86z" />
<glyph unicode="&#xc9;" horiz-adv-x="587" d="M32 184l50 357q10 71 56 112t121 41q248 0 348 -14l-24 -152h-240q-26 0 -37 -9t-14 -31l-9 -63h249l-18 -144h-251l-11 -80q-6 -39 37 -39h240l-4 -154q-89 -12 -338 -12q-84 0 -125 52t-30 136zM289 806l247 156l66 -146l-266 -96z" />
<glyph unicode="&#xca;" horiz-adv-x="587" d="M32 184l50 357q10 71 56 112t121 41q248 0 348 -14l-24 -152h-240q-26 0 -37 -9t-14 -31l-9 -63h249l-18 -144h-251l-11 -80q-6 -39 37 -39h240l-4 -154q-89 -12 -338 -12q-84 0 -125 52t-30 136zM170 791l150 136h141l131 -140l-55 -68l-147 94h-8l-164 -94z" />
<glyph unicode="&#xcb;" horiz-adv-x="587" d="M32 184l50 357q10 71 56 112t121 41q248 0 348 -14l-24 -152h-240q-26 0 -37 -9t-14 -31l-9 -63h249l-18 -144h-251l-11 -80q-6 -39 37 -39h240l-4 -154q-89 -12 -338 -12q-84 0 -125 52t-30 136zM219 796l11 73q4 35 39 35h77q36 0 30 -33l-11 -76q-4 -32 -35 -32h-81 q-36 0 -30 33zM408 796l11 74q5 34 36 34h80q36 0 30 -33l-11 -75q-2 -18 -10 -25.5t-25 -7.5h-81q-36 0 -30 33z" />
<glyph unicode="&#xcc;" horiz-adv-x="322" d="M12 0l97 690h216l-97 -690h-216zM21 826l80 130l235 -150l-67 -86z" />
<glyph unicode="&#xcd;" horiz-adv-x="322" d="M12 0l97 690h216l-97 -690h-216zM134 806l247 156l66 -146l-266 -96z" />
<glyph unicode="&#xce;" horiz-adv-x="322" d="M12 0l97 690h216l-97 -690h-216zM15 791l150 136h141l131 -140l-55 -68l-147 94h-8l-164 -94z" />
<glyph unicode="&#xcf;" horiz-adv-x="322" d="M12 0l97 690h216l-97 -690h-216zM64 796l11 73q4 35 39 35h77q36 0 30 -33l-11 -76q-4 -32 -35 -32h-81q-36 0 -30 33zM253 796l11 74q5 34 36 34h80q36 0 30 -33l-11 -75q-2 -18 -10 -25.5t-25 -7.5h-81q-36 0 -30 33z" />
<glyph unicode="&#xd0;" d="M8 313l14 100h47l39 277q128 10 281 10q117 0 183.5 -31t94 -111.5t7.5 -220.5q-15 -106 -38.5 -171t-65.5 -105.5t-100 -55.5t-149 -15q-157 0 -310 10l44 313h-47zM249 148l69 -1q55 0 83.5 41.5t44.5 164.5q16 116 4.5 153t-68.5 37h-78l-18 -130h87l-14 -100h-87z " />
<glyph unicode="&#xd1;" horiz-adv-x="730" d="M11 0l87 619q5 37 24 54t55 17h72q16 0 27.5 -4t20.5 -15.5t14 -19.5t14 -28l116 -225q26 -54 42 -119h8q-5 60 2 117l42 294h199l-87 -619q-5 -37 -24 -54t-55 -17h-72q-31 0 -45.5 15t-31.5 52l-118 237q-19 37 -35 114h-7q2 -72 -6 -128l-43 -290h-199zM235 755 q-2 82 24.5 123.5t73.5 41.5q30 0 94.5 -22t65.5 -22q24 -6 34 5t13 38l85 -8q4 -83 -22 -124t-73 -41q-31 0 -94 21.5t-70 22.5q-24 5 -33 -5.5t-13 -37.5z" />
<glyph unicode="&#xd2;" d="M41 353q15 106 40 173.5t68.5 107t99.5 55t140 15.5q71 0 121 -10.5t89 -36t57.5 -67.5t25.5 -104.5t-7 -148.5q-14 -107 -40 -175t-70 -107t-101 -54t-142 -15q-123 0 -188.5 32.5t-89 112.5t-3.5 222zM211 826l80 130l235 -150l-67 -86zM268 337q-18 -119 -6.5 -154.5 t65.5 -35.5q56 0 78 38.5t42 167.5q17 118 5.5 154t-65.5 36t-76.5 -38.5t-42.5 -167.5z" />
<glyph unicode="&#xd3;" d="M41 353q15 106 40 173.5t68.5 107t99.5 55t140 15.5q71 0 121 -10.5t89 -36t57.5 -67.5t25.5 -104.5t-7 -148.5q-14 -107 -40 -175t-70 -107t-101 -54t-142 -15q-123 0 -188.5 32.5t-89 112.5t-3.5 222zM268 337q-18 -119 -6.5 -154.5t65.5 -35.5q56 0 78 38.5t42 167.5 q17 118 5.5 154t-65.5 36t-76.5 -38.5t-42.5 -167.5zM324 806l247 156l66 -146l-266 -96z" />
<glyph unicode="&#xd4;" d="M41 353q15 106 40 173.5t68.5 107t99.5 55t140 15.5q71 0 121 -10.5t89 -36t57.5 -67.5t25.5 -104.5t-7 -148.5q-14 -107 -40 -175t-70 -107t-101 -54t-142 -15q-123 0 -188.5 32.5t-89 112.5t-3.5 222zM205 791l150 136h141l131 -140l-55 -68l-147 94h-8l-164 -94z M268 337q-18 -119 -6.5 -154.5t65.5 -35.5q56 0 78 38.5t42 167.5q17 118 5.5 154t-65.5 36t-76.5 -38.5t-42.5 -167.5z" />
<glyph unicode="&#xd5;" d="M41 353q15 106 40 173.5t68.5 107t99.5 55t140 15.5q71 0 121 -10.5t89 -36t57.5 -67.5t25.5 -104.5t-7 -148.5q-14 -107 -40 -175t-70 -107t-101 -54t-142 -15q-123 0 -188.5 32.5t-89 112.5t-3.5 222zM227 755q-2 82 24.5 123.5t73.5 41.5q30 0 94.5 -22t65.5 -22 q24 -6 34 5t13 38l85 -8q4 -83 -22 -124t-73 -41q-31 0 -94 21.5t-70 22.5q-24 5 -33 -5.5t-13 -37.5zM268 337q-18 -119 -6.5 -154.5t65.5 -35.5q56 0 78 38.5t42 167.5q17 118 5.5 154t-65.5 36t-76.5 -38.5t-42.5 -167.5z" />
<glyph unicode="&#xd6;" d="M41 353q15 106 40 173.5t68.5 107t99.5 55t140 15.5q71 0 121 -10.5t89 -36t57.5 -67.5t25.5 -104.5t-7 -148.5q-14 -107 -40 -175t-70 -107t-101 -54t-142 -15q-123 0 -188.5 32.5t-89 112.5t-3.5 222zM254 796l11 73q4 35 39 35h77q36 0 30 -33l-11 -76q-4 -32 -35 -32 h-81q-36 0 -30 33zM268 337q-18 -119 -6.5 -154.5t65.5 -35.5q56 0 78 38.5t42 167.5q17 118 5.5 154t-65.5 36t-76.5 -38.5t-42.5 -167.5zM443 796l11 74q5 34 36 34h80q36 0 30 -33l-11 -75q-2 -18 -10 -25.5t-25 -7.5h-81q-36 0 -30 33z" />
<glyph unicode="&#xd7;" horiz-adv-x="526" d="M10 190l135 106l-103 103l110 115l121 -118l163 128l77 -124l-134 -106l109 -106l-111 -125l-129 129l-161 -127z" />
<glyph unicode="&#xd8;" d="M31 -34l54 88q-75 79 -44 299q15 106 40 173.5t68.5 107t99.5 55t140 15.5q53 0 85 -5l67 112l150 -76l-62 -104q74 -81 46 -294q-14 -107 -40 -175t-70 -107t-101 -54t-142 -15q-47 0 -79 4l-62 -101zM268 337q-18 -119 -6.5 -154.5t65.5 -35.5q56 0 78 38.5t42 167.5 q17 118 5.5 154t-65.5 36t-76.5 -38.5t-42.5 -167.5z" />
<glyph unicode="&#xd9;" d="M45 289l58 401h216l-58 -409q-13 -79 -0.5 -106.5t66.5 -27.5q55 0 75 27.5t34 114.5l57 401h217l-59 -409q-23 -166 -94 -230.5t-235 -64.5q-161 0 -229.5 71t-47.5 232zM207 826l80 130l235 -150l-67 -86z" />
<glyph unicode="&#xda;" d="M45 289l58 401h216l-58 -409q-13 -79 -0.5 -106.5t66.5 -27.5q55 0 75 27.5t34 114.5l57 401h217l-59 -409q-23 -166 -94 -230.5t-235 -64.5q-161 0 -229.5 71t-47.5 232zM320 806l247 156l66 -146l-266 -96z" />
<glyph unicode="&#xdb;" d="M45 289l58 401h216l-58 -409q-13 -79 -0.5 -106.5t66.5 -27.5q55 0 75 27.5t34 114.5l57 401h217l-59 -409q-23 -166 -94 -230.5t-235 -64.5q-161 0 -229.5 71t-47.5 232zM201 791l150 136h141l131 -140l-55 -68l-147 94h-8l-164 -94z" />
<glyph unicode="&#xdc;" d="M45 289l58 401h216l-58 -409q-13 -79 -0.5 -106.5t66.5 -27.5q55 0 75 27.5t34 114.5l57 401h217l-59 -409q-23 -166 -94 -230.5t-235 -64.5q-161 0 -229.5 71t-47.5 232zM250 796l11 73q4 35 39 35h77q36 0 30 -33l-11 -76q-4 -32 -35 -32h-81q-36 0 -30 33zM439 796 l11 74q5 34 36 34h80q36 0 30 -33l-11 -75q-2 -18 -10 -25.5t-25 -7.5h-81q-36 0 -30 33z" />
<glyph unicode="&#xdd;" horiz-adv-x="649" d="M46 690h216l53 -221q9 -40 7 -101h15q5 48 30 99l117 223h231l-295 -481l-29 -209h-218l31 221zM291 806l247 156l66 -146l-266 -96z" />
<glyph unicode="&#xde;" horiz-adv-x="636" d="M12 0l97 690h217l-16 -112h57q160 0 218.5 -52.5t40.5 -190.5q-18 -131 -76 -178t-195 -47q-47 0 -110 7l-16 -117h-217zM266 263h70q39 0 53 15t22 73q6 43 -3 58.5t-44 15.5h-75z" />
<glyph unicode="&#xdf;" horiz-adv-x="731" d="M-89 -176l31 125h49q30 0 43 12t18 44l52 369h-83l15 121l85 5l10 70q13 97 75.5 134.5t206.5 37.5q109 0 167.5 -19.5t75.5 -56t6 -100.5t-54 -112q-7 -9 -20 -22t-19 -20t-11.5 -16.5t-6.5 -17.5q-1 -9 4.5 -19t12.5 -17.5t26 -25.5l46 -43q75 -77 62 -150 q-12 -71 -59 -102.5t-161 -31.5q-57 0 -173 11l18 128h110q29 0 43.5 5.5t14.5 23.5q0 11 -11.5 26t-49.5 51l-26 20q-34 31 -47.5 58t-8.5 66q3 28 16.5 48t53.5 65q46 50 49 77q3 22 -6.5 28t-39.5 6q-50 0 -68.5 -13t-23.5 -52l-79 -569q-12 -75 -55.5 -117t-135.5 -42 q-49 0 -152 15z" />
<glyph unicode="&#xe0;" horiz-adv-x="613" d="M25 264q9 58 24 100.5t38.5 69.5t47.5 43.5t62.5 24.5t71.5 10t85 2t133 -10.5t110 -21.5l-68 -482h-162l-2 97q-67 -100 -195 -109q-70 -5 -107.5 28.5t-43.5 96.5t6 151zM151 638l80 130l235 -150l-67 -86zM239 270q-14 -95 -6 -111q5 -12 27 -10q42 3 93 77l21 151 h-46q-37 0 -58 -20.5t-31 -86.5z" />
<glyph unicode="&#xe1;" horiz-adv-x="613" d="M25 264q9 58 24 100.5t38.5 69.5t47.5 43.5t62.5 24.5t71.5 10t85 2t133 -10.5t110 -21.5l-68 -482h-162l-2 97q-67 -100 -195 -109q-70 -5 -107.5 28.5t-43.5 96.5t6 151zM239 270q-14 -95 -6 -111q5 -12 27 -10q42 3 93 77l21 151h-46q-37 0 -58 -20.5t-31 -86.5z M264 618l247 156l66 -146l-266 -96z" />
<glyph unicode="&#xe2;" horiz-adv-x="613" d="M25 264q9 58 24 100.5t38.5 69.5t47.5 43.5t62.5 24.5t71.5 10t85 2t133 -10.5t110 -21.5l-68 -482h-162l-2 97q-67 -100 -195 -109q-70 -5 -107.5 28.5t-43.5 96.5t6 151zM145 603l150 136h141l131 -140l-55 -68l-147 94h-8l-164 -94zM239 270q-14 -95 -6 -111 q5 -12 27 -10q42 3 93 77l21 151h-46q-37 0 -58 -20.5t-31 -86.5z" />
<glyph unicode="&#xe3;" horiz-adv-x="613" d="M25 264q9 58 24 100.5t38.5 69.5t47.5 43.5t62.5 24.5t71.5 10t85 2t133 -10.5t110 -21.5l-68 -482h-162l-2 97q-67 -100 -195 -109q-70 -5 -107.5 28.5t-43.5 96.5t6 151zM167 567q-2 82 24.5 123.5t73.5 41.5q30 0 94.5 -22t65.5 -22q24 -6 34 5t13 38l85 -8 q4 -83 -22 -124t-73 -41q-31 0 -94 21.5t-70 22.5q-24 5 -33 -5.5t-13 -37.5zM239 270q-14 -95 -6 -111q5 -12 27 -10q42 3 93 77l21 151h-46q-37 0 -58 -20.5t-31 -86.5z" />
<glyph unicode="&#xe4;" horiz-adv-x="613" d="M25 264q9 58 24 100.5t38.5 69.5t47.5 43.5t62.5 24.5t71.5 10t85 2t133 -10.5t110 -21.5l-68 -482h-162l-2 97q-67 -100 -195 -109q-70 -5 -107.5 28.5t-43.5 96.5t6 151zM194 608l11 73q4 35 39 35h77q36 0 30 -33l-11 -76q-4 -32 -35 -32h-81q-36 0 -30 33zM239 270 q-14 -95 -6 -111q5 -12 27 -10q42 3 93 77l21 151h-46q-37 0 -58 -20.5t-31 -86.5zM383 608l11 74q5 34 36 34h80q36 0 30 -33l-11 -75q-2 -18 -10 -25.5t-25 -7.5h-81q-36 0 -30 33z" />
<glyph unicode="&#xe5;" horiz-adv-x="613" d="M25 264q9 58 24 100.5t38.5 69.5t47.5 43.5t62.5 24.5t71.5 10t85 2t133 -10.5t110 -21.5l-68 -482h-162l-2 97q-67 -100 -195 -109q-70 -5 -107.5 28.5t-43.5 96.5t6 151zM239 270q-14 -95 -6 -111q5 -12 27 -10q42 3 93 77l21 151h-46q-37 0 -58 -20.5t-31 -86.5z M242 658q6 48 42 80.5t91 32.5q56 0 93 -38t30 -91q-6 -48 -42 -80.5t-92 -32.5q-57 0 -93 38t-29 91zM325 653q-2 -22 9 -35.5t32 -13.5t34.5 13.5t14.5 35.5q1 19 -11 31t-32 12q-19 0 -32 -12t-15 -31z" />
<glyph unicode="&#xe6;" horiz-adv-x="917" d="M26 264q8 58 21 100t33 69.5t40 43.5t53 24t60.5 10.5t72.5 2.5q112 1 214 -15q53 15 136 15q148 0 203.5 -46t41.5 -140q-9 -65 -57 -90.5t-153 -33.5l-128 -10q1 -28 17 -36.5t58 -8.5q107 0 201 11l13 -128q-93 -44 -233 -44q-206 0 -252 117q-64 -108 -197 -117 q-102 -7 -133 64.5t-11 211.5zM240 270q-14 -95 -6 -111q5 -12 27 -10q19 1 45 24t47 56l2 25q7 70 28 123h-56q-40 0 -58.5 -19.5t-28.5 -87.5zM576 297l59 6q35 3 49.5 11.5t16.5 34.5q2 17 -7 24t-36 6q-40 -1 -56 -17t-26 -65z" />
<glyph unicode="&#xe7;" horiz-adv-x="536" d="M21 259q19 137 81.5 196t200.5 59t229 -39l-28 -128h-176q-44 0 -62 -20t-26 -74q-9 -61 3.5 -80t58.5 -19q105 0 168 7l15 -133q-84 -40 -220 -40q-137 0 -200.5 64.5t-43.5 206.5zM82 -256l21 77q89 0 99 46q0 3 0.5 5.5t-2 4.5t-6 3t-11 1.5t-18 1t-25.5 0.5l18 72 q81 15 131.5 0t40.5 -73q-14 -80 -83 -115.5t-165 -22.5z" />
<glyph unicode="&#xe8;" horiz-adv-x="590" d="M21 254q8 79 31 131t63.5 79.5t90 38.5t120.5 11q150 0 206 -46t42 -140q-9 -65 -57.5 -90.5t-155.5 -33.5l-125 -9q1 -28 16.5 -37t54.5 -9q109 0 205 11l14 -128q-95 -44 -237 -44q-84 0 -140 17t-86 52t-39.5 82.5t-2.5 114.5zM140 638l80 130l235 -150l-67 -86z M249 297l57 6q36 3 50.5 11.5t17.5 34.5q2 17 -7.5 24t-38.5 6q-37 -1 -53 -17t-26 -65z" />
<glyph unicode="&#xe9;" horiz-adv-x="590" d="M21 254q8 79 31 131t63.5 79.5t90 38.5t120.5 11q150 0 206 -46t42 -140q-9 -65 -57.5 -90.5t-155.5 -33.5l-125 -9q1 -28 16.5 -37t54.5 -9q109 0 205 11l14 -128q-95 -44 -237 -44q-84 0 -140 17t-86 52t-39.5 82.5t-2.5 114.5zM249 297l57 6q36 3 50.5 11.5t17.5 34.5 q2 17 -7.5 24t-38.5 6q-37 -1 -53 -17t-26 -65zM253 618l247 156l66 -146l-266 -96z" />
<glyph unicode="&#xea;" horiz-adv-x="590" d="M21 254q8 79 31 131t63.5 79.5t90 38.5t120.5 11q150 0 206 -46t42 -140q-9 -65 -57.5 -90.5t-155.5 -33.5l-125 -9q1 -28 16.5 -37t54.5 -9q109 0 205 11l14 -128q-95 -44 -237 -44q-84 0 -140 17t-86 52t-39.5 82.5t-2.5 114.5zM134 603l150 136h141l131 -140l-55 -68 l-147 94h-8l-164 -94zM249 297l57 6q36 3 50.5 11.5t17.5 34.5q2 17 -7.5 24t-38.5 6q-37 -1 -53 -17t-26 -65z" />
<glyph unicode="&#xeb;" horiz-adv-x="590" d="M21 254q8 79 31 131t63.5 79.5t90 38.5t120.5 11q150 0 206 -46t42 -140q-9 -65 -57.5 -90.5t-155.5 -33.5l-125 -9q1 -28 16.5 -37t54.5 -9q109 0 205 11l14 -128q-95 -44 -237 -44q-84 0 -140 17t-86 52t-39.5 82.5t-2.5 114.5zM183 608l11 73q4 35 39 35h77 q36 0 30 -33l-11 -76q-4 -32 -35 -32h-81q-36 0 -30 33zM249 297l57 6q36 3 50.5 11.5t17.5 34.5q2 17 -7.5 24t-38.5 6q-37 -1 -53 -17t-26 -65zM372 608l11 74q5 34 36 34h80q36 0 30 -33l-11 -75q-2 -18 -10 -25.5t-25 -7.5h-81q-36 0 -30 33z" />
<glyph unicode="&#xec;" horiz-adv-x="306" d="M-21 638l80 130l235 -150l-67 -86zM7 0l70 500h211l-70 -500h-211z" />
<glyph unicode="&#xed;" horiz-adv-x="306" d="M7 0l70 500h211l-70 -500h-211zM92 618l247 156l66 -146l-266 -96z" />
<glyph unicode="&#xee;" horiz-adv-x="306" d="M-27 603l150 136h141l131 -140l-55 -68l-147 94h-8l-164 -94zM7 0l70 500h211l-70 -500h-211z" />
<glyph unicode="&#xef;" horiz-adv-x="306" d="M7 0l70 500h211l-70 -500h-211zM22 608l11 73q4 35 39 35h77q36 0 30 -33l-11 -76q-4 -32 -35 -32h-81q-36 0 -30 33zM211 608l11 74q5 34 36 34h80q36 0 30 -33l-11 -75q-2 -18 -10 -25.5t-25 -7.5h-81q-36 0 -30 33z" />
<glyph unicode="&#xf0;" horiz-adv-x="603" d="M18 222q16 122 75 176.5t164 54.5q68 0 111 -25q2 85 -39 116.5t-154 23.5l23 130q145 9 233 -30l88 78l103 -113l-79 -68q53 -100 30 -282q-20 -164 -93.5 -230.5t-218.5 -66.5q-129 0 -194 58.5t-49 177.5zM238 220q-10 -52 -3 -71t41 -19q36 0 50.5 33t28.5 135l2 15 q-21 8 -42 8q-37 0 -52.5 -22.5t-24.5 -78.5z" />
<glyph unicode="&#xf1;" horiz-adv-x="619" d="M3 0l69 500h164l5 -88q48 48 106 75t113 27q65 0 102.5 -37.5t27.5 -106.5l-52 -370h-211l43 302q3 21 -2.5 29t-24.5 6q-41 -4 -88 -40l-42 -297h-210zM159 567q-2 82 24.5 123.5t73.5 41.5q30 0 94.5 -22t65.5 -22q24 -6 34 5t13 38l85 -8q4 -83 -22 -124t-73 -41 q-31 0 -94 21.5t-70 22.5q-24 5 -33 -5.5t-13 -37.5z" />
<glyph unicode="&#xf2;" horiz-adv-x="615" d="M21 257q20 143 87.5 200t218.5 57q153 0 214.5 -63t40.5 -210q-20 -141 -87.5 -197t-216.5 -56q-152 0 -215 62.5t-42 206.5zM142 638l80 130l235 -150l-67 -86zM240 241q-10 -69 -1.5 -90t47.5 -21q38 0 52.5 23.5t26.5 103.5q11 71 3 93t-45 22q-40 0 -55.5 -24.5 t-27.5 -106.5z" />
<glyph unicode="&#xf3;" horiz-adv-x="615" d="M21 257q20 143 87.5 200t218.5 57q153 0 214.5 -63t40.5 -210q-20 -141 -87.5 -197t-216.5 -56q-152 0 -215 62.5t-42 206.5zM240 241q-10 -69 -1.5 -90t47.5 -21q38 0 52.5 23.5t26.5 103.5q11 71 3 93t-45 22q-40 0 -55.5 -24.5t-27.5 -106.5zM255 618l247 156l66 -146 l-266 -96z" />
<glyph unicode="&#xf4;" horiz-adv-x="615" d="M21 257q20 143 87.5 200t218.5 57q153 0 214.5 -63t40.5 -210q-20 -141 -87.5 -197t-216.5 -56q-152 0 -215 62.5t-42 206.5zM136 603l150 136h141l131 -140l-55 -68l-147 94h-8l-164 -94zM240 241q-10 -69 -1.5 -90t47.5 -21q38 0 52.5 23.5t26.5 103.5q11 71 3 93 t-45 22q-40 0 -55.5 -24.5t-27.5 -106.5z" />
<glyph unicode="&#xf5;" horiz-adv-x="615" d="M21 257q20 143 87.5 200t218.5 57q153 0 214.5 -63t40.5 -210q-20 -141 -87.5 -197t-216.5 -56q-152 0 -215 62.5t-42 206.5zM158 567q-2 82 24.5 123.5t73.5 41.5q30 0 94.5 -22t65.5 -22q24 -6 34 5t13 38l85 -8q4 -83 -22 -124t-73 -41q-31 0 -94 21.5t-70 22.5 q-24 5 -33 -5.5t-13 -37.5zM240 241q-10 -69 -1.5 -90t47.5 -21q38 0 52.5 23.5t26.5 103.5q11 71 3 93t-45 22q-40 0 -55.5 -24.5t-27.5 -106.5z" />
<glyph unicode="&#xf6;" horiz-adv-x="615" d="M21 257q20 143 87.5 200t218.5 57q153 0 214.5 -63t40.5 -210q-20 -141 -87.5 -197t-216.5 -56q-152 0 -215 62.5t-42 206.5zM185 608l11 73q4 35 39 35h77q36 0 30 -33l-11 -76q-4 -32 -35 -32h-81q-36 0 -30 33zM240 241q-10 -69 -1.5 -90t47.5 -21q38 0 52.5 23.5 t26.5 103.5q11 71 3 93t-45 22q-40 0 -55.5 -24.5t-27.5 -106.5zM374 608l11 74q5 34 36 34h80q36 0 30 -33l-11 -75q-2 -18 -10 -25.5t-25 -7.5h-81q-36 0 -30 33z" />
<glyph unicode="&#xf7;" horiz-adv-x="528" d="M14 215l23 154h477l-23 -154h-477zM124 82l2 14q6 47 27.5 63.5t70.5 16.5h40q48 0 65.5 -18t10.5 -65l-2 -14q-6 -48 -25 -64.5t-67 -16.5h-46q-50 0 -66.5 18.5t-9.5 65.5zM183 488l2 14q7 47 28 63.5t70 16.5h41q48 0 65 -18t10 -64l-1 -14q-7 -48 -26.5 -65 t-66.5 -17h-46q-49 0 -66 18.5t-10 65.5z" />
<glyph unicode="&#xf8;" horiz-adv-x="616" d="M21 257q20 143 87.5 200t218.5 57q22 0 56 -2l62 99l130 -72l-47 -76q76 -61 54 -222q-20 -141 -87.5 -197t-216.5 -56q-27 0 -40 1l-59 -95l-130 71l40 64q-91 61 -68 228zM240 241q-10 -69 -1.5 -90t47.5 -21q38 0 52.5 23.5t26.5 103.5q11 71 3 93t-45 22 q-40 0 -55.5 -24.5t-27.5 -106.5z" />
<glyph unicode="&#xf9;" horiz-adv-x="613" d="M18 130l51 370h211l-45 -311q-4 -27 23 -27q39 0 89 37l43 301h208l-69 -500h-164l-4 85q-102 -99 -204 -99q-78 0 -113.5 37.5t-25.5 106.5zM139 649l80 130l235 -150l-67 -86z" />
<glyph unicode="&#xfa;" horiz-adv-x="613" d="M18 130l51 370h211l-45 -311q-4 -27 23 -27q39 0 89 37l43 301h208l-69 -500h-164l-4 85q-102 -99 -204 -99q-78 0 -113.5 37.5t-25.5 106.5zM252 629l247 156l66 -146l-266 -96z" />
<glyph unicode="&#xfb;" horiz-adv-x="613" d="M18 130l51 370h211l-45 -311q-4 -27 23 -27q39 0 89 37l43 301h208l-69 -500h-164l-4 85q-102 -99 -204 -99q-78 0 -113.5 37.5t-25.5 106.5zM133 614l150 136h141l131 -140l-55 -68l-147 94h-8l-164 -94z" />
<glyph unicode="&#xfc;" horiz-adv-x="613" d="M18 130l51 370h211l-45 -311q-4 -27 23 -27q39 0 89 37l43 301h208l-69 -500h-164l-4 85q-102 -99 -204 -99q-78 0 -113.5 37.5t-25.5 106.5zM182 619l11 73q4 35 39 35h77q36 0 30 -33l-11 -76q-4 -32 -35 -32h-81q-36 0 -30 33zM371 619l11 74q5 34 36 34h80 q36 0 30 -33l-11 -75q-2 -18 -10 -25.5t-25 -7.5h-81q-36 0 -30 33z" />
<glyph unicode="&#xfd;" horiz-adv-x="622" d="M30 500h230l8 -358q0 -16 16 -16h24q63 140 96 374h225q-17 -123 -76 -277t-98 -215q-145 -227 -389 -214l-13 113q13 5 39.5 13.5t40 13.5t33.5 14t36 22t31 30h-79q-24 0 -41.5 15t-20.5 38zM247 618l247 156l66 -146l-266 -96z" />
<glyph unicode="&#xfe;" horiz-adv-x="616" d="M-22 -180l123 880h210l-14 -104q-10 -75 -27 -143l3 -7q69 66 156 66q98 0 133 -67.5t19 -208.5q-15 -130 -71.5 -190t-140.5 -60q-92 0 -158 13q-4 -58 -9 -84l-14 -95h-210zM230 113h48q45 0 62 21.5t26 95.5q10 62 6.5 91.5t-31.5 29.5q-50 0 -90 -73z" />
<glyph unicode="&#xff;" horiz-adv-x="622" d="M30 500h230l8 -358q0 -16 16 -16h24q63 140 96 374h225q-17 -123 -76 -277t-98 -215q-145 -227 -389 -214l-13 113q13 5 39.5 13.5t40 13.5t33.5 14t36 22t31 30h-79q-24 0 -41.5 15t-20.5 38zM177 608l11 73q4 35 39 35h77q36 0 30 -33l-11 -76q-4 -32 -35 -32h-81 q-36 0 -30 33zM366 608l11 74q5 34 36 34h80q36 0 30 -33l-11 -75q-2 -18 -10 -25.5t-25 -7.5h-81q-36 0 -30 33z" />
<glyph unicode="&#x100;" horiz-adv-x="678" d="M-49 0l266 638q20 52 76 52h196q26 0 46 -17.5t23 -42.5l89 -630h-217l-12 146h-188l-54 -146h-225zM240 772l17 123h320l-17 -123h-320zM289 304h117l-12 149q-3 26 -1 77h-28q-7 -41 -20 -75z" />
<glyph unicode="&#x101;" horiz-adv-x="613" d="M25 264q9 58 24 100.5t38.5 69.5t47.5 43.5t62.5 24.5t71.5 10t85 2t133 -10.5t110 -21.5l-68 -482h-162l-2 97q-67 -100 -195 -109q-70 -5 -107.5 28.5t-43.5 96.5t6 151zM197 584l17 123h320l-17 -123h-320zM239 270q-14 -95 -6 -111q5 -12 27 -10q42 3 93 77l21 151 h-46q-37 0 -58 -20.5t-31 -86.5z" />
<glyph unicode="&#x102;" horiz-adv-x="678" d="M-49 0l266 638q20 52 76 52h196q26 0 46 -17.5t23 -42.5l89 -630h-217l-12 146h-188l-54 -146h-225zM243 913l98 5q-5 -31 12 -43t61 -12q85 0 91 57l94 -15q2 -70 -51 -119t-143 -49q-91 0 -137.5 53.5t-24.5 122.5zM289 304h117l-12 149q-3 26 -1 77h-28 q-7 -41 -20 -75z" />
<glyph unicode="&#x103;" horiz-adv-x="613" d="M25 264q9 58 24 100.5t38.5 69.5t47.5 43.5t62.5 24.5t71.5 10t85 2t133 -10.5t110 -21.5l-68 -482h-162l-2 97q-67 -100 -195 -109q-70 -5 -107.5 28.5t-43.5 96.5t6 151zM200 725l98 5q-5 -31 12 -43t61 -12q85 0 91 57l94 -15q2 -70 -51 -119t-143 -49 q-91 0 -137.5 53.5t-24.5 122.5zM239 270q-14 -95 -6 -111q5 -12 27 -10q42 3 93 77l21 151h-46q-37 0 -58 -20.5t-31 -86.5z" />
<glyph unicode="&#x104;" horiz-adv-x="678" d="M-49 0l266 638q20 52 76 52h196q26 0 46 -17.5t23 -42.5l89 -630h1q-42 -45 -57 -91q-5 -17 2 -22.5t30 -1.5l15 -74q-49 -18 -89.5 -21t-63.5 7t-38 27t-13.5 39t10.5 44q25 48 103 93h-117l-12 146h-188l-54 -146h-225zM289 304h117l-12 149q-3 26 -1 77h-28 q-7 -41 -20 -75z" />
<glyph unicode="&#x105;" horiz-adv-x="613" d="M25 264q9 58 24 100.5t38.5 69.5t47.5 43.5t62.5 24.5t71.5 10t85 2t133 -10.5t110 -21.5l-68 -482q-42 -45 -57 -91q-5 -17 2 -22.5t30 -1.5l15 -74q-49 -18 -89.5 -21t-63.5 7t-38 27t-13.5 39t10.5 44q25 48 103 93h-61l-2 97q-67 -100 -195 -109q-70 -5 -107.5 28.5 t-43.5 96.5t6 151zM239 270q-14 -95 -6 -111q5 -12 27 -10q42 3 93 77l21 151h-46q-37 0 -58 -20.5t-31 -86.5z" />
<glyph unicode="&#x106;" horiz-adv-x="603" d="M41 353q15 106 38.5 172t65.5 106.5t99.5 55.5t146.5 15q128 0 227 -28l-25 -157q-146 2 -213 2q-38 0 -57 -11.5t-32 -50t-24 -120.5q-15 -102 -6 -134t63 -32q136 0 221 8l8 -159q-103 -32 -239 -32q-175 0 -238 81.5t-35 283.5zM313 807l247 156l66 -146l-266 -96z " />
<glyph unicode="&#x107;" horiz-adv-x="536" d="M21 259q19 137 81.5 196t200.5 59t229 -39l-28 -128h-176q-44 0 -62 -20t-26 -74q-9 -61 3.5 -80t58.5 -19q105 0 168 7l15 -133q-84 -40 -220 -40q-137 0 -200.5 64.5t-43.5 206.5zM234 618l247 156l66 -146l-266 -96z" />
<glyph unicode="&#x10a;" horiz-adv-x="603" d="M41 353q15 106 38.5 172t65.5 106.5t99.5 55.5t146.5 15q128 0 227 -28l-25 -157q-146 2 -213 2q-38 0 -57 -11.5t-32 -50t-24 -120.5q-15 -102 -6 -134t63 -32q136 0 221 8l8 -159q-103 -32 -239 -32q-175 0 -238 81.5t-35 283.5zM325 814l6 47q8 53 62 53h59 q28 0 44 -15t13 -44l-5 -49q-6 -53 -60 -53h-63q-65 0 -56 61z" />
<glyph unicode="&#x10b;" horiz-adv-x="536" d="M21 259q19 137 81.5 196t200.5 59t229 -39l-28 -128h-176q-44 0 -62 -20t-26 -74q-9 -61 3.5 -80t58.5 -19q105 0 168 7l15 -133q-84 -40 -220 -40q-137 0 -200.5 64.5t-43.5 206.5zM246 625l6 47q8 53 62 53h59q28 0 44 -15t13 -44l-5 -49q-6 -53 -60 -53h-63 q-65 0 -56 61z" />
<glyph unicode="&#x10c;" horiz-adv-x="603" d="M41 353q15 106 38.5 172t65.5 106.5t99.5 55.5t146.5 15q128 0 227 -28l-25 -157q-146 2 -213 2q-38 0 -57 -11.5t-32 -50t-24 -120.5q-15 -102 -6 -134t63 -32q136 0 221 8l8 -159q-103 -32 -239 -32q-175 0 -238 81.5t-35 283.5zM202 882l58 66l147 -81h8l171 77 l40 -75l-179 -131h-82z" />
<glyph unicode="&#x10d;" horiz-adv-x="536" d="M21 259q19 137 81.5 196t200.5 59t229 -39l-28 -128h-176q-44 0 -62 -20t-26 -74q-9 -61 3.5 -80t58.5 -19q105 0 168 7l15 -133q-84 -40 -220 -40q-137 0 -200.5 64.5t-43.5 206.5zM123 693l58 66l147 -81h8l171 77l40 -75l-179 -131h-82z" />
<glyph unicode="&#x10e;" d="M11 0l97 690q128 10 281 10q117 0 183.5 -31t94 -111.5t7.5 -220.5q-15 -106 -38.5 -171t-65.5 -105.5t-100 -55.5t-149 -15q-157 0 -310 10zM196 881l58 66l147 -81h8l171 77l40 -75l-179 -131h-82zM249 148l69 -1q55 0 83.5 41.5t44.5 164.5q16 116 4.5 153t-68.5 37 h-78z" />
<glyph unicode="&#x10f;" horiz-adv-x="617" d="M24 264q18 141 72 195.5t140 54.5q94 0 160 -13q0 60 7 104l18 95h210l-99 -700h-166l-4 80q-96 -92 -187 -92q-185 0 -151 276zM238 270q-10 -54 -6 -82t32 -26q38 2 84 35l26 190h-47q-45 0 -62 -21.5t-27 -95.5zM653 611l6 35q5 30 22.5 41.5t53.5 11.5h32 q37 0 51.5 -13.5t9.5 -43.5l-8 -48q-7 -40 -30 -85t-52 -73l-77 24q15 28 39 103q-29 -1 -40 11t-7 37z" />
<glyph unicode="&#x110;" d="M8 313l14 100h47l39 277q128 10 281 10q117 0 183.5 -31t94 -111.5t7.5 -220.5q-15 -106 -38.5 -171t-65.5 -105.5t-100 -55.5t-149 -15q-157 0 -310 10l44 313h-47zM249 148l69 -1q55 0 83.5 41.5t44.5 164.5q16 116 4.5 153t-68.5 37h-78l-18 -130h87l-14 -100h-87z " />
<glyph unicode="&#x111;" horiz-adv-x="622" d="M24 264q18 141 72 195.5t140 54.5q94 0 160 -13q0 30 1 46h-95l12 84h94l13 69h210l-10 -69h64l-12 -84h-64l-77 -547h-166l-4 80q-96 -92 -187 -92q-185 0 -151 276zM238 270q-10 -54 -6 -82t32 -26q38 2 84 35l26 190h-47q-45 0 -62 -21.5t-27 -95.5z" />
<glyph unicode="&#x112;" horiz-adv-x="587" d="M32 184l50 357q10 71 56 112t121 41q248 0 348 -14l-24 -152h-240q-26 0 -37 -9t-14 -31l-9 -63h249l-18 -144h-251l-11 -80q-6 -39 37 -39h240l-4 -154q-89 -12 -338 -12q-84 0 -125 52t-30 136zM222 772l17 123h320l-17 -123h-320z" />
<glyph unicode="&#x113;" horiz-adv-x="590" d="M21 254q8 79 31 131t63.5 79.5t90 38.5t120.5 11q150 0 206 -46t42 -140q-9 -65 -57.5 -90.5t-155.5 -33.5l-125 -9q1 -28 16.5 -37t54.5 -9q109 0 205 11l14 -128q-95 -44 -237 -44q-84 0 -140 17t-86 52t-39.5 82.5t-2.5 114.5zM186 584l17 123h320l-17 -123h-320z M249 297l57 6q36 3 50.5 11.5t17.5 34.5q2 17 -7.5 24t-38.5 6q-37 -1 -53 -17t-26 -65z" />
<glyph unicode="&#x116;" horiz-adv-x="587" d="M32 184l50 357q10 71 56 112t121 41q248 0 348 -14l-24 -152h-240q-26 0 -37 -9t-14 -31l-9 -63h249l-18 -144h-251l-11 -80q-6 -39 37 -39h240l-4 -154q-89 -12 -338 -12q-84 0 -125 52t-30 136zM301 813l6 47q8 53 62 53h59q28 0 44 -15t13 -44l-5 -49q-6 -53 -60 -53 h-63q-65 0 -56 61z" />
<glyph unicode="&#x117;" horiz-adv-x="590" d="M21 254q8 79 31 131t63.5 79.5t90 38.5t120.5 11q150 0 206 -46t42 -140q-9 -65 -57.5 -90.5t-155.5 -33.5l-125 -9q1 -28 16.5 -37t54.5 -9q109 0 205 11l14 -128q-95 -44 -237 -44q-84 0 -140 17t-86 52t-39.5 82.5t-2.5 114.5zM249 297l57 6q36 3 50.5 11.5t17.5 34.5 q2 17 -7.5 24t-38.5 6q-37 -1 -53 -17t-26 -65zM265 625l6 47q8 53 62 53h59q28 0 44 -15t13 -44l-5 -49q-6 -53 -60 -53h-63q-65 0 -56 61z" />
<glyph unicode="&#x118;" horiz-adv-x="587" d="M32 184l50 357q10 71 56 112t121 41q248 0 348 -14l-24 -152h-240q-26 0 -37 -9t-14 -31l-9 -63h249l-18 -144h-251l-11 -80q-6 -39 37 -39h240l-4 -154q-42 -45 -57 -91q-5 -17 2 -22.5t30 -1.5l15 -74q-49 -18 -89.5 -21t-63.5 7t-38 27t-13.5 39t10.5 44q21 42 87 84 q-73 -3 -221 -3q-84 0 -125 52t-30 136z" />
<glyph unicode="&#x119;" horiz-adv-x="590" d="M21 254q8 79 31 131t63.5 79.5t90 38.5t120.5 11q150 0 206 -46t42 -140q-9 -65 -57.5 -90.5t-155.5 -33.5l-125 -9q1 -28 16.5 -37t54.5 -9q109 0 205 11l14 -128q-42 -45 -57 -91q-5 -17 2 -22.5t30 -1.5l15 -74q-49 -18 -89.5 -21t-63.5 7t-38 27t-13.5 39t10.5 44 q13 25 44 53q-35 -4 -77 -4q-84 0 -140 17t-86 52t-39.5 82.5t-2.5 114.5zM249 297l57 6q36 3 50.5 11.5t17.5 34.5q2 17 -7.5 24t-38.5 6q-37 -1 -53 -17t-26 -65z" />
<glyph unicode="&#x11a;" horiz-adv-x="587" d="M32 184l50 357q10 71 56 112t121 41q248 0 348 -14l-24 -152h-240q-26 0 -37 -9t-14 -31l-9 -63h249l-18 -144h-251l-11 -80q-6 -39 37 -39h240l-4 -154q-89 -12 -338 -12q-84 0 -125 52t-30 136zM178 881l58 66l147 -81h8l171 77l40 -75l-179 -131h-82z" />
<glyph unicode="&#x11b;" horiz-adv-x="590" d="M21 254q8 79 31 131t63.5 79.5t90 38.5t120.5 11q150 0 206 -46t42 -140q-9 -65 -57.5 -90.5t-155.5 -33.5l-125 -9q1 -28 16.5 -37t54.5 -9q109 0 205 11l14 -128q-95 -44 -237 -44q-84 0 -140 17t-86 52t-39.5 82.5t-2.5 114.5zM142 693l58 66l147 -81h8l171 77l40 -75 l-179 -131h-82zM249 297l57 6q36 3 50.5 11.5t17.5 34.5q2 17 -7.5 24t-38.5 6q-37 -1 -53 -17t-26 -65z" />
<glyph unicode="&#x11e;" horiz-adv-x="670" d="M42 353q15 107 42 175t74.5 107.5t108.5 54t153 14.5q134 0 231 -30l-24 -155q-150 2 -222 2q-65 0 -92.5 -38t-44.5 -146q-16 -102 -5 -134t61 -32q47 0 90 31l27 195h207l-56 -397h-159l-8 80q-92 -94 -202 -94q-233 0 -181 367zM258 913l98 5q-5 -31 12 -43t61 -12 q85 0 91 57l94 -15q2 -70 -51 -119t-143 -49q-91 0 -137.5 53.5t-24.5 122.5z" />
<glyph unicode="&#x11f;" horiz-adv-x="618" d="M5 -169l10 113h126q154 0 195 64q13 19 22.5 54t16.5 49q-68 -107 -202 -113q-103 -5 -135.5 64t-11.5 202q8 50 19.5 88.5t25 65t33.5 44.5t38 28t46.5 15.5t51.5 7t59 1.5q93 0 178 -10t125 -22l-55 -392q-10 -76 -33.5 -131t-52.5 -86t-70.5 -49t-78 -23t-84.5 -5 q-148 0 -223 35zM199 731l98 5q-5 -31 12 -43t61 -12q85 0 91 57l94 -15q2 -70 -51 -119t-143 -49q-91 0 -137.5 53.5t-24.5 122.5zM240 270q-7 -39 -9 -63t1 -38t10 -18.5t21 -1.5q47 9 95 78l21 150h-48q-47 0 -63.5 -21t-27.5 -86z" />
<glyph unicode="&#x120;" horiz-adv-x="670" d="M42 353q15 107 42 175t74.5 107.5t108.5 54t153 14.5q134 0 231 -30l-24 -155q-150 2 -222 2q-65 0 -92.5 -38t-44.5 -146q-16 -102 -5 -134t61 -32q47 0 90 31l27 195h207l-56 -397h-159l-8 80q-92 -94 -202 -94q-233 0 -181 367zM334 813l6 47q8 53 62 53h59 q28 0 44 -15t13 -44l-5 -49q-6 -53 -60 -53h-63q-65 0 -56 61z" />
<glyph unicode="&#x121;" horiz-adv-x="618" d="M5 -169l10 113h126q154 0 195 64q13 19 22.5 54t16.5 49q-68 -107 -202 -113q-103 -5 -135.5 64t-11.5 202q8 50 19.5 88.5t25 65t33.5 44.5t38 28t46.5 15.5t51.5 7t59 1.5q93 0 178 -10t125 -22l-55 -392q-10 -76 -33.5 -131t-52.5 -86t-70.5 -49t-78 -23t-84.5 -5 q-148 0 -223 35zM240 270q-7 -39 -9 -63t1 -38t10 -18.5t21 -1.5q47 9 95 78l21 150h-48q-47 0 -63.5 -21t-27.5 -86zM275 631l6 47q8 53 62 53h59q28 0 44 -15t13 -44l-5 -49q-6 -53 -60 -53h-63q-65 0 -56 61z" />
<glyph unicode="&#x122;" horiz-adv-x="670" d="M42 353q15 107 42 175t74.5 107.5t108.5 54t153 14.5q134 0 231 -30l-24 -155q-150 2 -222 2q-65 0 -92.5 -38t-44.5 -146q-16 -102 -5 -134t61 -32q47 0 90 31l27 195h207l-56 -397h-159l-8 80q-92 -94 -202 -94q-233 0 -181 367zM225 -136l6 35q5 30 22.5 41.5 t53.5 11.5h32q37 0 51.5 -13.5t9.5 -43.5l-8 -48q-7 -40 -30 -85t-52 -73l-77 24q15 28 39 103q-29 -1 -40 11t-7 37z" />
<glyph unicode="&#x123;" horiz-adv-x="618" d="M5 -169l10 113h126q154 0 195 64q13 19 22.5 54t16.5 49q-68 -107 -202 -113q-103 -5 -135.5 64t-11.5 202q8 50 19.5 88.5t25 65t33.5 44.5t38 28t46.5 15.5t51.5 7t59 1.5q93 0 178 -10t125 -22l-55 -392q-10 -76 -33.5 -131t-52.5 -86t-70.5 -49t-78 -23t-84.5 -5 q-148 0 -223 35zM240 270q-7 -39 -9 -63t1 -38t10 -18.5t21 -1.5q47 9 95 78l21 150h-48q-47 0 -63.5 -21t-27.5 -86zM280 605l8 48q7 40 30 85t52 73l77 -24q-15 -28 -39 -103q29 1 40 -11t7 -37l-6 -35q-5 -30 -22.5 -41.5t-53.5 -11.5h-32q-37 0 -51.5 13.5t-9.5 43.5z " />
<glyph unicode="&#x126;" horiz-adv-x="705" d="M12 0l72 509h-53l14 92h51l13 89h217l-13 -89h165l13 89h217l-13 -89h53l-14 -92h-51l-72 -509h-217l41 289h-165l-41 -289h-217zM291 443h165l10 66h-165z" />
<glyph unicode="&#x127;" horiz-adv-x="615" d="M-1 0l77 547h-50l12 84h49l10 69h210l-9 -69h111l-12 -84h-111q-8 -59 -29 -119q99 86 190 86q76 0 112 -37.5t26 -106.5l-52 -370h-210l44 311q3 16 -1 21t-18 5q-45 0 -98 -41l-41 -296h-210z" />
<glyph unicode="&#x12a;" horiz-adv-x="322" d="M12 0l97 690h216l-97 -690h-216zM67 772l17 123h320l-17 -123h-320z" />
<glyph unicode="&#x12b;" horiz-adv-x="306" d="M7 0l70 500h211l-70 -500h-211zM25 584l17 123h320l-17 -123h-320z" />
<glyph unicode="&#x12e;" horiz-adv-x="322" d="M-5 -93q25 48 103 93h-86l97 690h216l-97 -690h-29q-42 -45 -57 -91q-5 -17 2 -22.5t30 -1.5l15 -74q-49 -18 -89.5 -21t-63.5 7t-38 27t-13.5 39t10.5 44z" />
<glyph unicode="&#x12f;" horiz-adv-x="306" d="M-6 -93q25 48 103 93h-90l70 500h211l-70 -500h-20q-42 -45 -57 -91q-5 -17 2 -22.5t30 -1.5l15 -74q-49 -18 -89.5 -21t-63.5 7t-38 27t-13.5 39t10.5 44zM104 625l6 47q8 53 62 53h59q28 0 44 -15t13 -44l-5 -49q-6 -53 -60 -53h-63q-65 0 -56 61z" />
<glyph unicode="&#x130;" horiz-adv-x="322" d="M12 0l97 690h216l-97 -690h-216zM146 813l6 47q8 53 62 53h59q28 0 44 -15t13 -44l-5 -49q-6 -53 -60 -53h-63q-65 0 -56 61z" />
<glyph unicode="&#x131;" horiz-adv-x="306" d="M7 0l70 500h211l-70 -500h-211z" />
<glyph unicode="&#x132;" horiz-adv-x="717" d="M12 0l97 690h216l-97 -690h-216zM298 14l34 134h37q59 0 64 39l73 503h216l-78 -567q-10 -66 -58.5 -101.5t-125.5 -35.5q-42 0 -91 7.5t-71 20.5z" />
<glyph unicode="&#x133;" horiz-adv-x="610" d="M7 0l69 500h209l-69 -500h-209zM93 620l7 51q6 58 69 58h81q67 0 60 -66l-7 -51q-7 -58 -69 -58h-82q-66 0 -59 66zM231 -95q77 72 89 157l63 438h210l-65 -446q-10 -80 -58.5 -148t-123.5 -98zM396 620l7 51q7 58 72 58h79q68 0 59 -66l-7 -51q-7 -58 -71 -58h-79 q-67 0 -60 66z" />
<glyph unicode="&#x136;" horiz-adv-x="668" d="M12 0l97 690h218l-27 -191q-5 -38 -16 -71h33l168 262h240l-193 -288q-27 -42 -72 -59l-1 -4q14 -6 30 -26.5t25 -43.5l120 -269h-234l-107 288h-31q4 -32 -1 -67l-31 -221h-218zM210 -136l6 35q5 30 22.5 41.5t53.5 11.5h32q37 0 51.5 -13.5t9.5 -43.5l-8 -48 q-7 -40 -30 -85t-52 -73l-77 24q15 28 39 103q-29 -1 -40 11t-7 37z" />
<glyph unicode="&#x137;" horiz-adv-x="609" d="M3 0l98 700h210l-38 -272q-10 -61 -43 -122q59 32 102 84.5t56 109.5h216q-34 -152 -171 -242q37 -26 56 -69l91 -189h-215l-85 185q-22 -9 -45 -15q0 -13 -2 -31l-20 -139h-210zM182 -126l6 35q5 30 22.5 41.5t53.5 11.5h32q37 0 51.5 -13.5t9.5 -43.5l-8 -48 q-7 -40 -30 -85t-52 -73l-77 24q15 28 39 103q-29 -1 -40 11t-7 37z" />
<glyph unicode="&#x139;" horiz-adv-x="552" d="M31 157l74 533h218l-71 -478q-2 -23 5.5 -31.5t30.5 -8.5h228l-4 -163q-100 -13 -331 -13q-75 0 -117.5 45.5t-32.5 115.5zM132 792l247 156l66 -146l-266 -96z" />
<glyph unicode="&#x13a;" horiz-adv-x="360" d="M21 130l81 570h209l-75 -522q-4 -19 4 -25.5t35 -6.5h40l12 -136q-43 -24 -143 -24q-84 0 -127.5 39t-35.5 105zM128 811l247 156l66 -146l-266 -96z" />
<glyph unicode="&#x13b;" horiz-adv-x="552" d="M31 157l74 533h218l-71 -478q-2 -23 5.5 -31.5t30.5 -8.5h228l-4 -163q-100 -13 -331 -13q-75 0 -117.5 45.5t-32.5 115.5zM159 -136l6 35q5 30 22.5 41.5t53.5 11.5h32q37 0 51.5 -13.5t9.5 -43.5l-8 -48q-7 -40 -30 -85t-52 -73l-77 24q15 28 39 103q-29 -1 -40 11 t-7 37z" />
<glyph unicode="&#x13c;" horiz-adv-x="360" d="M21 130l81 570h209l-75 -522q-4 -19 4 -25.5t35 -6.5h40l12 -136q-43 -24 -143 -24q-84 0 -127.5 39t-35.5 105zM59 -131l6 35q5 30 22.5 41.5t53.5 11.5h32q37 0 51.5 -13.5t9.5 -43.5l-8 -48q-7 -40 -30 -85t-52 -73l-77 24q15 28 39 103q-29 -1 -40 11t-7 37z" />
<glyph unicode="&#x13d;" horiz-adv-x="552" d="M31 157l74 533h218l-71 -478q-2 -23 5.5 -31.5t30.5 -8.5h228l-4 -163q-100 -13 -331 -13q-75 0 -117.5 45.5t-32.5 115.5zM357 601l6 35q5 30 22.5 41.5t53.5 11.5h32q37 0 51.5 -13.5t9.5 -43.5l-8 -48q-7 -40 -30 -85t-52 -73l-77 24q15 28 39 103q-29 -1 -40 11 t-7 37z" />
<glyph unicode="&#x13e;" horiz-adv-x="360" d="M21 130l81 570h209l-75 -522q-4 -19 4 -25.5t35 -6.5h40l12 -136q-43 -24 -143 -24q-84 0 -127.5 39t-35.5 105zM329 611l6 35q5 30 22.5 41.5t53.5 11.5h32q37 0 51.5 -13.5t9.5 -43.5l-8 -48q-7 -40 -30 -85t-52 -73l-77 24q15 28 39 103q-29 -1 -40 11t-7 37z" />
<glyph unicode="&#x13f;" horiz-adv-x="552" d="M31 157l74 533h218l-71 -478q-2 -23 5.5 -31.5t30.5 -8.5h228l-4 -163q-100 -13 -331 -13q-75 0 -117.5 45.5t-32.5 115.5zM360 402l5 49q6 53 60 53h63q65 0 56 -61l-6 -47q-8 -53 -62 -53h-59q-28 0 -44 15t-13 44z" />
<glyph unicode="&#x140;" horiz-adv-x="504" d="M21 130l81 570h209l-75 -522q-4 -19 4 -25.5t35 -6.5h40l12 -136q-43 -24 -143 -24q-84 0 -127.5 39t-35.5 105zM326 350l5 49q6 53 60 53h63q65 0 56 -61l-6 -47q-8 -53 -62 -53h-59q-28 0 -44 15t-13 44z" />
<glyph unicode="&#x141;" horiz-adv-x="556" d="M4 269l14 104l50 18l41 299h218l-32 -215l104 38l-15 -104l-104 -38l-24 -159q-2 -23 5.5 -31.5t30.5 -8.5h228l-4 -163q-100 -13 -331 -13q-75 0 -117.5 45.5t-32.5 115.5l18 130z" />
<glyph unicode="&#x142;" horiz-adv-x="376" d="M0 269l14 104l56 21l44 306h209l-32 -225l104 38l-15 -104l-104 -38l-28 -193q-4 -19 4 -25.5t35 -6.5h40l12 -136q-43 -24 -143 -24q-84 0 -127.5 39t-35.5 105l23 160z" />
<glyph unicode="&#x143;" horiz-adv-x="730" d="M11 0l87 619q5 37 24 54t55 17h72q16 0 27.5 -4t20.5 -15.5t14 -19.5t14 -28l116 -225q26 -54 42 -119h8q-5 60 2 117l42 294h199l-87 -619q-5 -37 -24 -54t-55 -17h-72q-31 0 -45.5 15t-31.5 52l-118 237q-19 37 -35 114h-7q2 -72 -6 -128l-43 -290h-199zM332 806 l247 156l66 -146l-266 -96z" />
<glyph unicode="&#x144;" horiz-adv-x="619" d="M3 0l69 500h164l5 -88q48 48 106 75t113 27q65 0 102.5 -37.5t27.5 -106.5l-52 -370h-211l43 302q3 21 -2.5 29t-24.5 6q-41 -4 -88 -40l-42 -297h-210zM256 618l247 156l66 -146l-266 -96z" />
<glyph unicode="&#x145;" horiz-adv-x="730" d="M11 0l87 619q5 37 24 54t55 17h72q16 0 27.5 -4t20.5 -15.5t14 -19.5t14 -28l116 -225q26 -54 42 -119h8q-5 60 2 117l42 294h199l-87 -619q-5 -37 -24 -54t-55 -17h-72q-31 0 -45.5 15t-31.5 52l-118 237q-19 37 -35 114h-7q2 -72 -6 -128l-43 -290h-199zM247 -136l6 35 q5 30 22.5 41.5t53.5 11.5h32q37 0 51.5 -13.5t9.5 -43.5l-8 -48q-7 -40 -30 -85t-52 -73l-77 24q15 28 39 103q-29 -1 -40 11t-7 37z" />
<glyph unicode="&#x146;" horiz-adv-x="619" d="M3 0l69 500h164l5 -88q48 48 106 75t113 27q65 0 102.5 -37.5t27.5 -106.5l-52 -370h-211l43 302q3 21 -2.5 29t-24.5 6q-41 -4 -88 -40l-42 -297h-210zM161 -126l6 35q5 30 22.5 41.5t53.5 11.5h32q37 0 51.5 -13.5t9.5 -43.5l-8 -48q-7 -40 -30 -85t-52 -73l-77 24 q15 28 39 103q-29 -1 -40 11t-7 37z" />
<glyph unicode="&#x147;" horiz-adv-x="730" d="M11 0l87 619q5 37 24 54t55 17h72q16 0 27.5 -4t20.5 -15.5t14 -19.5t14 -28l116 -225q26 -54 42 -119h8q-5 60 2 117l42 294h199l-87 -619q-5 -37 -24 -54t-55 -17h-72q-31 0 -45.5 15t-31.5 52l-118 237q-19 37 -35 114h-7q2 -72 -6 -128l-43 -290h-199zM221 881l58 66 l147 -81h8l171 77l40 -75l-179 -131h-82z" />
<glyph unicode="&#x148;" horiz-adv-x="619" d="M3 0l69 500h164l5 -88q48 48 106 75t113 27q65 0 102.5 -37.5t27.5 -106.5l-52 -370h-211l43 302q3 21 -2.5 29t-24.5 6q-41 -4 -88 -40l-42 -297h-210zM145 693l58 66l147 -81h8l171 77l40 -75l-179 -131h-82z" />
<glyph unicode="&#x14a;" horiz-adv-x="735" d="M11 0l87 619q5 37 24 54t55 17h82q31 0 46.5 -16t28.5 -51l110 -226q29 -66 40 -118h6q-2 56 8 129l41 282h200l-103 -727q-11 -80 -52.5 -123.5t-102.5 -43.5q-87 0 -148 28l37 134h30q44 0 51 31l5 24h-3q-4 0 -7.5 3.5t-7 10t-6.5 13t-6.5 15t-5.5 12.5l-119 236 q-17 38 -33 115h-6q0 -69 -8 -125l-43 -293h-200z" />
<glyph unicode="&#x14b;" horiz-adv-x="619" d="M3 0l69 500h164l6 -86q107 100 209 100q76 0 112 -37.5t27 -106.5l-57 -398q-11 -81 -54.5 -124t-113.5 -43q-39 0 -86.5 7.5t-69.5 20.5l36 134h30q19 0 34 8.5t17 22.5l45 313q3 16 -3.5 22t-23.5 4q-42 -4 -89 -40l-42 -297h-210z" />
<glyph unicode="&#x14c;" d="M41 353q15 106 40 173.5t68.5 107t99.5 55t140 15.5q71 0 121 -10.5t89 -36t57.5 -67.5t25.5 -104.5t-7 -148.5q-14 -107 -40 -175t-70 -107t-101 -54t-142 -15q-123 0 -188.5 32.5t-89 112.5t-3.5 222zM257 772l17 123h320l-17 -123h-320zM268 337q-18 -119 -6.5 -154.5 t65.5 -35.5q56 0 78 38.5t42 167.5q17 118 5.5 154t-65.5 36t-76.5 -38.5t-42.5 -167.5z" />
<glyph unicode="&#x14d;" horiz-adv-x="615" d="M21 257q20 143 87.5 200t218.5 57q153 0 214.5 -63t40.5 -210q-20 -141 -87.5 -197t-216.5 -56q-152 0 -215 62.5t-42 206.5zM188 584l17 123h320l-17 -123h-320zM240 241q-10 -69 -1.5 -90t47.5 -21q38 0 52.5 23.5t26.5 103.5q11 71 3 93t-45 22q-40 0 -55.5 -24.5 t-27.5 -106.5z" />
<glyph unicode="&#x150;" d="M41 353q15 106 40 173.5t68.5 107t99.5 55t140 15.5q71 0 121 -10.5t89 -36t57.5 -67.5t25.5 -104.5t-7 -148.5q-14 -107 -40 -175t-70 -107t-101 -54t-142 -15q-123 0 -188.5 32.5t-89 112.5t-3.5 222zM218 775l147 193l121 -84l-183 -161zM268 337 q-18 -119 -6.5 -154.5t65.5 -35.5q56 0 78 38.5t42 167.5q17 118 5.5 154t-65.5 36t-76.5 -38.5t-42.5 -167.5zM433 774l147 194l121 -84l-184 -161z" />
<glyph unicode="&#x151;" horiz-adv-x="615" d="M21 257q20 143 87.5 200t218.5 57q153 0 214.5 -63t40.5 -210q-20 -141 -87.5 -197t-216.5 -56q-152 0 -215 62.5t-42 206.5zM149 587l147 193l121 -84l-183 -161zM240 241q-10 -69 -1.5 -90t47.5 -21q38 0 52.5 23.5t26.5 103.5q11 71 3 93t-45 22q-40 0 -55.5 -24.5 t-27.5 -106.5zM364 586l147 194l121 -84l-184 -161z" />
<glyph unicode="&#x152;" horiz-adv-x="976" d="M41 353q15 106 39.5 173t67.5 107t100 55.5t145 15.5q101 0 177 -26q34 16 72 16q252 0 353 -14l-25 -152h-233q-17 0 -32.5 -12t-17.5 -28l-10 -68h243l-17 -134h-245l-13 -92q-5 -32 28 -32h244l-4 -154q-90 -12 -344 -12q-50 0 -86 22q-74 -32 -167 -32 q-123 0 -187 32t-86 111.5t-2 223.5zM268 337q-17 -117 -8.5 -153.5t54.5 -36.5q76 0 110 15l53 375q-25 6 -83 6q-56 0 -82.5 -42t-43.5 -164z" />
<glyph unicode="&#x153;" horiz-adv-x="909" d="M21 257q20 143 86 200t212 57q93 0 157 -40q72 40 173 40q148 0 203.5 -46t41.5 -140q-9 -64 -57 -90t-152 -34l-122 -9q1 -28 15.5 -37t52.5 -9q107 0 201 11l13 -128q-93 -44 -233 -44q-103 0 -169 45q-72 -45 -173 -45q-148 0 -209 62.5t-40 206.5zM239 241 q-10 -69 -3 -90t43 -21q33 0 46 23.5t24 103.5q11 71 4.5 93t-39.5 22q-36 0 -50 -24t-25 -107zM577 298l51 5q35 3 49.5 11.5t16.5 34.5q2 17 -7 24t-36 6q-35 -1 -49.5 -17t-24.5 -64z" />
<glyph unicode="&#x154;" horiz-adv-x="669" d="M11 0l97 690q100 10 279 10q151 0 218 -49.5t51 -168.5q-9 -67 -43.5 -107.5t-112.5 -48.5l-1 -7q82 -12 91 -111l26 -208h-224l-18 209q-1 28 -9 35.5t-31 7.5h-76l-35 -252h-212zM280 405h75q44 0 61 15t24 64q5 36 -6.5 49.5t-48.5 13.5h-85zM300 806l247 156l66 -146 l-266 -96z" />
<glyph unicode="&#x155;" horiz-adv-x="452" d="M3 0l70 500h164l7 -68q99 82 199 82h36l-43 -192h-47q-51 0 -133 -13l-42 -309h-211zM194 618l247 156l66 -146l-266 -96z" />
<glyph unicode="&#x156;" horiz-adv-x="669" d="M11 0l97 690q100 10 279 10q151 0 218 -49.5t51 -168.5q-9 -67 -43.5 -107.5t-112.5 -48.5l-1 -7q82 -12 91 -111l26 -208h-224l-18 209q-1 28 -9 35.5t-31 7.5h-76l-35 -252h-212zM209 -136l6 35q5 30 22.5 41.5t53.5 11.5h32q37 0 51.5 -13.5t9.5 -43.5l-8 -48 q-7 -40 -30 -85t-52 -73l-77 24q15 28 39 103q-29 -1 -40 11t-7 37zM280 405h75q44 0 61 15t24 64q5 36 -6.5 49.5t-48.5 13.5h-85z" />
<glyph unicode="&#x157;" horiz-adv-x="452" d="M0 -126l6 35q5 30 22.5 41.5t53.5 11.5h32q37 0 51.5 -13.5t9.5 -43.5l-8 -48q-7 -40 -30 -85t-52 -73l-77 24q15 28 39 103q-29 -1 -40 11t-7 37zM3 0l70 500h164l7 -68q99 82 199 82h36l-43 -192h-47q-51 0 -133 -13l-42 -309h-211z" />
<glyph unicode="&#x158;" horiz-adv-x="669" d="M11 0l97 690q100 10 279 10q151 0 218 -49.5t51 -168.5q-9 -67 -43.5 -107.5t-112.5 -48.5l-1 -7q82 -12 91 -111l26 -208h-224l-18 209q-1 28 -9 35.5t-31 7.5h-76l-35 -252h-212zM189 881l58 66l147 -81h8l171 77l40 -75l-179 -131h-82zM280 405h75q44 0 61 15t24 64 q5 36 -6.5 49.5t-48.5 13.5h-85z" />
<glyph unicode="&#x159;" horiz-adv-x="452" d="M3 0l70 500h164l7 -68q99 82 199 82h36l-43 -192h-47q-51 0 -133 -13l-42 -309h-211zM83 693l58 66l147 -81h8l171 77l40 -75l-179 -131h-82z" />
<glyph unicode="&#x15a;" horiz-adv-x="602" d="M4 21l20 151q193 -5 238 -5t63 6.5t22 22.5q3 12 -4 20t-29 19l-126 62q-82 40 -108.5 91t-18.5 121q13 111 81.5 153t214.5 42q140 0 247 -36l-19 -138q-122 2 -242 2q-35 0 -49.5 -6t-18.5 -22q-2 -12 6.5 -21.5t37.5 -23.5l116 -55q82 -39 108.5 -87t17.5 -128 q-13 -118 -75 -160.5t-213 -42.5q-133 0 -269 35zM273 806l247 156l66 -146l-266 -96z" />
<glyph unicode="&#x15b;" horiz-adv-x="548" d="M-3 11l17 121h168q76 0 99 3t25 13q1 7 -9 12t-45 15l-105 30q-131 37 -111 171q10 70 63.5 104t178.5 34q148 0 252 -23l-17 -121h-191q-56 0 -71 -1.5t-16 -8.5q-2 -8 8.5 -13.5t40.5 -13.5l109 -29q129 -35 114 -158q-11 -93 -71.5 -125t-182.5 -32q-133 0 -256 22z M222 618l247 156l66 -146l-266 -96z" />
<glyph unicode="&#x15e;" horiz-adv-x="602" d="M4 21l20 151q193 -5 238 -5t63 6.5t22 22.5q3 12 -4 20t-29 19l-126 62q-82 40 -108.5 91t-18.5 121q13 111 81.5 153t214.5 42q140 0 247 -36l-19 -138q-122 2 -242 2q-35 0 -49.5 -6t-18.5 -22q-2 -12 6.5 -21.5t37.5 -23.5l116 -55q82 -39 108.5 -87t17.5 -128 q-13 -118 -75 -160.5t-213 -42.5q-133 0 -269 35zM107 -278l21 77q89 0 99 46q0 3 0.5 5.5t-2 4.5t-6 3t-11 1.5t-18 1t-25.5 0.5l18 72q81 15 131.5 0t40.5 -73q-14 -80 -83 -115.5t-165 -22.5z" />
<glyph unicode="&#x15f;" horiz-adv-x="548" d="M-3 11l17 121h168q76 0 99 3t25 13q1 7 -9 12t-45 15l-105 30q-131 37 -111 171q10 70 63.5 104t178.5 34q148 0 252 -23l-17 -121h-191q-56 0 -71 -1.5t-16 -8.5q-2 -8 8.5 -13.5t40.5 -13.5l109 -29q129 -35 114 -158q-11 -93 -71.5 -125t-182.5 -32q-133 0 -256 22z M70 -260l21 77q89 0 99 46q0 3 0.5 5.5t-2 4.5t-6 3t-11 1.5t-18 1t-25.5 0.5l18 72q81 15 131.5 0t40.5 -73q-14 -80 -83 -115.5t-165 -22.5z" />
<glyph unicode="&#x160;" horiz-adv-x="602" d="M4 21l20 151q193 -5 238 -5t63 6.5t22 22.5q3 12 -4 20t-29 19l-126 62q-82 40 -108.5 91t-18.5 121q13 111 81.5 153t214.5 42q140 0 247 -36l-19 -138q-122 2 -242 2q-35 0 -49.5 -6t-18.5 -22q-2 -12 6.5 -21.5t37.5 -23.5l116 -55q82 -39 108.5 -87t17.5 -128 q-13 -118 -75 -160.5t-213 -42.5q-133 0 -269 35zM162 881l58 66l147 -81h8l171 77l40 -75l-179 -131h-82z" />
<glyph unicode="&#x161;" horiz-adv-x="548" d="M-3 11l17 121h168q76 0 99 3t25 13q1 7 -9 12t-45 15l-105 30q-131 37 -111 171q10 70 63.5 104t178.5 34q148 0 252 -23l-17 -121h-191q-56 0 -71 -1.5t-16 -8.5q-2 -8 8.5 -13.5t40.5 -13.5l109 -29q129 -35 114 -158q-11 -93 -71.5 -125t-182.5 -32q-133 0 -256 22z M111 693l58 66l147 -81h8l171 77l40 -75l-179 -131h-82z" />
<glyph unicode="&#x162;" horiz-adv-x="618" d="M43 528l23 162h598l-23 -162h-191l-74 -528h-217l74 528h-190zM108 -254l21 77q89 0 99 46q0 3 0.5 5.5t-2 4.5t-6 3t-11 1.5t-18 1t-25.5 0.5l18 72q81 15 131.5 0t40.5 -73q-14 -80 -83 -115.5t-165 -22.5z" />
<glyph unicode="&#x163;" horiz-adv-x="439" d="M23 374l15 121l90 5l19 131h207l-19 -131h120l-17 -126h-121l-28 -196q-3 -20 2.5 -26t28.5 -6h59l11 -136q-61 -24 -167 -24q-77 0 -118.5 39t-31.5 105l36 244h-86zM53 -263l21 77q89 0 99 46q0 3 0.5 5.5t-2 4.5t-6 3t-11 1.5t-18 1t-25.5 0.5l18 72q81 15 131.5 0 t40.5 -73q-14 -80 -83 -115.5t-165 -22.5z" />
<glyph unicode="&#x164;" horiz-adv-x="618" d="M43 528l23 162h598l-23 -162h-191l-74 -528h-217l74 528h-190zM166 881l58 66l147 -81h8l171 77l40 -75l-179 -131h-82z" />
<glyph unicode="&#x165;" horiz-adv-x="439" d="M23 374l15 121l90 5l19 131h207l-19 -131h120l-17 -126h-121l-28 -196q-3 -20 2.5 -26t28.5 -6h59l11 -136q-61 -24 -167 -24q-77 0 -118.5 39t-31.5 105l36 244h-86zM363 723l6 35q5 30 22.5 41.5t53.5 11.5h32q37 0 51.5 -13.5t9.5 -43.5l-8 -48q-7 -40 -30 -85 t-52 -73l-77 24q15 28 39 103q-29 -1 -40 11t-7 37z" />
<glyph unicode="&#x166;" horiz-adv-x="618" d="M43 528l23 162h598l-23 -162h-191l-18 -127h121l-13 -94h-121l-43 -307h-217l43 307h-112l13 94h112l18 127h-190z" />
<glyph unicode="&#x167;" horiz-adv-x="439" d="M23 374l15 121l90 5l19 131h207l-19 -131h120l-17 -126h-121l-7 -50h77l-13 -94h-78l-7 -52q-3 -20 2.5 -26t28.5 -6h59l11 -136q-61 -24 -167 -24q-77 0 -118.5 39t-31.5 105l15 100h-57l13 94h58l7 50h-86z" />
<glyph unicode="&#x16a;" d="M45 289l58 401h216l-58 -409q-13 -79 -0.5 -106.5t66.5 -27.5q55 0 75 27.5t34 114.5l57 401h217l-59 -409q-23 -166 -94 -230.5t-235 -64.5q-161 0 -229.5 71t-47.5 232zM253 772l17 123h320l-17 -123h-320z" />
<glyph unicode="&#x16b;" horiz-adv-x="613" d="M18 130l51 370h211l-45 -311q-4 -27 23 -27q39 0 89 37l43 301h208l-69 -500h-164l-4 85q-102 -99 -204 -99q-78 0 -113.5 37.5t-25.5 106.5zM185 595l17 123h320l-17 -123h-320z" />
<glyph unicode="&#x16e;" d="M45 289l58 401h216l-58 -409q-13 -79 -0.5 -106.5t66.5 -27.5q55 0 75 27.5t34 114.5l57 401h217l-59 -409q-23 -166 -94 -230.5t-235 -64.5q-161 0 -229.5 71t-47.5 232zM298 846q6 48 42 80.5t91 32.5q56 0 93 -38t30 -91q-6 -48 -42 -80.5t-92 -32.5q-57 0 -93 38 t-29 91zM381 841q-2 -22 9 -35.5t32 -13.5t34.5 13.5t14.5 35.5q1 19 -11 31t-32 12q-19 0 -32 -12t-15 -31z" />
<glyph unicode="&#x16f;" horiz-adv-x="613" d="M18 130l51 370h211l-45 -311q-4 -27 23 -27q39 0 89 37l43 301h208l-69 -500h-164l-4 85q-102 -99 -204 -99q-78 0 -113.5 37.5t-25.5 106.5zM230 669q6 48 42 80.5t91 32.5q56 0 93 -38t30 -91q-6 -48 -42 -80.5t-92 -32.5q-57 0 -93 38t-29 91zM313 664q-2 -22 9 -35.5 t32 -13.5t34.5 13.5t14.5 35.5q1 19 -11 31t-32 12q-19 0 -32 -12t-15 -31z" />
<glyph unicode="&#x170;" d="M45 289l58 401h216l-58 -409q-13 -79 -0.5 -106.5t66.5 -27.5q55 0 75 27.5t34 114.5l57 401h217l-59 -409q-23 -166 -94 -230.5t-235 -64.5q-161 0 -229.5 71t-47.5 232zM214 775l147 193l121 -84l-183 -161zM429 774l147 194l121 -84l-184 -161z" />
<glyph unicode="&#x171;" horiz-adv-x="613" d="M18 130l51 370h211l-45 -311q-4 -27 23 -27q39 0 89 37l43 301h208l-69 -500h-164l-4 85q-102 -99 -204 -99q-78 0 -113.5 37.5t-25.5 106.5zM146 598l147 193l121 -84l-183 -161zM361 597l147 194l121 -84l-184 -161z" />
<glyph unicode="&#x172;" d="M45 289l58 401h216l-58 -409q-13 -79 -0.5 -106.5t66.5 -27.5q55 0 75 27.5t34 114.5l57 401h217l-59 -409q-23 -159 -88 -224.5t-213 -70.5q-39 -42 -53 -86q-5 -17 2 -22.5t30 -1.5l15 -74q-49 -18 -89.5 -21t-63.5 7t-38 27t-13.5 39t10.5 44q25 47 101 92 q-122 14 -173 85.5t-33 213.5z" />
<glyph unicode="&#x173;" horiz-adv-x="613" d="M18 130l51 370h211l-45 -311q-4 -27 23 -27q39 0 89 37l43 301h208l-69 -500q-42 -45 -57 -91q-5 -17 2 -22.5t30 -1.5l15 -74q-49 -18 -89.5 -21t-63.5 7t-38 27t-13.5 39t10.5 44q25 48 103 93h-63l-4 85q-102 -99 -204 -99q-78 0 -113.5 37.5t-25.5 106.5z" />
<glyph unicode="&#x174;" horiz-adv-x="995" d="M74 62v628h213l-27 -427q-1 -20 -4 -60.5t-4 -54.5h17q13 70 28 124l96 358q16 60 77 60h151q29 0 48 -19.5t19 -48.5v-360q0 -42 -2 -114h18q6 59 21 121l92 421h213l-174 -636q-14 -54 -76 -54h-182q-28 0 -49 18t-20 44l7 369q1 24 5 105h-18q-7 -50 -20 -102 l-99 -380q-14 -54 -76 -54h-187q-28 0 -48.5 18t-18.5 44zM344 791l150 136h141l131 -140l-55 -68l-147 94h-8l-164 -94z" />
<glyph unicode="&#x175;" horiz-adv-x="925" d="M41 501h213l-8 -371h6q15 0 24 15.5t18 50.5t15.5 72t14.5 94.5t12 85.5q3 20 18 36t44 16h172q24 0 40.5 -15t19.5 -38v-317h7q4 0 7.5 1t6.5 3.5t5 5t4 8t3.5 9t3 11t2.5 12l3 13.5t3 15q6 26 20 114q12 79 19 178h208q-27 -236 -83 -372q-15 -36 -30.5 -58.5 t-40.5 -39t-60.5 -23.5t-88.5 -7h-77q-25 0 -42 16.5t-15 39.5v320h-12q-4 -36 -18.5 -117t-23.5 -117q-11 -40 -26.5 -67t-31.5 -42t-42.5 -22.5t-47 -9t-57.5 -1.5h-110q-24 0 -40.5 16t-18.5 40zM281 602l150 136h141l131 -140l-55 -68l-147 94h-8l-164 -94z" />
<glyph unicode="&#x176;" horiz-adv-x="649" d="M46 690h216l53 -221q9 -40 7 -101h15q5 48 30 99l117 223h231l-295 -481l-29 -209h-218l31 221zM172 791l150 136h141l131 -140l-55 -68l-147 94h-8l-164 -94z" />
<glyph unicode="&#x177;" horiz-adv-x="622" d="M30 500h230l8 -358q0 -16 16 -16h24q63 140 96 374h225q-17 -123 -76 -277t-98 -215q-145 -227 -389 -214l-13 113q13 5 39.5 13.5t40 13.5t33.5 14t36 22t31 30h-79q-24 0 -41.5 15t-20.5 38zM128 603l150 136h141l131 -140l-55 -68l-147 94h-8l-164 -94z" />
<glyph unicode="&#x178;" horiz-adv-x="649" d="M46 690h216l53 -221q9 -40 7 -101h15q5 48 30 99l117 223h231l-295 -481l-29 -209h-218l31 221zM221 796l11 73q4 35 39 35h77q36 0 30 -33l-11 -76q-4 -32 -35 -32h-81q-36 0 -30 33zM410 796l11 74q5 34 36 34h80q36 0 30 -33l-11 -75q-2 -18 -10 -25.5t-25 -7.5h-81 q-36 0 -30 33z" />
<glyph unicode="&#x179;" horiz-adv-x="598" d="M-11 0l20 152l334 386h-268l21 152h519l-21 -152l-333 -386h288l-21 -152h-539zM264 806l247 156l66 -146l-266 -96z" />
<glyph unicode="&#x17a;" horiz-adv-x="538" d="M-10 0l17 135h-1l258 230h-217l18 135h466l-17 -135h1l-257 -230h228l-18 -135h-478zM218 618l247 156l66 -146l-266 -96z" />
<glyph unicode="&#x17b;" horiz-adv-x="598" d="M-11 0l20 152l334 386h-268l21 152h519l-21 -152l-333 -386h288l-21 -152h-539zM276 813l6 47q8 53 62 53h59q28 0 44 -15t13 -44l-5 -49q-6 -53 -60 -53h-63q-65 0 -56 61z" />
<glyph unicode="&#x17c;" horiz-adv-x="538" d="M-10 0l17 135h-1l258 230h-217l18 135h466l-17 -135h1l-257 -230h228l-18 -135h-478zM230 625l6 47q8 53 62 53h59q28 0 44 -15t13 -44l-5 -49q-6 -53 -60 -53h-63q-65 0 -56 61z" />
<glyph unicode="&#x17d;" horiz-adv-x="598" d="M-11 0l20 152l334 386h-268l21 152h519l-21 -152l-333 -386h288l-21 -152h-539zM153 881l58 66l147 -81h8l171 77l40 -75l-179 -131h-82z" />
<glyph unicode="&#x17e;" horiz-adv-x="538" d="M-10 0l17 135h-1l258 230h-217l18 135h466l-17 -135h1l-257 -230h228l-18 -135h-478zM107 693l58 66l147 -81h8l171 77l40 -75l-179 -131h-82z" />
<glyph unicode="&#x192;" horiz-adv-x="501" d="M-94 -165l42 125h56q48 0 59 56l60 268h-89l24 111l93 14l31 136q39 159 204 159q98 0 159 -15l-43 -125h-56q-46 0 -59 -56l-22 -98h93l-27 -126h-94l-69 -305q-37 -159 -203 -159q-99 0 -159 15z" />
<glyph unicode="&#x218;" horiz-adv-x="602" d="M4 21l20 151q193 -5 238 -5t63 6.5t22 22.5q3 12 -4 20t-29 19l-126 62q-82 40 -108.5 91t-18.5 121q13 111 81.5 153t214.5 42q140 0 247 -36l-19 -138q-122 2 -242 2q-35 0 -49.5 -6t-18.5 -22q-2 -12 6.5 -21.5t37.5 -23.5l116 -55q82 -39 108.5 -87t17.5 -128 q-13 -118 -75 -160.5t-213 -42.5q-133 0 -269 35zM165 -136l6 35q5 30 22.5 41.5t53.5 11.5h32q37 0 51.5 -13.5t9.5 -43.5l-8 -48q-7 -40 -30 -85t-52 -73l-77 24q15 28 39 103q-29 -1 -40 11t-7 37z" />
<glyph unicode="&#x219;" horiz-adv-x="548" d="M-3 11l17 121h168q76 0 99 3t25 13q1 7 -9 12t-45 15l-105 30q-131 37 -111 171q10 70 63.5 104t178.5 34q148 0 252 -23l-17 -121h-191q-56 0 -71 -1.5t-16 -8.5q-2 -8 8.5 -13.5t40.5 -13.5l109 -29q129 -35 114 -158q-11 -93 -71.5 -125t-182.5 -32q-133 0 -256 22z M131 -131l6 35q5 30 22.5 41.5t53.5 11.5h32q37 0 51.5 -13.5t9.5 -43.5l-8 -48q-7 -40 -30 -85t-52 -73l-77 24q15 28 39 103q-29 -1 -40 11t-7 37z" />
<glyph unicode="&#x21a;" horiz-adv-x="618" d="M43 528l23 162h598l-23 -162h-191l-74 -528h-217l74 528h-190zM151 -126l6 35q5 30 22.5 41.5t53.5 11.5h32q37 0 51.5 -13.5t9.5 -43.5l-8 -48q-7 -40 -30 -85t-52 -73l-77 24q15 28 39 103q-29 -1 -40 11t-7 37z" />
<glyph unicode="&#x21b;" horiz-adv-x="439" d="M23 374l15 121l90 5l19 131h207l-19 -131h120l-17 -126h-121l-28 -196q-3 -20 2.5 -26t28.5 -6h59l11 -136q-61 -24 -167 -24q-77 0 -118.5 39t-31.5 105l36 244h-86zM98 -131l6 35q5 30 22.5 41.5t53.5 11.5h32q37 0 51.5 -13.5t9.5 -43.5l-8 -48q-7 -40 -30 -85 t-52 -73l-77 24q15 28 39 103q-29 -1 -40 11t-7 37z" />
<glyph unicode="&#x2c6;" horiz-adv-x="477" d="M72 606l150 136h141l131 -140l-55 -68l-147 94h-8l-164 -94z" />
<glyph unicode="&#x2c7;" horiz-adv-x="477" d="M79 691l58 66l147 -81h8l171 77l40 -75l-179 -131h-82z" />
<glyph unicode="&#x2d8;" horiz-adv-x="411" d="M90 710l98 5q-5 -31 12 -43t61 -12q85 0 91 57l94 -15q2 -70 -51 -119t-143 -49q-91 0 -137.5 53.5t-24.5 122.5z" />
<glyph unicode="&#x2d9;" horiz-adv-x="251" d="M88 624l6 47q8 53 62 53h59q28 0 44 -15t13 -44l-5 -49q-6 -53 -60 -53h-63q-65 0 -56 61z" />
<glyph unicode="&#x2da;" horiz-adv-x="318" d="M88 663q6 48 42 80.5t91 32.5q56 0 93 -38t30 -91q-6 -48 -42 -80.5t-92 -32.5q-57 0 -93 38t-29 91zM171 658q-2 -22 9 -35.5t32 -13.5t34.5 13.5t14.5 35.5q1 19 -11 31t-32 12q-19 0 -32 -12t-15 -31z" />
<glyph unicode="&#x2db;" horiz-adv-x="250" d="M-18 -93q27 52 117 101l87 -8q-42 -45 -57 -91q-5 -17 2 -22.5t30 -1.5l15 -74q-49 -18 -89.5 -21t-63.5 7t-38 27t-13.5 39t10.5 44z" />
<glyph unicode="&#x2dc;" horiz-adv-x="460" d="M89 559q-2 82 24.5 123.5t73.5 41.5q30 0 94.5 -22t65.5 -22q24 -6 34 5t13 38l85 -8q4 -83 -22 -124t-73 -41q-31 0 -94 21.5t-70 22.5q-24 5 -33 -5.5t-13 -37.5z" />
<glyph unicode="&#x2dd;" horiz-adv-x="547" d="M84 563l147 193l121 -84l-183 -161zM299 562l147 194l121 -84l-184 -161z" />
<glyph unicode="&#x394;" horiz-adv-x="708" d="M-19 0l7 68l316 622h214l140 -622l-7 -68h-670zM243 152h191l-40 235q-6 47 -6 98q-20 -73 -31 -97z" />
<glyph unicode="&#x3a9;" horiz-adv-x="719" d="M-5 0l23 162h62q40 0 77 -18q-66 68 -88 122.5t-10 146.5q19 149 100 220t248 71q165 0 235.5 -76t48.5 -235q-12 -87 -46.5 -136t-121.5 -115q37 20 81 20h60l-22 -162h-305l18 148q51 44 73 90t35 132q15 108 1.5 141t-67.5 33q-57 0 -80 -31.5t-37 -129.5 q-13 -80 -5.5 -134t41.5 -101l-16 -148h-305z" />
<glyph unicode="&#x3bc;" horiz-adv-x="649" d="M-7 -180q40 282 95 680h211l-45 -311q-2 -16 2.5 -21.5t18.5 -5.5q40 0 87 32l43 306h211l-70 -500h-164l-8 86q-93 -95 -188 -100q6 -34 2 -63l-14 -103h-181z" />
<glyph unicode="&#x3c0;" horiz-adv-x="658" d="M25 365l19 136h629l-19 -136h-64l-51 -365h-210l51 365h-81l-51 -365h-210l51 365h-64z" />
<glyph unicode="&#x401;" horiz-adv-x="587" d="M32 184l50 357q10 71 56 112t121 41q248 0 348 -14l-24 -152h-240q-26 0 -37 -9t-14 -31l-9 -63h249l-18 -144h-251l-11 -80q-6 -39 37 -39h240l-4 -154q-89 -12 -338 -12q-84 0 -125 52t-30 136zM219 796l11 73q4 35 39 35h77q36 0 30 -33l-11 -76q-4 -32 -35 -32h-81 q-36 0 -30 33zM408 796l11 74q5 34 36 34h80q36 0 30 -33l-11 -75q-2 -18 -10 -25.5t-25 -7.5h-81q-36 0 -30 33z" />
<glyph unicode="&#x402;" horiz-adv-x="775" d="M43 528l22 162h598l-22 -162h-191l-16 -119q80 45 173 45q89 0 127 -51.5t19 -170.5q-22 -137 -98.5 -192.5t-206.5 -55.5l-12 151q46 10 69.5 35t31.5 69q6 29 -5.5 38.5t-38.5 9.5q-44 0 -80 -21l-37 -266h-218l74 528h-189z" />
<glyph unicode="&#x403;" horiz-adv-x="543" d="M13 0l76 541q10 69 55.5 111t110.5 42q242 0 334 -15l-24 -151h-215q-25 0 -36.5 -8.5t-14.5 -31.5l-69 -488h-217zM266 806l247 156l66 -146l-266 -96z" />
<glyph unicode="&#x404;" horiz-adv-x="604" d="M40 353q27 194 106 271.5t248 77.5q133 0 230 -28l-25 -157q-148 2 -214 2q-53 0 -75.5 -19.5t-34.5 -74.5h266l-16 -144h-270q-5 -66 11 -88t69 -22q140 0 205 8l8 -159q-93 -32 -233 -32q-177 0 -240 82.5t-35 282.5z" />
<glyph unicode="&#x405;" horiz-adv-x="602" d="M4 21l20 151q193 -5 238 -5t63 6.5t22 22.5q3 12 -4 20t-29 19l-126 62q-82 40 -108.5 91t-18.5 121q13 111 81.5 153t214.5 42q140 0 247 -36l-19 -138q-122 2 -242 2q-35 0 -49.5 -6t-18.5 -22q-2 -12 6.5 -21.5t37.5 -23.5l116 -55q82 -39 108.5 -87t17.5 -128 q-13 -118 -75 -160.5t-213 -42.5q-133 0 -269 35z" />
<glyph unicode="&#x406;" horiz-adv-x="329" d="M16 0l97 690h215l-97 -690h-215z" />
<glyph unicode="&#x407;" horiz-adv-x="322" d="M12 0l97 690h216l-97 -690h-216zM64 796l11 73q4 35 39 35h77q36 0 30 -33l-11 -76q-4 -32 -35 -32h-81q-36 0 -30 33zM253 796l11 74q5 34 36 34h80q36 0 30 -33l-11 -75q-2 -18 -10 -25.5t-25 -7.5h-81q-36 0 -30 33z" />
<glyph unicode="&#x408;" horiz-adv-x="399" d="M-24 14l34 134h37q59 0 64 39l73 503h216l-78 -567q-10 -66 -58.5 -101.5t-125.5 -35.5q-42 0 -91 7.5t-71 20.5z" />
<glyph unicode="&#x409;" horiz-adv-x="996" d="M-11 164q3 0 15 1.5l16 2t14.5 3t15 5l13.5 7.5t14 11t11.5 15t11.5 21q39 80 88 315q30 145 183 145h337l-33 -237h45q155 0 209.5 -51.5t35.5 -186.5q-19 -132 -70.5 -177.5t-182.5 -45.5q-210 0 -315 8l77 548h-26q-27 0 -40 -11.5t-20 -42.5q-50 -237 -93 -338 q-31 -75 -78.5 -116.5t-102 -47.5t-117.5 4zM631 142h39q25 0 34 1t20.5 9t16.5 26t9 51q9 55 1.5 74t-47.5 19h-48z" />
<glyph unicode="&#x40a;" horiz-adv-x="976" d="M16 0l97 690h218l-36 -253h149l36 253h213l-36 -253h55q67 0 111 -9.5t77 -35t43.5 -73t0.5 -120.5q-16 -121 -66 -164t-174 -43q-216 0 -320 8h-1l41 295h-149l-41 -295h-218zM616 142h46q35 0 48.5 12.5t19.5 63.5q8 42 0.5 60t-44.5 18h-48z" />
<glyph unicode="&#x40b;" horiz-adv-x="798" d="M43 528l22 162h598l-22 -162h-191l-14 -104q86 40 183 40q93 0 127.5 -44.5t23.5 -139.5l-39 -280h-217l34 241q4 29 -6 37.5t-42 8.5q-49 0 -86 -17l-38 -270h-218l74 528h-189z" />
<glyph unicode="&#x40c;" horiz-adv-x="676" d="M16 0l97 690h217l-26 -178q-4 -35 -18 -84h20q61 0 89 44t88 218h225q-76 -189 -89 -216q-34 -67 -79 -90q-31 -15 -91 -23l-1 -6q35 -6 56 -12t39 -22t27 -33.5t19 -58t16.5 -82t17.5 -118.5q3 -19 4 -29h-222q-25 201 -30 224q-12 49 -38 59q-14 5 -44 5h-29 q5 -36 0 -67l-31 -221h-217zM316 806l247 156l66 -146l-266 -96z" />
<glyph unicode="&#x40d;" horiz-adv-x="735" d="M16 0l97 690h208l-41 -293q-6 -45 -33 -131h8q30 69 60 113l213 311h206l-97 -690h-206l45 309q9 57 29 117h-7q-33 -73 -56 -106l-217 -320h-209zM217 826l80 130l235 -150l-67 -86z" />
<glyph unicode="&#x40e;" horiz-adv-x="622" d="M37 1l32 147q40 -1 69 -1t49 2.5t33 10t20 20.5l6 12h-34q-85 0 -97 98l-68 400h217l31 -329q1 -17 15 -17h7l138 346h227l-219 -507q-45 -103 -88 -146.5t-119 -50.5q-74 -8 -219 15zM214 913l98 5q-5 -31 12 -43t61 -12q85 0 91 57l94 -15q2 -70 -51 -119t-143 -49 q-91 0 -137.5 53.5t-24.5 122.5z" />
<glyph unicode="&#x40f;" horiz-adv-x="717" d="M16 0l97 690h218l-77 -548h167l77 548h218l-97 -690h-216l-29 -151h-148l13 151h-223z" />
<glyph unicode="&#x410;" horiz-adv-x="678" d="M-49 0l266 638q20 52 76 52h196q26 0 46 -17.5t23 -42.5l89 -630h-217l-12 146h-188l-54 -146h-225zM289 304h117l-12 149q-3 26 -1 77h-28q-7 -41 -20 -75z" />
<glyph unicode="&#x411;" horiz-adv-x="643" d="M15 0l97 690q116 8 264 8q117 0 256 -8l-38 -155h-286l-16 -112h59q158 0 217.5 -49.5t41.5 -173.5q-17 -120 -74.5 -164t-188.5 -44q-221 0 -332 8zM252 142h53q51 0 67.5 14t23.5 68q5 43 -5.5 55.5t-53.5 12.5h-64z" />
<glyph unicode="&#x412;" horiz-adv-x="661" d="M15 0l97 690q98 8 283 8q142 0 197 -40.5t41 -147.5q-10 -74 -41 -108.5t-101 -40.5l-1 -6q153 -13 128 -191q-14 -100 -73 -136t-193 -36q-225 0 -337 8zM247 142h63q48 0 66 15.5t25 66.5q6 42 -4 55t-48 13h-81zM286 423h67q38 0 52 13.5t21 58.5q5 30 -3.5 41.5 t-34.5 11.5h-84z" />
<glyph unicode="&#x413;" horiz-adv-x="543" d="M13 0l76 541q10 69 55.5 111t110.5 42q242 0 334 -15l-24 -151h-215q-25 0 -36.5 -8.5t-14.5 -31.5l-69 -488h-217z" />
<glyph unicode="&#x414;" horiz-adv-x="790" d="M-50 -151q22 156 39 293h72q46 95 77 185t66 218q40 145 193 145h342l-77 -548h95q-15 -124 -39 -293h-157l6 151h-423l-35 -151h-159zM296 142h150l58 406h-31q-27 0 -42 -12t-23 -44q-28 -114 -52.5 -194.5t-59.5 -155.5z" />
<glyph unicode="&#x415;" horiz-adv-x="590" d="M35 184l50 357q10 71 56 112t121 41q248 0 348 -14l-24 -152h-240q-26 0 -37 -9t-14 -31l-9 -63h249l-18 -144h-251l-11 -80q-6 -39 37 -39h240l-4 -154q-89 -12 -338 -12q-84 0 -125 52t-30 136z" />
<glyph unicode="&#x416;" horiz-adv-x="961" d="M-37 0q30 72 45 107.5t35.5 79.5t30 61.5t27 41.5t27.5 30.5t30 16.5t36.5 13t44.5 8l1 6q-81 17 -101 55t-42 189q-7 52 -12 82h216q6 -41 14 -106q13 -103 23 -129.5t41 -26.5h34q-5 48 1 92l24 170h207l-26 -178q-8 -52 -18 -84h8q12 0 21 1.5t17.5 7t14.5 10.5 t14.5 18.5t14 25t15.5 35t18 43t22.5 55t27.5 66.5h224q-14 -34 -33.5 -80t-28 -67t-22.5 -51t-21 -42t-20.5 -30t-23.5 -24t-27 -14.5t-35 -12.5t-43 -7l-1 -6q28 -5 45.5 -9.5t32.5 -18.5t22.5 -26t16.5 -46t14 -61.5t16 -90.5q11 -65 18 -104h-219q-9 58 -20 142 q-14 102 -23 124t-41 22h-23q3 -34 -3 -67l-31 -221h-208l32 229q5 30 16 59h-19q-16 0 -26.5 -5t-23 -18t-28 -45t-35.5 -77t-54 -122q-1 -3 -2 -5l-2.5 -5t-2.5 -5.5t-2 -5.5h-230z" />
<glyph unicode="&#x417;" horiz-adv-x="583" d="M-11 31l23 139q135 -22 225 -22q41 0 59 16.5t24 59.5q6 40 -4.5 52.5t-46.5 12.5h-150l17 137h140q39 0 51.5 14t18.5 55q4 29 -7 38t-43 9q-84 0 -208 -15l-9 149q110 22 248 22q144 0 197 -40.5t38 -147.5q-10 -74 -41 -108.5t-99 -40.5l-1 -6q139 -13 114 -191 q-14 -100 -70 -136t-181 -36q-172 0 -295 39z" />
<glyph unicode="&#x418;" horiz-adv-x="735" d="M16 0l97 690h208l-41 -293q-6 -45 -33 -131h8q30 69 60 113l213 311h206l-97 -690h-206l45 309q9 57 29 117h-7q-33 -73 -56 -106l-217 -320h-209z" />
<glyph unicode="&#x419;" horiz-adv-x="735" d="M16 0l97 690h208l-41 -293q-6 -45 -33 -131h8q30 69 60 113l213 311h206l-97 -690h-206l45 309q9 57 29 117h-7q-33 -73 -56 -106l-217 -320h-209zM266 909h129q-13 -45 -0.5 -60.5t39.5 -15.5q65 0 65 76h123q2 -72 -50.5 -122t-138.5 -50q-95 0 -142 50.5t-25 121.5z " />
<glyph unicode="&#x41a;" horiz-adv-x="676" d="M16 0l97 690h217l-26 -178q-4 -35 -18 -84h20q61 0 89 44t88 218h225q-76 -189 -89 -216q-34 -67 -79 -90q-31 -15 -91 -23l-1 -6q35 -6 56 -12t39 -22t27 -33.5t19 -58t16.5 -82t17.5 -118.5q3 -19 4 -29h-222q-25 201 -30 224q-12 49 -38 59q-14 5 -44 5h-29 q5 -36 0 -67l-31 -221h-217z" />
<glyph unicode="&#x41b;" horiz-adv-x="711" d="M-26 164q1 0 19 2t21.5 3t18 5.5t20.5 10.5t16 17.5t17 27.5q39 81 89 315q32 145 186 145h349l-97 -690h-217l77 548h-29q-31 0 -45 -11.5t-21 -42.5q-55 -251 -97 -338q-53 -111 -125 -145t-174 -15z" />
<glyph unicode="&#x41c;" horiz-adv-x="954" d="M3 0l111 619q7 37 25 54t54 17h184q34 0 54 -19t21 -52l12 -274q3 -46 -2 -103h10q8 38 25 101l84 284q17 63 86 63h193q37 0 56 -21t15 -58l-62 -611h-195l54 528h-14l-116 -356q-18 -62 -87 -62h-110q-35 0 -55.5 18.5t-21.5 51.5l-19 348h-16l-91 -528h-195z" />
<glyph unicode="&#x41d;" horiz-adv-x="713" d="M16 0l97 690h217l-35 -247h165l35 247h217l-97 -690h-217l41 289h-165l-41 -289h-217z" />
<glyph unicode="&#x41e;" d="M41 353q15 106 40 173.5t68.5 107t99.5 55t140 15.5q71 0 121 -10.5t89 -36t57.5 -67.5t25.5 -104.5t-7 -148.5q-14 -107 -40 -175t-70 -107t-101 -54t-142 -15q-123 0 -188.5 32.5t-89 112.5t-3.5 222zM268 337q-18 -119 -6.5 -154.5t65.5 -35.5q56 0 78 38.5t42 167.5 q17 118 5.5 154t-65.5 36t-76.5 -38.5t-42.5 -167.5z" />
<glyph unicode="&#x41f;" horiz-adv-x="714" d="M16 0l97 690h600l-97 -690h-218l77 548h-164l-77 -548h-218z" />
<glyph unicode="&#x420;" horiz-adv-x="642" d="M15 0l97 690q100 10 278 10q161 0 219 -52t40 -191q-18 -131 -76.5 -178t-196.5 -47q-48 0 -111 7l-34 -239h-216zM285 385h72q41 0 55.5 15t22.5 73q6 43 -4 58.5t-46 15.5h-77z" />
<glyph unicode="&#x421;" horiz-adv-x="603" d="M41 353q15 106 38.5 172t65.5 106.5t99.5 55.5t146.5 15q128 0 227 -28l-25 -157q-146 2 -213 2q-38 0 -57 -11.5t-32 -50t-24 -120.5q-15 -102 -6 -134t63 -32q136 0 221 8l8 -159q-103 -32 -239 -32q-175 0 -238 81.5t-35 283.5z" />
<glyph unicode="&#x422;" horiz-adv-x="618" d="M43 528l23 162h598l-23 -162h-191l-74 -528h-217l74 528h-190z" />
<glyph unicode="&#x423;" horiz-adv-x="622" d="M37 1l32 147q40 -1 69 -1t49 2.5t33 10t20 20.5l6 12h-34q-85 0 -97 98l-68 400h217l31 -329q1 -17 15 -17h7l138 346h227l-219 -507q-45 -103 -88 -146.5t-119 -50.5q-74 -8 -219 15z" />
<glyph unicode="&#x424;" horiz-adv-x="876" d="M25 353q20 147 98 208t255 71l10 72h218l-10 -74q167 -14 228.5 -80.5t41.5 -212.5q-20 -147 -97.5 -208t-254.5 -71l-10 -72h-218l10 74q-168 14 -229.5 80t-41.5 213zM246 337q-9 -71 5.5 -96t75.5 -31l40 269q-68 -7 -90 -35t-31 -107zM525 211q67 7 89 35.5t31 106.5 q9 68 -6.5 94t-73.5 33z" />
<glyph unicode="&#x425;" horiz-adv-x="672" d="M-46 0l218 352l-104 338h209l71 -268l151 268h221l-204 -338l117 -352h-213l-75 284l-161 -284h-230z" />
<glyph unicode="&#x426;" horiz-adv-x="753" d="M16 0l97 690h218l-77 -548h154l77 548h217l-77 -548h95q-20 -140 -41 -293h-157l6 151h-512z" />
<glyph unicode="&#x427;" horiz-adv-x="690" d="M49 400l41 290h218l-36 -251q-4 -29 7.5 -38t40.5 -9q64 0 113 17l39 281h217l-97 -690h-217l36 258q-100 -42 -180 -42q-105 0 -149.5 45.5t-32.5 138.5z" />
<glyph unicode="&#x428;" horiz-adv-x="1015" d="M16 0l97 690h211l-77 -548h134l77 548h211l-77 -548h134l77 548h211l-97 -690h-901z" />
<glyph unicode="&#x429;" horiz-adv-x="1066" d="M16 0l97 690h212l-77 -548h134l77 548h211l-77 -548h134l77 548h212l-77 -548h94q-20 -140 -41 -293h-157l6 151h-825z" />
<glyph unicode="&#x42a;" horiz-adv-x="786" d="M41 528l22 162h427l-33 -237h50q157 0 212 -51.5t36 -186.5q-19 -132 -71 -177.5t-185 -45.5q-217 0 -323 8l74 528h-209zM413 142h44q26 0 35.5 1t21.5 9t17 26t9 51q9 55 1.5 74t-50.5 19h-53z" />
<glyph unicode="&#x42b;" horiz-adv-x="951" d="M16 0l97 690h217l-33 -237h49q156 0 211 -51.5t36 -186.5q-19 -132 -70.5 -177.5t-183.5 -45.5q-218 0 -323 8zM253 142h43q26 0 35 1t21 9t17 26t9 51q9 55 1.5 74t-49.5 19h-52zM636 0l97 690h217l-97 -690h-217z" />
<glyph unicode="&#x42c;" horiz-adv-x="631" d="M16 0l97 690h217l-33 -237h53q158 0 213.5 -51.5t36.5 -186.5q-19 -132 -71.5 -177.5t-186.5 -45.5q-220 0 -326 8zM253 142h46q27 0 37 1t22.5 9t17.5 26t9 51q9 55 1 74t-52 19h-56z" />
<glyph unicode="&#x42d;" horiz-adv-x="602" d="M-9 22l25 157q71 -8 210 -8q54 0 78.5 23t38.5 87h-264l16 144h270q4 55 -10.5 74.5t-55.5 19.5q-77 0 -215 -2l-8 159q96 26 225 26q173 0 238 -83.5t38 -281.5q-26 -194 -101.5 -271.5t-239.5 -77.5q-152 0 -245 34z" />
<glyph unicode="&#x42e;" horiz-adv-x="1017" d="M16 0l97 690h218l-37 -263h99q32 160 103 218.5t219 58.5q166 0 235 -85t42 -282q-15 -106 -39.5 -173t-67.5 -107t-101 -55.5t-146 -15.5q-155 0 -216.5 64.5t-48.5 234.5h-99l-40 -285h-218zM591 337q-16 -118 -4.5 -154t61.5 -36q56 0 78 38.5t39 167.5 q16 118 5.5 154t-62.5 36q-57 0 -78 -37.5t-39 -168.5z" />
<glyph unicode="&#x42f;" horiz-adv-x="675" d="M-28 0l84 216q33 91 136 104l1 5q-73 10 -101 63t-17 130q15 108 84 145t216 37q199 0 299 -10l-97 -690h-218l35 252h-43q-30 0 -46 -11.5t-26 -39.5l-71 -201h-236zM290 483q-7 -48 5 -63t53 -15h68l20 142h-70q-39 0 -54.5 -12.5t-21.5 -51.5z" />
<glyph unicode="&#x430;" horiz-adv-x="616" d="M25 264q9 58 24 100.5t38.5 69.5t47.5 43.5t62.5 24.5t71.5 10t85 2t133 -10.5t110 -21.5l-68 -482h-162l-2 97q-67 -100 -195 -109q-70 -5 -107.5 28.5t-43.5 96.5t6 151zM239 270q-14 -95 -6 -111q5 -12 27 -10q42 3 93 77l21 151h-46q-37 0 -58 -20.5t-31 -86.5z" />
<glyph unicode="&#x431;" horiz-adv-x="612" d="M40 326q11 79 24.5 132.5t38 103.5t63.5 81.5t96 48.5q63 19 175 27t147 13l18 -164q-64 -14 -145.5 -16t-118.5 -12q-63 -16 -91 -46q-26 -27 -38 -65q65 53 166 53q130 0 175 -56.5t27 -186.5q-18 -132 -84 -191.5t-202 -59.5q-60 0 -105 9.5t-74.5 24t-47.5 40.5 t-26.5 50.5t-9.5 64t2 70.5t10 79zM243 241q-11 -72 -6 -91.5t36 -19.5q39 0 57 25.5t29 101.5q7 49 7 68.5t-7 28t-28 8.5q-42 0 -60 -24t-28 -97z" />
<glyph unicode="&#x432;" horiz-adv-x="599" d="M22 273q19 136 93.5 191.5t232.5 49.5q123 -5 176 -42.5t45 -106.5q-5 -42 -40 -71.5t-106 -33.5l-1 -5q159 -9 137 -139q-12 -76 -73 -103t-189 -27q-176 0 -236 68t-39 219zM226 202q-5 -48 5.5 -64t50.5 -16t55 8t19 35q4 25 -8.5 34t-48.5 7zM241 305l64 4 q33 2 49 8.5t20 23.5q5 21 -6 29t-45 8q-43 0 -59.5 -18.5t-22.5 -54.5z" />
<glyph unicode="&#x433;" horiz-adv-x="552" d="M1 156q6 63 43.5 97t104.5 50l118 28q6 1 15.5 3.5t14.5 3.5t12 3t11 3.5t7.5 4t4.5 5t1 6.5q-1 9 -16 10.5t-56 -0.5q-48 -1 -198 -16l-4 117q107 43 251 43q109 0 169 -34.5t57 -113.5q-4 -126 -166 -162l-111 -25q-36 -8 -47 -13.5t-11 -13.5q0 -12 18.5 -15t77.5 1 q121 8 184 17l17 -125q-43 -14 -67 -20.5t-71.5 -13.5t-101.5 -7q-138 0 -202 39.5t-55 127.5z" />
<glyph unicode="&#x434;" horiz-adv-x="606" d="M22 222q16 122 75 176.5t164 54.5q62 0 104 -22q-10 65 -66 104.5t-181 62.5l28 131q249 -20 353 -135t78 -311q-22 -165 -95 -231t-218 -66q-129 0 -193.5 58.5t-48.5 177.5zM242 220q-10 -52 -3 -71t41 -19q35 0 48.5 31.5t30.5 136.5l2 15q-21 8 -42 8 q-37 0 -52.5 -22.5t-24.5 -78.5z" />
<glyph unicode="&#x435;" horiz-adv-x="590" d="M21 254q8 79 31 131t63.5 79.5t90 38.5t120.5 11q150 0 206 -46t42 -140q-9 -65 -57.5 -90.5t-155.5 -33.5l-125 -9q1 -28 16.5 -37t54.5 -9q109 0 205 11l14 -128q-95 -44 -237 -44q-84 0 -140 17t-86 52t-39.5 82.5t-2.5 114.5zM249 297l57 6q36 3 50.5 11.5t17.5 34.5 q2 17 -7.5 24t-38.5 6q-37 -1 -53 -17t-26 -65z" />
<glyph unicode="&#x436;" horiz-adv-x="853" d="M-37 0q79 167 95 191q26 42 63 54q17 5 81 14l1 6q-68 9 -85 21q-24 17 -38 84q-3 16 -24 130h199q23 -138 30 -156q9 -19 32 -20h10h24q-5 32 1 69l15 107h183l-17 -110q-4 -29 -14 -66h6q41 0 57 22t74 154h210q-76 -157 -95 -184q-27 -40 -67 -48q-17 -3 -55 -5l-1 -6 q62 -13 76 -22q29 -18 50 -91q11 -42 32 -144h-200q-33 156 -40 173q-16 20 -35 21h-30q3 -23 0 -44l-18 -150h-184l21 151q4 24 10 43h-25q-15 0 -24 -4.5t-24 -26.5t-31.5 -56.5t-49.5 -106.5h-213z" />
<glyph unicode="&#x437;" horiz-adv-x="532" d="M-15 11l20 133q115 -12 209 -12q37 0 50.5 5.5t14.5 26.5q2 18 -7 24t-32 7h-171l14 116h162q43 0 49 28q2 18 -6.5 22t-42.5 4q-67 0 -187 -10l-7 135q91 24 213 24q142 0 195.5 -28.5t41.5 -117.5q-7 -50 -34 -76.5t-90 -31.5l-1 -5q127 -9 109 -138q-5 -36 -18.5 -60 t-32 -38t-50 -21.5t-63 -9.5t-81.5 -2q-151 0 -255 25z" />
<glyph unicode="&#x438;" horiz-adv-x="618" d="M20 130l51 370h211l-45 -311q-4 -27 23 -27q39 0 89 37l43 301h208l-69 -500h-164l-4 85q-102 -99 -204 -99q-78 0 -113.5 37.5t-25.5 106.5z" />
<glyph unicode="&#x439;" horiz-adv-x="618" d="M20 130l51 370h211l-45 -311q-4 -27 23 -27q39 0 89 37l43 301h208l-69 -500h-164l-4 85q-102 -99 -204 -99q-78 0 -113.5 37.5t-25.5 106.5zM168 721h129q-13 -45 -0.5 -60.5t39.5 -15.5q65 0 65 76h123q2 -72 -50.5 -122t-138.5 -50q-95 0 -142 50.5t-25 121.5z" />
<glyph unicode="&#x43a;" horiz-adv-x="592" d="M6 0l70 500h209l-16 -113q-6 -38 -14 -62h10q41 0 57 23.5t62 151.5h219q-8 -19 -22 -52q-22 -53 -31 -73.5t-24 -47t-21 -32.5t-25 -16t-32 -11.5t-45 -6.5q-5 -1 -7 -1l-1 -6q65 -11 77 -17q25 -13 39 -68q7 -29 30 -169h-213q-19 140 -27 165.5t-36 25.5h-30 q5 -24 2 -43l-22 -148h-209z" />
<glyph unicode="&#x43b;" horiz-adv-x="625" d="M-19 153q17 1 26 2t23 4.5t23 12.5t14 24q26 76 50 182q14 63 52.5 92.5t108.5 29.5h329l-70 -500h-209l50 364h-17q-21 0 -30.5 -9t-16.5 -34q-26 -90 -54 -197q-16 -62 -60 -96.5t-97.5 -37.5t-111.5 6z" />
<glyph unicode="&#x43c;" horiz-adv-x="822" d="M-1 0l70 421q5 42 24 60.5t58 18.5h165q69 0 72 -69l6 -147q0 -19 -4 -85h10q13 70 17 84l49 156q16 61 81 61h176q74 0 67 -75l-49 -425h-190l39 348h-10l-72 -215q-18 -60 -82 -60h-80q-33 0 -52.5 18t-20.5 50l-18 207h-9l-57 -348h-190z" />
<glyph unicode="&#x43d;" horiz-adv-x="626" d="M6 0l70 500h207l-24 -170h119l24 170h206l-70 -500h-206l27 195h-119l-27 -195h-207z" />
<glyph unicode="&#x43e;" horiz-adv-x="615" d="M21 257q20 143 87.5 200t218.5 57q153 0 214.5 -63t40.5 -210q-20 -141 -87.5 -197t-216.5 -56q-152 0 -215 62.5t-42 206.5zM240 241q-10 -69 -1.5 -90t47.5 -21q38 0 52.5 23.5t26.5 103.5q11 71 3 93t-45 22q-40 0 -55.5 -24.5t-27.5 -106.5z" />
<glyph unicode="&#x43f;" horiz-adv-x="625" d="M6 0l69 500h164l5 -88q48 48 106 75t113 27q65 0 102.5 -37.5t27.5 -106.5l-52 -370h-211l43 302q3 21 -2.5 29t-24.5 6q-41 -4 -88 -40l-42 -297h-210z" />
<glyph unicode="&#x440;" horiz-adv-x="618" d="M-19 -180l94 680h167v-88q96 100 201 100q86 0 121.5 -70t18.5 -206q-10 -75 -30.5 -126t-52 -77t-67 -36.5t-83.5 -10.5q-67 0 -138 13q0 -47 -7 -93l-14 -86h-210zM234 113h46q48 0 62.5 21t25.5 96q7 50 7 75t-6.5 35.5t-22.5 10.5q-42 0 -89 -47z" />
<glyph unicode="&#x441;" horiz-adv-x="536" d="M21 259q19 137 81.5 196t200.5 59t229 -39l-28 -128h-176q-44 0 -62 -20t-26 -74q-9 -61 3.5 -80t58.5 -19q105 0 168 7l15 -133q-84 -40 -220 -40q-137 0 -200.5 64.5t-43.5 206.5z" />
<glyph unicode="&#x442;" horiz-adv-x="890" d="M6 0l70 500h163l6 -71q88 85 182 85q104 0 127 -72q81 72 170 72q74 0 109 -38t25 -106l-52 -370h-208l43 311q4 26 -19 26q-29 0 -72 -30l-43 -307h-201l43 311q5 26 -19 26q-30 0 -73 -28l-42 -309h-209z" />
<glyph unicode="&#x443;" horiz-adv-x="621" d="M-13 -206l15 133q138 -21 223 73h-72q-24 0 -41.5 15t-20.5 38l-61 447h230l7 -358q0 -16 16 -16h22q37 75 58 157.5t40 216.5h225q-31 -163 -65 -262.5t-112 -226.5q-18 -29 -33.5 -51t-41 -51.5t-51 -49.5t-62.5 -39.5t-76.5 -28.5t-91 -9t-108.5 12z" />
<glyph unicode="&#x444;" horiz-adv-x="779" d="M21 257q18 128 88 186.5t220 68.5l25 188h185l-26 -191q139 -15 195 -78.5t38 -189.5t-88 -183.5t-219 -67.5l-23 -170h-185l23 173q-141 14 -196 76t-37 188zM219 251q-8 -62 5 -89.5t59 -36.5l36 252q-50 -8 -71 -35t-29 -91zM448 125q50 8 71 35t29 89q8 63 -5 90.5 t-59 36.5z" />
<glyph unicode="&#x445;" horiz-adv-x="604" d="M-45 0l181 255l-97 245h194l65 -175l119 175h210l-169 -245l106 -255h-197l-71 186l-125 -186h-216z" />
<glyph unicode="&#x446;" horiz-adv-x="663" d="M20 130l52 370h211l-45 -311q-2 -15 4 -21t19 -6q39 0 88 37l43 301h209l-51 -359q-1 -10 5 -16.5t16 -6.5h57q-15 -104 -39 -267h-172l49 149h-13q-35 0 -60.5 24t-29.5 61q-102 -99 -204 -99q-77 0 -113 37.5t-26 106.5z" />
<glyph unicode="&#x447;" horiz-adv-x="605" d="M28 291l33 209h208l-24 -177q-6 -32 30 -32q33 0 76 14l27 195h209l-70 -500h-209l23 163q-62 -22 -135 -22q-97 0 -138.5 34t-29.5 116z" />
<glyph unicode="&#x448;" horiz-adv-x="890" d="M20 130l52 370h209l-44 -311q-4 -26 19 -26q30 0 74 32l43 305h197l-43 -311q-5 -26 19 -26q31 0 75 30l42 307h209l-70 -500h-163l-6 72q-87 -86 -184 -86q-101 0 -124 73q-80 -73 -171 -73q-74 0 -109 38t-25 106z" />
<glyph unicode="&#x449;" horiz-adv-x="932" d="M20 130l52 370h209l-43 -311q-5 -26 18 -26q30 0 74 32l43 305h197l-43 -311q-4 -26 19 -26q31 0 73 29l43 308h209l-50 -359q-1 -10 4.5 -16.5t15.5 -6.5h56q-15 -104 -38 -267h-172l48 149h-14q-32 0 -56 20.5t-30 54.5q-89 -89 -185 -89q-102 0 -125 73 q-80 -73 -171 -73q-74 0 -109 38t-25 106z" />
<glyph unicode="&#x44a;" horiz-adv-x="662" d="M18 350l20 150h395l-42 -163q28 6 65 6q111 -3 148 -38.5t23 -143.5q-13 -100 -70.5 -136t-180.5 -36q-35 0 -65 3t-62 10.5t-52.5 21.5t-38 35.5t-18 52t8.5 71.5l47 167h-178zM345 160q-10 -32 30 -32q23 0 31 9.5t14 38.5q7 34 2.5 42.5t-27.5 8.5q-20 0 -33 -3z" />
<glyph unicode="&#x44b;" horiz-adv-x="829" d="M24 162l47 338h202l-24 -169q43 12 87 12q111 -3 148 -38.5t23 -143.5q-13 -100 -70.5 -136t-180.5 -36q-59 0 -99 6t-75 23.5t-49.5 53t-8.5 90.5zM225 160q-3 -17 6 -24.5t27 -7.5q21 0 30 10.5t13 37.5q5 34 1 42.5t-27 8.5q-24 0 -41 -4zM530 0l70 500h211l-70 -500 h-211z" />
<glyph unicode="&#x44c;" horiz-adv-x="547" d="M24 162l47 338h202l-24 -169q43 12 88 12q113 -3 151 -38.5t24 -143.5q-13 -100 -70.5 -136.5t-182.5 -36.5q-59 0 -99.5 6t-76 23.5t-50.5 53.5t-9 91zM224 160q-2 -17 7 -24.5t29 -7.5q23 0 32 10t14 38q5 34 0.5 42.5t-28.5 8.5q-27 0 -45 -5z" />
<glyph unicode="&#x44d;" horiz-adv-x="561" d="M-12 21l21 127q85 -4 184 -4q63 0 84.5 8t30.5 41h-248l14 120h248q0 29 -12.5 37t-51.5 8q-109 -1 -202 -1l-10 127q97 30 235 30q146 0 204 -64t42 -210q-16 -148 -86 -201t-223 -53q-141 0 -230 35z" />
<glyph unicode="&#x44e;" horiz-adv-x="869" d="M6 0l70 500h210l-25 -177h70q25 113 83 152t179 39q50 0 86.5 -5t68 -17t49.5 -32t31.5 -50.5t13 -72t-6.5 -97.5q-21 -150 -83 -200.5t-208 -50.5q-129 0 -182 42t-49 156h-71l-26 -187h-210zM509 251q-9 -72 -1.5 -89.5t41.5 -17.5t46.5 19.5t21.5 85.5q9 72 2 91 t-39 19q-35 0 -48 -20t-23 -88z" />
<glyph unicode="&#x44f;" horiz-adv-x="593" d="M-24 0l49 155q20 65 109 65l1 6q-111 31 -93 141q16 95 78 121t232 26q160 0 225 -8l-71 -506h-204l22 157h-41q-44 0 -53 -33l-38 -124h-216zM243 331q-5 -28 3.5 -39.5t39.5 -11.5h55l13 90h-62q-26 0 -35.5 -7.5t-13.5 -31.5z" />
<glyph unicode="&#x451;" horiz-adv-x="590" d="M21 254q8 79 31 131t63.5 79.5t90 38.5t120.5 11q150 0 206 -46t42 -140q-9 -65 -57.5 -90.5t-155.5 -33.5l-125 -9q1 -28 16.5 -37t54.5 -9q109 0 205 11l14 -128q-95 -44 -237 -44q-84 0 -140 17t-86 52t-39.5 82.5t-2.5 114.5zM183 608l11 73q4 35 39 35h77 q36 0 30 -33l-11 -76q-4 -32 -35 -32h-81q-36 0 -30 33zM249 297l57 6q36 3 50.5 11.5t17.5 34.5q2 17 -7.5 24t-38.5 6q-37 -1 -53 -17t-26 -65zM372 608l11 74q5 34 36 34h80q36 0 30 -33l-11 -75q-2 -18 -10 -25.5t-25 -7.5h-81q-36 0 -30 33z" />
<glyph unicode="&#x452;" horiz-adv-x="632" d="M27 0l65 467h-61l12 90h62l20 143h211l-21 -143h169l-13 -90h-169l-2 -17q-8 -60 -25 -108q96 82 187 82q78 0 114 -37.5t26 -106.5l-39 -280h-211l32 215q2 18 -4.5 25t-25.5 7q-39 0 -88 -34l-28 -213h-211z" />
<glyph unicode="&#x453;" horiz-adv-x="552" d="M1 156q6 63 43.5 97t104.5 50l118 28q6 1 15.5 3.5t14.5 3.5t12 3t11 3.5t7.5 4t4.5 5t1 6.5q-1 9 -16 10.5t-56 -0.5q-48 -1 -198 -16l-4 117q107 43 251 43q109 0 169 -34.5t57 -113.5q-4 -126 -166 -162l-111 -25q-36 -8 -47 -13.5t-11 -13.5q0 -12 18.5 -15t77.5 1 q121 8 184 17l17 -125q-43 -14 -67 -20.5t-71.5 -13.5t-101.5 -7q-138 0 -202 39.5t-55 127.5zM205 618l247 156l66 -146l-266 -96z" />
<glyph unicode="&#x454;" horiz-adv-x="561" d="M21 256q8 82 33.5 135.5t68.5 79t87 34.5t107 9q149 0 240 -32l-22 -126h-210q-40 0 -57.5 -8t-26.5 -35h249l-14 -120h-249q2 -28 18 -38.5t51 -10.5q121 0 201 4l10 -131q-81 -31 -207 -31q-170 0 -231 67.5t-48 202.5z" />
<glyph unicode="&#x455;" horiz-adv-x="548" d="M-3 11l17 121h168q76 0 99 3t25 13q1 7 -9 12t-45 15l-105 30q-131 37 -111 171q10 70 63.5 104t178.5 34q148 0 252 -23l-17 -121h-191q-56 0 -71 -1.5t-16 -8.5q-2 -8 8.5 -13.5t40.5 -13.5l109 -29q129 -35 114 -158q-11 -93 -71.5 -125t-182.5 -32q-133 0 -256 22z " />
<glyph unicode="&#x456;" horiz-adv-x="310" d="M10 0l69 500h209l-69 -500h-209zM96 620l7 51q6 58 69 58h81q67 0 60 -66l-7 -51q-7 -58 -69 -58h-82q-66 0 -59 66z" />
<glyph unicode="&#x457;" horiz-adv-x="306" d="M7 0l70 500h211l-70 -500h-211zM22 608l11 73q4 35 39 35h77q36 0 30 -33l-11 -76q-4 -32 -35 -32h-81q-36 0 -30 33zM211 608l11 74q5 34 36 34h80q36 0 30 -33l-11 -75q-2 -18 -10 -25.5t-25 -7.5h-81q-36 0 -30 33z" />
<glyph unicode="&#x458;" horiz-adv-x="311" d="M-71 -95q77 72 89 157l63 438h210l-65 -446q-10 -80 -58.5 -148t-123.5 -98zM94 620l7 51q7 58 72 58h79q68 0 59 -66l-7 -51q-7 -58 -71 -58h-79q-67 0 -60 66z" />
<glyph unicode="&#x459;" horiz-adv-x="842" d="M-22 140q63 5 86 46q24 41 60 203q13 56 48.5 83.5t99.5 27.5h303l-24 -169q43 12 88 12q109 -3 145 -38.5t22 -143.5q-13 -96 -70.5 -131.5t-179.5 -35.5q-58 0 -97 6t-73 23t-47.5 51.5t-7.5 87.5l30 214h-13q-21 0 -30.5 -7t-14.5 -27q-47 -184 -64 -223 q-20 -46 -48.5 -75t-60 -39.5t-69 -12.5t-74.5 5zM527 160q-4 -32 32 -32q20 0 28 10t12 38q5 34 1 42.5t-24 8.5q-24 0 -40 -4z" />
<glyph unicode="&#x45a;" horiz-adv-x="839" d="M6 0l70 500h190l-24 -175h109l24 175h197l-24 -169q43 12 87 12q110 -3 146.5 -38.5t22.5 -143.5q-13 -96 -70.5 -131.5t-179.5 -35.5q-58 0 -97 6t-73 23t-48 51.5t-8 87.5l5 39h-109l-28 -201h-190zM524 160q-4 -32 32 -32q21 0 29 10t12 38q5 34 1 42.5t-25 8.5 q-24 0 -40 -4z" />
<glyph unicode="&#x45b;" horiz-adv-x="631" d="M27 0l65 467h-61l12 90h62l20 143h211l-21 -143h169l-13 -90h-169l-2 -17q-8 -60 -23 -107q95 81 186 81q77 0 113 -37t26 -107l-33 -226q-11 -81 -58.5 -148.5t-121.5 -97.5l-114 97q74 71 86 157l23 159q2 16 -5 21t-25 5q-39 0 -88 -34l-28 -213h-211z" />
<glyph unicode="&#x45c;" horiz-adv-x="592" d="M6 0l70 500h209l-16 -113q-6 -38 -14 -62h10q41 0 57 23.5t62 151.5h219q-8 -19 -22 -52q-22 -53 -31 -73.5t-24 -47t-21 -32.5t-25 -16t-32 -11.5t-45 -6.5q-5 -1 -7 -1l-1 -6q65 -11 77 -17q25 -13 39 -68q7 -29 30 -169h-213q-19 140 -27 165.5t-36 25.5h-30 q5 -24 2 -43l-22 -148h-209zM255 618l247 156l66 -146l-266 -96z" />
<glyph unicode="&#x45d;" horiz-adv-x="618" d="M20 130l51 370h211l-45 -311q-4 -27 23 -27q39 0 89 37l43 301h208l-69 -500h-164l-4 85q-102 -99 -204 -99q-78 0 -113.5 37.5t-25.5 106.5zM119 638l80 130l235 -150l-67 -86z" />
<glyph unicode="&#x45e;" horiz-adv-x="621" d="M-13 -206l15 133q138 -21 223 73h-72q-24 0 -41.5 15t-20.5 38l-61 447h230l7 -358q0 -16 16 -16h22q37 75 58 157.5t40 216.5h225q-31 -163 -65 -262.5t-112 -226.5q-18 -29 -33.5 -51t-41 -51.5t-51 -49.5t-62.5 -39.5t-76.5 -28.5t-91 -9t-108.5 12zM184 721h129 q-13 -45 -0.5 -60.5t39.5 -15.5q65 0 65 76h123q2 -72 -50.5 -122t-138.5 -50q-95 0 -142 50.5t-25 121.5z" />
<glyph unicode="&#x45f;" horiz-adv-x="618" d="M20 130l51 370h211l-45 -311q-4 -27 23 -27q39 0 89 37l43 301h208l-69 -500h-164l-4 85q-102 -99 -204 -99q-78 0 -113.5 37.5t-25.5 106.5zM169 -251l44 212h131l-17 -212h-158z" />
<glyph unicode="&#x490;" horiz-adv-x="559" d="M13 0l76 541q10 69 55.5 111t109.5 42q133 0 198 -2l33 151h145q-26 -170 -49 -315h-231q-18 0 -33 -12t-18 -28l-69 -488h-217z" />
<glyph unicode="&#x491;" horiz-adv-x="489" d="M3 0l53 380q10 69 45 98.5t106 29.5q99 0 147 -2l31 135h145q-23 -154 -47 -296h-184q-38 0 -43 -34l-44 -311h-209z" />
<glyph unicode="&#x4b0;" horiz-adv-x="656" d="M47 690h216l55 -221q8 -36 8 -101h14q7 50 31 99l120 223h230l-241 -388h89l-15 -109h-133l-27 -193h-217l26 193h-133l15 109h94z" />
<glyph unicode="&#x4b1;" horiz-adv-x="653" d="M18 500h216l53 -221q9 -40 7 -101h15q5 48 30 99l117 223h231l-235 -383h84l-16 -124h-132l-23 -173h-218l24 173h-132l16 124h92z" />
<glyph unicode="&#x4b6;" horiz-adv-x="739" d="M50 410l40 280h217l-34 -241q-5 -29 5.5 -37.5t43.5 -8.5q65 0 112 17l38 270h217l-77 -548h94q-18 -140 -41 -293h-156l16 151h-150l38 269q-99 -43 -210 -43q-93 0 -128.5 44.5t-24.5 139.5z" />
<glyph unicode="&#x4b7;" horiz-adv-x="648" d="M28 291l32 209h207l-24 -177q-2 -17 5 -24.5t27 -7.5q32 0 75 14l27 195h209l-51 -364h78l-17 -131h1l-21 -141h-173l47 136h-143l23 163q-62 -22 -135 -22q-97 0 -138 34t-29 116z" />
<glyph unicode="&#x4ba;" horiz-adv-x="686" d="M16 0l97 690h218l-38 -267q100 41 205 41q93 0 128.5 -44.5t23.5 -139.5l-39 -280h-217l34 241q5 29 -5.5 38.5t-43.5 7.5q-66 -4 -107 -16l-38 -271h-218z" />
<glyph unicode="&#x4c0;" horiz-adv-x="330" d="M16 0l97 690h216l-97 -690h-216z" />
<glyph unicode="&#x1e80;" horiz-adv-x="995" d="M74 62v628h213l-27 -427q-1 -20 -4 -60.5t-4 -54.5h17q13 70 28 124l96 358q16 60 77 60h151q29 0 48 -19.5t19 -48.5v-360q0 -42 -2 -114h18q6 59 21 121l92 421h213l-174 -636q-14 -54 -76 -54h-182q-28 0 -49 18t-20 44l7 369q1 24 5 105h-18q-7 -50 -20 -102 l-99 -380q-14 -54 -76 -54h-187q-28 0 -48.5 18t-18.5 44zM350 826l80 130l235 -150l-67 -86z" />
<glyph unicode="&#x1e81;" horiz-adv-x="925" d="M41 501h213l-8 -371h6q15 0 24 15.5t18 50.5t15.5 72t14.5 94.5t12 85.5q3 20 18 36t44 16h172q24 0 40.5 -15t19.5 -38v-317h7q4 0 7.5 1t6.5 3.5t5 5t4 8t3.5 9t3 11t2.5 12l3 13.5t3 15q6 26 20 114q12 79 19 178h208q-27 -236 -83 -372q-15 -36 -30.5 -58.5 t-40.5 -39t-60.5 -23.5t-88.5 -7h-77q-25 0 -42 16.5t-15 39.5v320h-12q-4 -36 -18.5 -117t-23.5 -117q-11 -40 -26.5 -67t-31.5 -42t-42.5 -22.5t-47 -9t-57.5 -1.5h-110q-24 0 -40.5 16t-18.5 40zM287 637l80 130l235 -150l-67 -86z" />
<glyph unicode="&#x1e82;" horiz-adv-x="995" d="M74 62v628h213l-27 -427q-1 -20 -4 -60.5t-4 -54.5h17q13 70 28 124l96 358q16 60 77 60h151q29 0 48 -19.5t19 -48.5v-360q0 -42 -2 -114h18q6 59 21 121l92 421h213l-174 -636q-14 -54 -76 -54h-182q-28 0 -49 18t-20 44l7 369q1 24 5 105h-18q-7 -50 -20 -102 l-99 -380q-14 -54 -76 -54h-187q-28 0 -48.5 18t-18.5 44zM463 806l247 156l66 -146l-266 -96z" />
<glyph unicode="&#x1e83;" horiz-adv-x="925" d="M41 501h213l-8 -371h6q15 0 24 15.5t18 50.5t15.5 72t14.5 94.5t12 85.5q3 20 18 36t44 16h172q24 0 40.5 -15t19.5 -38v-317h7q4 0 7.5 1t6.5 3.5t5 5t4 8t3.5 9t3 11t2.5 12l3 13.5t3 15q6 26 20 114q12 79 19 178h208q-27 -236 -83 -372q-15 -36 -30.5 -58.5 t-40.5 -39t-60.5 -23.5t-88.5 -7h-77q-25 0 -42 16.5t-15 39.5v320h-12q-4 -36 -18.5 -117t-23.5 -117q-11 -40 -26.5 -67t-31.5 -42t-42.5 -22.5t-47 -9t-57.5 -1.5h-110q-24 0 -40.5 16t-18.5 40zM400 617l247 156l66 -146l-266 -96z" />
<glyph unicode="&#x1e84;" horiz-adv-x="995" d="M74 62v628h213l-27 -427q-1 -20 -4 -60.5t-4 -54.5h17q13 70 28 124l96 358q16 60 77 60h151q29 0 48 -19.5t19 -48.5v-360q0 -42 -2 -114h18q6 59 21 121l92 421h213l-174 -636q-14 -54 -76 -54h-182q-28 0 -49 18t-20 44l7 369q1 24 5 105h-18q-7 -50 -20 -102 l-99 -380q-14 -54 -76 -54h-187q-28 0 -48.5 18t-18.5 44zM393 796l11 73q4 35 39 35h77q36 0 30 -33l-11 -76q-4 -32 -35 -32h-81q-36 0 -30 33zM582 796l11 74q5 34 36 34h80q36 0 30 -33l-11 -75q-2 -18 -10 -25.5t-25 -7.5h-81q-36 0 -30 33z" />
<glyph unicode="&#x1e85;" horiz-adv-x="925" d="M41 501h213l-8 -371h6q15 0 24 15.5t18 50.5t15.5 72t14.5 94.5t12 85.5q3 20 18 36t44 16h172q24 0 40.5 -15t19.5 -38v-317h7q4 0 7.5 1t6.5 3.5t5 5t4 8t3.5 9t3 11t2.5 12l3 13.5t3 15q6 26 20 114q12 79 19 178h208q-27 -236 -83 -372q-15 -36 -30.5 -58.5 t-40.5 -39t-60.5 -23.5t-88.5 -7h-77q-25 0 -42 16.5t-15 39.5v320h-12q-4 -36 -18.5 -117t-23.5 -117q-11 -40 -26.5 -67t-31.5 -42t-42.5 -22.5t-47 -9t-57.5 -1.5h-110q-24 0 -40.5 16t-18.5 40zM330 607l11 73q2 19 11 27t28 8h77q36 0 30 -33l-11 -76 q-2 -12 -5.5 -18.5t-10.5 -10t-19 -3.5h-81q-36 0 -30 33zM519 607l11 74q3 19 11 26.5t25 7.5h80q36 0 30 -33l-11 -75q-2 -18 -10 -25.5t-25 -7.5h-81q-36 0 -30 33z" />
<glyph unicode="&#x1ef2;" horiz-adv-x="649" d="M46 690h216l53 -221q9 -40 7 -101h15q5 48 30 99l117 223h231l-295 -481l-29 -209h-218l31 221zM178 826l80 130l235 -150l-67 -86z" />
<glyph unicode="&#x1ef3;" horiz-adv-x="622" d="M30 500h230l8 -358q0 -16 16 -16h24q63 140 96 374h225q-17 -123 -76 -277t-98 -215q-145 -227 -389 -214l-13 113q13 5 39.5 13.5t40 13.5t33.5 14t36 22t31 30h-79q-24 0 -41.5 15t-20.5 38zM134 638l80 130l235 -150l-67 -86z" />
<glyph unicode="&#x2000;" horiz-adv-x="484" />
<glyph unicode="&#x2001;" horiz-adv-x="968" />
<glyph unicode="&#x2002;" horiz-adv-x="484" />
<glyph unicode="&#x2003;" horiz-adv-x="968" />
<glyph unicode="&#x2004;" horiz-adv-x="322" />
<glyph unicode="&#x2005;" horiz-adv-x="242" />
<glyph unicode="&#x2006;" horiz-adv-x="161" />
<glyph unicode="&#x2007;" horiz-adv-x="161" />
<glyph unicode="&#x2008;" horiz-adv-x="121" />
<glyph unicode="&#x2009;" horiz-adv-x="193" />
<glyph unicode="&#x200a;" horiz-adv-x="53" />
<glyph unicode="&#x2010;" horiz-adv-x="382" d="M32 196l18 122h291l-18 -122h-291z" />
<glyph unicode="&#x2011;" horiz-adv-x="382" d="M32 196l18 122h291l-18 -122h-291z" />
<glyph unicode="&#x2012;" horiz-adv-x="382" d="M32 196l18 122h291l-18 -122h-291z" />
<glyph unicode="&#x2013;" horiz-adv-x="532" d="M32 196l18 122h441l-18 -122h-441z" />
<glyph unicode="&#x2014;" horiz-adv-x="822" d="M32 196l18 122h731l-18 -122h-731z" />
<glyph unicode="&#x2018;" horiz-adv-x="222" d="M57 464l8 58q7 49 29 103t49 88l74 -29q-11 -26 -38 -125q28 1 38.5 -13t6.5 -45l-6 -42q-5 -36 -21.5 -50t-50.5 -14h-31q-35 0 -48.5 16t-9.5 53z" />
<glyph unicode="&#x2019;" horiz-adv-x="221" d="M68 594l6 42q5 36 21.5 50t50.5 14h31q35 0 48.5 -16t9.5 -53l-8 -58q-7 -49 -29 -103t-49 -88l-74 29q11 26 38 125q-28 -1 -38.5 13t-6.5 45z" />
<glyph unicode="&#x201a;" horiz-adv-x="232" d="M1 47l6 42q5 36 21.5 50t50.5 14h31q35 0 48.5 -16t9.5 -53l-8 -58q-7 -49 -29 -103t-49 -88l-74 29q11 26 38 125q-28 -1 -38.5 13t-6.5 45z" />
<glyph unicode="&#x201c;" horiz-adv-x="421" d="M57 464l8 58q7 49 29 103t49 88l74 -29q-11 -26 -38 -125q28 1 38.5 -13t6.5 -45l-6 -42q-5 -36 -21.5 -50t-50.5 -14h-31q-35 0 -48.5 16t-9.5 53zM256 464l8 58q7 49 29 103t49 88l74 -29q-11 -26 -38 -125q28 1 38.5 -13t6.5 -45l-6 -42q-5 -36 -21.5 -50t-50.5 -14 h-31q-35 0 -48.5 16t-9.5 53z" />
<glyph unicode="&#x201d;" horiz-adv-x="420" d="M68 594l6 42q5 36 21.5 50t50.5 14h31q35 0 48.5 -16t9.5 -53l-8 -58q-7 -49 -29 -103t-49 -88l-74 29q11 26 38 125q-28 -1 -38.5 13t-6.5 45zM267 594l6 42q5 36 21.5 50t50.5 14h31q35 0 48.5 -16t9.5 -53l-8 -58q-7 -49 -29 -103t-49 -88l-74 29q11 26 38 125 q-28 -1 -38.5 13t-6.5 45z" />
<glyph unicode="&#x201e;" horiz-adv-x="431" d="M1 47l6 42q5 36 21.5 50t50.5 14h31q35 0 48.5 -16t9.5 -53l-8 -58q-7 -49 -29 -103t-49 -88l-74 29q11 26 38 125q-28 -1 -38.5 13t-6.5 45zM200 47l6 42q5 36 21.5 50t50.5 14h31q35 0 48.5 -16t9.5 -53l-8 -58q-7 -49 -29 -103t-49 -88l-74 29q11 26 38 125 q-28 -1 -38.5 13t-6.5 45z" />
<glyph unicode="&#x2020;" horiz-adv-x="487" d="M32 357l20 143h129l-17 -121zM105 -110q6 37 41.5 257t53.5 337l18 207h164l-40 -207q-15 -116 -41.5 -336t-31.5 -258h-164zM348 379l17 121h129l-20 -143z" />
<glyph unicode="&#x2021;" horiz-adv-x="514" d="M3 81l20 143l126 -22l-17 -121h-129zM42 357l20 143h129l-17 -121zM115 -110l40 207l56 403l17 191h164l-37 -191l-58 -403l-18 -207h-164zM316 81l17 121l132 22l-20 -143h-129zM358 379l17 121h129l-20 -143z" />
<glyph unicode="&#x2022;" horiz-adv-x="379" d="M51 267l3 17q10 69 38 93.5t100 24.5h24q66 0 90 -29t16 -97l-3 -17q-11 -74 -38 -100t-95 -26h-27q-69 0 -93.5 30t-14.5 104z" />
<glyph unicode="&#x2026;" horiz-adv-x="921" d="M-12 76l5 41q10 68 81 68h40q36 0 55 -19.5t14 -56.5l-6 -41q-5 -36 -23.5 -52t-56.5 -16h-40q-78 0 -69 76zM321 76l5 41q10 68 81 68h40q36 0 55 -19.5t14 -56.5l-6 -41q-5 -36 -23.5 -52t-56.5 -16h-40q-78 0 -69 76zM654 76l5 41q10 68 81 68h40q36 0 55 -19.5 t14 -56.5l-6 -41q-5 -36 -23.5 -52t-56.5 -16h-40q-78 0 -69 76z" />
<glyph unicode="&#x202f;" horiz-adv-x="193" />
<glyph unicode="&#x2030;" horiz-adv-x="1323" d="M50 506q16 115 58 156.5t139 41.5q102 0 142 -47.5t23 -166.5q-16 -115 -58.5 -156.5t-140.5 -41.5q-101 0 -140.5 47.5t-22.5 166.5zM162 0l477 690h130l-477 -690h-130zM201 490q-8 -60 -5.5 -74.5t22.5 -14.5q21 0 28 17t15 88q6 60 3.5 74.5t-21.5 14.5t-26 -17 t-16 -88zM521 200q16 115 58 156.5t139 41.5q102 0 142 -47.5t23 -166.5q-16 -115 -58.5 -156.5t-140.5 -41.5q-101 0 -140.5 47.5t-22.5 166.5zM672 184q-8 -60 -5.5 -74.5t22.5 -14.5q21 0 28 17t15 88q6 60 3.5 74.5t-21.5 14.5t-26 -17t-16 -88zM923 200 q16 115 58 156.5t139 41.5q102 0 142 -47.5t23 -166.5q-16 -115 -58.5 -156.5t-140.5 -41.5q-101 0 -140.5 47.5t-22.5 166.5zM1074 184q-8 -60 -5.5 -74.5t22.5 -14.5q21 0 28 17t15 88q6 60 3.5 74.5t-21.5 14.5t-26 -17t-16 -88z" />
<glyph unicode="&#x2039;" horiz-adv-x="320" d="M18 227l3 45l162 198l113 -70l-88 -149l62 -154l-110 -72z" />
<glyph unicode="&#x203a;" horiz-adv-x="319" d="M11 95l88 149l-62 155l110 71l142 -201l-3 -45l-162 -199z" />
<glyph unicode="&#x2044;" horiz-adv-x="160" d="M-216 0l475 690h132l-475 -690h-132z" />
<glyph unicode="&#x205f;" horiz-adv-x="242" />
<glyph unicode="&#x20ac;" horiz-adv-x="642" d="M18 221l15 110h475l-25 -110h-170q9 -53 60 -62q38 -5 94.5 -1.5t105.5 12.5l9 -151q-85 -31 -201 -31q-141 0 -213 57t-81 176h-69zM39 361l16 110h62q35 121 114 176t227 55q105 0 185 -28l-25 -147q-22 2 -78.5 3t-98.5 -3q-36 -5 -57 -17t-34 -39h195l-26 -110h-480z " />
<glyph unicode="&#x2122;" horiz-adv-x="995" d="M86 589l15 107h356l-15 -107h-106l-39 -273h-143l39 273h-107zM429 316l59 335q5 25 15.5 35t33.5 10h125q22 0 35.5 -13t14.5 -35l2 -115q0 -29 -5 -66h7q1 5 5.5 30t7.5 36l30 123q10 40 55 40h128q24 0 36.5 -14.5t10.5 -38.5l-35 -327h-129l27 273h-7l-48 -167 q-11 -39 -54 -39h-72q-23 0 -37 12.5t-15 34.5l-3 159h-9l-48 -273h-130z" />
<glyph unicode="&#x2202;" horiz-adv-x="588" d="M20 255q18 82 76.5 142t153.5 60q78 0 117 -34q7 39 2 66.5t-28.5 45t-71 25.5t-127.5 8l7 136q83 4 146.5 -1.5t116.5 -21.5t86 -44.5t54.5 -71t22.5 -100.5t-11 -134q-19 -102 -50 -171t-75 -106t-92.5 -51.5t-112.5 -14.5q-58 0 -102.5 16.5t-68 44t-37.5 62.5t-13 72 t7 72zM227 234q-14 -48 -8.5 -69t38.5 -21t51 37.5t35 125.5q-25 3 -46 3q-30 0 -45.5 -19t-24.5 -57z" />
<glyph unicode="&#x2205;" horiz-adv-x="685" d="M57 341q0 121 86 206.5t207 85.5t206.5 -85.5t85.5 -206.5t-85.5 -207t-206.5 -86q-122 0 -207.5 86t-85.5 207zM228 534l3 -45q60 9 119 9q66 0 66 -46q0 -21 -15 -44.5t-33.5 -42.5t-33.5 -52t-15 -72h54q0 35 14.5 64.5t32.5 46.5t32.5 43.5t14.5 56.5q0 93 -117 93 q-50 0 -122 -11zM320 126q0 -7 7 -7h39q8 0 8 7v37q0 8 -8 8h-39q-7 0 -7 -8v-37z" />
<glyph unicode="&#x220f;" horiz-adv-x="708" d="M41 -90l89 634h-70l21 146h659l-21 -146h-70l-89 -634h-210l89 634h-99l-89 -634h-210z" />
<glyph unicode="&#x2211;" horiz-adv-x="598" d="M-31 -163l18 142l182 342l-86 227l18 142h518l-20 -142h-287l91 -229l-175 -340h301l-20 -142h-540z" />
<glyph unicode="&#x2212;" horiz-adv-x="569" d="M34 215l23 154h477l-23 -154h-477z" />
<glyph unicode="&#x221a;" horiz-adv-x="590" d="M31 500h164l37 -368h13l259 744h170l-314 -872q-1 -4 -8 -4h-249q-5 0 -11 4t-5 8z" />
<glyph unicode="&#x221e;" horiz-adv-x="755" d="M30 315q9 71 57.5 107t118.5 36q99 0 178 -83q62 47 100.5 65t100.5 18q68 0 111 -41.5t32 -117.5q-10 -73 -61 -113t-121 -40q-96 0 -174 78q-58 -42 -98.5 -60t-92.5 -18q-71 0 -116.5 45t-34.5 124zM174 305q-2 -19 9.5 -29t28.5 -8q45 5 90 42q-27 25 -72 25 q-53 0 -56 -30zM457 288q27 -20 63 -20q55 0 62 32q4 35 -32 35q-16 0 -32.5 -7t-28 -15t-32.5 -25z" />
<glyph unicode="&#x222b;" horiz-adv-x="350" d="M-46 -217l27 150h49q31 0 32 32l35 620q4 63 41.5 96t93.5 33q109 0 149 -4l-28 -151h-51q-26 0 -29 -31l-36 -621q-4 -71 -35 -100t-111 -29q-105 0 -137 5z" />
<glyph unicode="&#x2248;" horiz-adv-x="585" d="M32 105q-9 92 32 137.5t114 38.5q25 -2 96 -21t80 -21q13 -2 21 0t12.5 9.5t6 13t3.5 18.5l126 -9q10 -89 -27 -134.5t-116 -41.5q-26 1 -96 19.5t-84 20.5q-17 2 -25.5 -3.5t-11 -13t-4.5 -22.5zM60 308q-11 92 30.5 137.5t114.5 38.5q25 -2 96 -21t80 -21q24 -4 32 7 t11 35l127 -10q10 -89 -27.5 -134t-116.5 -41q-25 1 -95 19.5t-84 20.5q-13 1 -21 -0.5t-12 -9.5t-5 -11.5t-4 -18.5z" />
<glyph unicode="&#x2260;" horiz-adv-x="608" d="M39 117l24 154h478l-24 -154h-239l-58 -127l-108 47l36 80h-109zM70 329l22 154h224l59 131l110 -50l-38 -81h123l-22 -154h-478z" />
<glyph unicode="&#x2264;" horiz-adv-x="552" d="M0 23l23 159h448l-23 -159h-448zM53 313l23 162l456 115l-25 -167l-265 -32l256 -38l-22 -158z" />
<glyph unicode="&#x2265;" horiz-adv-x="553" d="M28 23l22 159h452l-23 -159h-451zM49 195l24 171l270 33l-261 31l22 162l426 -117l-23 -162z" />
<glyph unicode="&#x25ca;" horiz-adv-x="575" d="M30 361l299 330q11 13 20 -7l208 -330q7 -17 3 -23l-298 -332q-13 -13 -20 7l-209 332q-8 15 -3 23zM193 346l82 -142l121 142l-79 142z" />
<glyph unicode="&#x25fc;" horiz-adv-x="500" d="M0 0v500h500v-500h-500z" />
<glyph unicode="&#xfb00;" horiz-adv-x="808" d="M-95 -176l32 125h49q32 0 46 12.5t18 43.5l54 369h-82l15 121l85 5l8 55q24 159 190 159q100 0 165 -15l-32 -125h-60q-30 0 -43 -12t-18 -44l-3 -18h177l10 65q24 159 190 159q112 0 185 -15l-32 -125h-80q-30 0 -43 -12t-18 -44l-4 -28h117l-17 -126h-120l-60 -391 q-24 -159 -190 -159q-50 0 -155 15l32 125h49q32 0 46 12.5t18 43.5l53 354h-176l-61 -406q-24 -159 -190 -159q-50 0 -155 15z" />
<glyph unicode="&#xfb03;" horiz-adv-x="1101" d="M-95 -176l32 125h49q32 0 46 12.5t18 43.5l54 369h-82l15 121l85 5l8 55q24 159 190 159q100 0 165 -15l-32 -125h-60q-30 0 -43 -12t-18 -44l-3 -18h177l10 65q24 159 190 159q95 0 155 -15l-32 -125h-50q-30 0 -43 -12t-18 -44l-4 -28h370l-70 -500h-210l52 374h-162 l-60 -391q-24 -159 -190 -159q-50 0 -155 15l32 125h49q32 0 46 12.5t18 43.5l53 354h-176l-61 -406q-24 -159 -190 -159q-50 0 -155 15zM891 630l8 51q4 32 18.5 45t45.5 13h87q32 0 47 -17.5t11 -48.5l-7 -51q-5 -32 -19 -45t-44 -13h-88q-32 0 -47.5 17.5t-11.5 48.5z " />
<glyph unicode="&#xfb04;" horiz-adv-x="1151" d="M-95 -176l32 125h49q32 0 46 12.5t18 43.5l54 369h-82l15 121l85 5l8 55q24 159 190 159q100 0 165 -15l-32 -125h-60q-30 0 -43 -12t-18 -44l-3 -18h175l9 65q22 159 190 159q284 0 412 -25l-68 -521q-3 -20 2.5 -26t26.5 -6h32l10 -136q-41 -24 -137 -24 q-79 0 -119.5 39t-31.5 105l65 457h-119q-53 0 -61 -59l-4 -28h110l-17 -126h-111l-56 -391q-22 -159 -189 -159q-50 0 -154 15l31 125h49q30 0 43 12t18 44l51 354h-175l-61 -406q-24 -159 -190 -159q-50 0 -155 15z" />
<glyph unicode="&#xfb06;" horiz-adv-x="928" d="M-3 11l17 121h168q76 0 99 3t25 13q1 7 -9 12t-45 15l-105 30q-131 37 -111 171q7 40 29 66t73 42t133 16h346l19 131h207l-19 -131h120l-17 -126h-121l-28 -196q-3 -20 2.5 -26t28.5 -6h59l11 -136q-61 -24 -167 -24q-77 0 -118.5 39t-31.5 105l36 244h-276 q-56 0 -71 -2t-16 -12q-2 -8 8.5 -13.5t40.5 -13.5l109 -29q129 -35 114 -158q-11 -93 -71.5 -125t-182.5 -32q-133 0 -256 22z" />
<glyph horiz-adv-x="890" d="M21 259q19 129 81.5 185t199.5 56h277l19 131h207l-19 -131h120l-17 -126h-121l-28 -196q-3 -20 2.5 -26t28.5 -6h59l11 -136q-61 -24 -167 -24q-77 0 -118.5 39t-31.5 105l36 244h-232q-44 0 -62 -25.5t-26 -95.5q-9 -61 3.5 -80t58.5 -19q93 0 148 7l15 -133 q-76 -40 -200 -40q-137 0 -200.5 64.5t-43.5 206.5z" />
<glyph horiz-adv-x="1381" d="M-95 -176l32 125h49q32 0 46 12.5t18 43.5l54 369h-82l15 121l85 5l8 55q24 159 190 159q100 0 165 -15l-32 -125h-60q-30 0 -43 -12t-18 -44l-3 -18h177l10 65q24 159 190 159q112 0 185 -15l-32 -125h-80q-30 0 -43 -12t-18 -44l-4 -28h156q77 0 113.5 -40t38.5 -109 l5 -209q0 -16 16 -16h24q63 140 96 374h225q-17 -123 -76 -277t-98 -215q-145 -227 -389 -214l-13 113q13 5 39.5 13.5t40 13.5t33.5 14t36 22t31 30h-79q-24 0 -41.5 15t-20.5 38l-40 287q-2 15 -12.5 24.5t-26.5 9.5h-78l-60 -391q-24 -159 -190 -159q-50 0 -155 15 l32 125h49q32 0 46 12.5t18 43.5l53 354h-176l-61 -406q-24 -159 -190 -159q-50 0 -155 15z" />
<glyph horiz-adv-x="805" d="M-95 -176l32 125h49q31 0 45 12t19 44l53 369h-81l15 121l85 5l9 65q24 159 190 159q111 0 185 -15l-32 -125h-80q-30 0 -43 -12t-18 -44l-4 -28h165l19 131h207l-19 -131h120l-17 -126h-121l-28 -196q-3 -20 2.5 -26t28.5 -6h59l11 -136q-61 -24 -167 -24 q-77 0 -118.5 39t-31.5 105l36 244h-165l-60 -406q-24 -159 -190 -159q-50 0 -155 15z" />
<glyph horiz-adv-x="998" d="M-95 -176l32 125h49q31 0 45 12t19 44l53 369h-81l15 121l85 5l9 65q24 159 190 159q111 0 185 -15l-32 -125h-80q-30 0 -43 -12t-18 -44l-4 -28h158q77 0 113.5 -40t38.5 -109l5 -209q0 -16 16 -16h24q63 140 96 374h225q-17 -123 -76 -277t-98 -215 q-145 -227 -389 -214l-13 113q13 5 39.5 13.5t40 13.5t33.5 14t36 22t31 30h-79q-24 0 -41.5 15t-20.5 38l-40 287q-2 15 -12.5 24.5t-26.5 9.5h-79l-60 -406q-24 -159 -190 -159q-50 0 -155 15z" />
<glyph horiz-adv-x="823" d="M23 374l15 121l90 5l19 131h207l-19 -131h177l19 131h207l-19 -131h120l-17 -126h-121l-28 -196q-3 -20 2.5 -26t28.5 -6h59l11 -136q-61 -24 -167 -24q-77 0 -118.5 39t-31.5 105l36 244h-176l-28 -196q-3 -20 2.5 -26t28.5 -6h59l11 -136q-61 -24 -167 -24 q-77 0 -118.5 39t-31.5 105l36 244h-86z" />
<glyph horiz-adv-x="1029" d="M23 374l15 121l86 5h4l19 131h207l-19 -131h183q77 0 113.5 -40t38.5 -109l5 -209q0 -16 16 -16h24q63 140 96 374h225q-17 -123 -76 -277t-98 -215q-145 -227 -389 -214l-13 113q13 5 39.5 13.5t40 13.5t33.5 14t36 22t31 30h-79q-24 0 -41.5 15t-20.5 38l-40 287 q-2 15 -12.5 24.5t-26.5 9.5h-103l-28 -196q-3 -20 2.5 -26t28.5 -6h49l11 -136q-57 -24 -157 -24q-77 0 -118.5 39t-31.5 105l36 244h-86z" />
<glyph horiz-adv-x="410" d="M89 706h129q-13 -45 -0.5 -60.5t39.5 -15.5q65 0 65 76h123q2 -72 -50.5 -122t-138.5 -50q-95 0 -142 50.5t-25 121.5z" />
</font>
</defs>
</svg>
