<?xml version="1.0" standalone="no"?>
<!DOCTYPE svg PUBLIC "-//W3C//DTD SVG 1.1//EN" "http://www.w3.org/Graphics/SVG/1.1/DTD/svg11.dtd" >
<svg xmlns="http://www.w3.org/2000/svg">
<metadata></metadata>
<defs>
<font id="exo_2.0extra_light" horiz-adv-x="563" >
<font-face units-per-em="1000" ascent="800" descent="-200" />
<missing-glyph horiz-adv-x="228" />
<glyph unicode="fi" horiz-adv-x="564" d="M33 447v30l87 4v96q0 70 30.5 104t99.5 34q64 0 102 -5v-30h-89q-57 0 -80 -23.5t-23 -82.5v-92h309v-482h-39v447h-270v-447h-40v447h-87zM425 607v60q0 16 15 16h18q16 0 16 -16v-60q0 -16 -16 -16h-18q-15 0 -15 16z" />
<glyph unicode="fl" horiz-adv-x="630" d="M34 447v30l87 4v96q0 70 30 104t99 34q166 0 233 -8v-604q0 -76 77 -76h55l5 -26q-24 -8 -71 -8q-49 0 -77 27.5t-28 77.5v583h-180q-57 1 -80 -23.5t-23 -83.5v-92h163v-35h-163v-447h-40v447h-87z" />
<glyph unicode=" "  horiz-adv-x="228" />
<glyph unicode="&#x09;" horiz-adv-x="228" />
<glyph unicode="&#xa0;" horiz-adv-x="228" />
<glyph unicode="!" horiz-adv-x="258" d="M106 17v60q0 17 17 17h13q17 0 17 -17v-60q0 -17 -17 -17h-13q-17 0 -17 17zM109 363v332h40v-332l-3 -158h-33z" />
<glyph unicode="&#x22;" horiz-adv-x="334" d="M83 690h36l-3 -210h-30zM215 690h35l-2 -210h-30z" />
<glyph unicode="#" horiz-adv-x="672" d="M56 224l6 31h115l36 209h-115l6 31h115l34 195h36l-34 -195h215l34 195h36l-34 -195h109l-5 -31h-110l-36 -209h109l-5 -31h-109l-39 -224h-36l39 224h-215l-39 -224h-36l39 224h-116zM213 255h215l36 209h-215z" />
<glyph unicode="$" horiz-adv-x="560" d="M66 523q0 61 12 97.5t41.5 54t64 22.5t94.5 4h14l6 102h27l-6 -103q83 -3 151 -13l-4 -30q-71 4 -149 6l-17 -298l60 -10q77 -11 108.5 -53.5t31.5 -130.5q0 -60 -13 -97t-43 -55.5t-65.5 -24t-94.5 -5.5h-8l-7 -122h-28l7 122q-96 2 -171 13l4 31q107 -6 170 -6l18 304 l-68 11q-72 11 -103.5 54t-31.5 127zM107 522q0 -70 23.5 -101.5t80.5 -40.5l61 -10l18 294h-11q-37 0 -55.5 -1t-42 -5t-34.5 -13t-22 -24.5t-14.5 -39.5t-3.5 -59zM278 27h7q100 1 136.5 27.5t36.5 116.5q0 75 -24 106t-83 40l-55 9z" />
<glyph unicode="%" horiz-adv-x="886" d="M57 498q0 108 34.5 156t118.5 48t118.5 -48t34.5 -156t-34.5 -156t-118.5 -48t-118.5 48t-34.5 156zM91 498q0 -95 26.5 -135.5t92.5 -40.5t92.5 40.5t26.5 135.5t-26.5 135.5t-92.5 40.5t-92.5 -40.5t-26.5 -135.5zM189 0l471 690h34l-472 -690h-33zM523 197 q0 108 34.5 156t118.5 48q83 0 117.5 -48t34.5 -156q0 -109 -34.5 -157t-117.5 -48q-84 0 -118.5 48t-34.5 157zM557 197q0 -95 26 -136t92 -41t92.5 41t26.5 136t-26.5 135.5t-92.5 40.5t-92 -40.5t-26 -135.5z" />
<glyph unicode="&#x26;" horiz-adv-x="780" d="M77 174q0 84 31 130t105 52v4q-62 5 -89 45t-27 116q0 59 14 95t49 54t78 23.5t117 5.5q89 0 159 -9l-6 -30q-31 3 -155 3q-126 0 -170 -27t-44 -119q0 -84 35.5 -113.5t129.5 -29.5h219l6 149h32v-149h137l-3 -33h-134v-236q0 -76 76 -76h84l5 -28q-45 -8 -91 -8 q-108 0 -113 98q-47 -55 -104.5 -77.5t-141.5 -22.5q-109 0 -154 40t-45 143zM120 178q0 -85 35 -117.5t125 -32.5q84 0 140.5 25t101.5 80v208h-219q-102 0 -142.5 -34.5t-40.5 -128.5z" />
<glyph unicode="'" horiz-adv-x="202" d="M83 690h36l-3 -210h-30z" />
<glyph unicode="(" horiz-adv-x="356" d="M65 312q0 191 59 307t185 171l6 -24q-108 -55 -158.5 -165t-50.5 -288q0 -175 50.5 -285.5t158.5 -168.5l-6 -24q-126 56 -185 172t-59 305z" />
<glyph unicode=")" horiz-adv-x="356" d="M42 -141q107 58 157.5 168.5t50.5 285.5q0 177 -50.5 287.5t-157.5 165.5l5 24q126 -55 185 -171t59 -307q0 -189 -59 -305t-185 -172z" />
<glyph unicode="*" horiz-adv-x="452" d="M67 565l11 29l121 -44l-1 -13l-6 -9zM119 407l96 128l-4 155h31l-6 -155l96 -129l-24 -17l-82 124l-82 -123zM253 537v13l123 43l10 -29l-127 -36z" />
<glyph unicode="+" horiz-adv-x="552" d="M65 281v33h194v184h34v-184h194v-33h-195v-184h-32v184h-195z" />
<glyph unicode="," horiz-adv-x="213" d="M84 15v62q-1 17 17 17h13q17 0 17 -17v-64q-2 -72 -23 -134l-19 7q5 50 5 114q-5 0 -8 4.5t-2 10.5z" />
<glyph unicode="-" horiz-adv-x="474" d="M82 235v33h310v-33h-310z" />
<glyph unicode="." horiz-adv-x="212" d="M81 17v60q0 17 18 17h14q17 0 17 -17v-60q0 -17 -17 -17h-14q-18 0 -18 17z" />
<glyph unicode="/" horiz-adv-x="500" d="M35 -61l393 751h37l-393 -751h-37z" />
<glyph unicode="0" horiz-adv-x="589" d="M74 345q0 188 49.5 272.5t170.5 84.5q122 0 171.5 -84.5t49.5 -272.5t-49.5 -272.5t-171.5 -84.5q-121 0 -170.5 84.5t-49.5 272.5zM115 345q0 -170 40 -245t139 -75t139.5 75t40.5 245t-40.5 245t-139.5 75t-139 -75t-40 -245z" />
<glyph unicode="1" horiz-adv-x="383" d="M33 618l186 72h41v-690h-41v600q0 25 3 49l-182 -60z" />
<glyph unicode="2" horiz-adv-x="558" d="M60 0v25q0 12 7 20l230 264q71 80 101.5 139.5t28.5 117.5q-3 61 -41 80t-118 19q-91 0 -196 -21l-6 31q112 27 200 27q106 0 155 -28.5t49 -112.5q0 -66 -31 -124.5t-104 -143.5l-223 -256q38 1 117 1h270v-38h-439z" />
<glyph unicode="3" horiz-adv-x="553" d="M59 5l6 32q120 -12 195 -12q94 0 135 38.5t41 130.5q0 33 -6.5 58.5t-23.5 48t-50.5 35t-82.5 13.5h-128v31l128 2q47 1 78 15.5t44.5 39.5t18 47.5t4.5 52.5q-2 76 -38 102t-133 26q-89 0 -171 -11l-7 31q99 17 181 17q115 0 161.5 -34.5t46.5 -124.5q0 -152 -107 -174 v-4q123 -20 126 -173q2 -105 -46.5 -154.5t-163.5 -49.5q-83 0 -208 17z" />
<glyph unicode="4" horiz-adv-x="600" d="M56 275l216 415h42l-218 -419q-9 -19 -0.5 -33t28.5 -14h300v219l9 116h31v-335h84v-30l-84 -4v-190h-40v189h-317q-34 0 -50.5 27.5t-0.5 58.5z" />
<glyph unicode="5" horiz-adv-x="529" d="M62 15l7 32q100 -23 174 -23q107 0 143.5 44.5t37.5 135.5q0 34 -6 59t-15 43t-29 30t-39 19.5t-55 11.5t-67.5 5t-84.5 2h-23q-20 2 -18 21l15 295h342l-4 -36h-304l-11 -245l60 -1q79 -2 127 -10.5t85 -30.5t52 -61t15 -102q0 -37 -4 -65t-17 -58t-35.5 -49 t-62.5 -31.5t-95 -12.5q-84 0 -188 27z" />
<glyph unicode="6" horiz-adv-x="566" d="M77 309q0 103 9.5 172.5t27.5 113.5t51 67.5t71.5 31.5t97.5 8q74 0 124 -13l-8 -30q-39 7 -116 7q-62 0 -99 -11t-64 -45t-38.5 -95.5t-13.5 -163.5q43 52 86.5 72t109.5 20q107 0 147 -51t40 -182q0 -57 -7.5 -93.5t-28.5 -68t-63 -46t-108 -14.5q-70 0 -112.5 15.5 t-66 56.5t-31.5 97.5t-8 151.5zM119 306q0 -56 2 -92.5t8.5 -71t18.5 -54.5t31.5 -36t48 -22t68.5 -6q53 0 87 12t51 38.5t22.5 57.5t5.5 81q0 109 -32 152.5t-123 43.5q-55 0 -97 -19t-91 -71v-13z" />
<glyph unicode="7" horiz-adv-x="507" d="M46 690h380q50 0 34 -46l-223 -644h-41l212 613q10 28 15 41h-375z" />
<glyph unicode="8" horiz-adv-x="610" d="M81 172q0 89 25.5 133t87.5 51v4q-99 11 -99 158q0 97 45 139t165 42q122 0 166 -41.5t44 -139.5q0 -147 -99 -158v-4q62 -7 87.5 -51t25.5 -133q0 -100 -46 -140t-178 -41q-130 -1 -177 39.5t-47 141.5zM121 177q0 -83 38 -115.5t147 -32.5t146 32t37 116 q0 105 -34.5 134.5t-147.5 29.5q-60 0 -93.5 -6t-56 -24.5t-29.5 -49t-7 -84.5zM135 516q0 -89 33 -115t139 -26t137.5 26t31.5 115q0 84 -34 115.5t-136 31.5t-136.5 -31.5t-34.5 -115.5z" />
<glyph unicode="9" horiz-adv-x="567" d="M64 472q0 117 45.5 173.5t162.5 56.5q50 0 84 -6.5t58.5 -25.5t38 -42.5t21.5 -67t10 -88.5t2 -118q0 -118 -13.5 -190t-47 -111t-78 -52t-118.5 -13q-76 0 -131 13l8 30q52 -6 123 -6q63 0 100 11t65 44.5t39 96t12 164.5q-43 -53 -86.5 -73.5t-109.5 -20.5 q-100 0 -142.5 56.5t-42.5 168.5zM104 470q0 -96 34 -142.5t119 -46.5q55 0 97 19.5t91 71.5q0 76 -3 116.5t-12 81t-28 58t-50.5 28t-80.5 10.5q-97 0 -132 -48t-35 -148z" />
<glyph unicode=":" horiz-adv-x="214" d="M82 17v60q0 17 17 17h14q18 0 18 -17v-60q0 -17 -18 -17h-14q-17 0 -17 17zM82 355v61q0 17 17 17h14q18 0 18 -17v-61q0 -17 -18 -17h-14q-17 0 -17 17z" />
<glyph unicode=";" horiz-adv-x="216" d="M83 355v61q0 17 17 17h15q17 0 17 -17v-61q0 -17 -17 -17h-15q-17 0 -17 17zM85 15v62q0 17 17 17h13q17 0 17 -17v-64q-2 -70 -22 -134l-20 7q6 60 6 114q-13 0 -11 15z" />
<glyph unicode="&#x3c;" horiz-adv-x="538" d="M62 279v34l396 180v-34l-359 -163l359 -159v-34z" />
<glyph unicode="=" horiz-adv-x="588" d="M83 168v33h422v-33h-422zM83 380v33h422v-33h-422z" />
<glyph unicode="&#x3e;" horiz-adv-x="538" d="M80 103v34l359 159l-359 163v34l396 -180v-34z" />
<glyph unicode="?" horiz-adv-x="506" d="M47 693q7 1 29.5 5t29.5 5t26.5 3.5t34 3t37.5 1.5t51 1q197 0 197 -155q0 -42 -19 -77.5t-46.5 -62.5t-55 -55t-47 -68t-20.5 -89h-36q0 53 18.5 96t45.5 71.5t54 54.5t46 57.5t19 68.5q0 64 -39 94t-122 30q-89 0 -198 -13zM222 17v60q0 17 17 17h13q17 0 17 -17v-60 q0 -17 -17 -17h-13q-17 0 -17 17z" />
<glyph unicode="@" horiz-adv-x="699" d="M89 265q0 73 2.5 117t13 82t25 56t45.5 31t68 16.5t98 4.5h141q136 0 136 -124v-318h-29l-6 79q-35 -31 -98.5 -58t-124.5 -27q-59 0 -92.5 28.5t-33.5 80.5v53q0 47 30 73t85 26h232v62q0 43 -23.5 67t-80.5 23h-135q-53 0 -82 -2t-57 -12t-39.5 -25t-21.5 -48.5 t-12 -74.5t-2 -110q0 -71 2 -113t13 -76.5t23.5 -50t44 -26t64 -12.5t93.5 -2h245v-31q-162 -4 -244 -4q-68 -1 -109 2t-75 16t-50.5 31.5t-28 58t-14.5 85t-3 122.5zM273 237q0 -77 90 -79q52 -1 114.5 22.5t103.5 57.5v121l-225 -4q-83 -3 -83 -72v-46z" />
<glyph unicode="A" horiz-adv-x="608" d="M17 0l241 677q5 13 18 13h56q13 0 18 -13l241 -677h-43l-85 243h-318l-85 -243h-43zM158 279h292q-8 24 -57 163.5t-75 213.5h-28q-26 -74 -74.5 -213t-57.5 -164z" />
<glyph unicode="B" horiz-adv-x="614" d="M99 0v690q73 8 202 8q126 0 175 -38t49 -142q0 -75 -28 -113.5t-89 -44.5v-4q74 -7 105.5 -52.5t31.5 -131.5q0 -104 -47 -142t-167 -38q-149 0 -232 8zM140 30q78 -2 187 -2q100 0 138 30t38 118q0 95 -40.5 129t-144.5 36h-178v-311zM140 374h178q94 1 129.5 29.5 t35.5 111.5q0 88 -39.5 117.5t-143.5 29.5q-90 0 -160 -2v-286z" />
<glyph unicode="C" d="M72 345q0 197 58 277t201 80q105 0 178 -18l-7 -30q-78 11 -171 11q-121 0 -168.5 -70.5t-47.5 -249.5t47.5 -249.5t168.5 -70.5q108 0 185 13l7 -31q-79 -19 -192 -19q-143 0 -201 80t-58 277z" />
<glyph unicode="D" horiz-adv-x="660" d="M99 0v690q121 9 233 9q142 0 199 -79t57 -275t-57 -275t-199 -79q-111 0 -233 9zM140 31q84 -3 192 -3q119 0 166 70t47 247t-47 247t-166 70q-106 0 -192 -3v-628z" />
<glyph unicode="E" horiz-adv-x="553" d="M93 106v478q0 47 30.5 76.5t79.5 29.5q198 0 294 -4l-2 -31h-285q-34 0 -55 -21.5t-21 -56.5v-192h320v-34h-320v-238q0 -35 21 -56.5t55 -21.5h285l2 -31q-96 -4 -294 -4q-49 0 -79.5 29.5t-30.5 76.5z" />
<glyph unicode="F" horiz-adv-x="532" d="M96 0v583q0 48 30.5 77.5t79.5 29.5q193 0 287 -5l-3 -30h-275q-35 0 -56.5 -21.5t-21.5 -56.5v-197h313v-34h-313v-346h-41z" />
<glyph unicode="G" horiz-adv-x="624" d="M72 346q0 198 59 277t207 79q113 0 195 -18l-7 -30q-87 11 -187 11q-125 0 -174 -69t-49 -252q0 -171 43 -245t146 -74q42 0 82 15t63 32t55 45v283h41v-400h-29l-8 84q-89 -96 -211 -96q-121 0 -173.5 84.5t-52.5 273.5z" />
<glyph unicode="H" horiz-adv-x="660" d="M99 0v690h41v-302h380v302h41v-690h-41v352h-380v-352h-41z" />
<glyph unicode="I" horiz-adv-x="239" d="M99 0v690h41v-690h-41z" />
<glyph unicode="J" horiz-adv-x="328" d="M36 1l5 28h56q94 0 94 94v567h41v-567q0 -65 -31.5 -98t-93.5 -32q-33 0 -71 8z" />
<glyph unicode="K" horiz-adv-x="570" d="M99 0v690h40v-231q0 -45 -4 -82h108l234 313h47l-223 -300q-9 -14 -27 -29v-2q16 -15 28 -30l238 -329h-48l-249 343h-107q3 -43 3 -83v-260h-40z" />
<glyph unicode="L" horiz-adv-x="509" d="M96 109v581h41v-577q0 -35 21.5 -56.5t56.5 -21.5h267v-30q-90 -5 -274 -5q-52 0 -82 30.5t-30 78.5z" />
<glyph unicode="M" horiz-adv-x="860" d="M84 0l29 669q2 21 21 21h57q14 0 19 -14l175 -484l33 -93h24q40 114 117.5 328.5t89.5 248.5q5 14 20 14h57q20 0 20 -21l30 -669h-41l-29 655h-23l-208 -576q-5 -14 -19 -14h-52q-15 0 -20 14l-207 576h-23l-29 -655h-41z" />
<glyph unicode="N" horiz-adv-x="692" d="M99 0v670q0 20 20 20h50q17 0 24 -15l290 -551q7 -13 45 -86h25q0 16 -0.5 47.5t-0.5 46.5v558h41v-670q0 -20 -19 -20h-54q-16 0 -23 15l-298 564q-28 54 -37 74h-23q1 -25 1 -75v-578h-41z" />
<glyph unicode="O" horiz-adv-x="664" d="M72 345q0 198 58 277.5t202 79.5t201.5 -79t57.5 -278t-57.5 -278t-201.5 -79t-202 79.5t-58 277.5zM115 345q0 -178 48 -249t169 -71t168.5 70.5t47.5 249.5t-47.5 249.5t-168.5 70.5t-169 -71t-48 -249z" />
<glyph unicode="P" horiz-adv-x="583" d="M99 0v690q81 8 225 8q115 0 160 -43.5t45 -162.5q0 -120 -44.5 -163t-157.5 -43q-107 0 -187 6v-292h-41zM140 322h184q92 2 127.5 36.5t35.5 133.5t-35.5 134.5t-127.5 35.5q-106 0 -184 -2v-338z" />
<glyph unicode="Q" horiz-adv-x="664" d="M72 345q0 198 58 277.5t202 79.5t201.5 -79t57.5 -278t-57.5 -278t-201.5 -79t-202 79.5t-58 277.5zM116 345q0 -179 47.5 -249.5t168.5 -70.5t168.5 70.5t47.5 249.5t-47.5 249.5t-168.5 70.5t-168.5 -70.5t-47.5 -249.5zM282 -73l15 24q95 -59 235 -81l-13 -41 q-135 21 -237 98z" />
<glyph unicode="R" horiz-adv-x="610" d="M99 0v690q81 8 225 8q115 0 160 -41t45 -154q0 -90 -29.5 -131.5t-97.5 -50.5v-5q53 -15 79 -96l73 -220h-45l-70 217q-30 87 -108 87q-74 0 -191 3v-307h-41zM140 341h184q92 2 127.5 35t35.5 126t-35.5 126.5t-127.5 33.5q-108 0 -184 -2v-319z" />
<glyph unicode="S" horiz-adv-x="556" d="M63 523q0 61 12 97.5t41.5 54t64 22.5t94.5 4q107 -2 192 -14l-4 -30q-138 7 -187 7q-36 0 -55 -1t-42 -5t-34 -13t-22 -24.5t-14.5 -39.5t-3.5 -59q0 -70 23.5 -101.5t79.5 -40.5l150 -25q76 -11 107.5 -53.5t31.5 -130.5q0 -60 -13 -97t-43 -55.5t-65.5 -24t-94.5 -5.5 q-112 0 -206 13l3 31q118 -8 205 -7q52 1 81 6t51.5 20t31 43.5t8.5 75.5q0 75 -24 106t-83 40l-150 25q-72 11 -103.5 54t-31.5 127z" />
<glyph unicode="T" horiz-adv-x="568" d="M26 654v36h516v-36h-238v-654h-41v654h-237z" />
<glyph unicode="U" horiz-adv-x="667" d="M94 257v433h41v-433q0 -128 44.5 -180t154.5 -52q108 0 153 52t45 180v433h41v-433q0 -146 -54 -207.5t-184 -61.5q-132 0 -186.5 61.5t-54.5 207.5z" />
<glyph unicode="V" horiz-adv-x="596" d="M24 690h43l194 -582q18 -57 23 -74h28q3 8 7.5 23.5t8.5 28t8 23.5l193 581h44l-229 -677q-6 -13 -19 -13h-54q-14 0 -18 13z" />
<glyph unicode="W" horiz-adv-x="935" d="M32 690h44l146 -583l17 -73h27q2 9 8 33.5t9 38.5l139 568q3 16 19 16h53q14 0 19 -16l139 -567q6 -25 16 -73h27q31 129 91 366t73 290h43l-172 -676q-4 -14 -19 -14h-57q-16 0 -19 15q-10 43 -67.5 279.5t-88.5 362.5h-23q-7 -26 -19 -78l-137 -564q-3 -15 -19 -15h-57 q-15 0 -20 14z" />
<glyph unicode="X" horiz-adv-x="598" d="M35 0l212 359l-199 331h46l188 -313h33l188 313h47l-200 -331l213 -359h-47l-202 343h-30l-202 -343h-47z" />
<glyph unicode="Y" horiz-adv-x="548" d="M19 690h45l171 -322q6 -11 18 -35l18 -36h6l35 70l171 323h45l-233 -437v-253h-42v254z" />
<glyph unicode="Z" horiz-adv-x="560" d="M51 0v36l407 618h-403v36h450v-36l-408 -618h413v-36h-459z" />
<glyph unicode="[" horiz-adv-x="316" d="M102 -128v859q0 16 10.5 26.5t26.5 10.5h130v-31h-116q-12 0 -12 -13v-845q0 -13 12 -13h116v-31h-130q-16 0 -26.5 10t-10.5 27z" />
<glyph unicode="\" horiz-adv-x="500" d="M35 690h37l393 -751h-37z" />
<glyph unicode="]" horiz-adv-x="316" d="M48 -134h115q13 0 13 13v845q0 13 -13 13h-115v31h129q17 0 27 -10t10 -27v-859q0 -16 -10 -26.5t-27 -10.5h-129v31z" />
<glyph unicode="^" horiz-adv-x="401" d="M30 381l156 201h29l156 -201l-18 -14l-148 179h-8l-148 -179z" />
<glyph unicode="_" horiz-adv-x="586" d="M77 0h432v-33h-432v33z" />
<glyph unicode="`" horiz-adv-x="287" d="M45 683l25 29l155 -145l-17 -20z" />
<glyph unicode="a" horiz-adv-x="541" d="M62 118v60q0 55 31.5 85t88.5 30h232v61q0 50 -24 77t-83 27q-86 0 -221 -15l-4 30q152 21 230 21q142 0 142 -140v-354h-30l-7 89q-37 -36 -99.5 -66t-124.5 -30t-96.5 32.5t-34.5 92.5zM103 121q0 -90 94 -91q50 -1 112 25.5t105 66.5v139l-228 -3q-83 -1 -83 -83v-54z " />
<glyph unicode="b" horiz-adv-x="561" d="M88 20v680h40v-208q0 -65 -5 -97q107 99 198 99q93 0 133.5 -58t40.5 -195q0 -135 -45.5 -194t-153.5 -59q-98 0 -208 32zM128 47q85 -25 167 -23q86 0 122.5 49t36.5 168t-31.5 168t-109.5 49q-42 0 -83 -22t-102 -71v-318z" />
<glyph unicode="c" horiz-adv-x="481" d="M65 241q0 139 50.5 196t171.5 57q87 0 141 -19l-7 -27q-53 10 -127 10q-104 0 -145.5 -46.5t-41.5 -170.5t41.5 -170.5t145.5 -46.5q84 0 139 11l6 -28q-73 -19 -151 -19q-122 0 -172.5 57t-50.5 196z" />
<glyph unicode="d" horiz-adv-x="564" d="M67 241q0 137 41 195t136 58q89 0 193 -49q-3 26 -3 94v161h39v-700h-30l-5 80q-105 -92 -198 -92t-133 59t-40 194zM108 242q0 -120 32 -169t108 -49q43 0 84.5 20t101.5 68v303q-114 43 -185 43q-77 0 -109 -48t-32 -168z" />
<glyph unicode="e" horiz-adv-x="530" d="M65 243q0 138 48.5 194.5t162.5 56.5q191 0 194 -142q2 -66 -23.5 -98.5t-82.5 -32.5h-257q4 -110 46 -153.5t136 -43.5q83 0 165 12l5 -28q-60 -20 -175 -20q-117 0 -168 58.5t-51 196.5zM107 254h251q74 0 71 96q-1 56 -37.5 82t-113.5 26q-94 0 -132 -45t-39 -159z " />
<glyph unicode="f" horiz-adv-x="361" d="M33 448v29l87 4v98q0 69 30.5 102.5t99.5 33.5q79 0 123 -5l-2 -30h-108q-56 0 -79.5 -23t-23.5 -80v-95h172v-34h-172v-448h-40v448h-87z" />
<glyph unicode="g" horiz-adv-x="548" d="M53 -69q0 52 15 81.5t57 51.5l14 8q-32 15 -43 43.5t-1.5 58t34.5 49.5q-56 34 -56 120q0 77 46 114t151 37q61 0 100 -12h151l-3 -26l-93 -4q39 -35 39 -109q0 -77 -45 -113t-150 -36q-73 0 -118 18q-20 -23 -24.5 -47t11.5 -44t54 -27l190 -33q62 -10 85.5 -39.5 t23.5 -89.5q0 -78 -48.5 -109.5t-167.5 -31.5q-123 0 -172.5 31t-49.5 109zM92 -67q0 -60 40 -83.5t142 -23.5q99 0 138.5 23.5t39.5 83.5q0 47 -17 67.5t-69 29.5l-193 32h-2l-21 -13q-34 -21 -46 -46t-12 -70zM111 343q0 -60 36.5 -88t121.5 -28t121 27.5t36 88.5 t-35.5 89.5t-121.5 28.5q-85 0 -121.5 -28.5t-36.5 -89.5z" />
<glyph unicode="h" horiz-adv-x="572" d="M90 0v700h41v-209q0 -61 -5 -94q129 97 229 97q130 0 130 -132v-362h-40v354q0 54 -24 79t-75 25q-49 0 -97 -21.5t-119 -70.5v-366h-40z" />
<glyph unicode="i" horiz-adv-x="227" d="M89 607v60q0 16 16 16h18q15 0 15 -16v-60q0 -16 -15 -16h-18q-16 0 -16 16zM94 0v482h39v-482h-39z" />
<glyph unicode="j" horiz-adv-x="228" d="M39 -191q55 71 55 154v519h40v-519q0 -98 -73 -171zM90 607v60q0 16 15 16h18q15 0 15 -16v-60q0 -16 -15 -16h-18q-15 0 -15 16z" />
<glyph unicode="k" horiz-adv-x="482" d="M90 0v700h41v-327q0 -45 -4 -82h79l182 191h49l-173 -184q-16 -15 -26 -23v-2q14 -12 26 -29l189 -244h-48l-199 259h-79q3 -45 3 -85v-174h-40z" />
<glyph unicode="l" horiz-adv-x="277" d="M91 100v600h40v-594q-1 -37 19 -56.5t57 -19.5h55l5 -29q-24 -8 -70 -8q-49 0 -77.5 28t-28.5 79z" />
<glyph unicode="m" horiz-adv-x="879" d="M91 0v482h31l4 -85q111 97 210 97q105 0 122 -96q111 96 209 96q125 0 125 -132v-362h-39v354q-1 104 -98 104q-44 0 -86 -21t-108 -71v-366h-39v354q0 104 -98 104q-43 0 -85.5 -21t-108.5 -71v-366h-39z" />
<glyph unicode="n" horiz-adv-x="573" d="M91 0v482h32l3 -85q125 97 230 97q130 0 130 -132v-362h-40v354q0 54 -24 79t-75 25q-49 0 -96.5 -21.5t-120.5 -70.5v-366h-39z" />
<glyph unicode="o" horiz-adv-x="562" d="M66 241q0 139 48.5 196t166.5 57t166.5 -57t48.5 -196t-48 -196t-167 -57t-167 57t-48 196zM108 241q0 -123 38 -170.5t135 -47.5t135.5 47.5t38.5 170.5t-38.5 170t-135.5 47t-135 -47t-38 -170z" />
<glyph unicode="p" horiz-adv-x="566" d="M91 -208v690h31l5 -85q102 97 200 97q92 0 132 -59.5t40 -194.5q0 -137 -41 -194.5t-136 -57.5q-94 0 -195 53q3 -26 3 -94v-155h-39zM130 68q118 -44 187 -44q77 0 109 48t32 168q0 119 -32 168.5t-107 49.5q-44 0 -86.5 -21t-102.5 -70v-299z" />
<glyph unicode="q" horiz-adv-x="562" d="M66 241q0 136 46 194.5t158 58.5q93 0 203 -32v-670h-40v192q0 64 5 95q-113 -91 -207 -91q-86 0 -125.5 60.5t-39.5 192.5zM107 238q0 -114 31 -164t103 -50q47 0 88.5 20t104.5 66v325q-85 23 -162 23q-91 0 -128 -48t-37 -172z" />
<glyph unicode="r" horiz-adv-x="388" d="M91 0v482h30l5 -85q122 97 220 97h20l-6 -38h-20q-46 0 -91.5 -20.5t-118.5 -67.5v-368h-39z" />
<glyph unicode="s" horiz-adv-x="501" d="M59 365q0 84 40 107.5t140 21.5q108 -2 191 -13l-4 -29q-115 6 -183 7q-86 2 -115.5 -13.5t-29.5 -80.5q0 -47 19 -67t59 -26l157 -23q55 -9 82.5 -38.5t27.5 -86.5q0 -85 -44 -110t-150 -25q-96 0 -179 12l4 29q86 -7 171 -6q93 1 126 19.5t33 80.5q0 44 -21.5 64 t-61.5 27l-157 23q-54 8 -79.5 37.5t-25.5 89.5z" />
<glyph unicode="t" horiz-adv-x="356" d="M32 448v29l87 4v150h40v-149h172v-34h-172v-342q0 -76 77 -76h84l5 -29q-45 -8 -92 -8q-114 0 -114 109v346h-87z" />
<glyph unicode="u" d="M87 120v362h40v-354q-1 -54 24 -79t77 -25q46 0 90.5 21t113.5 69v368h40v-482h-31l-4 83q-116 -95 -220 -95q-130 0 -130 132z" />
<glyph unicode="v" horiz-adv-x="513" d="M27 482h43l144 -361q6 -14 18 -44l18 -45h13q27 66 57.5 141.5t66 166t56.5 142.5h43l-192 -471q-6 -11 -18 -11h-40q-12 0 -17 11z" />
<glyph unicode="w" horiz-adv-x="815" d="M32 482h42l128 -385q5 -13 12.5 -38t8.5 -29h13q27 86 77 248.5t58 189.5q3 14 18 14h37q14 0 18 -14q8 -27 58.5 -189t76.5 -249h13q4 11 10.5 33.5t10.5 34.5l128 384h42l-160 -469q-5 -13 -18 -13h-39q-14 0 -19 14l-113 365q-14 48 -21 73h-11q-26 -87 -76 -250 t-58 -188q-5 -14 -19 -14h-39q-13 0 -18 13z" />
<glyph unicode="x" horiz-adv-x="511" d="M33 0l177 250l-165 232h46l151 -214h27l151 214h46l-165 -232l177 -250h-46l-165 235h-23l-165 -235h-46z" />
<glyph unicode="y" horiz-adv-x="512" d="M27 482h43l158 -395q2 -6 6.5 -17t8 -20t6.5 -17h13q35 88 101 251.5t80 197.5h42l-214 -524q-28 -70 -66 -111.5t-104 -55.5l-6 25q55 20 86.5 57t53.5 93l14 34h-13q-12 0 -17 12z" />
<glyph unicode="z" horiz-adv-x="502" d="M52 0v34l347 413h-344v35h392v-35l-348 -413h351v-34h-398z" />
<glyph unicode="{" horiz-adv-x="303" d="M53 309v38q26 8 33 10.5t17.5 11.5t12 22t1.5 38v211q0 68 32 98.5t106 29.5v-27q-56 0 -77.5 -24.5t-21.5 -77.5v-199q0 -59 -15.5 -80t-64.5 -32q51 -17 67 -37t17 -71v-256q0 -53 21.5 -77.5t77.5 -24.5v-27q-74 -1 -106 29.5t-32 98.5v268q0 20 -3 32t-14.5 21 t-19 12.5t-31.5 12.5z" />
<glyph unicode="|" horiz-adv-x="237" d="M102 -169v950h33v-950h-33z" />
<glyph unicode="}" horiz-adv-x="304" d="M44 -138q56 0 78 24.5t22 77.5v256q0 51 16.5 71t66.5 37q-48 11 -63.5 32t-15.5 80v199q0 53 -22 77.5t-78 24.5v27q74 1 106.5 -29.5t32.5 -98.5v-211q0 -46 10.5 -57.5t52.5 -24.5v-38q-24 -9 -32 -12.5t-19 -12t-13.5 -21t-2.5 -32.5v-268q0 -68 -32.5 -98.5 t-106.5 -29.5v27z" />
<glyph unicode="~" horiz-adv-x="531" d="M84 238q-3 48 18 73.5t58 23.5q42 -3 105.5 -33.5t103.5 -32.5q29 -2 42 12t13 49h24q2 -47 -18.5 -72t-57.5 -22q-51 3 -113.5 33.5t-95.5 32.5q-29 3 -42 -12.5t-13 -51.5h-24z" />
<glyph unicode="&#xa1;" horiz-adv-x="239" d="M96 406v60q0 17 18 17h13q17 0 17 -17v-60q0 -17 -17 -17h-13q-18 0 -18 17zM99 120l4 158h33l4 -158v-323h-41v323z" />
<glyph unicode="&#xa2;" horiz-adv-x="505" d="M65 350q0 138 50 195t171 58l6 87h28l-7 -88q63 -2 115 -18l-7 -28q-41 9 -111 11l-31 -434l15 -1q79 0 139 12l5 -28q-71 -19 -150 -19h-12l-8 -97h-27l8 98q-100 8 -142 66t-42 186zM105 350q0 -112 33 -160t114 -56l31 433q-99 -2 -138.5 -49t-39.5 -168z" />
<glyph unicode="&#xa3;" horiz-adv-x="562" d="M63 349v28h80l-7 148q-3 57 8.5 93.5t39 54t57.5 23t78 5.5q71 0 162 -10l-4 -31q-74 5 -176 5q-72 0 -100 -31.5t-25 -106.5l8 -150h240l-2 -28h-237l5 -101q3 -79 -12 -130t-61 -83q21 1 62 1h326v-36h-436v36q50 30 67.5 82t13.5 130l-5 101h-82z" />
<glyph unicode="&#xa4;" horiz-adv-x="600" d="M79 153l74 74q-46 52 -46 125q0 72 46 126l-73 73l20 21l74 -74q52 46 125 46t126 -47l74 75l20 -21l-74 -74q46 -54 46 -125q0 -72 -47 -125l76 -75l-21 -20l-75 75q-53 -47 -125 -47q-71 0 -125 46l-74 -74zM136 352q0 -68 48 -116t115 -47q67 -1 114.5 47t47.5 116 t-47.5 116t-114.5 48t-115 -48t-48 -116z" />
<glyph unicode="&#xa5;" horiz-adv-x="606" d="M48 690h44l169 -296q17 -28 39 -71h6q40 74 118.5 212t87.5 155h45l-217 -380h176v-28h-192l-1 -1v-81h193v-28h-193v-172h-41v172h-188v28h188v81l-1 1h-187v28h171z" />
<glyph unicode="&#xa6;" horiz-adv-x="239" d="M103 -169v400h33v-400h-33zM103 381v400h33v-400h-33z" />
<glyph unicode="&#xa7;" horiz-adv-x="543" d="M71 588q0 69 44 92t138 22q123 -2 217 -12l-4 -30q-95 6 -207 7q-38 0 -59.5 -1.5t-44 -8.5t-32.5 -24t-10 -45q0 -70 76 -114l184 -104q63 -36 80.5 -88t6.5 -137h-33q8 71 -7 116.5t-59 70.5l-187 107q-57 32 -80 65.5t-23 83.5zM74 -137l4 31q129 -7 207 -8 q31 0 48 0.5t38.5 4.5t32.5 12.5t19 25t8 40.5q0 72 -76 114l-183 104q-63 35 -81 86t-7 136h32q-8 -71 6 -114.5t60 -69.5l188 -106q55 -31 79 -65.5t24 -85.5q0 -33 -10 -55.5t-24 -34.5t-40.5 -18t-48.5 -7.5t-60 -1.5q-100 1 -216 12z" />
<glyph unicode="&#xa8;" horiz-adv-x="402" d="M92 608v56q0 14 13 14h15q14 0 14 -14v-56q0 -14 -14 -14h-15q-13 0 -13 14zM269 608v56q0 14 13 14h15q14 0 14 -14v-56q0 -14 -14 -14h-15q-13 0 -13 14z" />
<glyph unicode="&#xa9;" horiz-adv-x="852" d="M69 345q0 154 103.5 255.5t253.5 101.5q151 0 254.5 -101.5t103.5 -255.5t-103.5 -255.5t-254.5 -101.5q-150 0 -253.5 101.5t-103.5 255.5zM96 345q0 -141 96.5 -235.5t233.5 -94.5q138 0 234 94.5t96 235.5t-96 235.5t-234 94.5q-137 0 -233.5 -94.5t-96.5 -235.5z M236 348q0 126 43.5 177.5t151.5 51.5q82 0 134 -13l-6 -23q-54 5 -128 5q-90 0 -125.5 -43.5t-35.5 -154.5t35.5 -155t125.5 -44q93 0 140 7l4 -24q-58 -13 -144 -13q-108 0 -151.5 51.5t-43.5 177.5z" />
<glyph unicode="&#xaa;" horiz-adv-x="443" d="M75 349v41q0 36 22.5 56.5t63.5 20.5h164v39q0 67 -73 67q-67 0 -159 -9l-4 24q110 14 168 14q101 0 101 -96v-235h-25l-6 62q-27 -26 -71 -46.5t-89 -20.5q-43 0 -67.5 21.5t-24.5 61.5zM108 354q0 -57 67 -59q35 -1 77.5 17t72.5 43v91l-157 -5q-60 -1 -60 -53v-34z " />
<glyph unicode="&#xab;" horiz-adv-x="460" d="M49 245v12l163 198l20 -15l-142 -189l143 -192l-20 -15zM213 245v12l163 198l20 -15l-142 -189l143 -192l-20 -15z" />
<glyph unicode="&#xac;" horiz-adv-x="592" d="M83 280v33h422v-183h-34v150h-388z" />
<glyph unicode="&#xad;" horiz-adv-x="474" d="M82 235v33h310v-33h-310z" />
<glyph unicode="&#xae;" horiz-adv-x="574" d="M64 479q0 92 65 157t158 65q92 0 157 -65t65 -157q0 -93 -65 -158t-157 -65q-93 0 -158 65t-65 158zM86 479q0 -85 59 -144t142 -59t142 59t59 144q0 84 -59 143.5t-142 59.5t-142 -59.5t-59 -143.5zM187 340v277q35 3 111 3q56 0 79 -17t23 -62q0 -35 -14.5 -51.5 t-48.5 -20.5v-2q28 -5 39 -39l36 -88h-26l-34 86q-14 34 -51 34q-23 0 -53.5 0.5t-37.5 0.5v-121h-23zM210 478h88q44 1 61 13.5t17 47.5q0 36 -17 48.5t-61 12.5q-68 0 -88 -1v-121z" />
<glyph unicode="&#xaf;" horiz-adv-x="400" d="M68 621v33h264v-33h-264z" />
<glyph unicode="&#xb0;" horiz-adv-x="378" d="M64 578q0 51 36.5 87.5t88.5 36.5q51 0 88 -36.5t37 -87.5t-37 -88t-88 -37t-88 37t-37 88zM93 578q0 -39 28.5 -68t67.5 -29t67.5 29t28.5 68q0 40 -28 68t-68 28t-68 -28t-28 -68z" />
<glyph unicode="&#xb1;" horiz-adv-x="596" d="M87 88v33h422v-33h-422zM87 334v32h194v144h34v-144h194v-32h-195v-144h-33v144h-194z" />
<glyph unicode="&#xb2;" horiz-adv-x="439" d="M70 360v19q0 9 6 15l150 152q46 47 66.5 81.5t19.5 67.5q-1 36 -25.5 46.5t-77.5 10.5q-61 0 -131 -11l-4 24q73 16 135 16q73 0 106 -17.5t33 -69.5q0 -38 -21 -73.5t-69 -83.5l-146 -148q39 1 77 0h179v-29h-298z" />
<glyph unicode="&#xb3;" horiz-adv-x="422" d="M70 363l4 25q72 -7 131 -7q61 0 87.5 22t26.5 75q0 40 -22.5 63.5t-83.5 24.5h-85v24l85 1q41 1 64 16.5t28 32.5t5 40q-1 42 -25 57.5t-88 15.5q-54 0 -116 -6l-4 24q61 10 122 10q81 0 112 -20.5t31 -74.5q0 -92 -75 -105v-2q84 -12 86 -104q2 -64 -31 -93t-112 -29 q-52 0 -140 10z" />
<glyph unicode="&#xb4;" horiz-adv-x="287" d="M59 567l155 145l26 -29l-163 -136z" />
<glyph unicode="&#xb6;" horiz-adv-x="596" d="M50 450q0 138 69 195t232 57q83 0 139 -17v-685h-35v663q-51 6 -138 8v-881h-35v411q-124 11 -178 69t-54 180z" />
<glyph unicode="&#xb7;" horiz-adv-x="214" d="M82 227v60q0 17 18 17h14q17 0 17 -17v-60q0 -17 -17 -17h-14q-18 0 -18 17z" />
<glyph unicode="&#xb8;" horiz-adv-x="223" d="M40 -222l6 23q49 -2 78.5 23t29.5 62q0 25 -13 35t-46 11l5 21q44 3 65.5 -12.5t20.5 -52.5q-1 -55 -41 -86.5t-105 -23.5z" />
<glyph unicode="&#xb9;" horiz-adv-x="288" d="M44 730l124 44h33v-414h-33v351q0 21 2 32l-120 -35z" />
<glyph unicode="&#xba;" horiz-adv-x="448" d="M71 432q0 94 34 132t118 38q85 0 119.5 -38t34.5 -132q0 -93 -34.5 -131t-119.5 -38q-84 0 -118 38t-34 131zM105 432q0 -80 26 -110.5t92 -30.5t92.5 30.5t26.5 110.5t-26 111t-93 31q-66 0 -92 -31t-26 -111z" />
<glyph unicode="&#xbb;" horiz-adv-x="460" d="M63 59l144 192l-143 189l21 15l162 -198v-12l-163 -201zM227 59l144 192l-143 189l21 15l162 -198v-12l-163 -201z" />
<glyph unicode="&#xbc;" horiz-adv-x="846" d="M50 646l124 44h32v-414h-32v351q0 21 2 32l-121 -35zM129 0l471 690h34l-472 -690h-33zM466 163l142 251h34l-142 -249q-6 -10 0 -19t19 -9h200v129l7 70h25v-199h45v-23l-45 -3v-111h-32v110h-220q-22 0 -33 16t0 37z" />
<glyph unicode="&#xbd;" horiz-adv-x="875" d="M50 646l124 44h32v-414h-32v351q0 21 2 32l-121 -35zM127 0l472 690h33l-471 -690h-34zM521 0v19q0 8 5 15l151 152q46 47 66.5 81.5t19.5 67.5q-1 36 -26 46.5t-77 10.5q-61 0 -131 -11l-4 24q73 16 135 16q73 0 106 -17.5t33 -69.5q0 -38 -21 -73t-69 -84l-146 -148 q38 1 77 0h178v-29h-297z" />
<glyph unicode="&#xbe;" horiz-adv-x="936" d="M65 277l4 25q72 -7 131 -7q61 0 87.5 22t26.5 75q0 40 -22.5 63.5t-82.5 23.5l-86 1v23l86 2q31 1 51.5 9t29.5 22.5t12 27t3 29.5q-1 43 -25 58.5t-88 15.5q-54 0 -116 -6l-4 24q61 10 123 10q80 0 111 -20.5t31 -74.5q0 -92 -75 -105v-2q84 -12 86 -104 q2 -64 -30.5 -93t-111.5 -29q-51 0 -141 10zM232 0l472 690h33l-471 -690h-34zM555 163l143 251h33l-142 -249q-5 -11 1 -19.5t19 -8.5h191v129l7 70h25v-199h54v-23l-54 -3v-111h-32v110h-211q-22 0 -33.5 16.5t-0.5 36.5z" />
<glyph unicode="&#xbf;" horiz-adv-x="503" d="M52 -65q0 42 19 77.5t46.5 63t55 55.5t47 68t20.5 88h37q0 -53 -18.5 -96t-45.5 -71.5t-54 -54.5t-46 -57.5t-19 -68.5q-1 -63 38.5 -93.5t121.5 -30.5q89 0 198 13l5 -29q-11 -2 -34.5 -6t-35.5 -5.5t-33.5 -3.5t-46.5 -3t-57 -1q-198 0 -198 155zM236 415v60 q0 17 17 17h13q17 0 17 -17v-60q0 -17 -17 -17h-13q-17 0 -17 17z" />
<glyph unicode="&#xc0;" horiz-adv-x="608" d="M17 0l241 677q5 13 18 13h56q13 0 18 -13l241 -677h-43l-85 243h-318l-85 -243h-43zM158 279h292q-8 24 -57 163.5t-75 213.5h-28q-26 -74 -74.5 -213t-57.5 -164zM165 870l26 29l155 -145l-18 -20z" />
<glyph unicode="&#xc1;" horiz-adv-x="608" d="M17 0l241 677q5 13 18 13h56q13 0 18 -13l241 -677h-43l-85 243h-318l-85 -243h-43zM158 279h292q-8 24 -57 163.5t-75 213.5h-28q-26 -74 -74.5 -213t-57.5 -164zM252 754l155 145l26 -29l-163 -136z" />
<glyph unicode="&#xc2;" horiz-adv-x="608" d="M17 0l241 677q5 13 18 13h56q13 0 18 -13l241 -677h-43l-85 243h-318l-85 -243h-43zM154 765l135 119h29l135 -119l-16 -19l-129 101h-8l-130 -101zM158 279h292q-8 24 -57 163.5t-75 213.5h-28q-26 -74 -74.5 -213t-57.5 -164z" />
<glyph unicode="&#xc3;" horiz-adv-x="608" d="M17 0l241 677q5 13 18 13h56q13 0 18 -13l241 -677h-43l-85 243h-318l-85 -243h-43zM156 774q-3 48 18 73.5t58 22.5q30 -3 71.5 -33t70.5 -32q30 -3 43 11.5t13 48.5h23q2 -46 -18.5 -70.5t-57.5 -21.5q-36 3 -78.5 32.5t-64.5 32.5q-29 3 -42 -12.5t-13 -51.5h-23z M158 279h292q-8 24 -57 163.5t-75 213.5h-28q-26 -74 -74.5 -213t-57.5 -164z" />
<glyph unicode="&#xc4;" horiz-adv-x="608" d="M17 0l241 677q5 13 18 13h56q13 0 18 -13l241 -677h-43l-85 243h-318l-85 -243h-43zM158 279h292q-8 24 -57 163.5t-75 213.5h-28q-26 -74 -74.5 -213t-57.5 -164zM195 790v55q0 15 13 15h15q13 0 13 -15v-55q0 -15 -13 -15h-15q-13 0 -13 15zM372 790v55q0 15 13 15h15 q13 0 13 -15v-55q0 -15 -13 -15h-15q-13 0 -13 15z" />
<glyph unicode="&#xc5;" horiz-adv-x="608" d="M17 0l241 677q5 13 18 13h56q13 0 18 -13l241 -677h-43l-85 243h-318l-85 -243h-43zM158 279h292q-8 24 -57 163.5t-75 213.5h-28q-26 -74 -74.5 -213t-57.5 -164zM206 815.5q0 40.5 28.5 69t69.5 28.5q27 0 50 -13t36 -35.5t13 -49.5t-13 -49t-36 -35t-50 -13 q-41 0 -69.5 28.5t-28.5 69zM233 815q0 -31 20.5 -51.5t50.5 -20.5q12 0 23 3.5t20 10t15.5 15t10 20t3.5 23.5q0 31 -21 52t-51 21t-50.5 -21t-20.5 -52z" />
<glyph unicode="&#xc6;" horiz-adv-x="908" d="M8 0l384 599q35 54 75.5 72.5t105.5 18.5q176 0 277 -4v-32h-265q-36 0 -57.5 -21t-21.5 -57v-191h302v-34h-302v-237q0 -36 21.5 -57.5t57.5 -21.5h265v-31q-92 -4 -278 -4q-46 0 -76 30t-30 76v154h-246l-166 -260h-46zM242 295h224v284q0 23 11.5 45.5t27.5 30.5h-7 q-37 -17 -71 -69z" />
<glyph unicode="&#xc7;" d="M72 345q0 197 58 277t201 80q105 0 178 -18l-7 -30q-78 11 -171 11q-121 0 -168.5 -70.5t-47.5 -249.5t47.5 -249.5t168.5 -70.5q108 0 185 13l7 -31q-79 -19 -192 -19q-143 0 -201 80t-58 277zM237 -234l6 23q49 -2 78.5 23t29.5 62q0 25 -13 35t-46 11l5 21 q89 6 86 -65q-1 -55 -41 -86.5t-105 -23.5z" />
<glyph unicode="&#xc8;" horiz-adv-x="553" d="M93 106v478q0 47 30.5 76.5t79.5 29.5q198 0 294 -4l-2 -31h-285q-34 0 -55 -21.5t-21 -56.5v-192h320v-34h-320v-238q0 -35 21 -56.5t55 -21.5h285l2 -31q-96 -4 -294 -4q-49 0 -79.5 29.5t-30.5 76.5zM171 894l26 29l155 -145l-18 -20z" />
<glyph unicode="&#xc9;" horiz-adv-x="553" d="M93 106v478q0 47 30.5 76.5t79.5 29.5q198 0 294 -4l-2 -31h-285q-34 0 -55 -21.5t-21 -56.5v-192h320v-34h-320v-238q0 -35 21 -56.5t55 -21.5h285l2 -31q-96 -4 -294 -4q-49 0 -79.5 29.5t-30.5 76.5zM257 778l156 145l25 -29l-163 -136z" />
<glyph unicode="&#xca;" horiz-adv-x="553" d="M93 106v478q0 47 30.5 76.5t79.5 29.5q198 0 294 -4l-2 -31h-285q-34 0 -55 -21.5t-21 -56.5v-192h320v-34h-320v-238q0 -35 21 -56.5t55 -21.5h285l2 -31q-96 -4 -294 -4q-49 0 -79.5 29.5t-30.5 76.5zM160 788l134 120h30l135 -120l-16 -18l-130 101h-8l-129 -101z" />
<glyph unicode="&#xcb;" horiz-adv-x="553" d="M93 106v478q0 47 30.5 76.5t79.5 29.5q198 0 294 -4l-2 -31h-285q-34 0 -55 -21.5t-21 -56.5v-192h320v-34h-320v-238q0 -35 21 -56.5t55 -21.5h285l2 -31q-96 -4 -294 -4q-49 0 -79.5 29.5t-30.5 76.5zM200 813v56q0 14 14 14h14q14 0 14 -14v-56q0 -14 -14 -14h-14 q-14 0 -14 14zM377 813v56q0 14 14 14h14q14 0 14 -14v-56q0 -14 -14 -14h-14q-14 0 -14 14z" />
<glyph unicode="&#xcc;" horiz-adv-x="239" d="M-20 870l26 29l155 -145l-18 -20zM99 0v690h41v-690h-41z" />
<glyph unicode="&#xcd;" horiz-adv-x="239" d="M67 754l155 145l26 -29l-163 -136zM99 0v690h41v-690h-41z" />
<glyph unicode="&#xce;" horiz-adv-x="239" d="M-31 765l135 119h29l135 -119l-16 -19l-130 101h-8l-129 -101zM99 0v690h41v-690h-41z" />
<glyph unicode="&#xcf;" horiz-adv-x="239" d="M9 790v55q0 15 14 15h15q13 0 13 -15v-55q0 -15 -13 -15h-15q-14 0 -14 15zM99 0v690h41v-690h-41zM186 790v55q0 15 14 15h15q13 0 13 -15v-55q0 -15 -13 -15h-15q-14 0 -14 15z" />
<glyph unicode="&#xd0;" horiz-adv-x="664" d="M25 356v28h77v306q122 9 234 9q141 0 198 -79t57 -275t-57 -275t-198 -79q-110 0 -234 9v356h-77zM143 31q84 -3 193 -3q118 0 165 70t47 247t-47 247t-165 70q-106 0 -193 -3v-275h175v-28h-175v-325z" />
<glyph unicode="&#xd1;" horiz-adv-x="692" d="M99 0v670q0 20 20 20h50q17 0 24 -15l290 -551q7 -13 45 -86h25q0 16 -0.5 47.5t-0.5 46.5v558h41v-670q0 -20 -19 -20h-54q-16 0 -23 15l-298 564q-28 54 -37 74h-23q1 -25 1 -75v-578h-41zM210 774q-2 48 19 73.5t57 22.5q30 -3 72 -33t71 -32q30 -3 42.5 11.5 t12.5 48.5h23q3 -47 -18 -71t-58 -21q-36 3 -78 32.5t-64 32.5q-30 3 -43 -12.5t-13 -51.5h-23z" />
<glyph unicode="&#xd2;" horiz-adv-x="664" d="M72 345q0 198 58 277.5t202 79.5t201.5 -79t57.5 -278t-57.5 -278t-201.5 -79t-202 79.5t-58 277.5zM115 345q0 -178 48 -249t169 -71t168.5 70.5t47.5 249.5t-47.5 249.5t-168.5 70.5t-169 -71t-48 -249zM193 870l26 29l155 -145l-18 -20z" />
<glyph unicode="&#xd3;" horiz-adv-x="664" d="M72 345q0 198 58 277.5t202 79.5t201.5 -79t57.5 -278t-57.5 -278t-201.5 -79t-202 79.5t-58 277.5zM115 345q0 -178 48 -249t169 -71t168.5 70.5t47.5 249.5t-47.5 249.5t-168.5 70.5t-169 -71t-48 -249zM280 754l155 145l26 -29l-163 -136z" />
<glyph unicode="&#xd4;" horiz-adv-x="664" d="M72 345q0 198 58 277.5t202 79.5t201.5 -79t57.5 -278t-57.5 -278t-201.5 -79t-202 79.5t-58 277.5zM115 345q0 -178 48 -249t169 -71t168.5 70.5t47.5 249.5t-47.5 249.5t-168.5 70.5t-169 -71t-48 -249zM182 765l135 119h29l135 -119l-16 -19l-129 101h-8l-130 -101z " />
<glyph unicode="&#xd5;" horiz-adv-x="664" d="M72 345q0 198 58 277.5t202 79.5t201.5 -79t57.5 -278t-57.5 -278t-201.5 -79t-202 79.5t-58 277.5zM115 345q0 -178 48 -249t169 -71t168.5 70.5t47.5 249.5t-47.5 249.5t-168.5 70.5t-169 -71t-48 -249zM184 774q-3 48 18 73.5t58 22.5q30 -3 71.5 -33t70.5 -32 q30 -3 43 11.5t13 48.5h23q2 -46 -18.5 -70.5t-57.5 -21.5q-36 3 -78.5 32.5t-64.5 32.5q-29 3 -42 -12.5t-13 -51.5h-23z" />
<glyph unicode="&#xd6;" horiz-adv-x="664" d="M72 345q0 198 58 277.5t202 79.5t201.5 -79t57.5 -278t-57.5 -278t-201.5 -79t-202 79.5t-58 277.5zM115 345q0 -178 48 -249t169 -71t168.5 70.5t47.5 249.5t-47.5 249.5t-168.5 70.5t-169 -71t-48 -249zM223 790v55q0 15 13 15h15q13 0 13 -15v-55q0 -15 -13 -15h-15 q-13 0 -13 15zM400 790v55q0 15 13 15h15q13 0 13 -15v-55q0 -15 -13 -15h-15q-13 0 -13 15z" />
<glyph unicode="&#xd7;" horiz-adv-x="487" d="M60 433l21 26l352 -316l-21 -26z" />
<glyph unicode="&#xd8;" horiz-adv-x="664" d="M72 345q0 198 58 277.5t202 79.5q82 0 132 -23l30 64l28 -12l-31 -67q53 -36 76.5 -112t23.5 -207q0 -199 -57.5 -278t-201.5 -79q-91 0 -145 29l-33 -70l-27 13l35 74q-47 38 -68.5 113t-21.5 198zM115 345q0 -204 66 -271l266 568q-43 23 -115 23q-121 0 -169 -71 t-48 -249zM205 55q46 -30 127 -30q121 0 168.5 70.5t47.5 249.5q0 113 -17.5 180t-58.5 100z" />
<glyph unicode="&#xd9;" horiz-adv-x="667" d="M94 257v433h41v-433q0 -128 44.5 -180t154.5 -52q108 0 153 52t45 180v433h41v-433q0 -146 -54 -207.5t-184 -61.5q-132 0 -186.5 61.5t-54.5 207.5zM196 870l26 29l155 -145l-18 -20z" />
<glyph unicode="&#xda;" horiz-adv-x="667" d="M94 257v433h41v-433q0 -128 44.5 -180t154.5 -52q108 0 153 52t45 180v433h41v-433q0 -146 -54 -207.5t-184 -61.5q-132 0 -186.5 61.5t-54.5 207.5zM282 754l155 145l26 -29l-163 -136z" />
<glyph unicode="&#xdb;" horiz-adv-x="667" d="M94 257v433h41v-433q0 -128 44.5 -180t154.5 -52q108 0 153 52t45 180v433h41v-433q0 -146 -54 -207.5t-184 -61.5q-132 0 -186.5 61.5t-54.5 207.5zM184 765l135 119h30l135 -119l-16 -19l-130 101h-8l-129 -101z" />
<glyph unicode="&#xdc;" horiz-adv-x="667" d="M94 257v433h41v-433q0 -128 44.5 -180t154.5 -52q108 0 153 52t45 180v433h41v-433q0 -146 -54 -207.5t-184 -61.5q-132 0 -186.5 61.5t-54.5 207.5zM225 790v55q0 15 13 15h15q14 0 14 -15v-55q0 -15 -14 -15h-15q-13 0 -13 15zM402 790v55q0 15 14 15h14q14 0 14 -15 v-55q0 -15 -14 -15h-14q-14 0 -14 15z" />
<glyph unicode="&#xdd;" horiz-adv-x="548" d="M19 690h45l171 -322q6 -11 18 -35l18 -36h6l35 70l171 323h45l-233 -437v-253h-42v254zM222 754l155 145l26 -29l-163 -136z" />
<glyph unicode="&#xde;" horiz-adv-x="585" d="M99 0v690h41v-136q52 4 184 4q115 0 160 -43.5t45 -163.5t-44.5 -163.5t-157.5 -43.5q-107 0 -187 6v-150h-41zM140 181h184q92 2 127.5 36.5t35.5 133.5q0 100 -35.5 135.5t-127.5 35.5q-106 0 -184 -2v-339z" />
<glyph unicode="&#xdf;" horiz-adv-x="657" d="M34 448v30l87 3v53q0 60 14.5 97.5t46 55t64 22.5t86.5 5q108 0 160 -25.5t52 -90.5q0 -55 -21.5 -82t-76.5 -49q-11 -4 -36.5 -13t-32.5 -12t-22 -11.5t-18.5 -16t-8 -19.5t-4.5 -29q0 -33 16.5 -49.5t49.5 -27.5l125 -42q49 -16 72 -43.5t23 -80.5q0 -83 -39.5 -108.5 t-124.5 -25.5q-89 0 -164 11l3 30q67 -7 157 -7q71 2 99.5 20.5t28.5 80.5q0 44 -17.5 62t-55.5 31l-125 42q-43 15 -65 39t-22 67q0 18 2.5 32t11.5 25t15 18t23.5 16t25 12.5t33 12.5t34.5 13q45 17 61 38t16 65q0 46 -42.5 64.5t-131.5 18.5q-99 0 -135.5 -30t-36.5 -118 v-532h-40v448h-87z" />
<glyph unicode="&#xe0;" horiz-adv-x="541" d="M62 118v60q0 55 31.5 85t88.5 30h232v61q0 50 -24 77t-83 27q-86 0 -221 -15l-4 30q152 21 230 21q142 0 142 -140v-354h-30l-7 89q-37 -36 -99.5 -66t-124.5 -30t-96.5 32.5t-34.5 92.5zM103 121q0 -90 94 -91q50 -1 112 25.5t105 66.5v139l-228 -3q-83 -1 -83 -83v-54z M128 688l26 30l155 -146l-18 -20z" />
<glyph unicode="&#xe1;" horiz-adv-x="541" d="M62 118v60q0 55 31.5 85t88.5 30h232v61q0 50 -24 77t-83 27q-86 0 -221 -15l-4 30q152 21 230 21q142 0 142 -140v-354h-30l-7 89q-37 -36 -99.5 -66t-124.5 -30t-96.5 32.5t-34.5 92.5zM103 121q0 -90 94 -91q50 -1 112 25.5t105 66.5v139l-228 -3q-83 -1 -83 -83v-54z M215 572l155 146l26 -30l-163 -136z" />
<glyph unicode="&#xe2;" horiz-adv-x="541" d="M62 118v60q0 55 31.5 85t88.5 30h232v61q0 50 -24 77t-83 27q-86 0 -221 -15l-4 30q152 21 230 21q142 0 142 -140v-354h-30l-7 89q-37 -36 -99.5 -66t-124.5 -30t-96.5 32.5t-34.5 92.5zM103 121q0 -90 94 -91q50 -1 112 25.5t105 66.5v139l-228 -3q-83 -1 -83 -83v-54z M117 583l135 120h29l135 -120l-15 -18l-130 101h-8l-129 -101z" />
<glyph unicode="&#xe3;" horiz-adv-x="541" d="M62 118v60q0 55 31.5 85t88.5 30h232v61q0 50 -24 77t-83 27q-86 0 -221 -15l-4 30q152 21 230 21q142 0 142 -140v-354h-30l-7 89q-37 -36 -99.5 -66t-124.5 -30t-96.5 32.5t-34.5 92.5zM103 121q0 -90 94 -91q50 -1 112 25.5t105 66.5v139l-228 -3q-83 -1 -83 -83v-54z M119 593q-3 48 18 73t58 22q30 -3 71.5 -32.5t70.5 -32.5q30 -2 43 12t13 48h23q2 -46 -19 -70.5t-57 -21.5t-78 33t-65 32q-55 6 -55 -63h-23z" />
<glyph unicode="&#xe4;" horiz-adv-x="541" d="M62 118v60q0 55 31.5 85t88.5 30h232v61q0 50 -24 77t-83 27q-86 0 -221 -15l-4 30q152 21 230 21q142 0 142 -140v-354h-30l-7 89q-37 -36 -99.5 -66t-124.5 -30t-96.5 32.5t-34.5 92.5zM103 121q0 -90 94 -91q50 -1 112 25.5t105 66.5v139l-228 -3q-83 -1 -83 -83v-54z M158 608v56q0 14 13 14h15q13 0 13 -14v-56q0 -14 -13 -14h-15q-13 0 -13 14zM335 608v56q0 14 13 14h15q14 0 14 -14v-56q0 -14 -14 -14h-15q-13 0 -13 14z" />
<glyph unicode="&#xe5;" horiz-adv-x="541" d="M62 118v60q0 55 31.5 85t88.5 30h232v61q0 50 -24 77t-83 27q-86 0 -221 -15l-4 30q152 21 230 21q142 0 142 -140v-354h-30l-7 89q-37 -36 -99.5 -66t-124.5 -30t-96.5 32.5t-34.5 92.5zM103 121q0 -90 94 -91q50 -1 112 25.5t105 66.5v139l-228 -3q-83 -1 -83 -83v-54z M169 634q0 41 29 69.5t70 28.5q40 0 69 -29t29 -69q0 -41 -28.5 -69.5t-69.5 -28.5t-70 28.5t-29 69.5zM197 634q0 -31 20 -51.5t51 -20.5q30 0 50.5 20.5t20.5 51.5q0 30 -20.5 51t-50.5 21q-31 0 -51 -20.5t-20 -51.5z" />
<glyph unicode="&#xe6;" horiz-adv-x="878" d="M62 118v60q0 55 31.5 85t88.5 30h232v61q0 50 -24 77t-83 27q-86 0 -221 -15l-4 30q152 21 230 21q109 0 134 -80q45 80 179 80q191 0 194 -142q1 -70 -31 -100.5t-108 -30.5h-224q4 -110 46 -153.5t136 -43.5q83 0 165 12l5 -28q-60 -20 -175 -20q-157 0 -198 111 q-38 -39 -106 -72.5t-136 -33.5q-62 0 -96.5 32.5t-34.5 92.5zM103 121q0 -90 94 -91q52 -1 117 26.5t112 69.5q-12 50 -12 117v18l-228 -3q-83 -1 -83 -83v-54zM456 254h218q58 0 82 22.5t22 73.5q-1 108 -152 108q-93 0 -131 -45t-39 -159z" />
<glyph unicode="&#xe7;" horiz-adv-x="481" d="M65 241q0 139 50.5 196t171.5 57q87 0 141 -19l-7 -27q-53 10 -127 10q-104 0 -145.5 -46.5t-41.5 -170.5t41.5 -170.5t145.5 -46.5q84 0 139 11l6 -28q-73 -19 -151 -19q-122 0 -172.5 57t-50.5 196zM192 -234l6 23q49 -2 78 22.5t30 62.5q0 25 -13 35t-46 11l4 21 q45 3 66.5 -12.5t20.5 -52.5q-1 -55 -41.5 -86.5t-104.5 -23.5z" />
<glyph unicode="&#xe8;" horiz-adv-x="530" d="M65 243q0 138 48.5 194.5t162.5 56.5q191 0 194 -142q2 -66 -23.5 -98.5t-82.5 -32.5h-257q4 -110 46 -153.5t136 -43.5q83 0 165 12l5 -28q-60 -20 -175 -20q-117 0 -168 58.5t-51 196.5zM107 254h251q74 0 71 96q-1 56 -37.5 82t-113.5 26q-94 0 -132 -45t-39 -159z M139 688l25 30l155 -146l-17 -20z" />
<glyph unicode="&#xe9;" horiz-adv-x="530" d="M65 243q0 138 48.5 194.5t162.5 56.5q191 0 194 -142q2 -66 -23.5 -98.5t-82.5 -32.5h-257q4 -110 46 -153.5t136 -43.5q83 0 165 12l5 -28q-60 -20 -175 -20q-117 0 -168 58.5t-51 196.5zM107 254h251q74 0 71 96q-1 56 -37.5 82t-113.5 26q-94 0 -132 -45t-39 -159z M225 572l155 146l26 -30l-163 -136z" />
<glyph unicode="&#xea;" horiz-adv-x="530" d="M65 243q0 138 48.5 194.5t162.5 56.5q191 0 194 -142q2 -66 -23.5 -98.5t-82.5 -32.5h-257q4 -110 46 -153.5t136 -43.5q83 0 165 12l5 -28q-60 -20 -175 -20q-117 0 -168 58.5t-51 196.5zM107 254h251q74 0 71 96q-1 56 -37.5 82t-113.5 26q-94 0 -132 -45t-39 -159z M127 583l135 120h30l135 -120l-16 -18l-130 101h-8l-129 -101z" />
<glyph unicode="&#xeb;" horiz-adv-x="530" d="M65 243q0 138 48.5 194.5t162.5 56.5q191 0 194 -142q2 -66 -23.5 -98.5t-82.5 -32.5h-257q4 -110 46 -153.5t136 -43.5q83 0 165 12l5 -28q-60 -20 -175 -20q-117 0 -168 58.5t-51 196.5zM107 254h251q74 0 71 96q-1 56 -37.5 82t-113.5 26q-94 0 -132 -45t-39 -159z M168 608v56q0 14 13 14h15q14 0 14 -14v-56q0 -14 -14 -14h-15q-13 0 -13 14zM345 608v56q0 14 14 14h14q14 0 14 -14v-56q0 -14 -14 -14h-14q-14 0 -14 14z" />
<glyph unicode="&#xec;" horiz-adv-x="228" d="M-26 688l26 30l155 -146l-18 -20zM94 0v482h40v-482h-40z" />
<glyph unicode="&#xed;" horiz-adv-x="228" d="M61 572l155 146l26 -30l-163 -136zM94 0v482h40v-482h-40z" />
<glyph unicode="&#xee;" horiz-adv-x="228" d="M-37 583l135 120h29l135 -120l-16 -18l-130 101h-8l-129 -101zM94 0v482h40v-482h-40z" />
<glyph unicode="&#xef;" horiz-adv-x="228" d="M3 608v56q0 14 14 14h15q13 0 13 -14v-56q0 -14 -13 -14h-15q-14 0 -14 14zM94 0v482h40v-482h-40zM180 608v56q0 14 14 14h15q13 0 13 -14v-56q0 -14 -13 -14h-15q-14 0 -14 14z" />
<glyph unicode="&#xf0;" horiz-adv-x="551" d="M66 220q0 110 47 168.5t154 58.5q81 0 159 -50q-21 137 -102 207l-89 -63l-16 22l82 58q-71 48 -184 48l7 29q123 4 207 -55l83 59l16 -23l-76 -54q120 -104 120 -345q0 -53 -3.5 -91t-15.5 -78.5t-33.5 -65.5t-59.5 -41t-91 -16q-105 0 -155 55.5t-50 176.5zM108 220 q0 -106 39.5 -151.5t124.5 -45.5q42 0 71.5 12.5t47 33.5t27.5 56.5t13 72t3 88.5q0 31 -4 81q-77 45 -164 45q-86 0 -122 -50.5t-36 -141.5z" />
<glyph unicode="&#xf1;" horiz-adv-x="573" d="M91 0v482h32l3 -85q125 97 230 97q130 0 130 -132v-362h-40v354q0 54 -24 79t-75 25q-49 0 -96.5 -21.5t-120.5 -70.5v-366h-39zM146 593q-3 48 18 73t57 22q30 -3 72 -32.5t71 -32.5q30 -2 42.5 12t12.5 48h23q3 -46 -17.5 -70.5t-57.5 -21.5t-79 33t-64 32 q-55 6 -55 -63h-23z" />
<glyph unicode="&#xf2;" horiz-adv-x="562" d="M66 241q0 139 48.5 196t166.5 57t166.5 -57t48.5 -196t-48 -196t-167 -57t-167 57t-48 196zM108 241q0 -123 38 -170.5t135 -47.5t135.5 47.5t38.5 170.5t-38.5 170t-135.5 47t-135 -47t-38 -170zM141 688l26 30l155 -146l-18 -20z" />
<glyph unicode="&#xf3;" horiz-adv-x="562" d="M66 241q0 139 48.5 196t166.5 57t166.5 -57t48.5 -196t-48 -196t-167 -57t-167 57t-48 196zM108 241q0 -123 38 -170.5t135 -47.5t135.5 47.5t38.5 170.5t-38.5 170t-135.5 47t-135 -47t-38 -170zM228 572l155 146l26 -30l-163 -136z" />
<glyph unicode="&#xf4;" horiz-adv-x="562" d="M66 241q0 139 48.5 196t166.5 57t166.5 -57t48.5 -196t-48 -196t-167 -57t-167 57t-48 196zM108 241q0 -123 38 -170.5t135 -47.5t135.5 47.5t38.5 170.5t-38.5 170t-135.5 47t-135 -47t-38 -170zM130 583l135 120h29l135 -120l-16 -18l-130 101h-8l-129 -101z" />
<glyph unicode="&#xf5;" horiz-adv-x="562" d="M66 241q0 139 48.5 196t166.5 57t166.5 -57t48.5 -196t-48 -196t-167 -57t-167 57t-48 196zM108 241q0 -123 38 -170.5t135 -47.5t135.5 47.5t38.5 170.5t-38.5 170t-135.5 47t-135 -47t-38 -170zM132 593q-3 48 18 73t57 22q30 -3 72 -32.5t71 -32.5q30 -2 42.5 12 t12.5 48h23q3 -46 -17.5 -70.5t-57.5 -21.5t-79 33t-64 32q-55 6 -55 -63h-23z" />
<glyph unicode="&#xf6;" horiz-adv-x="562" d="M66 241q0 139 48.5 196t166.5 57t166.5 -57t48.5 -196t-48 -196t-167 -57t-167 57t-48 196zM108 241q0 -123 38 -170.5t135 -47.5t135.5 47.5t38.5 170.5t-38.5 170t-135.5 47t-135 -47t-38 -170zM170 608v56q0 14 14 14h15q13 0 13 -14v-56q0 -14 -13 -14h-15 q-14 0 -14 14zM347 608v56q0 14 14 14h15q13 0 13 -14v-56q0 -14 -13 -14h-15q-14 0 -14 14z" />
<glyph unicode="&#xf7;" horiz-adv-x="584" d="M81 279v33h422v-33h-422zM267 100v59q0 17 17 17h13q17 0 17 -17v-59q0 -17 -17 -17h-13q-17 0 -17 17zM267 432v59q0 17 17 17h13q17 0 17 -17v-59q0 -17 -17 -17h-13q-17 0 -17 17z" />
<glyph unicode="&#xf8;" horiz-adv-x="562" d="M66 241q0 139 48.5 196t166.5 57q55 0 94 -12l29 62l24 -11l-28 -60q51 -24 73.5 -79.5t22.5 -152.5q0 -139 -48 -196t-167 -57q-61 0 -101 13l-30 -66l-25 12l31 65q-48 24 -69 79t-21 150zM108 241q0 -154 64 -194l187 401q-30 10 -78 10q-97 0 -135 -47t-38 -170z M196 35q35 -12 85 -12q97 0 135.5 47.5t38.5 170.5q0 83 -16.5 129.5t-54.5 67.5z" />
<glyph unicode="&#xf9;" d="M87 120v362h40v-354q-1 -54 24 -79t77 -25q46 0 90.5 21t113.5 69v368h40v-482h-31l-4 83q-116 -95 -220 -95q-130 0 -130 132zM143 689l26 30l155 -146l-18 -20z" />
<glyph unicode="&#xfa;" d="M87 120v362h40v-354q-1 -54 24 -79t77 -25q46 0 90.5 21t113.5 69v368h40v-482h-31l-4 83q-116 -95 -220 -95q-130 0 -130 132zM229 573l155 146l26 -30l-163 -136z" />
<glyph unicode="&#xfb;" d="M87 120v362h40v-354q-1 -54 24 -79t77 -25q46 0 90.5 21t113.5 69v368h40v-482h-31l-4 83q-116 -95 -220 -95q-130 0 -130 132zM132 584l134 120h30l135 -120l-16 -18l-130 101h-8l-129 -101z" />
<glyph unicode="&#xfc;" d="M87 120v362h40v-354q-1 -54 24 -79t77 -25q46 0 90.5 21t113.5 69v368h40v-482h-31l-4 83q-116 -95 -220 -95q-130 0 -130 132zM172 609v56q0 14 13 14h15q14 0 14 -14v-56q0 -14 -14 -14h-15q-13 0 -13 14zM349 609v56q0 14 14 14h14q14 0 14 -14v-56q0 -14 -14 -14h-14 q-14 0 -14 14z" />
<glyph unicode="&#xfd;" horiz-adv-x="512" d="M27 482h43l158 -395q2 -6 6.5 -17t8 -20t6.5 -17h13q35 88 101 251.5t80 197.5h42l-214 -524q-28 -70 -66 -111.5t-104 -55.5l-6 25q55 20 86.5 57t53.5 93l14 34h-13q-12 0 -17 12zM206 572l155 146l26 -30l-163 -136z" />
<glyph unicode="&#xfe;" horiz-adv-x="565" d="M91 -208v908h39v-195q0 -69 -3 -95q101 84 196 84q94 0 134 -58.5t40 -195.5t-40.5 -194.5t-134.5 -57.5q-92 0 -194 51q2 -22 2 -92v-155h-39zM130 68q115 -45 185 -45q76 0 108.5 49t32.5 168q0 120 -32 169t-108 49q-78 0 -186 -82v-308z" />
<glyph unicode="&#xff;" horiz-adv-x="512" d="M27 482h43l158 -395q2 -6 6.5 -17t8 -20t6.5 -17h13q35 88 101 251.5t80 197.5h42l-214 -524q-28 -70 -66 -111.5t-104 -55.5l-6 25q55 20 86.5 57t53.5 93l14 34h-13q-12 0 -17 12zM149 608v56q0 14 13 14h15q14 0 14 -14v-56q0 -14 -14 -14h-15q-13 0 -13 14zM326 608 v56q0 14 14 14h14q14 0 14 -14v-56q0 -14 -14 -14h-14q-14 0 -14 14z" />
<glyph unicode="&#x100;" horiz-adv-x="608" d="M17 0l241 677q5 13 18 13h56q13 0 18 -13l241 -677h-43l-85 243h-318l-85 -243h-43zM158 279h292q-8 24 -57 163.5t-75 213.5h-28q-26 -74 -74.5 -213t-57.5 -164zM172 799v34h265v-34h-265z" />
<glyph unicode="&#x101;" horiz-adv-x="541" d="M62 118v60q0 55 31.5 85t88.5 30h232v61q0 50 -24 77t-83 27q-86 0 -221 -15l-4 30q152 21 230 21q142 0 142 -140v-354h-30l-7 89q-37 -36 -99.5 -66t-124.5 -30t-96.5 32.5t-34.5 92.5zM103 121q0 -90 94 -91q50 -1 112 25.5t105 66.5v139l-228 -3q-83 -1 -83 -83v-54z M135 618v33h265v-33h-265z" />
<glyph unicode="&#x102;" horiz-adv-x="608" d="M17 0l241 677q5 13 18 13h56q13 0 18 -13l241 -677h-43l-85 243h-318l-85 -243h-43zM158 279h292q-8 24 -57 163.5t-75 213.5h-28q-26 -74 -74.5 -213t-57.5 -164zM164 871l25 5q0 -43 30.5 -66t85.5 -23q53 0 83.5 23.5t29.5 65.5l25 -5q1 -55 -36.5 -86.5t-102.5 -31.5 t-103 31.5t-37 86.5z" />
<glyph unicode="&#x103;" horiz-adv-x="541" d="M62 118v60q0 55 31.5 85t88.5 30h232v61q0 50 -24 77t-83 27q-86 0 -221 -15l-4 30q152 21 230 21q142 0 142 -140v-354h-30l-7 89q-37 -36 -99.5 -66t-124.5 -30t-96.5 32.5t-34.5 92.5zM103 121q0 -90 94 -91q50 -1 112 25.5t105 66.5v139l-228 -3q-83 -1 -83 -83v-54z M127 690l25 4q0 -42 31 -65.5t85 -23.5q53 0 83.5 23.5t30.5 65.5l24 -4q1 -55 -36 -87t-102 -32q-66 0 -104 32t-37 87z" />
<glyph unicode="&#x104;" horiz-adv-x="608" d="M17 0l241 677q5 13 18 13h56q13 0 18 -13l241 -677q-63 -65 -83 -123q-16 -44 9 -58t80 5l5 -18q-80 -32 -113 -7.5t-13 79.5q19 59 90 122h-18l-85 243h-318l-85 -243h-43zM158 279h292q-8 24 -57 163.5t-75 213.5h-28q-26 -74 -74.5 -213t-57.5 -164z" />
<glyph unicode="&#x105;" horiz-adv-x="541" d="M62 118v60q0 55 31.5 85t88.5 30h232v61q0 50 -24 77t-83 27q-86 0 -221 -15l-4 30q152 21 230 21q142 0 142 -140v-354q-63 -65 -83 -123q-16 -44 9 -58t80 5l5 -18q-80 -32 -113 -7.5t-13 79.5q19 59 90 122h-5l-7 89q-37 -36 -99.5 -66t-124.5 -30t-96.5 32.5 t-34.5 92.5zM103 121q0 -90 94 -91q50 -1 112 25.5t105 66.5v139l-228 -3q-83 -1 -83 -83v-54z" />
<glyph unicode="&#x106;" d="M72 345q0 197 58 277t201 80q105 0 178 -18l-7 -30q-78 11 -171 11q-121 0 -168.5 -70.5t-47.5 -249.5t47.5 -249.5t168.5 -70.5q108 0 185 13l7 -31q-79 -19 -192 -19q-143 0 -201 80t-58 277zM269 754l155 145l26 -29l-163 -136z" />
<glyph unicode="&#x107;" horiz-adv-x="481" d="M65 241q0 139 50.5 196t171.5 57q87 0 141 -19l-7 -27q-53 10 -127 10q-104 0 -145.5 -46.5t-41.5 -170.5t41.5 -170.5t145.5 -46.5q84 0 139 11l6 -28q-73 -19 -151 -19q-122 0 -172.5 57t-50.5 196zM219 572l155 146l26 -30l-163 -136z" />
<glyph unicode="&#x10a;" d="M72 345q0 197 58 277t201 80q105 0 178 -18l-7 -30q-78 11 -171 11q-121 0 -168.5 -70.5t-47.5 -249.5t47.5 -249.5t168.5 -70.5q108 0 185 13l7 -31q-79 -19 -192 -19q-143 0 -201 80t-58 277zM299 786v60q0 16 15 16h15q15 0 15 -16v-60q0 -16 -15 -16h-15 q-15 0 -15 16z" />
<glyph unicode="&#x10b;" horiz-adv-x="481" d="M65 241q0 139 50.5 196t171.5 57q87 0 141 -19l-7 -27q-53 10 -127 10q-104 0 -145.5 -46.5t-41.5 -170.5t41.5 -170.5t145.5 -46.5q84 0 139 11l6 -28q-73 -19 -151 -19q-122 0 -172.5 57t-50.5 196zM249 604v61q0 15 15 15h15q16 0 16 -15v-61q0 -15 -16 -15h-15 q-15 0 -15 15z" />
<glyph unicode="&#x10c;" d="M72 345q0 197 58 277t201 80q105 0 178 -18l-7 -30q-78 11 -171 11q-121 0 -168.5 -70.5t-47.5 -249.5t47.5 -249.5t168.5 -70.5q108 0 185 13l7 -31q-79 -19 -192 -19q-143 0 -201 80t-58 277zM172 869l17 18l130 -98h8l129 98l17 -18l-139 -120h-23z" />
<glyph unicode="&#x10d;" horiz-adv-x="481" d="M65 241q0 139 50.5 196t171.5 57q87 0 141 -19l-7 -27q-53 10 -127 10q-104 0 -145.5 -46.5t-41.5 -170.5t41.5 -170.5t145.5 -46.5q84 0 139 11l6 -28q-73 -19 -151 -19q-122 0 -172.5 57t-50.5 196zM122 687l17 19l130 -98h8l129 98l17 -19l-139 -119h-23z" />
<glyph unicode="&#x10e;" horiz-adv-x="660" d="M99 0v690q121 9 233 9q142 0 199 -79t57 -275t-57 -275t-199 -79q-111 0 -233 9zM140 31q84 -3 192 -3q119 0 166 70t47 247t-47 247t-166 70q-106 0 -192 -3v-628zM173 869l17 18l129 -98h8l130 98l17 -18l-139 -120h-23z" />
<glyph unicode="&#x10f;" horiz-adv-x="564" d="M67 241q0 137 41 195t136 58q89 0 193 -49q-3 26 -3 94v161h39v-700h-30l-5 80q-105 -92 -198 -92t-133 59t-40 194zM108 242q0 -120 32 -169t108 -49q43 0 84.5 20t101.5 68v303q-114 43 -185 43q-77 0 -109 -48t-32 -168zM558 632v55q-1 15 14 15h12q15 0 15 -15v-56 q-2 -63 -20 -118l-17 6q5 44 5 100q-12 0 -9 13z" />
<glyph unicode="&#x110;" horiz-adv-x="664" d="M25 356v28h77v306q122 9 234 9q141 0 198 -79t57 -275t-57 -275t-198 -79q-110 0 -234 9v356h-77zM143 31q84 -3 193 -3q118 0 165 70t47 247t-47 247t-165 70q-106 0 -193 -3v-275h175v-28h-175v-325z" />
<glyph unicode="&#x111;" horiz-adv-x="557" d="M67 241q0 137 41 195t136 58q89 0 193 -49q-3 26 -3 94v47h-171v27h171v87h39v-87h73v-27h-73v-586h-30l-5 80q-105 -92 -198 -92t-133 59t-40 194zM108 242q0 -120 32 -169t108 -49q43 0 84.5 20t101.5 68v303q-114 43 -185 43q-77 0 -109 -48t-32 -168z" />
<glyph unicode="&#x112;" horiz-adv-x="553" d="M93 106v478q0 47 30.5 76.5t79.5 29.5q198 0 294 -4l-2 -31h-285q-34 0 -55 -21.5t-21 -56.5v-192h320v-34h-320v-238q0 -35 21 -56.5t55 -21.5h285l2 -31q-96 -4 -294 -4q-49 0 -79.5 29.5t-30.5 76.5zM178 823v34h264v-34h-264z" />
<glyph unicode="&#x113;" horiz-adv-x="530" d="M65 243q0 138 48.5 194.5t162.5 56.5q191 0 194 -142q2 -66 -23.5 -98.5t-82.5 -32.5h-257q4 -110 46 -153.5t136 -43.5q83 0 165 12l5 -28q-60 -20 -175 -20q-117 0 -168 58.5t-51 196.5zM107 254h251q74 0 71 96q-1 56 -37.5 82t-113.5 26q-94 0 -132 -45t-39 -159z M145 618v33h265v-33h-265z" />
<glyph unicode="&#x116;" horiz-adv-x="553" d="M93 106v478q0 47 30.5 76.5t79.5 29.5q198 0 294 -4l-2 -31h-285q-34 0 -55 -21.5t-21 -56.5v-192h320v-34h-320v-238q0 -35 21 -56.5t55 -21.5h285l2 -31q-96 -4 -294 -4q-49 0 -79.5 29.5t-30.5 76.5zM287 809v61q0 16 16 16h14q16 0 16 -16v-61q0 -15 -16 -15h-14 q-16 0 -16 15z" />
<glyph unicode="&#x117;" horiz-adv-x="530" d="M65 243q0 138 48.5 194.5t162.5 56.5q191 0 194 -142q2 -66 -23.5 -98.5t-82.5 -32.5h-257q4 -110 46 -153.5t136 -43.5q83 0 165 12l5 -28q-60 -20 -175 -20q-117 0 -168 58.5t-51 196.5zM107 254h251q74 0 71 96q-1 56 -37.5 82t-113.5 26q-94 0 -132 -45t-39 -159z M255 604v61q0 15 15 15h15q16 0 16 -15v-61q0 -15 -16 -15h-15q-15 0 -15 15z" />
<glyph unicode="&#x118;" horiz-adv-x="553" d="M93 106v478q0 47 30.5 76.5t79.5 29.5q198 0 294 -4l-2 -31h-285q-34 0 -55 -21.5t-21 -56.5v-192h320v-34h-320v-238q0 -35 21 -56.5t55 -21.5h285l2 -31q-61 -62 -83 -122q-16 -44 9 -58.5t80 5.5l5 -18q-80 -33 -113 -8.5t-13 79.5q20 60 88 121q-88 -3 -267 -3 q-49 0 -79.5 29.5t-30.5 76.5z" />
<glyph unicode="&#x119;" horiz-adv-x="530" d="M65 243q0 138 48.5 194.5t162.5 56.5q191 0 194 -142q2 -66 -23.5 -98.5t-82.5 -32.5h-257q4 -110 46 -153.5t136 -43.5q83 0 165 12l5 -28q-62 -64 -84 -122q-16 -44 9.5 -58.5t79.5 5.5l5 -18q-80 -32 -113 -8t-13 79q19 56 81 114q-63 -12 -140 -12q-117 0 -168 58.5 t-51 196.5zM107 254h251q74 0 71 96q-1 56 -37.5 82t-113.5 26q-94 0 -132 -45t-39 -159z" />
<glyph unicode="&#x11a;" horiz-adv-x="553" d="M93 106v478q0 47 30.5 76.5t79.5 29.5q198 0 294 -4l-2 -31h-285q-34 0 -55 -21.5t-21 -56.5v-192h320v-34h-320v-238q0 -35 21 -56.5t55 -21.5h285l2 -31q-96 -4 -294 -4q-49 0 -79.5 29.5t-30.5 76.5zM161 893l17 18l129 -98h8l130 98l16 -18l-138 -120h-24z" />
<glyph unicode="&#x11b;" horiz-adv-x="530" d="M65 243q0 138 48.5 194.5t162.5 56.5q191 0 194 -142q2 -66 -23.5 -98.5t-82.5 -32.5h-257q4 -110 46 -153.5t136 -43.5q83 0 165 12l5 -28q-60 -20 -175 -20q-117 0 -168 58.5t-51 196.5zM107 254h251q74 0 71 96q-1 56 -37.5 82t-113.5 26q-94 0 -132 -45t-39 -159z M128 687l18 19l129 -98h8l130 98l16 -19l-138 -119h-24z" />
<glyph unicode="&#x11e;" horiz-adv-x="624" d="M72 346q0 198 59 277t207 79q113 0 195 -18l-7 -30q-87 11 -187 11q-125 0 -174 -69t-49 -252q0 -171 43 -245t146 -74q42 0 82 15t63 32t55 45v283h41v-400h-29l-8 84q-89 -96 -211 -96q-121 0 -173.5 84.5t-52.5 273.5zM184 871l25 5q0 -42 31 -65.5t85 -23.5 q53 0 83.5 23.5t30.5 65.5l25 -5q1 -55 -36.5 -86.5t-102.5 -31.5t-103.5 31.5t-37.5 86.5z" />
<glyph unicode="&#x11f;" horiz-adv-x="548" d="M53 -69q0 52 15 81.5t57 51.5l14 8q-32 15 -43 43.5t-1.5 58t34.5 49.5q-56 34 -56 120q0 77 46 114t151 37q61 0 100 -12h151l-3 -26l-93 -4q39 -35 39 -109q0 -77 -45 -113t-150 -36q-73 0 -118 18q-20 -23 -24.5 -47t11.5 -44t54 -27l190 -33q62 -10 85.5 -39.5 t23.5 -89.5q0 -78 -48.5 -109.5t-167.5 -31.5q-123 0 -172.5 31t-49.5 109zM92 -67q0 -60 40 -83.5t142 -23.5q99 0 138.5 23.5t39.5 83.5q0 47 -17 67.5t-69 29.5l-193 32h-2l-21 -13q-34 -21 -46 -46t-12 -70zM111 343q0 -60 36.5 -88t121.5 -28t121 27.5t36 88.5 t-35.5 89.5t-121.5 28.5q-85 0 -121.5 -28.5t-36.5 -89.5zM130 690l25 4q0 -42 31 -65.5t85 -23.5q53 0 83.5 23.5t30.5 65.5l24 -4q1 -55 -36 -87t-102 -32q-66 0 -104 32t-37 87z" />
<glyph unicode="&#x120;" horiz-adv-x="624" d="M72 346q0 198 59 277t207 79q113 0 195 -18l-7 -30q-87 11 -187 11q-125 0 -174 -69t-49 -252q0 -171 43 -245t146 -74q42 0 82 15t63 32t55 45v283h41v-400h-29l-8 84q-89 -96 -211 -96q-121 0 -173.5 84.5t-52.5 273.5zM302 786v60q0 16 16 16h14q16 0 16 -16v-60 q0 -16 -16 -16h-14q-16 0 -16 16z" />
<glyph unicode="&#x121;" horiz-adv-x="548" d="M53 -69q0 52 15 81.5t57 51.5l14 8q-32 15 -43 43.5t-1.5 58t34.5 49.5q-56 34 -56 120q0 77 46 114t151 37q61 0 100 -12h151l-3 -26l-93 -4q39 -35 39 -109q0 -77 -45 -113t-150 -36q-73 0 -118 18q-20 -23 -24.5 -47t11.5 -44t54 -27l190 -33q62 -10 85.5 -39.5 t23.5 -89.5q0 -78 -48.5 -109.5t-167.5 -31.5q-123 0 -172.5 31t-49.5 109zM92 -67q0 -60 40 -83.5t142 -23.5q99 0 138.5 23.5t39.5 83.5q0 47 -17 67.5t-69 29.5l-193 32h-2l-21 -13q-34 -21 -46 -46t-12 -70zM111 343q0 -60 36.5 -88t121.5 -28t121 27.5t36 88.5 t-35.5 89.5t-121.5 28.5q-85 0 -121.5 -28.5t-36.5 -89.5zM248 604v61q0 15 15 15h15q15 0 15 -15v-61q0 -15 -15 -15h-15q-15 0 -15 15z" />
<glyph unicode="&#x122;" horiz-adv-x="624" d="M72 346q0 198 59 277t207 79q113 0 195 -18l-7 -30q-87 11 -187 11q-125 0 -174 -69t-49 -252q0 -171 43 -245t146 -74q42 0 82 15t63 32t55 45v283h41v-400h-29l-8 84q-89 -96 -211 -96q-121 0 -173.5 84.5t-52.5 273.5zM302 -78q-1 15 15 15h12q15 0 15 -15v-58 q-2 -64 -20 -120l-18 6q5 45 5 103q-12 0 -9 13v56z" />
<glyph unicode="&#x123;" horiz-adv-x="548" d="M53 -69q0 52 15 81.5t57 51.5l14 8q-32 15 -43 43.5t-1.5 58t34.5 49.5q-56 34 -56 120q0 77 46 114t151 37q61 0 100 -12h151l-3 -26l-93 -4q39 -35 39 -109q0 -77 -45 -113t-150 -36q-73 0 -118 18q-20 -23 -24.5 -47t11.5 -44t54 -27l190 -33q62 -10 85.5 -39.5 t23.5 -89.5q0 -78 -48.5 -109.5t-167.5 -31.5q-123 0 -172.5 31t-49.5 109zM92 -67q0 -60 40 -83.5t142 -23.5q99 0 138.5 23.5t39.5 83.5q0 47 -17 67.5t-69 29.5l-193 32h-2l-21 -13q-34 -21 -46 -46t-12 -70zM111 343q0 -60 36.5 -88t121.5 -28t121 27.5t36 88.5 t-35.5 89.5t-121.5 28.5q-85 0 -121.5 -28.5t-36.5 -89.5zM255 579v57q2 65 20 120l18 -6q-5 -45 -5 -102q12 0 10 -13v-56q0 -16 -16 -16h-11q-16 0 -16 16z" />
<glyph unicode="&#x126;" horiz-adv-x="668" d="M25 523v27h78v140h41v-140h380v140h41v-140h77v-27h-77v-523h-41v352h-380v-352h-41v523h-78zM144 388h380v135h-380v-135z" />
<glyph unicode="&#x127;" horiz-adv-x="576" d="M11 586v27h83v87h40v-87h160v-27h-159v-95q0 -61 -5 -94q129 97 229 97q130 0 130 -132v-362h-40v354q0 54 -24 79t-75 25q-49 0 -97 -21.5t-119 -70.5v-366h-40v586h-83z" />
<glyph unicode="&#x12a;" horiz-adv-x="239" d="M-13 799v34h265v-34h-265zM99 0v690h41v-690h-41z" />
<glyph unicode="&#x12b;" horiz-adv-x="228" d="M-19 618v33h265v-33h-265zM94 0v482h40v-482h-40z" />
<glyph unicode="&#x12e;" horiz-adv-x="239" d="M22 -122q22 61 90 122h-13v690h41v-690h-2q-61 -61 -84 -123q-16 -44 9 -58t80 5l5 -18q-80 -32 -113 -7.5t-13 79.5z" />
<glyph unicode="&#x12f;" horiz-adv-x="228" d="M17 -122q20 60 89 122h-12v482h40v-482h-2q-62 -64 -84 -123q-16 -44 9.5 -58t79.5 5l5 -18q-79 -33 -112 -8t-13 80zM90 604v61q0 15 16 15h14q16 0 16 -15v-61q0 -15 -16 -15h-14q-16 0 -16 15z" />
<glyph unicode="&#x130;" horiz-adv-x="239" d="M96 786v60q0 16 16 16h14q16 0 16 -16v-60q0 -16 -16 -16h-14q-16 0 -16 16zM99 0v690h41v-690h-41z" />
<glyph unicode="&#x131;" horiz-adv-x="228" d="M94 0v482h40v-482h-40z" />
<glyph unicode="&#x132;" horiz-adv-x="567" d="M99 0v690h41v-690h-41zM275 1l5 28h55q95 0 95 94v567h41v-567q0 -65 -31.5 -98t-93.5 -32q-33 0 -71 8z" />
<glyph unicode="&#x133;" horiz-adv-x="455" d="M89 607v60q0 16 16 16h18q15 0 15 -16v-60q0 -16 -15 -16h-18q-16 0 -16 16zM94 0v482h39v-482h-39zM266 -191q55 71 55 154v519h40v-519q0 -100 -73 -171zM317 607v60q0 16 16 16h17q16 0 16 -16v-60q0 -16 -16 -16h-17q-16 0 -16 16z" />
<glyph unicode="&#x136;" horiz-adv-x="570" d="M99 0v690h40v-231q0 -45 -4 -82h108l234 313h47l-223 -300q-9 -14 -27 -29v-2q16 -15 28 -30l238 -329h-48l-249 343h-107q3 -43 3 -83v-260h-40zM286 -78q0 15 16 15h12q15 0 15 -15v-58q-2 -64 -20 -120l-18 6q5 45 5 103q-12 0 -10 13v56z" />
<glyph unicode="&#x137;" horiz-adv-x="482" d="M90 0v700h41v-327q0 -45 -4 -82h79l182 191h49l-173 -184q-16 -15 -26 -23v-2q14 -12 26 -29l189 -244h-48l-199 259h-79q3 -45 3 -85v-174h-40zM243 -78q0 15 15 15h12q16 0 16 -15v-58q-2 -65 -21 -120l-17 6q5 60 5 103q-12 0 -10 13v56z" />
<glyph unicode="&#x139;" horiz-adv-x="509" d="M65 754l155 145l26 -29l-163 -136zM96 109v581h41v-577q0 -35 21.5 -56.5t56.5 -21.5h267v-30q-90 -5 -274 -5q-52 0 -82 30.5t-30 78.5z" />
<glyph unicode="&#x13a;" horiz-adv-x="277" d="M60 776l155 146l26 -30l-163 -135zM91 100v600h40v-594q-1 -37 19 -56.5t57 -19.5h55l5 -29q-24 -8 -70 -8q-49 0 -77.5 28t-28.5 79z" />
<glyph unicode="&#x13b;" horiz-adv-x="509" d="M96 109v581h41v-577q0 -35 21.5 -56.5t56.5 -21.5h267v-30q-90 -5 -274 -5q-52 0 -82 30.5t-30 78.5zM279 -86q-1 15 15 15h12q15 0 15 -15v-58q-2 -64 -20 -120l-18 6q5 45 5 103q-12 0 -9 13v56z" />
<glyph unicode="&#x13c;" horiz-adv-x="277" d="M91 100v600h40v-594q-1 -37 19 -56.5t57 -19.5h55l5 -29q-24 -8 -70 -8q-49 0 -77.5 28t-28.5 79zM147 -86q-1 15 15 15h12q15 0 15 -15v-58q-2 -64 -20 -120l-18 6q5 45 5 103q-12 0 -9 13v56z" />
<glyph unicode="&#x13d;" horiz-adv-x="509" d="M96 109v581h41v-577q0 -35 21.5 -56.5t56.5 -21.5h267v-30q-90 -5 -274 -5q-52 0 -82 30.5t-30 78.5zM279 619v57q-1 15 15 15h12q15 0 15 -15v-58q-2 -65 -20 -120l-18 6q5 45 5 102q-12 0 -9 13z" />
<glyph unicode="&#x13e;" horiz-adv-x="277" d="M91 100v600h40v-594q-1 -37 19 -56.5t57 -19.5h55l5 -29q-24 -8 -70 -8q-49 0 -77.5 28t-28.5 79zM217 632v55q-1 15 14 15h12q14 0 14 -15v-56q0 -61 -19 -118l-17 6q5 58 5 100q-12 0 -9 13z" />
<glyph unicode="&#x13f;" horiz-adv-x="509" d="M96 109v581h41v-577q0 -35 21.5 -56.5t56.5 -21.5h267v-30q-90 -5 -274 -5q-52 0 -82 30.5t-30 78.5zM351 348v61q0 16 15 16h15q15 0 15 -16v-61q0 -15 -15 -15h-15q-15 0 -15 15z" />
<glyph unicode="&#x140;" horiz-adv-x="305" d="M91 100v600h40v-594q-1 -37 19 -56.5t57 -19.5h55l5 -29q-24 -8 -70 -8q-49 0 -77.5 28t-28.5 79zM232 360v60q0 16 16 16h15q15 0 15 -16v-60q0 -16 -15 -16h-15q-16 0 -16 16z" />
<glyph unicode="&#x141;" horiz-adv-x="513" d="M25 318v30l76 33v309h41v-291l125 54v-29l-125 -55v-256q0 -35 21 -56.5t57 -21.5h266v-30q-90 -5 -274 -5q-51 0 -81 30.5t-30 78.5v242z" />
<glyph unicode="&#x142;" horiz-adv-x="309" d="M28 318v30l86 37v315h40v-298l116 51v-30l-116 -50v-267q0 -76 76 -76h56l4 -29q-22 -8 -70 -8q-49 0 -77.5 28t-28.5 79v255z" />
<glyph unicode="&#x143;" horiz-adv-x="692" d="M99 0v670q0 20 20 20h50q17 0 24 -15l290 -551q7 -13 45 -86h25q0 16 -0.5 47.5t-0.5 46.5v558h41v-670q0 -20 -19 -20h-54q-16 0 -23 15l-298 564q-28 54 -37 74h-23q1 -25 1 -75v-578h-41zM306 754l155 145l26 -29l-163 -136z" />
<glyph unicode="&#x144;" horiz-adv-x="573" d="M91 0v482h32l3 -85q125 97 230 97q130 0 130 -132v-362h-40v354q0 54 -24 79t-75 25q-49 0 -96.5 -21.5t-120.5 -70.5v-366h-39zM242 572l155 146l26 -30l-163 -136z" />
<glyph unicode="&#x145;" horiz-adv-x="692" d="M99 0v670q0 20 20 20h50q17 0 24 -15l290 -551q7 -13 45 -86h25q0 16 -0.5 47.5t-0.5 46.5v558h41v-670q0 -20 -19 -20h-54q-16 0 -23 15l-298 564q-28 54 -37 74h-23q1 -25 1 -75v-578h-41zM311 -78q0 15 16 15h12q15 0 15 -15v-58q-2 -64 -20 -120l-18 6q5 45 5 103 q-12 0 -10 13v56z" />
<glyph unicode="&#x146;" horiz-adv-x="573" d="M91 0v482h32l3 -85q125 97 230 97q130 0 130 -132v-362h-40v354q0 54 -24 79t-75 25q-49 0 -96.5 -21.5t-120.5 -70.5v-366h-39zM269 -78q0 15 15 15h12q16 0 16 -15v-58q-2 -65 -21 -120l-17 6q5 60 5 103q-12 0 -10 13v56z" />
<glyph unicode="&#x147;" horiz-adv-x="692" d="M99 0v670q0 20 20 20h50q17 0 24 -15l290 -551q7 -13 45 -86h25q0 16 -0.5 47.5t-0.5 46.5v558h41v-670q0 -20 -19 -20h-54q-16 0 -23 15l-298 564q-28 54 -37 74h-23q1 -25 1 -75v-578h-41zM209 869l18 18l129 -98h8l130 98l16 -18l-138 -120h-24z" />
<glyph unicode="&#x148;" horiz-adv-x="573" d="M91 0v482h32l3 -85q125 97 230 97q130 0 130 -132v-362h-40v354q0 54 -24 79t-75 25q-49 0 -96.5 -21.5t-120.5 -70.5v-366h-39zM145 687l17 19l129 -98h8l130 98l17 -19l-139 -119h-24z" />
<glyph unicode="&#x14a;" horiz-adv-x="692" d="M99 0v670q0 20 20 20h46q15 0 24 -15l294 -547q7 -14 45 -86h25q0 16 -0.5 47t-0.5 46v555h41v-785q0 -62 -31.5 -94t-93.5 -31q-35 0 -70 7l5 26h55q96 0 96 94v93h-33q-14 0 -20 15l-302 560q-31 59 -38 74h-22q1 -25 1 -76v-573h-41z" />
<glyph unicode="&#x14b;" horiz-adv-x="573" d="M91 0v482h30l4 -86q126 98 231 98q130 0 130 -132v-446q0 -62 -28.5 -94t-85.5 -31q-11 0 -63 8l5 26h47q85 0 85 94v435q0 53 -24 78t-76 25q-48 0 -97 -21.5t-119 -69.5v-366h-39z" />
<glyph unicode="&#x14c;" horiz-adv-x="664" d="M72 345q0 198 58 277.5t202 79.5t201.5 -79t57.5 -278t-57.5 -278t-201.5 -79t-202 79.5t-58 277.5zM115 345q0 -178 48 -249t169 -71t168.5 70.5t47.5 249.5t-47.5 249.5t-168.5 70.5t-169 -71t-48 -249zM200 799v34h265v-34h-265z" />
<glyph unicode="&#x14d;" horiz-adv-x="562" d="M66 241q0 139 48.5 196t166.5 57t166.5 -57t48.5 -196t-48 -196t-167 -57t-167 57t-48 196zM108 241q0 -123 38 -170.5t135 -47.5t135.5 47.5t38.5 170.5t-38.5 170t-135.5 47t-135 -47t-38 -170zM148 618v33h265v-33h-265z" />
<glyph unicode="&#x150;" horiz-adv-x="664" d="M72 345q0 198 58 277.5t202 79.5t201.5 -79t57.5 -278t-57.5 -278t-201.5 -79t-202 79.5t-58 277.5zM115 345q0 -178 48 -249t169 -71t168.5 70.5t47.5 249.5t-47.5 249.5t-168.5 70.5t-169 -71t-48 -249zM226 746l111 161l33 -22l-122 -154zM373 746l110 161l33 -22 l-122 -154z" />
<glyph unicode="&#x151;" horiz-adv-x="562" d="M66 241q0 139 48.5 196t166.5 57t166.5 -57t48.5 -196t-48 -196t-167 -57t-167 57t-48 196zM108 241q0 -123 38 -170.5t135 -47.5t135.5 47.5t38.5 170.5t-38.5 170t-135.5 47t-135 -47t-38 -170zM174 564l111 162l32 -23l-121 -153zM321 564l110 162l33 -23l-122 -153z " />
<glyph unicode="&#x152;" horiz-adv-x="895" d="M72 345q0 198 58 277.5t202 79.5q52 0 85.5 -7t77.5 -26q27 21 66 21q186 0 277 -4v-31h-266q-35 0 -56.5 -21.5t-21.5 -56.5v-192h302v-34h-302v-238q0 -35 21.5 -56.5t56.5 -21.5h267v-31q-92 -4 -280 -4q-39 0 -65 21q-76 -33 -162 -33q-144 0 -202 79.5t-58 277.5z M115 345q0 -178 48 -249t169 -71q75 0 137 24q-16 27 -16 60v472q0 33 16 60q-66 24 -137 24q-121 0 -169 -70t-48 -250z" />
<glyph unicode="&#x153;" horiz-adv-x="918" d="M66 241q0 139 48.5 196t166.5 57q80 0 126 -24.5t68 -79.5q22 55 67 79.5t122 24.5q193 0 195 -140q1 -73 -32 -102.5t-113 -29.5h-218q4 -111 46 -154.5t137 -43.5q84 0 164 12l5 -28q-58 -20 -175 -20q-79 0 -127 25.5t-70 81.5q-21 -57 -67.5 -82t-127.5 -25 q-119 0 -167 57t-48 196zM108 241q0 -123 38 -170.5t135 -47.5q95 0 134 45t40 162l-1 13q0 8 1 12q-2 115 -40.5 159t-133.5 44q-97 0 -135 -47t-38 -170zM496 254h217q59 0 83 22t23 77q-5 105 -154 105q-92 0 -130 -45.5t-39 -157.5v-1z" />
<glyph unicode="&#x154;" horiz-adv-x="610" d="M99 0v690q81 8 225 8q115 0 160 -41t45 -154q0 -90 -29.5 -131.5t-97.5 -50.5v-5q53 -15 79 -96l73 -220h-45l-70 217q-30 87 -108 87q-74 0 -191 3v-307h-41zM140 341h184q92 2 127.5 35t35.5 126t-35.5 126.5t-127.5 33.5q-108 0 -184 -2v-319zM250 754l156 145l25 -29 l-163 -136z" />
<glyph unicode="&#x155;" horiz-adv-x="388" d="M91 0v482h30l5 -85q122 97 220 97h20l-6 -38h-20q-46 0 -91.5 -20.5t-118.5 -67.5v-368h-39zM170 572l155 146l26 -30l-163 -136z" />
<glyph unicode="&#x156;" horiz-adv-x="610" d="M99 0v690q81 8 225 8q115 0 160 -41t45 -154q0 -90 -29.5 -131.5t-97.5 -50.5v-5q53 -15 79 -96l73 -220h-45l-70 217q-30 87 -108 87q-74 0 -191 3v-307h-41zM140 341h184q92 2 127.5 35t35.5 126t-35.5 126.5t-127.5 33.5q-108 0 -184 -2v-319zM307 -78q0 15 15 15h12 q15 0 15 -15v-58q0 -63 -20 -120l-17 6q5 60 5 103q-12 0 -10 13v56z" />
<glyph unicode="&#x157;" horiz-adv-x="388" d="M83 -78q0 15 15 15h12q15 0 15 -15v-58q0 -63 -20 -120l-17 6q5 60 5 103q-12 0 -10 13v56zM91 0v482h30l5 -85q122 97 220 97h20l-6 -38h-20q-46 0 -91.5 -20.5t-118.5 -67.5v-368h-39z" />
<glyph unicode="&#x158;" horiz-adv-x="610" d="M99 0v690q81 8 225 8q115 0 160 -41t45 -154q0 -90 -29.5 -131.5t-97.5 -50.5v-5q53 -15 79 -96l73 -220h-45l-70 217q-30 87 -108 87q-74 0 -191 3v-307h-41zM140 341h184q92 2 127.5 35t35.5 126t-35.5 126.5t-127.5 33.5q-108 0 -184 -2v-319zM154 869l17 18l129 -98 h8l130 98l16 -18l-138 -120h-24z" />
<glyph unicode="&#x159;" horiz-adv-x="388" d="M73 687l17 19l130 -98h8l129 98l17 -19l-139 -119h-23zM91 0v482h30l5 -85q122 97 220 97h20l-6 -38h-20q-46 0 -91.5 -20.5t-118.5 -67.5v-368h-39z" />
<glyph unicode="&#x15a;" horiz-adv-x="556" d="M63 523q0 61 12 97.5t41.5 54t64 22.5t94.5 4q107 -2 192 -14l-4 -30q-138 7 -187 7q-36 0 -55 -1t-42 -5t-34 -13t-22 -24.5t-14.5 -39.5t-3.5 -59q0 -70 23.5 -101.5t79.5 -40.5l150 -25q76 -11 107.5 -53.5t31.5 -130.5q0 -60 -13 -97t-43 -55.5t-65.5 -24t-94.5 -5.5 q-112 0 -206 13l3 31q118 -8 205 -7q52 1 81 6t51.5 20t31 43.5t8.5 75.5q0 75 -24 106t-83 40l-150 25q-72 11 -103.5 54t-31.5 127zM227 754l155 145l26 -29l-163 -136z" />
<glyph unicode="&#x15b;" horiz-adv-x="501" d="M59 365q0 84 40 107.5t140 21.5q108 -2 191 -13l-4 -29q-115 6 -183 7q-86 2 -115.5 -13.5t-29.5 -80.5q0 -47 19 -67t59 -26l157 -23q55 -9 82.5 -38.5t27.5 -86.5q0 -85 -44 -110t-150 -25q-96 0 -179 12l4 29q86 -7 171 -6q93 1 126 19.5t33 80.5q0 44 -21.5 64 t-61.5 27l-157 23q-54 8 -79.5 37.5t-25.5 89.5zM202 572l155 146l26 -30l-163 -136z" />
<glyph unicode="&#x15e;" horiz-adv-x="556" d="M63 523q0 61 12 97.5t41.5 54t64 22.5t94.5 4q107 -2 192 -14l-4 -30q-138 7 -187 7q-36 0 -55 -1t-42 -5t-34 -13t-22 -24.5t-14.5 -39.5t-3.5 -59q0 -70 23.5 -101.5t79.5 -40.5l150 -25q76 -11 107.5 -53.5t31.5 -130.5q0 -60 -13 -97t-43 -55.5t-65.5 -24t-94.5 -5.5 q-112 0 -206 13l3 31q118 -8 205 -7q52 1 81 6t51.5 20t31 43.5t8.5 75.5q0 75 -24 106t-83 40l-150 25q-72 11 -103.5 54t-31.5 127zM190 -233l7 23q48 -2 77.5 23t29.5 62q0 25 -13 35t-46 11l5 20q45 3 66 -12t20 -53q-1 -54 -41 -85.5t-105 -23.5z" />
<glyph unicode="&#x15f;" horiz-adv-x="501" d="M59 365q0 84 40 107.5t140 21.5q108 -2 191 -13l-4 -29q-115 6 -183 7q-86 2 -115.5 -13.5t-29.5 -80.5q0 -47 19 -67t59 -26l157 -23q55 -9 82.5 -38.5t27.5 -86.5q0 -85 -44 -110t-150 -25q-96 0 -179 12l4 29q86 -7 171 -6q93 1 126 19.5t33 80.5q0 44 -21.5 64 t-61.5 27l-157 23q-54 8 -79.5 37.5t-25.5 89.5zM156 -233l6 23q49 -2 78.5 23t29.5 62q0 25 -13 35t-46 11l5 21q44 3 65.5 -12.5t20.5 -52.5q-1 -55 -41 -86.5t-105 -23.5z" />
<glyph unicode="&#x160;" horiz-adv-x="556" d="M63 523q0 61 12 97.5t41.5 54t64 22.5t94.5 4q107 -2 192 -14l-4 -30q-138 7 -187 7q-36 0 -55 -1t-42 -5t-34 -13t-22 -24.5t-14.5 -39.5t-3.5 -59q0 -70 23.5 -101.5t79.5 -40.5l150 -25q76 -11 107.5 -53.5t31.5 -130.5q0 -60 -13 -97t-43 -55.5t-65.5 -24t-94.5 -5.5 q-112 0 -206 13l3 31q118 -8 205 -7q52 1 81 6t51.5 20t31 43.5t8.5 75.5q0 75 -24 106t-83 40l-150 25q-72 11 -103.5 54t-31.5 127zM130 869l17 18l130 -98h8l129 98l17 -18l-139 -120h-23z" />
<glyph unicode="&#x161;" horiz-adv-x="501" d="M59 365q0 84 40 107.5t140 21.5q108 -2 191 -13l-4 -29q-115 6 -183 7q-86 2 -115.5 -13.5t-29.5 -80.5q0 -47 19 -67t59 -26l157 -23q55 -9 82.5 -38.5t27.5 -86.5q0 -85 -44 -110t-150 -25q-96 0 -179 12l4 29q86 -7 171 -6q93 1 126 19.5t33 80.5q0 44 -21.5 64 t-61.5 27l-157 23q-54 8 -79.5 37.5t-25.5 89.5zM105 687l17 19l129 -98h8l130 98l17 -19l-139 -119h-24z" />
<glyph unicode="&#x162;" horiz-adv-x="568" d="M26 654v36h516v-36h-238v-654h-41v654h-237zM191 -222l7 23q48 -2 77.5 23t29.5 62q0 25 -13 35t-46 11l5 21q89 6 86 -65q-1 -55 -41 -86.5t-105 -23.5z" />
<glyph unicode="&#x163;" horiz-adv-x="356" d="M32 448v29l87 4v150h40v-149h172v-34h-172v-342q0 -76 77 -76h84l5 -29q-45 -8 -92 -8q-114 0 -114 109v346h-87zM112 -228l7 22q48 -1 77.5 23.5t29.5 61.5q1 25 -12 35t-47 11l5 21q45 3 66.5 -12.5t20.5 -52.5q-2 -55 -42 -86.5t-105 -22.5z" />
<glyph unicode="&#x164;" horiz-adv-x="568" d="M26 654v36h516v-36h-238v-654h-41v654h-237zM136 869l17 18l129 -98h8l130 98l16 -18l-138 -120h-24z" />
<glyph unicode="&#x165;" horiz-adv-x="356" d="M32 448v29l87 4v150h40v-149h172v-34h-172v-342q0 -76 77 -76h84l5 -29q-45 -8 -92 -8q-114 0 -114 109v346h-87zM258 681v57q-2 15 15 15h12q15 0 15 -15v-58q-2 -65 -20 -120l-18 6q5 45 5 102q-12 0 -9 13z" />
<glyph unicode="&#x166;" horiz-adv-x="568" d="M26 654v36h516v-36h-238v-230h147v-28h-147v-396h-41v396h-151v28h151v230h-237z" />
<glyph unicode="&#x167;" horiz-adv-x="356" d="M32 448v29l87 4v150h40v-149h172v-34h-172v-112h150v-27h-150v-203q0 -76 77 -76h84l5 -29q-45 -8 -92 -8q-114 0 -114 109v207h-71v27h71v112h-87z" />
<glyph unicode="&#x16a;" horiz-adv-x="667" d="M94 257v433h41v-433q0 -128 44.5 -180t154.5 -52q108 0 153 52t45 180v433h41v-433q0 -146 -54 -207.5t-184 -61.5q-132 0 -186.5 61.5t-54.5 207.5zM202 799v34h265v-34h-265z" />
<glyph unicode="&#x16b;" d="M87 120v362h40v-354q-1 -54 24 -79t77 -25q46 0 90.5 21t113.5 69v368h40v-482h-31l-4 83q-116 -95 -220 -95q-130 0 -130 132zM149 619v33h265v-33h-265z" />
<glyph unicode="&#x16e;" horiz-adv-x="667" d="M94 257v433h41v-433q0 -128 44.5 -180t154.5 -52q108 0 153 52t45 180v433h41v-433q0 -146 -54 -207.5t-184 -61.5q-132 0 -186.5 61.5t-54.5 207.5zM236 815q0 41 29 69.5t70 28.5t70 -29t29 -69t-29 -68.5t-70 -28.5t-70 28.5t-29 68.5zM264 815q0 -31 20 -51.5 t51 -20.5q30 0 50.5 20.5t20.5 51.5t-20.5 52t-50.5 21q-31 0 -51 -20.5t-20 -52.5z" />
<glyph unicode="&#x16f;" d="M87 120v362h40v-354q-1 -54 24 -79t77 -25q46 0 90.5 21t113.5 69v368h40v-482h-31l-4 83q-116 -95 -220 -95q-130 0 -130 132zM183 635q0 40 29 68.5t70 28.5t70 -28.5t29 -68.5q0 -41 -29 -69.5t-70 -28.5t-70 28.5t-29 69.5zM211 635q0 -31 20 -51.5t51 -20.5 q30 0 50.5 20.5t20.5 51.5t-20.5 51.5t-50.5 20.5q-31 0 -51 -20.5t-20 -51.5z" />
<glyph unicode="&#x170;" horiz-adv-x="667" d="M94 257v433h41v-433q0 -128 44.5 -180t154.5 -52q108 0 153 52t45 180v433h41v-433q0 -146 -54 -207.5t-184 -61.5q-132 0 -186.5 61.5t-54.5 207.5zM229 746l111 161l32 -22l-122 -154zM375 746l111 161l32 -22l-121 -154z" />
<glyph unicode="&#x171;" d="M87 120v362h40v-354q-1 -54 24 -79t77 -25q46 0 90.5 21t113.5 69v368h40v-482h-31l-4 83q-116 -95 -220 -95q-130 0 -130 132zM176 565l111 162l32 -23l-121 -154zM322 565l111 162l32 -23l-121 -154z" />
<glyph unicode="&#x172;" horiz-adv-x="667" d="M94 257v433h41v-433q0 -128 44.5 -180t154.5 -52q108 0 153 52t45 180v433h41v-433q0 -135 -46 -197.5t-155 -70.5q-61 -64 -82 -121q-16 -44 9.5 -58t80.5 5l4 -18q-79 -33 -112 -8t-13 80q20 59 86 119h-10q-132 0 -186.5 61.5t-54.5 207.5z" />
<glyph unicode="&#x173;" d="M87 120v362h40v-354q-1 -54 24 -79t77 -25q46 0 90.5 21t113.5 69v368h40l1 -482q-61 -61 -84 -123q-16 -44 9 -58t80 5l5 -18q-80 -32 -113 -7.5t-13 79.5q22 61 90 122h-6l-4 83q-116 -95 -220 -95q-130 0 -130 132z" />
<glyph unicode="&#x174;" horiz-adv-x="935" d="M32 690h44l146 -583l17 -73h27q2 9 8 33.5t9 38.5l139 568q3 16 19 16h53q14 0 19 -16l139 -567q6 -25 16 -73h27q31 129 91 366t73 290h43l-172 -676q-4 -14 -19 -14h-57q-16 0 -19 15q-10 43 -67.5 279.5t-88.5 362.5h-23q-7 -26 -19 -78l-137 -564q-3 -15 -19 -15h-57 q-15 0 -20 14zM318 764l135 120h29l135 -120l-16 -18l-130 101h-8l-129 -101z" />
<glyph unicode="&#x175;" horiz-adv-x="815" d="M32 482h42l128 -385q5 -13 12.5 -38t8.5 -29h13q27 86 77 248.5t58 189.5q3 14 18 14h37q14 0 18 -14q8 -27 58.5 -189t76.5 -249h13q4 11 10.5 33.5t10.5 34.5l128 384h42l-160 -469q-5 -13 -18 -13h-39q-14 0 -19 14l-113 365q-14 48 -21 73h-11q-26 -87 -76 -250 t-58 -188q-5 -14 -19 -14h-39q-13 0 -18 13zM257 583l135 120h29l136 -120l-16 -18l-130 101h-8l-129 -101z" />
<glyph unicode="&#x176;" horiz-adv-x="548" d="M19 690h45l171 -322q6 -11 18 -35l18 -36h6l35 70l171 323h45l-233 -437v-253h-42v254zM124 765l135 119h29l135 -119l-16 -19l-129 101h-8l-130 -101z" />
<glyph unicode="&#x177;" horiz-adv-x="512" d="M27 482h43l158 -395q2 -6 6.5 -17t8 -20t6.5 -17h13q35 88 101 251.5t80 197.5h42l-214 -524q-28 -70 -66 -111.5t-104 -55.5l-6 25q55 20 86.5 57t53.5 93l14 34h-13q-12 0 -17 12zM108 583l135 120h30l135 -120l-16 -18l-130 101h-8l-129 -101z" />
<glyph unicode="&#x178;" horiz-adv-x="548" d="M19 690h45l171 -322q6 -11 18 -35l18 -36h6l35 70l171 323h45l-233 -437v-253h-42v254zM165 790v55q0 15 13 15h15q13 0 13 -15v-55q0 -15 -13 -15h-15q-13 0 -13 15zM342 790v55q0 15 13 15h15q13 0 13 -15v-55q0 -15 -13 -15h-15q-13 0 -13 15z" />
<glyph unicode="&#x179;" horiz-adv-x="560" d="M51 0v36l407 618h-403v36h450v-36l-408 -618h413v-36h-459zM228 754l155 145l26 -29l-163 -136z" />
<glyph unicode="&#x17a;" horiz-adv-x="502" d="M52 0v34l347 413h-344v35h392v-35l-348 -413h351v-34h-398zM197 572l155 146l25 -30l-162 -136z" />
<glyph unicode="&#x17b;" horiz-adv-x="560" d="M51 0v36l407 618h-403v36h450v-36l-408 -618h413v-36h-459zM258 786v60q0 16 15 16h15q16 0 16 -16v-60q0 -16 -16 -16h-15q-15 0 -15 16z" />
<glyph unicode="&#x17c;" horiz-adv-x="502" d="M52 0v34l347 413h-344v35h392v-35l-348 -413h351v-34h-398zM226 604v61q0 15 16 15h14q16 0 16 -15v-61q0 -15 -16 -15h-14q-16 0 -16 15z" />
<glyph unicode="&#x17d;" horiz-adv-x="560" d="M51 0v36l407 618h-403v36h450v-36l-408 -618h413v-36h-459zM131 869l17 18l130 -98h8l129 98l17 -18l-139 -120h-23z" />
<glyph unicode="&#x17e;" horiz-adv-x="502" d="M52 0v34l347 413h-344v35h392v-35l-348 -413h351v-34h-398zM100 687l17 19l129 -98h8l130 98l17 -19l-139 -119h-24z" />
<glyph unicode="&#x192;" horiz-adv-x="414" d="M-58 -129l4 29h69q52 0 75 23.5t28 80.5l34 350h-96l2 30l97 4l17 176q6 68 39.5 101.5t101.5 33.5q53 0 84 -4l-4 -30h-70q-56 0 -81 -23t-31 -81l-16 -173h161l-4 -34h-160l-34 -353q-6 -68 -37 -101.5t-95 -33.5q-55 0 -84 5z" />
<glyph unicode="&#x218;" horiz-adv-x="556" d="M63 523q0 61 12 97.5t41.5 54t64 22.5t94.5 4q107 -2 192 -14l-4 -30q-138 7 -187 7q-36 0 -55 -1t-42 -5t-34 -13t-22 -24.5t-14.5 -39.5t-3.5 -59q0 -70 23.5 -101.5t79.5 -40.5l150 -25q76 -11 107.5 -53.5t31.5 -130.5q0 -60 -13 -97t-43 -55.5t-65.5 -24t-94.5 -5.5 q-112 0 -206 13l3 31q118 -8 205 -7q52 1 81 6t51.5 20t31 43.5t8.5 75.5q0 75 -24 106t-83 40l-150 25q-72 11 -103.5 54t-31.5 127zM269 -78q0 15 15 15h12q16 0 16 -15v-58q-2 -65 -21 -120l-17 6q5 60 5 103q-12 0 -10 13v56z" />
<glyph unicode="&#x219;" horiz-adv-x="501" d="M59 365q0 84 40 107.5t140 21.5q108 -2 191 -13l-4 -29q-115 6 -183 7q-86 2 -115.5 -13.5t-29.5 -80.5q0 -47 19 -67t59 -26l157 -23q55 -9 82.5 -38.5t27.5 -86.5q0 -85 -44 -110t-150 -25q-96 0 -179 12l4 29q86 -7 171 -6q93 1 126 19.5t33 80.5q0 44 -21.5 64 t-61.5 27l-157 23q-54 8 -79.5 37.5t-25.5 89.5zM240 -78q-1 15 15 15h12q15 0 15 -15v-58q-2 -64 -20 -120l-18 6q5 45 5 103q-12 0 -9 13v56z" />
<glyph unicode="&#x21a;" horiz-adv-x="568" d="M26 654v36h516v-36h-238v-654h-41v654h-237zM254 -78q-1 15 15 15h12q15 0 15 -15v-58q-2 -64 -20 -120l-18 6q5 45 5 103q-12 0 -9 13v56z" />
<glyph unicode="&#x21b;" horiz-adv-x="356" d="M32 448v29l87 4v150h40v-149h172v-34h-172v-342q0 -76 77 -76h84l5 -29q-45 -8 -92 -8q-114 0 -114 109v346h-87zM209 -78q-1 15 15 15h12q15 0 15 -15v-58q-2 -64 -20 -120l-18 6q5 45 5 103q-12 0 -9 13v56z" />
<glyph unicode="&#x2c6;" horiz-adv-x="399" d="M50 587l135 119h29l135 -119l-15 -19l-130 101h-8l-129 -101z" />
<glyph unicode="&#x2c7;" horiz-adv-x="399" d="M49 691l18 18l129 -98h8l130 98l16 -18l-138 -120h-24z" />
<glyph unicode="&#x2d8;" horiz-adv-x="362" d="M42 685l24 4q0 -42 31 -65.5t85 -23.5q53 0 83.5 23.5t30.5 65.5l25 -4q1 -55 -36.5 -87t-102.5 -32t-103 32t-37 87z" />
<glyph unicode="&#x2d9;" horiz-adv-x="210" d="M82 602v61q0 15 16 15h14q16 0 16 -15v-61q0 -15 -16 -15h-14q-16 0 -16 15z" />
<glyph unicode="&#x2da;" horiz-adv-x="294" d="M48 638q0 40 29 68.5t70 28.5t70 -28.5t29 -68.5q0 -41 -29 -69.5t-70 -28.5t-70 28.5t-29 69.5zM76 638q0 -32 20.5 -52t50.5 -20t50.5 20t20.5 52q0 31 -20.5 51.5t-50.5 20.5q-31 0 -51 -20.5t-20 -51.5z" />
<glyph unicode="&#x2db;" horiz-adv-x="253" d="M53 -122q22 62 92 124l24 -2q-61 -61 -84 -123q-16 -44 9.5 -58t79.5 5l5 -18q-80 -32 -113 -7.5t-13 79.5z" />
<glyph unicode="&#x2dc;" horiz-adv-x="405" d="M54 595q-2 49 18.5 73.5t57.5 21.5q30 -3 71.5 -32.5t70.5 -32.5q30 -2 43 12t13 48h23q3 -46 -18 -70.5t-58 -21.5q-36 3 -78 33t-65 32q-55 6 -55 -63h-23z" />
<glyph unicode="&#x2dd;" horiz-adv-x="422" d="M62 559l111 161l32 -22l-121 -154zM208 559l111 161l32 -22l-121 -154z" />
<glyph unicode="&#x394;" horiz-adv-x="617" d="M34 0v26l253 664h43l253 -664v-26h-549zM79 35h458l-204 543q-4 11 -12 35t-12 35q-4 -12 -12.5 -35.5t-12.5 -35.5z" />
<glyph unicode="&#x3a9;" horiz-adv-x="718" d="M54 0v36h127q43 0 63 -1q-84 56 -120.5 132t-36.5 194q0 173 64.5 257t207.5 84q141 0 206.5 -84.5t65.5 -256.5q0 -119 -37 -194t-120 -132q21 1 63 1h127v-36h-234v35q87 58 122.5 132t36.5 190q-1 159 -55.5 233.5t-174.5 74.5q-122 0 -175.5 -74t-53.5 -236 q0 -120 36 -189t122 -131v-35h-234z" />
<glyph unicode="&#x3bc;" horiz-adv-x="581" d="M96 -208v690h39v-354q0 -102 104 -102q46 0 91 20.5t111 67.5v368h40v-482h-30l-5 85q-115 -97 -216 -97q-67 0 -102 37q5 -33 5 -80v-153h-37z" />
<glyph unicode="&#x3c0;" horiz-adv-x="641" d="M30 448v34h581v-34h-107v-448h-40v448h-288v-448h-39v448h-107z" />
<glyph unicode="&#x401;" horiz-adv-x="553" d="M93 106v478q0 47 30.5 76.5t79.5 29.5q198 0 294 -4l-2 -31h-285q-34 0 -55 -21.5t-21 -56.5v-192h320v-34h-320v-238q0 -35 21 -56.5t55 -21.5h285l2 -31q-96 -4 -294 -4q-49 0 -79.5 29.5t-30.5 76.5zM200 813v56q0 14 13 14h15q14 0 14 -14v-56q0 -14 -14 -14h-15 q-13 0 -13 14zM377 813v56q0 14 14 14h14q14 0 14 -14v-56q0 -14 -14 -14h-14q-14 0 -14 14z" />
<glyph unicode="&#x402;" horiz-adv-x="749" d="M26 654v36h516v-36h-238v-295q60 42 112 59t112 17q83 0 125 -47.5t42 -160.5q0 -237 -253 -227l-4 29q109 6 162.5 47.5t53.5 147.5q0 99 -33 136.5t-103 37.5q-60 0 -106 -17t-108 -57v-324h-41v654h-237z" />
<glyph unicode="&#x403;" horiz-adv-x="515" d="M96 0v581q0 48 30.5 78.5t77.5 30.5q191 0 286 -5l-3 -30h-272q-35 0 -56.5 -21.5t-21.5 -58.5v-575h-41zM244 754l155 145l26 -29l-163 -136z" />
<glyph unicode="&#x404;" horiz-adv-x="572" d="M72 345q0 197 60 277t208 80q107 0 180 -18l-7 -31q-76 12 -173 12q-118 0 -169 -62.5t-55 -217.5h311v-33h-312v-7q0 -178 50 -249t175 -71q104 0 181 13l7 -31q-79 -19 -188 -19q-148 0 -208 80t-60 277z" />
<glyph unicode="&#x405;" horiz-adv-x="556" d="M63 523q0 61 12 97.5t41.5 54t64 22.5t94.5 4q107 -2 192 -14l-4 -30q-138 7 -187 7q-36 0 -55 -1t-42 -5t-34 -13t-22 -24.5t-14.5 -39.5t-3.5 -59q0 -70 23.5 -101.5t79.5 -40.5l150 -25q76 -11 107.5 -53.5t31.5 -130.5q0 -60 -13 -97t-43 -55.5t-65.5 -24t-94.5 -5.5 q-112 0 -206 13l3 31q118 -8 205 -7q52 1 81 6t51.5 20t31 43.5t8.5 75.5q0 75 -24 106t-83 40l-150 25q-72 11 -103.5 54t-31.5 127z" />
<glyph unicode="&#x406;" horiz-adv-x="239" d="M99 0v690h41v-690h-41z" />
<glyph unicode="&#x407;" horiz-adv-x="239" d="M9 789v56q0 14 14 14h15q13 0 13 -14v-56q0 -14 -13 -14h-15q-14 0 -14 14zM99 0v690h41v-690h-41zM186 789v56q0 14 14 14h15q13 0 13 -14v-56q0 -14 -13 -14h-15q-14 0 -14 14z" />
<glyph unicode="&#x408;" horiz-adv-x="328" d="M36 1l5 28h56q94 0 94 94v567h41v-567q0 -65 -31.5 -98t-93.5 -32q-33 0 -71 8z" />
<glyph unicode="&#x409;" horiz-adv-x="966" d="M25 29q56 28 98 101q36 63 48 129.5t30 267.5q3 34 5 53q8 110 115 110h205v-299h173q120 0 166 -45t46 -155q0 -115 -46.5 -157t-161.5 -42q-138 0 -218 8v655h-159q-75 0 -81 -80q-20 -234 -33 -313t-50 -145q-58 -104 -132 -117zM526 31q74 -2 173 -2q97 0 133.5 33 t36.5 130q0 92 -36 127.5t-134 35.5h-173v-324z" />
<glyph unicode="&#x40a;" horiz-adv-x="982" d="M99 0v690h41v-301h361v301h41v-301h173q120 0 166 -44.5t46 -153.5q0 -115 -46.5 -157t-162.5 -42q-137 0 -217 8v354h-361v-354h-41zM542 31q72 -2 173 -2q97 0 133.5 33t36.5 129q0 91 -36 127t-134 36h-173v-323z" />
<glyph unicode="&#x40b;" horiz-adv-x="786" d="M26 654v36h516v-36h-238v-296q131 77 268 77q148 0 148 -148v-287h-41v280q0 62 -28.5 90t-89.5 28q-69 0 -125.5 -17t-131.5 -59v-322h-41v654h-237z" />
<glyph unicode="&#x40c;" horiz-adv-x="580" d="M99 0v690h40v-231q0 -45 -4 -82h97q45 0 80 21t66.5 73.5t46.5 85t46 111.5q6 15 9 22h43q-63 -156 -88 -202q-65 -119 -147 -127v-2q21 -1 39.5 -7.5t35.5 -20.5t30 -27t28 -38t24.5 -42t24 -51t22.5 -53t24 -59.5t24 -60.5h-44q-8 19 -22.5 55.5t-21 54t-20 48 t-21.5 46t-22 39t-25 35t-26.5 26.5t-31 22t-34.5 12t-40 5h-96q3 -43 3 -83v-260h-40zM239 754l155 145l26 -29l-163 -136z" />
<glyph unicode="&#x40d;" horiz-adv-x="681" d="M99 0v690h40v-559q0 -49 -1 -74h2q5 8 19 32.5t21 36.5l361 564h42v-690h-41v562q0 47 1 71h-2q-1 -1 -14.5 -27t-20.5 -37l-366 -569h-41zM204 870l26 29l155 -145l-18 -20z" />
<glyph unicode="&#x40e;" horiz-adv-x="544" d="M32 690h43l161 -430q8 -21 29 -21h48l168 451h43l-198 -527q-37 -97 -61 -127q-31 -39 -73 -42q-53 -4 -103 12l5 29q35 -5 55.5 -7t40 3t29.5 11t22.5 26.5t20.5 39t24 58.5l14 38h-43q-41 0 -55 38zM133 871l25 5q0 -42 31 -65.5t85 -23.5q53 0 83.5 23.5t30.5 65.5 l24 -5q1 -55 -36 -86.5t-102 -31.5t-103.5 31.5t-37.5 86.5z" />
<glyph unicode="&#x40f;" horiz-adv-x="668" d="M99 0v690h41v-655h388v655h41v-690h-217l-2 -151h-29l-4 151h-218z" />
<glyph unicode="&#x410;" horiz-adv-x="608" d="M17 0l241 677q5 13 18 13h56q13 0 18 -13l241 -677h-43l-85 243h-318l-85 -243h-43zM158 279h292q-8 24 -57 163.5t-75 213.5h-28q-26 -74 -74.5 -213t-57.5 -164z" />
<glyph unicode="&#x411;" horiz-adv-x="594" d="M99 0v690q112 5 203 5q88 0 198 -5l-4 -34h-356v-280h182q120 0 166 -43t46 -150q0 -113 -48.5 -152t-167.5 -39q-136 0 -219 8zM140 30q76 -2 182 -2q97 0 133.5 31.5t36.5 124.5q0 89 -36 123t-134 34h-182v-311z" />
<glyph unicode="&#x412;" horiz-adv-x="614" d="M99 0v690q73 8 202 8q126 0 175 -38t49 -142q0 -75 -28 -113.5t-89 -44.5v-4q74 -7 105.5 -52.5t31.5 -131.5q0 -104 -47 -142t-167 -38q-149 0 -232 8zM140 30q78 -2 187 -2q100 0 138 30t38 118q0 95 -40.5 129t-144.5 36h-178v-311zM140 374h178q94 1 129.5 29.5 t35.5 111.5q0 88 -39.5 117.5t-143.5 29.5q-90 0 -160 -2v-286z" />
<glyph unicode="&#x413;" horiz-adv-x="515" d="M96 0v581q0 48 30.5 78.5t77.5 30.5q191 0 286 -5l-3 -30h-272q-35 0 -56.5 -21.5t-21.5 -58.5v-575h-41z" />
<glyph unicode="&#x414;" horiz-adv-x="665" d="M24 35h59q103 189 114 545q1 53 30 81.5t82 28.5h237v-655h82v-186h-29l-6 151h-533l-7 -151h-29v186zM125 35h379v620h-189q-76 0 -79 -78q-5 -169 -29 -301.5t-82 -240.5z" />
<glyph unicode="&#x415;" horiz-adv-x="553" d="M93 106v478q0 47 30.5 76.5t79.5 29.5q198 0 294 -4l-2 -31h-285q-34 0 -55 -21.5t-21 -56.5v-192h320v-34h-320v-238q0 -35 21 -56.5t55 -21.5h285l2 -31q-96 -4 -294 -4q-49 0 -79.5 29.5t-30.5 76.5z" />
<glyph unicode="&#x416;" horiz-adv-x="886" d="M40 0q7 17 24 60.5t23.5 60t22 52.5t24.5 51.5t24.5 41.5t28.5 38t30 26.5t35.5 21t39.5 7.5v2q-51 5 -96.5 57.5t-67 98t-60.5 146.5q-7 18 -11 27h43q60 -149 86 -195q68 -118 160 -118h85q-4 28 -4 82v231h39v-231q0 -54 -4 -82h77q56 0 103.5 47.5t69 91.5t61.5 143 q9 21 13 31h43q-63 -157 -90 -205q-65 -116 -145 -124v-2q21 -1 39.5 -7.5t35.5 -21t30 -26.5t28.5 -38t24.5 -41.5t24.5 -51.5t22 -52.5t23.5 -60t24 -60.5h-44q-7 18 -22 55.5t-21.5 54t-20 48t-21.5 46t-22 38.5t-25 35.5t-26.5 26.5t-30.5 22t-34 12t-40 5h-77 q4 -39 4 -83v-260h-39v260q0 44 4 83h-85q-21 0 -39.5 -5t-33.5 -12t-31 -22t-26.5 -26.5t-24.5 -35.5t-22 -38.5t-21.5 -46t-20 -48t-21.5 -54t-22 -55.5h-44z" />
<glyph unicode="&#x417;" horiz-adv-x="546" d="M42 8l5 30q170 -10 211 -10q100 0 137.5 30t37.5 118q0 95 -40.5 130t-143.5 35h-105v33h105q93 0 128.5 29.5t35.5 111.5q0 88 -39 117.5t-143 29.5q-36 0 -71.5 -1.5t-63 -4t-35.5 -2.5l-5 30q83 14 176 14q125 0 174 -37.5t49 -142.5q0 -75 -28 -113.5t-89 -44.5v-4 q74 -7 105.5 -52.5t31.5 -131.5q0 -104 -47 -142t-166 -38q-127 0 -220 16z" />
<glyph unicode="&#x418;" horiz-adv-x="681" d="M99 0v690h40v-559q0 -49 -1 -74h2q5 8 19 32.5t21 36.5l361 564h42v-690h-41v562q0 47 1 71h-2q-1 -1 -14.5 -27t-20.5 -37l-366 -569h-41z" />
<glyph unicode="&#x419;" horiz-adv-x="681" d="M99 0v690h40v-559q0 -49 -1 -74h2q5 8 19 32.5t21 36.5l361 564h42v-690h-41v562q0 47 1 71h-2q-1 -1 -14.5 -27t-20.5 -37l-366 -569h-41zM202 878h34q0 -47 28.5 -73.5t77.5 -26.5q47 0 75.5 26.5t28.5 73.5h35q1 -55 -37 -90t-102 -35t-103 35t-37 90z" />
<glyph unicode="&#x41a;" horiz-adv-x="580" d="M99 0v690h40v-231q0 -45 -4 -82h97q45 0 80 21t66.5 73.5t46.5 85t46 111.5q6 15 9 22h43q-63 -156 -88 -202q-65 -119 -147 -127v-2q21 -1 39.5 -7.5t35.5 -20.5t30 -27t28 -38t24.5 -42t24 -51t22.5 -53t24 -59.5t24 -60.5h-44q-8 19 -22.5 55.5t-21 54t-20 48 t-21.5 46t-22 39t-25 35t-26.5 26.5t-31 22t-34.5 12t-40 5h-96q3 -43 3 -83v-260h-40z" />
<glyph unicode="&#x41b;" horiz-adv-x="637" d="M13 32q58 27 99 98q37 66 49.5 140t32.5 311q11 109 114 109h230v-690h-41v655h-180q-77 0 -83 -80q-15 -175 -21 -230.5t-21 -118.5t-42 -109q-54 -100 -132 -117z" />
<glyph unicode="&#x41c;" horiz-adv-x="860" d="M84 0l29 669q2 21 21 21h57q14 0 19 -14l175 -484l33 -93h24q40 114 117.5 328.5t89.5 248.5q5 14 20 14h57q20 0 20 -21l30 -669h-41l-29 655h-23l-208 -576q-5 -14 -19 -14h-52q-15 0 -20 14l-207 576h-23l-29 -655h-41z" />
<glyph unicode="&#x41d;" horiz-adv-x="660" d="M99 0v690h41v-302h380v302h41v-690h-41v352h-380v-352h-41z" />
<glyph unicode="&#x41e;" horiz-adv-x="664" d="M72 345q0 198 58 277.5t202 79.5t201.5 -79t57.5 -278t-57.5 -278t-201.5 -79t-202 79.5t-58 277.5zM115 345q0 -178 48 -249t169 -71t168.5 70.5t47.5 249.5t-47.5 249.5t-168.5 70.5t-169 -71t-48 -249z" />
<glyph unicode="&#x41f;" horiz-adv-x="663" d="M99 0v690h465v-690h-41v655h-383v-655h-41z" />
<glyph unicode="&#x420;" horiz-adv-x="583" d="M99 0v690q81 8 225 8q115 0 160 -43.5t45 -162.5q0 -120 -44.5 -163t-157.5 -43q-107 0 -187 6v-292h-41zM140 322h184q92 2 127.5 36.5t35.5 133.5t-35.5 134.5t-127.5 35.5q-106 0 -184 -2v-338z" />
<glyph unicode="&#x421;" d="M72 345q0 197 58 277t201 80q105 0 178 -18l-7 -30q-78 11 -171 11q-121 0 -168.5 -70.5t-47.5 -249.5t47.5 -249.5t168.5 -70.5q108 0 185 13l7 -31q-79 -19 -192 -19q-143 0 -201 80t-58 277z" />
<glyph unicode="&#x422;" horiz-adv-x="568" d="M26 654v36h516v-36h-238v-654h-41v654h-237z" />
<glyph unicode="&#x423;" horiz-adv-x="544" d="M32 690h43l161 -430q8 -21 29 -21h48l168 451h43l-198 -527q-37 -97 -61 -127q-31 -39 -73 -42q-53 -4 -103 12l5 29q35 -5 55.5 -7t40 3t29.5 11t22.5 26.5t20.5 39t24 58.5l14 38h-43q-41 0 -55 38z" />
<glyph unicode="&#x424;" horiz-adv-x="821" d="M69 354q0 161 72 227.5t249 69.5v104h41v-104q177 -3 249 -69.5t72 -227.5q0 -160 -72 -226t-249 -69v-104h-41v104q-177 3 -249 69t-72 226zM111 354q0 -145 62 -201.5t218 -58.5v522q-156 -3 -218 -59.5t-62 -202.5zM430 94q156 3 218 59t62 201q0 146 -62 202.5 t-218 59.5v-522z" />
<glyph unicode="&#x425;" horiz-adv-x="603" d="M37 0l213 359l-200 331h47l187 -313h34l188 313h47l-200 -331l213 -359h-48l-202 343h-30l-202 -343h-47z" />
<glyph unicode="&#x426;" horiz-adv-x="677" d="M99 0v690h41v-655h376v655h41v-655h83v-186h-29l-7 151h-505z" />
<glyph unicode="&#x427;" horiz-adv-x="610" d="M68 411v279h41v-272q0 -61 27 -89t86 -28q67 0 122 16.5t126 58.5v314h41v-690h-41v341q-124 -77 -260 -77q-142 0 -142 147z" />
<glyph unicode="&#x428;" horiz-adv-x="908" d="M99 0v690h41v-655h294v655h40v-655h295v655h40v-690h-710z" />
<glyph unicode="&#x429;" horiz-adv-x="919" d="M99 0v690h41v-655h289v655h41v-655h290v655h40v-655h83v-186h-29l-7 151h-748z" />
<glyph unicode="&#x42a;" horiz-adv-x="745" d="M26 654v36h271v-299h181q120 0 166 -45t46 -155q0 -115 -46.5 -157t-162.5 -42q-143 0 -226 8v654h-229zM297 31q76 -2 181 -2q97 0 133.5 33t36.5 129q0 92 -36 128t-134 36h-181v-324z" />
<glyph unicode="&#x42b;" horiz-adv-x="819" d="M99 0v690h41v-299h182q120 0 166 -45t46 -155q0 -115 -46.5 -157t-162.5 -42q-143 0 -226 8zM140 31q76 -2 182 -2q96 0 133 33t37 129q0 92 -36 128t-134 36h-182v-324zM679 0v690h41v-690h-41z" />
<glyph unicode="&#x42c;" horiz-adv-x="589" d="M99 0v690h41v-299h182q120 0 166 -45t46 -155q0 -115 -46.5 -157t-162.5 -42q-143 0 -226 8zM140 31q76 -2 182 -2q96 0 133 33t37 129q0 92 -36 128t-134 36h-182v-324z" />
<glyph unicode="&#x42d;" horiz-adv-x="572" d="M44 7l7 31q77 -13 180 -13q126 0 176 71t50 249v8h-313v33h312q-4 154 -55 216.5t-170 62.5q-97 0 -173 -12l-7 31q75 18 180 18q149 0 208.5 -79.5t59.5 -277.5t-59.5 -277.5t-208.5 -79.5q-108 0 -187 19z" />
<glyph unicode="&#x42e;" horiz-adv-x="902" d="M100 0v690h41v-313h180q4 180 60 252.5t189 72.5q144 0 201.5 -79t57.5 -278t-57.5 -278t-201.5 -79q-138 0 -193.5 79t-55.5 275h-180v-342h-41zM363 345q0 -179 45.5 -249.5t161.5 -70.5q121 0 168.5 70.5t47.5 249.5t-47.5 249.5t-168.5 70.5q-116 0 -161.5 -70.5 t-45.5 -249.5z" />
<glyph unicode="&#x42f;" horiz-adv-x="605" d="M51 0l73 211q28 79 82 96l-1 5q-60 9 -90.5 60.5t-29.5 122.5q0 112 48 157.5t156 45.5q138 0 217 -8v-690h-41v298q-58 -3 -191 -3q-78 0 -107 -87l-71 -208h-45zM127 493q0 -162 148 -162h190v329q-76 2 -176 2q-86 0 -124 -37t-38 -132z" />
<glyph unicode="&#x430;" horiz-adv-x="542" d="M63 118v60q0 55 31 85t89 30h232v61q0 104 -107 104q-87 0 -222 -15l-4 30q152 21 231 21q142 0 142 -140v-354h-31l-7 89q-35 -35 -98.5 -65.5t-125.5 -30.5q-61 0 -95.5 32.5t-34.5 92.5zM103 121q0 -89 94 -91q50 -1 112.5 25.5t105.5 66.5v139l-228 -3 q-84 -2 -84 -83v-54z" />
<glyph unicode="&#x431;" horiz-adv-x="564" d="M82 295q0 91 6 145t26 102t58.5 76t101.5 47q15 4 45 11.5t46 12.5t42.5 16.5t52.5 28.5l10 -30q-25 -17 -53 -29.5t-43.5 -17.5t-47 -13.5t-40.5 -10.5q-45 -13 -75.5 -33t-48 -42t-28 -58.5t-14 -67t-5.5 -82.5h1q7 23 17 41t30.5 37t57.5 29.5t87 10.5 q105 0 147 -53.5t42 -184.5q0 -59 -8 -99.5t-30 -75t-64 -51t-105 -16.5q-57 0 -96 15t-61 38.5t-33.5 66.5t-14.5 82.5t-3 104.5zM123 233q0 -117 38 -163t131 -46q91 0 127 45.5t36 164.5q0 113 -33.5 156t-121.5 43q-105 0 -141 -49.5t-36 -150.5z" />
<glyph unicode="&#x432;" horiz-adv-x="549" d="M90 0v481q68 6 178 6q112 0 155.5 -27t43.5 -102q0 -51 -25 -78t-79 -31v-2q66 -5 93.5 -36.5t27.5 -91.5q0 -72 -41.5 -98.5t-147.5 -26.5q-127 0 -205 6zM128 28q35 -1 163 -1q86 0 119.5 20t33.5 78q0 62 -35 85t-125 23h-156v-205zM128 263h156q82 1 113 19.5 t31 73.5q0 58 -35 77.5t-126 19.5q-91 2 -139 0v-190z" />
<glyph unicode="&#x433;" horiz-adv-x="444" d="M88 0v385q0 46 25 71.5t71 25.5q155 0 232 -4v-30h-219q-36 0 -52.5 -17t-16.5 -54v-377h-40z" />
<glyph unicode="&#x434;" horiz-adv-x="559" d="M30 33h46q79 129 90 352q6 97 101 97h185v-449h58v-178h-28l-6 145h-413l-6 -145h-27v178zM116 33h298v416h-141q-66 0 -69 -68q-11 -222 -88 -348z" />
<glyph unicode="&#x435;" horiz-adv-x="530" d="M66 243q0 138 48 194.5t162 56.5q192 0 194 -142q2 -66 -23 -98.5t-83 -32.5h-257q4 -110 46 -153.5t136 -43.5q85 0 165 12l5 -28q-58 -20 -175 -20t-167.5 58.5t-50.5 196.5zM107 254h251q74 0 72 96q-1 57 -38 82.5t-114 25.5q-93 0 -131.5 -45t-39.5 -159z" />
<glyph unicode="&#x436;" horiz-adv-x="767" d="M43 0q56 133 80 170q48 76 116 81v1q-42 4 -77.5 41t-52 69.5t-48.5 108.5q-3 7 -5 11h42q17 -40 24.5 -56t23.5 -48.5t28 -46.5t29.5 -32t37.5 -25t44 -7h86q-3 19 -3 58v157h37v-157q0 -39 -3 -58h80q24 0 44 7t37.5 25t29.5 32t28 46.5t23.5 48.5t24.5 56h42 q-19 -47 -28.5 -68.5t-29 -57.5t-35 -53.5t-39 -32.5t-50.5 -18v-1q45 -4 80.5 -39.5t53 -69.5t52.5 -119q7 -15 10 -23h-43q-4 10 -13 30q-20 47 -30.5 69t-28.5 54t-34 46t-39.5 25t-51.5 11h-84q4 -25 4 -55v-180h-37v180q0 26 3 55h-88q-28 0 -51.5 -11t-39 -25t-34 -45 t-29 -53.5t-30.5 -68.5q-9 -21 -14 -32h-42z" />
<glyph unicode="&#x437;" horiz-adv-x="478" d="M45 5l4 30q105 -7 164 -7q89 0 123.5 22t34.5 75q0 61 -34 83t-121 24h-99v31h99q83 1 112.5 20t29.5 74q0 59 -35 77.5t-135 18.5q-86 0 -129 -6l-4 30q60 11 137 11q117 0 161.5 -26t44.5 -100q0 -54 -22.5 -81t-80.5 -32v-2q63 -5 90.5 -35.5t27.5 -92.5 q0 -68 -44.5 -97t-152.5 -29q-103 0 -171 12z" />
<glyph unicode="&#x438;" horiz-adv-x="583" d="M90 0v482h38v-372q0 -38 -1 -58h1q11 18 34 47l296 383h34v-482h-37v430h-1q-9 -15 -30 -45l-300 -385h-34z" />
<glyph unicode="&#x439;" horiz-adv-x="583" d="M90 0v482h38v-372q0 -38 -1 -58h1q11 18 34 47l296 383h34v-482h-37v430h-1q-9 -15 -30 -45l-300 -385h-34zM142 697h34q0 -47 29 -73.5t78 -26.5q47 0 75.5 26.5t28.5 73.5h34q1 -56 -36.5 -91t-101.5 -35q-65 0 -103.5 35t-37.5 91z" />
<glyph unicode="&#x43a;" horiz-adv-x="520" d="M90 0v482h40v-157q0 -29 -3 -58h92q30 0 56 12t44 28t37.5 46.5t31 54t30.5 63.5q3 7 5 11h42q-21 -47 -31 -69t-31 -58t-37.5 -53t-42 -32t-54.5 -18v-1q37 -3 66 -20t54 -54t41 -69.5t43 -93.5q4 -9 6 -14h-43q-56 123 -79 156q-51 76 -130 79h-6h-94q3 -29 3 -55v-180 h-40z" />
<glyph unicode="&#x43b;" horiz-adv-x="543" d="M22 27q62 24 87 80q13 27 23.5 70.5t14.5 73t9.5 79t6.5 56.5q6 49 31 72.5t75 23.5h183v-482h-39v449h-141q-34 0 -50.5 -16.5t-20.5 -51.5q-1 -5 -5.5 -47t-6 -54.5t-7 -47.5t-10 -53t-12 -42.5t-16.5 -43.5q-37 -82 -117 -98z" />
<glyph unicode="&#x43c;" horiz-adv-x="727" d="M79 0l24 464q0 18 19 18h50q13 0 18 -14l137 -325q16 -37 27 -67h19q21 55 27 67l137 325q5 14 19 14h49q19 0 19 -18l24 -464h-38l-23 449h-19l-165 -389q-6 -14 -18 -14h-44q-11 0 -17 14l-165 389h-19l-23 -449h-38z" />
<glyph unicode="&#x43d;" horiz-adv-x="570" d="M90 0v482h40v-209h310v209h40v-482h-40v241h-310v-241h-40z" />
<glyph unicode="&#x43e;" d="M66 241q0 139 48.5 196t167.5 57q118 0 166 -57t48 -196q0 -140 -48 -196.5t-166 -56.5q-119 0 -167.5 56.5t-48.5 196.5zM108 241q0 -123 38.5 -170.5t135.5 -47.5t135 47.5t38 170.5t-38 170t-135 47t-135.5 -47t-38.5 -170z" />
<glyph unicode="&#x43f;" horiz-adv-x="567" d="M90 0v482h387v-482h-40v448h-308v-448h-39z" />
<glyph unicode="&#x440;" horiz-adv-x="567" d="M91 -208v690h31l5 -85q102 97 200 97q92 0 132 -59.5t40 -194.5q0 -136 -41 -194t-135 -58t-195 53q3 -35 3 -94v-155h-40zM131 68q118 -44 186 -44q77 0 109 48t32 168q0 119 -31.5 168.5t-106.5 49.5q-45 0 -87.5 -21t-101.5 -70v-299z" />
<glyph unicode="&#x441;" horiz-adv-x="482" d="M66 241q0 139 50 196t172 57q86 0 140 -19l-7 -27q-53 10 -127 10q-104 0 -145.5 -46.5t-41.5 -170.5t41.5 -170.5t145.5 -46.5q84 0 140 11l5 -28q-71 -19 -151 -19q-122 0 -172 57t-50 196z" />
<glyph unicode="&#x442;" horiz-adv-x="475" d="M29 447v35h417v-35h-188v-447h-41v447h-188z" />
<glyph unicode="&#x443;" horiz-adv-x="513" d="M27 482h43q12 -31 78.5 -196t101.5 -253h13q35 88 100.5 251.5t79.5 197.5h43l-214 -524q-39 -96 -86 -134q-58 -42 -143 -29l3 26q72 -4 118 29q38 33 72 116l13 34h-12q-13 0 -18 12z" />
<glyph unicode="&#x444;" horiz-adv-x="702" d="M65 241q0 133 61 191t206 62v206h39v-206q144 -4 205 -62t61 -191t-61 -191t-205 -62v-196h-39v196q-145 4 -206 62t-61 191zM104 241q0 -119 51.5 -167t177.5 -50v434q-126 -2 -177.5 -50t-51.5 -167zM370 24q125 3 176 51t51 166t-51 166t-176 51v-434z" />
<glyph unicode="&#x445;" horiz-adv-x="512" d="M33 0l177 250l-164 232h46l151 -214h26l151 214h46l-164 -232l177 -250h-46l-165 235h-24l-165 -235h-46z" />
<glyph unicode="&#x446;" horiz-adv-x="573" d="M91 0v482h39v-449h298v449h40v-449h56v-176h-27l-7 143h-399z" />
<glyph unicode="&#x447;" horiz-adv-x="512" d="M62 282v200h40v-190q0 -41 19 -59.5t59 -18.5q99 0 202 48v220h39v-482h-39v228q-102 -49 -213 -49q-107 0 -107 103z" />
<glyph unicode="&#x448;" horiz-adv-x="787" d="M90 0v482h40v-449h244v449h39v-449h245v449h39v-482h-607z" />
<glyph unicode="&#x449;" horiz-adv-x="804" d="M91 0v482h39v-449h245v449h38v-449h247v449h38v-449h57v-176h-28l-5 143h-631z" />
<glyph unicode="&#x44a;" horiz-adv-x="626" d="M29 448v34h220v-206h146q102 0 141 -31.5t39 -109.5q0 -81 -39.5 -111t-136.5 -30q-117 0 -189 6v448h-181zM249 29q32 -1 146 -1q78 0 108 22t30 86q0 61 -29.5 84.5t-108.5 23.5h-146v-215z" />
<glyph unicode="&#x44b;" horiz-adv-x="686" d="M90 0v482h39v-206h148q92 0 127.5 -31.5t35.5 -109.5q0 -81 -35.5 -111t-123.5 -30q-118 0 -191 6zM129 29q33 -1 148 -1q68 0 94.5 22t26.5 86q0 61 -25.5 84.5t-95.5 23.5h-148v-215zM555 0v482h40v-482h-40z" />
<glyph unicode="&#x44c;" horiz-adv-x="507" d="M90 0v482h39v-206h148q102 0 140.5 -31.5t38.5 -109.5q0 -81 -39 -111t-136 -30q-118 0 -191 6zM129 29q33 -1 148 -1q77 0 107 22t30 86q0 61 -29 84.5t-108 23.5h-148v-215z" />
<glyph unicode="&#x44d;" horiz-adv-x="489" d="M45 6l6 30q67 -9 150 -9q100 0 140 44.5t41 159.5h-253v31h252q-3 105 -43.5 147t-136.5 42q-77 0 -144 -7l-6 29q58 13 150 13q123 0 172.5 -55t49.5 -192t-49.5 -192.5t-172.5 -55.5q-89 0 -156 15z" />
<glyph unicode="&#x44e;" horiz-adv-x="774" d="M91 0v482h40v-217h148q3 128 49.5 178.5t159.5 50.5q123 0 171.5 -55t48.5 -196t-48.5 -196t-171.5 -55q-115 0 -162 53t-48 188h-147v-233h-40zM319 243q0 -122 37 -169t132 -47q99 0 138.5 47t39.5 169t-39.5 169t-138.5 47q-95 0 -132 -47t-37 -169z" />
<glyph unicode="&#x44f;" horiz-adv-x="530" d="M52 0l45 141q18 55 96 64v3q-60 3 -89 40.5t-29 100.5q0 62 38.5 99t123.5 37q127 0 202 -7v-478h-39v191h-152q-94 0 -114 -62l-39 -129h-43zM115 343q0 -60 31 -90t103 -30h151v226q-68 2 -162 2q-123 0 -123 -108z" />
<glyph unicode="&#x451;" horiz-adv-x="530" d="M66 243q0 138 48 194.5t162 56.5q192 0 194 -142q2 -66 -23 -98.5t-83 -32.5h-257q4 -110 46 -153.5t136 -43.5q85 0 165 12l5 -28q-58 -20 -175 -20t-167.5 58.5t-50.5 196.5zM107 254h251q74 0 72 96q-1 57 -38 82.5t-114 25.5q-93 0 -131.5 -45t-39.5 -159zM168 608 v56q0 14 14 14h15q13 0 13 -14v-56q0 -14 -13 -14h-15q-14 0 -14 14zM345 608v56q0 14 14 14h15q13 0 13 -14v-56q0 -14 -13 -14h-15q-14 0 -14 14z" />
<glyph unicode="&#x452;" horiz-adv-x="571" d="M31 507v27h80v166h41v-166h210v-27h-210v-116q0 -59 -5 -91q130 95 229 95q130 0 130 -132v-263h-40v255q0 53 -25 78t-78 25q-48 0 -95 -21t-117 -68v-269h-40v507h-80z" />
<glyph unicode="&#x453;" horiz-adv-x="444" d="M88 0v385q0 46 25 71.5t71 25.5q155 0 232 -4v-30h-219q-36 0 -52.5 -17t-16.5 -54v-377h-40zM207 572l155 146l26 -30l-163 -136z" />
<glyph unicode="&#x454;" horiz-adv-x="490" d="M67 239q0 137 49.5 192t172.5 55q91 0 150 -13l-6 -29q-67 7 -144 7q-96 0 -136.5 -42t-44.5 -148h253v-31h-253q1 -114 41 -158.5t140 -44.5q83 0 149 9l6 -30q-66 -15 -155 -15q-123 0 -172.5 55.5t-49.5 192.5z" />
<glyph unicode="&#x455;" horiz-adv-x="502" d="M59 365q0 83 40.5 107t140.5 22q108 -2 190 -13l-3 -29q-118 6 -184 7q-86 2 -115.5 -13.5t-29.5 -80.5q0 -47 19 -67t59 -26l157 -23q56 -9 83 -38.5t27 -86.5q0 -85 -44 -110t-150 -25q-96 0 -178 12l4 29q86 -7 170 -6q93 1 126 19.5t33 80.5q0 45 -21.5 64.5 t-61.5 26.5l-156 23q-54 9 -80 38t-26 89z" />
<glyph unicode="&#x456;" horiz-adv-x="228" d="M90 607v60q0 16 15 16h18q15 0 15 -16v-60q0 -16 -15 -16h-18q-15 0 -15 16zM94 0v482h40v-482h-40z" />
<glyph unicode="&#x457;" horiz-adv-x="228" d="M3 608v56q0 14 14 14h15q13 0 13 -14v-56q0 -14 -13 -14h-15q-14 0 -14 14zM94 0v482h40v-482h-40zM180 608v56q0 14 14 14h15q13 0 13 -14v-56q0 -14 -13 -14h-15q-14 0 -14 14z" />
<glyph unicode="&#x458;" horiz-adv-x="228" d="M39 -191q55 71 55 154v519h40v-519q0 -100 -73 -171zM90 607v60q0 16 15 16h18q16 0 16 -16v-60q0 -16 -16 -16h-18q-15 0 -15 16z" />
<glyph unicode="&#x459;" horiz-adv-x="778" d="M31 28q53 29 78 70q29 48 37.5 94t25.5 208q8 82 95 82h160v-197h130q96 0 132.5 -32.5t36.5 -113.5q0 -92 -40.5 -118.5t-144.5 -26.5q-89 0 -153 6v450h-115q-30 0 -45 -13t-18 -43q-16 -155 -26 -207.5t-38 -99.5q-36 -69 -109 -88zM427 28q30 -1 108 -1 q88 0 119.5 20t31.5 93q0 63 -27.5 88.5t-101.5 25.5h-130v-226z" />
<glyph unicode="&#x45a;" horiz-adv-x="791" d="M91 0v482h38v-200h271v200h39v-199h132q95 0 131.5 -32t36.5 -111q0 -84 -37 -115t-127 -31q-108 0 -175 6v251h-271v-251h-38zM439 28q29 -1 132 -1q71 0 99 23t28 90q0 63 -27 87.5t-100 24.5h-132v-224z" />
<glyph unicode="&#x45b;" horiz-adv-x="571" d="M31 507v27h80v166h41v-166h210v-27h-210v-116q0 -59 -5 -91q130 95 229 95q130 0 130 -132v-300q0 -100 -73 -171l-22 17q55 71 55 154v292q0 53 -25 78t-78 25q-48 0 -95 -21t-117 -68v-269h-40v507h-80z" />
<glyph unicode="&#x45c;" horiz-adv-x="520" d="M90 0v482h40v-157q0 -29 -3 -58h92q30 0 56 12t44 28t37.5 46.5t31 54t30.5 63.5q3 7 5 11h42q-21 -47 -31 -69t-31 -58t-37.5 -53t-42 -32t-54.5 -18v-1q37 -3 66 -20t54 -54t41 -69.5t43 -93.5q4 -9 6 -14h-43q-56 123 -79 156q-51 76 -130 79h-6h-94q3 -29 3 -55v-180 h-40zM223 572l155 146l26 -30l-163 -136z" />
<glyph unicode="&#x45d;" horiz-adv-x="583" d="M90 0v482h38v-372q0 -38 -1 -58h1q11 18 34 47l296 383h34v-482h-37v430h-1q-9 -15 -30 -45l-300 -385h-34zM144 688l26 30l155 -146l-18 -20z" />
<glyph unicode="&#x45e;" horiz-adv-x="513" d="M27 482h43q12 -31 78.5 -196t101.5 -253h13q35 88 100.5 251.5t79.5 197.5h43l-214 -524q-39 -96 -86 -134q-58 -42 -143 -29l3 26q72 -4 118 29q38 33 72 116l13 34h-12q-13 0 -18 12zM119 697h35q0 -47 28.5 -73.5t77.5 -26.5q47 0 75.5 26.5t28.5 73.5h35 q1 -55 -37 -90.5t-102 -35.5t-103 35.5t-38 90.5z" />
<glyph unicode="&#x45f;" horiz-adv-x="569" d="M91 0v482h41v-449h305v449h41v-482h-175l-4 -167h-28l-6 167h-174z" />
<glyph unicode="&#x490;" horiz-adv-x="516" d="M96 0v581q0 48 30.5 78.5t77.5 30.5q169 0 252 -4l7 155h27v-157l-2 -29h-273q-35 0 -56.5 -21.5t-21.5 -58.5v-575h-41z" />
<glyph unicode="&#x491;" horiz-adv-x="445" d="M88 0v385q0 46 25 71.5t71 25.5q130 0 199 -2l6 149h28v-151h-1v-30h-219q-35 1 -52 -16.5t-17 -54.5v-377h-40z" />
<glyph unicode="&#x4b0;" horiz-adv-x="562" d="M27 690h45l171 -322q6 -11 18 -35l18 -36h6l35 70l171 323h45l-227 -424h152v-28h-159v-238h-41v238h-160v28h153z" />
<glyph unicode="&#x4b1;" horiz-adv-x="568" d="M29 482h45l171 -322q6 -11 18 -35t18 -35h6q24 48 36 69l170 323h45l-226 -424h152v-28h-159v-238h-41v238h-160v28h153z" />
<glyph unicode="&#x4b6;" horiz-adv-x="628" d="M68 411v279h42v-272q-1 -61 27.5 -89t89.5 -28q65 0 119 16.5t124 57.5v315h42v-658h78v-183h-29l-7 151h-84v339q-121 -75 -254 -75q-148 0 -148 147z" />
<glyph unicode="&#x4b7;" horiz-adv-x="527" d="M62 282v200h40v-190q0 -41 19 -59.5t59 -18.5q99 0 202 48v220h39v-449h57v-176h-27l-7 143h-62v228q-102 -49 -213 -49q-107 0 -107 103z" />
<glyph unicode="&#x4ba;" horiz-adv-x="610" d="M99 0v690h41v-339q121 75 255 75q147 0 147 -147v-279h-41v272q0 61 -28.5 89t-89.5 28q-65 0 -119.5 -16.5t-123.5 -57.5v-315h-41z" />
<glyph unicode="&#x4c0;" horiz-adv-x="239" d="M99 0v690h41v-690h-41z" />
<glyph unicode="&#x1e80;" horiz-adv-x="935" d="M32 690h44l146 -583l17 -73h27q2 9 8 33.5t9 38.5l139 568q3 16 19 16h53q14 0 19 -16l139 -567q6 -25 16 -73h27q31 129 91 366t73 290h43l-172 -676q-4 -14 -19 -14h-57q-16 0 -19 15q-10 43 -67.5 279.5t-88.5 362.5h-23q-7 -26 -19 -78l-137 -564q-3 -15 -19 -15h-57 q-15 0 -20 14zM329 869l26 30l155 -146l-18 -19z" />
<glyph unicode="&#x1e81;" horiz-adv-x="815" d="M32 482h42l128 -385q5 -13 12.5 -38t8.5 -29h13q27 86 77 248.5t58 189.5q3 14 18 14h37q14 0 18 -14q8 -27 58.5 -189t76.5 -249h13q4 11 10.5 33.5t10.5 34.5l128 384h42l-160 -469q-5 -13 -18 -13h-39q-14 0 -19 14l-113 365q-14 48 -21 73h-11q-26 -87 -76 -250 t-58 -188q-5 -14 -19 -14h-39q-13 0 -18 13zM269 688l25 30l155 -146l-18 -20z" />
<glyph unicode="&#x1e82;" horiz-adv-x="935" d="M32 690h44l146 -583l17 -73h27q2 9 8 33.5t9 38.5l139 568q3 16 19 16h53q14 0 19 -16l139 -567q6 -25 16 -73h27q31 129 91 366t73 290h43l-172 -676q-4 -14 -19 -14h-57q-16 0 -19 15q-10 43 -67.5 279.5t-88.5 362.5h-23q-7 -26 -19 -78l-137 -564q-3 -15 -19 -15h-57 q-15 0 -20 14zM416 753l155 146l26 -30l-163 -135z" />
<glyph unicode="&#x1e83;" horiz-adv-x="815" d="M32 482h42l128 -385q5 -13 12.5 -38t8.5 -29h13q27 86 77 248.5t58 189.5q3 14 18 14h37q14 0 18 -14q8 -27 58.5 -189t76.5 -249h13q4 11 10.5 33.5t10.5 34.5l128 384h42l-160 -469q-5 -13 -18 -13h-39q-14 0 -19 14l-113 365q-14 48 -21 73h-11q-26 -87 -76 -250 t-58 -188q-5 -14 -19 -14h-39q-13 0 -18 13zM355 572l155 146l26 -30l-163 -136z" />
<glyph unicode="&#x1e84;" horiz-adv-x="935" d="M32 690h44l146 -583l17 -73h27q2 9 8 33.5t9 38.5l139 568q3 16 19 16h53q14 0 19 -16l139 -567q6 -25 16 -73h27q31 129 91 366t73 290h43l-172 -676q-4 -14 -19 -14h-57q-16 0 -19 15q-10 43 -67.5 279.5t-88.5 362.5h-23q-7 -26 -19 -78l-137 -564q-3 -15 -19 -15h-57 q-15 0 -20 14zM358 789v56q0 14 14 14h15q13 0 13 -14v-56q0 -14 -13 -14h-15q-14 0 -14 14zM535 789v56q0 14 14 14h15q13 0 13 -14v-56q0 -14 -13 -14h-15q-14 0 -14 14z" />
<glyph unicode="&#x1e85;" horiz-adv-x="815" d="M32 482h42l128 -385q5 -13 12.5 -38t8.5 -29h13q27 86 77 248.5t58 189.5q3 14 18 14h37q14 0 18 -14q8 -27 58.5 -189t76.5 -249h13q4 11 10.5 33.5t10.5 34.5l128 384h42l-160 -469q-5 -13 -18 -13h-39q-14 0 -19 14l-113 365q-14 48 -21 73h-11q-26 -87 -76 -250 t-58 -188q-5 -14 -19 -14h-39q-13 0 -18 13zM298 608v56q0 14 13 14h15q14 0 14 -14v-56q0 -14 -14 -14h-15q-13 0 -13 14zM475 608v56q0 14 13 14h15q14 0 14 -14v-56q0 -14 -14 -14h-15q-13 0 -13 14z" />
<glyph unicode="&#x1ef2;" horiz-adv-x="548" d="M19 690h45l171 -322q6 -11 18 -35l18 -36h6l35 70l171 323h45l-233 -437v-253h-42v254zM135 870l26 29l155 -145l-18 -20z" />
<glyph unicode="&#x1ef3;" horiz-adv-x="512" d="M27 482h43l158 -395q2 -6 6.5 -17t8 -20t6.5 -17h13q35 88 101 251.5t80 197.5h42l-214 -524q-28 -70 -66 -111.5t-104 -55.5l-6 25q55 20 86.5 57t53.5 93l14 34h-13q-12 0 -17 12zM120 688l26 30l155 -146l-18 -20z" />
<glyph unicode="&#x2000;" horiz-adv-x="461" />
<glyph unicode="&#x2001;" horiz-adv-x="923" />
<glyph unicode="&#x2002;" horiz-adv-x="461" />
<glyph unicode="&#x2003;" horiz-adv-x="923" />
<glyph unicode="&#x2004;" horiz-adv-x="307" />
<glyph unicode="&#x2005;" horiz-adv-x="230" />
<glyph unicode="&#x2006;" horiz-adv-x="153" />
<glyph unicode="&#x2007;" horiz-adv-x="153" />
<glyph unicode="&#x2008;" horiz-adv-x="115" />
<glyph unicode="&#x2009;" horiz-adv-x="184" />
<glyph unicode="&#x200a;" horiz-adv-x="51" />
<glyph unicode="&#x2010;" horiz-adv-x="474" d="M82 235v33h310v-33h-310z" />
<glyph unicode="&#x2011;" horiz-adv-x="474" d="M82 235v33h310v-33h-310z" />
<glyph unicode="&#x2012;" horiz-adv-x="474" d="M82 235v33h310v-33h-310z" />
<glyph unicode="&#x2013;" horiz-adv-x="615" d="M82 235v33h451v-33h-451z" />
<glyph unicode="&#x2014;" horiz-adv-x="923" d="M82 235v33h759v-33h-759z" />
<glyph unicode="&#x2018;" horiz-adv-x="202" d="M79 536v63q2 73 21 132l19 -7q-6 -58 -6 -112q13 0 10 -14v-62q1 -17 -16 -17h-12q-16 0 -16 17z" />
<glyph unicode="&#x2019;" horiz-adv-x="200" d="M78 643v62q0 17 16 17h13q16 0 16 -17v-63q-2 -73 -21 -132l-19 7q6 60 6 112q-13 0 -11 14z" />
<glyph unicode="&#x201a;" horiz-adv-x="213" d="M84 14v62q0 17 17 17h13q17 0 17 -17v-63q-2 -71 -23 -132l-19 7q6 60 6 112q-5 0 -8.5 4t-2.5 10z" />
<glyph unicode="&#x201c;" horiz-adv-x="326" d="M79 536v63q2 73 21 132l19 -7q-6 -58 -6 -112q13 0 10 -14v-62q1 -17 -16 -17h-12q-16 0 -16 17zM203 536v63q0 67 21 132l19 -7q-6 -58 -6 -112q13 0 10 -14v-62q1 -17 -16 -17h-12q-16 0 -16 17z" />
<glyph unicode="&#x201d;" horiz-adv-x="324" d="M78 643v62q0 17 16 17h13q16 0 16 -17v-63q-2 -73 -21 -132l-19 7q6 60 6 112q-13 0 -11 14zM202 643v62q0 17 16 17h13q16 0 16 -17v-63q-2 -73 -21 -132l-19 7q6 60 6 112q-13 0 -11 14z" />
<glyph unicode="&#x201e;" horiz-adv-x="336" d="M84 14v62q0 17 16 17h13q16 0 16 -17v-63q-2 -74 -22 -132l-18 7q5 50 5 112q-5 0 -8 4t-2 10zM208 14v62q0 17 16 17h13q16 0 16 -17v-63q-2 -74 -22 -132l-18 7q5 50 5 112q-5 0 -8 4t-2 10z" />
<glyph unicode="&#x2020;" horiz-adv-x="437" d="M52 443v39h133v-33zM199 477v214h38v-801h-36v566zM253 449v33h133v-39z" />
<glyph unicode="&#x2021;" horiz-adv-x="474" d="M70 99v39l133 -6v-33h-133zM70 443v39h133v-33zM217 -110v801h38v-801h-38zM271 99v33l133 6v-39h-133zM271 449v33h133v-39z" />
<glyph unicode="&#x2022;" horiz-adv-x="354" d="M102 263v11q0 38 15.5 53t55.5 15h10q39 0 54 -15t15 -53v-11q0 -40 -15 -55t-54 -15h-10q-40 0 -55.5 15t-15.5 55z" />
<glyph unicode="&#x2026;" horiz-adv-x="789" d="M81 17v60q0 17 17 17h15q17 0 17 -17v-60q0 -17 -17 -17h-15q-17 0 -17 17zM370 17v60q0 17 17 17h14q17 0 17 -17v-60q0 -17 -17 -17h-14q-17 0 -17 17zM658 17v60q0 17 17 17h15q17 0 17 -17v-60q0 -17 -17 -17h-15q-17 0 -17 17z" />
<glyph unicode="&#x202f;" horiz-adv-x="184" />
<glyph unicode="&#x2030;" horiz-adv-x="1248" d="M57 498q0 108 34.5 156t118.5 48t118.5 -48t34.5 -156t-34.5 -156t-118.5 -48t-118.5 48t-34.5 156zM91 498q0 -95 26.5 -135.5t92.5 -40.5t92.5 40.5t26.5 135.5t-26.5 135.5t-92.5 40.5t-92.5 -40.5t-26.5 -135.5zM189 0l471 690h34l-472 -690h-33zM523 197 q0 108 34.5 156t118.5 48q83 0 117.5 -48t34.5 -156q0 -109 -34.5 -157t-117.5 -48q-84 0 -118.5 48t-34.5 157zM557 197q0 -95 26 -136t92 -41t92.5 41t26.5 136t-26.5 135.5t-92.5 40.5t-92 -40.5t-26 -135.5zM884 197q0 108 34 156t118 48t118.5 -48t34.5 -156 q0 -109 -34.5 -157t-118.5 -48t-118 48t-34 157zM918 197q0 -95 26 -136t92 -41t92.5 41t26.5 136t-26.5 135.5t-92.5 40.5t-92 -40.5t-26 -135.5z" />
<glyph unicode="&#x2039;" horiz-adv-x="240" d="M25 245v12l162 198l21 -15l-143 -189l144 -192l-21 -15z" />
<glyph unicode="&#x203a;" horiz-adv-x="242" d="M32 59l143 192l-142 189l20 15l163 -198v-12l-164 -201z" />
<glyph unicode="&#x2044;" horiz-adv-x="160" d="M-173 0l471 690h34l-472 -690h-33z" />
<glyph unicode="&#x205f;" horiz-adv-x="230" />
<glyph unicode="&#x20ac;" horiz-adv-x="646" d="M64 272v29h93l-1 44q0 44 2 64h-94v29h96q13 134 73.5 199t182.5 65q89 0 161 -18l-7 -31q-65 12 -155 12q-99 -1 -149.5 -57t-62.5 -170h280l-7 -29h-275q-2 -20 -2 -64v-44h235l-8 -29h-225q10 -125 60.5 -185.5t153.5 -61.5q96 0 164 13l7 -31q-74 -19 -170 -19 q-126 0 -186.5 70t-71.5 214h-94z" />
<glyph unicode="&#x2122;" horiz-adv-x="951" d="M75 669v27h313v-27h-141v-353h-32v353h-140zM445 316l17 365q2 15 15 15h39q11 0 14 -11l101 -255q3 -9 9 -26.5t9 -25.5h14q23 61 68 175.5t51 131.5q3 11 14 11h40q15 0 15 -15l17 -365h-31l-17 354h-13l-120 -305q-3 -11 -15 -11h-32q-12 0 -14 11l-120 305h-13 l-17 -354h-31z" />
<glyph unicode="&#x2202;" horiz-adv-x="568" d="M65 219q5 105 58.5 164.5t146.5 59.5q120 0 183 -102q6 103 -6.5 166.5t-52 100.5t-97.5 50t-153 13v31q44 0 78.5 -2t69 -7.5t59 -14.5t49 -23.5t39.5 -35t29.5 -47.5t19 -62t8.5 -78t-2 -96q-4 -64 -11.5 -110.5t-23 -94t-39 -77t-62 -48t-90.5 -18.5q-109 0 -158 65 t-45 166zM105 220q-3 -85 37 -140.5t127 -55.5q40 0 70.5 15.5t49.5 40.5t32.5 64t19.5 77.5t10 89.5q-69 97 -178 97q-76 0 -120 -50.5t-48 -137.5z" />
<glyph unicode="&#x2205;" horiz-adv-x="685" d="M50 341q0 121 86 206.5t207 85.5t206.5 -85.5t85.5 -206.5t-85.5 -207t-206.5 -86t-207 86t-86 207zM221 534l3 -45q60 9 119 9q66 0 66 -46q0 -21 -15 -44.5t-33.5 -42.5t-33.5 -52t-15 -72h54q0 35 14.5 64.5t32.5 46.5t32.5 43.5t14.5 56.5q0 93 -117 93 q-51 0 -122 -11zM313 126q0 -7 7 -7h39q8 0 8 7v37q0 8 -8 8h-39q-7 0 -7 -8v-37z" />
<glyph unicode="&#x220f;" horiz-adv-x="728" d="M44 656v34h640v-34h-117v-764h-39v764h-328v-764h-39v764h-117z" />
<glyph unicode="&#x2211;" horiz-adv-x="583" d="M54 -55l196 413l-184 297v35h449v-35h-402l183 -297l-197 -413h426v-35h-471v35z" />
<glyph unicode="&#x2212;" horiz-adv-x="588" d="M83 279v33h422v-33h-422z" />
<glyph unicode="&#x221a;" horiz-adv-x="555" d="M44 482h37l119 -451h13l271 845h38l-280 -868q-3 -8 -13 -8h-46q-11 0 -13 8z" />
<glyph unicode="&#x221e;" horiz-adv-x="789" d="M72 312q0 63 37 95.5t97 32.5q103 0 190 -110q93 110 192 110q57 0 93 -32.5t36 -95.5q0 -65 -39.5 -101t-100.5 -36q-41 0 -78.5 18.5t-57.5 38.5t-45 50q-91 -107 -185 -107q-60 0 -99.5 36.5t-39.5 100.5zM108 312q0 -51 29.5 -78t80.5 -27q49 0 84 24.5t75 74.5 q-39 50 -76.5 76t-91.5 26q-101 0 -101 -96zM415 304q70 -97 157 -97q50 0 79.5 27t29.5 79q0 48 -26 71.5t-71 23.5q-36 0 -70.5 -18t-54 -37t-44.5 -49z" />
<glyph unicode="&#x222b;" horiz-adv-x="384" d="M41 -218l3 29h66q47 0 67 23.5t17 80.5l-41 666q-9 133 107 133q50 0 83 -4l-4 -29h-66q-47 0 -67 -23.5t-16 -80.5l41 -666q8 -133 -108 -133q-54 0 -82 4z" />
<glyph unicode="&#x2248;" horiz-adv-x="591" d="M84 149q-4 99 82 97q42 0 129 -32t131 -33q27 0 39.5 12t12.5 48h30q2 -49 -17.5 -71t-67.5 -22q-46 0 -133 32t-124 33q-27 0 -39.5 -13t-12.5 -51h-30zM84 340q-4 97 82 97q41 0 128 -32t132 -33q27 0 39.5 12t12.5 48h30q2 -49 -17.5 -71.5t-67.5 -22.5 q-46 0 -132.5 32.5t-124.5 32.5q-27 0 -39.5 -13t-12.5 -50h-30z" />
<glyph unicode="&#x2260;" horiz-adv-x="615" d="M113 168v33h129l108 179h-237v33h257l65 107l22 -10l-60 -97h139v-33h-158l-109 -179h267v-33h-287l-75 -123l-21 10l69 113h-109z" />
<glyph unicode="&#x2264;" horiz-adv-x="583" d="M82 98v32h420v-32h-420zM92 332v34l398 150v-35l-360 -132l360 -118v-34z" />
<glyph unicode="&#x2265;" horiz-adv-x="583" d="M81 98v32h420v-32h-420zM94 197v34l359 118l-359 133v34l397 -150v-34z" />
<glyph unicode="&#x25ca;" horiz-adv-x="589" d="M46 339q-4 7 0 14l242 340q7 9 14 0l240 -340q4 -7 0 -14l-240 -342q-7 -9 -14 0zM83 346l212 -307l211 307l-211 305z" />
<glyph unicode="&#x25fc;" horiz-adv-x="480" d="M0 0v480h480v-480h-480z" />
<glyph unicode="&#xfb00;" horiz-adv-x="672" d="M33 448v29l87 4v80q0 68 31 102t99 34q62 0 119 -5l-2 -30h-104q-57 0 -80 -23t-23 -80v-77h271v97q0 69 30 102.5t100 33.5q78 0 122 -5l-1 -30h-108q-57 0 -80 -23t-23 -80v-95h172v-34h-172v-448h-40v448h-271v-448h-40v448h-87z" />
<glyph unicode="&#xfb03;" horiz-adv-x="872" d="M33 448v29l86 4v80q0 69 30.5 102.5t98.5 33.5q62 0 119 -5l-2 -30h-103q-57 0 -80.5 -23t-23.5 -80v-77h271v95q0 70 30.5 104t99.5 34q75 0 118 -5v-30h-105q-57 0 -80 -23.5t-23 -82.5v-92h309v-482h-40v448h-269v-448h-40v448h-271v-448h-39v448h-86zM734 607v60 q0 16 15 16h18q16 0 16 -16v-60q0 -16 -16 -16h-18q-15 0 -15 16z" />
<glyph unicode="&#xfb04;" horiz-adv-x="940" d="M33 448v29l87 4v80q0 68 31 102t99 34q62 0 119 -5l-2 -30h-104q-57 0 -80 -23t-23 -80v-77h271v95q0 70 30 104t100 34q164 0 233 -8v-604q0 -76 76 -76h55l5 -26q-24 -8 -71 -8q-49 0 -77 27.5t-28 77.5v583h-180q-57 1 -80 -23.5t-23 -83.5v-92h170v-34h-170v-448h-40 v448h-271v-448h-40v448h-87z" />
<glyph unicode="&#xfb06;" horiz-adv-x="841" d="M59 365q0 75 39.5 96t140.5 21h366v149h39v-149h173v-34h-173v-342q0 -76 77 -76h84l5 -29q-45 -8 -91 -8q-114 0 -114 109v346h-362q-38 0 -55.5 -1t-39 -5t-30 -12.5t-14.5 -24t-6 -40.5q0 -47 19 -67t59 -26l157 -23q56 -9 83 -38.5t27 -86.5q0 -85 -44 -110t-150 -25 q-96 0 -179 12l4 29q86 -7 171 -6q93 1 126 19.5t33 80.5q0 44 -21.5 64t-61.5 27l-157 23q-54 8 -79.5 37.5t-25.5 89.5z" />
<glyph horiz-adv-x="795" d="M65 241q0 130 51 185.5t171 55.5h272v149h39v-149h172v-34h-172v-342q0 -76 77 -76h84l5 -29q-45 -8 -92 -8q-113 0 -113 109v346h-265q-104 0 -145.5 -45t-41.5 -162q0 -124 39.5 -170.5t139.5 -46.5q72 0 121 11l5 -28q-62 -19 -132 -19q-118 0 -166.5 57t-48.5 196z " />
<glyph horiz-adv-x="1147" d="M33 448v29l87 4v80q0 68 31 102t99 34q62 0 119 -5l-2 -30h-104q-57 0 -80 -23t-23 -80v-77h271v97q0 69 30.5 102.5t99.5 33.5q79 0 123 -5l-2 -30h-108q-56 0 -79.5 -23t-23.5 -80v-95h152q81 0 112 -76q10 -25 65.5 -162t84.5 -211h13q34 89 100.5 252t79.5 197h43 l-215 -524q-29 -70 -66.5 -111.5t-103.5 -55.5l-6 25q55 20 85 56t55 94l14 34h-13q-13 0 -17 12l-157 383q-22 53 -80 53h-146v-448h-40v448h-271v-448h-40v448h-87z" />
<glyph horiz-adv-x="678" d="M33 448v29l87 4v98q0 69 30.5 102.5t99.5 33.5q77 0 121 -5l-2 -30h-106q-56 0 -79.5 -23t-23.5 -80v-95h281v149h40v-149h172v-34h-172v-342q0 -76 76 -76h85l5 -29q-46 -8 -92 -8q-114 0 -114 109v346h-281v-448h-40v448h-87z" />
<glyph horiz-adv-x="836" d="M33 448v29l87 4v98q0 69 30.5 102.5t99.5 33.5q79 0 123 -5l-2 -30h-108q-38 0 -60 -10t-32.5 -32.5t-10.5 -60.5v-95h152q81 0 112 -76q10 -25 65.5 -162t84.5 -211h12q34 88 99.5 248.5t81.5 200.5h43l-215 -524q-29 -70 -66 -111.5t-103 -55.5l-7 25q56 20 87 56.5 t53 93.5l14 34h-13q-12 0 -17 12l-157 383q-21 53 -80 53h-146v-448h-40v448h-87z" />
<glyph horiz-adv-x="680" d="M32 448v29l87 4v150h40v-149h285v149h40v-149h172v-34h-172v-342q0 -76 76 -76h84l5 -29q-45 -8 -91 -8q-114 0 -114 109v346h-285v-342q0 -76 77 -76h84l5 -29q-45 -8 -92 -8q-114 0 -114 109v346h-87z" />
<glyph horiz-adv-x="862" d="M32 448v29l87 4v150h40v-149h181q81 0 110 -75l129 -320q2 -6 6.5 -17t8 -20t6.5 -17h13q35 87 100 249t80 200h43l-214 -524q-30 -70 -67.5 -111.5t-102.5 -55.5l-7 25q55 20 86 56t55 94l14 34h-13q-12 0 -18 12l-156 383q-22 53 -80 53h-174v-342q0 -76 77 -76h84 l5 -29q-45 -8 -92 -8q-114 0 -114 109v346h-87z" />
<glyph horiz-adv-x="362" d="M42 692h34q0 -47 28.5 -73.5t77.5 -26.5q47 0 75.5 26.5t28.5 73.5h35q1 -56 -37 -91t-102 -35q-65 0 -103.5 35.5t-36.5 90.5z" />
</font>
</defs>
</svg>
