<?xml version="1.0" standalone="no"?>
<!DOCTYPE svg PUBLIC "-//W3C//DTD SVG 1.1//EN" "http://www.w3.org/Graphics/SVG/1.1/DTD/svg11.dtd" >
<svg xmlns="http://www.w3.org/2000/svg">
<metadata></metadata>
<defs>
<font id="exo_2.0thin" horiz-adv-x="560" >
<font-face units-per-em="1000" ascent="800" descent="-200" />
<missing-glyph horiz-adv-x="230" />
<glyph unicode="fi" horiz-adv-x="549" d="M35 457v18l87 5v101q0 68 29 100.5t96 32.5q61 0 98 -4v-18h-90q-60 0 -84.5 -25t-24.5 -86v-101h304v-480h-24v457h-280v-457h-24v457h-87zM421 605v62q0 12 12 12h10q12 0 12 -12v-62q0 -12 -12 -12h-10q-12 0 -12 12z" />
<glyph unicode="fl" horiz-adv-x="616" d="M36 457v18l87 5v101q0 68 29 100.5t96 32.5q149 0 217 -6v-612q0 -39 21 -59.5t59 -20.5h58l3 -16q-20 -6 -64 -6q-46 0 -73.5 26.5t-27.5 74.5v597h-185q-60 1 -84.5 -24t-24.5 -87v-101h169v-23h-169v-457h-24v457h-87z" />
<glyph unicode=" "  horiz-adv-x="230" />
<glyph unicode="&#x09;" horiz-adv-x="230" />
<glyph unicode="&#xa0;" horiz-adv-x="230" />
<glyph unicode="!" horiz-adv-x="253" d="M110 12v62q0 12 12 12h10q12 0 12 -12v-62q0 -12 -12 -12h-10q-12 0 -12 12zM114 354v341h25v-341l-2 -151h-21z" />
<glyph unicode="&#x22;" horiz-adv-x="327" d="M88 482v208h24v-208h-24zM215 482v208h24v-208h-24z" />
<glyph unicode="#" horiz-adv-x="667" d="M60 228l4 22h115l39 220h-116l4 22h116l34 198h25l-34 -198h226l34 198h25l-34 -198h109l-4 -22h-109l-39 -220h110l-4 -22h-109l-40 -228h-25l40 228h-226l-40 -228h-25l40 228h-116zM204 250h226l39 220h-226z" />
<glyph unicode="$" horiz-adv-x="559" d="M69 524q0 61 11.5 97.5t41 54t62.5 22t93 3.5h15l5 103h21l-5 -104q90 -4 151 -11l-3 -19q-122 7 -150 8l-16 -320l61 -8q76 -9 107.5 -50t31.5 -131q0 -48 -9.5 -81.5t-25 -53t-44 -29.5t-57 -13t-74.5 -3h-10l-7 -124h-21l7 124q-95 2 -173 11l3 19q90 -7 171 -7 l17 325l-69 10q-72 8 -103 50t-31 127zM94 524q0 -76 25 -110.5t84 -42.5l71 -10l16 317h-13q-39 0 -58.5 -1t-45 -5.5t-37 -14t-23 -26.5t-15.5 -43t-4 -64zM276 12h10q55 1 86 6t55 21.5t33.5 47.5t9.5 82q0 81 -25.5 115t-88.5 42l-63 9z" />
<glyph unicode="%" horiz-adv-x="883" d="M61 498q0 107 34 155.5t116 48.5t116 -48.5t34 -155.5t-34 -155.5t-116 -48.5t-116 48.5t-34 155.5zM84 498q0 -98 28.5 -141.5t98.5 -43.5t98.5 43.5t28.5 141.5t-28.5 141.5t-98.5 43.5t-98.5 -43.5t-28.5 -141.5zM188 0l480 690h24l-480 -690h-24zM522 197 q0 107 34 155.5t116 48.5t116 -48.5t34 -155.5t-34 -155.5t-116 -48.5t-116 48.5t-34 155.5zM545 197q0 -98 28.5 -141.5t98.5 -43.5t98.5 43.5t28.5 141.5t-28.5 141.5t-98.5 43.5t-98.5 -43.5t-28.5 -141.5z" />
<glyph unicode="&#x26;" horiz-adv-x="783" d="M80 174q0 84 31 130t106 52v4q-63 5 -90 45t-27 116q0 48 10.5 80t28.5 51.5t52 29.5t70.5 13t95.5 3q88 0 159 -8l-4 -18q-29 3 -156 3q-136 0 -183 -28.5t-47 -126.5q0 -90 38 -121t138 -31h229l6 156h18v-156h141l-3 -21h-138v-251q0 -80 80 -80h88l3 -16 q-40 -6 -85 -6q-110 0 -110 101v1q-48 -57 -107 -80.5t-145 -23.5q-109 0 -154 39.5t-45 142.5zM106 174q0 -90 37.5 -124.5t133.5 -34.5q90 0 148.5 27t105.5 88v217h-229q-109 0 -152.5 -37t-43.5 -136z" />
<glyph unicode="'" horiz-adv-x="200" d="M88 482v208h24v-208h-24z" />
<glyph unicode="(" horiz-adv-x="355" d="M69 312q0 189 57.5 305t179.5 173l4 -18q-110 -57 -162.5 -168.5t-52.5 -290.5q0 -176 52.5 -288t162.5 -172l-4 -18q-122 58 -179.5 173.5t-57.5 303.5z" />
<glyph unicode=")" horiz-adv-x="355" d="M45 -147q110 60 162.5 172t52.5 288q0 179 -52.5 290.5t-162.5 168.5l4 18q122 -57 179.5 -173t57.5 -305q0 -188 -57.5 -303.5t-179.5 -173.5z" />
<glyph unicode="*" horiz-adv-x="453" d="M72 570l8 22l122 -44l-1 -9l-4 -8zM124 409l94 128l-3 153h24l-5 -153l94 -129l-18 -13l-84 125l-83 -124zM251 539v9l123 42l8 -22l-127 -37z" />
<glyph unicode="+" horiz-adv-x="553" d="M68 286v22h197v187h23v-187h197v-22h-198v-187h-21v187h-198z" />
<glyph unicode="," horiz-adv-x="208" d="M89 10v64q-1 12 11 12h9q12 0 12 -12v-64q-2 -70 -18 -127l-12 5q4 53 4 112q-9 0 -6 10z" />
<glyph unicode="-" horiz-adv-x="483" d="M86 240v22h311v-22h-311z" />
<glyph unicode="." horiz-adv-x="206" d="M86 12v62q0 12 12 12h10q12 0 12 -12v-62q0 -12 -12 -12h-10q-12 0 -12 12z" />
<glyph unicode="/" horiz-adv-x="494" d="M38 -59l393 749h25l-393 -749h-25z" />
<glyph unicode="0" horiz-adv-x="584" d="M77 345q0 187 48.5 272t166.5 85t166.5 -85t48.5 -272t-48.5 -272t-166.5 -85t-166.5 85t-48.5 272zM103 345q0 -176 42.5 -255t146.5 -79t146.5 79t42.5 255t-42.5 255t-146.5 79t-146.5 -79t-42.5 -255z" />
<glyph unicode="1" horiz-adv-x="378" d="M37 617l189 73h25v-690h-25v618q0 24 3 46l-187 -63z" />
<glyph unicode="2" horiz-adv-x="557" d="M62 0v14q0 7 5 14l240 277q71 83 102 144.5t29 122.5q-3 67 -43.5 87t-125.5 20q-91 0 -195 -22l-6 18q112 27 196 27q106 0 153.5 -27.5t47.5 -110.5q0 -67 -32 -127t-107 -147l-232 -268h402v-22h-434z" />
<glyph unicode="3" horiz-adv-x="552" d="M61 5l6 18q114 -12 197 -12q97 0 140 41.5t43 139.5q0 34 -7 60.5t-24.5 51t-53 38t-86.5 14.5h-129v18l129 3q153 3 153 165q-2 80 -41 108.5t-140 28.5q-80 0 -170 -12l-7 18q97 17 176 17q116 0 161 -34.5t45 -124.5q0 -152 -109 -174v-4q125 -19 128 -173 q2 -105 -45 -154.5t-161 -49.5q-82 0 -205 17z" />
<glyph unicode="4" horiz-adv-x="595" d="M59 274l223 416h26l-226 -423q-10 -18 -0.5 -33.5t29.5 -15.5h322v225l7 117h18v-342h82v-18l-82 -3v-197h-25v196h-328q-31 0 -46 25t0 53z" />
<glyph unicode="5" horiz-adv-x="526" d="M65 16l6 18q98 -24 174 -24q59 0 97.5 13.5t58 41t26.5 59.5t7 79q0 42 -7 71.5t-25.5 49.5t-39.5 31t-62 17t-79.5 7.5t-103.5 1.5h-14q-6 0 -10 4t-3 10l14 295h334l-3 -22h-309l-12 -265h55q83 -1 131 -8t87 -27.5t55 -60t16 -104.5q0 -37 -3.5 -64.5t-16 -57.5 t-35 -49t-62 -31.5t-94.5 -12.5q-82 0 -182 28z" />
<glyph unicode="6" horiz-adv-x="564" d="M81 302q0 105 9.5 175.5t26.5 115.5t49.5 68.5t70.5 32t97 8.5q71 0 119 -12l-8 -18q-38 7 -111 7q-53 0 -87 -7.5t-62.5 -27.5t-43.5 -58.5t-23.5 -97.5t-10.5 -147q45 56 90 78t113 22q107 0 147 -51t40 -184q0 -56 -7 -92t-28 -67t-62.5 -45t-106.5 -14 q-55 0 -92 11.5t-61 32.5t-37 61t-17.5 88t-4.5 121zM107 299q0 -67 3.5 -109.5t14.5 -80t31.5 -57.5t54 -31t83.5 -11q109 0 143.5 47t34.5 152q0 117 -34 163.5t-130 46.5q-60 0 -105 -21.5t-96 -79.5v-19z" />
<glyph unicode="7" horiz-adv-x="505" d="M48 690h377q25 0 31.5 -9t-1.5 -32l-226 -649h-25l219 630q2 6 6.5 19t6.5 19h-386z" />
<glyph unicode="8" horiz-adv-x="611" d="M85 172q0 90 25.5 133.5t87.5 50.5v4q-52 6 -75.5 44.5t-23.5 113.5q0 97 44 138.5t163 41.5q119 1 162.5 -41t43.5 -139q0 -75 -23.5 -113.5t-75.5 -44.5v-4q62 -7 87.5 -50.5t25.5 -133.5q0 -101 -45 -140t-175 -40q-128 -1 -174.5 39t-46.5 141zM110 172 q0 -87 40.5 -121.5t155.5 -34.5q116 0 155.5 34t39.5 122q0 59 -7.5 92.5t-31.5 52.5t-58 24.5t-97 5.5q-64 0 -99 -6t-59 -25.5t-31.5 -52t-7.5 -91.5zM124 518q0 -95 35 -122t148 -27q114 0 147 27t33 122q0 90 -36 123.5t-145 33.5q-108 0 -145 -34t-37 -123z" />
<glyph unicode="9" horiz-adv-x="565" d="M67 474q0 115 44 171.5t159 56.5q42 0 73 -6t54 -16.5t37.5 -32.5t24 -45t14 -64.5t6 -81t1.5 -102.5q0 -95 -9.5 -160t-27.5 -106t-50.5 -63t-70 -29.5t-95.5 -7.5q-73 0 -125 12l8 18q57 -7 117 -7q53 0 87 7t63 27t44.5 58t24 97.5t8.5 148.5q-45 -56 -90 -78 t-112 -22q-100 0 -142.5 55.5t-42.5 169.5zM92 472q0 -101 36 -151t126 -50q59 0 104 21.5t96 79.5q0 49 -1 80t-3.5 65t-8 54t-14.5 41t-22.5 31.5t-33 20t-44 13t-57.5 3.5q-102 0 -140 -51.5t-38 -156.5z" />
<glyph unicode=":" horiz-adv-x="206" d="M86 12v62q0 12 12 12h10q12 0 12 -12v-62q0 -12 -12 -12h-10q-12 0 -12 12zM86 356v62q0 12 12 12h10q12 0 12 -12v-62q0 -12 -12 -12h-10q-12 0 -12 12z" />
<glyph unicode=";" horiz-adv-x="208" d="M86 356v62q0 12 12 12h10q12 0 12 -12v-62q0 -12 -12 -12h-10q-12 0 -12 12zM89 10v64q-1 12 11 12h9q12 0 12 -12v-64q-2 -70 -18 -127l-12 5q4 53 4 112q-9 0 -6 10z" />
<glyph unicode="&#x3c;" horiz-adv-x="541" d="M65 284v22l393 183v-22l-369 -172l369 -166v-22z" />
<glyph unicode="=" horiz-adv-x="589" d="M86 173v22h417v-22h-417zM86 385v22h417v-22h-417z" />
<glyph unicode="&#x3e;" horiz-adv-x="541" d="M83 107v22l369 166l-369 172v22l393 -183v-22z" />
<glyph unicode="?" horiz-adv-x="507" d="M50 694q9 1 29 4.5t28.5 4.5t26.5 3.5t32.5 3.5t37 1.5t49.5 0.5q196 0 196 -155q0 -42 -19.5 -77.5t-47.5 -63t-56 -55.5t-47.5 -68.5t-19.5 -89.5h-24q0 54 19.5 97t47.5 71.5t55.5 54.5t47 59t19.5 72q0 68 -41.5 100.5t-129.5 32.5q-94 0 -198 -14zM229 12v62 q0 12 12 12h10q12 0 12 -12v-62q0 -12 -12 -12h-10q-12 0 -12 12z" />
<glyph unicode="@" horiz-adv-x="693" d="M94 264q0 73 2.5 116.5t12.5 81t24 55t44 30.5t65.5 16t94.5 4h140q131 0 131 -117v-321h-17l-5 81q-36 -31 -102 -58.5t-129 -27.5q-59 0 -91.5 27.5t-32.5 77.5v54q0 47 30 72.5t84 25.5h241v69q0 96 -110 95h-138q-55 0 -84.5 -2t-58 -12.5t-40.5 -26t-22.5 -50 t-12.5 -77t-2 -112.5q0 -55 1 -91t6.5 -69t11.5 -52t21 -35t30 -23.5t44 -12.5t56.5 -6t73.5 -1h241v-19q-120 -3 -240 -3q-65 -1 -104.5 1.5t-72.5 15.5t-49 31.5t-27 57.5t-13.5 84t-2.5 121zM255 230q0 -82 99 -84q55 -1 121.5 24t110.5 61v133l-241 -4q-90 -3 -90 -77 v-53z" />
<glyph unicode="A" horiz-adv-x="603" d="M19 0l248 681q3 9 13 9h43q10 0 13 -9l248 -681h-27l-91 252h-329l-91 -252h-27zM145 274h313q-10 27 -62 172t-80 222h-29q-28 -77 -80 -221.5t-62 -172.5z" />
<glyph unicode="B" horiz-adv-x="612" d="M103 0v690q71 8 194 8q125 0 173.5 -37.5t48.5 -142.5q0 -75 -28 -113.5t-89 -44.5v-4q74 -7 105.5 -52.5t31.5 -131.5q0 -105 -46.5 -142.5t-165.5 -37.5q-143 0 -224 8zM128 17q70 -2 199 -2q106 0 146 31.5t40 125.5q0 101 -43 137t-153 38h-189v-330zM128 368h189 q99 1 137.5 31.5t38.5 118.5q0 94 -42.5 125.5t-153.5 31.5q-109 0 -169 -2v-305z" />
<glyph unicode="C" horiz-adv-x="561" d="M76 345q0 198 56.5 277.5t198.5 79.5q100 0 174 -17l-6 -18q-75 12 -168 12q-128 0 -178.5 -74t-50.5 -260t50.5 -260t178.5 -74q107 0 182 13l6 -18q-79 -18 -188 -18q-142 0 -198.5 79.5t-56.5 277.5z" />
<glyph unicode="D" horiz-adv-x="659" d="M103 0v690q119 9 229 9q139 0 195 -79.5t56 -274.5t-56 -274.5t-195 -79.5q-108 0 -229 9zM128 17q180 -3 204 -3q125 0 175 73.5t50 257.5t-50 257.5t-175 73.5q-82 0 -204 -4v-655z" />
<glyph unicode="E" horiz-adv-x="551" d="M97 102v486q0 44 29 73t73 29q196 0 294 -4l-2 -18h-287q-36 0 -59 -23t-23 -59v-206h328v-21h-328v-255q0 -36 23 -59t59 -23h287l2 -18q-98 -4 -294 -4q-44 0 -73 29t-29 73z" />
<glyph unicode="F" horiz-adv-x="530" d="M100 0v588q0 44 29 73t73 29q191 0 287 -4l-2 -18h-280q-36 0 -59 -23t-23 -59v-210h321v-21h-321v-355h-25z" />
<glyph unicode="G" horiz-adv-x="622" d="M76 345q0 198 57.5 277.5t200.5 79.5q112 0 196 -17l-6 -18q-84 12 -190 12q-130 0 -181 -74t-51 -260q0 -177 47 -255.5t157 -78.5q35 0 65 8t58.5 26t43.5 30t43 37v288h25v-400h-17l-6 89q-94 -101 -214 -101q-122 0 -175 84t-53 273z" />
<glyph unicode="H" horiz-adv-x="657" d="M103 0v690h25v-309h401v309h25v-690h-25v359h-401v-359h-25z" />
<glyph unicode="I" horiz-adv-x="231" d="M103 0v690h25v-690h-25z" />
<glyph unicode="J" horiz-adv-x="324" d="M38 0l3 16h58q100 0 100 100v574h25v-575q0 -122 -122 -121q-28 0 -64 6z" />
<glyph unicode="K" horiz-adv-x="562" d="M103 0v690h24v-236q0 -23 -2 -83h114l243 319h30l-231 -305q-11 -15 -22 -24v-2q18 -18 22 -23l248 -336h-30l-260 349h-114q2 -31 2 -86v-263h-24z" />
<glyph unicode="L" horiz-adv-x="507" d="M100 102v588h25v-586q0 -36 23 -59t59 -23h272v-18q-92 -4 -277 -4q-44 0 -73 29t-29 73z" />
<glyph unicode="M" horiz-adv-x="854" d="M88 0l30 675q0 15 15 15h42q10 0 13 -9l191 -505q6 -16 17.5 -47t17.5 -47h26q44 118 128 340l98 259q3 9 13 9h42q15 0 15 -15l30 -675h-25l-30 668h-24l-226 -599q-3 -9 -13 -9h-42q-10 0 -13 9l-226 599h-24l-30 -668h-25z" />
<glyph unicode="N" horiz-adv-x="688" d="M103 0v675q0 15 15 15h39q13 0 18 -11q22 -41 154.5 -284.5t202.5 -372.5h28v668h25v-675q0 -15 -15 -15h-42q-12 0 -18 11l-320 589q-6 11 -18.5 34t-18.5 34h-25v-668h-25z" />
<glyph unicode="O" horiz-adv-x="662" d="M76 345q0 198 56.5 277.5t198.5 79.5t198.5 -79.5t56.5 -277.5t-56.5 -277.5t-198.5 -79.5t-198.5 79.5t-56.5 277.5zM102 345q0 -186 50.5 -260t178.5 -74t178.5 74t50.5 260t-50.5 260t-178.5 74t-178.5 -74t-50.5 -260z" />
<glyph unicode="P" horiz-adv-x="581" d="M103 0v690q80 8 221 8q111 0 155 -43t44 -160q0 -118 -43.5 -160.5t-155.5 -42.5q-128 0 -196 4v-296h-25zM128 315h196q98 2 135.5 38.5t37.5 141.5t-38 142.5t-135 37.5q-128 0 -196 -2v-358z" />
<glyph unicode="Q" horiz-adv-x="662" d="M76 345q0 198 56.5 277.5t198.5 79.5t198.5 -79.5t56.5 -277.5t-56.5 -277.5t-198.5 -79.5t-198.5 79.5t-56.5 277.5zM102 345q0 -186 50.5 -260t178.5 -74t178.5 74t50.5 260t-50.5 260t-178.5 74t-178.5 -74t-50.5 -260zM286 -65l12 14q89 -63 224 -85l-7 -25 q-136 19 -229 96z" />
<glyph unicode="R" horiz-adv-x="607" d="M103 0v690q80 8 221 8q112 0 155.5 -40.5t43.5 -153.5q0 -92 -29.5 -133t-97.5 -51v-4q48 -15 76 -95l76 -221h-28l-74 218q-32 92 -113 92q-137 0 -205 4v-314h-25zM128 333h196q97 2 135 37.5t38 133.5q0 100 -38 135.5t-135 35.5q-128 0 -196 -2v-340z" />
<glyph unicode="S" horiz-adv-x="554" d="M66 524q0 61 11.5 97.5t41 54t62.5 22t93 3.5q97 -2 187 -12l-3 -19q-120 8 -184 8q-39 0 -58.5 -1t-45 -5.5t-37 -14t-23 -26.5t-15.5 -43t-4 -64q0 -76 25 -110.5t84 -42.5l153 -21q76 -9 107.5 -50t31.5 -131q0 -48 -9.5 -81.5t-25 -53t-44 -29.5t-57 -13t-74.5 -3 q-110 0 -204 11l3 19q104 -8 202 -7q55 1 86 6t55 21.5t33.5 47.5t9.5 82q0 81 -25.5 115t-88.5 42l-153 21q-72 8 -103 50t-31 127z" />
<glyph unicode="T" horiz-adv-x="564" d="M27 668v22h510v-22h-243v-668h-25v668h-242z" />
<glyph unicode="U" horiz-adv-x="667" d="M98 255v435h25v-435q0 -134 47.5 -189t163.5 -55q115 0 162.5 55t47.5 189v435h25v-435q0 -145 -53.5 -206t-181.5 -61q-129 0 -182.5 61t-53.5 206z" />
<glyph unicode="V" horiz-adv-x="592" d="M26 690h27l204 -594q12 -33 25 -74h28q16 50 25 75l204 593h27l-236 -681q-4 -9 -13 -9h-42q-9 0 -13 9z" />
<glyph unicode="W" horiz-adv-x="930" d="M33 690h26q14 -51 79 -294t99 -374h28q32 128 92.5 365.5t74.5 291.5q3 11 14 11h38q11 0 14 -11l150 -588q3 -12 8.5 -35t8.5 -34h28q35 130 99 371.5t79 296.5h26l-183 -680q-3 -10 -14 -10h-42q-11 0 -14 11q-12 46 -73 287.5t-94 369.5h-24q-33 -128 -93.5 -367.5 t-73.5 -289.5q-3 -11 -14 -11h-42q-11 0 -14 10z" />
<glyph unicode="X" horiz-adv-x="593" d="M38 0l219 360l-206 330h30l199 -318h33l199 318h30l-206 -330l219 -360h-30l-213 350h-31l-213 -350h-30z" />
<glyph unicode="Y" horiz-adv-x="541" d="M22 690h28l180 -333q26 -48 38 -68h5q4 7 17.5 31t19.5 36l180 334h28l-235 -433v-257h-25v257z" />
<glyph unicode="Z" horiz-adv-x="558" d="M52 0v23l421 644h-418v23h447v-23l-421 -644h426v-23h-455z" />
<glyph unicode="[" horiz-adv-x="312" d="M106 -134v871q0 13 9 22t22 9h125v-22h-120q-12 0 -12 -12v-865q0 -12 12 -12h120v-22h-125q-13 0 -22 8.5t-9 22.5z" />
<glyph unicode="\" horiz-adv-x="494" d="M38 690h25l393 -749h-25z" />
<glyph unicode="]" horiz-adv-x="312" d="M50 -143h120q12 0 12 12v865q0 12 -12 12h-120v22h125q13 0 22 -9t9 -22v-871q0 -14 -9 -22.5t-22 -8.5h-125v22z" />
<glyph unicode="^" horiz-adv-x="392" d="M30 378l157 197h18l157 -197l-12 -12l-150 182h-8l-149 -182z" />
<glyph unicode="_" horiz-adv-x="589" d="M79 0h431v-22h-431v22z" />
<glyph unicode="`" horiz-adv-x="277" d="M50 691l18 17l149 -145l-14 -13z" />
<glyph unicode="a" horiz-adv-x="538" d="M66 115v62q0 54 30 83.5t85 29.5h242v68q0 111 -110 111q-99 0 -225 -16l-3 18q149 21 229 21q133 0 133 -134v-358h-18l-5 93q-35 -36 -102 -67.5t-131 -31.5q-60 0 -92.5 31.5t-32.5 89.5zM91 115q0 -95 100 -97q55 -1 122 28.5t110 70.5v153l-242 -4q-90 -2 -90 -89 v-62z" />
<glyph unicode="b" horiz-adv-x="558" d="M92 19v681h24v-217q0 -70 -3 -93q115 102 201 102q94 0 134 -57.5t40 -194.5q0 -136 -44.5 -194t-149.5 -58q-86 0 -202 31zM116 36q91 -25 178 -25q91 0 130 52t39 177t-34 177t-115 52q-45 0 -89.5 -23.5t-108.5 -76.5v-333z" />
<glyph unicode="c" horiz-adv-x="478" d="M69 240q0 138 49.5 195t169.5 57q80 0 135 -17l-6 -18q-47 12 -125 12q-110 0 -154 -49t-44 -180t44 -180t154 -49q79 0 138 12l4 -18q-75 -17 -145 -17q-120 0 -170 57t-50 195z" />
<glyph unicode="d" horiz-adv-x="561" d="M71 240q0 137 40 194.5t134 57.5q85 0 200 -50q-3 26 -3 93v165h24v-700h-18l-4 84q-108 -96 -199 -96q-94 0 -134 57.5t-40 194.5zM96 240q0 -125 34 -177t115 -52q46 0 90.5 22t106.5 74v314q-120 48 -197 48q-81 0 -115 -52t-34 -177z" />
<glyph unicode="e" horiz-adv-x="527" d="M69 242q0 137 47 193.5t159 56.5q186 0 189 -136q2 -66 -22 -97.5t-81 -31.5h-267q3 -119 48 -167.5t144 -48.5q83 0 163 13l4 -18q-58 -18 -170 -18q-114 0 -164 58.5t-50 195.5zM94 249h267q43 0 61.5 26t16.5 79q-1 59 -41.5 87t-121.5 28q-99 0 -140 -49.5 t-42 -170.5z" />
<glyph unicode="f" horiz-adv-x="354" d="M35 458v17l87 5v101q0 68 29 100.5t96 32.5q73 0 118 -4v-18h-110q-60 0 -84.5 -25t-24.5 -86v-101h178v-22h-178v-458h-24v458h-87z" />
<glyph unicode="g" horiz-adv-x="545" d="M57 -74q0 54 13 84.5t52 51.5l24 13q-34 14 -46.5 42t-3.5 57.5t35 51.5q-54 34 -54 117q0 75 45.5 112t146.5 37q58 0 97 -12h150l-3 -18l-103 -3q49 -36 49 -116q0 -76 -44.5 -111.5t-145.5 -35.5q-78 0 -123 21q-23 -25 -29.5 -51.5t11.5 -48.5t60 -30l193 -34 q61 -11 82.5 -39.5t21.5 -87.5q0 -76 -48 -107t-163 -31q-120 0 -168.5 31t-48.5 107zM81 -74q0 -64 43.5 -89.5t149.5 -25.5q102 0 144.5 26t42.5 89q0 50 -17.5 73.5t-69.5 32.5l-199 35l-3 1l-34 -21q-35 -20 -46 -45.5t-11 -75.5zM101 343q0 -65 39 -95t129 -30t128 30 t38 95t-38 96t-128 31t-129 -31t-39 -96z" />
<glyph unicode="h" horiz-adv-x="569" d="M94 0v700h26v-215q0 -59 -5 -93q134 100 234 100q129 0 129 -131v-361h-24v358q0 111 -110 111q-51 0 -101.5 -23t-124.5 -75v-371h-24z" />
<glyph unicode="i" horiz-adv-x="220" d="M93 605v62q0 12 12 12h10q12 0 12 -12v-62q0 -12 -12 -12h-10q-12 0 -12 12zM98 0v480h24v-480h-24z" />
<glyph unicode="j" horiz-adv-x="220" d="M43 -200q55 73 55 154v526h24v-526q0 -90 -66 -164zM93 605v62q0 12 12 12h10q12 0 12 -12v-62q0 -12 -12 -12h-10q-12 0 -12 12z" />
<glyph unicode="k" horiz-adv-x="473" d="M94 0v700h26v-332q0 -43 -4 -82h83l193 194h32l-181 -185q-14 -14 -23 -20v-2q17 -17 23 -25l197 -248h-31l-210 264h-83q2 -31 2 -87v-177h-24z" />
<glyph unicode="l" horiz-adv-x="270" d="M95 95v605h24v-604q0 -39 21 -59.5t59 -20.5h58l3 -16q-20 -6 -64 -6q-46 0 -73.5 26.5t-27.5 74.5z" />
<glyph unicode="m" horiz-adv-x="880" d="M95 0v480h18l3 -88q114 100 214 100q107 0 122 -99q113 99 213 99q60 0 92 -33.5t32 -97.5v-361h-24v358q0 111 -105 111q-47 0 -92.5 -23t-113.5 -75v-371h-24v358q0 111 -105 111q-47 0 -92.5 -23t-113.5 -75v-371h-24z" />
<glyph unicode="n" horiz-adv-x="570" d="M95 0v480h18l3 -88q126 100 234 100q129 0 129 -131v-361h-24v358q0 111 -110 111q-51 0 -101.5 -23t-124.5 -75v-371h-24z" />
<glyph unicode="o" d="M70 240q0 139 47 195.5t163 56.5t163 -56.5t47 -195.5t-47 -195.5t-163 -56.5t-163 56.5t-47 195.5zM95 240q0 -129 41 -179t144 -50t144 50t41 179t-41 179t-144 50t-144 -50t-41 -179z" />
<glyph unicode="p" horiz-adv-x="561" d="M95 -210v690h18l4 -87q106 99 199 99q94 0 134 -57.5t40 -194.5t-40 -194.5t-134 -57.5q-89 0 -200 53q3 -25 3 -92v-159h-24zM119 59q120 -48 197 -48q81 0 115 52t34 177t-34 177t-115 52q-46 0 -91 -22.5t-106 -74.5v-313z" />
<glyph unicode="q" horiz-adv-x="559" d="M70 240q0 138 45 195t153 57q82 0 198 -31v-671h-24v200q0 70 3 93q-62 -49 -110 -72t-101 -23q-86 0 -125 60.5t-39 191.5zM95 239q0 -122 33.5 -175t109.5 -53q50 0 94 21.5t110 71.5v340q-94 25 -170 25q-98 0 -137.5 -50.5t-39.5 -179.5z" />
<glyph unicode="r" horiz-adv-x="383" d="M95 0v480h18l3 -88q127 100 225 100h19l-5 -23h-17q-49 0 -97.5 -23t-121.5 -75v-371h-24z" />
<glyph unicode="s" horiz-adv-x="499" d="M62 365q0 84 39 106.5t138 20.5t186 -12l-3 -18q-96 7 -183 8q-38 1 -58 0t-41.5 -6t-31 -16.5t-16 -31.5t-6.5 -51q0 -51 20 -73.5t60 -27.5l162 -20q109 -14 109 -122q0 -45 -11.5 -72t-38.5 -40t-57 -17t-82 -4q-94 0 -174 11l3 18q87 -8 172 -7q96 2 130 22t34 89 q0 88 -85 99l-162 20q-52 6 -78 35t-26 89z" />
<glyph unicode="t" horiz-adv-x="347" d="M34 458v17l87 5v151h24v-151h178v-22h-178v-362q0 -80 80 -80h88l3 -16q-40 -6 -85 -6q-110 0 -110 101v363h-87z" />
<glyph unicode="u" d="M91 119v361h24v-358q0 -111 110 -111q49 0 97 23t119 75v371h24v-480h-18l-3 88q-120 -100 -224 -100q-129 0 -129 131z" />
<glyph unicode="v" horiz-adv-x="507" d="M30 480h26l153 -367q6 -15 18.5 -45.5t19.5 -45.5h13q22 52 48.5 115t47 112.5t48.5 117t47 113.5h26l-197 -472q-5 -8 -13 -8h-27q-8 0 -13 8z" />
<glyph unicode="w" horiz-adv-x="812" d="M34 480h26l138 -394q4 -10 11 -31.5t11 -32.5h14q21 66 46 142.5t54 164.5t47 142q4 9 13 9h24q9 0 13 -9q18 -54 47 -142t54 -164.5t46 -142.5h14q4 11 11 32.5t11 32.5l138 393h26l-167 -471q-3 -9 -13 -9h-26q-9 0 -13 9l-125 377q-4 12 -11.5 36t-11.5 36h-10 q-29 -88 -84 -255t-64 -194q-4 -9 -13 -9h-26q-10 0 -13 9z" />
<glyph unicode="x" horiz-adv-x="505" d="M36 0l182 250l-169 230h30l160 -218h27l160 218h30l-169 -230l182 -250h-30l-175 240h-23l-175 -240h-30z" />
<glyph unicode="y" horiz-adv-x="506" d="M30 480h26q14 -33 83.5 -201t107.5 -257h13q28 68 60.5 145.5t70 167t60.5 145.5h26l-221 -527q-29 -68 -62.5 -107t-92.5 -56l-6 14q55 21 86 59.5t54 98.5l15 38h-10q-8 0 -13 8z" />
<glyph unicode="z" horiz-adv-x="499" d="M53 0v22l359 436h-356v22h387v-22l-359 -436h362v-22h-393z" />
<glyph unicode="{" horiz-adv-x="298" d="M56 313v30q23 7 28 8.5t17 8t13.5 14l4 20t2.5 33.5v215q0 67 29 96.5t98 29.5v-18q-58 0 -80.5 -26t-22.5 -82v-205q0 -59 -14.5 -78.5t-61.5 -30.5q49 -17 64.5 -35.5t15.5 -69.5v-262q0 -55 22.5 -81.5t80.5 -26.5v-18q-69 0 -98 29.5t-29 96.5v272q0 21 -3 33.5 t-14.5 21.5t-19 12.5t-32.5 12.5z" />
<glyph unicode="|" horiz-adv-x="234" d="M106 -169v950h22v-950h-22z" />
<glyph unicode="}" horiz-adv-x="298" d="M46 -147q58 0 80.5 26.5t22.5 81.5v262q0 51 15.5 69.5t64.5 35.5q-47 11 -61.5 30.5t-14.5 78.5v205q0 56 -22.5 82t-80.5 26v18q69 0 98 -29.5t29 -96.5v-215q0 -48 10.5 -59.5t54.5 -24.5v-30q-25 -9 -32.5 -12.5t-19 -12.5t-14.5 -21.5t-3 -33.5v-272 q0 -67 -29 -96.5t-98 -29.5v18z" />
<glyph unicode="~" horiz-adv-x="533" d="M87 241q-1 45 19 68.5t56 20.5q43 -3 105 -34.5t105 -33.5q31 -2 44.5 13t13.5 50h17q1 -43 -19 -65.5t-56 -19.5q-54 3 -114 34.5t-96 33.5q-30 3 -44 -13.5t-14 -53.5h-17z" />
<glyph unicode="&#xa1;" horiz-adv-x="233" d="M100 406v62q0 12 12 12h10q12 0 12 -12v-62q0 -12 -12 -12h-10q-12 0 -12 12zM104 126l2 151h21l2 -151v-331h-25v331z" />
<glyph unicode="&#xa2;" horiz-adv-x="504" d="M69 350q0 137 49 194t166 58l6 88h21l-6 -88q69 -2 118 -17l-6 -18q-38 10 -114 12l-31 -458h20q79 0 138 12l4 -18q-75 -17 -145 -17h-19l-7 -98h-21l7 100q-97 8 -138.5 65.5t-41.5 184.5zM94 350q0 -118 35.5 -168.5t121.5 -58.5l31 456q-104 -2 -146 -51.5 t-42 -177.5z" />
<glyph unicode="&#xa3;" d="M65 353v20h82l-7 154q-3 57 9 93.5t39 53t56 22t76 5.5q67 0 156 -10l-3 -18q-74 6 -176 6q-77 0 -106.5 -34.5t-26.5 -114.5l7 -157h251l-2 -20h-248l5 -110q3 -82 -11 -136t-62 -85h397v-22h-429v22q50 32 67.5 85.5t13.5 135.5l-5 110h-83z" />
<glyph unicode="&#xa4;" horiz-adv-x="602" d="M83 149l75 75q-49 56 -49 128q0 74 49 128l-74 74l14 15l74 -74q54 48 128 48q72 0 128 -49l75 75l14 -15l-75 -74q48 -54 48 -128q0 -73 -49 -127l77 -76l-15 -14l-76 76q-52 -49 -127 -49q-74 0 -128 48l-74 -75zM130 352q0 -71 50 -121t120 -49q70 -1 119.5 49 t49.5 121t-49.5 121t-119.5 50t-120 -50t-50 -121z" />
<glyph unicode="&#xa5;" horiz-adv-x="602" d="M52 690h28q10 -17 92 -158t126 -214h5q35 59 40 68l177 304h28l-224 -384h187v-20h-198v-90h198v-20h-198v-176h-25v176h-193v20h193v90h-193v20h182z" />
<glyph unicode="&#xa6;" horiz-adv-x="236" d="M107 -169v400h22v-400h-22zM107 381v400h22v-400h-22z" />
<glyph unicode="&#xa7;" horiz-adv-x="543" d="M74 593q0 67 42.5 88.5t134.5 20.5q123 -2 216 -12l-3 -18q-117 7 -213 8q-32 0 -50.5 -0.5t-40.5 -5t-33.5 -13.5t-19.5 -26t-8 -42q0 -76 79 -121l192 -109q61 -35 78.5 -85.5t8.5 -135.5h-22q17 146 -65 193l-192 110q-58 33 -81 66.5t-23 81.5zM76 -132l3 18 q134 -7 213 -8q33 0 49.5 0.5t40 4.5t34.5 13.5t19.5 27t8.5 44.5q0 78 -79 122l-191 108q-61 34 -79 84t-9 134h22q-9 -73 5.5 -118.5t59.5 -71.5l193 -109q56 -32 79.5 -66t23.5 -83q0 -32 -10 -54t-23.5 -33.5t-39.5 -17t-47 -6.5t-57 -1q-98 1 -216 12z" />
<glyph unicode="&#xa8;" horiz-adv-x="399" d="M96 606v56q0 11 10 11h10q10 0 10 -11v-56q0 -11 -10 -11h-10q-10 0 -10 11zM273 606v56q0 11 10 11h10q10 0 10 -11v-56q0 -11 -10 -11h-10q-10 0 -10 11z" />
<glyph unicode="&#xa9;" horiz-adv-x="858" d="M72 345q0 154 103.5 255.5t253.5 101.5t253.5 -101.5t103.5 -255.5t-103.5 -255.5t-253.5 -101.5t-253.5 101.5t-103.5 255.5zM93 345q0 -144 98 -240t238 -96t238 96t98 240t-98 240t-238 96t-238 -96t-98 -240zM239 348q0 128 43.5 180t151.5 52q81 0 133 -12l-5 -15 q-52 6 -128 6q-96 0 -134.5 -46.5t-38.5 -164.5t38.5 -165t134.5 -47q87 0 140 8l4 -16q-60 -12 -144 -12q-108 0 -151.5 52t-43.5 180z" />
<glyph unicode="&#xaa;" horiz-adv-x="444" d="M79 348v41q0 36 22 56t62 20h170v43q0 72 -77 72t-160 -10l-3 16q107 14 165 14q97 0 97 -92v-238h-17l-4 63q-26 -25 -72.5 -46t-92.5 -21q-43 0 -66.5 21t-23.5 61zM102 349q0 -61 70 -63q39 -1 85 18t76 46v99l-168 -3q-63 -2 -63 -57v-40z" />
<glyph unicode="&#xab;" horiz-adv-x="452" d="M51 247v8l163 199l12 -10l-148 -193l149 -195l-12 -10zM209 247v8l163 199l12 -10l-148 -193l149 -195l-12 -10z" />
<glyph unicode="&#xac;" horiz-adv-x="593" d="M86 285v22h417v-178h-23v156h-394z" />
<glyph unicode="&#xad;" horiz-adv-x="483" d="M86 240v22h311v-22h-311z" />
<glyph unicode="&#xae;" horiz-adv-x="581" d="M68 479q0 92 65 157t158 65q92 0 157 -65t65 -157q0 -93 -65 -158t-157 -65q-93 0 -158 65t-65 158zM86 479q0 -86 60 -146.5t145 -60.5q84 0 144 60.5t60 146.5q0 85 -60 145.5t-144 60.5q-85 0 -145 -60.5t-60 -145.5zM190 336v283q36 3 112 3q57 0 79.5 -17t22.5 -63 q0 -36 -15 -53t-49 -22v-2q26 -5 39 -39l37 -90h-20l-36 88q-15 37 -54 37q-26 0 -59 0.5t-39 0.5v-126h-18zM208 475h94q47 1 65.5 15t18.5 51q0 39 -18.5 52t-65.5 13q-75 0 -94 -1v-130z" />
<glyph unicode="&#xaf;" horiz-adv-x="400" d="M70 625v23h260v-23h-260z" />
<glyph unicode="&#xb0;" horiz-adv-x="383" d="M68 579q0 50 36.5 86.5t87.5 36.5q50 0 86.5 -36.5t36.5 -86.5q0 -51 -36.5 -87.5t-86.5 -36.5q-51 0 -87.5 36.5t-36.5 87.5zM88 579q0 -42 30.5 -73t73.5 -31q42 0 72.5 31t30.5 73q0 43 -30 73t-73 30t-73.5 -30t-30.5 -73z" />
<glyph unicode="&#xb1;" horiz-adv-x="599" d="M91 94v22h417v-22h-417zM91 336v22h197v147h23v-147h197v-22h-198v-147h-21v147h-198z" />
<glyph unicode="&#xb2;" horiz-adv-x="441" d="M73 360v12q0 5 4 11l158 161q47 50 67.5 85.5t19.5 70.5q-1 27 -16.5 41t-36 17.5t-57.5 3.5q-64 0 -131 -13l-4 16q73 16 133 16q71 0 103 -16.5t32 -67.5q0 -40 -21 -75.5t-71 -86.5l-153 -156l40 1q40 0 40 -1h186v-19h-293z" />
<glyph unicode="&#xb3;" horiz-adv-x="424" d="M73 363l4 16q68 -7 132 -7t92 24t28 80q0 43 -24 68.5t-88 26.5h-86v15l86 2q33 1 55 10t31.5 24.5t12.5 29.5t3 31q-1 46 -26.5 62.5t-93.5 16.5q-61 0 -115 -7l-4 16q60 10 119 10q79 0 110 -20.5t31 -74.5q0 -92 -75 -105v-2q84 -12 86 -104q2 -63 -30.5 -92.5 t-109.5 -29.5q-50 0 -138 10z" />
<glyph unicode="&#xb4;" horiz-adv-x="277" d="M60 563l149 145l18 -17l-153 -141z" />
<glyph unicode="&#xb6;" horiz-adv-x="597" d="M54 450q0 138 68.5 195t230.5 57q80 0 135 -17v-685h-25v670q-70 9 -152 9v-889h-25v411q-124 11 -178 69t-54 180z" />
<glyph unicode="&#xb7;" horiz-adv-x="206" d="M86 226v62q0 12 12 12h10q12 0 12 -12v-62q0 -12 -12 -12h-10q-12 0 -12 12z" />
<glyph unicode="&#xb8;" horiz-adv-x="219" d="M42 -219l4 15q51 -2 82 24.5t31 65.5q0 28 -13 39t-46 12l3 14q39 2 59 -14t19 -51q-1 -52 -39 -82.5t-100 -22.5z" />
<glyph unicode="&#xb9;" horiz-adv-x="286" d="M48 730l126 44h21v-414h-21v363q0 20 2 30l-124 -37z" />
<glyph unicode="&#xba;" horiz-adv-x="449" d="M75 431q0 93 33.5 131t115.5 38q83 0 116.5 -38t33.5 -131t-33.5 -131t-116.5 -38q-82 0 -115.5 38t-33.5 131zM98 431q0 -84 28 -116.5t98 -32.5t98 32.5t28 116.5q0 85 -28 117.5t-98 32.5t-98 -32.5t-28 -117.5z" />
<glyph unicode="&#xbb;" horiz-adv-x="452" d="M67 56l149 195l-148 193l12 10l163 -199v-8l-164 -201zM225 56l149 195l-148 193l12 10l163 -199v-8l-164 -201z" />
<glyph unicode="&#xbc;" horiz-adv-x="840" d="M54 646l126 44h21v-414h-21v363q0 20 2 30l-124 -37zM126 0l480 690h24l-480 -690h-24zM462 163l148 251h23l-149 -252q-6 -11 0.5 -20t19.5 -9h218v133l5 70h16v-203h45v-15l-45 -2v-116h-21v115h-228q-21 0 -31.5 15.5t-0.5 32.5z" />
<glyph unicode="&#xbd;" horiz-adv-x="871" d="M54 646l126 44h21v-414h-21v363q0 20 2 30l-124 -37zM126 0l480 690h24l-480 -690h-24zM519 0v12q0 5 4 11l158 161q47 50 67.5 85.5t19.5 70.5q-1 27 -16.5 41t-36 17.5t-57.5 3.5q-64 0 -131 -13l-4 16q73 16 133 16q71 0 103 -16.5t32 -67.5q0 -40 -21 -75.5 t-71 -86.5l-153 -156h80h186v-19h-293z" />
<glyph unicode="&#xbe;" horiz-adv-x="930" d="M68 277l4 16q68 -7 132 -7t92 24t28 80q0 43 -24 68.5t-88 26.5h-86v15l86 2q33 1 55 10t31.5 24.5t12.5 29.5t3 31q-1 46 -26.5 62.5t-93.5 16.5q-61 0 -115 -7l-4 16q60 10 119 10q79 0 110 -20.5t31 -74.5q0 -92 -75 -105v-2q84 -12 86 -104q2 -63 -30.5 -92.5 t-109.5 -29.5q-50 0 -138 10zM230 0l480 690h24l-480 -690h-24zM551 163l148 251h23l-149 -252q-6 -11 0.5 -20t19.5 -9h208v133l5 70h16v-203h55v-15l-55 -3v-115h-21v115h-218q-21 0 -31.5 15.5t-0.5 32.5z" />
<glyph unicode="&#xbf;" horiz-adv-x="504" d="M56 -67q0 42 19.5 77.5t47.5 63t56 55.5t47.5 68.5t19.5 89.5h24q0 -54 -19.5 -97t-47.5 -71.5t-55.5 -54.5t-47 -59t-19.5 -72q0 -68 41.5 -100.5t129.5 -32.5q94 0 198 14l5 -18q-9 -1 -29 -4.5t-28.5 -4.5t-26.5 -3.5t-32.5 -3.5t-37 -1.5t-49.5 -0.5q-196 0 -196 155 zM242 416v62q0 12 12 12h10q12 0 12 -12v-62q0 -12 -12 -12h-10q-12 0 -12 12z" />
<glyph unicode="&#xc0;" horiz-adv-x="603" d="M19 0l248 681q3 9 13 9h43q10 0 13 -9l248 -681h-27l-91 252h-329l-91 -252h-27zM145 274h313q-10 27 -62 172t-80 222h-29q-28 -77 -80 -221.5t-62 -172.5zM174 877l18 17l149 -145l-14 -13z" />
<glyph unicode="&#xc1;" horiz-adv-x="603" d="M19 0l248 681q3 9 13 9h43q10 0 13 -9l248 -681h-27l-91 252h-329l-91 -252h-27zM145 274h313q-10 27 -62 172t-80 222h-29q-28 -77 -80 -221.5t-62 -172.5zM254 749l149 145l18 -17l-153 -141z" />
<glyph unicode="&#xc2;" horiz-adv-x="603" d="M19 0l248 681q3 9 13 9h43q10 0 13 -9l248 -681h-27l-91 252h-329l-91 -252h-27zM145 274h313q-10 27 -62 172t-80 222h-29q-28 -77 -80 -221.5t-62 -172.5zM156 763l136 117h18l136 -117l-11 -12l-130 102h-8l-129 -102z" />
<glyph unicode="&#xc3;" horiz-adv-x="603" d="M19 0l248 681q3 9 13 9h43q10 0 13 -9l248 -681h-27l-91 252h-329l-91 -252h-27zM145 274h313q-10 27 -62 172t-80 222h-29q-28 -77 -80 -221.5t-62 -172.5zM157 777q-1 45 19 68.5t56 20.5q30 -2 70.5 -33.5t69.5 -34.5q31 -2 44.5 13t13.5 50h17q1 -29 -8 -49t-26 -29 t-41 -7q-28 2 -52.5 18t-46 32t-41.5 18q-30 3 -44 -13.5t-14 -53.5h-17z" />
<glyph unicode="&#xc4;" horiz-adv-x="603" d="M19 0l248 681q3 9 13 9h43q10 0 13 -9l248 -681h-27l-91 252h-329l-91 -252h-27zM145 274h313q-10 27 -62 172t-80 222h-29q-28 -77 -80 -221.5t-62 -172.5zM198 789v56q0 11 10 11h10q10 0 10 -11v-56q0 -11 -10 -11h-10q-10 0 -10 11zM375 789v56q0 11 10 11h10 q10 0 10 -11v-56q0 -11 -10 -11h-10q-10 0 -10 11z" />
<glyph unicode="&#xc5;" horiz-adv-x="603" d="M19 0l248 681q3 9 13 9h43q10 0 13 -9l248 -681h-27l-91 252h-329l-91 -252h-27zM145 274h313q-10 27 -62 172t-80 222h-29q-28 -77 -80 -221.5t-62 -172.5zM206 814q0 26 13 47.5t35 34.5t48 13q40 0 68 -28t28 -67q0 -40 -28 -67.5t-68 -27.5t-68 27.5t-28 67.5z M227 814q0 -33 21.5 -54.5t53.5 -21.5t53.5 21.5t21.5 54.5q0 32 -21.5 54t-53.5 22t-53.5 -22t-21.5 -54z" />
<glyph unicode="&#xc6;" horiz-adv-x="906" d="M11 0l399 605q34 51 72 68t93 17q175 0 272 -4v-18h-269q-38 0 -60 -22t-22 -60v-206h308v-21h-308v-255q0 -36 23 -59t59 -23h269v-18q-92 -4 -274 -4q-44 0 -73 29t-29 73v170h-251l-179 -272h-30zM234 294h237v293q0 23 12.5 46.5t28.5 30.5h-6q-40 -16 -76 -72z" />
<glyph unicode="&#xc7;" horiz-adv-x="561" d="M76 345q0 198 56.5 277.5t198.5 79.5q100 0 174 -17l-6 -18q-75 12 -168 12q-128 0 -178.5 -74t-50.5 -260t50.5 -260t178.5 -74q107 0 182 13l6 -18q-79 -18 -188 -18q-142 0 -198.5 79.5t-56.5 277.5zM241 -231l4 15q51 -2 82 24.5t31 65.5q0 28 -13 39t-46 12l3 14 q39 2 59 -14t19 -51q-1 -52 -39 -82.5t-100 -22.5z" />
<glyph unicode="&#xc8;" horiz-adv-x="551" d="M97 102v486q0 44 29 73t73 29q196 0 294 -4l-2 -18h-287q-36 0 -59 -23t-23 -59v-206h328v-21h-328v-255q0 -36 23 -59t59 -23h287l2 -18q-98 -4 -294 -4q-44 0 -73 29t-29 73zM182 902l18 17l149 -145l-14 -13z" />
<glyph unicode="&#xc9;" horiz-adv-x="551" d="M97 102v486q0 44 29 73t73 29q196 0 294 -4l-2 -18h-287q-36 0 -59 -23t-23 -59v-206h328v-21h-328v-255q0 -36 23 -59t59 -23h287l2 -18q-98 -4 -294 -4q-44 0 -73 29t-29 73zM262 774l149 145l18 -17l-153 -141z" />
<glyph unicode="&#xca;" horiz-adv-x="551" d="M97 102v486q0 44 29 73t73 29q196 0 294 -4l-2 -18h-287q-36 0 -59 -23t-23 -59v-206h328v-21h-328v-255q0 -36 23 -59t59 -23h287l2 -18q-98 -4 -294 -4q-44 0 -73 29t-29 73zM164 788l136 117h18l136 -117l-11 -12l-130 102h-8l-129 -102z" />
<glyph unicode="&#xcb;" horiz-adv-x="551" d="M97 102v486q0 44 29 73t73 29q196 0 294 -4l-2 -18h-287q-36 0 -59 -23t-23 -59v-206h328v-21h-328v-255q0 -36 23 -59t59 -23h287l2 -18q-98 -4 -294 -4q-44 0 -73 29t-29 73zM206 814v56q0 11 10 11h10q10 0 10 -11v-56q0 -11 -10 -11h-10q-10 0 -10 11zM383 814v56 q0 11 10 11h10q10 0 10 -11v-56q0 -11 -10 -11h-10q-10 0 -10 11z" />
<glyph unicode="&#xcc;" horiz-adv-x="231" d="M-13 877l18 17l149 -145l-14 -13zM103 0v690h25v-690h-25z" />
<glyph unicode="&#xcd;" horiz-adv-x="231" d="M67 749l149 145l18 -17l-153 -141zM103 0v690h25v-690h-25z" />
<glyph unicode="&#xce;" horiz-adv-x="231" d="M-31 763l136 117h18l136 -117l-11 -12l-130 102h-8l-129 -102zM103 0v690h25v-690h-25z" />
<glyph unicode="&#xcf;" horiz-adv-x="231" d="M11 789v56q0 11 10 11h10q10 0 10 -11v-56q0 -11 -10 -11h-10q-10 0 -10 11zM103 0v690h25v-690h-25zM188 789v56q0 11 10 11h10q10 0 10 -11v-56q0 -11 -10 -11h-10q-10 0 -10 11z" />
<glyph unicode="&#xd0;" horiz-adv-x="662" d="M26 361v20h80v309q119 9 229 9q139 0 195 -79.5t56 -274.5t-56 -274.5t-195 -79.5q-108 0 -229 9v361h-80zM131 17q180 -3 204 -3q125 0 175 73.5t50 257.5t-50 257.5t-175 73.5q-82 0 -204 -4v-291h183v-20h-183v-344z" />
<glyph unicode="&#xd1;" horiz-adv-x="688" d="M103 0v675q0 15 15 15h39q13 0 18 -11q22 -41 154.5 -284.5t202.5 -372.5h28v668h25v-675q0 -15 -15 -15h-42q-12 0 -18 11l-320 589q-6 11 -18.5 34t-18.5 34h-25v-668h-25zM213 777q-1 45 19 68.5t56 20.5q30 -2 70.5 -33.5t69.5 -34.5q31 -2 44.5 13t13.5 50h17 q1 -29 -8 -49t-26 -29t-41 -7q-28 2 -52.5 18t-46 32t-41.5 18q-30 3 -44 -13.5t-14 -53.5h-17z" />
<glyph unicode="&#xd2;" horiz-adv-x="662" d="M76 345q0 198 56.5 277.5t198.5 79.5t198.5 -79.5t56.5 -277.5t-56.5 -277.5t-198.5 -79.5t-198.5 79.5t-56.5 277.5zM102 345q0 -186 50.5 -260t178.5 -74t178.5 74t50.5 260t-50.5 260t-178.5 74t-178.5 -74t-50.5 -260zM204 877l18 17l149 -145l-14 -13z" />
<glyph unicode="&#xd3;" horiz-adv-x="662" d="M76 345q0 198 56.5 277.5t198.5 79.5t198.5 -79.5t56.5 -277.5t-56.5 -277.5t-198.5 -79.5t-198.5 79.5t-56.5 277.5zM102 345q0 -186 50.5 -260t178.5 -74t178.5 74t50.5 260t-50.5 260t-178.5 74t-178.5 -74t-50.5 -260zM284 749l149 145l18 -17l-153 -141z" />
<glyph unicode="&#xd4;" horiz-adv-x="662" d="M76 345q0 198 56.5 277.5t198.5 79.5t198.5 -79.5t56.5 -277.5t-56.5 -277.5t-198.5 -79.5t-198.5 79.5t-56.5 277.5zM102 345q0 -186 50.5 -260t178.5 -74t178.5 74t50.5 260t-50.5 260t-178.5 74t-178.5 -74t-50.5 -260zM186 763l136 117h18l136 -117l-11 -12l-130 102 h-8l-129 -102z" />
<glyph unicode="&#xd5;" horiz-adv-x="662" d="M76 345q0 198 56.5 277.5t198.5 79.5t198.5 -79.5t56.5 -277.5t-56.5 -277.5t-198.5 -79.5t-198.5 79.5t-56.5 277.5zM102 345q0 -186 50.5 -260t178.5 -74t178.5 74t50.5 260t-50.5 260t-178.5 74t-178.5 -74t-50.5 -260zM187 777q-1 45 19 68.5t56 20.5q29 -2 70 -33.5 t70 -34.5q31 -2 44.5 13t13.5 50h17q1 -43 -19 -65.5t-56 -19.5t-76.5 34.5t-63.5 33.5q-30 3 -44 -13.5t-14 -53.5h-17z" />
<glyph unicode="&#xd6;" horiz-adv-x="662" d="M76 345q0 198 56.5 277.5t198.5 79.5t198.5 -79.5t56.5 -277.5t-56.5 -277.5t-198.5 -79.5t-198.5 79.5t-56.5 277.5zM102 345q0 -186 50.5 -260t178.5 -74t178.5 74t50.5 260t-50.5 260t-178.5 74t-178.5 -74t-50.5 -260zM228 789v56q0 11 10 11h10q10 0 10 -11v-56 q0 -11 -10 -11h-10q-10 0 -10 11zM405 789v56q0 11 10 11h10q10 0 10 -11v-56q0 -11 -10 -11h-10q-10 0 -10 11z" />
<glyph unicode="&#xd7;" horiz-adv-x="488" d="M65 139l350 314l14 -16l-350 -315z" />
<glyph unicode="&#xd8;" horiz-adv-x="662" d="M76 345q0 198 56.5 277.5t198.5 79.5q83 0 134 -25l30 64l21 -10l-31 -66q54 -35 77.5 -112t23.5 -208q0 -198 -56.5 -277.5t-198.5 -79.5q-95 0 -148 33l-34 -72l-21 10l35 76q-87 72 -87 310zM102 345q0 -217 73 -286l279 595q-47 25 -123 25q-128 0 -178.5 -74 t-50.5 -260zM194 44q49 -33 137 -33q128 0 178.5 74t50.5 260q0 120 -20 191.5t-66 105.5z" />
<glyph unicode="&#xd9;" horiz-adv-x="667" d="M98 255v435h25v-435q0 -134 47.5 -189t163.5 -55q115 0 162.5 55t47.5 189v435h25v-435q0 -145 -53.5 -206t-181.5 -61q-129 0 -182.5 61t-53.5 206zM207 877l18 17l149 -145l-14 -13z" />
<glyph unicode="&#xda;" horiz-adv-x="667" d="M98 255v435h25v-435q0 -134 47.5 -189t163.5 -55q115 0 162.5 55t47.5 189v435h25v-435q0 -145 -53.5 -206t-181.5 -61q-129 0 -182.5 61t-53.5 206zM287 749l149 145l18 -17l-153 -141z" />
<glyph unicode="&#xdb;" horiz-adv-x="667" d="M98 255v435h25v-435q0 -134 47.5 -189t163.5 -55q115 0 162.5 55t47.5 189v435h25v-435q0 -145 -53.5 -206t-181.5 -61q-129 0 -182.5 61t-53.5 206zM189 763l136 117h18l136 -117l-11 -12l-130 102h-8l-129 -102z" />
<glyph unicode="&#xdc;" horiz-adv-x="667" d="M98 255v435h25v-435q0 -134 47.5 -189t163.5 -55q115 0 162.5 55t47.5 189v435h25v-435q0 -145 -53.5 -206t-181.5 -61q-129 0 -182.5 61t-53.5 206zM231 789v56q0 11 10 11h10q10 0 10 -11v-56q0 -11 -10 -11h-10q-10 0 -10 11zM408 789v56q0 11 10 11h10q10 0 10 -11 v-56q0 -11 -10 -11h-10q-10 0 -10 11z" />
<glyph unicode="&#xdd;" horiz-adv-x="541" d="M22 690h28l180 -333q26 -48 38 -68h5q4 7 17.5 31t19.5 36l180 334h28l-235 -433v-257h-25v257zM223 749l149 145l18 -17l-153 -141z" />
<glyph unicode="&#xde;" horiz-adv-x="583" d="M103 0v690h25v-141q70 6 196 6q111 0 155 -43t44 -160q0 -118 -43.5 -160.5t-155.5 -42.5q-128 0 -196 4v-153h-25zM128 172h196q98 2 135.5 38.5t37.5 141.5t-38 142.5t-135 37.5q-128 0 -196 -2v-358z" />
<glyph unicode="&#xdf;" horiz-adv-x="651" d="M36 458v17l87 5v51q0 61 14.5 99t46 55t62.5 22t83 5q103 0 155 -24.5t52 -86.5q0 -60 -23 -86t-79 -45q-11 -4 -34 -11t-30.5 -9.5t-23 -9t-20 -12t-11.5 -15t-9 -21t-2 -27.5q0 -36 16.5 -53.5t49.5 -27.5l133 -40q49 -15 73 -41.5t24 -80.5q0 -44 -11 -72t-34.5 -40.5 t-48.5 -16.5t-65 -4q-89 0 -165 11l2 18q83 -8 163 -7q74 2 104 22t30 89q0 48 -19 68t-56 31l-132 40q-44 13 -66 36t-22 68q0 19 2.5 33t12 25.5t15 18t24.5 15t26.5 11.5t35 12t37.5 12q47 16 64 38t17 71q0 50 -46.5 69.5t-138.5 19.5q-105 0 -143.5 -32t-38.5 -127 v-531h-24v458h-87z" />
<glyph unicode="&#xe0;" horiz-adv-x="538" d="M66 115v62q0 54 30 83.5t85 29.5h242v68q0 111 -110 111q-99 0 -225 -16l-3 18q149 21 229 21q133 0 133 -134v-358h-18l-5 93q-35 -36 -102 -67.5t-131 -31.5q-60 0 -92.5 31.5t-32.5 89.5zM91 115q0 -95 100 -97q55 -1 122 28.5t110 70.5v153l-242 -4q-90 -2 -90 -89 v-62zM139 695l18 17l149 -145l-14 -13z" />
<glyph unicode="&#xe1;" horiz-adv-x="538" d="M66 115v62q0 54 30 83.5t85 29.5h242v68q0 111 -110 111q-99 0 -225 -16l-3 18q149 21 229 21q133 0 133 -134v-358h-18l-5 93q-35 -36 -102 -67.5t-131 -31.5q-60 0 -92.5 31.5t-32.5 89.5zM91 115q0 -95 100 -97q55 -1 122 28.5t110 70.5v153l-242 -4q-90 -2 -90 -89 v-62zM219 567l149 145l18 -17l-153 -141z" />
<glyph unicode="&#xe2;" horiz-adv-x="538" d="M66 115v62q0 54 30 83.5t85 29.5h242v68q0 111 -110 111q-99 0 -225 -16l-3 18q149 21 229 21q133 0 133 -134v-358h-18l-5 93q-35 -36 -102 -67.5t-131 -31.5q-60 0 -92.5 31.5t-32.5 89.5zM91 115q0 -95 100 -97q55 -1 122 28.5t110 70.5v153l-242 -4q-90 -2 -90 -89 v-62zM121 581l136 117h18l136 -117l-11 -12l-130 102h-8l-129 -102z" />
<glyph unicode="&#xe3;" horiz-adv-x="538" d="M66 115v62q0 54 30 83.5t85 29.5h242v68q0 111 -110 111q-99 0 -225 -16l-3 18q149 21 229 21q133 0 133 -134v-358h-18l-5 93q-35 -36 -102 -67.5t-131 -31.5q-60 0 -92.5 31.5t-32.5 89.5zM91 115q0 -95 100 -97q55 -1 122 28.5t110 70.5v153l-242 -4q-90 -2 -90 -89 v-62zM122 595q-1 45 19 68.5t56 20.5q25 -2 47.5 -18l45 -32t47.5 -18q31 -2 44.5 13t13.5 50h17q1 -43 -19 -65.5t-56 -19.5t-76.5 34.5t-63.5 33.5q-30 3 -44 -13.5t-14 -53.5h-17z" />
<glyph unicode="&#xe4;" horiz-adv-x="538" d="M66 115v62q0 54 30 83.5t85 29.5h242v68q0 111 -110 111q-99 0 -225 -16l-3 18q149 21 229 21q133 0 133 -134v-358h-18l-5 93q-35 -36 -102 -67.5t-131 -31.5q-60 0 -92.5 31.5t-32.5 89.5zM91 115q0 -95 100 -97q55 -1 122 28.5t110 70.5v153l-242 -4q-90 -2 -90 -89 v-62zM163 607v56q0 11 10 11h10q10 0 10 -11v-56q0 -11 -10 -11h-10q-10 0 -10 11zM340 607v56q0 11 10 11h10q10 0 10 -11v-56q0 -11 -10 -11h-10q-10 0 -10 11z" />
<glyph unicode="&#xe5;" horiz-adv-x="538" d="M66 115v62q0 54 30 83.5t85 29.5h242v68q0 111 -110 111q-99 0 -225 -16l-3 18q149 21 229 21q133 0 133 -134v-358h-18l-5 93q-35 -36 -102 -67.5t-131 -31.5q-60 0 -92.5 31.5t-32.5 89.5zM91 115q0 -95 100 -97q55 -1 122 28.5t110 70.5v153l-242 -4q-90 -2 -90 -89 v-62zM171 632q0 39 28 67t68 28t68 -28t28 -67q0 -40 -28 -67.5t-68 -27.5t-68 27.5t-28 67.5zM192 632q0 -33 21.5 -54.5t53.5 -21.5t53.5 21.5t21.5 54.5q0 32 -21.5 54t-53.5 22t-53.5 -22t-21.5 -54z" />
<glyph unicode="&#xe6;" horiz-adv-x="880" d="M66 115v62q0 54 30 83.5t85 29.5h242v68q0 111 -110 111q-99 0 -225 -16l-3 18q149 21 229 21q116 0 131 -101q39 101 184 101q186 0 189 -136q1 -71 -31.5 -100t-111.5 -29h-227q3 -119 48 -167.5t144 -48.5q83 0 163 13l4 -18q-58 -18 -170 -18q-79 0 -126.5 27 t-68.5 86q-39 -39 -110.5 -73t-140.5 -34q-60 0 -92.5 31.5t-32.5 89.5zM91 115q0 -95 100 -97q57 -1 127 29t118 74q-11 42 -13 103v46l-242 -4q-90 -2 -90 -89v-62zM448 249h227q66 0 92.5 23.5t25.5 81.5q-3 115 -163 115q-99 0 -140 -49.5t-42 -170.5z" />
<glyph unicode="&#xe7;" horiz-adv-x="478" d="M69 240q0 138 49.5 195t169.5 57q80 0 135 -17l-6 -18q-47 12 -125 12q-110 0 -154 -49t-44 -180t44 -180t154 -49q79 0 138 12l4 -18q-75 -17 -145 -17q-120 0 -170 57t-50 195zM196 -231l4 15q51 -2 82 24.5t31 65.5q0 28 -13 39t-46 12l3 14q39 2 59 -14t19 -51 q-1 -52 -39 -82.5t-100 -22.5z" />
<glyph unicode="&#xe8;" horiz-adv-x="527" d="M69 242q0 137 47 193.5t159 56.5q186 0 189 -136q2 -66 -22 -97.5t-81 -31.5h-267q3 -119 48 -167.5t144 -48.5q83 0 163 13l4 -18q-58 -18 -170 -18q-114 0 -164 58.5t-50 195.5zM94 249h267q43 0 61.5 26t16.5 79q-1 59 -41.5 87t-121.5 28q-99 0 -140 -49.5 t-42 -170.5zM149 695l18 17l149 -145l-14 -13z" />
<glyph unicode="&#xe9;" horiz-adv-x="527" d="M69 242q0 137 47 193.5t159 56.5q186 0 189 -136q2 -66 -22 -97.5t-81 -31.5h-267q3 -119 48 -167.5t144 -48.5q83 0 163 13l4 -18q-58 -18 -170 -18q-114 0 -164 58.5t-50 195.5zM94 249h267q43 0 61.5 26t16.5 79q-1 59 -41.5 87t-121.5 28q-99 0 -140 -49.5 t-42 -170.5zM229 567l149 145l18 -17l-153 -141z" />
<glyph unicode="&#xea;" horiz-adv-x="527" d="M69 242q0 137 47 193.5t159 56.5q186 0 189 -136q2 -66 -22 -97.5t-81 -31.5h-267q3 -119 48 -167.5t144 -48.5q83 0 163 13l4 -18q-58 -18 -170 -18q-114 0 -164 58.5t-50 195.5zM94 249h267q43 0 61.5 26t16.5 79q-1 59 -41.5 87t-121.5 28q-99 0 -140 -49.5 t-42 -170.5zM131 581l136 117h18l136 -117l-11 -12l-130 102h-8l-129 -102z" />
<glyph unicode="&#xeb;" horiz-adv-x="527" d="M69 242q0 137 47 193.5t159 56.5q186 0 189 -136q2 -66 -22 -97.5t-81 -31.5h-267q3 -119 48 -167.5t144 -48.5q83 0 163 13l4 -18q-58 -18 -170 -18q-114 0 -164 58.5t-50 195.5zM94 249h267q43 0 61.5 26t16.5 79q-1 59 -41.5 87t-121.5 28q-99 0 -140 -49.5 t-42 -170.5zM173 607v56q0 11 10 11h10q10 0 10 -11v-56q0 -11 -10 -11h-10q-10 0 -10 11zM350 607v56q0 11 10 11h10q10 0 10 -11v-56q0 -11 -10 -11h-10q-10 0 -10 11z" />
<glyph unicode="&#xec;" horiz-adv-x="220" d="M-19 695l18 17l149 -145l-14 -13zM98 0v480h24v-480h-24z" />
<glyph unicode="&#xed;" horiz-adv-x="220" d="M61 567l149 145l18 -17l-153 -141zM98 0v480h24v-480h-24z" />
<glyph unicode="&#xee;" horiz-adv-x="220" d="M-37 581l136 117h18l136 -117l-11 -12l-130 102h-8l-129 -102zM98 0v480h24v-480h-24z" />
<glyph unicode="&#xef;" horiz-adv-x="220" d="M5 607v56q0 11 10 11h10q10 0 10 -11v-56q0 -11 -10 -11h-10q-10 0 -10 11zM98 0v480h24v-480h-24zM182 607v56q0 11 10 11h10q10 0 10 -11v-56q0 -11 -10 -11h-10q-10 0 -10 11z" />
<glyph unicode="&#xf0;" horiz-adv-x="548" d="M70 221q0 225 199 225q83 0 167 -54q-23 149 -109 221l-93 -64l-11 17l87 60q-75 54 -194 54l6 18q124 2 207 -58l85 58l11 -17l-79 -55q121 -103 121 -347q0 -52 -3 -88t-14 -77.5t-31.5 -66.5t-58 -42t-90.5 -17q-103 0 -151.5 55.5t-48.5 177.5zM95 220 q0 -112 42.5 -161t132.5 -49q55 0 90.5 19t53 59t23.5 84.5t6 113.5q0 34 -4 84q-86 54 -175 54q-92 0 -130.5 -54t-38.5 -150z" />
<glyph unicode="&#xf1;" horiz-adv-x="570" d="M95 0v480h18l3 -88q126 100 234 100q129 0 129 -131v-361h-24v358q0 111 -110 111q-51 0 -101.5 -23t-124.5 -75v-371h-24zM148 595q-1 45 19 68.5t56 20.5q30 -2 70 -33.5t70 -34.5q31 -2 44.5 13t13.5 50h17q1 -43 -19 -65.5t-56 -19.5t-76.5 34.5t-63.5 33.5 q-30 3 -44 -13.5t-14 -53.5h-17z" />
<glyph unicode="&#xf2;" d="M70 240q0 139 47 195.5t163 56.5t163 -56.5t47 -195.5t-47 -195.5t-163 -56.5t-163 56.5t-47 195.5zM95 240q0 -129 41 -179t144 -50t144 50t41 179t-41 179t-144 50t-144 -50t-41 -179zM151 695l18 17l149 -145l-14 -13z" />
<glyph unicode="&#xf3;" d="M70 240q0 139 47 195.5t163 56.5t163 -56.5t47 -195.5t-47 -195.5t-163 -56.5t-163 56.5t-47 195.5zM95 240q0 -129 41 -179t144 -50t144 50t41 179t-41 179t-144 50t-144 -50t-41 -179zM231 567l149 145l18 -17l-153 -141z" />
<glyph unicode="&#xf4;" d="M70 240q0 139 47 195.5t163 56.5t163 -56.5t47 -195.5t-47 -195.5t-163 -56.5t-163 56.5t-47 195.5zM95 240q0 -129 41 -179t144 -50t144 50t41 179t-41 179t-144 50t-144 -50t-41 -179zM133 581l136 117h18l136 -117l-11 -12l-130 102h-8l-129 -102z" />
<glyph unicode="&#xf5;" d="M70 240q0 139 47 195.5t163 56.5t163 -56.5t47 -195.5t-47 -195.5t-163 -56.5t-163 56.5t-47 195.5zM95 240q0 -129 41 -179t144 -50t144 50t41 179t-41 179t-144 50t-144 -50t-41 -179zM134 595q-1 45 19 68.5t56 20.5q29 -2 70 -33.5t70 -34.5q31 -2 44.5 13t13.5 50 h17q1 -43 -19 -65.5t-56 -19.5t-76.5 34.5t-63.5 33.5q-30 3 -44 -13.5t-14 -53.5h-17z" />
<glyph unicode="&#xf6;" d="M70 240q0 139 47 195.5t163 56.5t163 -56.5t47 -195.5t-47 -195.5t-163 -56.5t-163 56.5t-47 195.5zM95 240q0 -129 41 -179t144 -50t144 50t41 179t-41 179t-144 50t-144 -50t-41 -179zM175 607v56q0 11 10 11h10q10 0 10 -11v-56q0 -11 -10 -11h-10q-10 0 -10 11z M352 607v56q0 11 10 11h10q10 0 10 -11v-56q0 -11 -10 -11h-10q-10 0 -10 11z" />
<glyph unicode="&#xf7;" horiz-adv-x="589" d="M86 285v22h417v-22h-417zM276 102v62q0 12 12 12h10q12 0 12 -12v-62q0 -12 -12 -12h-10q-12 0 -12 12zM276 428v62q0 12 12 12h10q12 0 12 -12v-62q0 -12 -12 -12h-10q-12 0 -12 12z" />
<glyph unicode="&#xf8;" d="M70 240q0 139 47 195.5t163 56.5q58 0 96 -13l28 60l19 -9l-27 -58q50 -24 72 -79t22 -153q0 -139 -47 -195.5t-163 -56.5q-61 0 -103 15l-30 -64l-19 9l30 64q-47 24 -67.5 79t-20.5 149zM95 240q0 -85 17 -134.5t56 -71.5l198 424q-33 11 -86 11q-103 0 -144 -50 t-41 -179zM187 25q35 -14 93 -14q103 0 144 50t41 179q0 88 -19 138t-61 72z" />
<glyph unicode="&#xf9;" d="M91 119v361h24v-358q0 -111 110 -111q49 0 97 23t119 75v371h24v-480h-18l-3 88q-120 -100 -224 -100q-129 0 -129 131zM152 695l18 17l149 -145l-14 -13z" />
<glyph unicode="&#xfa;" d="M91 119v361h24v-358q0 -111 110 -111q49 0 97 23t119 75v371h24v-480h-18l-3 88q-120 -100 -224 -100q-129 0 -129 131zM232 567l149 145l18 -17l-153 -141z" />
<glyph unicode="&#xfb;" d="M91 119v361h24v-358q0 -111 110 -111q49 0 97 23t119 75v371h24v-480h-18l-3 88q-120 -100 -224 -100q-129 0 -129 131zM134 581l136 117h18l136 -117l-11 -12l-130 102h-8l-129 -102z" />
<glyph unicode="&#xfc;" d="M91 119v361h24v-358q0 -111 110 -111q49 0 97 23t119 75v371h24v-480h-18l-3 88q-120 -100 -224 -100q-129 0 -129 131zM176 607v56q0 11 10 11h10q10 0 10 -11v-56q0 -11 -10 -11h-10q-10 0 -10 11zM353 607v56q0 11 10 11h10q10 0 10 -11v-56q0 -11 -10 -11h-10 q-10 0 -10 11z" />
<glyph unicode="&#xfd;" horiz-adv-x="506" d="M30 480h26q14 -33 83.5 -201t107.5 -257h13q28 68 60.5 145.5t70 167t60.5 145.5h26l-221 -527q-29 -68 -62.5 -107t-92.5 -56l-6 14q55 21 86 59.5t54 98.5l15 38h-10q-8 0 -13 8zM208 567l149 145l18 -17l-153 -141z" />
<glyph unicode="&#xfe;" horiz-adv-x="562" d="M95 -210v910h24v-204q0 -67 -3 -93q107 89 200 89q94 0 134 -57.5t40 -194.5t-40 -194.5t-134 -57.5q-89 0 -200 53q3 -25 3 -92v-159h-24zM119 59q120 -48 197 -48q81 0 115 52t34 177t-34 177t-115 52q-46 0 -91 -20t-106 -67v-323z" />
<glyph unicode="&#xff;" horiz-adv-x="506" d="M30 480h26q14 -33 83.5 -201t107.5 -257h13q28 68 60.5 145.5t70 167t60.5 145.5h26l-221 -527q-29 -68 -62.5 -107t-92.5 -56l-6 14q55 21 86 59.5t54 98.5l15 38h-10q-8 0 -13 8zM152 607v56q0 11 10 11h10q10 0 10 -11v-56q0 -11 -10 -11h-10q-10 0 -10 11zM329 607 v56q0 11 10 11h10q10 0 10 -11v-56q0 -11 -10 -11h-10q-10 0 -10 11z" />
<glyph unicode="&#x100;" horiz-adv-x="603" d="M19 0l248 681q3 9 13 9h43q10 0 13 -9l248 -681h-27l-91 252h-329l-91 -252h-27zM145 274h313q-10 27 -62 172t-80 222h-29q-28 -77 -80 -221.5t-62 -172.5zM172 804v23h260v-23h-260z" />
<glyph unicode="&#x101;" horiz-adv-x="538" d="M66 115v62q0 54 30 83.5t85 29.5h242v68q0 111 -110 111q-99 0 -225 -16l-3 18q149 21 229 21q133 0 133 -134v-358h-18l-5 93q-35 -36 -102 -67.5t-131 -31.5q-60 0 -92.5 31.5t-32.5 89.5zM91 115q0 -95 100 -97q55 -1 122 28.5t110 70.5v153l-242 -4q-90 -2 -90 -89 v-62zM137 622v23h260v-23h-260z" />
<glyph unicode="&#x102;" horiz-adv-x="603" d="M19 0l248 681q3 9 13 9h43q10 0 13 -9l248 -681h-27l-91 252h-329l-91 -252h-27zM145 274h313q-10 27 -62 172t-80 222h-29q-28 -77 -80 -221.5t-62 -172.5zM165 869l18 4q0 -45 32 -69.5t87 -24.5q54 0 85.5 25t31.5 69l18 -4q0 -53 -36.5 -83.5t-98.5 -30.5 q-63 0 -100 30.5t-37 83.5z" />
<glyph unicode="&#x103;" horiz-adv-x="538" d="M66 115v62q0 54 30 83.5t85 29.5h242v68q0 111 -110 111q-99 0 -225 -16l-3 18q149 21 229 21q133 0 133 -134v-358h-18l-5 93q-35 -36 -102 -67.5t-131 -31.5q-60 0 -92.5 31.5t-32.5 89.5zM91 115q0 -95 100 -97q55 -1 122 28.5t110 70.5v153l-242 -4q-90 -2 -90 -89 v-62zM130 687l18 4q0 -45 32 -69.5t87 -24.5q54 0 85.5 25t31.5 69l18 -4q0 -53 -36.5 -83.5t-98.5 -30.5q-63 0 -100 30.5t-37 83.5z" />
<glyph unicode="&#x104;" horiz-adv-x="603" d="M19 0l248 681q3 9 13 9h43q10 0 13 -9l248 -681q-65 -65 -87 -126q-16 -46 10 -61.5t83 5.5l3 -12q-76 -32 -106.5 -8t-11.5 78q22 63 89 124h-7l-91 252h-329l-91 -252h-27zM145 274h313q-10 27 -62 172t-80 222h-29q-28 -77 -80 -221.5t-62 -172.5z" />
<glyph unicode="&#x105;" horiz-adv-x="538" d="M66 115v62q0 54 30 83.5t85 29.5h242v68q0 111 -110 111q-99 0 -225 -16l-3 18q149 21 229 21q133 0 133 -134v-358q-65 -65 -87 -126q-16 -46 10 -61.5t83 5.5l3 -12q-76 -32 -106.5 -8t-11.5 78q22 63 91 126l-5 91q-35 -36 -102 -67.5t-131 -31.5q-60 0 -92.5 31.5 t-32.5 89.5zM91 115q0 -95 100 -97q55 -1 122 28.5t110 70.5v153l-242 -4q-90 -2 -90 -89v-62z" />
<glyph unicode="&#x106;" horiz-adv-x="561" d="M76 345q0 198 56.5 277.5t198.5 79.5q100 0 174 -17l-6 -18q-75 12 -168 12q-128 0 -178.5 -74t-50.5 -260t50.5 -260t178.5 -74q107 0 182 13l6 -18q-79 -18 -188 -18q-142 0 -198.5 79.5t-56.5 277.5zM274 749l149 145l18 -17l-153 -141z" />
<glyph unicode="&#x107;" horiz-adv-x="478" d="M69 240q0 138 49.5 195t169.5 57q80 0 135 -17l-6 -18q-47 12 -125 12q-110 0 -154 -49t-44 -180t44 -180t154 -49q79 0 138 12l4 -18q-75 -17 -145 -17q-120 0 -170 57t-50 195zM225 567l149 145l18 -17l-153 -141z" />
<glyph unicode="&#x10a;" horiz-adv-x="561" d="M76 345q0 198 56.5 277.5t198.5 79.5q100 0 174 -17l-6 -18q-75 12 -168 12q-128 0 -178.5 -74t-50.5 -260t50.5 -260t178.5 -74q107 0 182 13l6 -18q-79 -18 -188 -18q-142 0 -198.5 79.5t-56.5 277.5zM305 786v62q0 12 12 12h10q12 0 12 -12v-62q0 -12 -12 -12h-10 q-12 0 -12 12z" />
<glyph unicode="&#x10b;" horiz-adv-x="478" d="M69 240q0 138 49.5 195t169.5 57q80 0 135 -17l-6 -18q-47 12 -125 12q-110 0 -154 -49t-44 -180t44 -180t154 -49q79 0 138 12l4 -18q-75 -17 -145 -17q-120 0 -170 57t-50 195zM256 604v62q0 12 12 12h10q12 0 12 -12v-62q0 -12 -12 -12h-10q-12 0 -12 12z" />
<glyph unicode="&#x10c;" horiz-adv-x="561" d="M76 345q0 198 56.5 277.5t198.5 79.5q100 0 174 -17l-6 -18q-75 12 -168 12q-128 0 -178.5 -74t-50.5 -260t50.5 -260t178.5 -74q107 0 182 13l6 -18q-79 -18 -188 -18q-142 0 -198.5 79.5t-56.5 277.5zM177 868l13 12l129 -102h8l130 102l12 -12l-137 -117h-18z" />
<glyph unicode="&#x10d;" horiz-adv-x="478" d="M69 240q0 138 49.5 195t169.5 57q80 0 135 -17l-6 -18q-47 12 -125 12q-110 0 -154 -49t-44 -180t44 -180t154 -49q79 0 138 12l4 -18q-75 -17 -145 -17q-120 0 -170 57t-50 195zM128 686l13 12l129 -102h8l130 102l12 -12l-137 -117h-18z" />
<glyph unicode="&#x10e;" horiz-adv-x="659" d="M103 0v690q119 9 229 9q139 0 195 -79.5t56 -274.5t-56 -274.5t-195 -79.5q-108 0 -229 9zM128 17q180 -3 204 -3q125 0 175 73.5t50 257.5t-50 257.5t-175 73.5q-82 0 -204 -4v-655zM179 868l13 12l129 -102h8l130 102l12 -12l-137 -117h-18z" />
<glyph unicode="&#x10f;" horiz-adv-x="561" d="M71 240q0 137 40 194.5t134 57.5q85 0 200 -50q-3 26 -3 93v165h24v-700h-18l-4 84q-108 -96 -199 -96q-94 0 -134 57.5t-40 194.5zM96 240q0 -125 34 -177t115 -52q46 0 90.5 22t106.5 74v314q-120 48 -197 48q-81 0 -115 -52t-34 -177zM559 632v59q-1 10 10 10h7 q11 0 11 -10v-59q-2 -66 -16 -115l-10 4q3 56 3 102q-3 0 -4.5 3t-0.5 6z" />
<glyph unicode="&#x110;" horiz-adv-x="662" d="M26 361v20h80v309q119 9 229 9q139 0 195 -79.5t56 -274.5t-56 -274.5t-195 -79.5q-108 0 -229 9v361h-80zM131 17q180 -3 204 -3q125 0 175 73.5t50 257.5t-50 257.5t-175 73.5q-82 0 -204 -4v-291h183v-20h-183v-344z" />
<glyph unicode="&#x111;" horiz-adv-x="553" d="M71 240q0 137 40 194.5t134 57.5q85 0 200 -50q-3 26 -3 93v55h-177v20h177v90h24v-90h74v-20h-74v-590h-18l-4 84q-108 -96 -199 -96q-94 0 -134 57.5t-40 194.5zM96 240q0 -125 34 -177t115 -52q46 0 90.5 22t106.5 74v314q-120 48 -197 48q-81 0 -115 -52t-34 -177z " />
<glyph unicode="&#x112;" horiz-adv-x="551" d="M97 102v486q0 44 29 73t73 29q196 0 294 -4l-2 -18h-287q-36 0 -59 -23t-23 -59v-206h328v-21h-328v-255q0 -36 23 -59t59 -23h287l2 -18q-98 -4 -294 -4q-44 0 -73 29t-29 73zM180 829v23h260v-23h-260z" />
<glyph unicode="&#x113;" horiz-adv-x="527" d="M69 242q0 137 47 193.5t159 56.5q186 0 189 -136q2 -66 -22 -97.5t-81 -31.5h-267q3 -119 48 -167.5t144 -48.5q83 0 163 13l4 -18q-58 -18 -170 -18q-114 0 -164 58.5t-50 195.5zM94 249h267q43 0 61.5 26t16.5 79q-1 59 -41.5 87t-121.5 28q-99 0 -140 -49.5 t-42 -170.5zM147 622v23h260v-23h-260z" />
<glyph unicode="&#x116;" horiz-adv-x="551" d="M97 102v486q0 44 29 73t73 29q196 0 294 -4l-2 -18h-287q-36 0 -59 -23t-23 -59v-206h328v-21h-328v-255q0 -36 23 -59t59 -23h287l2 -18q-98 -4 -294 -4q-44 0 -73 29t-29 73zM293 811v62q0 12 12 12h10q12 0 12 -12v-62q0 -12 -12 -12h-10q-12 0 -12 12z" />
<glyph unicode="&#x117;" horiz-adv-x="527" d="M69 242q0 137 47 193.5t159 56.5q186 0 189 -136q2 -66 -22 -97.5t-81 -31.5h-267q3 -119 48 -167.5t144 -48.5q83 0 163 13l4 -18q-58 -18 -170 -18q-114 0 -164 58.5t-50 195.5zM94 249h267q43 0 61.5 26t16.5 79q-1 59 -41.5 87t-121.5 28q-99 0 -140 -49.5 t-42 -170.5zM260 604v62q0 12 12 12h10q12 0 12 -12v-62q0 -12 -12 -12h-10q-12 0 -12 12z" />
<glyph unicode="&#x118;" horiz-adv-x="551" d="M97 102v486q0 44 29 73t73 29q196 0 294 -4l-2 -18h-287q-36 0 -59 -23t-23 -59v-206h328v-21h-328v-255q0 -36 23 -59t59 -23h287l2 -18q-65 -65 -87 -126q-16 -46 10 -61.5t83 5.5l3 -12q-76 -32 -106.5 -8t-11.5 78q22 62 88 123q-91 -3 -273 -3q-44 0 -73 29t-29 73z " />
<glyph unicode="&#x119;" horiz-adv-x="527" d="M69 242q0 137 47 193.5t159 56.5q186 0 189 -136q2 -66 -22 -97.5t-81 -31.5h-267q3 -119 48 -167.5t144 -48.5q83 0 163 13l4 -18q-65 -65 -87 -126q-16 -46 10 -61.5t83 5.5l3 -12q-76 -32 -106.5 -8t-11.5 78q19 58 82 118q-69 -12 -143 -12q-114 0 -164 58.5 t-50 195.5zM94 249h267q43 0 61.5 26t16.5 79q-1 59 -41.5 87t-121.5 28q-99 0 -140 -49.5t-42 -170.5z" />
<glyph unicode="&#x11a;" horiz-adv-x="551" d="M97 102v486q0 44 29 73t73 29q196 0 294 -4l-2 -18h-287q-36 0 -59 -23t-23 -59v-206h328v-21h-328v-255q0 -36 23 -59t59 -23h287l2 -18q-98 -4 -294 -4q-44 0 -73 29t-29 73zM165 893l13 12l129 -102h8l130 102l12 -12l-137 -117h-18z" />
<glyph unicode="&#x11b;" horiz-adv-x="527" d="M69 242q0 137 47 193.5t159 56.5q186 0 189 -136q2 -66 -22 -97.5t-81 -31.5h-267q3 -119 48 -167.5t144 -48.5q83 0 163 13l4 -18q-58 -18 -170 -18q-114 0 -164 58.5t-50 195.5zM94 249h267q43 0 61.5 26t16.5 79q-1 59 -41.5 87t-121.5 28q-99 0 -140 -49.5 t-42 -170.5zM132 686l13 12l129 -102h8l130 102l12 -12l-137 -117h-18z" />
<glyph unicode="&#x11e;" horiz-adv-x="622" d="M76 345q0 198 57.5 277.5t200.5 79.5q112 0 196 -17l-6 -18q-84 12 -190 12q-130 0 -181 -74t-51 -260q0 -177 47 -255.5t157 -78.5q35 0 65 8t58.5 26t43.5 30t43 37v288h25v-400h-17l-6 89q-94 -101 -214 -101q-122 0 -175 84t-53 273zM187 869l18 4q0 -45 32 -69.5 t87 -24.5q54 0 85.5 25t31.5 69l18 -4q0 -53 -36.5 -83.5t-98.5 -30.5q-63 0 -100 30.5t-37 83.5z" />
<glyph unicode="&#x11f;" horiz-adv-x="545" d="M57 -74q0 54 13 84.5t52 51.5l24 13q-34 14 -46.5 42t-3.5 57.5t35 51.5q-54 34 -54 117q0 75 45.5 112t146.5 37q58 0 97 -12h150l-3 -18l-103 -3q49 -36 49 -116q0 -76 -44.5 -111.5t-145.5 -35.5q-78 0 -123 21q-23 -25 -29.5 -51.5t11.5 -48.5t60 -30l193 -34 q61 -11 82.5 -39.5t21.5 -87.5q0 -76 -48 -107t-163 -31q-120 0 -168.5 31t-48.5 107zM81 -74q0 -64 43.5 -89.5t149.5 -25.5q102 0 144.5 26t42.5 89q0 50 -17.5 73.5t-69.5 32.5l-199 35l-3 1l-34 -21q-35 -20 -46 -45.5t-11 -75.5zM101 343q0 -65 39 -95t129 -30t128 30 t38 95t-38 96t-128 31t-129 -31t-39 -96zM133 687l18 4q0 -45 32 -69.5t87 -24.5q54 0 85.5 25t31.5 69l18 -4q0 -53 -36.5 -83.5t-98.5 -30.5q-63 0 -100 30.5t-37 83.5z" />
<glyph unicode="&#x120;" horiz-adv-x="622" d="M76 345q0 198 57.5 277.5t200.5 79.5q112 0 196 -17l-6 -18q-84 12 -190 12q-130 0 -181 -74t-51 -260q0 -177 47 -255.5t157 -78.5q35 0 65 8t58.5 26t43.5 30t43 37v288h25v-400h-17l-6 89q-94 -101 -214 -101q-122 0 -175 84t-53 273zM307 786v62q0 12 12 12h10 q12 0 12 -12v-62q0 -12 -12 -12h-10q-12 0 -12 12z" />
<glyph unicode="&#x121;" horiz-adv-x="545" d="M57 -74q0 54 13 84.5t52 51.5l24 13q-34 14 -46.5 42t-3.5 57.5t35 51.5q-54 34 -54 117q0 75 45.5 112t146.5 37q58 0 97 -12h150l-3 -18l-103 -3q49 -36 49 -116q0 -76 -44.5 -111.5t-145.5 -35.5q-78 0 -123 21q-23 -25 -29.5 -51.5t11.5 -48.5t60 -30l193 -34 q61 -11 82.5 -39.5t21.5 -87.5q0 -76 -48 -107t-163 -31q-120 0 -168.5 31t-48.5 107zM81 -74q0 -64 43.5 -89.5t149.5 -25.5q102 0 144.5 26t42.5 89q0 50 -17.5 73.5t-69.5 32.5l-199 35l-3 1l-34 -21q-35 -20 -46 -45.5t-11 -75.5zM101 343q0 -65 39 -95t129 -30t128 30 t38 95t-38 96t-128 31t-129 -31t-39 -96zM253 604v62q0 12 12 12h10q12 0 12 -12v-62q0 -12 -12 -12h-10q-12 0 -12 12z" />
<glyph unicode="&#x122;" horiz-adv-x="622" d="M76 345q0 198 57.5 277.5t200.5 79.5q112 0 196 -17l-6 -18q-84 12 -190 12q-130 0 -181 -74t-51 -260q0 -177 47 -255.5t157 -78.5q35 0 65 8t58.5 26t43.5 30t43 37v288h25v-400h-17l-6 89q-94 -101 -214 -101q-122 0 -175 84t-53 273zM308 -76q-1 11 10 11h8 q11 0 11 -11v-58q-2 -66 -16 -115l-11 4q3 56 3 102q-3 0 -4.5 3t-0.5 6v58z" />
<glyph unicode="&#x123;" horiz-adv-x="545" d="M57 -74q0 54 13 84.5t52 51.5l24 13q-34 14 -46.5 42t-3.5 57.5t35 51.5q-54 34 -54 117q0 75 45.5 112t146.5 37q58 0 97 -12h150l-3 -18l-103 -3q49 -36 49 -116q0 -76 -44.5 -111.5t-145.5 -35.5q-78 0 -123 21q-23 -25 -29.5 -51.5t11.5 -48.5t60 -30l193 -34 q61 -11 82.5 -39.5t21.5 -87.5q0 -76 -48 -107t-163 -31q-120 0 -168.5 31t-48.5 107zM81 -74q0 -64 43.5 -89.5t149.5 -25.5q102 0 144.5 26t42.5 89q0 50 -17.5 73.5t-69.5 32.5l-199 35l-3 1l-34 -21q-35 -20 -46 -45.5t-11 -75.5zM101 343q0 -65 39 -95t129 -30t128 30 t38 95t-38 96t-128 31t-129 -31t-39 -96zM259 577v58q2 66 16 115l11 -4q-3 -56 -3 -102q3 0 4.5 -3t0.5 -6v-58q1 -11 -10 -11h-8q-11 0 -11 11z" />
<glyph unicode="&#x126;" horiz-adv-x="665" d="M27 525v20h80v145h25v-145h401v145h25v-145h80v-20h-80v-525h-25v359h-401v-359h-25v525h-80zM132 381h401v144h-401v-144z" />
<glyph unicode="&#x127;" horiz-adv-x="573" d="M13 590v20h85v90h25v-90h165v-20h-164v-105q0 -59 -5 -93q134 100 234 100q129 0 129 -131v-361h-24v358q0 111 -110 111q-51 0 -101.5 -23t-124.5 -75v-371h-24v590h-85z" />
<glyph unicode="&#x12a;" horiz-adv-x="231" d="M-15 804v23h260v-23h-260zM103 0v690h25v-690h-25z" />
<glyph unicode="&#x12b;" horiz-adv-x="220" d="M-21 622v23h260v-23h-260zM98 0v480h24v-480h-24z" />
<glyph unicode="&#x12e;" horiz-adv-x="231" d="M19 -124q22 63 89 124h-5v690h25v-690q-65 -65 -87 -126q-16 -46 10 -61.5t83 5.5l3 -12q-76 -32 -106.5 -8t-11.5 78z" />
<glyph unicode="&#x12f;" horiz-adv-x="220" d="M13 -124q22 63 89 124h-4v480h24v-480q-65 -65 -87 -126q-16 -46 10 -61.5t83 5.5l3 -12q-76 -32 -106.5 -8t-11.5 78zM92 604v62q0 12 12 12h10q12 0 12 -12v-62q0 -12 -12 -12h-10q-12 0 -12 12z" />
<glyph unicode="&#x130;" horiz-adv-x="231" d="M98 786v62q0 12 12 12h10q12 0 12 -12v-62q0 -12 -12 -12h-10q-12 0 -12 12zM103 0v690h25v-690h-25z" />
<glyph unicode="&#x131;" horiz-adv-x="220" d="M98 0v480h24v-480h-24z" />
<glyph unicode="&#x132;" horiz-adv-x="555" d="M103 0v690h25v-690h-25zM269 0l3 16h58q100 0 100 100v574h25v-575q0 -122 -122 -121q-28 0 -64 6z" />
<glyph unicode="&#x133;" horiz-adv-x="440" d="M93 605v62q0 12 12 12h10q12 0 12 -12v-62q0 -12 -12 -12h-10q-12 0 -12 12zM98 0v480h24v-480h-24zM263 -200q55 73 55 154v526h24v-526q0 -90 -66 -164zM313 605v62q0 12 12 12h10q12 0 12 -12v-62q0 -12 -12 -12h-10q-12 0 -12 12z" />
<glyph unicode="&#x136;" horiz-adv-x="562" d="M103 0v690h24v-236q0 -23 -2 -83h114l243 319h30l-231 -305q-11 -15 -22 -24v-2q18 -18 22 -23l248 -336h-30l-260 349h-114q2 -31 2 -86v-263h-24zM291 -76q-1 11 10 11h8q11 0 11 -11v-58q-2 -66 -16 -115l-11 4q3 56 3 102q-3 0 -4.5 3t-0.5 6v58z" />
<glyph unicode="&#x137;" horiz-adv-x="473" d="M94 0v700h26v-332q0 -43 -4 -82h83l193 194h32l-181 -185q-14 -14 -23 -20v-2q17 -17 23 -25l197 -248h-31l-210 264h-83q2 -31 2 -87v-177h-24zM246 -76q-1 11 10 11h8q11 0 11 -11v-58q-2 -66 -16 -115l-11 4q3 56 3 102q-3 0 -4.5 3t-0.5 6v58z" />
<glyph unicode="&#x139;" horiz-adv-x="507" d="M65 749l149 145l18 -17l-153 -141zM100 102v588h25v-586q0 -36 23 -59t59 -23h272v-18q-92 -4 -277 -4q-44 0 -73 29t-29 73z" />
<glyph unicode="&#x13a;" horiz-adv-x="270" d="M60 772l149 145l18 -17l-153 -141zM95 95v605h24v-604q0 -39 21 -59.5t59 -20.5h58l3 -16q-20 -6 -64 -6q-46 0 -73.5 26.5t-27.5 74.5z" />
<glyph unicode="&#x13b;" horiz-adv-x="507" d="M100 102v588h25v-586q0 -36 23 -59t59 -23h272v-18q-92 -4 -277 -4q-44 0 -73 29t-29 73zM287 -86q-1 11 10 11h8q11 0 11 -11v-58q-2 -66 -16 -115l-11 4q3 55 3 102q-3 0 -4.5 3t-0.5 6v58z" />
<glyph unicode="&#x13c;" horiz-adv-x="270" d="M95 95v605h24v-604q0 -39 21 -59.5t59 -20.5h58l3 -16q-20 -6 -64 -6q-46 0 -73.5 26.5t-27.5 74.5zM152 -86q-1 11 10 11h8q11 0 11 -11v-58q-2 -66 -16 -115l-11 4q3 56 3 102q-3 0 -4.5 3t-0.5 6v58z" />
<glyph unicode="&#x13d;" horiz-adv-x="507" d="M100 102v588h25v-586q0 -36 23 -59t59 -23h272v-18q-92 -4 -277 -4q-44 0 -73 29t-29 73zM275 621v58q-1 11 10 11h8q11 0 11 -11v-58q-2 -66 -16 -115l-11 4q3 56 3 102q-3 0 -4.5 3t-0.5 6z" />
<glyph unicode="&#x13e;" horiz-adv-x="270" d="M95 95v605h24v-604q0 -39 21 -59.5t59 -20.5h58l3 -16q-20 -6 -64 -6q-46 0 -73.5 26.5t-27.5 74.5zM214 632v59q-1 10 10 10h7q11 0 11 -10v-59q-2 -66 -16 -115l-10 4q3 55 3 102q-3 0 -4.5 3t-0.5 6z" />
<glyph unicode="&#x13f;" horiz-adv-x="507" d="M100 102v588h25v-586q0 -36 23 -59t59 -23h272v-18q-92 -4 -277 -4q-44 0 -73 29t-29 73zM351 343v62q0 12 12 12h10q12 0 12 -12v-62q0 -12 -12 -12h-10q-12 0 -12 12z" />
<glyph unicode="&#x140;" horiz-adv-x="299" d="M95 95v605h24v-604q0 -39 21 -59.5t59 -20.5h58l3 -16q-20 -6 -64 -6q-46 0 -73.5 26.5t-27.5 74.5zM230 359v62q0 12 12 12h10q12 0 12 -12v-62q0 -12 -12 -12h-10q-12 0 -12 12z" />
<glyph unicode="&#x141;" horiz-adv-x="511" d="M27 323v21l77 34v312h25v-301l129 57v-21l-129 -57v-264q0 -36 23 -59t59 -23h272v-18q-92 -4 -277 -4q-44 0 -73 29t-29 73v255z" />
<glyph unicode="&#x142;" horiz-adv-x="302" d="M31 324v21l88 39v316h24v-306l119 53v-21l-119 -53v-277q0 -39 21 -59.5t59 -20.5h58l3 -16q-20 -6 -64 -6q-46 0 -73.5 26.5t-27.5 74.5v268z" />
<glyph unicode="&#x143;" horiz-adv-x="688" d="M103 0v675q0 15 15 15h39q13 0 18 -11q22 -41 154.5 -284.5t202.5 -372.5h28v668h25v-675q0 -15 -15 -15h-42q-12 0 -18 11l-320 589q-6 11 -18.5 34t-18.5 34h-25v-668h-25zM310 749l149 145l18 -17l-153 -141z" />
<glyph unicode="&#x144;" horiz-adv-x="570" d="M95 0v480h18l3 -88q126 100 234 100q129 0 129 -131v-361h-24v358q0 111 -110 111q-51 0 -101.5 -23t-124.5 -75v-371h-24zM245 567l149 145l18 -17l-153 -141z" />
<glyph unicode="&#x145;" horiz-adv-x="688" d="M103 0v675q0 15 15 15h39q13 0 18 -11q22 -41 154.5 -284.5t202.5 -372.5h28v668h25v-675q0 -15 -15 -15h-42q-12 0 -18 11l-320 589q-6 11 -18.5 34t-18.5 34h-25v-668h-25zM316 -76q-1 11 10 11h8q11 0 11 -11v-58q-2 -66 -16 -115l-11 4q3 56 3 102q-3 0 -4.5 3 t-0.5 6v58z" />
<glyph unicode="&#x146;" horiz-adv-x="570" d="M95 0v480h18l3 -88q126 100 234 100q129 0 129 -131v-361h-24v358q0 111 -110 111q-51 0 -101.5 -23t-124.5 -75v-371h-24zM276 -76q-1 11 10 11h8q11 0 11 -11v-58q-2 -66 -16 -115l-11 4q3 56 3 102q-3 0 -4.5 3t-0.5 6v58z" />
<glyph unicode="&#x147;" horiz-adv-x="688" d="M103 0v675q0 15 15 15h39q13 0 18 -11q22 -41 154.5 -284.5t202.5 -372.5h28v668h25v-675q0 -15 -15 -15h-42q-12 0 -18 11l-320 589q-6 11 -18.5 34t-18.5 34h-25v-668h-25zM213 868l13 12l129 -102h8l130 102l12 -12l-137 -117h-18z" />
<glyph unicode="&#x148;" horiz-adv-x="570" d="M95 0v480h18l3 -88q126 100 234 100q129 0 129 -131v-361h-24v358q0 111 -110 111q-51 0 -101.5 -23t-124.5 -75v-371h-24zM148 686l13 12l129 -102h8l130 102l12 -12l-137 -117h-18z" />
<glyph unicode="&#x14a;" horiz-adv-x="688" d="M103 0v675q0 15 15 15h39q13 0 18 -11q22 -41 154.5 -284.5t202.5 -372.5h28v668h25v-791q0 -122 -122 -121q-28 0 -64 6l3 16h58q100 0 100 100v100h-32q-12 0 -18 11l-320 589q-6 11 -18.5 34t-18.5 34h-25v-668h-25z" />
<glyph unicode="&#x14b;" horiz-adv-x="570" d="M95 0v480h18l3 -88q126 100 234 100q129 0 129 -131v-450q0 -61 -27.5 -91.5t-83.5 -29.5q-4 0 -54 6l3 16h48q90 0 90 100v446q0 111 -110 111q-51 0 -101.5 -23t-124.5 -75v-371h-24z" />
<glyph unicode="&#x14c;" horiz-adv-x="662" d="M76 345q0 198 56.5 277.5t198.5 79.5t198.5 -79.5t56.5 -277.5t-56.5 -277.5t-198.5 -79.5t-198.5 79.5t-56.5 277.5zM102 345q0 -186 50.5 -260t178.5 -74t178.5 74t50.5 260t-50.5 260t-178.5 74t-178.5 -74t-50.5 -260zM202 804v23h260v-23h-260z" />
<glyph unicode="&#x14d;" d="M70 240q0 139 47 195.5t163 56.5t163 -56.5t47 -195.5t-47 -195.5t-163 -56.5t-163 56.5t-47 195.5zM95 240q0 -129 41 -179t144 -50t144 50t41 179t-41 179t-144 50t-144 -50t-41 -179zM149 622v23h260v-23h-260z" />
<glyph unicode="&#x150;" horiz-adv-x="662" d="M76 345q0 198 56.5 277.5t198.5 79.5t198.5 -79.5t56.5 -277.5t-56.5 -277.5t-198.5 -79.5t-198.5 79.5t-56.5 277.5zM102 345q0 -186 50.5 -260t178.5 -74t178.5 74t50.5 260t-50.5 260t-178.5 74t-178.5 -74t-50.5 -260zM235 744l111 157l22 -15l-117 -152zM375 744 l111 157l22 -15l-117 -152z" />
<glyph unicode="&#x151;" d="M70 240q0 139 47 195.5t163 56.5t163 -56.5t47 -195.5t-47 -195.5t-163 -56.5t-163 56.5t-47 195.5zM95 240q0 -129 41 -179t144 -50t144 50t41 179t-41 179t-144 50t-144 -50t-41 -179zM182 562l111 157l22 -15l-117 -152zM322 562l111 157l22 -15l-117 -152z" />
<glyph unicode="&#x152;" horiz-adv-x="889" d="M76 345q0 198 56.5 277.5t198.5 79.5q51 0 84 -7t77 -26q27 21 65 21q182 0 274 -4v-18h-269q-36 0 -59 -23t-23 -59v-206h308v-21h-308v-255q0 -36 23 -59t59 -23h269v-18q-92 -4 -274 -4q-36 0 -65 21q-74 -33 -161 -33q-142 0 -198.5 79.5t-56.5 277.5zM102 345 q0 -186 50.5 -260t178.5 -74q77 0 144 28q-20 26 -20 63v486q0 37 20 63q-67 28 -144 28q-128 0 -178.5 -73t-50.5 -261z" />
<glyph unicode="&#x153;" horiz-adv-x="922" d="M70 240q0 139 47 195.5t163 56.5q86 0 133 -30t65 -99q18 69 64 99t129 30q186 0 189 -136q1 -71 -31.5 -100t-111.5 -29h-227q3 -119 48 -167.5t144 -48.5q83 0 163 13l4 -18q-58 -18 -170 -18q-85 0 -133.5 31.5t-67.5 100.5q-17 -71 -64 -101.5t-134 -30.5 q-116 0 -163 56.5t-47 195.5zM95 240q0 -129 41 -179t144 -50t144 50t41 179t-41 179t-144 50t-144 -50t-41 -179zM490 249h227q66 0 92.5 23.5t25.5 81.5q-3 115 -163 115q-99 0 -140 -49.5t-42 -170.5z" />
<glyph unicode="&#x154;" horiz-adv-x="607" d="M103 0v690q80 8 221 8q112 0 155.5 -40.5t43.5 -153.5q0 -92 -29.5 -133t-97.5 -51v-4q48 -15 76 -95l76 -221h-28l-74 218q-32 92 -113 92q-137 0 -205 4v-314h-25zM128 333h196q97 2 135 37.5t38 133.5q0 100 -38 135.5t-135 35.5q-128 0 -196 -2v-340zM255 749 l149 145l18 -17l-153 -141z" />
<glyph unicode="&#x155;" horiz-adv-x="383" d="M95 0v480h18l3 -88q127 100 225 100h19l-5 -23h-17q-49 0 -97.5 -23t-121.5 -75v-371h-24zM173 567l149 145l18 -17l-153 -141z" />
<glyph unicode="&#x156;" horiz-adv-x="607" d="M103 0v690q80 8 221 8q112 0 155.5 -40.5t43.5 -153.5q0 -92 -29.5 -133t-97.5 -51v-4q48 -15 76 -95l76 -221h-28l-74 218q-32 92 -113 92q-137 0 -205 4v-314h-25zM128 333h196q97 2 135 37.5t38 133.5q0 100 -38 135.5t-135 35.5q-128 0 -196 -2v-340zM314 -76 q-1 11 10 11h8q11 0 11 -11v-58q-2 -66 -16 -115l-11 4q3 56 3 102q-3 0 -4.5 3t-0.5 6v58z" />
<glyph unicode="&#x157;" horiz-adv-x="383" d="M87 -76q-1 11 10 11h8q11 0 11 -11v-58q-2 -66 -16 -115l-11 4q3 56 3 102q-3 0 -4.5 3t-0.5 6v58zM95 0v480h18l3 -88q127 100 225 100h19l-5 -23h-17q-49 0 -97.5 -23t-121.5 -75v-371h-24z" />
<glyph unicode="&#x158;" horiz-adv-x="607" d="M103 0v690q80 8 221 8q112 0 155.5 -40.5t43.5 -153.5q0 -92 -29.5 -133t-97.5 -51v-4q48 -15 76 -95l76 -221h-28l-74 218q-32 92 -113 92q-137 0 -205 4v-314h-25zM128 333h196q97 2 135 37.5t38 133.5q0 100 -38 135.5t-135 35.5q-128 0 -196 -2v-340zM158 868l13 12 l129 -102h8l130 102l12 -12l-137 -117h-18z" />
<glyph unicode="&#x159;" horiz-adv-x="383" d="M76 686l13 12l129 -102h8l130 102l12 -12l-137 -117h-18zM95 0v480h18l3 -88q127 100 225 100h19l-5 -23h-17q-49 0 -97.5 -23t-121.5 -75v-371h-24z" />
<glyph unicode="&#x15a;" horiz-adv-x="554" d="M66 524q0 61 11.5 97.5t41 54t62.5 22t93 3.5q97 -2 187 -12l-3 -19q-120 8 -184 8q-39 0 -58.5 -1t-45 -5.5t-37 -14t-23 -26.5t-15.5 -43t-4 -64q0 -76 25 -110.5t84 -42.5l153 -21q76 -9 107.5 -50t31.5 -131q0 -48 -9.5 -81.5t-25 -53t-44 -29.5t-57 -13t-74.5 -3 q-110 0 -204 11l3 19q104 -8 202 -7q55 1 86 6t55 21.5t33.5 47.5t9.5 82q0 81 -25.5 115t-88.5 42l-153 21q-72 8 -103 50t-31 127zM232 749l149 145l18 -17l-153 -141z" />
<glyph unicode="&#x15b;" horiz-adv-x="499" d="M62 365q0 84 39 106.5t138 20.5t186 -12l-3 -18q-96 7 -183 8q-38 1 -58 0t-41.5 -6t-31 -16.5t-16 -31.5t-6.5 -51q0 -51 20 -73.5t60 -27.5l162 -20q109 -14 109 -122q0 -45 -11.5 -72t-38.5 -40t-57 -17t-82 -4q-94 0 -174 11l3 18q87 -8 172 -7q96 2 130 22t34 89 q0 88 -85 99l-162 20q-52 6 -78 35t-26 89zM205 567l149 145l18 -17l-153 -141z" />
<glyph unicode="&#x15e;" horiz-adv-x="554" d="M66 524q0 61 11.5 97.5t41 54t62.5 22t93 3.5q97 -2 187 -12l-3 -19q-120 8 -184 8q-39 0 -58.5 -1t-45 -5.5t-37 -14t-23 -26.5t-15.5 -43t-4 -64q0 -76 25 -110.5t84 -42.5l153 -21q76 -9 107.5 -50t31.5 -131q0 -48 -9.5 -81.5t-25 -53t-44 -29.5t-57 -13t-74.5 -3 q-110 0 -204 11l3 19q104 -8 202 -7q55 1 86 6t55 21.5t33.5 47.5t9.5 82q0 81 -25.5 115t-88.5 42l-153 21q-72 8 -103 50t-31 127zM192 -230l4 15q51 -2 82 24.5t31 65.5q0 28 -13 39t-46 12l3 14q39 2 59 -14t19 -51q-1 -52 -39 -82.5t-100 -22.5z" />
<glyph unicode="&#x15f;" horiz-adv-x="499" d="M62 365q0 84 39 106.5t138 20.5t186 -12l-3 -18q-96 7 -183 8q-38 1 -58 0t-41.5 -6t-31 -16.5t-16 -31.5t-6.5 -51q0 -51 20 -73.5t60 -27.5l162 -20q109 -14 109 -122q0 -45 -11.5 -72t-38.5 -40t-57 -17t-82 -4q-94 0 -174 11l3 18q87 -8 172 -7q96 2 130 22t34 89 q0 88 -85 99l-162 20q-52 6 -78 35t-26 89zM158 -230l4 15q51 -2 82 24.5t31 65.5q0 28 -13 39t-46 12l3 14q39 2 59 -14t19 -51q-1 -52 -39 -82.5t-100 -22.5z" />
<glyph unicode="&#x160;" horiz-adv-x="554" d="M66 524q0 61 11.5 97.5t41 54t62.5 22t93 3.5q97 -2 187 -12l-3 -19q-120 8 -184 8q-39 0 -58.5 -1t-45 -5.5t-37 -14t-23 -26.5t-15.5 -43t-4 -64q0 -76 25 -110.5t84 -42.5l153 -21q76 -9 107.5 -50t31.5 -131q0 -48 -9.5 -81.5t-25 -53t-44 -29.5t-57 -13t-74.5 -3 q-110 0 -204 11l3 19q104 -8 202 -7q55 1 86 6t55 21.5t33.5 47.5t9.5 82q0 81 -25.5 115t-88.5 42l-153 21q-72 8 -103 50t-31 127zM135 868l13 12l129 -102h8l130 102l12 -12l-137 -117h-18z" />
<glyph unicode="&#x161;" horiz-adv-x="499" d="M62 365q0 84 39 106.5t138 20.5t186 -12l-3 -18q-96 7 -183 8q-38 1 -58 0t-41.5 -6t-31 -16.5t-16 -31.5t-6.5 -51q0 -51 20 -73.5t60 -27.5l162 -20q109 -14 109 -122q0 -45 -11.5 -72t-38.5 -40t-57 -17t-82 -4q-94 0 -174 11l3 18q87 -8 172 -7q96 2 130 22t34 89 q0 88 -85 99l-162 20q-52 6 -78 35t-26 89zM108 686l13 12l129 -102h8l130 102l12 -12l-137 -117h-18z" />
<glyph unicode="&#x162;" horiz-adv-x="564" d="M27 668v22h510v-22h-243v-668h-25v668h-242zM192 -219l4 15q51 -2 82 24.5t31 65.5q0 28 -13 39t-46 12l3 14q39 2 59 -14t19 -51q-1 -52 -39 -82.5t-100 -22.5z" />
<glyph unicode="&#x163;" horiz-adv-x="347" d="M34 458v17l87 5v151h24v-151h178v-22h-178v-362q0 -80 80 -80h88l3 -16q-40 -6 -85 -6q-110 0 -110 101v363h-87zM111 -225l4 15q51 -2 82 24.5t31 65.5q0 28 -13 39t-46 12l3 14q39 2 59 -14t19 -51q-1 -52 -39 -82.5t-100 -22.5z" />
<glyph unicode="&#x164;" horiz-adv-x="564" d="M27 668v22h510v-22h-243v-668h-25v668h-242zM138 868l13 12l129 -102h8l130 102l12 -12l-137 -117h-18z" />
<glyph unicode="&#x165;" horiz-adv-x="347" d="M34 458v17l87 5v151h24v-151h178v-22h-178v-362q0 -80 80 -80h88l3 -16q-40 -6 -85 -6q-110 0 -110 101v363h-87zM254 677v58q-1 11 10 11h8q11 0 11 -11v-58q-2 -66 -16 -115l-11 4q3 55 3 102q-3 0 -4.5 3t-0.5 6z" />
<glyph unicode="&#x166;" horiz-adv-x="564" d="M27 668v22h510v-22h-243v-243h149v-20h-149v-405h-25v405h-155v20h155v243h-242z" />
<glyph unicode="&#x167;" horiz-adv-x="347" d="M34 458v17l87 5v151h24v-151h178v-22h-178v-118h157v-20h-157v-224q0 -80 80 -80h88l3 -16q-40 -6 -85 -6q-110 0 -110 101v225h-74v20h74v118h-87z" />
<glyph unicode="&#x16a;" horiz-adv-x="667" d="M98 255v435h25v-435q0 -134 47.5 -189t163.5 -55q115 0 162.5 55t47.5 189v435h25v-435q0 -145 -53.5 -206t-181.5 -61q-129 0 -182.5 61t-53.5 206zM205 804v23h260v-23h-260z" />
<glyph unicode="&#x16b;" d="M91 119v361h24v-358q0 -111 110 -111q49 0 97 23t119 75v371h24v-480h-18l-3 88q-120 -100 -224 -100q-129 0 -129 131zM150 622v23h260v-23h-260z" />
<glyph unicode="&#x16e;" horiz-adv-x="667" d="M98 255v435h25v-435q0 -134 47.5 -189t163.5 -55q115 0 162.5 55t47.5 189v435h25v-435q0 -145 -53.5 -206t-181.5 -61q-129 0 -182.5 61t-53.5 206zM239 814q0 39 28 67t68 28t68 -28t28 -67q0 -40 -28 -67.5t-68 -27.5t-68 27.5t-28 67.5zM260 814q0 -33 21.5 -54.5 t53.5 -21.5t53.5 21.5t21.5 54.5q0 32 -21.5 54t-53.5 22t-53.5 -22t-21.5 -54z" />
<glyph unicode="&#x16f;" d="M91 119v361h24v-358q0 -111 110 -111q49 0 97 23t119 75v371h24v-480h-18l-3 88q-120 -100 -224 -100q-129 0 -129 131zM184 632q0 39 28 67t68 28t68 -28t28 -67q0 -40 -28 -67.5t-68 -27.5t-68 27.5t-28 67.5zM205 632q0 -33 21.5 -54.5t53.5 -21.5t53.5 21.5 t21.5 54.5q0 32 -21.5 54t-53.5 22t-53.5 -22t-21.5 -54z" />
<glyph unicode="&#x170;" horiz-adv-x="667" d="M98 255v435h25v-435q0 -134 47.5 -189t163.5 -55q115 0 162.5 55t47.5 189v435h25v-435q0 -145 -53.5 -206t-181.5 -61q-129 0 -182.5 61t-53.5 206zM238 744l111 157l22 -15l-117 -152zM378 744l111 157l22 -15l-117 -152z" />
<glyph unicode="&#x171;" d="M91 119v361h24v-358q0 -111 110 -111q49 0 97 23t119 75v371h24v-480h-18l-3 88q-120 -100 -224 -100q-129 0 -129 131zM183 562l111 157l22 -15l-117 -152zM323 562l111 157l22 -15l-117 -152z" />
<glyph unicode="&#x172;" horiz-adv-x="667" d="M98 255v435h25v-435q0 -134 47.5 -189t163.5 -55q115 0 162.5 55t47.5 189v435h25v-435q0 -134 -45.5 -196t-151.5 -70q-62 -62 -85 -124q-16 -46 10 -61.5t83 5.5l3 -12q-76 -32 -106.5 -8t-11.5 78q22 62 86 121h-17q-129 0 -182.5 61t-53.5 206z" />
<glyph unicode="&#x173;" d="M91 119v361h24v-358q0 -111 110 -111q49 0 97 23t119 75v371h24v-480q-65 -65 -87 -126q-16 -46 10 -61.5t83 5.5l3 -12q-76 -32 -106.5 -8t-11.5 78q22 63 91 126l-3 86q-120 -100 -224 -100q-129 0 -129 131z" />
<glyph unicode="&#x174;" horiz-adv-x="930" d="M33 690h26q14 -51 79 -294t99 -374h28q32 128 92.5 365.5t74.5 291.5q3 11 14 11h38q11 0 14 -11l150 -588q3 -12 8.5 -35t8.5 -34h28q35 130 99 371.5t79 296.5h26l-183 -680q-3 -10 -14 -10h-42q-11 0 -14 11q-12 46 -73 287.5t-94 369.5h-24q-33 -128 -93.5 -367.5 t-73.5 -289.5q-3 -11 -14 -11h-42q-11 0 -14 10zM320 763l136 117h18l136 -117l-11 -12l-130 102h-8l-129 -102z" />
<glyph unicode="&#x175;" horiz-adv-x="812" d="M34 480h26l138 -394q4 -10 11 -31.5t11 -32.5h14q21 66 46 142.5t54 164.5t47 142q4 9 13 9h24q9 0 13 -9q18 -54 47 -142t54 -164.5t46 -142.5h14q4 11 11 32.5t11 32.5l138 393h26l-167 -471q-3 -9 -13 -9h-26q-9 0 -13 9l-125 377q-4 12 -11.5 36t-11.5 36h-10 q-29 -88 -84 -255t-64 -194q-4 -9 -13 -9h-26q-10 0 -13 9zM260 581l136 117h18l136 -117l-11 -12l-130 102h-8l-129 -102z" />
<glyph unicode="&#x176;" horiz-adv-x="541" d="M22 690h28l180 -333q26 -48 38 -68h5q4 7 17.5 31t19.5 36l180 334h28l-235 -433v-257h-25v257zM125 763l136 117h18l136 -117l-11 -12l-130 102h-8l-129 -102z" />
<glyph unicode="&#x177;" horiz-adv-x="506" d="M30 480h26q14 -33 83.5 -201t107.5 -257h13q28 68 60.5 145.5t70 167t60.5 145.5h26l-221 -527q-29 -68 -62.5 -107t-92.5 -56l-6 14q55 21 86 59.5t54 98.5l15 38h-10q-8 0 -13 8zM110 581l136 117h18l136 -117l-11 -12l-130 102h-8l-129 -102z" />
<glyph unicode="&#x178;" horiz-adv-x="541" d="M22 690h28l180 -333q26 -48 38 -68h5q4 7 17.5 31t19.5 36l180 334h28l-235 -433v-257h-25v257zM167 789v56q0 11 10 11h10q10 0 10 -11v-56q0 -11 -10 -11h-10q-10 0 -10 11zM344 789v56q0 11 10 11h10q10 0 10 -11v-56q0 -11 -10 -11h-10q-10 0 -10 11z" />
<glyph unicode="&#x179;" horiz-adv-x="558" d="M52 0v23l421 644h-418v23h447v-23l-421 -644h426v-23h-455zM231 749l149 145l18 -17l-153 -141z" />
<glyph unicode="&#x17a;" horiz-adv-x="499" d="M53 0v22l359 436h-356v22h387v-22l-359 -436h362v-22h-393zM199 567l149 145l18 -17l-153 -141z" />
<glyph unicode="&#x17b;" horiz-adv-x="558" d="M52 0v23l421 644h-418v23h447v-23l-421 -644h426v-23h-455zM262 786v62q0 12 12 12h10q12 0 12 -12v-62q0 -12 -12 -12h-10q-12 0 -12 12z" />
<glyph unicode="&#x17c;" horiz-adv-x="499" d="M53 0v22l359 436h-356v22h387v-22l-359 -436h362v-22h-393zM230 604v62q0 12 12 12h10q12 0 12 -12v-62q0 -12 -12 -12h-10q-12 0 -12 12z" />
<glyph unicode="&#x17d;" horiz-adv-x="558" d="M52 0v23l421 644h-418v23h447v-23l-421 -644h426v-23h-455zM134 868l13 12l129 -102h8l130 102l12 -12l-137 -117h-18z" />
<glyph unicode="&#x17e;" horiz-adv-x="499" d="M53 0v22l359 436h-356v22h387v-22l-359 -436h362v-22h-393zM102 686l13 12l129 -102h8l130 102l12 -12l-137 -117h-18z" />
<glyph unicode="&#x192;" horiz-adv-x="404" d="M-62 -126l1 18h70q55 0 79 24.5t30 86.5l34 359h-95l2 18l96 5l17 181q6 68 38 100.5t99 32.5q49 0 77 -4l-1 -18h-70q-60 0 -86.5 -24.5t-32.5 -86.5l-17 -181h167l-3 -23h-167l-34 -359q-6 -68 -35.5 -100.5t-91.5 -32.5q-49 0 -77 4z" />
<glyph unicode="&#x218;" horiz-adv-x="554" d="M66 524q0 61 11.5 97.5t41 54t62.5 22t93 3.5q97 -2 187 -12l-3 -19q-120 8 -184 8q-39 0 -58.5 -1t-45 -5.5t-37 -14t-23 -26.5t-15.5 -43t-4 -64q0 -76 25 -110.5t84 -42.5l153 -21q76 -9 107.5 -50t31.5 -131q0 -48 -9.5 -81.5t-25 -53t-44 -29.5t-57 -13t-74.5 -3 q-110 0 -204 11l3 19q104 -8 202 -7q55 1 86 6t55 21.5t33.5 47.5t9.5 82q0 81 -25.5 115t-88.5 42l-153 21q-72 8 -103 50t-31 127zM278 -76q-1 11 10 11h8q11 0 11 -11v-58q-2 -66 -16 -115l-11 4q3 56 3 102q-3 0 -4.5 3t-0.5 6v58z" />
<glyph unicode="&#x219;" horiz-adv-x="499" d="M62 365q0 84 39 106.5t138 20.5t186 -12l-3 -18q-96 7 -183 8q-38 1 -58 0t-41.5 -6t-31 -16.5t-16 -31.5t-6.5 -51q0 -51 20 -73.5t60 -27.5l162 -20q109 -14 109 -122q0 -45 -11.5 -72t-38.5 -40t-57 -17t-82 -4q-94 0 -174 11l3 18q87 -8 172 -7q96 2 130 22t34 89 q0 88 -85 99l-162 20q-52 6 -78 35t-26 89zM247 -76q-1 11 10 11h8q11 0 11 -11v-58q-2 -66 -16 -115l-11 4q3 56 3 102q-3 0 -4.5 3t-0.5 6v58z" />
<glyph unicode="&#x21a;" horiz-adv-x="564" d="M27 668v22h510v-22h-243v-668h-25v668h-242zM259 -76q-1 11 10 11h8q11 0 11 -11v-58q-2 -66 -16 -115l-11 4q3 56 3 102q-3 0 -4.5 3t-0.5 6v58z" />
<glyph unicode="&#x21b;" horiz-adv-x="347" d="M34 458v17l87 5v151h24v-151h178v-22h-178v-362q0 -80 80 -80h88l3 -16q-40 -6 -85 -6q-110 0 -110 101v363h-87zM216 -76q-1 11 10 11h8q11 0 11 -11v-58q-2 -66 -16 -115l-11 4q3 55 3 102q-3 0 -4.5 3t-0.5 6v58z" />
<glyph unicode="&#x2c6;" horiz-adv-x="392" d="M51 587l136 117h18l136 -117l-11 -12l-130 102h-8l-129 -102z" />
<glyph unicode="&#x2c7;" horiz-adv-x="392" d="M50 692l13 12l129 -102h8l130 102l12 -12l-137 -117h-18z" />
<glyph unicode="&#x2d8;" horiz-adv-x="357" d="M43 683l18 4q0 -45 32 -69.5t87 -24.5q54 0 85.5 25t31.5 69l18 -4q0 -53 -36.5 -83.5t-98.5 -30.5q-63 0 -100 30.5t-37 83.5z" />
<glyph unicode="&#x2d9;" horiz-adv-x="206" d="M86 602v62q0 12 12 12h10q12 0 12 -12v-62q0 -12 -12 -12h-10q-12 0 -12 12z" />
<glyph unicode="&#x2da;" horiz-adv-x="292" d="M50 638q0 39 28 67t68 28t68 -28t28 -67q0 -40 -28 -67.5t-68 -27.5t-68 27.5t-28 67.5zM71 638q0 -33 21.5 -54.5t53.5 -21.5t53.5 21.5t21.5 54.5q0 32 -21.5 54t-53.5 22t-53.5 -22t-21.5 -54z" />
<glyph unicode="&#x2db;" horiz-adv-x="253" d="M55 -124q22 63 91 126l18 -2q-65 -65 -87 -126q-16 -46 10 -61.5t83 5.5l3 -12q-76 -32 -106.5 -8t-11.5 78z" />
<glyph unicode="&#x2dc;" horiz-adv-x="400" d="M55 598q-1 45 19 68.5t56 20.5q30 -3 70 -34t70 -34q31 -2 44.5 13t13.5 50h17q1 -43 -19 -65.5t-56 -19.5t-76.5 34.5t-63.5 33.5q-30 3 -44 -13.5t-14 -53.5h-17z" />
<glyph unicode="&#x2dd;" horiz-adv-x="410" d="M64 558l111 157l22 -15l-117 -152zM204 558l111 157l22 -15l-117 -152z" />
<glyph unicode="&#x394;" horiz-adv-x="614" d="M37 0v22l256 668h28l256 -668v-22h-540zM63 22h488q-18 48 -107.5 281.5t-136.5 359.5q-4 -12 -12.5 -34.5t-12.5 -33.5z" />
<glyph unicode="&#x3a9;" horiz-adv-x="718" d="M55 0v22h197q-86 57 -124 135.5t-38 199.5q0 174 64 259.5t205 85.5q138 0 203.5 -86t65.5 -259q0 -123 -38.5 -200t-123.5 -135h197v-22h-228v22q92 60 129.5 137t37.5 196q0 166 -58.5 245t-184.5 79q-129 0 -186 -78.5t-57 -246.5q0 -124 38.5 -196t128.5 -136v-22 h-228z" />
<glyph unicode="&#x3bc;" horiz-adv-x="576" d="M99 -210v690h24v-358q0 -111 110 -111q49 0 97 23t119 75v371h24v-480h-18l-3 88q-120 -100 -224 -100q-78 0 -109 49q4 -30 4 -90v-157h-24z" />
<glyph unicode="&#x3c0;" horiz-adv-x="640" d="M31 459v21h578v-21h-111v-459h-24v459h-308v-459h-24v459h-111z" />
<glyph unicode="&#x401;" horiz-adv-x="551" d="M97 102v486q0 44 29 73t73 29q196 0 294 -4l-2 -18h-287q-36 0 -59 -23t-23 -59v-206h328v-21h-328v-255q0 -36 23 -59t59 -23h287l2 -18q-98 -4 -294 -4q-44 0 -73 29t-29 73zM206 814v56q0 11 10 11h10q10 0 10 -11v-56q0 -11 -10 -11h-10q-10 0 -10 11zM383 814v56 q0 11 10 11h10q10 0 10 -11v-56q0 -11 -10 -11h-10q-10 0 -10 11z" />
<glyph unicode="&#x402;" horiz-adv-x="748" d="M27 668v22h510v-22h-243v-317q64 45 116 63t115 18q84 0 124.5 -48t40.5 -159q0 -232 -252 -224l-2 17q114 6 171.5 50t57.5 156q0 103 -35 144t-109 41q-66 0 -114 -18.5t-113 -63.5v-327h-25v668h-242z" />
<glyph unicode="&#x403;" horiz-adv-x="514" d="M100 0v588q0 44 29 73t73 29q189 0 285 -4l-2 -18h-278q-36 0 -59 -23t-23 -59v-586h-25zM249 749l149 145l18 -17l-153 -141z" />
<glyph unicode="&#x404;" horiz-adv-x="570" d="M76 345q0 197 59 277t206 80q102 0 176 -17l-6 -18q-75 12 -170 12q-127 0 -181 -67t-58 -232h318v-21h-318v-14q0 -186 53 -260t186 -74q103 0 178 13l6 -18q-79 -18 -184 -18q-147 0 -206 80t-59 277z" />
<glyph unicode="&#x405;" horiz-adv-x="554" d="M66 524q0 61 11.5 97.5t41 54t62.5 22t93 3.5q97 -2 187 -12l-3 -19q-120 8 -184 8q-39 0 -58.5 -1t-45 -5.5t-37 -14t-23 -26.5t-15.5 -43t-4 -64q0 -76 25 -110.5t84 -42.5l153 -21q76 -9 107.5 -50t31.5 -131q0 -48 -9.5 -81.5t-25 -53t-44 -29.5t-57 -13t-74.5 -3 q-110 0 -204 11l3 19q104 -8 202 -7q55 1 86 6t55 21.5t33.5 47.5t9.5 82q0 81 -25.5 115t-88.5 42l-153 21q-72 8 -103 50t-31 127z" />
<glyph unicode="&#x406;" horiz-adv-x="231" d="M103 0v690h25v-690h-25z" />
<glyph unicode="&#x407;" horiz-adv-x="231" d="M11 789v56q0 11 10 11h10q10 0 10 -11v-56q0 -11 -10 -11h-10q-10 0 -10 11zM103 0v690h25v-690h-25zM188 789v56q0 11 10 11h10q10 0 10 -11v-56q0 -11 -10 -11h-10q-10 0 -10 11z" />
<glyph unicode="&#x408;" horiz-adv-x="324" d="M38 0l3 16h58q100 0 100 100v574h25v-575q0 -122 -122 -121q-28 0 -64 6z" />
<glyph unicode="&#x409;" horiz-adv-x="965" d="M26 18q55 31 99 104q40 67 52.5 139t34.5 326q9 103 106 103h198v-306h184q117 0 162 -44t45 -152q0 -114 -46 -155t-161 -41q-131 0 -209 8v668h-169q-80 0 -86 -83q-16 -182 -22 -241t-21.5 -121.5t-44.5 -109.5q-58 -99 -118 -113zM516 17q66 -2 184 -2 q101 0 141 35.5t40 137.5q0 97 -38.5 135t-142.5 38h-184v-344z" />
<glyph unicode="&#x40a;" horiz-adv-x="983" d="M103 0v690h25v-309h381v309h25v-308h184q117 0 162 -44t45 -150q0 -114 -46 -155t-161 -41q-131 0 -209 8v359h-381v-359h-25zM534 17q66 -2 184 -2q101 0 141 35.5t40 137.5q0 95 -39 133t-142 38h-184v-342z" />
<glyph unicode="&#x40b;" horiz-adv-x="790" d="M27 668v22h510v-22h-243v-319q134 83 282 83q144 0 144 -145v-287h-25v284q0 64 -30 94.5t-94 30.5q-75 0 -136.5 -18.5t-140.5 -64.5v-326h-25v668h-242z" />
<glyph unicode="&#x40c;" horiz-adv-x="573" d="M103 0v690h24v-236q0 -23 -2 -83h103q36 0 69 18.5t54 39.5t47.5 69t37.5 73t37 86q9 22 14 33h26q-64 -152 -88 -197q-70 -125 -150 -132v-2q23 -1 44.5 -11.5t38 -22.5t35 -38t29.5 -44t28.5 -55.5t26 -57.5t27 -65.5t26.5 -64.5h-27q-8 20 -24.5 60t-25 59.5t-23.5 53 t-25 50t-26 41t-31 36.5t-34 25t-40.5 18.5t-45.5 5.5h-103q2 -31 2 -86v-263h-24zM240 749l149 145l18 -17l-153 -141z" />
<glyph unicode="&#x40d;" horiz-adv-x="678" d="M103 0v690h25v-651h1q7 10 21 34t19 32l382 585h24v-690h-25v651h-1q-33 -57 -35 -60l-387 -591h-24zM213 877l18 17l149 -145l-14 -13z" />
<glyph unicode="&#x40e;" horiz-adv-x="537" d="M36 690h26l169 -441q8 -22 31 -22h51l175 463h26l-202 -529q-35 -94 -55 -122q-30 -42 -71 -45q-48 -4 -96 12l3 16q34 -6 55 -7.5t40.5 3.5t29.5 12t23.5 29t22 42.5t25.5 63.5l16 40h-45q-37 0 -50 35zM134 869l18 4q0 -45 32 -69.5t87 -24.5q54 0 85.5 25t31.5 69 l18 -4q0 -53 -36.5 -83.5t-98.5 -30.5q-63 0 -100 30.5t-37 83.5z" />
<glyph unicode="&#x40f;" horiz-adv-x="666" d="M103 0v690h25v-668h410v668h25v-690h-218l-2 -151h-18l-4 151h-218z" />
<glyph unicode="&#x410;" horiz-adv-x="603" d="M19 0l248 681q3 9 13 9h43q10 0 13 -9l248 -681h-27l-91 252h-329l-91 -252h-27zM145 274h313q-10 27 -62 172t-80 222h-29q-28 -77 -80 -221.5t-62 -172.5z" />
<glyph unicode="&#x411;" horiz-adv-x="592" d="M103 0v690q88 4 199 4q107 0 194 -4l-3 -20h-365v-300h194q117 0 162 -42.5t45 -146.5q0 -110 -46 -149.5t-161 -39.5q-138 0 -219 8zM128 17q68 -2 194 -2q101 0 141 33.5t40 132.5q0 93 -38.5 129.5t-142.5 36.5h-194v-330z" />
<glyph unicode="&#x412;" horiz-adv-x="612" d="M103 0v690q71 8 194 8q125 0 173.5 -37.5t48.5 -142.5q0 -75 -28 -113.5t-89 -44.5v-4q74 -7 105.5 -52.5t31.5 -131.5q0 -105 -46.5 -142.5t-165.5 -37.5q-143 0 -224 8zM128 17q70 -2 199 -2q106 0 146 31.5t40 125.5q0 101 -43 137t-153 38h-189v-330zM128 368h189 q99 1 137.5 31.5t38.5 118.5q0 94 -42.5 125.5t-153.5 31.5q-109 0 -169 -2v-305z" />
<glyph unicode="&#x413;" horiz-adv-x="514" d="M100 0v588q0 44 29 73t73 29q189 0 285 -4l-2 -18h-278q-36 0 -59 -23t-23 -59v-586h-25z" />
<glyph unicode="&#x414;" horiz-adv-x="655" d="M25 22h55q110 191 119 565q2 103 103 103h233v-668h82v-173h-18l-6 151h-544l-6 -151h-18v173zM109 22h401v646h-206q-79 0 -81 -81q-8 -370 -114 -565z" />
<glyph unicode="&#x415;" horiz-adv-x="551" d="M97 102v486q0 44 29 73t73 29q196 0 294 -4l-2 -18h-287q-36 0 -59 -23t-23 -59v-206h328v-21h-328v-255q0 -36 23 -59t59 -23h287l2 -18q-98 -4 -294 -4q-44 0 -73 29t-29 73z" />
<glyph unicode="&#x416;" horiz-adv-x="878" d="M43 0q8 19 26.5 64.5t27 65.5t26 57.5t28.5 55.5t29.5 44t35 38t38 22.5t44.5 11.5v2q-31 3 -59.5 23t-49 45t-43.5 69t-37 75.5t-35 82.5q-9 23 -14 34h26q62 -146 85 -187q76 -131 174 -132h89q-3 30 -3 83v236h24v-236q0 -53 -3 -83h81q36 0 69 18.5t54 39.5t47.5 69 t37.5 73t37 86q9 22 14 33h26q-64 -152 -88 -197q-70 -125 -150 -132v-2q23 -1 44.5 -11.5t38 -22.5t35 -38t29.5 -44t28.5 -55.5t26 -57.5t27 -65.5t26.5 -64.5h-27q-8 20 -24.5 60t-25 59.5t-23.5 53t-25 50t-26 41t-31 36.5t-34 25t-40.5 18.5t-45.5 5.5h-81q3 -47 3 -86 v-263h-24v263q0 39 3 86h-89q-24 0 -45.5 -5.5t-40.5 -18.5t-34 -25t-31 -36.5t-26 -41t-25 -50t-23.5 -53t-25 -59.5t-24.5 -60h-27z" />
<glyph unicode="&#x417;" horiz-adv-x="544" d="M44 6l4 18q6 0 40.5 -2.5t79.5 -4.5t90 -2q106 0 146 31.5t40 125.5q0 101 -43 138t-153 37h-101v21h101q99 0 137.5 31t38.5 119q0 94 -42.5 125.5t-153.5 31.5q-37 0 -72.5 -1.5t-62.5 -4t-32 -2.5l-4 18q85 13 171 13q125 0 173.5 -37.5t48.5 -142.5q0 -75 -28 -113.5 t-89 -44.5v-4q74 -7 105.5 -52.5t31.5 -131.5q0 -105 -46.5 -142.5t-165.5 -37.5q-127 0 -214 14z" />
<glyph unicode="&#x418;" horiz-adv-x="678" d="M103 0v690h25v-651h1q7 10 21 34t19 32l382 585h24v-690h-25v651h-1q-33 -57 -35 -60l-387 -591h-24z" />
<glyph unicode="&#x419;" horiz-adv-x="678" d="M103 0v690h25v-651h1q7 10 21 34t19 32l382 585h24v-690h-25v651h-1q-33 -57 -35 -60l-387 -591h-24zM203 877h24q0 -49 31 -76.5t82 -27.5q50 0 80.5 27.5t30.5 76.5h24q0 -54 -37 -88t-98 -34q-62 0 -99.5 34t-37.5 88z" />
<glyph unicode="&#x41a;" horiz-adv-x="573" d="M103 0v690h24v-236q0 -23 -2 -83h103q36 0 69 18.5t54 39.5t47.5 69t37.5 73t37 86q9 22 14 33h26q-64 -152 -88 -197q-70 -125 -150 -132v-2q23 -1 44.5 -11.5t38 -22.5t35 -38t29.5 -44t28.5 -55.5t26 -57.5t27 -65.5t26.5 -64.5h-27q-8 20 -24.5 60t-25 59.5t-23.5 53 t-25 50t-26 41t-31 36.5t-34 25t-40.5 18.5t-45.5 5.5h-103q2 -31 2 -86v-263h-24z" />
<glyph unicode="&#x41b;" horiz-adv-x="632" d="M14 20q55 30 99 102q40 67 52.5 139t34.5 326q9 103 106 103h223v-690h-25v668h-194q-80 0 -86 -83q-16 -182 -22 -241t-21.5 -121.5t-44.5 -109.5q-53 -89 -118 -113z" />
<glyph unicode="&#x41c;" horiz-adv-x="854" d="M88 0l30 675q0 15 15 15h42q10 0 13 -9l191 -505q6 -16 17.5 -47t17.5 -47h26q44 118 128 340l98 259q3 9 13 9h42q15 0 15 -15l30 -675h-25l-30 668h-24l-226 -599q-3 -9 -13 -9h-42q-10 0 -13 9l-226 599h-24l-30 -668h-25z" />
<glyph unicode="&#x41d;" horiz-adv-x="657" d="M103 0v690h25v-309h401v309h25v-690h-25v359h-401v-359h-25z" />
<glyph unicode="&#x41e;" horiz-adv-x="662" d="M76 345q0 198 56.5 277.5t198.5 79.5t198.5 -79.5t56.5 -277.5t-56.5 -277.5t-198.5 -79.5t-198.5 79.5t-56.5 277.5zM102 345q0 -186 50.5 -260t178.5 -74t178.5 74t50.5 260t-50.5 260t-178.5 74t-178.5 -74t-50.5 -260z" />
<glyph unicode="&#x41f;" horiz-adv-x="661" d="M103 0v690h455v-690h-25v668h-405v-668h-25z" />
<glyph unicode="&#x420;" horiz-adv-x="581" d="M103 0v690q80 8 221 8q111 0 155 -43t44 -160q0 -118 -43.5 -160.5t-155.5 -42.5q-128 0 -196 4v-296h-25zM128 315h196q98 2 135.5 38.5t37.5 141.5t-38 142.5t-135 37.5q-128 0 -196 -2v-358z" />
<glyph unicode="&#x421;" horiz-adv-x="561" d="M76 345q0 198 56.5 277.5t198.5 79.5q100 0 174 -17l-6 -18q-75 12 -168 12q-128 0 -178.5 -74t-50.5 -260t50.5 -260t178.5 -74q107 0 182 13l6 -18q-79 -18 -188 -18q-142 0 -198.5 79.5t-56.5 277.5z" />
<glyph unicode="&#x422;" horiz-adv-x="564" d="M27 668v22h510v-22h-243v-668h-25v668h-242z" />
<glyph unicode="&#x423;" horiz-adv-x="537" d="M36 690h26l169 -441q8 -22 31 -22h51l175 463h26l-202 -529q-35 -94 -55 -122q-30 -42 -71 -45q-48 -4 -96 12l3 16q34 -6 55 -7.5t40.5 3.5t29.5 12t23.5 29t22 42.5t25.5 63.5l16 40h-45q-37 0 -50 35z" />
<glyph unicode="&#x424;" horiz-adv-x="821" d="M75 355q0 162 73 228.5t250 68.5v106h25v-106q177 -2 250 -68.5t73 -228.5t-73 -228.5t-250 -68.5v-106h-25v106q-177 2 -250 68.5t-73 228.5zM101 355q0 -154 66 -213.5t231 -61.5v550q-165 -2 -231 -61.5t-66 -213.5zM423 80q165 2 231 61.5t66 213.5t-66 213.5 t-231 61.5v-550z" />
<glyph unicode="&#x425;" horiz-adv-x="599" d="M41 0l219 360l-206 330h30l199 -318h33l199 318h30l-206 -330l219 -360h-30l-213 350h-31l-213 -350h-30z" />
<glyph unicode="&#x426;" horiz-adv-x="672" d="M103 0v690h25v-668h398v668h25v-668h82v-173h-18l-6 151h-506z" />
<glyph unicode="&#x427;" horiz-adv-x="605" d="M71 413v277h25v-274q0 -64 28.5 -94.5t89.5 -30.5q72 0 129.5 18t133.5 65v316h25v-690h-25v351q-127 -83 -268 -83q-138 0 -138 145z" />
<glyph unicode="&#x428;" horiz-adv-x="901" d="M103 0v690h25v-668h310v668h25v-668h310v668h25v-690h-695z" />
<glyph unicode="&#x429;" horiz-adv-x="908" d="M103 0v690h25v-668h305v668h25v-668h305v668h25v-668h82v-173h-18l-6 151h-743z" />
<glyph unicode="&#x42a;" horiz-adv-x="744" d="M27 668v22h258v-306h194q117 0 162 -44t45 -152q0 -114 -46 -155t-161 -41q-138 0 -219 8v668h-233zM285 17q68 -2 194 -2q101 0 141 35.5t40 137.5q0 97 -38.5 135t-142.5 38h-194v-344z" />
<glyph unicode="&#x42b;" horiz-adv-x="809" d="M103 0v690h25v-306h194q117 0 162 -44t45 -152q0 -114 -46 -155t-161 -41q-138 0 -219 8zM128 17q68 -2 194 -2q101 0 141 35.5t40 137.5q0 97 -38.5 135t-142.5 38h-194v-344zM681 0v690h25v-690h-25z" />
<glyph unicode="&#x42c;" horiz-adv-x="587" d="M103 0v690h25v-306h194q117 0 162 -44t45 -152q0 -114 -46 -155t-161 -41q-138 0 -219 8zM128 17q68 -2 194 -2q101 0 141 35.5t40 137.5q0 97 -38.5 135t-142.5 38h-194v-344z" />
<glyph unicode="&#x42d;" horiz-adv-x="570" d="M45 6l6 18q75 -13 178 -13q133 0 186 74t53 260v15h-318v21h318q-4 164 -58.5 231t-180.5 67q-95 0 -170 -12l-6 18q74 17 176 17q147 0 206 -80t59 -277t-59 -277t-206 -80q-105 0 -184 18z" />
<glyph unicode="&#x42e;" horiz-adv-x="893" d="M104 0v690h25v-319h188q3 182 58 256.5t187 74.5q142 0 198.5 -79.5t56.5 -277.5t-56.5 -277.5t-198.5 -79.5q-136 0 -190.5 79.5t-54.5 277.5v4h-188v-349h-25zM343 345q0 -186 48.5 -260t170.5 -74q128 0 178.5 74t50.5 260t-50.5 260t-178.5 74q-122 0 -170.5 -74 t-48.5 -260z" />
<glyph unicode="&#x42f;" horiz-adv-x="602" d="M54 0l76 211q29 79 78 95l-1 6q-57 9 -87.5 62t-30.5 120q0 113 47 158.5t152 45.5q134 0 211 -8v-690h-25v304q-68 -4 -205 -4q-81 0 -113 -92l-74 -208h-28zM115 494q0 -77 37.5 -124t118.5 -47h203v350q-66 2 -186 2q-91 0 -132 -40t-41 -141z" />
<glyph unicode="&#x430;" horiz-adv-x="538" d="M66 115v62q0 54 30 83.5t85 29.5h242v68q0 111 -110 111q-99 0 -225 -16l-3 18q149 21 229 21q133 0 133 -134v-358h-18l-5 93q-35 -36 -102 -67.5t-131 -31.5q-60 0 -92.5 31.5t-32.5 89.5zM91 115q0 -95 100 -97q55 -1 122 28.5t110 70.5v153l-242 -4q-90 -2 -90 -89 v-62z" />
<glyph unicode="&#x431;" horiz-adv-x="561" d="M86 295q0 73 3.5 120t15 91t33 71t56.5 49t87 37q11 3 33.5 9.5t34 10t30.5 10.5t37 16.5t39 23.5l7 -17q-17 -12 -34.5 -21.5t-29.5 -15.5t-31.5 -12.5t-26.5 -8.5t-28.5 -8t-24.5 -7q-30 -9 -53.5 -19.5t-41.5 -25t-30.5 -28.5t-21.5 -34.5t-14.5 -38.5t-9 -46 t-5.5 -50.5t-3 -57.5h1q28 124 194 124q105 0 146 -53.5t41 -186.5q0 -58 -7.5 -97.5t-28.5 -74t-62 -51t-104 -16.5q-40 0 -70.5 7.5t-52 20t-36 34.5t-23 44.5t-13 57.5t-6 66t-1.5 77zM111 232q0 -123 40.5 -172t139.5 -49q97 0 135.5 48.5t38.5 173.5q0 119 -36 165 t-130 46q-58 0 -96.5 -15t-58 -45t-26.5 -65.5t-7 -86.5z" />
<glyph unicode="&#x432;" horiz-adv-x="547" d="M94 0v479q66 6 171 6q111 0 154 -27t43 -101q0 -51 -25 -78t-79 -31v-2q66 -5 93.5 -36t27.5 -91q0 -72 -41 -98.5t-146 -26.5q-122 0 -198 6zM117 17q71 -2 174 -1q92 0 127.5 21t35.5 83q0 67 -37.5 92t-133.5 25h-166v-220zM117 257h166q88 1 121 21t33 78 q0 64 -37.5 85.5t-134.5 21.5q-85 1 -148 -1v-205z" />
<glyph unicode="&#x433;" horiz-adv-x="438" d="M92 0v386q0 44 24.5 69t67.5 25q147 0 224 -3v-19h-219q-73 0 -73 -75v-383h-24z" />
<glyph unicode="&#x434;" horiz-adv-x="549" d="M30 21h42q86 128 97 368q5 91 93 91h180v-459h54v-166h-18l-5 145h-420l-5 -145h-18v166zM100 21h318v438h-153q-69 0 -72 -71q-9 -238 -93 -367z" />
<glyph unicode="&#x435;" horiz-adv-x="527" d="M69 242q0 137 47 193.5t159 56.5q186 0 189 -136q2 -66 -22 -97.5t-81 -31.5h-267q3 -119 48 -167.5t144 -48.5q83 0 163 13l4 -18q-58 -18 -170 -18q-114 0 -164 58.5t-50 195.5zM94 249h267q43 0 61.5 26t16.5 79q-1 59 -41.5 87t-121.5 28q-99 0 -140 -49.5 t-42 -170.5z" />
<glyph unicode="&#x436;" horiz-adv-x="759" d="M46 0q57 129 77 161q53 84 120 89v1q-22 2 -41 11t-37.5 30.5t-29.5 35t-29 50.5t-23 48t-24 54h27q52 -115 81 -154q50 -65 116 -65h91q-3 20 -3 58v161h24v-161q0 -38 -3 -58h85q81 0 141 103q18 31 56 116h27q-19 -43 -24 -54t-23 -48t-29 -50.5t-29.5 -35 t-37.5 -30.5t-41 -11v-1q42 -3 78 -38.5t53.5 -69t51.5 -111.5q9 -20 14 -31h-27q-5 12 -17 39t-17 37.5t-16 33t-17 32.5t-17 27t-19.5 24.5t-21 18.5t-24.5 15.5t-27 8.5t-32 4h-87q3 -30 3 -58v-182h-24v182q0 28 3 58h-93q-17 0 -32 -4t-27 -8.5t-24.5 -15.5t-21 -18.5 t-19.5 -24.5t-17 -27t-17 -32.5t-16 -33t-17 -37.5t-17 -39h-27z" />
<glyph unicode="&#x437;" horiz-adv-x="472" d="M47 4l4 18q144 -6 158 -6q94 0 131 24.5t37 80.5q0 66 -36 90t-129 26h-93v20h93q88 1 120 21.5t32 79.5q0 65 -37.5 85.5t-144.5 20.5q-84 0 -123 -6l-4 18q60 10 133 10q115 0 158 -26t43 -99q0 -53 -22.5 -80.5t-80.5 -32.5v-2q62 -5 89.5 -35.5t27.5 -92.5 q0 -65 -43.5 -94.5t-149.5 -29.5q-94 0 -163 10z" />
<glyph unicode="&#x438;" horiz-adv-x="581" d="M94 0v480h24v-445h1q13 20 33 45l313 400h22v-480h-24v445h-1q-10 -17 -29 -41l-317 -404h-22z" />
<glyph unicode="&#x439;" horiz-adv-x="581" d="M94 0v480h24v-445h1q13 20 33 45l313 400h22v-480h-24v445h-1q-10 -17 -29 -41l-317 -404h-22zM143 695h24q0 -49 31 -76.5t82 -27.5q50 0 80.5 27.5t30.5 76.5h24q0 -54 -37 -88t-98 -34q-62 0 -99.5 34t-37.5 88z" />
<glyph unicode="&#x43a;" horiz-adv-x="515" d="M94 0v480h24v-161q0 -18 -2 -58h100q38 0 69.5 16t56 48t42 62.5t39.5 75.5l3 6l2.5 5t2.5 6h26q-57 -120 -89 -160q-50 -64 -110 -69v-1q35 -2 64 -19.5t53 -52t41 -66t42 -84.5q8 -19 13 -28h-27q-4 8 -18.5 38.5t-18.5 38t-17 33t-18.5 33t-18.5 26.5t-21.5 25t-23 18 t-27.5 16t-29.5 8t-34.5 4h-101q2 -20 2 -58v-182h-24z" />
<glyph unicode="&#x43b;" horiz-adv-x="537" d="M23 16q59 26 88 84q12 24 21 56t15 66.5t9.5 63t6.5 61t5 43.5q6 46 29 68t70 22h175v-480h-24v459h-153q-24 0 -39.5 -8t-23.5 -23t-11 -39q-1 -11 -5 -47t-5.5 -50.5t-6.5 -47.5t-8.5 -49t-11 -44.5t-15 -44t-19 -36.5t-25 -33t-31 -24t-37.5 -18z" />
<glyph unicode="&#x43c;" horiz-adv-x="720" d="M83 0l25 467q0 13 14 13h37q9 0 12 -9l150 -341q20 -44 29 -66h20q2 5 12.5 29.5t16.5 37.5l150 340q3 9 13 9h36q14 0 14 -13l25 -467h-24l-24 458h-20l-179 -405q-4 -9 -12 -9h-36q-8 0 -12 9l-179 405h-20l-24 -458h-24z" />
<glyph unicode="&#x43d;" horiz-adv-x="566" d="M94 0v480h24v-213h330v213h24v-480h-24v246h-330v-246h-24z" />
<glyph unicode="&#x43e;" d="M70 240q0 139 47 195.5t163 56.5t163 -56.5t47 -195.5t-47 -195.5t-163 -56.5t-163 56.5t-47 195.5zM95 240q0 -129 41 -179t144 -50t144 50t41 179t-41 179t-144 50t-144 -50t-41 -179z" />
<glyph unicode="&#x43f;" horiz-adv-x="564" d="M94 0v480h376v-480h-24v459h-328v-459h-24z" />
<glyph unicode="&#x440;" horiz-adv-x="561" d="M95 -210v690h18l4 -87q106 99 199 99q94 0 134 -57.5t40 -194.5t-40 -194.5t-134 -57.5q-89 0 -200 53q3 -25 3 -92v-159h-24zM119 59q120 -48 197 -48q81 0 115 52t34 177t-34 177t-115 52q-46 0 -91 -22.5t-106 -74.5v-313z" />
<glyph unicode="&#x441;" horiz-adv-x="478" d="M69 240q0 138 49.5 195t169.5 57q80 0 135 -17l-6 -18q-47 12 -125 12q-110 0 -154 -49t-44 -180t44 -180t154 -49q79 0 138 12l4 -18q-75 -17 -145 -17q-120 0 -170 57t-50 195z" />
<glyph unicode="&#x442;" horiz-adv-x="470" d="M30 458v22h410v-22h-193v-458h-25v458h-192z" />
<glyph unicode="&#x443;" horiz-adv-x="506" d="M30 480h26q14 -33 83.5 -201t107.5 -257h13q28 68 60.5 145.5t70 167t60.5 145.5h26l-221 -527q-38 -93 -84 -131q-57 -40 -130 -28l2 14q70 -4 118 32q39 35 73 122l15 38h-10q-8 0 -13 8z" />
<glyph unicode="&#x444;" horiz-adv-x="696" d="M68 240q0 133 61 191.5t207 60.5v208h25v-208q145 -2 206 -60.5t61 -191.5t-61 -191.5t-206 -60.5v-198h-25v198q-146 2 -207 60.5t-61 191.5zM93 240q0 -126 55 -176.5t188 -52.5v458q-133 -2 -188 -52.5t-55 -176.5zM361 11q133 2 187.5 53t54.5 176t-54.5 176 t-187.5 53v-458z" />
<glyph unicode="&#x445;" horiz-adv-x="505" d="M36 0l182 250l-169 230h30l160 -218h27l160 218h30l-169 -230l182 -250h-30l-175 240h-23l-175 -240h-30z" />
<glyph unicode="&#x446;" horiz-adv-x="566" d="M95 0v480h24v-459h317v459h24v-459h53v-164h-17l-6 143h-395z" />
<glyph unicode="&#x447;" horiz-adv-x="505" d="M65 284v196h24v-192q0 -82 83 -82q106 0 215 52v222h24v-480h-24v236q-108 -54 -221 -54q-101 0 -101 102z" />
<glyph unicode="&#x448;" horiz-adv-x="781" d="M94 0v480h25v-459h259v459h25v-459h260v459h24v-480h-593z" />
<glyph unicode="&#x449;" horiz-adv-x="795" d="M95 0v480h24v-459h260v459h24v-459h262v459h23v-459h54v-164h-18l-5 143h-624z" />
<glyph unicode="&#x44a;" horiz-adv-x="624" d="M30 458v22h208v-212h158q98 0 136 -31t38 -106q0 -79 -38.5 -108t-134.5 -29q-112 0 -183 6v458h-184zM238 18q60 -2 158 -2q82 0 115 24t33 92q0 64 -31.5 89.5t-116.5 25.5h-158v-229z" />
<glyph unicode="&#x44b;" horiz-adv-x="674" d="M94 0v480h24v-212h159q86 0 119.5 -31t33.5 -106q0 -79 -33.5 -108t-118.5 -29q-113 0 -184 6zM118 18q58 -2 159 -2q71 0 99 23.5t28 92.5q0 65 -27 90t-100 25h-159v-229zM555 0v480h24v-480h-24z" />
<glyph unicode="&#x44c;" horiz-adv-x="504" d="M94 0v480h24v-212h159q98 0 135.5 -30.5t37.5 -106.5q0 -79 -38.5 -108t-133.5 -29q-113 0 -184 6zM118 18q58 -2 159 -2q82 0 114.5 24t32.5 92q0 65 -31.5 90t-115.5 25h-159v-229z" />
<glyph unicode="&#x44d;" horiz-adv-x="483" d="M47 5l5 19q64 -9 145 -9q106 0 148 48.5t43 172.5h-254v20h254q-3 114 -45.5 159.5t-145.5 45.5q-78 0 -139 -8l-5 19q57 12 144 12q120 0 168 -54.5t48 -191.5q0 -136 -48 -191t-168 -55q-88 0 -150 13z" />
<glyph unicode="&#x44e;" horiz-adv-x="767" d="M95 0v480h24v-221h156q2 130 48 181.5t158 51.5q120 0 168 -55t48 -195q0 -139 -48 -194.5t-168 -55.5q-114 0 -159.5 54.5t-46.5 191.5h-156v-238h-24zM301 242q0 -128 39.5 -178t140.5 -50q106 0 148 50t42 178t-42 178t-148 50q-101 0 -140.5 -50t-39.5 -178z" />
<glyph unicode="&#x44f;" horiz-adv-x="525" d="M56 0l46 139q18 55 96 65v3q-60 1 -90 39.5t-30 102.5q0 58 37 95.5t118 37.5q120 0 197 -6v-476h-24v195h-159q-103 0 -124 -67l-40 -128h-27zM103 345q0 -129 144 -129h159v242q-58 2 -173 2q-68 0 -99 -32t-31 -83z" />
<glyph unicode="&#x451;" horiz-adv-x="527" d="M69 242q0 137 47 193.5t159 56.5q186 0 189 -136q2 -66 -22 -97.5t-81 -31.5h-267q3 -119 48 -167.5t144 -48.5q83 0 163 13l4 -18q-58 -18 -170 -18q-114 0 -164 58.5t-50 195.5zM94 249h267q43 0 61.5 26t16.5 79q-1 59 -41.5 87t-121.5 28q-99 0 -140 -49.5 t-42 -170.5zM173 607v56q0 11 10 11h10q10 0 10 -11v-56q0 -11 -10 -11h-10q-10 0 -10 11zM350 607v56q0 11 10 11h10q10 0 10 -11v-56q0 -11 -10 -11h-10q-10 0 -10 11z" />
<glyph unicode="&#x452;" horiz-adv-x="566" d="M33 511v20h81v169h25v-169h219v-20h-218v-126q0 -59 -5 -93q134 100 234 100q129 0 129 -131v-261h-24v258q0 111 -110 111q-51 0 -101.5 -23t-124.5 -75v-271h-24v511h-81z" />
<glyph unicode="&#x453;" horiz-adv-x="438" d="M92 0v386q0 44 24.5 69t67.5 25q147 0 224 -3v-19h-219q-73 0 -73 -75v-383h-24zM209 567l149 145l18 -17l-153 -141z" />
<glyph unicode="&#x454;" horiz-adv-x="484" d="M71 238q0 137 48 191.5t168 54.5q87 0 144 -12l-5 -19q-61 8 -139 8q-103 0 -145.5 -45.5t-45.5 -160.5h254v-20h-254q1 -123 43 -171.5t148 -48.5q81 0 145 9l5 -19q-62 -13 -150 -13q-120 0 -168 55t-48 191z" />
<glyph unicode="&#x455;" horiz-adv-x="499" d="M62 365q0 84 39 106.5t138 20.5t186 -12l-3 -18q-96 7 -183 8q-38 1 -58 0t-41.5 -6t-31 -16.5t-16 -31.5t-6.5 -51q0 -51 20 -73.5t60 -27.5l162 -20q109 -14 109 -122q0 -45 -11.5 -72t-38.5 -40t-57 -17t-82 -4q-94 0 -174 11l3 18q87 -8 172 -7q96 2 130 22t34 89 q0 88 -85 99l-162 20q-52 6 -78 35t-26 89z" />
<glyph unicode="&#x456;" horiz-adv-x="220" d="M93 605v62q0 12 12 12h10q12 0 12 -12v-62q0 -12 -12 -12h-10q-12 0 -12 12zM98 0v480h24v-480h-24z" />
<glyph unicode="&#x457;" horiz-adv-x="220" d="M5 607v56q0 11 10 11h10q10 0 10 -11v-56q0 -11 -10 -11h-10q-10 0 -10 11zM98 0v480h24v-480h-24zM182 607v56q0 11 10 11h10q10 0 10 -11v-56q0 -11 -10 -11h-10q-10 0 -10 11z" />
<glyph unicode="&#x458;" horiz-adv-x="220" d="M43 -200q55 73 55 154v526h24v-526q0 -90 -66 -164zM93 605v62q0 12 12 12h10q12 0 12 -12v-62q0 -12 -12 -12h-10q-12 0 -12 12z" />
<glyph unicode="&#x459;" horiz-adv-x="770" d="M32 19q49 28 78 72q31 50 40 96t26 217q8 76 89 76h151v-201h138q91 0 126 -32t35 -111q0 -48 -10.5 -77t-36.5 -43t-55.5 -18t-82.5 -4q-78 0 -138 6v460h-127q-59 0 -65 -59q-16 -166 -26 -218t-41 -100q-38 -62 -95 -83zM416 17q56 -2 110 -2q96 0 130 21.5t34 99.5 q0 69 -29 96t-107 27h-138v-242z" />
<glyph unicode="&#x45a;" horiz-adv-x="784" d="M95 0v480h24v-204h287v204h24v-203h139q91 0 125.5 -31.5t34.5 -108.5q0 -83 -35.5 -113t-123.5 -30q-100 0 -164 6v256h-287v-256h-24zM430 17q54 -2 139 -2q75 0 105 25t30 97q0 67 -28.5 93.5t-106.5 26.5h-139v-240z" />
<glyph unicode="&#x45b;" horiz-adv-x="566" d="M33 511v20h81v169h25v-169h219v-20h-218v-126q0 -59 -5 -93q134 100 234 100q129 0 129 -131v-307q0 -90 -66 -164l-13 10q55 73 55 155v303q0 111 -110 111q-51 0 -101.5 -23t-124.5 -75v-271h-24v511h-81z" />
<glyph unicode="&#x45c;" horiz-adv-x="515" d="M94 0v480h24v-161q0 -18 -2 -58h100q38 0 69.5 16t56 48t42 62.5t39.5 75.5l3 6l2.5 5t2.5 6h26q-57 -120 -89 -160q-50 -64 -110 -69v-1q35 -2 64 -19.5t53 -52t41 -66t42 -84.5q8 -19 13 -28h-27q-4 8 -18.5 38.5t-18.5 38t-17 33t-18.5 33t-18.5 26.5t-21.5 25t-23 18 t-27.5 16t-29.5 8t-34.5 4h-101q2 -20 2 -58v-182h-24zM226 567l149 145l18 -17l-153 -141z" />
<glyph unicode="&#x45d;" horiz-adv-x="581" d="M94 0v480h24v-445h1q13 20 33 45l313 400h22v-480h-24v445h-1q-10 -17 -29 -41l-317 -404h-22zM153 695l18 17l149 -145l-14 -13z" />
<glyph unicode="&#x45e;" horiz-adv-x="506" d="M30 480h26q14 -33 83.5 -201t107.5 -257h13q28 68 60.5 145.5t70 167t60.5 145.5h26l-221 -527q-38 -93 -84 -131q-57 -40 -130 -28l2 14q70 -4 118 32q39 35 73 122l15 38h-10q-8 0 -13 8zM121 695h24q0 -49 31 -76.5t82 -27.5q33 0 58 12t39 36t14 56h24q0 -54 -37 -88 t-98 -34q-62 0 -99.5 34t-37.5 88z" />
<glyph unicode="&#x45f;" horiz-adv-x="565" d="M95 0v480h25v-459h325v459h25v-480h-174l-4 -168h-17l-6 168h-174z" />
<glyph unicode="&#x490;" horiz-adv-x="513" d="M100 0v588q0 44 29 73t73 29q174 0 262 -3l5 154h17v-155l-1 -18h-278q-36 0 -59 -23t-23 -59v-586h-25z" />
<glyph unicode="&#x491;" horiz-adv-x="438" d="M92 0v386q0 44 24.5 69t67.5 25q128 0 202 -2l5 149h17v-169h-219q-73 0 -73 -75v-383h-24z" />
<glyph unicode="&#x4b0;" horiz-adv-x="556" d="M30 690h28l180 -333q26 -48 38 -68h5q4 7 17.5 31t19.5 36l180 334h28l-232 -427h159v-20h-162v-243h-25v243h-163v20h160z" />
<glyph unicode="&#x4b1;" horiz-adv-x="562" d="M33 480h28l180 -333q26 -48 38 -68h5q4 7 17.5 31t19.5 36l180 334h28l-232 -427h159v-20h-162v-243h-25v243h-163v20h160z" />
<glyph unicode="&#x4b6;" horiz-adv-x="619" d="M71 413v277h25v-274q0 -64 30 -94.5t94 -30.5q69 0 126.5 18t130.5 64v317h25v-668h77v-173h-18l-6 151h-78v350q-124 -82 -262 -82q-144 0 -144 145z" />
<glyph unicode="&#x4b7;" horiz-adv-x="517" d="M65 284v196h24v-192q0 -82 83 -82q106 0 215 52v222h24v-459h53v-164h-17l-6 143h-54v236q-108 -54 -221 -54q-101 0 -101 102z" />
<glyph unicode="&#x4ba;" horiz-adv-x="605" d="M103 0v690h25v-350q124 82 262 82q144 0 144 -145v-277h-25v274q0 64 -30 94.5t-94 30.5q-69 0 -126.5 -18t-130.5 -64v-317h-25z" />
<glyph unicode="&#x4c0;" horiz-adv-x="231" d="M103 0v690h25v-690h-25z" />
<glyph unicode="&#x1e80;" horiz-adv-x="930" d="M33 690h26q14 -51 79 -294t99 -374h28q32 128 92.5 365.5t74.5 291.5q3 11 14 11h38q11 0 14 -11l150 -588q3 -12 8.5 -35t8.5 -34h28q35 130 99 371.5t79 296.5h26l-183 -680q-3 -10 -14 -10h-42q-11 0 -14 11q-12 46 -73 287.5t-94 369.5h-24q-33 -128 -93.5 -367.5 t-73.5 -289.5q-3 -11 -14 -11h-42q-11 0 -14 10zM338 877l18 17l149 -145l-14 -13z" />
<glyph unicode="&#x1e81;" horiz-adv-x="812" d="M34 480h26l138 -394q4 -10 11 -31.5t11 -32.5h14q21 66 46 142.5t54 164.5t47 142q4 9 13 9h24q9 0 13 -9q18 -54 47 -142t54 -164.5t46 -142.5h14q4 11 11 32.5t11 32.5l138 393h26l-167 -471q-3 -9 -13 -9h-26q-9 0 -13 9l-125 377q-4 12 -11.5 36t-11.5 36h-10 q-29 -88 -84 -255t-64 -194q-4 -9 -13 -9h-26q-10 0 -13 9zM278 695l18 17l149 -145l-14 -13z" />
<glyph unicode="&#x1e82;" horiz-adv-x="930" d="M33 690h26q14 -51 79 -294t99 -374h28q32 128 92.5 365.5t74.5 291.5q3 11 14 11h38q11 0 14 -11l150 -588q3 -12 8.5 -35t8.5 -34h28q35 130 99 371.5t79 296.5h26l-183 -680q-3 -10 -14 -10h-42q-11 0 -14 11q-12 46 -73 287.5t-94 369.5h-24q-33 -128 -93.5 -367.5 t-73.5 -289.5q-3 -11 -14 -11h-42q-11 0 -14 10zM418 749l149 145l18 -17l-153 -141z" />
<glyph unicode="&#x1e83;" horiz-adv-x="812" d="M34 480h26l138 -394q4 -10 11 -31.5t11 -32.5h14q21 66 46 142.5t54 164.5t47 142q4 9 13 9h24q9 0 13 -9q18 -54 47 -142t54 -164.5t46 -142.5h14q4 11 11 32.5t11 32.5l138 393h26l-167 -471q-3 -9 -13 -9h-26q-9 0 -13 9l-125 377q-4 12 -11.5 36t-11.5 36h-10 q-29 -88 -84 -255t-64 -194q-4 -9 -13 -9h-26q-10 0 -13 9zM358 567l149 145l18 -17l-153 -141z" />
<glyph unicode="&#x1e84;" horiz-adv-x="930" d="M33 690h26q14 -51 79 -294t99 -374h28q32 128 92.5 365.5t74.5 291.5q3 11 14 11h38q11 0 14 -11l150 -588q3 -12 8.5 -35t8.5 -34h28q35 130 99 371.5t79 296.5h26l-183 -680q-3 -10 -14 -10h-42q-11 0 -14 11q-12 46 -73 287.5t-94 369.5h-24q-33 -128 -93.5 -367.5 t-73.5 -289.5q-3 -11 -14 -11h-42q-11 0 -14 10zM362 789v56q0 11 10 11h10q10 0 10 -11v-56q0 -11 -10 -11h-10q-10 0 -10 11zM539 789v56q0 11 10 11h10q10 0 10 -11v-56q0 -11 -10 -11h-10q-10 0 -10 11z" />
<glyph unicode="&#x1e85;" horiz-adv-x="812" d="M34 480h26l138 -394q4 -10 11 -31.5t11 -32.5h14q21 66 46 142.5t54 164.5t47 142q4 9 13 9h24q9 0 13 -9q18 -54 47 -142t54 -164.5t46 -142.5h14q4 11 11 32.5t11 32.5l138 393h26l-167 -471q-3 -9 -13 -9h-26q-9 0 -13 9l-125 377q-4 12 -11.5 36t-11.5 36h-10 q-29 -88 -84 -255t-64 -194q-4 -9 -13 -9h-26q-10 0 -13 9zM302 607v56q0 11 10 11h10q10 0 10 -11v-56q0 -11 -10 -11h-10q-10 0 -10 11zM479 607v56q0 11 10 11h10q10 0 10 -11v-56q0 -11 -10 -11h-10q-10 0 -10 11z" />
<glyph unicode="&#x1ef2;" horiz-adv-x="541" d="M22 690h28l180 -333q26 -48 38 -68h5q4 7 17.5 31t19.5 36l180 334h28l-235 -433v-257h-25v257zM143 877l18 17l149 -145l-14 -13z" />
<glyph unicode="&#x1ef3;" horiz-adv-x="506" d="M30 480h26q14 -33 83.5 -201t107.5 -257h13q28 68 60.5 145.5t70 167t60.5 145.5h26l-221 -527q-29 -68 -62.5 -107t-92.5 -56l-6 14q55 21 86 59.5t54 98.5l15 38h-10q-8 0 -13 8zM128 695l18 17l149 -145l-14 -13z" />
<glyph unicode="&#x2000;" horiz-adv-x="459" />
<glyph unicode="&#x2001;" horiz-adv-x="919" />
<glyph unicode="&#x2002;" horiz-adv-x="459" />
<glyph unicode="&#x2003;" horiz-adv-x="919" />
<glyph unicode="&#x2004;" horiz-adv-x="306" />
<glyph unicode="&#x2005;" horiz-adv-x="229" />
<glyph unicode="&#x2006;" horiz-adv-x="153" />
<glyph unicode="&#x2007;" horiz-adv-x="153" />
<glyph unicode="&#x2008;" horiz-adv-x="114" />
<glyph unicode="&#x2009;" horiz-adv-x="183" />
<glyph unicode="&#x200a;" horiz-adv-x="51" />
<glyph unicode="&#x2010;" horiz-adv-x="483" d="M86 240v22h311v-22h-311z" />
<glyph unicode="&#x2011;" horiz-adv-x="483" d="M86 240v22h311v-22h-311z" />
<glyph unicode="&#x2012;" horiz-adv-x="483" d="M86 240v22h311v-22h-311z" />
<glyph unicode="&#x2013;" horiz-adv-x="623" d="M86 240v22h451v-22h-451z" />
<glyph unicode="&#x2014;" horiz-adv-x="933" d="M86 240v22h761v-22h-761z" />
<glyph unicode="&#x2018;" horiz-adv-x="197" d="M83 540v64q2 74 17 127l11 -5q-3 -40 -3 -112q8 0 5 -10v-64q1 -12 -10 -12h-9q-11 0 -11 12z" />
<glyph unicode="&#x2019;" horiz-adv-x="195" d="M84 645v64q-2 12 10 12h9q11 0 11 -12v-64q-2 -74 -17 -127l-11 5q3 40 3 112q-8 0 -5 10z" />
<glyph unicode="&#x201a;" horiz-adv-x="208" d="M89 10v64q-1 12 11 12h9q12 0 12 -12v-64q-2 -70 -18 -127l-12 5q4 53 4 112q-9 0 -6 10z" />
<glyph unicode="&#x201c;" horiz-adv-x="311" d="M83 540v64q2 74 17 127l11 -5q-3 -40 -3 -112q8 0 5 -10v-64q1 -12 -10 -12h-9q-11 0 -11 12zM197 540v64q2 74 17 127l11 -5q-3 -40 -3 -112q8 0 5 -10v-64q1 -12 -10 -12h-9q-11 0 -11 12z" />
<glyph unicode="&#x201d;" horiz-adv-x="309" d="M84 645v64q-2 12 10 12h9q11 0 11 -12v-64q-2 -74 -17 -127l-11 5q3 40 3 112q-8 0 -5 10zM198 645v64q-2 12 10 12h9q11 0 11 -12v-64q-2 -74 -17 -127l-11 5q3 40 3 112q-8 0 -5 10z" />
<glyph unicode="&#x201e;" horiz-adv-x="321" d="M89 10v64q-1 12 10 12h9q11 0 11 -12v-64q-2 -74 -17 -127l-11 5q3 40 3 112q-8 0 -5 10zM203 10v64q-1 12 10 12h9q11 0 11 -12v-64q-2 -74 -17 -127l-11 5q3 40 3 112q-8 0 -5 10z" />
<glyph unicode="&#x2020;" horiz-adv-x="432" d="M55 454v26h134v-21zM203 475v216h25v-801h-24v574zM243 459v21h134v-26z" />
<glyph unicode="&#x2021;" horiz-adv-x="468" d="M73 101v26l134 -5v-21h-134zM73 454v26h134v-21zM221 -110v801h25v-801h-25zM261 101v21l134 5v-26h-134zM261 459v21h134v-26z" />
<glyph unicode="&#x2022;" horiz-adv-x="351" d="M106 263v10q0 36 14 50t51 14h10q36 0 50 -14t14 -50v-10q0 -37 -14 -51t-50 -14h-10q-37 0 -51 14t-14 51z" />
<glyph unicode="&#x2026;" horiz-adv-x="770" d="M86 12v62q0 12 12 12h10q12 0 12 -12v-62q0 -12 -12 -12h-10q-12 0 -12 12zM368 12v62q0 12 12 12h10q12 0 12 -12v-62q0 -12 -12 -12h-10q-12 0 -12 12zM650 12v62q0 12 12 12h10q12 0 12 -12v-62q0 -12 -12 -12h-10q-12 0 -12 12z" />
<glyph unicode="&#x202f;" horiz-adv-x="183" />
<glyph unicode="&#x2030;" horiz-adv-x="1242" d="M61 498q0 107 34 155.5t116 48.5t116 -48.5t34 -155.5t-34 -155.5t-116 -48.5t-116 48.5t-34 155.5zM84 498q0 -98 28.5 -141.5t98.5 -43.5t98.5 43.5t28.5 141.5t-28.5 141.5t-98.5 43.5t-98.5 -43.5t-28.5 -141.5zM188 0l480 690h24l-480 -690h-24zM522 197 q0 107 34 155.5t116 48.5t116 -48.5t34 -155.5t-34 -155.5t-116 -48.5t-116 48.5t-34 155.5zM545 197q0 -98 28.5 -141.5t98.5 -43.5t98.5 43.5t28.5 141.5t-28.5 141.5t-98.5 43.5t-98.5 -43.5t-28.5 -141.5zM879 197q0 107 34 155.5t116 48.5t116 -48.5t34 -155.5 t-34 -155.5t-116 -48.5t-116 48.5t-34 155.5zM902 197q0 -98 28.5 -141.5t98.5 -43.5t98.5 43.5t28.5 141.5t-28.5 141.5t-98.5 43.5t-98.5 -43.5t-28.5 -141.5z" />
<glyph unicode="&#x2039;" horiz-adv-x="225" d="M21 247v8l163 199l12 -10l-148 -193l149 -195l-12 -10z" />
<glyph unicode="&#x203a;" horiz-adv-x="226" d="M28 56l149 195l-148 193l12 10l164 -199v-8l-165 -201z" />
<glyph unicode="&#x2044;" horiz-adv-x="160" d="M-173 0l480 690h24l-480 -690h-24z" />
<glyph unicode="&#x205f;" horiz-adv-x="229" />
<glyph unicode="&#x20ac;" horiz-adv-x="648" d="M68 276v21h96q-1 15 -1 48q0 26 2 70h-97v21h99q13 134 72.5 200t178.5 66q91 0 160 -17l-6 -18q-71 12 -154 12q-106 0 -159.5 -60t-65.5 -183h289l-8 -21h-283q-2 -44 -2 -70q0 -33 1 -48h239l-8 -21h-230q10 -134 63.5 -199.5t163.5 -65.5q96 0 162 13l6 -18 q-70 -18 -168 -18q-124 0 -183.5 71.5t-69.5 216.5h-97z" />
<glyph unicode="&#x2122;" horiz-adv-x="947" d="M78 677v19h309v-19h-144v-361h-22v361h-143zM447 316l17 368q2 12 12 12h31q8 0 10 -8l109 -267q2 -6 5 -13t5 -13t5 -13t5 -13h15q25 63 73 182t55 137q3 8 11 8h31q12 0 12 -12l17 -368h-22l-17 361h-14l-129 -318q-2 -8 -11 -8h-27q-9 0 -11 8l-129 318h-14l-17 -361 h-22z" />
<glyph unicode="&#x2202;" horiz-adv-x="567" d="M69 216q4 108 58 166.5t146 58.5q127 0 189 -111l1 9q6 86 -3 145.5t-30.5 98.5t-62.5 61t-92 30t-127 8v20q64 0 110 -5t89 -19t70 -40t46 -66t25 -98.5t0 -137.5q-5 -64 -11 -107.5t-21 -93t-37.5 -79t-60.5 -49t-89 -19.5q-107 0 -155.5 64t-44.5 164zM93 218 q-3 -90 39.5 -149t136.5 -59q42 0 74.5 16.5t52.5 42.5t33.5 66t20.5 79.5t11 90.5q-70 114 -190 114q-79 0 -126.5 -54.5t-51.5 -146.5z" />
<glyph unicode="&#x2205;" horiz-adv-x="685" d="M50 341q0 121 86 206.5t207 85.5t206.5 -85.5t85.5 -206.5t-85.5 -207t-206.5 -86t-207 86t-86 207zM221 534l3 -45q60 9 119 9q66 0 66 -46q0 -21 -15 -44.5t-33.5 -42.5t-33.5 -52t-15 -72h54q0 35 14.5 64.5t32.5 46.5t32.5 43.5t14.5 56.5q0 93 -117 93 q-51 0 -122 -11zM313 126q0 -7 7 -7h39q8 0 8 7v37q0 8 -8 8h-39q-7 0 -7 -8v-37z" />
<glyph unicode="&#x220f;" horiz-adv-x="730" d="M46 669v21h638v-21h-121v-779h-24v779h-348v-779h-24v779h-121z" />
<glyph unicode="&#x2211;" horiz-adv-x="580" d="M56 -61l202 422l-190 307v22h442v-22h-413l189 -307l-203 -422h437v-22h-464v22z" />
<glyph unicode="&#x2212;" horiz-adv-x="589" d="M86 285v22h417v-22h-417z" />
<glyph unicode="&#x221a;" horiz-adv-x="551" d="M47 480h26l121 -458h13l282 854h26l-288 -868q-3 -8 -13 -8h-27q-11 0 -13 8z" />
<glyph unicode="&#x221e;" horiz-adv-x="792" d="M76 313q0 62 36 93.5t95 31.5q103 0 191 -115q25 31 46 52t62 42t84 21q56 0 91 -31.5t35 -93.5q0 -64 -38.5 -99t-98.5 -35q-33 0 -61 10t-51.5 29.5t-36.5 34t-32 38.5q-44 -53 -87 -82.5t-99 -29.5q-59 0 -97.5 35t-38.5 99zM99 313q0 -55 31.5 -84t85.5 -29 q53 0 90.5 27t78.5 80q-41 53 -81.5 81.5t-96.5 28.5q-108 0 -108 -104zM410 306q21 -29 38 -48t52.5 -38.5t76.5 -19.5q53 0 84.5 29t31.5 85q0 52 -28 77.5t-75 25.5q-38 0 -75.5 -19.5t-58 -40t-46.5 -51.5z" />
<glyph unicode="&#x222b;" horiz-adv-x="388" d="M43 -218l3 18h67q50 0 71.5 25.5t17.5 85.5l-40 670q-8 133 105 133q49 0 78 -4l-3 -18h-67q-50 0 -71.5 -25.5t-17.5 -85.5l40 -670q8 -133 -105 -133q-49 0 -78 4z" />
<glyph unicode="&#x2248;" horiz-adv-x="593" d="M87 154q-1 49 19 69t58 20q43 0 132 -33t136 -34q28 0 41.5 12t13.5 50h20q0 -45 -18 -65t-62 -20q-49 0 -137 33.5t-128 33.5q-28 0 -41.5 -13.5t-13.5 -52.5h-20zM87 344q-1 49 19 69t58 20q43 0 132 -33t136 -34q28 0 41.5 12t13.5 50h20q0 -45 -18 -65t-62 -20 q-49 0 -137 33.5t-128 33.5q-28 0 -41.5 -13.5t-13.5 -52.5h-20z" />
<glyph unicode="&#x2260;" horiz-adv-x="615" d="M120 173v22h123l116 190h-239v22h252l65 107l19 -9l-60 -98h141v-22h-154l-115 -190h269v-22h-283l-75 -124l-19 9l70 115h-110z" />
<glyph unicode="&#x2264;" horiz-adv-x="589" d="M87 105v21h417v-21h-417zM97 334v22l393 153v-23l-368 -141l368 -125v-23z" />
<glyph unicode="&#x2265;" horiz-adv-x="589" d="M85 105v21h417v-21h-417zM99 197v22l368 126l-368 142v22l393 -153v-22z" />
<glyph unicode="&#x25ca;" horiz-adv-x="593" d="M50 339q-4 7 0 14l240 340q7 9 14 0l239 -340q4 -7 0 -14l-239 -342q-7 -9 -14 0zM75 346l222 -322l221 322l-221 320z" />
<glyph unicode="&#x25fc;" horiz-adv-x="480" d="M0 0v480h480v-480h-480z" />
<glyph unicode="&#xfb00;" horiz-adv-x="658" d="M35 458v17l87 5v81q0 68 29 100.5t96 32.5q73 0 118 -4v-18h-110q-60 0 -84.5 -25t-24.5 -86v-81h280v101q0 68 29 100.5t96 32.5q73 0 118 -4v-18h-110q-60 0 -84.5 -25t-24.5 -86v-101h178v-22h-178v-458h-24v458h-280v-458h-24v458h-87z" />
<glyph unicode="&#xfb03;" horiz-adv-x="852" d="M35 458v17l87 5v81q0 68 29 100.5t96 32.5q73 0 118 -4v-18h-110q-60 0 -84.5 -25t-24.5 -86v-81h280v101q0 68 29 100.5t96 32.5q73 0 118 -4v-18h-110q-60 0 -84.5 -25t-24.5 -86v-101h304v-480h-24v457h-280v-457h-24v458h-280v-458h-24v458h-87zM725 605v62 q0 12 12 12h10q12 0 12 -12v-62q0 -12 -12 -12h-10q-12 0 -12 12z" />
<glyph unicode="&#xfb04;" horiz-adv-x="919" d="M35 458v17l87 5v81q0 68 29 100.5t96 32.5q73 0 118 -4v-18h-110q-60 0 -84.5 -25t-24.5 -86v-81h280v101q0 68 29 100.5t96 32.5q149 0 217 -6v-612q0 -39 21 -59.5t59 -20.5h58l3 -16q-19 -6 -64 -6q-46 0 -73.5 26.5t-27.5 74.5v597h-185q-60 1 -84.5 -24t-24.5 -87 v-101h178v-22h-178v-458h-24v458h-280v-458h-24v458h-87z" />
<glyph unicode="&#xfb06;" horiz-adv-x="835" d="M62 365q0 32 8 53.5t20 34t37 18.5t48 7.5t64 1.5h370v151h24v-151h178v-22h-178v-362q0 -80 80 -80h88l3 -16q-40 -6 -85 -6q-110 0 -110 101v363h-370q-40 0 -58 -1t-41 -5.5t-32 -14t-15.5 -27.5t-6.5 -45q0 -51 20 -73.5t60 -27.5l162 -20q109 -14 109 -122 q0 -45 -11.5 -72t-38.5 -40t-57 -17t-82 -4q-94 0 -174 11l3 18q87 -8 172 -7q96 2 130 22t34 89q0 88 -85 99l-162 20q-52 6 -78 35t-26 89z" />
<glyph horiz-adv-x="783" d="M69 240q0 130 49.5 185t169.5 55h269v151h24v-151h178v-22h-178v-362q0 -80 80 -80h88l3 -16q-40 -6 -85 -6q-110 0 -110 101v363h-265q-110 0 -154 -47.5t-44 -170.5q0 -131 41.5 -180t146.5 -49q67 0 118 12l4 -18q-65 -17 -125 -17q-115 0 -162.5 57t-47.5 195z" />
<glyph horiz-adv-x="1127" d="M35 458v17l87 5v81q0 68 29 100.5t96 32.5q73 0 118 -4v-18h-110q-60 0 -84.5 -25t-24.5 -86v-81h280v101q0 68 29 100.5t96 32.5q73 0 118 -4v-18h-110q-60 0 -84.5 -25t-24.5 -86v-101h150q77 0 107 -71q17 -40 40 -96t40.5 -98.5t39.5 -95.5t41 -97h13 q37 89 106.5 256t84.5 202h26l-221 -527q-29 -68 -62.5 -107t-92.5 -56l-6 14q55 21 84.5 58.5t55.5 99.5l16 38h-11q-8 0 -13 8l-164 393q-23 57 -86 57h-148v-458h-24v458h-280v-458h-24v458h-87z" />
<glyph horiz-adv-x="665" d="M35 458v17l87 5v101q0 68 29 100.5t96 32.5q73 0 118 -4v-18h-110q-60 0 -84.5 -25t-24.5 -86v-101h293v151h24v-151h178v-22h-178v-362q0 -80 80 -80h88l3 -16q-40 -6 -85 -6q-110 0 -110 101v363h-293v-458h-24v458h-87z" />
<glyph horiz-adv-x="823" d="M35 458v17l87 5v101q0 68 29 100.5t96 32.5q73 0 118 -4v-18h-110q-60 0 -84.5 -25t-24.5 -86v-101h150q77 0 107 -71q11 -27 70 -169.5t91 -217.5h12q37 88 105.5 252t86.5 206h26l-221 -527q-29 -68 -62.5 -107t-92.5 -56l-6 14q55 21 86 59.5t54 98.5l15 38h-10 q-8 0 -13 8l-164 393q-23 57 -86 57h-148v-458h-24v458h-87z" />
<glyph horiz-adv-x="664" d="M34 458v17l87 5v151h24v-151h293v151h24v-151h178v-22h-178v-362q0 -80 80 -80h88l3 -16q-41 -6 -85 -6q-110 0 -110 101v363h-293v-362q0 -80 80 -80h88l3 -16q-40 -6 -85 -6q-110 0 -110 101v363h-87z" />
<glyph horiz-adv-x="851" d="M34 458v17l87 5v151h24v-151h181q75 0 104 -69q12 -28 71 -170.5t91 -218.5h13q37 89 105.5 253.5t85.5 204.5h26l-221 -527q-29 -68 -62.5 -107t-92.5 -56l-6 14q55 21 84.5 58.5t55.5 99.5l16 38h-11q-8 0 -13 8l-164 393q-23 57 -86 57h-177v-362q0 -80 80 -80h88 l3 -16q-40 -6 -85 -6q-110 0 -110 101v363h-87z" />
<glyph horiz-adv-x="357" d="M43 691h24q0 -49 31 -76.5t82 -27.5q50 0 80.5 27.5t30.5 76.5h24q0 -54 -37 -88t-98 -34q-62 0 -99.5 34t-37.5 88z" />
</font>
</defs>
</svg>
